<svg width="24" height="24" viewBox="0 0 24 24" fill="none" xmlns="http://www.w3.org/2000/svg">
<path d="M3 11V18C3 19.6569 4.34315 21 6 21H13M17 21H18C19.6569 21 21 19.6569 21 18V6C21 4.34315 19.6569 3 18 3H6C4.34315 3 3 4.34315 3 6V7M8.33331 11.6875V7.625C8.33331 7.27982 8.63179 7 8.99998 7H12.6666C14.0474 7 15.1666 8.04933 15.1666 9.34375C15.1666 10.6382 14.0474 11.6875 12.6666 11.6875M8.33331 11.6875V16.375C8.33331 16.7202 8.63179 17 8.99998 17H13C14.5648 17 15.8333 15.8108 15.8333 14.3438C15.8333 12.8767 14.5648 11.6875 13 11.6875H12.6666M8.33331 11.6875H12.6666" stroke="black" stroke-width="2" stroke-linecap="round"/>
</svg>
