<svg width="24" height="24" viewBox="0 0 24 24" fill="none" xmlns="http://www.w3.org/2000/svg">
<path d="M12 2C17.5228 2 22 6.47715 22 12C22 17.5228 17.5228 22 12 22C7.89936 22 4.3752 19.5318 2.83209 16M2 12C2 8.29859 4.01099 5.06687 7 3.33782M8.3335 11.6875V7.625C8.3335 7.27982 8.63197 7 9.00016 7H12.6668C14.0475 7 15.1668 8.04933 15.1668 9.34375C15.1668 10.6382 14.0475 11.6875 12.6668 11.6875M8.3335 11.6875V16.375C8.3335 16.7202 8.63197 17 9.00016 17H13.0002C14.565 17 15.8335 15.8108 15.8335 14.3438C15.8335 12.8767 14.565 11.6875 13.0002 11.6875H12.6668M8.3335 11.6875H12.6668" stroke="black" stroke-width="2" stroke-linecap="round" stroke-linejoin="round"/>
</svg>
