<svg width="24" height="24" viewBox="0 0 24 24" fill="none" xmlns="http://www.w3.org/2000/svg">
<path d="M12 2C17.5228 2 22 6.47715 22 12C22 17.5228 17.5228 22 12 22C7.89936 22 4.3752 19.5318 2.83209 16M2 12C2 8.29859 4.01099 5.06687 7 3.33782M15.5651 8.46447C13.6057 6.51184 10.4289 6.51184 8.46954 8.46447C6.51015 10.4171 6.51015 13.5829 8.46954 15.5355C10.4289 17.4882 13.6057 17.4882 15.5651 15.5355C16.3853 14.7181 16.8622 13.6881 16.9957 12.6234C17.0386 12.2809 16.7538 12 16.4075 12H12.0173" stroke="black" stroke-width="2" stroke-linecap="round" stroke-linejoin="round"/>
</svg>
