<svg width="24" height="24" viewBox="0 0 24 24" fill="none" xmlns="http://www.w3.org/2000/svg">
<path d="M12 22C6.47715 22 2 17.5228 2 12M22 12C22 6.47715 17.5228 2 12 2M11.9497 15.3665C11.6497 15.7099 11.3319 16.0613 11.013 16.4263C10.2538 17.2951 8.98698 17.5931 7.96901 17.0501C6.87328 16.4657 6.44261 15.1148 6.99798 14.004L10.6584 6.68328C11.2111 5.57771 12.7889 5.57771 13.3416 6.68328L16.9205 13.841C17.5212 15.0425 17.0554 16.5038 15.8702 17.1359C14.9077 17.6492 13.721 17.4744 13.0045 16.652C12.6705 16.2687 12.3037 15.8288 11.9497 15.3665ZM11.9497 15.3665C12.9478 14.2242 13.75 13.1709 13.75 12C13.75 11.5 13.5 10.25 12 10.25C10.5 10.25 10.25 11.5 10.25 12C10.25 12.8996 11.0592 14.2037 11.9497 15.3665ZM2.4578 9C2.16035 9.94704 2 10.9548 2 12M12 2C9.20261 2 6.67349 3.14864 4.85857 5M15 21.5422C14.053 21.8396 13.0452 22 12 22M22 12C22 14.779 20.8664 17.2932 19.0365 19.1055" stroke="black" stroke-width="2" stroke-linecap="round" stroke-linejoin="round"/>
</svg>
