<svg width="24" height="24" viewBox="0 0 24 24" fill="none" xmlns="http://www.w3.org/2000/svg">
<path d="M12 22C6.47715 22 2 17.5228 2 12M22 12C22 6.47715 17.5228 2 12 2M7 17L7.38311 16.3296M13 6.5L9 13.5M17 17L13.5714 11M11 6.5L11.9352 8.13659M6 13.75H12M18 13.75H15.5M2.4578 9C2.16035 9.94704 2 10.9548 2 12M12 2C9.20261 2 6.67349 3.14864 4.85857 5M15 21.5422C14.053 21.8396 13.0452 22 12 22M22 12C22 14.779 20.8664 17.2932 19.0365 19.1055" stroke="black" stroke-width="2" stroke-linecap="round" stroke-linejoin="round"/>
</svg>
