<svg width="24" height="24" viewBox="0 0 24 24" fill="none" xmlns="http://www.w3.org/2000/svg">
<path fill-rule="evenodd" clip-rule="evenodd" d="M10.2852 5.7C10.2852 4.76627 11.0478 4 12.0001 4C12.9523 4 13.7149 4.76627 13.7149 5.7C13.7149 6.25228 14.1626 6.7 14.7149 6.7C15.2672 6.7 15.7149 6.25228 15.7149 5.7C15.7149 3.65139 14.0465 2 12.0001 2C9.95358 2 8.28522 3.65139 8.28522 5.7C8.28522 6.25228 8.73294 6.7 9.28522 6.7C9.83751 6.7 10.2852 6.25228 10.2852 5.7ZM10.9705 7.4H10.9248H10.9248C9.93988 7.39999 9.13418 7.39997 8.47553 7.45944C7.78983 7.52135 7.18021 7.65303 6.60774 7.96509C6.15547 8.21163 5.74767 8.53191 5.40137 8.91281C4.73979 9.64047 4.44381 10.5731 4.14234 11.7523C4.00554 12.2874 4.3284 12.832 4.86347 12.9688C5.39855 13.1056 5.94321 12.7828 6.08001 12.2477C6.38629 11.0498 6.59139 10.577 6.88118 10.2582C7.07715 10.0427 7.30825 9.86109 7.56499 9.72113C7.80538 9.59009 8.11409 9.50021 8.65537 9.45134C9.21354 9.40094 9.92875 9.4 10.9705 9.4H13.0296C14.0714 9.4 14.7866 9.40094 15.3447 9.45134C15.886 9.50021 16.1947 9.59009 16.4351 9.72113C16.6919 9.86109 16.923 10.0427 17.1189 10.2582C17.3019 10.4594 17.4606 10.7358 17.6333 11.2469C17.8116 11.7745 17.978 12.4654 18.2194 13.4736C18.5885 15.0154 18.8447 16.0918 18.9499 16.927C19.0534 17.7493 18.9878 18.1911 18.8345 18.5125C18.6655 18.8669 18.4177 19.1791 18.1093 19.4254C17.8284 19.6499 17.4085 19.8162 16.5784 19.9067C15.7361 19.9986 14.6228 20 13.0296 20H10.9705C9.37731 20 8.26404 19.9986 7.42168 19.9067C6.59164 19.8162 6.17175 19.6499 5.89077 19.4254C5.58242 19.1791 5.33463 18.8669 5.16558 18.5125C4.96598 18.094 4.92347 17.4942 5.16946 16.1846C5.27141 15.6418 4.91404 15.1191 4.37124 15.0172C3.82845 14.9152 3.30578 15.2726 3.20383 15.8154C2.94977 17.168 2.86382 18.3325 3.36043 19.3735C3.65999 20.0015 4.09844 20.5534 4.64249 20.988C5.35457 21.5569 6.21636 21.7871 7.20486 21.8949C8.16847 22 9.39122 22 10.9108 22H10.9109H10.9705H13.0296H13.0892H13.0893C14.6089 22 15.8317 22 16.7953 21.8949C17.7838 21.7871 18.6455 21.5569 19.3576 20.988C19.9017 20.5534 20.3401 20.0015 20.6397 19.3735C21.0323 18.5504 21.0579 17.6603 20.9342 16.6773C20.8137 15.7198 20.5303 14.5361 20.1785 13.0666L20.1785 13.0665L20.1644 13.008L20.1537 12.9632L20.1537 12.9632C19.9257 12.0107 19.739 11.2306 19.528 10.6065C19.3082 9.95617 19.0375 9.3954 18.5987 8.91281L17.8588 9.58552L18.5987 8.91281C18.2524 8.53191 17.8446 8.21163 17.3924 7.96509C16.8199 7.65303 16.2103 7.52135 15.5246 7.45944C14.8659 7.39997 14.0602 7.39999 13.0753 7.4H13.0753H13.0296H10.9705ZM8.75006 13C9.30234 13 9.75006 12.5523 9.75006 12C9.75006 11.4477 9.30234 11 8.75006 11C8.19777 11 7.75006 11.4477 7.75006 12C7.75006 12.5523 8.19777 13 8.75006 13ZM15.5001 13C16.0523 13 16.5001 12.5523 16.5001 12C16.5001 11.4477 16.0523 11 15.5001 11C14.9478 11 14.5001 11.4477 14.5001 12C14.5001 12.5523 14.9478 13 15.5001 13Z" fill="black"/>
</svg>
