<svg width="24" height="24" viewBox="0 0 24 24" fill="none" xmlns="http://www.w3.org/2000/svg">
<path d="M3.05902 7.625H6.37102C7.22442 7.625 7.96892 7.05938 8.17615 6.25223C8.47004 5.1075 7.58082 4 6.37102 4H3.98968M15.7673 17.9375H19.0793C19.9327 17.9375 20.6772 17.3719 20.8844 16.5647C21.1783 15.42 20.2891 14.3125 19.0793 14.3125H16.698M10.4722 7.625L11.4029 4H13.7842C14.994 4 15.8832 5.1075 15.5893 6.25223C15.3821 7.05938 14.6376 7.625 13.7842 7.625H10.4722ZM16.8263 11.75L17.757 8.125H20.1383C21.3481 8.125 22.2374 9.2325 21.9435 10.3772C21.7362 11.1844 20.9917 11.75 20.1383 11.75H16.8263ZM2 13.8125L2.93066 10.1875H5.312C6.5218 10.1875 7.41101 11.295 7.11712 12.4397C6.9099 13.2469 6.16539 13.8125 5.312 13.8125H2ZM9.41317 13.8125L10.3438 10.1875H12.7252C13.935 10.1875 14.8242 11.295 14.5303 12.4397C14.3231 13.2469 13.5786 13.8125 12.7252 13.8125H9.41317ZM8.35415 20L9.28481 16.375H11.6661C12.8759 16.375 13.7652 17.4825 13.4713 18.6272C13.264 19.4344 12.5195 20 11.6661 20H8.35415Z" stroke="black" stroke-width="2" stroke-linecap="round" stroke-linejoin="round"/>
</svg>
