<svg width="24" height="24" viewBox="0 0 24 24" fill="none" xmlns="http://www.w3.org/2000/svg">
<path d="M2.06102 8C2.13759 7.00375 2.30999 6.30952 2.69821 5.74189C2.97832 5.33233 3.33219 4.97846 3.74176 4.69834C4.76283 4 6.19353 4 9.05493 4H14.9448C17.8062 4 19.2369 4 20.258 4.69834C20.6675 4.97846 21.0214 5.33233 21.3015 5.74189C21.9999 6.76296 21.9999 8.19366 21.9999 11.0551L21.9998 16.9909C21.9998 17.9056 21.9998 18.363 21.8761 18.6983C21.6048 19.4331 20.9295 19.942 20.1483 20.0001C19.7919 20.0266 19.3522 19.9005 18.473 19.6483L13.6515 18.2652C13.3817 18.1878 13.2468 18.1491 13.1082 18.1296C12.9697 18.1101 12.8293 18.1101 12.5486 18.1101L9.05493 18.1101C6.19353 18.1101 4.76283 18.1101 3.74176 17.4118C3.33219 17.1317 2.97832 16.7778 2.69821 16.3682C2.08136 15.4663 2.00938 14.2448 2.00098 12" stroke="black" stroke-width="2" stroke-linecap="round"/>
</svg>
