<svg width="24" height="24" viewBox="0 0 24 24" fill="none" xmlns="http://www.w3.org/2000/svg">
<path d="M16.7074 15.2953C18.4629 12.3632 16.9025 6.56146 15.8622 6C10.6216 6.33264 9.03923 11.0237 8.90523 13.4237C8.90523 13.8186 7.58373 13.0193 8.36976 9.57357C8.43714 9.27818 8.36976 8.92538 8.36976 8.92538C5.64064 11.2287 5.87533 15.5835 9.23032 17.3539C10.4093 17.9761 11.7487 18.1368 13 17.8882M2.4578 9C2.16035 9.94704 2 10.9548 2 12C2 17.5228 6.47715 22 12 22C17.5228 22 22 17.5228 22 12C22 6.47715 17.5228 2 12 2C8.9587 2 6.2345 3.35767 4.40041 5.5" stroke="black" stroke-width="1.96525" stroke-linecap="round" stroke-linejoin="round"/>
</svg>
