<svg width="24" height="24" viewBox="0 0 24 24" fill="none" xmlns="http://www.w3.org/2000/svg">
<path d="M9.05555 7V9.11229C9.05555 9.25036 8.94362 9.36229 8.80555 9.36229H7C6.44772 9.36229 6 9.81001 6 10.3623V12.3043C6 12.8566 6.44771 13.3043 7 13.3043H8.80563C8.9437 13.3043 9.05563 13.4163 9.05563 13.5543V21C9.05563 21.5523 9.50334 22 10.0556 22H12.9444C13.4967 22 13.9444 21.5523 13.9444 21V20M10.6515 3.33771C11.544 2.50767 12.7405 2 14.0555 2H16.9999C17.5522 2 17.9999 2.4477 17.9999 2.99998L18 4.73911C18 5.2914 17.5523 5.73913 17 5.73913H15.7407C14.6362 5.73913 13.7407 6.63456 13.7407 7.73913V8.86229C13.7407 9.13843 13.9646 9.36229 14.2407 9.36229H16.3889C16.9411 9.36229 17.3889 9.81001 17.3889 10.3623V12.3043C17.3889 12.8566 16.9411 13.3043 16.3889 13.3043H14.1944C14.0563 13.3043 13.9444 13.4163 13.9444 13.5543V16" stroke="black" stroke-width="2" stroke-linecap="round" stroke-linejoin="round"/>
</svg>
