<svg width="24" height="24" viewBox="0 0 24 24" fill="none" xmlns="http://www.w3.org/2000/svg">
<path d="M2.18892 10.0556C2.06497 10.6845 2 11.3347 2 12C2 17.5228 6.47715 22 12 22C13.0452 22 14.053 21.8396 15 21.5422M4 6C5.82443 3.57131 8.72852 2 12 2C14.1009 2 16.0504 2.64786 17.6598 3.75469C18.1634 4.10099 18.1573 4.82184 17.6917 5.21763L16.1537 6.52489C15.8038 6.82231 15.3001 6.83516 14.8959 6.61723C14.034 6.15259 13.0478 5.88889 12 5.88889C8.62493 5.88889 5.88889 8.62493 5.88889 12C5.88889 15.3751 8.62493 18.1111 12 18.1111C14.4495 18.1111 16.5623 16.67 17.537 14.5894C17.6819 14.28 17.4419 13.9444 17.1002 13.9444H13C12.4477 13.9444 12 13.4967 12 12.9444V11.0556C12 10.5033 12.4477 10.0556 13 10.0556H20.5778C21.2944 10.0556 21.9232 10.5624 21.9743 11.2772C21.9913 11.5159 22 11.7569 22 12C22 14.7974 20.8514 17.3265 19 19.1414" stroke="black" stroke-width="2" stroke-linecap="round"/>
</svg>
