<svg width="24" height="24" viewBox="0 0 24 24" fill="none" xmlns="http://www.w3.org/2000/svg">
<path d="M10.8809 21.9381C11.2481 21.979 11.6213 22 11.9994 22C13.0447 22 14.0525 21.8396 14.9995 21.5422M10.8809 21.9381L15.4352 14.0495M10.8809 21.9381C6.21233 21.4186 2.51397 17.6848 2.04883 13M3.95243 6.06213C5.77377 3.59793 8.7 2 11.9994 2C16.1001 2 19.6242 4.46819 21.1674 8M3.95243 6.06213L8.492 13.9245M3.95243 6.06213C3.30204 6.94207 2.79255 7.93246 2.45725 9M8.492 13.9245C9.17224 15.1616 10.4879 16 11.9994 16C13.4595 16 14.7368 15.2178 15.4352 14.0495M8.492 13.9245C8.17804 13.3535 7.99945 12.6976 7.99945 12C7.99945 9.79086 9.79031 8 11.9994 8M8.492 13.9245L8.53559 14M15.4352 14.0495C15.7935 13.4501 15.9994 12.7491 15.9994 12C15.9994 9.79086 14.2086 8 11.9994 8M15.4352 14.0495L15.4638 14M11.9994 8H21.1674M21.1674 8C21.7026 9.22492 21.9994 10.5778 21.9994 12C21.9994 14.7974 20.8508 17.3265 18.9995 19.1414" stroke="black" stroke-width="2" stroke-linecap="round" stroke-linejoin="round"/>
</svg>
