<svg width="24" height="24" viewBox="0 0 24 24" fill="none" xmlns="http://www.w3.org/2000/svg">
<path d="M21.4438 15.3744H17.1516M17.1516 15.3744H9.38143C8.59396 15.3744 7.86529 15.7964 7.46602 16.4836L5.33266 20.1557L11.3278 9.78591C11.7413 9.07067 11.6953 8.24222 11.2586 7.4994M17.1516 15.3744C16.3682 15.3744 15.6427 14.9568 15.242 14.2752L11.2586 7.4994M11.2586 7.4994L9.23313 4.05409M3.89394 12L3.08085 13.4489C2.40815 14.6477 2.3981 16.1079 3.05424 17.3158L3.91988 18.9093C4.61977 20.1978 5.96851 21 7.43477 21H12M6 8.247L7.79827 5.04249C8.50617 3.781 9.84001 3 11.2866 3H12.7134C14.16 3 15.4938 3.781 16.2017 5.04249L20.9192 13.4489C21.5919 14.6477 21.6019 16.1079 20.9458 17.3158L20.0801 18.9093C19.3802 20.1978 18.0315 21 16.5652 21H16M9.84134 15.375H14.1587C14.9281 15.375 15.4092 14.5425 15.0251 13.8758L12.8665 10.129C12.4818 9.46124 11.5182 9.46124 11.1335 10.129L8.97485 13.8758C8.59076 14.5425 9.07194 15.375 9.84134 15.375Z" stroke="black" stroke-width="2" stroke-linecap="round" stroke-linejoin="round"/>
</svg>
