<svg width="24" height="24" viewBox="0 0 24 24" fill="none" xmlns="http://www.w3.org/2000/svg">
<path fill-rule="evenodd" clip-rule="evenodd" d="M6.68605 5.94326C7.97136 4.44594 9.87467 3.5 12 3.5C15.866 3.5 19 6.63401 19 10.5C19 12.0639 18.7403 13.6243 18.2521 15.0322C18.0712 15.554 18.3475 16.1237 18.8693 16.3046C19.3911 16.4855 19.9608 16.2092 20.1418 15.6874C20.7056 14.0612 21 12.2788 21 10.5C21 5.52944 16.9706 1.5 12 1.5C9.2669 1.5 6.81755 2.7195 5.16849 4.64056C4.80876 5.05963 4.85686 5.69096 5.27592 6.05069C5.69498 6.41042 6.32632 6.36232 6.68605 5.94326ZM5.12288 9.18637C5.2258 8.64376 4.86937 8.12045 4.32677 8.01752C3.78416 7.91459 3.26085 8.27102 3.15792 8.81363C3.05415 9.36064 3 9.92446 3 10.5C3 15.1326 6.50005 18.9476 11 19.4451V21.5C11 22.0523 11.4477 22.5 12 22.5C14.3375 22.5 16.2818 21.4558 17.7386 19.86C18.1109 19.4521 18.0821 18.8196 17.6742 18.4473C17.2663 18.0749 16.6338 18.1037 16.2614 18.5116C15.3525 19.5073 14.2593 20.1778 13 20.4099V18.5C13 17.9477 12.5523 17.5 12 17.5C8.13401 17.5 5 14.366 5 10.5C5 10.0502 5.0423 9.61112 5.12288 9.18637ZM7.55 8.5C7.38431 8.5 7.25 8.63431 7.25 8.8V11.7C7.25 11.8657 7.38431 12 7.55 12H7.95C8.11569 12 8.25 12.1343 8.25 12.3V13.3C8.25 13.4105 8.33995 13.5005 8.45029 13.4954C9.83836 13.4312 10.75 12.6935 10.75 11.5V8.8C10.75 8.63431 10.6157 8.5 10.45 8.5H7.55ZM16.45 8.5C16.6157 8.5 16.75 8.63431 16.75 8.8V11.5C16.75 12.6935 15.8384 13.4312 14.4503 13.4954C14.34 13.5005 14.25 13.4105 14.25 13.3V12.3C14.25 12.1343 14.1157 12 13.95 12H13.55C13.3843 12 13.25 11.8657 13.25 11.7V8.8C13.25 8.63431 13.3843 8.5 13.55 8.5H16.45Z" fill="black"/>
</svg>
