<svg width="24" height="24" viewBox="0 0 24 24" fill="none" xmlns="http://www.w3.org/2000/svg">
<path fill-rule="evenodd" clip-rule="evenodd" d="M7 2C4.23858 2 2 4.23858 2 7V8C2 8.55228 2.44772 9 3 9C3.55228 9 4 8.55228 4 8V7C4 5.34315 5.34315 4 7 4H17C18.6569 4 20 5.34315 20 7V17C20 18.6569 18.6569 20 17 20H7C5.34315 20 4 18.6569 4 17V12C4 11.4477 3.55228 11 3 11C2.44772 11 2 11.4477 2 12V17C2 19.7614 4.23858 22 7 22H17C19.7614 22 22 19.7614 22 17V7C22 4.23858 19.7614 2 17 2H7ZM9 12C9 10.3431 10.3431 9 12 9C13.6569 9 15 10.3431 15 12C15 12.2605 14.967 12.5119 14.9055 12.7507C14.7679 13.2856 15.0899 13.8308 15.6247 13.9684C16.1596 14.1061 16.7048 13.7841 16.8424 13.2493C16.9455 12.8489 17 12.4301 17 12C17 9.23858 14.7614 7 12 7C9.23858 7 7 9.23858 7 12C7 14.7614 9.23858 17 12 17C12.4301 17 12.8489 16.9455 13.2493 16.8424C13.7841 16.7048 14.1061 16.1596 13.9684 15.6247C13.8308 15.0899 13.2856 14.7679 12.7507 14.9055C12.5119 14.967 12.2605 15 12 15C10.3431 15 9 13.6569 9 12ZM17.25 8C17.9404 8 18.5 7.44036 18.5 6.75C18.5 6.05964 17.9404 5.5 17.25 5.5C16.5596 5.5 16 6.05964 16 6.75C16 7.44036 16.5596 8 17.25 8Z" fill="black"/>
</svg>
