<svg width="24" height="24" viewBox="0 0 24 24" fill="none" xmlns="http://www.w3.org/2000/svg">
<path d="M12 17.4782C13.0103 18.125 14.2114 18.5 15.5 18.5C15.6682 18.5 15.835 18.4936 16 18.4811M12 17.4782C10.1958 16.3231 9 14.3012 9 12C9 9.69879 10.1958 7.67689 12 6.52182M12 17.4782C13.8042 16.3231 15 14.3012 15 12C15 9.69879 13.8042 7.67689 12 6.52182M12 17.4782C10.9897 18.125 9.78864 18.5 8.5 18.5C4.91015 18.5 2 15.5899 2 12C2 11.3022 2.10996 10.6301 2.3135 10M12 6.52182C13.0103 5.875 14.2114 5.5 15.5 5.5C19.0899 5.5 22 8.41015 22 12C22 14.0813 21.0218 15.9342 19.5 17.1238M12 6.52182C10.9897 5.875 9.78864 5.5 8.5 5.5C7.02638 5.5 5.6673 5.99038 4.57703 6.81686" stroke="black" stroke-width="2" stroke-linecap="round" stroke-linejoin="round"/>
</svg>
