<svg width="24" height="24" viewBox="0 0 24 24" fill="none" xmlns="http://www.w3.org/2000/svg">
<path d="M5 9C6.65685 9 8 10.3431 8 12C8 13.6569 6.65685 15 5 15C3.34315 15 2 13.6569 2 12M16 12C16 10.3431 14.8807 9 13.5 9C12.1193 9 11 10.3431 11 12C11 13.6569 12.1193 15 13.5 15C14.8807 15 16 13.6569 16 12ZM22 12C22 10.3431 21.3284 9 20.5 9C19.6716 9 19 10.3431 19 12C19 13.6569 19.6716 15 20.5 15C21.3284 15 22 13.6569 22 12Z" stroke="black" stroke-width="2" stroke-linecap="round" stroke-linejoin="round"/>
</svg>
