<svg width="24" height="24" viewBox="0 0 24 24" fill="none" xmlns="http://www.w3.org/2000/svg">
<path d="M4 5V3.52131C4 2.68111 4.67157 2 5.5 2H8.08488C8.60578 2 9.08937 2.27407 9.36237 2.724L14.1511 10.6162C14.4153 11.0517 15.0769 10.8618 15.0769 10.3505V3.52131C15.0769 2.68111 15.7485 2 16.5769 2H18.5C19.3284 2 20 2.68111 20 3.52131V16M4 9V20.4636C4 21.412 4.8461 22.127 5.77007 21.981C6.38711 21.8836 6.98114 21.7992 7.55838 21.728C8.32961 21.6329 8.92308 20.9777 8.92308 20.1897V13.9337C8.92308 13.4224 9.58468 13.2325 9.84891 13.6679L14.2273 20.8839C14.4789 21.2985 14.911 21.5641 15.3888 21.6111C16.2931 21.7 17.2314 21.8233 18.2299 21.981C19.1539 22.127 20 21.412 20 20.4636V20" stroke="black" stroke-width="2" stroke-linecap="round" stroke-linejoin="round"/>
</svg>
