<svg width="24" height="24" viewBox="0 0 24 24" fill="none" xmlns="http://www.w3.org/2000/svg">
<path d="M12 22C6.47715 22 2 17.5228 2 12M22 12C22 6.47715 17.5228 2 12 2M9 13.5C9 13.5 10.25 14.25 12 14.25M15 13.5C15 13.5 13.75 14.25 12 14.25M12 14.25L9.5 17M12 14.25L14.5 17M2.4578 9C2.16035 9.94704 2 10.9548 2 12M12 2C9.20261 2 6.67349 3.14864 4.85857 5M15 21.5422C14.053 21.8396 13.0452 22 12 22M22 12C22 14.779 20.8664 17.2932 19.0365 19.1055M12 11C10.8954 11 10 10.1046 10 9C10 7.89543 10.8954 7 12 7C13.1046 7 14 7.89543 14 9C14 10.1046 13.1046 11 12 11Z" stroke="black" stroke-width="2" stroke-linecap="round" stroke-linejoin="round"/>
</svg>
