<svg width="24" height="24" viewBox="0 0 24 24" fill="none" xmlns="http://www.w3.org/2000/svg">
<path d="M9 21.5422C9.94704 21.8396 10.9548 22 12 22C12.6849 22 13.3538 21.9311 14 21.8M9 21.5422C4.94289 20.2679 2 16.4776 2 12C2 11.3151 2.06886 10.6462 2.20004 10M9 21.5422L10.8617 15M12 11L10.8617 15M10.8617 15C12.5 16.5 15.4772 16.4471 16.75 14.75C18.25 12.75 16.75 8.61303 13 7C7.6239 4.68752 3 11.5 7.5 14.5M3.99927 6C5.82368 3.57111 8.72836 2 12 2C17.5228 2 22 6.47715 22 12C22 15.3651 20.3378 18.342 17.7897 20.1545" stroke="black" stroke-width="2" stroke-linecap="round" stroke-linejoin="round"/>
</svg>
