<svg width="24" height="24" viewBox="0 0 24 24" fill="none" xmlns="http://www.w3.org/2000/svg">
<path fill-rule="evenodd" clip-rule="evenodd" d="M12 1C8.92308 1 6.13972 2.26464 4.14447 4.29996C3.75784 4.69434 3.76414 5.32748 4.15852 5.7141C4.55291 6.10072 5.18604 6.09443 5.57267 5.70004C7.20726 4.03263 9.48214 3 12 3C16.9706 3 21 7.02944 21 12C21 14.5013 19.9809 16.7628 18.3328 18.395C17.9404 18.7836 17.9373 19.4168 18.3259 19.8092C18.7145 20.2016 19.3477 20.2047 19.7401 19.816C21.752 17.8236 23 15.0566 23 12C23 5.92487 18.0751 1 12 1ZM9.57157 16H9.42871V8H13.4287C14.8489 8 16.0001 9.15127 16.0001 10.5714C16.0001 11.9916 14.8489 13.1429 13.4287 13.1429H11.0716C10.2431 13.1429 9.57157 13.8144 9.57157 14.6429V16ZM8.92871 6C8.10028 6 7.42871 6.67157 7.42871 7.5V16.5C7.42871 17.3284 8.10028 18 8.92871 18H10.0716C10.9 18 11.5716 17.3284 11.5716 16.5V15.1429H13.4287C15.9534 15.1429 18.0001 13.0962 18.0001 10.5714C18.0001 8.0467 15.9534 6 13.4287 6H8.92871ZM3.41185 9.29965C3.57734 8.77274 3.28436 8.21144 2.75745 8.04595C2.23055 7.88046 1.66925 8.17344 1.50375 8.70035C1.1762 9.74323 1 10.852 1 12C1 18.0751 5.92487 23 12 23C13.148 23 14.2568 22.8238 15.2997 22.4962C15.8266 22.3308 16.1195 21.7695 15.954 21.2425C15.7886 20.7156 15.2273 20.4227 14.7003 20.5881C13.8492 20.8555 12.9424 21 12 21C7.02944 21 3 16.9706 3 12C3 11.0576 3.14451 10.1508 3.41185 9.29965ZM10.5718 9.39307V11.7502C10.5718 11.8883 10.6837 12.0002 10.8218 12.0002H13.4289C14.2179 12.0002 14.8575 11.3606 14.8575 10.5716C14.8575 9.78266 14.2179 9.14307 13.4289 9.14307H10.8218C10.6837 9.14307 10.5718 9.255 10.5718 9.39307Z" fill="black"/>
</svg>
