<svg width="24" height="24" viewBox="0 0 24 24" fill="none" xmlns="http://www.w3.org/2000/svg">
<path d="M3.18585 10C3.06422 10.6432 3 11.3126 3 12C3 16.9706 6.35786 21 10.5 21C12.562 21 14.4296 20.0015 15.7854 18.3853C17.3651 19.7138 19.0656 21 21 21V18.5C19.7165 18.5 18.4331 17.4933 17.0713 16.3414C17.2677 15.9142 17.436 15.4659 17.5732 15M4.90973 6C6.28304 4.15875 8.27875 3 10.5 3C14.3605 3 17.5397 6.50005 17.9542 11M14 12C14 12.6424 13.9152 13.2565 13.7607 13.8207C12.8902 13.3266 11.9748 13 11 13V15.5C11.5404 15.5 12.0808 15.6785 12.627 15.9711C12.0375 16.6165 11.3001 17 10.5 17C8.567 17 7 14.7614 7 12C7 9.23858 8.567 7 10.5 7C12.433 7 14 9.23858 14 12Z" stroke="black" stroke-width="2" stroke-linecap="round" stroke-linejoin="round"/>
</svg>
