<svg width="24" height="24" viewBox="0 0 24 24" fill="none" xmlns="http://www.w3.org/2000/svg">
<path d="M10 6L7.25298 8.74702C5.75421 10.2458 5.81244 12.6931 7.3808 14.1189C8.84707 15.4519 11.1018 15.3982 12.503 13.997L14 12.5M14 18L16.747 15.253C18.2458 13.7542 18.1876 11.3069 16.6192 9.88109C15.1529 8.54812 12.8982 8.60177 11.497 10.003L10 11.5M2.4578 9C2.16035 9.94704 2 10.9548 2 12C2 17.5228 6.47715 22 12 22C13.0452 22 14.053 21.8396 15 21.5422M4.85857 5C6.67349 3.14864 9.20261 2 12 2C17.5228 2 22 6.47715 22 12C22 14.9241 20.7449 17.5551 18.7441 19.3837" stroke="black" stroke-width="2" stroke-linecap="round" stroke-linejoin="round"/>
</svg>
