<svg width="24" height="24" viewBox="0 0 24 24" fill="none" xmlns="http://www.w3.org/2000/svg">
<path d="M14.5 9.64286C14.5 8.35717 13.0714 7.5 12 7.5C10.9286 7.5 9.5 8.35712 9.5 9.85712C9.5 11.3571 12 12 12 12C12 12 14.5 12.6428 14.5 14.1428C14.5 15.6428 13.1998 16.5 12 16.5C10.8002 16.5 9.5 15.6429 9.5 14.3571M2.04938 11C2.08754 10.6156 2.14746 10.2377 2.2279 9.86738C2.31527 9.46517 2.35895 9.26406 2.35627 9.13326C2.35359 9.00246 2.28948 8.75646 2.16127 8.26446C2.05602 7.86059 2 7.43684 2 7C2 4.23858 4.23858 2 7 2C7.43684 2 7.86059 2.05602 8.26446 2.16127C8.75646 2.28948 9.00246 2.35359 9.13326 2.35627C9.26406 2.35895 9.46517 2.31527 9.86738 2.2279C10.5546 2.07863 11.2681 2 12 2C17.5228 2 22 6.47715 22 12C22 12.7319 21.9214 13.4454 21.7721 14.1326C21.6847 14.5348 21.641 14.7359 21.6437 14.8667C21.6464 14.9975 21.7105 15.2435 21.8387 15.7355C21.944 16.1394 22 16.5632 22 17C22 18.6357 21.2143 20.0878 20 21M2.4578 15C3.73207 19.0571 7.52236 22 12 22C12.7319 22 13.4454 21.9214 14.1326 21.7721C14.5348 21.6847 14.7359 21.641 14.8667 21.6437C14.9975 21.6464 15.2435 21.7105 15.7355 21.8387C15.8228 21.8615 15.911 21.8819 16 21.9" stroke="black" stroke-width="2" stroke-linecap="round" stroke-linejoin="round"/>
</svg>
