<svg width="24" height="24" viewBox="0 0 24 24" fill="none" xmlns="http://www.w3.org/2000/svg">
<path d="M17.5091 12C17.5 11.7464 17.5 11.4368 17.5 10.9957V8.5C17.5 5.46243 15.0376 3 12 3C9.7814 3 7.86961 4.31363 7 6.20551M17.5091 12C17.5152 12.1715 17.5256 12.3174 17.5428 12.4612C17.6578 13.4184 18.0018 14.3338 18.5456 15.1299C18.7481 15.4264 18.9915 15.7046 19.4783 16.2609L21 18C21 18 20.2071 18.4492 19.0203 19M17.5091 12C18.8724 11.6078 20 11 21 10.9957M6.5 12C5.13672 11.6078 4.0091 11 3.0091 10.9957M6.5 10V10.9957C6.5 11.4368 6.5 11.7464 6.4909 12C6.48475 12.1715 6.47445 12.3174 6.45718 12.4612C6.34219 13.4184 5.99824 14.3338 5.45445 15.1299C5.25192 15.4264 5.00848 15.7046 4.52167 16.2609L3 18C3 18 8.29516 21 12 21C12.9355 21 13.9725 20.8087 15 20.5227" stroke="black" stroke-width="2" stroke-linecap="round" stroke-linejoin="round"/>
</svg>
