<svg width="24" height="24" viewBox="0 0 24 24" fill="none" xmlns="http://www.w3.org/2000/svg">
<path d="M8.20299 8.71467C8.76769 8.70267 9.26558 8.32525 9.45103 7.76862L10.7245 3.94634C11.1448 2.68455 12.8552 2.68455 13.2755 3.94635L14.549 7.76862C14.7344 8.32525 15.2323 8.70267 15.797 8.71467L19.6747 8.79712C20.9548 8.82434 21.4833 10.5215 20.463 11.3285L17.3724 13.7733C16.9223 14.1293 16.7321 14.74 16.8957 15.304M4.3253 8.79712C3.04521 8.82434 2.51669 10.5215 3.53696 11.3285L6.62764 13.7733C7.07773 14.1293 7.2679 14.74 7.10434 15.304L5.98123 19.1772C5.61047 20.4559 6.99416 21.5047 8.0451 20.7417L11.2287 18.4304C11.6923 18.0938 12.3077 18.0938 12.7713 18.4304L15.9549 20.7417C17.0058 21.5047 18.3895 20.4559 18.0188 19.1772" stroke="black" stroke-width="2" stroke-linecap="round"/>
</svg>
