<svg width="24" height="24" viewBox="0 0 24 24" fill="none" xmlns="http://www.w3.org/2000/svg">
<path d="M3 8V7C3 4.79086 4.79086 3 7 3H17C19.2091 3 21 4.79086 21 7V17C21 19.2091 19.2091 21 17 21H16M3 12V17C3 19.2091 4.79086 21 7 21H12M11.289 9.97802C11.289 9.54945 11.6417 9.38462 12.226 9.38462C13.0638 9.38462 14.122 9.63736 14.9598 10.0879V7.50549C14.0449 7.14286 13.1409 7 12.226 7C9.98819 7 8.5 8.16483 8.5 10.1099C8.5 13.1429 12.689 12.6593 12.689 13.967C12.689 14.4725 12.248 14.6374 11.6307 14.6374C10.7157 14.6374 9.54724 14.2637 8.62126 13.7582V16.3736C9.64646 16.8132 10.6827 17 11.6307 17C13.9236 17 15.5 15.8681 15.5 13.9011C15.489 10.6264 11.289 11.2088 11.289 9.97802Z" stroke="black" stroke-width="1.66667" stroke-linecap="round" stroke-linejoin="round"/>
</svg>
