<svg width="24" height="24" viewBox="0 0 24 24" fill="none" xmlns="http://www.w3.org/2000/svg">
<path d="M4.06601 15C4.02252 15.2902 4 15.587 4 15.8889C4 19.264 6.81421 22 10.2857 22C13.7572 22 16.5714 19.264 16.5714 15.8889V15M6 11.4184C6.89298 10.6089 8.02876 10.0493 9.28952 9.8541C9.8353 9.76961 10.2857 10.2255 10.2857 10.7778V12.1111C10.2857 12.6634 9.82516 13.0942 9.30476 13.2792C8.21001 13.6682 7.42857 14.6898 7.42857 15.8889C7.42857 17.423 8.70776 18.6667 10.2857 18.6667C11.8637 18.6667 13.1429 17.423 13.1429 15.8889V3C13.1429 2.44772 13.5906 2 14.1429 2H15.5714C16.1237 2 16.5714 2.44772 16.5714 3V3.11111C16.5714 4.61851 17.6006 5.89221 19.0131 6.30428C19.5433 6.45895 20 6.89216 20 7.44444V9.02778C20 9.44199 19.6632 9.78199 19.2513 9.7385C18.4324 9.65204 17.6567 9.4254 16.9502 9.08376C16.7781 9.00052 16.5714 9.12212 16.5714 9.31332V11" stroke="black" stroke-width="2" stroke-linecap="round"/>
</svg>
