<svg width="24" height="24" viewBox="0 0 24 24" fill="none" xmlns="http://www.w3.org/2000/svg">
<path d="M2.4578 9C2.16035 9.94704 2 10.9548 2 12C2 17.5228 6.47715 22 12 22C13.0452 22 14.053 21.8396 15 21.5422M4.85857 5C6.67349 3.14864 9.20261 2 12 2C17.5228 2 22 6.47715 22 12C22 14.779 20.8664 17.2932 19.0365 19.1055M10.1651 10.9305C9.81533 10.4381 9.72744 9.59153 9.70605 9.26636C9.70166 9.20376 9.63545 9.16856 9.58242 9.20002C8.50225 9.84505 7.5 11.3709 7.5 12.8441C7.5 15.3751 9.15352 17.4983 12 17.4983C14.6669 17.4983 16.5 15.31 16.5 12.8444C16.5 9.61831 14.3314 7.47483 12.3999 6.50587C12.3547 6.48321 12.2948 6.52986 12.3015 6.5825C12.5502 8.32108 12.2065 10.212 10.1968 10.9398C10.1857 10.9441 10.1726 10.9402 10.1651 10.9305Z" stroke="black" stroke-width="2" stroke-linecap="round" stroke-linejoin="round"/>
</svg>
