<svg width="24" height="24" viewBox="0 0 24 24" fill="none" xmlns="http://www.w3.org/2000/svg">
<path d="M12 5.5C13.3428 5.5 14.4383 8.04082 14.4974 11.2286M12 5.5C10.6571 5.5 9.5616 8.04082 9.50246 11.2286M12 5.5C15.3137 5.5 18 6.84315 18 8.5C18 9.71124 16.5643 10.7548 14.4974 11.2286M12 5.5C8.68624 5.5 5.99995 6.84315 5.99995 8.5C5.99995 9.71124 7.43558 10.7548 9.50246 11.2286M14.4974 11.2286C14.4991 11.3185 14.5 11.409 14.5 11.5C14.5 14.8137 13.3807 17.5 12 17.5C10.6192 17.5 9.49995 14.8137 9.49995 11.5C9.49995 11.409 9.50079 11.3185 9.50246 11.2286M14.4974 11.2286C13.737 11.4028 12.8912 11.5 12 11.5C11.1087 11.5 10.2629 11.4028 9.50246 11.2286M2.41406 10C3.64342 7.10851 7.46992 5 12 5C17.5228 5 22 8.13401 22 12C22 15.866 17.5228 19 12 19C7.46992 19 3.64342 16.8915 2.41406 14" stroke="black" stroke-width="2" stroke-linecap="round" stroke-linejoin="round"/>
</svg>
