<svg width="24" height="24" viewBox="0 0 24 24" fill="none" xmlns="http://www.w3.org/2000/svg">
<path d="M8.83333 13V12.0844C8.83333 11.5321 8.38562 11.0844 7.83333 11.0844H7C6.44771 11.0844 6 10.6367 6 10.0844V7.34501C6 7.06886 6.2253 6.84886 6.49877 6.81051C8.34103 6.55218 9.6258 4.87827 9.96588 2.99475C10.064 2.45125 10.5033 2 11.0556 2H12.7222C13.2745 2 13.7222 2.44772 13.7222 3V5.84501C13.7222 6.39729 14.1699 6.84501 14.7222 6.84501H16.3889C16.9412 6.84501 17.3889 7.29272 17.3889 7.84501V10.0844C17.3889 10.6367 16.9412 11.0844 16.3889 11.0844H14.7222C14.1699 11.0844 13.7222 11.5321 13.7222 12.0844V16.535C13.7222 18.1644 15.6882 17.8455 16.9755 16.4518C17.1322 16.2822 17.4434 16.3615 17.4723 16.5907L17.9598 20.4558C17.9843 20.6499 17.8917 20.8428 17.7222 20.9404C13.13 23.5836 9.14456 20.9114 8.85069 17" stroke="black" stroke-width="2" stroke-linecap="round" stroke-linejoin="round"/>
</svg>
