<svg width="24" height="24" viewBox="0 0 24 24" fill="none" xmlns="http://www.w3.org/2000/svg">
<path d="M3.81538 9C3.78183 8.35608 3.80539 7.69458 3.88399 7.01764C3.97453 6.23788 4.92443 5.96669 5.52696 6.46986C7.46558 8.08881 9.69612 9.1971 11.9267 9.1971C10.8237 4.68044 15.787 2.42215 18.5444 5.24504C18.9548 5.24506 20.2811 4.86833 21.1603 4.4429C21.4986 4.27921 21.9792 4.4359 21.9963 4.8113C22.0663 6.34684 21.1326 8.03868 20.1989 8.51664C20.774 13.5213 18.6501 17.3295 15 19.0277M4.90278 13C5.60402 14.3124 6.64943 15.5006 8.06628 16.5366C7.31697 16.9202 5.54954 17.3038 3.97442 17.5103C3.45945 17.5778 3.30828 18.326 3.78524 18.5316C6.36919 19.6454 8.81815 20.0951 11 19.9835" stroke="black" stroke-width="2" stroke-linecap="round" stroke-linejoin="round"/>
</svg>
