<svg width="24" height="24" viewBox="0 0 24 24" fill="none" xmlns="http://www.w3.org/2000/svg">
<path d="M6.29809 4.19039C6.55431 3.4486 7.31711 3.00819 8.08764 3.1572L8.96177 3.32624C9.43721 3.41818 9.92853 3.28653 10.2943 2.96919L10.9668 2.38573C11.5596 1.87142 12.4404 1.87142 13.0332 2.38573L13.7057 2.96919C14.0715 3.28653 14.5628 3.41818 15.0382 3.32624L15.9124 3.1572C16.6829 3.00819 17.4457 3.4486 17.7019 4.19039L17.9926 5.03193C18.1507 5.48965 18.5103 5.84932 18.9681 6.00742L19.8096 6.29809C20.5514 6.55431 20.9918 7.31711 20.8428 8.08764L20.6738 8.96177C20.5818 9.43721 20.7135 9.92853 21.0308 10.2943L21.6143 10.9668C22.1286 11.5596 22.1286 12.4404 21.6143 13.0332L21.0308 13.7057C20.7135 14.0715 20.5818 14.5628 20.6738 15.0382L20.8428 15.9124C20.9918 16.6829 20.5514 17.4457 19.8096 17.7019L18.9681 17.9926C18.5104 18.1507 18.1507 18.5103 17.9926 18.9681L17.7019 19.8096C17.4457 20.5514 16.6829 20.9918 15.9124 20.8428L15.0382 20.6738C14.5628 20.5818 14.0715 20.7135 13.7057 21.0308L13.0332 21.6143C12.4404 22.1286 11.5596 22.1286 10.9668 21.6143L10.2943 21.0308C9.92853 20.7135 9.43721 20.5818 8.96177 20.6738L8.08764 20.8428C7.31711 20.9918 6.55431 20.5514 6.29809 19.8096L6.00742 18.9681C5.84932 18.5104 5.48965 18.1507 5.03194 17.9926L4.19039 17.7019C3.4486 17.4457 3.00819 16.6829 3.1572 15.9124L3.32624 15.0382C3.41818 14.5628 3.28653 14.0715 2.96919 13.7057L2.38573 13.0332C1.87142 12.4404 1.87142 11.5596 2.38573 10.9668L2.96919 10.2943C3.28653 9.92853 3.41818 9.43721 3.32624 8.96177L3.1572 8.08764C3.0827 7.70237 3.15555 7.31904 3.33975 7M8.08764 12.5L10.6259 15.0382L16.1641 9.5" stroke="black" stroke-width="2" stroke-linecap="round" stroke-linejoin="round"/>
</svg>
