<svg width="24" height="24" viewBox="0 0 24 24" fill="none" xmlns="http://www.w3.org/2000/svg">
<path d="M2.04938 11C2.01672 11.3289 2 11.6625 2 12C2 13.9779 2.57422 15.8217 3.56505 17.3737C3.69311 17.5743 3.75714 17.6746 3.77775 17.7755C3.79837 17.8764 3.78028 17.985 3.7441 18.2021L3.38971 20.3284C3.26396 21.0829 3.20108 21.4602 3.42156 21.6637C3.64204 21.8673 4.01309 21.7745 4.75519 21.589L7.05668 21.0136C7.252 20.9648 7.34966 20.9404 7.44391 20.9491C7.53817 20.9579 7.63714 21.0033 7.83508 21.0941C9.10306 21.6757 10.5137 22 12 22C12.6849 22 13.3538 21.9311 14 21.8M3.33782 7C5.06687 4.01099 8.29859 2 12 2C17.5228 2 22 6.47715 22 12C22 15.491 20.2111 18.5642 17.5 20.353M7.56535 8.99746C8.0566 12.7459 11.2541 15.9434 15.0025 16.4347C15.5501 16.5064 16 16.0523 16 15.5V14.1644C16 13.4801 15.5343 12.8836 14.8704 12.7176L14.7973 12.6993C14.3315 12.5829 13.8472 12.8056 13.6325 13.2351C13.5565 13.3871 13.3797 13.4612 13.2215 13.3992C11.9664 12.9072 11.0928 12.0336 10.6008 10.7785C10.5388 10.6203 10.6129 10.4435 10.7649 10.3675C11.1944 10.1528 11.4171 9.66855 11.3007 9.20269L11.2824 9.12959C11.1164 8.46572 10.5199 8 9.83564 8H8.5C7.94772 8 7.49358 8.44986 7.56535 8.99746Z" stroke="black" stroke-width="2" stroke-linecap="round"/>
</svg>
