<svg width="24" height="24" viewBox="0 0 24 24" fill="none" xmlns="http://www.w3.org/2000/svg">
<path fill-rule="evenodd" clip-rule="evenodd" d="M12 1C8.92308 1 6.13972 2.26464 4.14447 4.29996C3.75784 4.69434 3.76414 5.32748 4.15852 5.7141C4.55291 6.10072 5.18604 6.09443 5.57267 5.70004C7.20726 4.03263 9.48214 3 12 3C16.9706 3 21 7.02944 21 12C21 14.5013 19.9809 16.7628 18.3328 18.395C17.9404 18.7836 17.9373 19.4168 18.3259 19.8092C18.7145 20.2016 19.3477 20.2047 19.7401 19.816C21.752 17.8236 23 15.0566 23 12C23 5.92487 18.0751 1 12 1ZM12 6C8.68629 6 6 8.68629 6 12C6 15.3137 8.68629 18 12 18C15.3137 18 18 15.3137 18 12C18 8.68629 15.3137 6 12 6ZM8 12C8 9.79086 9.79086 8 12 8C14.2091 8 16 9.79086 16 12C16 14.2091 14.2091 16 12 16C9.79086 16 8 14.2091 8 12ZM3.41185 9.29965C3.57734 8.77274 3.28436 8.21144 2.75745 8.04595C2.23055 7.88046 1.66925 8.17344 1.50375 8.70035C1.1762 9.74323 1 10.852 1 12C1 18.0751 5.92487 23 12 23C13.148 23 14.2568 22.8238 15.2997 22.4962C15.8266 22.3308 16.1195 21.7695 15.954 21.2425C15.7886 20.7156 15.2273 20.4227 14.7003 20.5881C13.8492 20.8555 12.9424 21 12 21C7.02944 21 3 16.9706 3 12C3 11.0576 3.14451 10.1508 3.41185 9.29965ZM11.5015 10.0874C11.1769 9.85429 10.75 10.1147 10.75 10.5459V13.4541C10.75 13.8853 11.1769 14.1457 11.5015 13.9126L13.526 12.4584C13.8247 12.2439 13.8247 11.7561 13.526 11.5416L11.5015 10.0874Z" fill="black"/>
</svg>
