<svg width="24" height="24" viewBox="0 0 24 24" fill="none" xmlns="http://www.w3.org/2000/svg">
<path d="M9.27208 2L5.63604 5.63604C4.00736 7.26472 3 9.51472 3 12C3 14.3051 3.86656 16.4077 5.29168 18M9.27208 2H4M9.27208 2V7M14.7279 22L18.364 18.364C19.9926 16.7353 21 14.4853 21 12C21 9.69494 20.1334 7.59227 18.7083 6M14.7279 22H20M14.7279 22V17M9 20.4879C9.32516 20.6028 9.6589 20.6996 10 20.777M15 3.51212C14.6748 3.39719 14.3411 3.30042 14 3.22302" stroke="black" stroke-width="2" stroke-linecap="round" stroke-linejoin="round"/>
</svg>
