<svg width="24" height="24" viewBox="0 0 24 24" fill="none" xmlns="http://www.w3.org/2000/svg">
<path d="M2 9.27208L5.63604 5.63604C7.26472 4.00736 9.51472 3 12 3C14.3051 3 16.4077 3.86656 18 5.29168M2 9.27208V4M2 9.27208H7M3.22302 14C3.30042 14.3411 3.39719 14.6748 3.51212 15M22 14.7279L18.364 18.364C16.7353 19.9926 14.4853 21 12 21C9.69494 21 7.59227 20.1334 6 18.7083M22 14.7279V20M22 14.7279H17M20.777 10C20.6996 9.6589 20.6028 9.32516 20.4879 9" stroke="black" stroke-width="2" stroke-linecap="round" stroke-linejoin="round"/>
</svg>
