<svg width="24" height="24" viewBox="0 0 24 24" fill="none" xmlns="http://www.w3.org/2000/svg">
<path d="M2 14.7279L5.63604 18.364C7.26472 19.9926 9.51472 21 12 21C14.3051 21 16.4077 20.1334 18 18.7083M2 14.7279V20M2 14.7279H7M22 9.27208L18.364 5.63604C16.7353 4.00736 14.4853 3 12 3C9.69494 3 7.59227 3.86656 6 5.29168M22 9.27208V4M22 9.27208H17M20.4879 15C20.6028 14.6748 20.6996 14.3411 20.777 14M3.51212 9C3.39719 9.32516 3.30042 9.6589 3.22302 10" stroke="black" stroke-width="2" stroke-linecap="round" stroke-linejoin="round"/>
</svg>
