<svg width="24" height="24" viewBox="0 0 24 24" fill="none" xmlns="http://www.w3.org/2000/svg">
<path d="M14.7279 2L18.364 5.63604C19.9926 7.26472 21 9.51472 21 12C21 14.3051 20.1334 16.4077 18.7083 18M14.7279 2H20M14.7279 2V7M9.27208 22L5.63604 18.364C4.00736 16.7353 3 14.4853 3 12C3 9.69494 3.86656 7.59227 5.29168 6M9.27208 22H4M9.27208 22V17M15 20.4879C14.6748 20.6028 14.3411 20.6996 14 20.777M9 3.51212C9.32516 3.39719 9.6589 3.30042 10 3.22302" stroke="black" stroke-width="2" stroke-linecap="round" stroke-linejoin="round"/>
</svg>
