<svg width="24" height="24" viewBox="0 0 24 24" fill="none" xmlns="http://www.w3.org/2000/svg">
<path d="M21.9999 8.59722L20.5403 10.0556C19.6554 6.15891 16.1676 3.25 11.9999 3.25C8.37124 3.25 5.25805 5.45506 3.92934 8.59722M2 15.4028L3.45946 13.9444C4.34441 17.8411 7.83215 20.75 11.9999 20.75C15.6285 20.75 18.7417 18.5449 20.0704 15.4028" stroke="black" stroke-width="2" stroke-linecap="round" stroke-linejoin="round"/>
<path d="M7 10.7648C7.17456 9.5295 8.04739 9.0001 9.09477 9.0001C10.1422 9.0001 10.8404 9.86025 10.8404 10.7648C10.8404 12.1765 8.74564 13.2353 7 15H10.8404M16.3017 14.9999V13.9411M16.3017 13.9411V9L12.8105 13.9411H16.3017ZM16.3017 13.9411H17" stroke="#667085" stroke-width="2" stroke-linecap="round" stroke-linejoin="round"/>
</svg>
