<svg width="24" height="24" viewBox="0 0 24 24" fill="none" xmlns="http://www.w3.org/2000/svg">
<path d="M19.938 13.0339C19.4459 9.07537 16.0795 6.01221 11.9999 6.01221C7.5816 6.01221 3.99988 9.60505 3.99988 14.037C3.99988 18.1293 7.05357 21.5062 10.9999 21.9998" stroke="black" stroke-width="2" stroke-linecap="round"/>
<path fill-rule="evenodd" clip-rule="evenodd" d="M16.6249 14.75C15.6325 14.75 14.828 15.5545 14.828 16.5469V16.9062H14.4686C14.0717 16.9062 13.7499 17.228 13.7499 17.625V19.7812C13.7499 20.1782 14.0717 20.5 14.4686 20.5H18.7811C19.1781 20.5 19.4999 20.1782 19.4999 19.7812V17.625C19.4999 17.228 19.1781 16.9062 18.7811 16.9062H18.4218V16.5469C18.4218 15.5545 17.6173 14.75 16.6249 14.75ZM16.9843 16.9062V16.5469C16.9843 16.3484 16.8234 16.1875 16.6249 16.1875C16.4264 16.1875 16.2655 16.3484 16.2655 16.5469V16.9062H16.9843ZM17.1639 18.7031C17.1639 19.0008 16.9226 19.2422 16.6249 19.2422C16.3272 19.2422 16.0858 19.0008 16.0858 18.7031C16.0858 18.4054 16.3272 18.1641 16.6249 18.1641C16.9226 18.1641 17.1639 18.4054 17.1639 18.7031Z" fill="#667085"/>
<path d="M4 4.50776L8 2M20 4.50776L16 2" stroke="#667085" stroke-width="2" stroke-linecap="round" stroke-linejoin="round"/>
</svg>
