<svg width="24" height="24" viewBox="0 0 24 24" fill="none" xmlns="http://www.w3.org/2000/svg">
<path d="M13.2552 11.993C13.0501 11.7879 12.9475 11.6853 12.9475 11.5579C12.9475 11.4304 13.0501 11.3278 13.2552 11.1227L13.7088 10.6691C13.7585 10.6194 13.7834 10.5945 13.8054 10.5745C14.2814 10.1418 15.0084 10.1418 15.4845 10.5745C15.5065 10.5945 15.5313 10.6194 15.581 10.6691C15.6307 10.7188 15.6556 10.7437 15.6756 10.7657C16.1083 11.2417 16.1083 11.9687 15.6756 12.4448C15.6556 12.4668 15.6307 12.4916 15.581 12.5413L15.1274 12.9949C14.9223 13.2001 14.8197 13.3026 14.6923 13.3026C14.5648 13.3026 14.4623 13.2001 14.2571 12.9949L13.2552 11.993Z" fill="#667085"/>
<path d="M12.8201 12.4281C12.6149 12.223 12.5124 12.1204 12.3849 12.1204C12.2575 12.1204 12.1549 12.223 11.9498 12.4281L10.4775 13.9004C9.75533 14.6226 9.39427 14.9836 9.11511 15.407C8.83596 15.8303 8.64632 16.3044 8.26703 17.2526L8.21271 17.3885C8.02774 17.8509 7.93525 18.0821 8.05165 18.1985C8.16804 18.3149 8.39926 18.2224 8.86169 18.0374L8.99749 17.9831C9.94569 17.6038 10.4198 17.4142 10.8431 17.135C11.2665 16.8559 11.6276 16.4948 12.3497 15.7727L13.822 14.3004C14.0271 14.0952 14.1297 13.9927 14.1297 13.8652C14.1297 13.7378 14.0271 13.6352 13.822 13.4301L12.8201 12.4281Z" fill="#667085"/>
<path d="M4.00014 14C4.00014 18.4183 7.58186 22 12.0001 22C16.4184 22 20.0001 18.4183 20.0001 14C20.0001 9.58172 16.4184 6 12.0001 6C7.58186 6 4.00014 9.58172 4.00014 14Z" stroke="black" stroke-width="2" stroke-linecap="round"/>
<path d="M4 4.5L8 2M20 4.5L16 2" stroke="#667085" stroke-width="2" stroke-linecap="round" stroke-linejoin="round"/>
</svg>
