<svg width="24" height="24" viewBox="0 0 24 24" fill="none" xmlns="http://www.w3.org/2000/svg">
<path d="M19.938 13.0339C19.4459 9.07537 16.0795 6.01221 11.9999 6.01221C7.5816 6.01221 3.99988 9.60505 3.99988 14.037C3.99988 18.1293 7.05357 21.5062 10.9999 21.9998" stroke="black" stroke-width="2" stroke-linecap="round"/>
<path d="M16.6511 15.2311C16.7793 14.923 17.2157 14.923 17.3439 15.2311L17.9362 16.6551C17.9898 16.7842 18.1109 16.8727 18.2501 16.8848L19.6566 17.0067C19.9787 17.0346 20.117 17.4297 19.8827 17.6524L18.8142 18.6679C18.7173 18.7601 18.6767 18.8968 18.7078 19.0269L19.0683 20.5382C19.1457 20.8628 18.7926 21.1194 18.5078 20.9454L17.193 20.1424C17.073 20.0691 16.922 20.0691 16.8019 20.1424L15.4872 20.9454C15.2024 21.1194 14.8493 20.8628 14.9267 20.5382L15.2873 19.0264C15.3183 18.8966 15.278 18.7601 15.1814 18.668L14.1166 17.6519C13.883 17.429 14.0214 17.0347 14.3431 17.0067L15.7449 16.8848C15.8841 16.8727 16.0051 16.7842 16.0588 16.6552L16.6511 15.2311Z" fill="#667085"/>
<path d="M4 4.50776L8 2M20 4.50776L16 2" stroke="#667085" stroke-width="2" stroke-linecap="round" stroke-linejoin="round"/>
</svg>
