<svg width="24" height="24" viewBox="0 0 24 24" fill="none" xmlns="http://www.w3.org/2000/svg">
<path d="M19.9382 13.0339C19.4461 9.07537 16.0797 6.01221 12.0001 6.01221C7.58185 6.01221 4.00013 9.60505 4.00013 14.037C4.00013 18.1293 7.05382 21.5062 11.0001 21.9998" stroke="black" stroke-width="2" stroke-linecap="round"/>
<path d="M17.6279 17.3703C17.4228 17.1652 17.3202 17.0626 17.3202 16.9351C17.3202 16.8077 17.4228 16.7051 17.6279 16.5L17.7088 16.4191C17.7585 16.3694 17.7834 16.3445 17.8054 16.3245C18.2814 15.8918 19.0084 15.8918 19.4844 16.3245C19.5064 16.3445 19.5313 16.3694 19.581 16.4191C19.6307 16.4688 19.6556 16.4937 19.6756 16.5157C20.1083 16.9917 20.1083 17.7187 19.6756 18.1948C19.6556 18.2168 19.6307 18.2416 19.581 18.2913L19.5001 18.3722C19.295 18.5774 19.1924 18.6799 19.065 18.6799C18.9375 18.6799 18.835 18.5774 18.6298 18.3722L17.6279 17.3703Z" fill="#667085"/>
<path d="M17.1928 17.8054C16.9876 17.6003 16.8851 17.4977 16.7576 17.4977C16.6302 17.4977 16.5276 17.6003 16.3225 17.8054L15.4775 18.6504C15.2601 18.87 15.3943 18.7336 15.1151 19.157C14.8359 19.5803 14.6463 20.0544 14.267 21.0026L14.2127 21.1385C14.0277 21.6009 13.9352 21.8321 14.0516 21.9485C14.168 22.0649 14.3993 21.9724 14.8617 21.7874L14.9975 21.7331C15.9457 21.3538 16.4198 21.1642 16.8431 20.885C17.2665 20.6059 17.1301 20.74 17.3497 20.5227L18.1947 19.6777C18.3998 19.4725 18.5024 19.37 18.5024 19.2425C18.5024 19.1151 18.3998 19.0125 18.1947 18.8074L17.1928 17.8054Z" fill="#667085"/>
<path d="M4 4.50776L8 2M20 4.50776L16 2" stroke="#667085" stroke-width="2" stroke-linecap="round" stroke-linejoin="round"/>
</svg>
