<svg width="24" height="24" viewBox="0 0 24 24" fill="none" xmlns="http://www.w3.org/2000/svg">
<path d="M3.99988 14C3.99988 18.4183 7.5816 22 11.9999 22C16.4182 22 19.9999 18.4183 19.9999 14C19.9999 9.58172 16.4182 6 11.9999 6C7.5816 6 3.99988 9.58172 3.99988 14Z" stroke="black" stroke-width="2" stroke-linecap="round"/>
<path fill-rule="evenodd" clip-rule="evenodd" d="M8.31879 15.0844C8.75676 15.4795 8.97576 15.677 9.18352 15.8283C10.8719 17.0572 13.1279 17.0572 14.8162 15.8283C15.024 15.677 15.243 15.4795 15.681 15.0844C15.8201 14.9588 15.8897 14.896 15.9399 14.838C16.3532 14.3606 16.3532 13.6394 15.9399 13.162C15.8897 13.104 15.8201 13.0412 15.681 12.9157C15.243 12.5205 15.024 12.323 14.8162 12.1717C13.1279 10.9428 10.8719 10.9428 9.18352 12.1717C8.97575 12.323 8.75676 12.5205 8.31879 12.9156C8.17962 13.0412 8.11003 13.104 8.05983 13.162C7.64656 13.6394 7.64656 14.3606 8.05983 14.838C8.11003 14.896 8.17962 14.9588 8.31879 15.0844ZM11.9999 15.2586C12.6741 15.2586 13.2206 14.6951 13.2206 14C13.2206 13.3049 12.6741 12.7414 11.9999 12.7414C11.3257 12.7414 10.7791 13.3049 10.7791 14C10.7791 14.6951 11.3257 15.2586 11.9999 15.2586Z" fill="#667085"/>
<path d="M4 4.5L8 2M20 4.5L16 2" stroke="#667085" stroke-width="2" stroke-linecap="round" stroke-linejoin="round"/>
</svg>
