<svg width="24" height="24" viewBox="0 0 24 24" fill="none" xmlns="http://www.w3.org/2000/svg">
<path d="M3.99988 14C3.99988 18.4183 7.5816 22 11.9999 22C16.4182 22 19.9999 18.4183 19.9999 14C19.9999 9.58172 16.4182 6 11.9999 6C7.5816 6 3.99988 9.58172 3.99988 14Z" stroke="black" stroke-width="2" stroke-linecap="round"/>
<path d="M11.5383 10.3102C11.7091 9.89954 12.2908 9.89954 12.4616 10.3102L13.251 12.2081C13.3226 12.3802 13.4838 12.4981 13.6695 12.5142L15.544 12.6767C15.9732 12.7139 16.1576 13.2404 15.8453 13.5373L14.4213 14.8908C14.2921 15.0136 14.238 15.1958 14.2794 15.3692L14.7599 17.3835C14.8631 17.8161 14.3924 18.158 14.0129 17.9262L12.2606 16.8559C12.1006 16.7582 11.8993 16.7582 11.7393 16.8559L9.98701 17.9262C9.60746 18.158 9.13684 17.8161 9.24003 17.3835L9.72066 15.3686C9.76194 15.1956 9.70818 15.0136 9.57949 14.8908L8.16029 13.5366C7.84894 13.2395 8.03342 12.714 8.46215 12.6767L10.3305 12.5143C10.5161 12.4982 10.6773 12.3802 10.7489 12.2082L11.5383 10.3102Z" fill="#667085"/>
<path d="M4 4.5L8 2M20 4.5L16 2" stroke="#667085" stroke-width="2" stroke-linecap="round" stroke-linejoin="round"/>
</svg>
