<svg width="24" height="24" viewBox="0 0 24 24" fill="none" xmlns="http://www.w3.org/2000/svg">
<path d="M19.938 13.0339C19.4459 9.07537 16.0795 6.01221 11.9999 6.01221C7.5816 6.01221 3.99988 9.60505 3.99988 14.037C3.99988 18.1293 7.05357 21.5062 10.9999 21.9998" stroke="black" stroke-width="2" stroke-linecap="round"/>
<path fill-rule="evenodd" clip-rule="evenodd" d="M13.9349 18.6372C14.2698 18.9605 14.4373 19.1221 14.5962 19.2458C15.8873 20.2514 17.6125 20.2514 18.9036 19.2458C19.0624 19.1221 19.2299 18.9605 19.5648 18.6372C19.6712 18.5345 19.7245 18.4831 19.7629 18.4357C20.0789 18.045 20.0789 17.455 19.7629 17.0643C19.7245 17.0169 19.6713 16.9655 19.5648 16.8628C19.2299 16.5395 19.0624 16.3779 18.9036 16.2541C17.6125 15.2486 15.8873 15.2486 14.5962 16.2541C14.4373 16.3779 14.2698 16.5395 13.9349 16.8628C13.8285 16.9655 13.7753 17.0169 13.7369 17.0643C13.4209 17.455 13.4209 18.045 13.7369 18.4357C13.7753 18.4831 13.8285 18.5345 13.9349 18.6372ZM16.7499 18.7798C17.2655 18.7798 17.6834 18.3187 17.6834 17.75C17.6834 17.1813 17.2655 16.7202 16.7499 16.7202C16.2343 16.7202 15.8163 17.1813 15.8163 17.75C15.8163 18.3187 16.2343 18.7798 16.7499 18.7798Z" fill="#667085"/>
<path d="M4 4.50776L8 2M20 4.50776L16 2" stroke="#667085" stroke-width="2" stroke-linecap="round" stroke-linejoin="round"/>
</svg>
