<svg width="24" height="24" viewBox="0 0 24 24" fill="none" xmlns="http://www.w3.org/2000/svg">
<path d="M3.99988 14C3.99988 18.4183 7.5816 22 11.9999 22C16.4182 22 19.9999 18.4183 19.9999 14C19.9999 9.58172 16.4182 6 11.9999 6C7.5816 6 3.99988 9.58172 3.99988 14Z" stroke="black" stroke-width="2" stroke-linecap="round"/>
<path fill-rule="evenodd" clip-rule="evenodd" d="M11.9999 10C10.6192 10 9.49988 11.1193 9.49988 12.5V13H8.99988C8.44759 13 7.99988 13.4477 7.99988 14V17C7.99988 17.5523 8.44759 18 8.99988 18H14.9999C15.5522 18 15.9999 17.5523 15.9999 17V14C15.9999 13.4477 15.5522 13 14.9999 13H14.4999V12.5C14.4999 11.1193 13.3806 10 11.9999 10ZM12.4999 13V12.5C12.4999 12.2239 12.276 12 11.9999 12C11.7237 12 11.4999 12.2239 11.4999 12.5V13H12.4999ZM12.7499 15.5C12.7499 15.9142 12.4141 16.25 11.9999 16.25C11.5857 16.25 11.2499 15.9142 11.2499 15.5C11.2499 15.0858 11.5857 14.75 11.9999 14.75C12.4141 14.75 12.7499 15.0858 12.7499 15.5Z" fill="#667085"/>
<path d="M4 4.5L8 2M20 4.5L16 2" stroke="#667085" stroke-width="2" stroke-linecap="round" stroke-linejoin="round"/>
</svg>
