<svg width="24" height="24" viewBox="0 0 24 24" fill="none" xmlns="http://www.w3.org/2000/svg">
<path d="M3 9H21" stroke="#667085" stroke-width="2" stroke-linecap="round" stroke-linejoin="round"/>
<path d="M6 22H18C19.6569 22 21 20.6569 21 19V9V6C21 4.34315 19.6569 3 18 3H16H8H6C4.34315 3 3 4.34315 3 6V9V19C3 20.6569 4.34315 22 6 22Z" stroke="black" stroke-width="2" stroke-linecap="round" stroke-linejoin="round"/>
<path d="M11.5384 11.3102C11.7092 10.8995 12.2909 10.8995 12.4617 11.3102L13.2511 13.2081C13.3227 13.3802 13.484 13.4981 13.6696 13.5142L15.5441 13.6767C15.9734 13.7139 16.1577 14.2404 15.8454 14.5373L14.4214 15.8908C14.2922 16.0136 14.2382 16.1958 14.2795 16.3692L14.76 18.3835C14.8632 18.8161 14.3926 19.158 14.013 18.9262L12.2607 17.8559C12.1007 17.7582 11.8995 17.7582 11.7394 17.8559L9.98713 18.9262C9.60758 19.158 9.13696 18.8161 9.24015 18.3835L9.72079 16.3686C9.76206 16.1956 9.7083 16.0136 9.57961 15.8908L8.16041 14.5366C7.84906 14.2395 8.03354 13.714 8.46228 13.6767L10.3306 13.5143C10.5162 13.4982 10.6774 13.3802 10.749 13.2082L11.5384 11.3102Z" fill="#667085"/>
<path d="M8 2V3V4M16 2V3V4" stroke="#667085" stroke-width="2" stroke-linecap="round" stroke-linejoin="round"/>
</svg>
