<svg width="24" height="24" viewBox="0 0 24 24" fill="none" xmlns="http://www.w3.org/2000/svg">
<path d="M3 9H21" stroke="#667085" stroke-width="2" stroke-linecap="round" stroke-linejoin="round"/>
<path d="M6 22H18C19.6569 22 21 20.6569 21 19V9V6C21 4.34315 19.6569 3 18 3H16H8H6C4.34315 3 3 4.34315 3 6V9V19C3 20.6569 4.34315 22 6 22Z" stroke="black" stroke-width="2" stroke-linecap="round" stroke-linejoin="round"/>
<path d="M13.2551 13.243C13.0499 13.0379 12.9474 12.9353 12.9474 12.8079C12.9474 12.6804 13.0499 12.5778 13.2551 12.3727L13.7087 11.9191C13.7584 11.8694 13.7832 11.8445 13.8052 11.8245C14.2813 11.3918 15.0083 11.3918 15.4843 11.8245C15.5063 11.8445 15.5312 11.8694 15.5809 11.9191C15.6305 11.9688 15.6555 11.9937 15.6755 12.0157C16.1082 12.4917 16.1082 13.2187 15.6755 13.6948C15.6555 13.7168 15.6306 13.7416 15.5809 13.7913L15.1273 14.2449C14.9222 14.4501 14.8196 14.5526 14.6921 14.5526C14.5647 14.5526 14.4621 14.4501 14.257 14.2449L13.2551 13.243Z" fill="#667085"/>
<path d="M12.8199 13.6781C12.6148 13.473 12.5122 13.3704 12.3848 13.3704C12.2573 13.3704 12.1548 13.473 11.9496 13.6781L10.4773 15.1504C9.7552 15.8726 9.39413 16.2336 9.11497 16.657C8.83582 17.0803 8.64618 17.5544 8.2669 18.5026L8.21257 18.6385C8.0276 19.1009 7.93512 19.3321 8.05151 19.4485C8.1679 19.5649 8.39912 19.4724 8.86155 19.2874L8.99735 19.2331C9.94555 18.8538 10.4197 18.6642 10.843 18.385C11.2664 18.1059 11.6274 17.7448 12.3496 17.0227L13.8219 15.5504C14.027 15.3452 14.1296 15.2427 14.1296 15.1152C14.1296 14.9878 14.027 14.8852 13.8219 14.6801L12.8199 13.6781Z" fill="#667085"/>
<path d="M8 2V3V4M16 2V3V4" stroke="#667085" stroke-width="2" stroke-linecap="round" stroke-linejoin="round"/>
</svg>
