<svg width="24" height="24" viewBox="0 0 24 24" fill="none" xmlns="http://www.w3.org/2000/svg">
<path d="M3 9H21" stroke="#667085" stroke-width="2" stroke-linecap="round" stroke-linejoin="round"/>
<path d="M6 22H18C19.6569 22 21 20.6569 21 19V9V6C21 4.34315 19.6569 3 18 3H16H8H6C4.34315 3 3 4.34315 3 6V9V19C3 20.6569 4.34315 22 6 22Z" stroke="black" stroke-width="2" stroke-linecap="round" stroke-linejoin="round"/>
<path fill-rule="evenodd" clip-rule="evenodd" d="M12 19C13.933 19 15.5 17.433 15.5 15.5C15.5 13.567 13.933 12 12 12C10.067 12 8.5 13.567 8.5 15.5C8.5 17.433 10.067 19 12 19ZM12.5 14C12.5 13.7239 12.2761 13.5 12 13.5C11.7239 13.5 11.5 13.7239 11.5 14V15.7929C11.5 16.0581 11.6054 16.3125 11.7929 16.5L12.3964 17.1036C12.5917 17.2988 12.9083 17.2988 13.1036 17.1036C13.2988 16.9083 13.2988 16.5917 13.1036 16.3964L12.5 15.7929V14Z" fill="#667085"/>
<path d="M8 2V3V4M16 2V3V4" stroke="#667085" stroke-width="2" stroke-linecap="round" stroke-linejoin="round"/>
</svg>
