<svg width="24" height="24" viewBox="0 0 24 24" fill="none" xmlns="http://www.w3.org/2000/svg">
<path d="M3 9H21" stroke="#667085" stroke-width="2" stroke-linecap="round" stroke-linejoin="round"/>
<path d="M21 13V9V6C21 4.34315 19.6569 3 18 3H16H8H6C4.34315 3 3 4.34315 3 6V9V19C3 20.6569 4.34315 22 6 22H12.5" stroke="black" stroke-width="2" stroke-linecap="round" stroke-linejoin="round"/>
<path d="M18.6278 16.3703C18.4226 16.1652 18.3201 16.0626 18.3201 15.9351C18.3201 15.8077 18.4226 15.7051 18.6278 15.5L18.7087 15.4191C18.7584 15.3694 18.7832 15.3445 18.8052 15.3245C19.2813 14.8918 20.0083 14.8918 20.4843 15.3245C20.5063 15.3445 20.5312 15.3694 20.5809 15.4191C20.6305 15.4688 20.6555 15.4937 20.6755 15.5157C21.1082 15.9917 21.1082 16.7187 20.6755 17.1948C20.6555 17.2168 20.6306 17.2416 20.5809 17.2913L20.5 17.3722C20.2949 17.5774 20.1923 17.6799 20.0649 17.6799C19.9374 17.6799 19.8348 17.5774 19.6297 17.3722L18.6278 16.3703Z" fill="#667085"/>
<path d="M18.1926 16.8054C17.9875 16.6003 17.8849 16.4977 17.7575 16.4977C17.63 16.4977 17.5275 16.6003 17.3223 16.8054L16.4773 17.6504C16.26 17.87 16.3941 17.7336 16.115 18.157C15.8358 18.5803 15.6462 19.0544 15.2669 20.0026L15.2126 20.1385C15.0276 20.6009 14.9351 20.8321 15.0515 20.9485C15.1679 21.0649 15.3991 20.9724 15.8615 20.7874L15.9974 20.7331C16.9455 20.3538 17.4197 20.1642 17.843 19.885C18.2664 19.6059 18.13 19.74 18.3496 19.5227L19.1946 18.6777C19.3997 18.4725 19.5023 18.37 19.5023 18.2425C19.5023 18.1151 19.3997 18.0125 19.1946 17.8074L18.1926 16.8054Z" fill="#667085"/>
<path d="M8 2V3V4M16 2V3V4" stroke="#667085" stroke-width="2" stroke-linecap="round" stroke-linejoin="round"/>
</svg>
