<svg width="24" height="24" viewBox="0 0 24 24" fill="none" xmlns="http://www.w3.org/2000/svg">
<path d="M3 9H21" stroke="#667085" stroke-width="2" stroke-linecap="round" stroke-linejoin="round"/>
<path d="M21 13V9V6C21 4.34315 19.6569 3 18 3H16H8H6C4.34315 3 3 4.34315 3 6V9V19C3 20.6569 4.34315 22 6 22H12.5" stroke="black" stroke-width="2" stroke-linecap="round" stroke-linejoin="round"/>
<path d="M17.6512 15.2311C17.7794 14.923 18.2158 14.923 18.344 15.2311L18.9363 16.6551C18.99 16.7842 19.111 16.8727 19.2503 16.8848L20.6567 17.0067C20.9788 17.0346 21.1171 17.4297 20.8828 17.6524L19.8143 18.6679C19.7174 18.7601 19.6769 18.8968 19.7079 19.0269L20.0684 20.5382C20.1458 20.8628 19.7927 21.1194 19.5079 20.9454L18.1932 20.1424C18.0731 20.0691 17.9221 20.0691 17.8021 20.1424L16.4873 20.9454C16.2025 21.1194 15.8494 20.8628 15.9268 20.5382L16.2875 19.0264C16.3184 18.8966 16.2781 18.7601 16.1815 18.668L15.1167 17.6519C14.8831 17.429 15.0215 17.0347 15.3432 17.0067L16.745 16.8848C16.8843 16.8727 17.0052 16.7842 17.0589 16.6552L17.6512 15.2311Z" fill="#667085"/>
<path d="M8 2V3V4M16 2V3V4" stroke="#667085" stroke-width="2" stroke-linecap="round" stroke-linejoin="round"/>
</svg>
