<svg width="24" height="24" viewBox="0 0 24 24" fill="none" xmlns="http://www.w3.org/2000/svg">
<path d="M3 8C2.44772 8 2 8.44772 2 9C2 9.55228 2.44772 10 3 10V8ZM21 10C21.5523 10 22 9.55228 22 9C22 8.44772 21.5523 8 21 8V10ZM3 10H21V8H3V10Z" fill="#667085"/>
<path d="M21 13V9V6C21 4.34315 19.6569 3 18 3H16H8H6C4.34315 3 3 4.34315 3 6V9V19C3 20.6569 4.34315 22 6 22H12.5" stroke="black" stroke-width="2" stroke-linecap="round" stroke-linejoin="round"/>
<path fill-rule="evenodd" clip-rule="evenodd" d="M14.9351 18.6372C15.27 18.9605 15.4374 19.1221 15.5963 19.2458C16.8874 20.2514 18.6126 20.2514 19.9037 19.2458C20.0626 19.1221 20.23 18.9605 20.5649 18.6372C20.6714 18.5345 20.7246 18.4831 20.763 18.4357C21.079 18.045 21.079 17.455 20.763 17.0643C20.7246 17.0169 20.6714 16.9655 20.565 16.8628C20.23 16.5395 20.0626 16.3779 19.9037 16.2541C18.6126 15.2486 16.8874 15.2486 15.5963 16.2541C15.4374 16.3779 15.27 16.5395 14.935 16.8628C14.8286 16.9655 14.7754 17.0169 14.737 17.0643C14.421 17.455 14.421 18.045 14.737 18.4357C14.7754 18.4831 14.8286 18.5345 14.9351 18.6372ZM17.75 18.7798C18.2656 18.7798 18.6835 18.3187 18.6835 17.75C18.6835 17.1813 18.2656 16.7202 17.75 16.7202C17.2344 16.7202 16.8165 17.1813 16.8165 17.75C16.8165 18.3187 17.2344 18.7798 17.75 18.7798Z" fill="#667085"/>
<path d="M9 2C9 1.44772 8.55228 1 8 1C7.44772 1 7 1.44772 7 2H9ZM17 2C17 1.44772 16.5523 1 16 1C15.4477 1 15 1.44772 15 2H17ZM7 4C7 4.55228 7.44772 5 8 5C8.55228 5 9 4.55228 9 4H7ZM15 4C15 4.55228 15.4477 5 16 5C16.5523 5 17 4.55228 17 4H15ZM9 3V2H7V3H9ZM17 3V2H15V3H17ZM7 3V4H9V3H7ZM15 3V4H17V3H15Z" fill="#667085"/>
</svg>
