<svg width="24" height="24" viewBox="0 0 24 24" fill="none" xmlns="http://www.w3.org/2000/svg">
<path d="M3 8C2.44772 8 2 8.44772 2 9C2 9.55228 2.44772 10 3 10V8ZM21 10C21.5523 10 22 9.55228 22 9C22 8.44772 21.5523 8 21 8V10ZM19.7929 21.7071C20.1834 22.0976 20.8166 22.0976 21.2071 21.7071C21.5976 21.3166 21.5976 20.6834 21.2071 20.2929L19.7929 21.7071ZM3 10H21V8H3V10ZM15 18.375C15 19.9628 16.2872 21.25 17.875 21.25V19.25C17.3918 19.25 17 18.8582 17 18.375H15ZM17.875 15.5C16.2872 15.5 15 16.7872 15 18.375H17C17 17.8918 17.3918 17.5 17.875 17.5V15.5ZM17.875 17.5C18.3582 17.5 18.75 17.8918 18.75 18.375H20.75C20.75 16.7872 19.4628 15.5 17.875 15.5V17.5ZM18.4937 20.4079L19.7929 21.7071L21.2071 20.2929L19.9079 18.9937L18.4937 20.4079ZM17.875 21.25C18.6686 21.25 19.3888 20.9271 19.9079 20.4079L18.4937 18.9937C18.3343 19.1532 18.1169 19.25 17.875 19.25V21.25ZM19.9079 20.4079C20.4271 19.8888 20.75 19.1686 20.75 18.375H18.75C18.75 18.6169 18.6532 18.8343 18.4937 18.9937L19.9079 20.4079Z" fill="#667085"/>
<path d="M21 13V9V6C21 4.34315 19.6569 3 18 3H16H8H6C4.34315 3 3 4.34315 3 6V9V19C3 20.6569 4.34315 22 6 22H12.5" stroke="black" stroke-width="2" stroke-linecap="round" stroke-linejoin="round"/>
<path d="M9 2C9 1.44772 8.55228 1 8 1C7.44772 1 7 1.44772 7 2H9ZM17 2C17 1.44772 16.5523 1 16 1C15.4477 1 15 1.44772 15 2H17ZM7 4C7 4.55228 7.44772 5 8 5C8.55228 5 9 4.55228 9 4H7ZM15 4C15 4.55228 15.4477 5 16 5C16.5523 5 17 4.55228 17 4H15ZM9 3V2H7V3H9ZM17 3V2H15V3H17ZM7 3V4H9V3H7ZM15 3V4H17V3H15Z" fill="#667085"/>
</svg>
