<svg width="24" height="24" viewBox="0 0 24 24" fill="none" xmlns="http://www.w3.org/2000/svg">
<path d="M3 9H21" stroke="#667085" stroke-width="2" stroke-linecap="round" stroke-linejoin="round"/>
<path d="M21 13V9V6C21 4.34315 19.6569 3 18 3H16H8H6C4.34315 3 3 4.34315 3 6V9V19C3 20.6569 4.34315 22 6 22H12.5" stroke="black" stroke-width="2" stroke-linecap="round" stroke-linejoin="round"/>
<path fill-rule="evenodd" clip-rule="evenodd" d="M17.625 14.75C16.6326 14.75 15.8281 15.5545 15.8281 16.5469V16.9062H15.4688C15.0718 16.9062 14.75 17.228 14.75 17.625V19.7812C14.75 20.1782 15.0718 20.5 15.4688 20.5H19.7812C20.1782 20.5 20.5 20.1782 20.5 19.7812V17.625C20.5 17.228 20.1782 16.9062 19.7812 16.9062H19.4219V16.5469C19.4219 15.5545 18.6174 14.75 17.625 14.75ZM17.9844 16.9062V16.5469C17.9844 16.3484 17.8235 16.1875 17.625 16.1875C17.4265 16.1875 17.2656 16.3484 17.2656 16.5469V16.9062H17.9844ZM18.1641 18.7031C18.1641 19.0008 17.9227 19.2422 17.625 19.2422C17.3273 19.2422 17.0859 19.0008 17.0859 18.7031C17.0859 18.4054 17.3273 18.1641 17.625 18.1641C17.9227 18.1641 18.1641 18.4054 18.1641 18.7031Z" fill="#667085"/>
<path d="M8 2V3V4M16 2V3V4" stroke="#667085" stroke-width="2" stroke-linecap="round" stroke-linejoin="round"/>
</svg>
