<svg width="24" height="24" viewBox="0 0 24 24" fill="none" xmlns="http://www.w3.org/2000/svg">
<path d="M3 9H21" stroke="#667085" stroke-width="2" stroke-linecap="round" stroke-linejoin="round"/>
<path d="M6 22H18C19.6569 22 21 20.6569 21 19V9V6C21 4.34315 19.6569 3 18 3H16H8H6C4.34315 3 3 4.34315 3 6V9V19C3 20.6569 4.34315 22 6 22Z" stroke="black" stroke-width="2" stroke-linecap="round" stroke-linejoin="round"/>
<path fill-rule="evenodd" clip-rule="evenodd" d="M8.31892 16.5844C8.75688 16.9795 8.97588 17.177 9.18364 17.3283C10.872 18.5572 13.128 18.5572 14.8164 17.3283C15.0241 17.177 15.2431 16.9795 15.6811 16.5844C15.8202 16.4588 15.8898 16.396 15.94 16.338C16.3533 15.8606 16.3533 15.1394 15.94 14.662C15.8898 14.604 15.8203 14.5412 15.6811 14.4157C15.2431 14.0205 15.0241 13.823 14.8164 13.6717C13.128 12.4428 10.872 12.4428 9.18364 13.6717C8.97587 13.823 8.75689 14.0205 8.31891 14.4156C8.17974 14.5412 8.11015 14.604 8.05996 14.662C7.64668 15.1394 7.64668 15.8606 8.05996 16.338C8.11015 16.396 8.17975 16.4588 8.31892 16.5844ZM12 16.7586C12.6742 16.7586 13.2208 16.1951 13.2208 15.5C13.2208 14.8049 12.6742 14.2414 12 14.2414C11.3258 14.2414 10.7792 14.8049 10.7792 15.5C10.7792 16.1951 11.3258 16.7586 12 16.7586Z" fill="#667085"/>
<path d="M8 2V3V4M16 2V3V4" stroke="#667085" stroke-width="2" stroke-linecap="round" stroke-linejoin="round"/>
</svg>
