<svg width="24" height="24" viewBox="0 0 24 24" fill="none" xmlns="http://www.w3.org/2000/svg">
<path d="M12 21C7.02944 21 3 16.9706 3 12C3 7.02944 7.02944 3 12 3C16.9706 3 21 7.02944 21 12" stroke="black" stroke-width="2" stroke-linecap="round"/>
<path d="M16.9523 20.5502C16.5649 20.4197 16.3711 20.3544 16.3528 20.1941C16.3344 20.0339 16.5624 19.9055 17.0184 19.6488C17.6932 19.2689 18.2155 18.6391 18.4279 17.8466C18.6402 17.0541 18.5028 16.2475 18.1084 15.5811C17.8418 15.1307 17.7086 14.9056 17.8046 14.776C17.9006 14.6464 18.101 14.6867 18.5018 14.7673C18.5691 14.7808 18.6363 14.7966 18.7035 14.8146C20.3631 15.2593 21.3608 16.9171 20.932 18.5175C20.5031 20.1179 18.8102 21.0548 17.1506 20.6101C17.0834 20.5921 17.0173 20.5721 16.9523 20.5502Z" fill="#667085"/>
<path d="M12.5 8V12.7929C12.5 12.9255 12.4473 13.0527 12.3536 13.1464L10.5 15" stroke="#667085" stroke-width="2" stroke-linecap="round"/>
</svg>
