<svg width="24" height="24" viewBox="0 0 24 24" fill="none" xmlns="http://www.w3.org/2000/svg">
<path d="M13 18C13 18.5523 12.5523 19 12 19C11.4477 19 11 18.5523 11 18C11 17.4477 11.4477 17 12 17C12.5523 17 13 17.4477 13 18Z" fill="#667085"/>
<path d="M7 19C7.55228 19 8 18.5523 8 18C8 17.4477 7.55228 17 7 17C6.44772 17 6 17.4477 6 18C6 18.5523 6.44772 19 7 19Z" fill="#667085"/>
<path d="M18 18C18 18.5523 17.5523 19 17 19C16.4477 19 16 18.5523 16 18C16 17.4477 16.4477 17 17 17C17.5523 17 18 17.4477 18 18Z" fill="#667085"/>
<path d="M14 7C14 7.55228 13.5523 8 13 8C12.4477 8 12 7.55228 12 7C12 6.44772 12.4477 6 13 6C13.5523 6 14 6.44772 14 7Z" fill="black"/>
<path d="M13 12C13.5523 12 14 11.5523 14 11C14 10.4477 13.5523 10 13 10C12.4477 10 12 10.4477 12 11C12 11.5523 12.4477 12 13 12Z" fill="black"/>
<path d="M22 15V5C22 3.89543 21.1046 3 20 3H4C2.89543 3 2 3.89543 2 5V15M22 15H2M22 15V19C22 20.1046 21.1046 21 20 21H4C2.89543 21 2 20.1046 2 19V15" stroke="black" stroke-width="2" stroke-linecap="round" stroke-linejoin="round"/>
<path d="M17 6V12M7 12H8C8.55228 12 9 11.5523 9 11V7C9 6.44772 8.55228 6 8 6H7C6.44772 6 6 6.44772 6 7V11C6 11.5523 6.44772 12 7 12Z" stroke="#667085" stroke-width="2" stroke-linecap="round" stroke-linejoin="round"/>
</svg>
