<svg width="24" height="24" viewBox="0 0 24 24" fill="none" xmlns="http://www.w3.org/2000/svg">
<path d="M12 9V11.5858C12 11.851 12.1054 12.1054 12.2929 12.2929L13.5 13.5M5 21H19C20.1046 21 21 20.1046 21 19V12C21 7.02944 16.9706 3 12 3C7.02944 3 3 7.02944 3 12V19C3 20.1046 3.89543 21 5 21Z" stroke="black" stroke-width="2" stroke-linecap="round" stroke-linejoin="round"/>
<path d="M12 18C15.3137 18 18 15.3137 18 12C18 8.68629 15.3137 6 12 6C8.68629 6 6 8.68629 6 12C6 15.3137 8.68629 18 12 18Z" stroke="#667085" stroke-width="2" stroke-linecap="round" stroke-linejoin="round"/>
<circle cx="5.75" cy="18.25" r="1" fill="#667085"/>
</svg>
