<svg width="24" height="24" viewBox="0 0 24 24" fill="none" xmlns="http://www.w3.org/2000/svg">
<path d="M12 21C7.02944 21 3 16.9706 3 12C3 7.02944 7.02944 3 12 3C16.9706 3 21 7.02944 21 12" stroke="black" stroke-width="2" stroke-linecap="round"/>
<path d="M19.0585 14H16.764C16.6078 14 16.4704 14.1036 16.4275 14.2538L15.5729 17.2451C15.5364 17.3728 15.6323 17.5 15.7652 17.5H16.7049C16.8594 17.5 16.9769 17.6387 16.9515 17.7911L16.5675 20.0955C16.5502 20.1988 16.6833 20.2557 16.7461 20.1719L19.38 16.66C19.4295 16.5941 19.3824 16.5 19.3 16.5H18.1767C18.0989 16.5 18.0509 16.4152 18.0909 16.3486L19.2729 14.3786C19.3728 14.212 19.2528 14 19.0585 14Z" fill="#667085"/>
<path d="M12.5 8V12.7929C12.5 12.9255 12.4473 13.0527 12.3536 13.1464L10.5 15" stroke="#667085" stroke-width="2" stroke-linecap="round"/>
</svg>
