<svg width="24" height="24" viewBox="0 0 24 24" fill="none" xmlns="http://www.w3.org/2000/svg">
<circle cx="12" cy="18" r="2" fill="#667085"/>
<path d="M12 14V17M12 5.5V8.08579C12 8.351 12.1054 8.60536 12.2929 8.79289L13 9.5" stroke="#667085" stroke-width="2" stroke-linecap="round" stroke-linejoin="round"/>
<path d="M6 14V20C6 21.1046 6.89543 22 8 22H16C17.1046 22 18 21.1046 18 20V14M6 14V4C6 2.89543 6.89543 2 8 2H16C17.1046 2 18 2.89543 18 4V14M6 14H18M18 8C18 11.3137 15.3137 14 12 14C8.68629 14 6 11.3137 6 8C6 4.68629 8.68629 2 12 2C15.3137 2 18 4.68629 18 8Z" stroke="black" stroke-width="2" stroke-linecap="round" stroke-linejoin="round"/>
</svg>
