<svg width="24" height="24" viewBox="0 0 24 24" fill="none" xmlns="http://www.w3.org/2000/svg">
<path d="M18.75 14H16.25C15.8358 14 15.5 14.3358 15.5 14.75V14.8944C15.5 15.2893 15.6169 15.6753 15.8359 16.0038L16.4075 16.8613C16.4635 16.9453 16.4635 17.0547 16.4076 17.1387L15.8359 17.9962C15.6169 18.3247 15.5 18.7107 15.5 19.1056V19.25C15.5 19.6642 15.8358 20 16.25 20H18.75C19.1642 20 19.5 19.6642 19.5 19.25V19.1056C19.5 18.7107 19.3831 18.3247 19.1641 17.9962L18.5925 17.1387C18.5365 17.0547 18.5365 16.9453 18.5924 16.8613L19.1641 16.0038C19.3831 15.6753 19.5 15.2893 19.5 14.8944V14.75C19.5 14.3358 19.1642 14 18.75 14Z" fill="#667085"/>
<path d="M12 21C7.02944 21 3 16.9706 3 12C3 7.02944 7.02944 3 12 3C16.9706 3 21 7.02944 21 12" stroke="black" stroke-width="2" stroke-linecap="round"/>
<path d="M12.5 8V12.7929C12.5 12.9255 12.4473 13.0527 12.3536 13.1464L10.5 15" stroke="#667085" stroke-width="2" stroke-linecap="round"/>
</svg>
