<svg width="24" height="24" viewBox="0 0 24 24" fill="none" xmlns="http://www.w3.org/2000/svg">
<path d="M7.66201 21.404L11.331 18.1019C11.7113 17.7596 12.2886 17.7596 12.6689 18.1019L16.3379 21.404C16.527 21.5742 16.6798 21.7769 16.7907 21.9999H7.20923C7.32013 21.7769 7.47286 21.5742 7.66201 21.404Z" fill="#667085"/>
<path d="M12 12L16.2188 9.18747C17.3316 8.4456 18 7.19668 18 5.85926V4C18 2.89543 17.1046 2 16 2H8C6.89543 2 6 2.89543 6 4V5.85926C6 7.19668 6.6684 8.4456 7.7812 9.18747L12 12ZM12 12L16.2188 14.8125C17.3316 15.5544 18 16.8033 18 18.1407V20C18 21.1046 17.1046 22 16 22H8C6.89543 22 6 21.1046 6 20V18.1407C6 16.8033 6.6684 15.5544 7.7812 14.8125L12 12Z" stroke="black" stroke-width="2"/>
</svg>
