<svg width="24" height="24" viewBox="0 0 24 24" fill="none" xmlns="http://www.w3.org/2000/svg">
<path d="M16.2209 13.9704C16.6839 13.9704 17.0665 14.3485 16.9903 14.8052C16.5926 17.1856 14.523 19 12.0296 19C9.25183 19 7 16.7482 7 13.9704C7 11.477 8.81436 9.40737 11.1949 9.00974C11.6515 8.93346 12.0296 9.31609 12.0296 9.77905V13.1321C12.0296 13.5951 12.4049 13.9704 12.8679 13.9704H16.2209Z" fill="#667085"/>
<path d="M12 6V2M12 2H14M12 2H10M19 7L17.6569 8.34315M5 7L6.34315 8.34315" stroke="#667085" stroke-width="2" stroke-linecap="round"/>
<path d="M12 22C16.4183 22 20 18.4183 20 14C20 11.7909 19.1046 9.79086 17.6569 8.34315C16.2091 6.89543 14.2091 6 12 6C9.79086 6 7.79086 6.89543 6.34315 8.34315C4.89543 9.79086 4 11.7909 4 14C4 18.4183 7.58172 22 12 22Z" stroke="black" stroke-width="2" stroke-linecap="round"/>
</svg>
