<svg width="24" height="24" viewBox="0 0 24 24" fill="none" xmlns="http://www.w3.org/2000/svg">
<path d="M12 6V2M12 2H14M12 2H10M19 7L17.6569 8.34315M5 7L6.34315 8.34315" stroke="#667085" stroke-width="2" stroke-linecap="round"/>
<path d="M12 22C16.4183 22 20 18.4183 20 14C20 11.7909 19.1046 9.79086 17.6569 8.34315C16.2091 6.89543 14.2091 6 12 6C9.79086 6 7.79086 6.89543 6.34315 8.34315C4.89543 9.79086 4 11.7909 4 14C4 18.4183 7.58172 22 12 22Z" stroke="black" stroke-width="2" stroke-linecap="round"/>
<path d="M7.77905 13.9704C7.31609 13.9704 6.93346 14.3485 7.00974 14.8052C7.40737 17.1856 9.477 19 11.9704 19C14.7482 19 17 16.7482 17 13.9704C17 11.477 15.1856 9.40737 12.8051 9.00974C12.3485 8.93346 11.9704 9.31609 11.9704 9.77905V13.1321C11.9704 13.5951 11.5951 13.9704 11.1321 13.9704H7.77905Z" fill="#667085"/>
</svg>
