<svg width="24" height="24" viewBox="0 0 24 24" fill="none" xmlns="http://www.w3.org/2000/svg">
<path d="M11 9.62695C11 9.25438 10.6957 8.94645 10.3282 9.00784C8.63098 9.29134 7.29134 10.631 7.00784 12.3282C6.94645 12.6957 7.25438 13 7.62695 13H10.3254C10.698 13 11 12.698 11 12.3254V9.62695Z" fill="#667085"/>
<path d="M12 6V2M12 2H14M12 2H10M19 7L17.6569 8.34315M5 7L6.34315 8.34315" stroke="#667085" stroke-width="2" stroke-linecap="round"/>
<path d="M12 22C16.4183 22 20 18.4183 20 14C20 11.7909 19.1046 9.79086 17.6569 8.34315C16.2091 6.89543 14.2091 6 12 6C9.79086 6 7.79086 6.89543 6.34315 8.34315C4.89543 9.79086 4 11.7909 4 14C4 18.4183 7.58172 22 12 22Z" stroke="black" stroke-width="2" stroke-linecap="round"/>
</svg>
