<svg width="24" height="24" viewBox="0 0 24 24" fill="none" xmlns="http://www.w3.org/2000/svg">
<path d="M8 6.25469V3C8 2.44772 8.44772 2 9 2H15C15.5523 2 16 2.44772 16 3V6.25469M19 12H20M8 17.7453V21C8 21.5523 8.44772 22 9 22H15C15.5523 22 16 21.5523 16 21V17.7453M5.92126 15.4736L5 16M5.92126 8.52643L5 8M12 8.5V11.5858C12 11.851 12.1054 12.1054 12.2929 12.2929L13.5 13.5" stroke="#667085" stroke-width="2" stroke-linecap="round" stroke-linejoin="round"/>
<path d="M12 5C10.5128 5 9.13383 5.46381 8 6.25469C7.15023 6.84742 6.43813 7.62386 5.92126 8.52643C5.33508 9.55005 5 10.7359 5 12C5 13.2641 5.33508 14.45 5.92126 15.4736C6.43813 16.3761 7.15023 17.1526 8 17.7453C9.13383 18.5362 10.5128 19 12 19C13.4872 19 14.8662 18.5362 16 17.7453C17.8135 16.4804 19 14.3787 19 12C19 9.62125 17.8135 7.51964 16 6.25469C14.8662 5.46381 13.4872 5 12 5Z" stroke="black" stroke-width="2" stroke-linecap="round" stroke-linejoin="round"/>
</svg>
