<svg width="24" height="24" viewBox="0 0 24 24" fill="none" xmlns="http://www.w3.org/2000/svg">
<path d="M7.5 16L8.25 13.7388M8.25 13.7388L10.0318 8.3668C10.1941 7.87773 10.8059 7.87773 10.9682 8.3668L12.75 13.7388M8.25 13.7388H12.75M12.75 13.7388L13.5 16M16.5 16V12M16.5 9.5V9.49" stroke="black" stroke-width="2" stroke-linecap="round"/>
<path d="M17 3H7C4.79086 3 3 4.79086 3 7V17C3 19.2091 4.79086 21 7 21H17C19.2091 21 21 19.2091 21 17V7C21 4.79086 19.2091 3 17 3Z" stroke="#667085" stroke-width="2" stroke-linecap="round"/>
</svg>
