<svg width="24" height="24" viewBox="0 0 24 24" fill="none" xmlns="http://www.w3.org/2000/svg">
<path d="M6.5 16V12.5M6.5 12.5V8.5C6.5 8.22386 6.72386 8 7 8H10.25C11.4926 8 12.5 9.00736 12.5 10.25C12.5 11.4926 11.4926 12.5 10.25 12.5H6.5ZM15.5 11V12.5M15.5 12.5V16M15.5 12.5C15.5 11.75 16.5 11 17.5 11" stroke="black" stroke-width="2" stroke-linecap="round"/>
<path d="M17 3H7C4.79086 3 3 4.79086 3 7V17C3 19.2091 4.79086 21 7 21H17C19.2091 21 21 19.2091 21 17V7C21 4.79086 19.2091 3 17 3Z" stroke="#667085" stroke-width="2" stroke-linecap="round"/>
</svg>
