<svg width="24" height="24" viewBox="0 0 24 24" fill="none" xmlns="http://www.w3.org/2000/svg">
<path d="M18 12V15.4999C18 15.7761 17.7761 15.9999 17.5 15.9999L16 16C14.8954 16 14 15.1046 14 14C14 12.8955 14.8954 12.0001 15.9999 12L18 12ZM18 12V9M6 16L9 12M9 12L12 8M9 12L6 8M9 12L12 16" stroke="black" stroke-width="2" stroke-linecap="round" stroke-linejoin="round"/>
<path d="M17 3H7C4.79086 3 3 4.79086 3 7V17C3 19.2091 4.79086 21 7 21H17C19.2091 21 21 19.2091 21 17V7C21 4.79086 19.2091 3 17 3Z" stroke="#667085" stroke-width="2" stroke-linecap="round"/>
</svg>
