<svg width="24" height="24" viewBox="0 0 24 24" fill="none" xmlns="http://www.w3.org/2000/svg">
<path d="M2 12C2 17.5228 6.47715 22 12 22C17.5228 22 22 17.5228 22 12C22 6.47715 17.5228 2 12 2C6.47715 2 2 6.47715 2 12Z" stroke="#667085" stroke-width="2" stroke-linecap="round" stroke-linejoin="round"/>
<path d="M11.9499 15.3664C11.6499 15.7098 11.3321 16.0612 11.0132 16.4262C10.254 17.295 8.98717 17.593 7.96921 17.05C6.87347 16.4657 6.44281 15.1147 6.99817 14.0039L10.6586 6.68318C11.2113 5.57761 12.789 5.57761 13.3418 6.68318L16.9207 13.8409C17.5214 15.0424 17.0556 16.5037 15.8704 17.1358C14.9079 17.6491 13.7212 17.4743 13.0047 16.6519C12.6707 16.2686 12.3039 15.8287 11.9499 15.3664ZM11.9499 15.3664C12.948 14.2241 13.7502 13.1708 13.7502 11.9999C13.7502 11.4999 13.5002 10.2499 12.0002 10.2499C10.5002 10.2499 10.2502 11.4999 10.2502 11.9999C10.2502 12.8995 11.0594 14.2036 11.9499 15.3664Z" stroke="black" stroke-width="2" stroke-linecap="round" stroke-linejoin="round"/>
</svg>
