<svg width="24" height="24" viewBox="0 0 24 24" fill="none" xmlns="http://www.w3.org/2000/svg">
<path d="M19.5528 8.18337C20.2177 7.86781 21 8.32675 21 9.03237M3 9.73101V15.2527C3 15.9583 3.78231 16.4172 4.44721 16.1017L10.3416 13.3042C11.358 12.8218 12 11.8358 12 10.7572V5.23549C12 4.52986 11.2177 4.07093 10.5528 4.38649L4.65836 7.18402M3 9.73101C3 8.65241 3.64201 7.66638 4.65836 7.18402M3 9.73101V12.9917M4.65836 7.18402L7.5 5.83536M13.2663 11.1669C12.4645 11.5475 11.5254 11.5677 10.7062 11.2221L4.93635 8.78797C4.16407 8.46217 4.13938 7.43033 4.89528 7.07158L10.7337 4.30063C11.5355 3.92009 12.4746 3.89985 13.2937 4.24543L19.0636 6.67959C19.8359 7.00539 19.8606 8.03723 19.1047 8.39598M3 12.2425V10.162C3 9.13164 4.11728 8.44243 5.10921 8.8609L7.5 9.8695M21 9.34708C21 8.22172 20.3018 7.20193 19.2184 6.74488L16.5 5.59806" stroke="#667085" stroke-width="2" stroke-linecap="round" stroke-linejoin="round"/>
<path d="M12 13.5278V19.0495C12 19.7551 12.7823 20.214 13.4472 19.8985L19.3416 17.1009C20.358 16.6186 21 15.6325 21 14.5539V12.2424V9.80016C21 8.74172 19.8265 8.05332 18.8292 8.52666L13.6584 10.9808C12.642 11.4632 12 12.4492 12 13.5278Z" stroke="black" stroke-width="2" stroke-linecap="round" stroke-linejoin="round"/>
</svg>
