<svg width="24" height="24" viewBox="0 0 24 24" fill="none" xmlns="http://www.w3.org/2000/svg">
<path d="M8.25 14.75V10.2071C8.25 9.7616 7.71143 9.53852 7.39645 9.8535L3.58579 13.6642C3.21071 14.0392 3 14.5479 3 15.0784V20C3 20.5522 3.44772 21 4 21H8.92157C9.45201 21 9.96071 20.7892 10.3358 20.4142L14.1464 16.6035C14.4614 16.2885 14.2383 15.75 13.7929 15.75H9.25C8.69772 15.75 8.25 15.3022 8.25 14.75Z" stroke="#667085" stroke-width="2" stroke-linejoin="round"/>
<path d="M19 3H4.20706C3.7616 3 3.53852 3.53857 3.8535 3.85355L7.07838 7.07843C7.82852 7.82857 8.84594 8.25 9.9068 8.25H13.75C14.8545 8.25 15.75 9.14543 15.75 10.25V14.0931C15.75 15.154 16.1714 16.1714 16.9215 16.9216L20.1464 20.1464C20.4614 20.4614 21 20.2383 21 19.7929V5C21 3.89543 20.1045 3 19 3Z" stroke="black" stroke-width="2" stroke-linejoin="round"/>
</svg>
