<svg width="24" height="24" viewBox="0 0 24 24" fill="none" xmlns="http://www.w3.org/2000/svg">
<path d="M10 18V22M14 18V22M20 11V15M4 11V15" stroke="#667085" stroke-width="2" stroke-linecap="round" stroke-linejoin="round"/>
<path d="M15.8891 3.61091C14.8938 2.61561 13.5188 2 12 2C10.4812 2 9.10622 2.61561 8.11091 3.61091M15.8891 3.61091C16.8844 4.60622 17.5 5.98122 17.5 7.5V8H6.5V7.5C6.5 5.98122 7.11561 4.60622 8.11091 3.61091M15.8891 3.61091L17.5 2M8.11091 3.61091L6.5 2M6.5 11H17.5V15C17.5 16.6569 16.1569 18 14.5 18H14H10H9.5C7.84315 18 6.5 16.6569 6.5 15V11Z" stroke="#121A26" stroke-width="2" stroke-linecap="round" stroke-linejoin="round"/>
<path d="M10.5 5.25C10.5 5.66421 10.1642 6 9.75 6C9.33579 6 9 5.66421 9 5.25C9 4.83579 9.33579 4.5 9.75 4.5C10.1642 4.5 10.5 4.83579 10.5 5.25Z" fill="#667085"/>
<path d="M15 5.25C15 5.66421 14.6642 6 14.25 6C13.8358 6 13.5 5.66421 13.5 5.25C13.5 4.83579 13.8358 4.5 14.25 4.5C14.6642 4.5 15 4.83579 15 5.25Z" fill="#667085"/>
</svg>
