<svg width="24" height="24" viewBox="0 0 24 24" fill="none" xmlns="http://www.w3.org/2000/svg">
<path d="M15.6635 2.21843C14.2009 2.89492 12.9359 4.18889 12.7689 6.29879C12.716 6.96705 12.6895 7.30118 12.9769 7.45571C13.2644 7.61023 13.5461 7.39016 14.1094 6.95002C15.6962 5.71027 16.6909 4.42358 16.7476 2.89936C16.7642 2.45394 16.7725 2.23123 16.5395 2.07613C16.3065 1.92103 16.0922 2.02016 15.6635 2.21843Z" stroke="#667085" stroke-width="2" stroke-linejoin="round"/>
<path d="M12.694 8.01389C14.42 6.9501 17.4315 6.08631 19.6267 8.87688C19.8279 9.13266 19.6991 9.50167 19.4129 9.65642C16.6695 11.1393 16.6917 15.5434 19.4797 16.9789C19.7466 17.1163 19.8835 17.4349 19.7397 17.6984C19.0694 18.9267 17.2046 22 15.3277 22C14.1597 22 13.7949 21.4 12.4076 21.4C11.0202 21.4 10.6555 22 9.48738 22C7.1419 22 2.01452 13.7156 4.81511 9.39999C7.03007 5.9868 10.295 6.8884 12.1211 8.01388C12.2968 8.12218 12.5183 8.12218 12.694 8.01389Z" stroke="black" stroke-width="2" stroke-linejoin="round"/>
</svg>
