<svg width="24" height="24" viewBox="0 0 24 24" fill="none" xmlns="http://www.w3.org/2000/svg">
<path d="M2 12C2 10.2051 3.52878 8.75 5.41463 8.75C7.30048 8.75 8.82927 10.2051 8.82927 12M14.1959 15.25C12.31 15.25 10.7812 13.7949 10.7812 12M14.1959 8.75C16.0817 8.75 17.6105 10.2051 17.6105 12" stroke="#667085" stroke-width="1.5" stroke-linecap="round" stroke-linejoin="round"/>
<path d="M6.39062 12C6.39062 13.7949 7.91941 15.25 9.80526 15.25C11.6911 15.25 13.2199 13.7949 13.2199 12C13.2199 10.2051 11.6911 8.75 9.80526 8.75C7.91941 8.75 6.39062 10.2051 6.39062 12Z" stroke="black" stroke-width="1.5" stroke-linecap="round" stroke-linejoin="round"/>
<path d="M15.1711 12C15.1711 13.7949 16.6999 15.25 18.5857 15.25C20.4716 15.25 22.0004 13.7949 22.0004 12C22.0004 10.2051 20.4716 8.75 18.5857 8.75C16.6999 8.75 15.1711 10.2051 15.1711 12Z" stroke="black" stroke-width="1.5" stroke-linecap="round" stroke-linejoin="round"/>
<path d="M2 12C2 13.7949 3.52878 15.25 5.41463 15.25C7.30048 15.25 8.82927 13.7949 8.82927 12M17.6105 12C17.6105 13.7949 16.0817 15.25 14.1959 15.25M14.1959 8.75C12.31 8.75 10.7812 10.2051 10.7812 12" stroke="#667085" stroke-width="1.5" stroke-linecap="round" stroke-linejoin="round"/>
</svg>
