<svg width="24" height="24" viewBox="0 0 24 24" fill="none" xmlns="http://www.w3.org/2000/svg">
<path d="M9.28516 5.7C9.28516 4.20883 10.5006 3 12 3C13.4994 3 14.7148 4.20883 14.7148 5.7" stroke="#121A26" stroke-width="2" stroke-linecap="round" stroke-linejoin="round"/>
<path d="M13.0295 8.3999H10.9705C8.92295 8.3999 7.89918 8.3999 7.0863 8.84302C6.7318 9.03626 6.41235 9.2872 6.14122 9.58542C5.51951 10.2692 5.28238 11.2597 4.80813 13.2407C4.08071 16.2792 3.717 17.7984 4.26295 18.9429C4.49725 19.4341 4.84038 19.8662 5.26657 20.2066C6.25963 20.9999 7.82992 20.9999 10.9705 20.9999H13.0295C16.1701 20.9999 17.7404 20.9999 18.7334 20.2066C19.1596 19.8662 19.5028 19.4341 19.7371 18.9429C20.283 17.7984 19.9193 16.2792 19.1919 13.2407L19.1919 13.2407C18.7176 11.2597 18.4805 10.2692 17.8588 9.58542C17.5876 9.2872 17.2682 9.03626 16.9137 8.84302C16.1008 8.3999 15.0771 8.3999 13.0295 8.3999Z" stroke="#667085" stroke-width="2" stroke-linecap="round" stroke-linejoin="round"/>
<path d="M9.75 12C9.75 12.5523 9.30228 13 8.75 13C8.19772 13 7.75 12.5523 7.75 12C7.75 11.4477 8.19772 11 8.75 11C9.30228 11 9.75 11.4477 9.75 12Z" fill="#121A26"/>
<path d="M16.5 12C16.5 12.5523 16.0523 13 15.5 13C14.9477 13 14.5 12.5523 14.5 12C14.5 11.4477 14.9477 11 15.5 11C16.0523 11 16.5 11.4477 16.5 12Z" fill="#121A26"/>
</svg>
