<svg width="24" height="24" viewBox="0 0 24 24" fill="none" xmlns="http://www.w3.org/2000/svg">
<path d="M17 3H7C4.79086 3 3 4.79086 3 7V17C3 19.2091 4.79086 21 7 21H17C19.2091 21 21 19.2091 21 17V7C21 4.79086 19.2091 3 17 3Z" stroke="#667085" stroke-width="2" stroke-linecap="round" stroke-linejoin="round"/>
<path d="M6 11.75V8.25H8.75C9.7165 8.25 10.5 9.0335 10.5 10C10.5 10.9665 9.7165 11.75 8.75 11.75H6ZM6 11.75H9C10.1046 11.75 11 12.6454 11 13.75C11 14.8546 10.1046 15.75 9 15.75H6V11.75ZM13.5 13.5C13.5 14.7426 14.5074 15.75 15.75 15.75C16.2125 15.75 16.6425 15.6104 17 15.3711M13.5 13.5C13.5 12.2574 14.5074 11.25 15.75 11.25C16.9926 11.25 18 12.2574 18 13.5H13.5ZM13.5 9.25H18" stroke="#121A26" stroke-width="1.5" stroke-linecap="round" stroke-linejoin="round"/>
</svg>
