<svg width="24" height="24" viewBox="0 0 24 24" fill="none" xmlns="http://www.w3.org/2000/svg">
<path fill-rule="evenodd" clip-rule="evenodd" d="M3.98968 4L3.05902 7.625H6.37102C7.22442 7.625 7.96892 7.05938 8.17615 6.25223C8.47004 5.1075 7.58082 4 6.37102 4H3.98968ZM17.757 8.125L16.8263 11.75H20.1383C20.9917 11.75 21.7362 11.1844 21.9435 10.3772C22.2374 9.2325 21.3481 8.125 20.1383 8.125H17.757ZM2.93066 10.1875L2 13.8125H5.312C6.16539 13.8125 6.9099 13.2469 7.11712 12.4397C7.41101 11.295 6.5218 10.1875 5.312 10.1875H2.93066ZM16.698 14.3125L15.7673 17.9375H19.0793C19.9327 17.9375 20.6772 17.3719 20.8844 16.5647C21.1783 15.42 20.2891 14.3125 19.0793 14.3125H16.698Z" stroke="black" stroke-width="2" stroke-linejoin="round"/>
<path d="M11.4032 4L10.4725 7.625H13.7845C14.6379 7.625 15.3824 7.05938 15.5897 6.25223C15.8836 5.1075 14.9943 4 13.7845 4H11.4032Z" stroke="#667085" stroke-width="2" stroke-linejoin="round"/>
<path d="M10.3442 10.1875L9.41352 13.8125H12.7255C13.5789 13.8125 14.3234 13.2469 14.5306 12.4397C14.8245 11.295 13.9353 10.1875 12.7255 10.1875H10.3442Z" stroke="#667085" stroke-width="2" stroke-linejoin="round"/>
<path d="M9.28515 16.375L8.35449 20H11.6665C12.5199 20 13.2644 19.4344 13.4716 18.6272C13.7655 17.4825 12.8763 16.375 11.6665 16.375H9.28515Z" stroke="#667085" stroke-width="2" stroke-linejoin="round"/>
</svg>
