<svg width="24" height="24" viewBox="0 0 24 24" fill="none" xmlns="http://www.w3.org/2000/svg">
<path d="M15 4H9C6.19108 4 4.78661 4 3.77772 4.67412C3.34096 4.96596 2.96596 5.34096 2.67412 5.77772C2 6.78661 2 8.19108 2 11V12.0602C2 13.8675 2 14.7711 2.28663 15.4869C2.69319 16.5022 3.49776 17.3068 4.51309 17.7134C5.22892 18 6.14865 18 7.98812 18C8.3326 18 8.50484 18 8.66602 18.0265C8.96959 18.0764 9.25754 18.1957 9.50749 18.3751C9.6402 18.4703 9.75976 18.5898 9.99883 18.8289C10.5452 19.3753 10.8183 19.6484 11.1131 19.7943C11.672 20.0708 12.328 20.0708 12.8869 19.7943C13.1817 19.6484 13.4548 19.3753 14.0012 18.8289C14.2403 18.5898 14.3598 18.4703 14.4925 18.3751C14.7425 18.1957 15.0304 18.0764 15.334 18.0265C15.4952 18 15.6674 18 16.0119 18C17.8513 18 18.7711 18 19.4869 17.7134C20.5022 17.3068 21.3068 16.5022 21.7134 15.4869C22 14.7711 22 13.8675 22 12.0602V11C22 8.19108 22 6.78661 21.3259 5.77772C21.034 5.34096 20.659 4.96596 20.2223 4.67412C19.2134 4 17.8089 4 15 4Z" stroke="#667085" stroke-width="2"/>
<path d="M18 11.25C18 12.0784 17.3284 12.75 16.5 12.75C15.6716 12.75 15 12.0784 15 11.25C15 10.4216 15.6716 9.75 16.5 9.75C17.3284 9.75 18 10.4216 18 11.25Z" fill="#121A26"/>
<path d="M13.5 11.25C13.5 12.0784 12.8284 12.75 12 12.75C11.1716 12.75 10.5 12.0784 10.5 11.25C10.5 10.4216 11.1716 9.75 12 9.75C12.8284 9.75 13.5 10.4216 13.5 11.25Z" fill="#121A26"/>
<path d="M9 11.25C9 12.0784 8.32843 12.75 7.5 12.75C6.67157 12.75 6 12.0784 6 11.25C6 10.4216 6.67157 9.75 7.5 9.75C8.32843 9.75 9 10.4216 9 11.25Z" fill="#121A26"/>
</svg>
