<svg width="24" height="24" viewBox="0 0 24 24" fill="none" xmlns="http://www.w3.org/2000/svg">
<path d="M12 4H9.05507C6.19366 4 4.76296 4 3.74189 4.69834C3.33233 4.97846 2.97846 5.33233 2.69834 5.74189C2 6.76296 2 8.19366 2 11.0551C2 13.9165 2 15.3472 2.69834 16.3682C2.97846 16.7778 3.33233 17.1317 3.74189 17.4118C4.76296 18.1101 6.19366 18.1101 9.05507 18.1101L12 18.1101" stroke="black" stroke-width="2"/>
<path d="M12 4H14.9449C17.8063 4 19.237 4 20.2581 4.69834C20.6677 4.97846 21.0215 5.33233 21.3017 5.74189C22 6.76296 22 8.19366 22 11.0551L22 16.9909C22 17.9056 22 18.363 21.8762 18.6983C21.6049 19.4331 20.9296 19.942 20.1484 20.0001C19.792 20.0266 19.3524 19.9005 18.4731 19.6483L13.6517 18.2652C13.3818 18.1878 13.2469 18.1491 13.1083 18.1296C12.9698 18.1101 12.8294 18.1101 12.5487 18.1101H12" stroke="#667085" stroke-width="2"/>
</svg>
