<svg width="24" height="24" viewBox="0 0 24 24" fill="none" xmlns="http://www.w3.org/2000/svg">
<path d="M6.46777 16.0166V17.1774C6.46777 17.9968 6.95188 18.7517 7.73244 19.1496L10.8058 20.7163C11.5484 21.0949 12.4514 21.0949 13.194 20.7163L16.2674 19.1496C17.0479 18.7517 17.532 17.9968 17.532 17.1774V16.0166" stroke="#667085" stroke-width="2" stroke-linecap="round"/>
<path d="M12 6.09633L17.5321 9.48043M12 6.09633L6.46786 9.48043M12 6.09633L15.3025 3.29916C15.7112 2.95294 16.3224 2.90173 16.7928 3.17431L20.4271 5.28045C21.1265 5.68581 21.1988 6.59663 20.5707 7.09066L17.5321 9.48043M12 6.09633L8.69754 3.29916C8.28877 2.95294 7.67756 2.90173 7.20721 3.17431L3.57293 5.28045C2.87346 5.68581 2.80121 6.59663 3.42935 7.09066L6.46786 9.48043M17.5321 9.48043L12 12.8645M17.5321 9.48043L20.571 12.4833C21.0773 12.9836 20.987 13.7787 20.3791 14.1724L17.5321 16.0164L17.1488 16.2647C16.6599 16.5813 15.9936 16.529 15.5705 16.1408L12 12.8645M12 12.8645L6.46786 9.48043M12 12.8645L8.42946 16.1408C8.00636 16.529 7.34007 16.5813 6.85122 16.2647L6.46786 16.0164L3.62093 14.1724C3.01304 13.7787 2.9227 12.9836 3.42901 12.4833L6.46786 9.48043" stroke="black" stroke-width="2" stroke-linecap="round"/>
</svg>
