<svg width="24" height="24" viewBox="0 0 24 24" fill="none" xmlns="http://www.w3.org/2000/svg">
<path d="M8.36976 8.92538C8.36976 8.92538 8.43714 9.27818 8.36976 9.57357C7.58373 13.0193 8.90523 13.8186 8.90523 13.4237C9.03923 11.0237 10.6216 6.33264 15.8622 6C16.9025 6.56146 18.4629 12.3632 16.7074 15.2953C15.212 17.853 11.8311 18.7264 9.23032 17.3539C5.87533 15.5835 5.64064 11.2287 8.36976 8.92538Z" stroke="black" stroke-width="1.96525" stroke-linejoin="round"/>
<path d="M2 12C2 17.5228 6.47715 22 12 22C17.5228 22 22 17.5228 22 12C22 6.47715 17.5228 2 12 2C6.47715 2 2 6.47715 2 12Z" stroke="#667085" stroke-width="1.96525" stroke-linejoin="round"/>
</svg>
