<svg width="24" height="24" viewBox="0 0 24 24" fill="none" xmlns="http://www.w3.org/2000/svg">
<path d="M7.49316 14L8.74714 12.5788C9.32441 11.9246 9.61305 11.5975 9.98625 11.4684C10.1345 11.4171 10.2898 11.3894 10.4466 11.3863C10.8414 11.3784 11.2253 11.5856 11.9932 12C12.761 12.4144 13.1449 12.6216 13.5397 12.6137C13.6965 12.6106 13.8519 12.5829 14.0001 12.5316C14.3733 12.4025 14.6619 12.0754 15.2392 11.4212L16.4932 10" stroke="black" stroke-width="2" stroke-linecap="round" stroke-linejoin="round"/>
<path d="M12 20.3566C16.9706 20.3566 21 16.4712 21 11.6783C21 6.88541 16.9706 3 12 3C7.02944 3 3 6.88541 3 11.6783C3 14.087 4.0177 16.2665 5.66111 17.8389C5.83339 18.0037 5.91953 18.0861 5.95974 18.1802C5.99994 18.2743 5.99994 18.3844 5.99994 18.6047V19.6607C5.99994 20.4246 5.99994 20.8065 6.24829 20.9512C6.49663 21.0958 6.82886 20.9074 7.49331 20.5305L8.39403 20.0196L8.39405 20.0196C8.58799 19.9096 8.68496 19.8546 8.78797 19.8435C8.89099 19.8324 9.006 19.8682 9.23602 19.9397C10.1069 20.2104 11.0357 20.3566 12 20.3566Z" stroke="#667085" stroke-width="2" stroke-linecap="round" stroke-linejoin="round"/>
</svg>
