<svg width="24" height="24" viewBox="0 0 24 24" fill="none" xmlns="http://www.w3.org/2000/svg">
<path d="M18.5759 4.46605C16.8179 2.93037 14.5176 2 12 2C6.47715 2 2 6.47715 2 12C2 17.5228 6.47715 22 12 22C17.5228 22 22 17.5228 22 12C22 11.3347 21.935 10.6845 21.8111 10.0556" stroke="#667085" stroke-width="2" stroke-linecap="round"/>
<path d="M18.5757 4.46582L16.1535 6.52466C15.8036 6.82208 15.2999 6.83493 14.8956 6.61701C14.0338 6.15236 13.0476 5.88866 11.9998 5.88866C8.62471 5.88866 5.88867 8.6247 5.88867 11.9998C5.88867 15.3748 8.62471 18.1109 11.9998 18.1109C14.4492 18.1109 16.5621 16.6698 17.5368 14.5892C17.6817 14.2798 17.4417 13.9442 17.1 13.9442H12.9998C12.4475 13.9442 11.9998 13.4965 11.9998 12.9442V11.0553C11.9998 10.503 12.4475 10.0553 12.9998 10.0553H21.8109" stroke="black" stroke-width="2" stroke-linecap="round"/>
</svg>
