<svg width="24" height="24" viewBox="0 0 24 24" fill="none" xmlns="http://www.w3.org/2000/svg">
<path d="M21.4441 15.3745H17.1519M17.1519 15.3745H9.38178C8.5943 15.3745 7.86563 15.7965 7.46637 16.4837L5.33301 20.1558L11.3282 9.78602C11.7417 9.07078 11.6956 8.24233 11.2589 7.49951M17.1519 15.3745C16.3686 15.3745 15.6431 14.9569 15.2424 14.2754L11.2589 7.49951M11.2589 7.49951L9.23347 4.0542M9.84168 15.3751H14.159C14.9284 15.3751 15.4096 14.5426 15.0255 13.8759L12.8668 10.1291C12.4821 9.46135 11.5186 9.46135 11.1339 10.1291L8.9752 13.8759C8.59111 14.5426 9.07229 15.3751 9.84168 15.3751Z" stroke="#667085" stroke-width="2" stroke-linecap="round" stroke-linejoin="round"/>
<path d="M7.79827 5.04249L3.08085 13.4489C2.40815 14.6477 2.3981 16.1079 3.05424 17.3158L3.91988 18.9093C4.61977 20.1978 5.96851 21 7.43477 21H16.5652C18.0315 21 19.3802 20.1978 20.0801 18.9093L20.9458 17.3158C21.6019 16.1079 21.5919 14.6477 20.9192 13.4489L16.2017 5.04249C15.4938 3.781 14.16 3 12.7134 3H11.2866C9.84001 3 8.50617 3.781 7.79827 5.04249Z" stroke="black" stroke-width="2" stroke-linecap="round" stroke-linejoin="round"/>
</svg>
