<svg width="24" height="24" viewBox="0 0 24 24" fill="none" xmlns="http://www.w3.org/2000/svg">
<path d="M10.8816 21.938L15.4359 14.0494M3.95312 6.06201L8.4927 13.9244M8.4927 13.9244C9.17294 15.1615 10.4886 15.9999 12.0001 15.9999C13.4602 15.9999 14.7375 15.2177 15.4359 14.0494M8.4927 13.9244C8.17874 13.3534 8.00015 12.6975 8.00015 11.9999C8.00015 9.79074 9.79101 7.99988 12.0001 7.99988M8.4927 13.9244L8.53629 13.9999M15.4359 14.0494C15.7942 13.45 16.0001 12.749 16.0001 11.9999C16.0001 9.79074 14.2093 7.99988 12.0001 7.99988M15.4359 14.0494L15.4645 13.9999M12.0001 7.99988H21.1681" stroke="#667085" stroke-width="2" stroke-linecap="round" stroke-linejoin="round"/>
<path d="M10.8815 21.9381C11.2487 21.979 11.6219 22 12 22C17.5228 22 22 17.5228 22 12C22 10.5778 21.7031 9.22492 21.1679 8C19.6248 4.46819 16.1006 2 12 2C8.70055 2 5.77432 3.59793 3.95297 6.06213C2.72562 7.72268 2 9.7766 2 12C2 17.1447 5.88511 21.3821 10.8815 21.9381Z" stroke="black" stroke-width="2" stroke-linecap="round" stroke-linejoin="round"/>
</svg>
