<svg width="24" height="24" viewBox="0 0 24 24" fill="none" xmlns="http://www.w3.org/2000/svg">
<path d="M4.95632 17.19L8.92844 12.9345M16.4995 4.82324L12.8685 8.71334M3.14258 8.12923L8.92844 12.9345M8.92844 12.9345L12.8685 8.71334M12.8685 8.71334L20.7143 15.4999" stroke="#667085" stroke-width="2" stroke-linecap="round" stroke-linejoin="round"/>
<path d="M2 11.714C2 13.8551 3.13078 15.7925 4.95679 17.1901C4.95679 18 4.5 19 4 20C6 20 8 20 8.92891 19.0575C9.89655 19.2981 10.9286 19.4281 12 19.4281C15.7393 19.4281 18.9993 17.8449 20.7148 15.5C21.5331 14.3816 22 13.0899 22 11.714C22 8.7023 19.7626 6.09367 16.5 4.82331C15.1474 4.29665 13.6186 4 12 4C8.1547 4 4.81631 5.67424 3.14305 8.1293C2.41307 9.20033 2 10.42 2 11.714Z" stroke="black" stroke-width="2" stroke-linecap="round" stroke-linejoin="round"/>
</svg>
