<svg width="24" height="24" viewBox="0 0 24 24" fill="none" xmlns="http://www.w3.org/2000/svg">
<path d="M16.0895 7.09614C14.5952 5.79081 12.64 5 10.5 5C5.80558 5 2 8.80558 2 13.5C2 18.1944 5.80558 22 10.5 22C15.1944 22 19 18.1944 19 13.5C19 12.9345 18.9448 12.3818 18.8394 11.8472M20 2V4M20 4V6M20 4H22M20 4H18" stroke="#667085" stroke-width="2" stroke-linecap="round" stroke-linejoin="round"/>
<path d="M16.0896 7.09619L14.1201 8.77028C13.7702 9.0677 13.2668 9.07896 12.8578 8.87024C12.1502 8.50921 11.3489 8.30561 10.5001 8.30561C7.6313 8.30561 5.30566 10.6312 5.30566 13.5001C5.30566 16.3689 7.6313 18.6945 10.5001 18.6945C12.545 18.6945 14.314 17.5128 15.1614 15.7951C15.3125 15.4886 15.0727 15.1528 14.731 15.1528H11.5001C10.9478 15.1528 10.5001 14.7051 10.5001 14.1528V12.8473C10.5001 12.295 10.9478 11.8473 11.5001 11.8473H18.8395" stroke="black" stroke-width="2" stroke-linecap="round" stroke-linejoin="round"/>
</svg>
