<svg width="24" height="24" viewBox="0 0 24 24" fill="none" xmlns="http://www.w3.org/2000/svg">
<path d="M4 10.5C4 14.9183 7.58172 18.5 12 18.5V21.5C17 21.5 20 16 20 10.5C20 6.08172 16.4183 2.5 12 2.5C7.58172 2.5 4 6.08172 4 10.5Z" stroke="#667085" stroke-width="2" stroke-linecap="round" stroke-linejoin="round"/>
<path d="M16.75 8.8C16.75 8.63431 16.6157 8.5 16.45 8.5H13.55C13.3843 8.5 13.25 8.63431 13.25 8.8V11.7C13.25 11.8657 13.3843 12 13.55 12H13.95C14.1157 12 14.25 12.1343 14.25 12.3V13.3C14.25 13.4105 14.34 13.5005 14.4503 13.4954C15.8384 13.4312 16.75 12.6935 16.75 11.5V8.8Z" fill="#121A26"/>
<path d="M7.25 8.8C7.25 8.63431 7.38431 8.5 7.55 8.5H10.45C10.6157 8.5 10.75 8.63431 10.75 8.8V11.5C10.75 12.6935 9.83836 13.4312 8.45029 13.4954C8.33995 13.5005 8.25 13.4105 8.25 13.3V12.3C8.25 12.1343 8.11569 12 7.95 12H7.55C7.38431 12 7.25 11.8657 7.25 11.7V8.8Z" fill="#121A26"/>
</svg>
