<svg width="24" height="24" viewBox="0 0 24 24" fill="none" xmlns="http://www.w3.org/2000/svg">
<path d="M2 17V10.3332M2 7V7.011" stroke="black" stroke-width="2.28571" stroke-linecap="round" stroke-linejoin="round"/>
<path d="M21.8577 8.5625C21.4505 7.78125 20.7718 7 19.143 7C17.5141 7 16.1798 8.25539 16.2925 9.8125C16.4282 11.6875 19.143 12 19.143 12C19.143 12 21.8577 12.3125 21.9935 14.1875C22.1062 15.7446 20.7718 17 19.143 17C17.5141 17 16.8355 16.2187 16.4282 15.4375M5.42871 10.6111V13.3889C5.42871 13.4405 5.42871 13.4663 5.42899 13.4881C5.45334 15.4176 7.05631 16.9761 9.04098 16.9997C9.06341 17 9.08994 17 9.143 17C9.19605 17 9.22258 17 9.24502 16.9997C11.2297 16.9761 12.8326 15.4176 12.857 13.4881C12.8573 13.4663 12.8573 13.4405 12.8573 13.3889V10.6111C12.8573 10.5595 12.8573 10.5337 12.857 10.5119C12.8326 8.58238 11.2297 7.02395 9.24502 7.00027C9.22258 7 9.19605 7 9.143 7C9.08994 7 9.06341 7 9.04098 7.00027C7.05631 7.02395 5.45334 8.58238 5.42899 10.5119C5.42871 10.5337 5.42871 10.5595 5.42871 10.6111Z" stroke="#667085" stroke-width="2.28571" stroke-linecap="round" stroke-linejoin="round"/>
</svg>
