<svg width="24" height="24" viewBox="0 0 24 24" fill="none" xmlns="http://www.w3.org/2000/svg">
<path d="M13.4997 5.07812L8.12457 11.7445C7.29968 12.7676 7.68927 14.1812 8.70194 14.749M16.0745 5.60547L8.70194 14.749M21.0374 14.9999H9.6815C9.31509 14.9999 8.9843 14.9073 8.70194 14.749" stroke="#667085" stroke-width="2" stroke-linecap="round" stroke-linejoin="round"/>
<path d="M2 12C2 15.866 6.47715 19 12 19C15.9891 19 19.4327 17.3649 21.0377 15C21.6547 14.0907 22 13.0736 22 12C22 9.14984 19.5666 6.69753 16.0747 5.60557C15.2674 5.35311 14.4035 5.17336 13.5 5.07823C13.0107 5.0267 12.5098 5 12 5C6.47715 5 2 8.13401 2 12Z" stroke="black" stroke-width="2" stroke-linecap="round" stroke-linejoin="round"/>
</svg>
