<svg width="24" height="24" viewBox="0 0 24 24" fill="none" xmlns="http://www.w3.org/2000/svg">
<path d="M11.7957 9.16194C11.6744 9.01639 11.475 8.9624 11.2968 9.0269C11.1187 9.0914 11 9.26056 11 9.45002V12.45C11 12.6986 11.2015 12.9 11.45 12.9C11.6985 12.9 11.9 12.6986 11.9 12.45V10.6929L13.6043 12.7381C13.7256 12.8837 13.925 12.9376 14.1032 12.8731C14.2813 12.8086 14.4 12.6395 14.4 12.45V9.45002C14.4 9.20149 14.1985 9.00002 13.95 9.00002C13.7015 9.00002 13.5 9.20149 13.5 9.45002V11.2071L11.7957 9.16194Z" fill="black"/>
<path d="M15.2 9.00002C14.9515 9.00002 14.75 9.20149 14.75 9.45002V12.45C14.75 12.6986 14.9515 12.9 15.2 12.9H16.7C16.9485 12.9 17.15 12.6986 17.15 12.45C17.15 12.2015 16.9485 12 16.7 12H15.65V11.4H16.7C16.9485 11.4 17.15 11.1986 17.15 10.95C17.15 10.7015 16.9485 10.5 16.7 10.5H15.65V9.90002H16.7C16.9485 9.90002 17.15 9.69855 17.15 9.45002C17.15 9.20149 16.9485 9.00002 16.7 9.00002H15.2Z" fill="black"/>
<path d="M10.2 9.00002C10.4485 9.00002 10.65 9.20149 10.65 9.45002V12.45C10.65 12.6986 10.4485 12.9 10.2 12.9C9.95147 12.9 9.75 12.6986 9.75 12.45V9.45002C9.75 9.20149 9.95147 9.00002 10.2 9.00002Z" fill="black"/>
<path d="M7.9 9.45002C7.9 9.20149 7.69853 9.00002 7.45 9.00002C7.20147 9.00002 7 9.20149 7 9.45002V12.45C7 12.6986 7.20147 12.9 7.45 12.9H8.95C9.19853 12.9 9.4 12.6986 9.4 12.45C9.4 12.2015 9.19853 12 8.95 12H7.9V9.45002Z" fill="black"/>
<path d="M22 10.6143C22 6.40906 17.5228 3 12 3C6.47715 3 2 6.40906 2 10.6143C2 14.377 5.58425 17.5022 10.2948 18.1184C10.6665 18.167 10.8523 18.1914 10.9589 18.2526C11.1597 18.3681 11.2692 18.5526 11.2757 18.7869C11.2792 18.9112 11.2187 19.0749 11.0977 19.4023L11.0977 19.4024C10.8623 20.0398 10.7445 20.3586 10.7759 20.5316C10.8245 20.7992 11.0463 20.9898 11.2944 20.9996C11.3016 20.9999 11.2836 20.9992 11.3808 20.9838C11.478 20.9685 11.4983 20.961 11.5388 20.9461C12.7012 20.518 22 16.8976 22 10.6143Z" stroke="#667085" stroke-width="2" stroke-linejoin="round"/>
</svg>
