<svg width="24" height="24" viewBox="0 0 24 24" fill="none" xmlns="http://www.w3.org/2000/svg">
<path d="M7 17.9144C10.9163 17.9144 13.0628 13 16 13M12.851 10.8589L14.7272 7.62585C15.4298 6.41528 15.2225 4.89149 14.2213 3.90558C12.995 2.69814 11.0068 2.69814 9.78054 3.90558C8.77927 4.89149 8.57202 6.41528 9.27456 7.62585L11.1508 10.8589C11.5267 11.5066 12.4751 11.5066 12.851 10.8589Z" stroke="#121A26" stroke-width="2" stroke-linecap="round"/>
<circle cx="12" cy="6" r="1" fill="#667085"/>
<path d="M17.5 9.59863C18.8681 10.0095 19.9364 11.1407 20.2081 12.5853L20.9334 16.4415C21.3792 18.8121 19.5311 20.9998 17.0826 20.9998H6.91743C4.46887 20.9998 2.62078 18.8121 3.06664 16.4415L3.79187 12.5853C4.06356 11.1407 5.13194 10.0095 6.50001 9.59863" stroke="#667085" stroke-width="2" stroke-linecap="round"/>
</svg>
