<svg width="24" height="24" viewBox="0 0 24 24" fill="none" xmlns="http://www.w3.org/2000/svg">
<path d="M2 12C2 15.5899 4.91015 18.5 8.5 18.5C9.78864 18.5 10.9897 18.125 12 17.4782C13.8042 16.3231 15 14.3012 15 12C15 9.69879 13.8042 7.67689 12 6.52182C10.9897 5.875 9.78864 5.5 8.5 5.5C4.91015 5.5 2 8.41015 2 12Z" stroke="#667085" stroke-width="2" stroke-linecap="round" stroke-linejoin="round"/>
<path d="M12 17.4782C13.0103 18.125 14.2114 18.5 15.5 18.5C19.0899 18.5 22 15.5899 22 12C22 8.41015 19.0899 5.5 15.5 5.5C14.2114 5.5 13.0103 5.875 12 6.52182C10.1958 7.67689 9 9.69879 9 12C9 14.3012 10.1958 16.3231 12 17.4782Z" stroke="black" stroke-width="2" stroke-linecap="round" stroke-linejoin="round"/>
</svg>
