<svg width="24" height="24" viewBox="0 0 24 24" fill="none" xmlns="http://www.w3.org/2000/svg">
<path d="M2.93781 11.0001C2.60612 12.2169 2.30069 13.5085 2.11887 14.3071C2.02224 14.7315 1.97739 15.1151 2.01116 15.4716C2.11632 16.5815 2.48796 17.1691 2.8933 17.4933C3.31076 17.8272 3.91146 18.0001 4.71112 18.0001C5.65201 18.0001 6.52654 17.5429 7.02521 16.7902L9.11884 13.6301L12 9.1001L12.7468 7.92583C13.5067 6.73105 14.8754 6 16.3524 6C18.0499 6 19.581 6.96289 20.2339 8.4411C20.4906 9.02237 20.7855 9.98515 21.0622 11" stroke="#667085" stroke-width="2" stroke-linejoin="round"/>
<path d="M2.9375 11C3.21415 9.98515 3.50908 9.02237 3.76581 8.4411C4.41871 6.96289 5.94975 6 7.64728 6C9.12429 6 10.493 6.73105 11.2529 7.92583L11.9997 9.09996L14.8808 13.63L16.9745 16.7901C17.4732 17.5427 18.3477 18 19.2886 18C20.0882 18 20.6889 17.8271 21.1064 17.4932C21.5117 17.1689 21.8834 16.5814 21.9885 15.4715C22.0223 15.115 21.9774 14.7314 21.8808 14.3069C21.699 13.5083 21.3936 12.2168 21.0619 11" stroke="black" stroke-width="2" stroke-linejoin="round"/>
</svg>
