<svg width="24" height="24" viewBox="0 0 24 24" fill="none" xmlns="http://www.w3.org/2000/svg">
<path d="M20 3.52131C20 2.68111 19.3284 2 18.5 2H16.5769C15.7485 2 15.0769 2.68111 15.0769 3.52131V10.3505C15.0769 10.8618 14.4153 11.0517 14.1511 10.6162L9.36237 2.724C9.08937 2.27407 8.60578 2 8.08488 2H5.5C4.67157 2 4 2.68111 4 3.52131V20.4636" stroke="black" stroke-width="2" stroke-linejoin="round"/>
<path d="M20 3.52148V20.4638C20 21.4121 19.1539 22.1272 18.2299 21.9812C17.2314 21.8235 16.2931 21.7001 15.3888 21.6113C14.911 21.5643 14.4789 21.2987 14.2273 20.8841L9.84891 13.6681C9.58468 13.2326 8.92308 13.4226 8.92308 13.9339V20.1899C8.92308 20.9778 8.32961 21.6331 7.55838 21.7282C6.98114 21.7994 6.38711 21.8837 5.77007 21.9812C4.8461 22.1272 4 21.4121 4 20.4637" stroke="#667085" stroke-width="2" stroke-linejoin="round"/>
</svg>
