<svg width="24" height="24" viewBox="0 0 24 24" fill="none" xmlns="http://www.w3.org/2000/svg">
<path d="M6.86873 19.9666C6.71182 20.7844 6.64439 21.2114 6.83449 21.5235C6.88258 21.6024 6.94133 21.6742 7.00904 21.7369C7.29368 22.0002 7.76057 22.0002 8.69437 22.0002C9.35152 22.0002 9.68009 22.0002 9.92802 21.8362C9.98808 21.7965 10.0437 21.7503 10.0939 21.6985C10.3009 21.4845 10.3636 21.1594 10.4891 20.5093L11.3322 16.1396C11.3925 15.8268 11.4227 15.6703 11.4868 15.5443C11.6115 15.2988 11.8314 15.1161 12.0944 15.0395C12.2294 15.0002 12.3875 15.0002 12.7037 15.0002H14.5396C17.152 15.0002 19.398 13.1344 19.8967 10.55C20.4288 7.79167 18.8257 5.19212 16.3652 4.31396" stroke="#667085" stroke-width="2" stroke-linecap="round" stroke-linejoin="round"/>
<path d="M6.82839 4.19737L4.18233 17.8057C4.0027 18.7295 3.91289 19.1914 4.11664 19.5232C4.16511 19.6022 4.22432 19.674 4.29256 19.7367C4.57942 20 5.04996 20 5.99105 20C6.38175 20 6.65721 20 6.86873 19.9663C7.01575 19.9429 7.13188 19.9032 7.23435 19.836C7.29488 19.7963 7.35092 19.7501 7.40147 19.6982C7.61016 19.4843 7.67337 19.1592 7.79978 18.5091L8.64945 14.1394C8.71028 13.8265 8.74069 13.6701 8.80525 13.5441C8.93102 13.2986 9.15261 13.1159 9.41762 13.0393C9.55366 13 9.71301 13 10.0317 13H11.882C14.5148 13 16.7783 11.1342 17.2809 8.54978C17.5834 6.99373 17.2011 5.4882 16.3652 4.31374C15.3772 2.92564 13.7555 2 11.882 2H9.49418C8.93557 2 8.65627 2 8.41582 2.06055C7.83392 2.20709 7.34857 2.60716 7.09366 3.15039C6.98832 3.37486 6.93501 3.64903 6.82839 4.19737Z" stroke="black" stroke-width="2" stroke-linecap="round" stroke-linejoin="round"/>
</svg>
