<svg width="24" height="24" viewBox="0 0 24 24" fill="none" xmlns="http://www.w3.org/2000/svg">
<path d="M8.99972 21.5422L10.8614 15M11.9997 11L10.8614 15M10.8614 15C12.4997 16.5 15.4769 16.447 16.7497 14.75C18.2497 12.75 16.7497 8.61302 12.9997 6.99999C7.62362 4.68751 2.99972 11.5 7.49972 14.5" stroke="#667085" stroke-width="2" stroke-linecap="round" stroke-linejoin="round"/>
<path d="M12 22C17.5228 22 22 17.5228 22 12C22 6.47715 17.5228 2 12 2C6.47715 2 2 6.47715 2 12C2 16.4776 4.94289 20.2679 9 21.5422C9.94704 21.8396 10.9548 22 12 22Z" stroke="black" stroke-width="2" stroke-linecap="round" stroke-linejoin="round"/>
</svg>
