<svg width="24" height="24" viewBox="0 0 24 24" fill="none" xmlns="http://www.w3.org/2000/svg">
<path d="M13.7607 13.8207C13.9152 13.2565 14 12.6424 14 12C14 9.23858 12.433 7 10.5 7C8.567 7 7 9.23858 7 12C7 14.7614 8.567 17 10.5 17C11.3001 17 12.0375 16.6165 12.627 15.9711C12.0808 15.6785 11.5404 15.5 11 15.5V13C11.9748 13 12.8902 13.3266 13.7607 13.8207Z" stroke="black" stroke-width="2" stroke-linejoin="round"/>
<path d="M17.0713 16.3414C17.6632 15.054 18 13.5742 18 12C18 7.02944 14.6421 3 10.5 3C6.35786 3 3 7.02944 3 12C3 16.9706 6.35786 21 10.5 21C12.562 21 14.4296 20.0015 15.7854 18.3853C17.3651 19.7138 19.0656 21 21 21V18.5C19.7165 18.5 18.4331 17.4933 17.0713 16.3414Z" stroke="#667085" stroke-width="2" stroke-linejoin="round"/>
</svg>
