<svg width="24" height="24" viewBox="0 0 24 24" fill="none" xmlns="http://www.w3.org/2000/svg">
<path d="M12 2C17.5228 2 22 6.47715 22 12C22 17.5228 17.5228 22 12 22C6.47715 22 2 17.5228 2 12C2 6.47715 6.47715 2 12 2Z" stroke="#667085" stroke-width="2" stroke-linecap="round" stroke-linejoin="round"/>
<path d="M10.4086 10.4091C10.686 10.1317 11.0178 9.90868 11.3877 9.75638L15.1326 8.21434C15.5436 8.04512 15.9546 8.45609 15.7853 8.86706L14.2433 12.612C14.091 12.9819 13.868 13.3137 13.5906 13.5911M10.4086 10.4091C10.1312 10.6865 9.90819 11.0183 9.75589 11.3882L8.21385 15.1331C8.04463 15.5441 8.4556 15.955 8.86657 15.7858L12.6115 14.2438C12.9814 14.0915 13.3132 13.8685 13.5906 13.5911M10.4086 10.4091L13.5906 13.5911" stroke="black" stroke-width="2" stroke-linecap="round" stroke-linejoin="round"/>
</svg>
