<svg width="24" height="24" viewBox="0 0 24 24" fill="none" xmlns="http://www.w3.org/2000/svg">
<path d="M10.0004 6L7.25333 8.74702C5.75456 10.2458 5.8128 12.6931 7.38116 14.1189C8.84743 15.4519 11.1021 15.3982 12.5033 13.997L14.0004 12.5M14.0004 18L16.7474 15.253C18.2462 13.7542 18.1879 11.3069 16.6196 9.88109C15.1533 8.54812 12.8986 8.60177 11.4974 10.003L10.0004 11.5" stroke="black" stroke-width="2" stroke-linecap="round" stroke-linejoin="round"/>
<path d="M2 12C2 17.5228 6.47715 22 12 22C17.5228 22 22 17.5228 22 12C22 6.47715 17.5228 2 12 2C6.47715 2 2 6.47715 2 12Z" stroke="#667085" stroke-width="2" stroke-linecap="round" stroke-linejoin="round"/>
</svg>
