<svg width="24" height="24" viewBox="0 0 24 24" fill="none" xmlns="http://www.w3.org/2000/svg">
<path d="M17.5088 11.9999C18.8721 11.6077 19.9997 10.9999 20.9997 10.9956M6.49969 11.9999C5.13641 11.6077 4.00879 10.9999 3.00879 10.9956" stroke="#667085" stroke-width="2" stroke-linecap="round" stroke-linejoin="round"/>
<path d="M19.4783 16.2609L21 18C21 18 15.7048 21 12 21C8.29516 21 3 18 3 18L4.52167 16.2609C5.00848 15.7046 5.25192 15.4264 5.45445 15.1299C5.99824 14.3338 6.34219 13.4184 6.45718 12.4612C6.47445 12.3174 6.48475 12.1715 6.4909 12C6.5 11.7464 6.5 11.4368 6.5 10.9957V8.5C6.5 5.46243 8.96243 3 12 3C15.0376 3 17.5 5.46243 17.5 8.5V10.9957C17.5 11.4368 17.5 11.7464 17.5091 12C17.5152 12.1715 17.5256 12.3174 17.5428 12.4612C17.6578 13.4184 18.0018 14.3338 18.5456 15.1299C18.7481 15.4264 18.9915 15.7046 19.4783 16.2609Z" stroke="black" stroke-width="2" stroke-linecap="round" stroke-linejoin="round"/>
</svg>
