<svg width="24" height="24" viewBox="0 0 24 24" fill="none" xmlns="http://www.w3.org/2000/svg">
<path d="M17 3H7C4.79086 3 3 4.79086 3 7V17C3 19.2091 4.79086 21 7 21H17C19.2091 21 21 19.2091 21 17V7C21 4.79086 19.2091 3 17 3Z" stroke="#667085" stroke-width="1.66667" stroke-linejoin="round"/>
<path d="M12.226 9.38462C11.6417 9.38462 11.289 9.54945 11.289 9.97802C11.289 11.2088 15.489 10.6264 15.5 13.9011C15.5 15.8681 13.9236 17 11.6307 17C10.6827 17 9.64646 16.8132 8.62126 16.3736V13.7582C9.54724 14.2637 10.7157 14.6374 11.6307 14.6374C12.248 14.6374 12.689 14.4725 12.689 13.967C12.689 12.6593 8.5 13.1429 8.5 10.1099C8.5 8.16483 9.98819 7 12.226 7C13.1409 7 14.0449 7.14286 14.9598 7.50549V10.0879C14.122 9.63736 13.0638 9.38462 12.226 9.38462Z" stroke="black" stroke-width="1.66667" stroke-linejoin="round"/>
</svg>
