<svg width="24" height="24" viewBox="0 0 24 24" fill="none" xmlns="http://www.w3.org/2000/svg">
<path d="M7.15866 9.55078H4.03967C3.46547 9.55078 3 10.0186 3 10.5957V18.9552C3 19.5323 3.46547 20.0002 4.03967 20.0002H7.15866" stroke="#667085" stroke-width="2" stroke-linecap="round" stroke-linejoin="round"/>
<path d="M19.4836 17.0213L18.5254 16.7353V16.7353L19.4836 17.0213ZM20.9105 12.241L19.9523 11.955V11.955L20.9105 12.241ZM14.4359 9.55062L13.4654 9.30924C13.3912 9.60786 13.4585 9.92406 13.648 10.1665C13.8375 10.4089 14.1281 10.5506 14.4359 10.5506V9.55062ZM15.2177 6.40741L14.2473 6.16603L14.2473 6.16603L15.2177 6.40741ZM14.7238 4.61536L15.4327 3.91004V3.91004L14.7238 4.61536ZM14.6174 4.50842L13.9085 5.21373L13.9085 5.21373L14.6174 4.50842ZM11.7207 5.31484L12.6911 5.55623V5.55623L11.7207 5.31484ZM11.5962 5.81512L12.5667 6.0565V6.0565L11.5962 5.81512ZM10.5024 7.75691L11.2113 8.46222L10.5024 7.75691ZM9.32672 8.93851L10.0356 9.64382L9.32672 8.93851ZM7.1582 9.55062V8.55062H6.1582V9.55062H7.1582ZM7.1582 20H6.1582V21H7.1582V20ZM12.175 4.50842L12.8839 5.21373L12.8839 5.21373L12.175 4.50842ZM20.4419 17.3073L21.8687 12.527L19.9523 11.955L18.5254 16.7353L20.4419 17.3073ZM18.9188 8.55062H14.4359V10.5506H18.9188V8.55062ZM15.4063 9.792L16.1881 6.6488L14.2473 6.16603L13.4654 9.30924L15.4063 9.792ZM15.4327 3.91004L15.3263 3.8031L13.9085 5.21373L14.0149 5.32068L15.4327 3.91004ZM10.7502 5.07346L10.6258 5.57373L12.5667 6.0565L12.6911 5.55623L10.7502 5.07346ZM9.79347 7.05159L8.61783 8.23319L10.0356 9.64382L11.2113 8.46222L9.79347 7.05159ZM7.85641 8.55062H7.1582V10.5506H7.85641V8.55062ZM7.1582 21H15.5004V19H7.1582V21ZM6.1582 9.55062V20H8.1582V9.55062H6.1582ZM8.61783 8.23319C8.41502 8.43703 8.14104 8.55062 7.85641 8.55062V10.5506C8.67474 10.5506 9.45852 10.2238 10.0356 9.64382L8.61783 8.23319ZM10.6258 5.57373C10.4865 6.13364 10.1986 6.64438 9.79347 7.05159L11.2113 8.46222C11.872 7.79809 12.3403 6.96646 12.5667 6.0565L10.6258 5.57373ZM11.4661 3.8031C11.1169 4.15403 10.8697 4.59321 10.7502 5.07346L12.6911 5.55623C12.7235 5.42604 12.7903 5.30774 12.8839 5.21373L11.4661 3.8031ZM15.3263 3.8031C14.2609 2.7323 12.5315 2.7323 11.4661 3.8031L12.8839 5.21373C13.1674 4.92876 13.625 4.92876 13.9085 5.21373L15.3263 3.8031ZM21.8687 12.527C22.4584 10.5515 20.9879 8.55062 18.9188 8.55062V10.5506C19.6355 10.5506 20.1631 11.2488 19.9523 11.955L21.8687 12.527ZM18.5254 16.7353C18.1233 18.0823 16.8919 19 15.5004 19V21C17.7819 21 19.7885 19.4962 20.4419 17.3073L18.5254 16.7353ZM16.1881 6.6488C16.4323 5.66707 16.1466 4.62751 15.4327 3.91004L14.0149 5.32067C14.2338 5.54064 14.323 5.86162 14.2473 6.16603L16.1881 6.6488Z" fill="black"/>
</svg>
