<svg width="24" height="24" viewBox="0 0 24 24" fill="none" xmlns="http://www.w3.org/2000/svg">
<path d="M7.15866 14.4494H4.03967C3.46547 14.4494 3 13.9815 3 13.4044V5.04494C3 4.46784 3.46547 4 4.03967 4H7.15866" stroke="#667085" stroke-width="2" stroke-linecap="round" stroke-linejoin="round"/>
<path d="M19.4836 6.97871L18.5254 7.26473V7.26473L19.4836 6.97871ZM20.9105 11.759L19.9523 12.045V12.045L20.9105 11.759ZM14.4359 14.4494V13.4494C14.1281 13.4494 13.8375 13.5911 13.648 13.8335C13.4585 14.0759 13.3912 14.3921 13.4654 14.6908L14.4359 14.4494ZM15.2177 17.5926L14.2473 17.834L14.2473 17.834L15.2177 17.5926ZM14.7238 19.3846L15.4327 20.09L15.4327 20.09L14.7238 19.3846ZM14.6174 19.4916L13.9085 18.7863L13.9085 18.7863L14.6174 19.4916ZM11.7207 18.6852L12.6911 18.4438V18.4438L11.7207 18.6852ZM11.5962 18.1849L12.5667 17.9435L11.5962 18.1849ZM10.5024 16.2431L11.2113 15.5378L10.5024 16.2431ZM9.32672 15.0615L8.61783 15.7668L9.32672 15.0615ZM7.1582 14.4494H6.1582V15.4494H7.1582V14.4494ZM7.1582 4V3H6.1582V4H7.1582ZM12.175 19.4916L12.8839 18.7863H12.8839L12.175 19.4916ZM18.5254 7.26473L19.9523 12.045L21.8687 11.473L20.4419 6.69269L18.5254 7.26473ZM18.9188 13.4494H14.4359V15.4494H18.9188V13.4494ZM13.4654 14.6908L14.2473 17.834L16.1881 17.3512L15.4063 14.208L13.4654 14.6908ZM14.0149 18.6793L13.9085 18.7863L15.3263 20.1969L15.4327 20.09L14.0149 18.6793ZM12.6911 18.4438L12.5667 17.9435L10.6258 18.4263L10.7502 18.9265L12.6911 18.4438ZM11.2113 15.5378L10.0356 14.3562L8.61783 15.7668L9.79347 16.9484L11.2113 15.5378ZM7.85641 13.4494H7.1582V15.4494H7.85641V13.4494ZM7.1582 5H15.5004V3H7.1582V5ZM8.1582 14.4494V4H6.1582V14.4494H8.1582ZM10.0356 14.3562C9.45852 13.7762 8.67474 13.4494 7.85641 13.4494V15.4494C8.14103 15.4494 8.41502 15.563 8.61783 15.7668L10.0356 14.3562ZM12.5667 17.9435C12.3403 17.0335 11.872 16.2019 11.2113 15.5378L9.79347 16.9484C10.1986 17.3556 10.4865 17.8664 10.6258 18.4263L12.5667 17.9435ZM12.8839 18.7863C12.7903 18.6923 12.7235 18.574 12.6911 18.4438L10.7502 18.9265C10.8697 19.4068 11.1169 19.846 11.4661 20.1969L12.8839 18.7863ZM13.9085 18.7863C13.625 19.0712 13.1674 19.0712 12.8839 18.7863L11.4661 20.1969C12.5315 21.2677 14.2609 21.2677 15.3263 20.1969L13.9085 18.7863ZM19.9523 12.045C20.1631 12.7512 19.6355 13.4494 18.9188 13.4494V15.4494C20.9879 15.4494 22.4584 13.4485 21.8687 11.473L19.9523 12.045ZM20.4419 6.69269C19.7885 4.50383 17.7819 3 15.5004 3V5C16.8919 5 18.1233 5.91765 18.5254 7.26473L20.4419 6.69269ZM14.2473 17.834C14.323 18.1384 14.2338 18.4594 14.0149 18.6793L15.4327 20.09C16.1466 19.3725 16.4323 18.3329 16.1881 17.3512L14.2473 17.834Z" fill="black"/>
</svg>
