<svg width="24" height="24" viewBox="0 0 24 24" fill="none" xmlns="http://www.w3.org/2000/svg">
<path d="M9.70605 9.26636C9.72744 9.59153 9.81533 10.4381 10.1651 10.9305C10.1726 10.9402 10.1857 10.9441 10.1968 10.9398C12.2065 10.212 12.5502 8.32108 12.3015 6.5825C12.2948 6.52986 12.3547 6.48321 12.3999 6.50587C14.3314 7.47483 16.5 9.61831 16.5 12.8444C16.5 15.31 14.6669 17.4983 12 17.4983C9.15352 17.4983 7.5 15.3751 7.5 12.8441C7.5 11.3709 8.50225 9.84505 9.58242 9.20002C9.63545 9.16856 9.70166 9.20376 9.70605 9.26636Z" stroke="black" stroke-width="2" stroke-linejoin="round"/>
<path d="M2 12C2 17.5228 6.47715 22 12 22C17.5228 22 22 17.5228 22 12C22 6.47715 17.5228 2 12 2C6.47715 2 2 6.47715 2 12Z" stroke="#667085" stroke-width="2" stroke-linejoin="round"/>
</svg>
