<svg width="24" height="24" viewBox="0 0 24 24" fill="none" xmlns="http://www.w3.org/2000/svg">
<path d="M15 9V10M11.9997 9V10M5.1 4.2L3.4 6.46667C3.14036 6.81286 3 7.23393 3 7.66667V18C3 18.5523 3.44772 19 4 19H6.75098C7.02712 19 7.25098 19.2239 7.25098 19.5V20.5C7.25098 20.7761 7.47483 21 7.75098 21H8.39435C8.7892 21 9.17521 20.8831 9.50375 20.6641L11.496 19.3359C11.8246 19.1169 12.2106 19 12.6055 19H16.9999C17.6294 19 18.2222 18.7036 18.5999 18.2L20.5999 15.5333C20.8595 15.1871 20.9999 14.7661 20.9999 14.3333V4C20.9999 3.44772 20.5522 3 19.9999 3H7.5C6.55573 3 5.66656 3.44458 5.1 4.2Z" stroke="black" stroke-width="2" stroke-linecap="round" stroke-linejoin="round"/>
<path d="M18 11.3334L18.0001 6.50001C18.0001 6.22386 17.7762 6 17.5001 6H8.00019C7.72405 6 7.5002 6.22385 7.50019 6.49999L7.50001 13.5C7.50001 13.7761 7.72387 14 8.00001 14H8.9998C9.27594 14 9.4998 14.2239 9.4998 14.5V16L11.452 14.4383C11.8066 14.1546 12.2472 14 12.7014 14H15.5C16.1295 14 16.7223 13.7036 17.1 13.2L17.6 12.5333C17.8596 12.1871 18 11.7661 18 11.3334Z" stroke="#667085" stroke-width="2" stroke-linecap="round" stroke-linejoin="round"/>
</svg>
