<svg width="24" height="24" viewBox="0 0 24 24" fill="none" xmlns="http://www.w3.org/2000/svg">
<path d="M18 3H6C4.34315 3 3 4.34315 3 6V18C3 19.6569 4.34315 21 6 21H18C19.6569 21 21 19.6569 21 18V6C21 4.34315 19.6569 3 18 3Z" stroke="#667085" stroke-width="2" stroke-linecap="round" stroke-linejoin="round"/>
<path d="M7.25833 8H5.75109C5.61235 8 5.49965 8.11265 5.50199 8.2507C5.57479 12.5544 7.54335 15.8931 12.7601 16.4722C12.9069 16.4885 13.0361 16.3733 13.0361 16.2262V13.955C13.0361 13.8358 13.1205 13.7313 13.2399 13.7227C14.43 13.6372 15.9605 14.7561 16.4964 16.32C16.5325 16.4257 16.6303 16.5 16.7425 16.5H18.2562C18.4148 16.5 18.5338 16.355 18.4943 16.2022C17.9248 13.9998 16.1708 12.8423 15.1758 12.5363C15.1312 12.5226 15.1246 12.46 15.1657 12.438C16.1655 11.9029 17.9306 10.5069 18.0535 8.2501C18.061 8.11223 17.9478 8 17.809 8H16.2467C16.1315 8 16.0314 8.07829 16.0006 8.18884C15.523 9.90478 14.6443 10.6487 13.3647 11.1336C13.2044 11.1944 13.0361 11.0738 13.0361 10.9031V8.25C13.0361 8.11193 12.9236 8 12.7849 8H11.2776C11.1389 8 11.0264 8.11193 11.0264 8.25V13.6531C11.0264 13.8238 10.858 13.9441 10.6985 13.8813C8.69672 13.0933 7.56788 11.4152 7.51174 8.25087C7.50929 8.11282 7.39707 8 7.25833 8Z" fill="#121A26"/>
</svg>
