<svg width="24" height="24" viewBox="0 0 24 24" fill="none" xmlns="http://www.w3.org/2000/svg">
<path d="M15.0023 16.4347C11.2539 15.9434 8.05635 12.7459 7.5651 8.99746C7.49334 8.44986 7.94747 8 8.49975 8H9.8354C10.5197 8 11.1162 8.46572 11.2822 9.12959L11.3004 9.20269C11.4169 9.66855 11.1942 10.1528 10.7647 10.3675C10.6127 10.4435 10.5386 10.6203 10.6006 10.7785C11.0926 12.0336 11.9661 12.9072 13.2213 13.3992C13.3795 13.4612 13.5562 13.3871 13.6322 13.2351C13.847 12.8056 14.3312 12.5829 14.7971 12.6993L14.8702 12.7176C15.534 12.8836 15.9998 13.4801 15.9998 14.1644V15.5C15.9998 16.0523 15.5499 16.5064 15.0023 16.4347Z" stroke="black" stroke-width="2" stroke-linecap="round"/>
<path d="M12 22C17.5228 22 22 17.5228 22 12C22 6.47715 17.5228 2 12 2C6.47715 2 2 6.47715 2 12C2 13.9779 2.57422 15.8217 3.56505 17.3737L3.56505 17.3737C3.69311 17.5743 3.75714 17.6746 3.77775 17.7755C3.79837 17.8764 3.78028 17.985 3.7441 18.2021L3.38971 20.3284C3.26396 21.0829 3.20108 21.4602 3.42156 21.6637C3.64204 21.8673 4.01309 21.7745 4.75519 21.589L7.05668 21.0136C7.252 20.9648 7.34966 20.9404 7.44391 20.9491C7.53817 20.9579 7.63714 21.0033 7.83508 21.0941C9.10306 21.6757 10.5137 22 12 22Z" stroke="#667085" stroke-width="2" stroke-linecap="round"/>
</svg>
