<svg width="24" height="24" viewBox="0 0 24 24" fill="none" xmlns="http://www.w3.org/2000/svg">
<path d="M12 20.3567C16.8325 20.3567 20.75 16.4713 20.75 11.6783C20.75 6.88543 16.8325 3 12 3C7.16751 3 3.25 6.88543 3.25 11.6783C3.25 14.0871 4.23943 16.2666 5.83719 17.8389C6.00467 18.0038 6.08844 18.0862 6.12752 18.1803C6.16661 18.2744 6.16661 18.3845 6.16661 18.6047V19.6608C6.16661 20.4247 6.16661 20.8066 6.40806 20.9513C6.64951 21.0959 6.9725 20.9075 7.6185 20.5306L8.4942 20.0197C8.6827 19.9097 8.77705 19.8547 8.87719 19.8436C8.97735 19.8325 9.08916 19.8683 9.31279 19.9398C10.1595 20.2105 11.0625 20.3567 12 20.3567Z" stroke="#667085" stroke-width="2" stroke-linecap="round" stroke-linejoin="round"/>
<path d="M12.5 11.75H10M12.5 11.75C13.6046 11.75 14.5 10.8546 14.5 9.75C14.5 8.64543 13.6046 7.75 12.5 7.75H10V11.75M12.5 11.75H13C14.1046 11.75 15 12.6454 15 13.75C15 14.8546 14.1046 15.75 13 15.75H10V11.75" stroke="black" stroke-width="2" stroke-linecap="round" stroke-linejoin="round"/>
</svg>
