<svg width="24" height="24" viewBox="0 0 24 24" fill="none" xmlns="http://www.w3.org/2000/svg">
<path d="M21 15.2076C21 13.6956 21 12.9396 20.5606 12.4699C20.1213 12.0002 19.4142 12.0002 18 12.0002M4.99999 12.0002C4.05719 12.0002 3.58578 12.0002 3.29288 12.3133C3.00903 12.6168 3.00027 13.0995 3 14.0465M4.99999 12.0002C4.05718 12.0002 3.58578 12.0001 3.29288 11.687C3.00903 11.3835 3.00027 10.9008 3 9.95382M4.99999 12.0002L8.29999 12.0002M18 12.0002C19.4142 12.0002 20.1213 12.0001 20.5606 11.5304C21 11.0607 21 10.3047 21 8.79277M18 12.0002L14 12.0002M7.95766 5.47672C9.36209 5.14305 10.0643 4.97622 10.5322 5.37745C11 5.77868 11 6.54775 11 8.08589V8.7928M8.11797 18.5617C9.41622 18.8694 10.0825 19.0086 10.5322 18.623C11 18.2217 11 17.4527 11 15.9145V15.2075M13.3492 19.8046C12.223 19.537 11.6599 19.4032 11.3299 18.9635C11 18.5238 11 17.907 11 16.6736M11 7.32672C11 6.09328 11 5.47655 11.3299 5.03682C11.6459 4.61569 12.1757 4.47516 13.2092 4.229M11 8.7928C11 10.3048 11 11.0608 11.4393 11.5305C11.8787 12.0002 12.5858 12.0002 14 12.0002M11 8.7928V9.11354C11 10.4743 11 11.1547 10.6046 11.5774C10.2092 12.0002 9.57278 12.0002 8.29999 12.0002M14 12.0002C12.5858 12.0002 11.8787 12.0002 11.4393 12.4699C11 12.9396 11 13.6956 11 15.2075M11 15.2075V14.8868C11 13.526 11 12.8456 10.6046 12.4229C10.2092 12.0002 9.57278 12.0002 8.29999 12.0002" stroke="#667085" stroke-width="2" stroke-linecap="round"/>
<path d="M3 15.2074V14.1383C3 14.1072 3 14.0765 3.00001 14.0464M3.00001 14.0464C3 14.0032 3 13.9595 3 13.9151V10.0849C3 10.0405 3 9.99679 3.00001 9.95364M3.00001 14.0464C3.00032 15.6039 3.01186 16.3978 3.43992 16.9683C3.87983 17.5547 4.63065 17.733 6.13228 18.0898L7.95767 18.5235C8.01215 18.5365 8.06558 18.5492 8.11797 18.5616L13.3492 19.8044L16.1323 20.4656C18.3794 20.9995 19.5029 21.2664 20.2515 20.6245C21 19.9825 21 18.752 21 16.291V15.2074V8.7926V7.70903C21 5.24801 21 4.0175 20.2515 3.37553C19.5029 2.73356 18.3794 3.0005 16.1323 3.53437L13.2092 4.22883M7 5.70407L7.95767 5.47655M15.8685 3.59702L13.3492 4.19555C13.3016 4.20687 13.2549 4.21796 13.2092 4.22883M3 8.7926V9.86172C3 9.89284 3 9.92348 3.00001 9.95364M3.00001 9.95364C3.00032 8.39611 3.01186 7.60217 3.43992 7.03166C3.87983 6.44534 4.63065 6.26696 6.13228 5.9102L13.2092 4.22883" stroke="black" stroke-width="2" stroke-linecap="round"/>
</svg>
