<svg width="24" height="24" viewBox="0 0 24 24" fill="none" xmlns="http://www.w3.org/2000/svg">
<path d="M3.95273 17.9377L11.9999 11.5L20.047 17.9377M3.40723 17.1183L8.49987 8.49998L5.5496 4.3581M20.5925 17.1183L15.4999 8.49998L18.4501 4.35807M17.1861 3.44824L11.9999 5.99998L6.81357 3.44828" stroke="#667085" stroke-width="2" stroke-linecap="round" stroke-linejoin="round"/>
<path d="M3.95286 17.9378C5.7742 20.4021 8.70048 22.0001 12 22.0001C15.2995 22.0001 18.2258 20.4021 20.0471 17.9378C20.2419 17.6743 20.424 17.4009 20.5926 17.1184C21.4864 15.6211 22 13.8706 22 12.0001C22 8.93533 20.6213 6.19256 18.4502 4.35821C18.0541 4.0235 17.6316 3.71903 17.1862 3.44838C15.6741 2.52935 13.8988 2.00011 12 2.00011C10.1011 2.00011 8.32587 2.52937 6.8137 3.44842C6.36837 3.71907 5.94586 4.02353 5.54973 4.35823C3.3787 6.19259 2 8.93535 2 12.0001C2 13.8706 2.51355 15.6211 3.40736 17.1184C3.57596 17.4009 3.75809 17.6743 3.95286 17.9378Z" stroke="black" stroke-width="2" stroke-linecap="round" stroke-linejoin="round"/>
</svg>
