<svg width="24" height="24" viewBox="0 0 24 24" fill="none" xmlns="http://www.w3.org/2000/svg">
<path d="M7 12C7 14.7614 9.23858 17 12 17C14.7614 17 17 14.7614 17 12C17 9.23858 14.7614 7 12 7C9.23858 7 7 9.23858 7 12Z" stroke="#121A26" stroke-width="2" stroke-linecap="round" stroke-linejoin="round"/>
<path d="M2 12C2 17.5228 6.47715 22 12 22C17.5228 22 22 17.5228 22 12C22 6.47715 17.5228 2 12 2C6.47715 2 2 6.47715 2 12Z" stroke="#667085" stroke-width="2" stroke-linecap="round" stroke-linejoin="round"/>
<path d="M10.75 13.4541V10.5459C10.75 10.1147 11.1769 9.85429 11.5015 10.0874L13.526 11.5416C13.8247 11.7561 13.8247 12.2439 13.526 12.4584L11.5015 13.9126C11.1769 14.1457 10.75 13.8853 10.75 13.4541Z" fill="#667085"/>
</svg>
