<svg width="24" height="24" viewBox="0 0 24 24" fill="none" xmlns="http://www.w3.org/2000/svg">
<path d="M9.91071 17L9.06784 18.3111C8.79184 18.7405 8.31647 19 7.80607 19H5.7475C4.56075 19 3.84399 17.6871 4.48573 16.6889L10.7382 6.96275C11.3287 6.04427 12.6713 6.04426 13.2618 6.96275L14.2911 8.56386C14.6087 9.05797 14.6087 9.69202 14.2911 10.1861L11.8393 14M13.8317 19H19.1683C19.9595 19 20.4373 18.1248 20.0095 17.4592L17.3412 13.3085C16.9475 12.6962 16.0525 12.6962 15.6588 13.3085L12.9905 17.4592C12.5627 18.1248 13.0405 19 13.8317 19Z" stroke="black" stroke-width="2" stroke-linecap="round"/>
</svg>
