<svg width="24" height="24" viewBox="0 0 24 24" fill="none" xmlns="http://www.w3.org/2000/svg">
<path d="M12 22C6.47715 22 2 17.5228 2 12M2.81984 8.02815C4.3565 4.48131 7.88848 2 12 2C17.5228 2 22 6.47715 22 12C22 16.1006 19.5318 19.6248 16 21.1679M6.03957 14.2822L10.4163 7.4739C10.8296 6.83096 11.7695 6.83096 12.1828 7.4739L12.9033 8.59468C13.1257 8.94056 13.1256 9.3844 12.9033 9.73027L9.24705 15.4178C9.05385 15.7183 8.72109 15.9 8.36381 15.9H6.92281C6.09209 15.9 5.59035 14.981 6.03957 14.2822ZM16.0384 11.9159L17.9062 14.8214C18.2057 15.2873 17.8712 15.9 17.3174 15.9H13.5817C13.0279 15.9 12.6934 15.2873 12.9929 14.8214L14.8607 11.9159C15.1363 11.4873 15.7628 11.4873 16.0384 11.9159Z" stroke="black" stroke-width="2" stroke-linecap="round" stroke-linejoin="round"/>
</svg>
