<svg width="24" height="24" viewBox="0 0 24 24" fill="none" xmlns="http://www.w3.org/2000/svg">
<path d="M15 15C11.6863 15 9 12.3137 9 9M15 15C15 18.3137 12.3137 21 9 21C5.68629 21 3 18.3137 3 15C3 14.6593 3.0284 14.3252 3.08296 14M15 15C15 11.6863 12.3137 9 9 9M15 15C16.5217 15 17.911 14.4335 18.9687 13.5M9 9C9 5.68629 11.6863 3 15 3C18.3137 3 21 5.68629 21 9C21 9.34071 20.9716 9.67479 20.917 10M9 9C7.46329 9 6.06151 9.57771 5 10.5278" stroke="black" stroke-width="2" stroke-linecap="round" stroke-linejoin="round"/>
</svg>
