<svg width="24" height="24" viewBox="0 0 24 24" fill="none" xmlns="http://www.w3.org/2000/svg">
<path d="M12 22C6.47715 22 2 17.5228 2 12M2.81984 8.02815C4.3565 4.48131 7.88848 2 12 2C17.5228 2 22 6.47715 22 12C22 16.1006 19.5318 19.6248 16 21.1679M15.8817 15.2161L12.8817 16.9036C12.3337 17.2118 11.6647 17.2118 11.1167 16.9036L8.11675 15.2161C7.54997 14.8973 7.19922 14.2976 7.19922 13.6473V10.3527C7.19922 9.70244 7.54997 9.10271 8.11675 8.7839L11.1167 7.0964C11.6647 6.78818 12.3337 6.78818 12.8817 7.0964L15.8817 8.7839C16.4485 9.10271 16.7992 9.70244 16.7992 10.3527V13.6473C16.7992 14.2976 16.4485 14.8973 15.8817 15.2161Z" stroke="black" stroke-width="2" stroke-linecap="round" stroke-linejoin="round"/>
</svg>
