<svg width="24" height="24" viewBox="0 0 24 24" fill="none" xmlns="http://www.w3.org/2000/svg">
<path fill-rule="evenodd" clip-rule="evenodd" d="M12 1C7.47577 1 3.59168 3.73115 1.90226 7.63061C1.6827 8.13737 1.91553 8.72618 2.4223 8.94573C2.92907 9.16529 3.51787 8.93246 3.73743 8.42569C5.12131 5.23147 8.30119 3 12 3C16.9706 3 21 7.02944 21 12C21 15.689 18.7803 18.8618 15.5996 20.2516C15.0935 20.4727 14.8625 21.0622 15.0836 21.5683C15.3048 22.0744 15.8943 22.3054 16.4004 22.0843C20.2833 20.3878 23 16.5123 23 12C23 5.92487 18.0751 1 12 1ZM3 12C3 11.4477 2.55228 11 2 11C1.44772 11 1 11.4477 1 12C1 18.0751 5.92487 23 12 23C12.5523 23 13 22.5523 13 22C13 21.4477 12.5523 21 12 21C7.02944 21 3 16.9706 3 12ZM7.20312 6.3501C7.61208 6.3501 7.97516 6.54649 8.20322 6.8501H15.8137C16.0418 6.54649 16.4049 6.3501 16.8138 6.3501C17.5042 6.3501 18.0638 6.90974 18.0638 7.6001V7.6061C18.0638 8.20579 17.6415 8.70685 17.0781 8.82812L15.6969 11.9358C15.8576 12.1461 15.9531 12.4089 15.9531 12.6941V12.7001C15.9531 13.3567 15.4469 13.8951 14.8034 13.9461L13.0986 17.782C13.2004 17.9629 13.2585 18.1717 13.2585 18.3941V18.4001C13.2585 19.0905 12.6988 19.6501 12.0085 19.6501C11.3181 19.6501 10.7585 19.0905 10.7585 18.4001V18.3941C10.7585 18.1761 10.8143 17.9711 10.9124 17.7926L9.20285 13.9461C8.55938 13.8951 8.05312 13.3567 8.05312 12.7001V12.6941C8.05312 12.4089 8.14861 12.1461 8.30935 11.9358L6.92701 8.82551C6.36951 8.69981 5.95312 8.20158 5.95312 7.6061V7.6001C5.95312 6.90974 6.51277 6.3501 7.20312 6.3501ZM12.0031 11.7618L13.4532 12.6846L13.4531 12.6941V12.7001C13.4531 12.8491 13.4792 12.9921 13.5271 13.1246L12.0031 16.5534L10.4792 13.1246C10.527 12.9921 10.5531 12.8491 10.5531 12.7001V12.6941L10.5531 12.6846L12.0031 11.7618ZM9.43581 8.3501L12.0031 9.98384L14.5704 8.3501H9.43581ZM14.9726 9.87215L14.2792 11.4323L13.4001 10.8728L14.9726 9.87215ZM10.6062 10.8728L9.03366 9.87215L9.72705 11.4323L10.6062 10.8728Z" fill="black"/>
</svg>
