<svg width="24" height="24" viewBox="0 0 24 24" fill="none" xmlns="http://www.w3.org/2000/svg">
<path d="M18.9499 17C18.9376 17.4949 18.7425 17.9861 18.3648 18.3638C17.5837 19.1449 16.3174 19.1449 15.5364 18.3638L5.63687 8.46436C4.85582 7.68331 4.85582 6.41698 5.63687 5.63593C6.41792 4.85488 7.68425 4.85488 8.4653 5.63593L16.8292 13.9998H5C3.89543 13.9998 3 13.1044 3 11.9998C3 10.8953 3.89543 9.99985 5 9.99985H19C20.1046 9.99985 21 10.8953 21 11.9998C21 12.5071 20.8112 12.9702 20.5 13.3228M18.365 8.46456L8.4655 18.3641C7.68445 19.1451 6.41812 19.1451 5.63707 18.3641C4.85602 17.583 4.85602 16.3167 5.63707 15.5356L15.5366 5.63614C16.3176 4.85509 17.5839 4.85509 18.365 5.63614C19.146 6.41719 19.146 7.68352 18.365 8.46456ZM14.0008 5V19C14.0008 20.1046 13.1054 21 12.0008 21V21C10.8963 21 10.0008 20.1046 10.0008 19V5C10.0008 3.89543 10.8963 3 12.0008 3V3C13.1054 3 14.0008 3.89543 14.0008 5Z" stroke="black" stroke-width="2" stroke-linecap="round" stroke-linejoin="round"/>
</svg>
