<svg width="24" height="24" viewBox="0 0 24 24" fill="none" xmlns="http://www.w3.org/2000/svg">
<path d="M6.59961 15.6001C6.59961 12.0001 17.3996 12.6001 17.3996 8.4001M6 3C4.34315 3 3 4.34315 3 6V18C3 19.6569 4.34315 21 6 21H18C19.6569 21 21 19.6569 21 18M10 3H18C19.6569 3 21 4.34315 21 6V14M15.5996 17.4001V17.4001C14.6055 17.4001 13.7996 16.5942 13.7996 15.6001V8.4001C13.7996 7.40598 14.6055 6.6001 15.5996 6.6001V6.6001C16.5937 6.6001 17.3996 7.40598 17.3996 8.4001V15.6001C17.3996 16.5942 16.5937 17.4001 15.5996 17.4001ZM10.1996 15.6001V8.4001C10.1996 7.40598 9.39372 6.6001 8.39961 6.6001V6.6001C7.4055 6.6001 6.59961 7.40598 6.59961 8.4001V15.6001C6.59961 16.5942 7.4055 17.4001 8.39961 17.4001V17.4001C9.39372 17.4001 10.1996 16.5942 10.1996 15.6001Z" stroke="black" stroke-width="2" stroke-linecap="round" stroke-linejoin="round"/>
</svg>
