<svg width="24" height="24" viewBox="0 0 24 24" fill="none" xmlns="http://www.w3.org/2000/svg">
<path d="M21 19.5V20C21 20.5523 20.5523 21 20 21H18C17.4477 21 17 20.5523 17 20V18.5C17 18.2239 16.7761 18 16.5 18H7.5C7.22386 18 7 18.2239 7 18.5V20C7 20.5523 6.55228 21 6 21H4C3.44772 21 3 20.5523 3 20V8.5M21 15.5V4C21 3.44772 20.5523 3 20 3H18C17.4477 3 17 3.44772 17 4V5.5C17 5.77614 16.7761 6 16.5 6H7.5C7.22386 6 7 5.77614 7 5.5V4C7 3.44772 6.55228 3 6 3H4C3.44772 3 3 3.44772 3 4V4.5M16 14H8C7.44772 14 7 13.5523 7 13V11C7 10.4477 7.44772 10 8 10H16C16.5523 10 17 10.4477 17 11V13C17 13.5523 16.5523 14 16 14Z" stroke="black" stroke-width="2" stroke-linecap="round" stroke-linejoin="round"/>
</svg>
