<svg width="24" height="24" viewBox="0 0 24 24" fill="none" xmlns="http://www.w3.org/2000/svg">
<path d="M10.7992 11.9999C10.7992 13.9881 9.18744 15.5999 7.19922 15.5999M10.7992 11.9999C10.7992 10.0117 9.18744 8.3999 7.19922 8.3999M10.7992 11.9999H8.99922M10.7992 11.9999H13.1992M13.1992 11.9999C13.1992 13.9881 14.811 15.5999 16.7992 15.5999M13.1992 11.9999C13.1992 10.0117 14.811 8.3999 16.7992 8.3999M13.1992 11.9999H14.9992M6 3C4.34315 3 3 4.34315 3 6V18C3 19.6569 4.34315 21 6 21H18C19.6569 21 21 19.6569 21 18M10 3H18C19.6569 3 21 4.34315 21 6V14" stroke="black" stroke-width="2" stroke-linecap="round" stroke-linejoin="round"/>
</svg>
