<svg width="24" height="24" viewBox="0 0 24 24" fill="none" xmlns="http://www.w3.org/2000/svg">
<path d="M10.7992 11.9999C10.7992 13.9881 9.18744 15.5999 7.19922 15.5999M10.7992 11.9999C10.7992 10.0117 9.18744 8.3999 7.19922 8.3999M10.7992 11.9999H8.99922M10.7992 11.9999H13.1992M13.1992 11.9999C13.1992 13.9881 14.811 15.5999 16.7992 15.5999M13.1992 11.9999C13.1992 10.0117 14.811 8.3999 16.7992 8.3999M13.1992 11.9999H14.9992M12 22C6.47715 22 2 17.5228 2 12M2.81984 8.02815C4.3565 4.48131 7.88848 2 12 2C17.5228 2 22 6.47715 22 12C22 16.1006 19.5318 19.6248 16 21.1679" stroke="black" stroke-width="2" stroke-linecap="round" stroke-linejoin="round"/>
</svg>
