<svg width="24" height="24" viewBox="0 0 24 24" fill="none" xmlns="http://www.w3.org/2000/svg">
<path d="M12 22C6.47715 22 2 17.5228 2 12M6.5 15V12.375M6.5 12.375V9.375C6.5 9.16789 6.64924 9 6.83333 9H9C9.82843 9 10.5 9.75552 10.5 10.6875C10.5 11.6195 9.82843 12.375 9 12.375M6.5 12.375H9M9 12.375L10.5 15M14 15V12.375M14 12.375V9.375C14 9.16789 14.1865 9 14.4167 9H16.125C17.1605 9 18 9.75552 18 10.6875C18 11.6195 17.1605 12.375 16.125 12.375H14ZM2.83209 8C4.3752 4.46819 7.89936 2 12 2C17.5228 2 22 6.47715 22 12C22 16.1006 19.5318 19.6248 16 21.1679" stroke="black" stroke-width="2" stroke-linecap="round" stroke-linejoin="round"/>
</svg>
