<svg width="24" height="24" viewBox="0 0 24 24" fill="none" xmlns="http://www.w3.org/2000/svg">
<path d="M12 11.5C12.0002 7.17876 14.6667 4.32471 16 3.43784M12 11.5C15.2 13.5 15.3426 17.6667 15.014 19.5M12 11.5C8.8 13.5 5.122 12 3.683 11M16 3.43784C18.0761 3.92243 19.8119 4.80928 20.6427 6.09845C21.3984 7.27089 20.8899 9.82882 19.7318 12.5M16 3.43784C13.982 2.96681 11.6424 2.87584 9.5 3.16489M15.014 19.5C13.988 20.4266 12.948 21 12.0002 21C9.05655 21 5.22207 15.4689 3.683 11M15.014 19.5C16.0109 18.5996 16.9946 17.3657 17.8675 16M3.683 11C2.96244 8.90776 2.74501 7.04836 3.3577 6.09845C3.82219 5.3783 4.56912 4.78368 5.5 4.31459" stroke="black" stroke-width="2" stroke-linecap="round" stroke-linejoin="round"/>
</svg>
