<svg width="24" height="24" viewBox="0 0 24 24" fill="none" xmlns="http://www.w3.org/2000/svg">
<path d="M9 13V14M15 13V14M20.9239 16C20.9741 15.7094 21 15.4062 21 15.0903C21 12.9668 19.8577 11.4305 18 10.4516C18.6667 9.043 19.8 5.83186 19 4.25595C18.6667 3.59933 17.6 2.48306 16 3.27101C15.3333 3.59933 14 5.26353 14 9.29371C13.3568 9.21836 12.6874 9.18069 12 9.18069C11.3126 9.18069 10.6432 9.21836 10 9.29371C10 5.26353 8.66667 3.59935 8 3.27104C6.4 2.48308 5.33333 3.59935 5 4.25598C4.85689 4.53789 4.77565 4.87214 4.74253 5.23903M19 19.088C17.35 20.3627 14.8273 21 12 21C7.02944 21 3 19.0301 3 15.0903C3 12.9776 4.15875 11.4314 6 10.4516C5.82166 10.0748 5.60992 9.56899 5.41074 9" stroke="black" stroke-width="2" stroke-linecap="round" stroke-linejoin="round"/>
</svg>
