<svg width="24" height="24" viewBox="0 0 24 24" fill="none" xmlns="http://www.w3.org/2000/svg">
<path d="M7.37998 13.4545C7.58566 13.967 8.1679 14.2158 8.68046 14.0101C9.19302 13.8044 9.4418 13.2222 9.23612 12.7096L7.37998 13.4545ZM12.375 11.1476C12.4996 10.6095 12.1644 10.0724 11.6263 9.94781C11.0882 9.82326 10.5511 10.1585 10.4265 10.6965L12.375 11.1476ZM9.90078 17.4021L8.92654 17.1765C8.82532 17.6138 9.02786 18.065 9.42189 18.2799C9.81592 18.4949 10.3049 18.4209 10.6178 18.0991L9.90078 17.4021ZM15.6008 17.4021C15.6008 16.8498 15.1531 16.4021 14.6008 16.4021C14.0485 16.4021 13.6008 16.8498 13.6008 17.4021H15.6008ZM13.6008 17.4081C13.6008 17.9603 14.0485 18.4081 14.6008 18.4081C15.1531 18.4081 15.6008 17.9603 15.6008 17.4081H13.6008ZM6 4C6.55228 4 7 3.55228 7 3C7 2.44772 6.55228 2 6 2V4ZM22 18C22 17.4477 21.5523 17 21 17C20.4477 17 20 17.4477 20 18H22ZM10 2C9.44772 2 9 2.44772 9 3C9 3.55228 9.44772 4 10 4V2ZM20 14C20 14.5523 20.4477 15 21 15C21.5523 15 22 14.5523 22 14H20ZM15.2008 10.9221C15.2008 12.7824 13.7417 14.2421 12.0008 14.2421V16.2421C14.899 16.2421 17.2008 13.8335 17.2008 10.9221H15.2008ZM8.80078 10.9221C8.80078 9.06172 10.2598 7.60205 12.0008 7.60205V5.60205C9.10253 5.60205 6.80078 8.01064 6.80078 10.9221H8.80078ZM12.0008 7.60205C13.7417 7.60205 15.2008 9.06172 15.2008 10.9221H17.2008C17.2008 8.01064 14.899 5.60205 12.0008 5.60205V7.60205ZM6.80078 10.9221C6.80078 11.9104 7.11625 12.7972 7.37998 13.4545L9.23612 12.7096C8.98991 12.0961 8.80078 11.5075 8.80078 10.9221H6.80078ZM10.4265 10.6965L8.92654 17.1765L10.875 17.6276L12.375 11.1476L10.4265 10.6965ZM10.6178 18.0991C10.8938 17.8152 11.105 17.5075 11.2721 17.2437C11.4694 16.9321 11.5499 16.7794 11.6953 16.5625C11.8195 16.377 11.8978 16.2964 11.9452 16.2608C11.9684 16.2434 11.9719 16.2421 12.0008 16.2421V14.2421C10.9444 14.2421 10.3635 14.9572 10.0339 15.449C9.88802 15.6666 9.69164 16.0012 9.5824 16.1736C9.44287 16.394 9.31782 16.5671 9.18379 16.705L10.6178 18.0991ZM13.6008 17.4021V17.4081H15.6008V17.4021H13.6008ZM18 20H6V22H18V20ZM4 18V6H2V18H4ZM4 6C4 4.89543 4.89543 4 6 4V2C3.79086 2 2 3.79086 2 6H4ZM6 20C4.89543 20 4 19.1046 4 18H2C2 20.2091 3.79086 22 6 22V20ZM20 18C20 19.1046 19.1046 20 18 20V22C20.2091 22 22 20.2091 22 18H20ZM22 6C22 3.79086 20.2091 2 18 2V4C19.1046 4 20 4.89543 20 6H22ZM10 4H18V2H10V4ZM20 6V14H22V6H20Z" fill="black"/>
</svg>
