<svg width="24" height="24" viewBox="0 0 24 24" fill="none" xmlns="http://www.w3.org/2000/svg">
<path d="M20.7662 13.3566C21.9143 11.361 18.626 7.85929 15.4443 6.01582C14.2504 5.3241 12.8476 4.73607 11.5 4.37674M20.7662 13.3566L17.5515 18.9443C17.1808 19.5887 16.4396 19.9076 15.5 19.9825M20.7662 13.3566C20.1406 14.4439 18.4606 14.6044 16.5517 14.2301M6.44849 5.061C5.30039 7.05661 8.58867 10.5583 11.7704 12.4018C13.203 13.2318 14.9572 13.9175 16.5517 14.2301M6.44849 5.061L3.23381 10.6487C2.65976 11.6465 3.19481 13.0208 4.27108 14.3761M6.44849 5.061C6.67494 4.6674 7.03823 4.39449 7.5 4.22412M4.27108 14.3761C5.34735 15.7315 6.96484 17.0677 8.5557 17.9895C9.45076 18.5081 10.4713 18.9703 11.5 19.3204M4.27108 14.3761C5.84972 11.6322 8.8018 13.8748 10.3927 14.7965C12.3017 15.9026 15.1652 17.5617 16.5517 14.2301M15.9936 10.5914C15.7066 11.0903 14.1974 10.615 13.1481 10.007C12.0875 9.39255 10.934 8.3251 11.2211 7.8262C11.5081 7.32729 13.006 7.79606 14.0666 8.41055C15.1272 9.02504 16.2806 10.0925 15.9936 10.5914Z" stroke="black" stroke-width="2" stroke-linecap="round" stroke-linejoin="round"/>
</svg>
