<svg width="24" height="24" viewBox="0 0 24 24" fill="none" xmlns="http://www.w3.org/2000/svg">
<path d="M6 10C4.15875 10.6409 3 11.4634 3 12.5C3 14.433 7.02944 16 12 16C13.6393 16 15.1762 15.8296 16.5 15.5318M18 10C19.8412 10.6409 21 11.4634 21 12.5C21 13.0368 20.6893 13.5454 20.1339 14M7 3H6C5.44772 3 5 3.44772 5 4V6C5 6.55228 5.44772 7 6 7H9C9.55228 7 10 7.44772 10 8V20C10 20.5523 10.4477 21 11 21H13C13.5523 21 14 20.5523 14 20V8C14 7.44772 14.4477 7 15 7H18C18.5523 7 19 6.55228 19 6V4C19 3.44772 18.5523 3 18 3H11" stroke="black" stroke-width="2" stroke-linecap="round" stroke-linejoin="round"/>
</svg>
