<svg width="24" height="24" viewBox="0 0 24 24" fill="none" xmlns="http://www.w3.org/2000/svg">
<path d="M12 22C6.47715 22 2 17.5228 2 12M2.81984 8.02815C4.3565 4.48131 7.88848 2 12 2C17.5228 2 22 6.47715 22 12C22 16.1006 19.5318 19.6248 16 21.1679M17.3996 8.7001C17.3996 7.5403 16.4594 6.6001 15.2996 6.6001C14.1398 6.6001 13.1996 7.5403 13.1996 8.7001C13.1996 9.8599 14.1398 10.8001 15.2996 10.8001C16.4594 10.8001 17.3996 9.8599 17.3996 8.7001ZM7.49961 10.2001H7.79961C8.13098 10.2001 8.39961 10.4687 8.39961 10.8001V16.5001C8.39961 16.9972 8.80255 17.4001 9.29961 17.4001H10.4996C10.9967 17.4001 11.3996 16.9972 11.3996 16.5001V7.5001C11.3996 7.00304 10.9967 6.6001 10.4996 6.6001H7.49961C7.00255 6.6001 6.59961 7.00304 6.59961 7.5001V9.3001C6.59961 9.79715 7.00255 10.2001 7.49961 10.2001Z" stroke="black" stroke-width="2" stroke-linecap="round" stroke-linejoin="round"/>
</svg>
