<svg width="24" height="24" viewBox="0 0 24 24" fill="none" xmlns="http://www.w3.org/2000/svg">
<path d="M6 3C4.34315 3 3 4.34315 3 6V18C3 19.6569 4.34315 21 6 21H18C19.6569 21 21 19.6569 21 18M10 3H18C19.6569 3 21 4.34315 21 6V14M17.3996 8.7001C17.3996 7.5403 16.4594 6.6001 15.2996 6.6001C14.1398 6.6001 13.1996 7.5403 13.1996 8.7001C13.1996 9.8599 14.1398 10.8001 15.2996 10.8001C16.4594 10.8001 17.3996 9.8599 17.3996 8.7001ZM7.49961 10.2001H7.79961C8.13098 10.2001 8.39961 10.4687 8.39961 10.8001V16.5001C8.39961 16.9972 8.80255 17.4001 9.29961 17.4001H10.4996C10.9967 17.4001 11.3996 16.9972 11.3996 16.5001V7.5001C11.3996 7.00304 10.9967 6.6001 10.4996 6.6001H7.49961C7.00255 6.6001 6.59961 7.00304 6.59961 7.5001V9.3001C6.59961 9.79715 7.00255 10.2001 7.49961 10.2001Z" stroke="black" stroke-width="2" stroke-linecap="round" stroke-linejoin="round"/>
</svg>
