<svg width="24" height="24" viewBox="0 0 24 24" fill="none" xmlns="http://www.w3.org/2000/svg">
<path d="M17.3996 7.6001L14.0731 17.5796C13.9098 18.0696 13.4512 18.4001 12.9347 18.4001H11.6205C11.1256 18.4001 10.6815 18.0963 10.5021 17.635L6.91751 8.41757C6.76455 8.02424 7.0547 7.6001 7.47672 7.6001H8.77873C9.27363 7.6001 9.71776 7.90392 9.89713 8.36516L13.5663 17.8001M12 22C6.47715 22 2 17.5228 2 12M2.81984 8.02815C4.3565 4.48131 7.88848 2 12 2C17.5228 2 22 6.47715 22 12C22 16.1006 19.5318 19.6248 16 21.1679" stroke="black" stroke-width="2" stroke-linecap="round" stroke-linejoin="round"/>
</svg>
