<svg width="24" height="24" viewBox="0 0 24 24" fill="none" xmlns="http://www.w3.org/2000/svg">
<path d="M19.9989 20L20.1453 20.1463C20.4606 20.4612 20.2375 21 19.7919 21H16.8284C16.298 21 15.7893 20.7893 15.4142 20.4142L12.7071 17.7071C12.3166 17.3166 11.6834 17.3166 11.2929 17.7071L8.58579 20.4142C8.21071 20.7893 7.70201 21 7.17157 21H4.20806C3.76247 21 3.53945 20.4612 3.8547 20.1463L9.17315 14.8337C10.7349 13.2737 13.2651 13.2737 14.8269 14.8337L16.9956 17M4 4L3.85355 3.85355C3.53857 3.53857 3.76165 3 4.20711 3H7.17157C7.70201 3 8.21071 3.21071 8.58579 3.58579L11.2929 6.29289C11.6834 6.68342 12.3166 6.68342 12.7071 6.29289L15.4142 3.58579C15.7893 3.21071 16.298 3 16.8284 3H19.7929C20.2383 3 20.4614 3.53857 20.1464 3.85355L14.8284 9.17157C13.2663 10.7337 10.7337 10.7337 9.17157 9.17157L7 7" stroke="black" stroke-width="2" stroke-linecap="round" stroke-linejoin="round"/>
</svg>
