<svg width="24" height="24" viewBox="0 0 24 24" fill="none" xmlns="http://www.w3.org/2000/svg">
<path fill-rule="evenodd" clip-rule="evenodd" d="M19.8284 13.8284C21.3905 12.2663 21.3905 9.73367 19.8284 8.17157C18.2663 6.60948 15.7337 6.60948 14.1716 8.17157C12.6095 9.73367 12.6095 12.2663 14.1716 13.8284C15.7337 15.3905 18.2663 15.3905 19.8284 13.8284ZM18.9445 10.1161C19.2374 9.82322 19.2374 9.34835 18.9445 9.05546C18.6516 8.76256 18.1768 8.76256 17.8839 9.05546L17 9.93934L16.1161 9.05546C15.8232 8.76256 15.3483 8.76256 15.0555 9.05546C14.7626 9.34835 14.7626 9.82322 15.0555 10.1161L15.9393 11L15.0555 11.8839C14.7626 12.1768 14.7626 12.6516 15.0555 12.9445C15.3483 13.2374 15.8232 13.2374 16.1161 12.9445L17 12.0607L17.8839 12.9445C18.1768 13.2374 18.6516 13.2374 18.9445 12.9445C19.2374 12.6516 19.2374 12.1768 18.9445 11.8839L18.0607 11L18.9445 10.1161Z" fill="#667085"/>
<path fill-rule="evenodd" clip-rule="evenodd" d="M4 5C4 4.44772 4.44772 4 5 4H19C19.5523 4 20 4.44772 20 5V5.6202C20 5.67986 19.9973 5.73922 19.9921 5.79812C20.6336 6.16793 21.2003 6.65301 21.6639 7.22506C21.8831 6.72476 22 6.17916 22 5.6202V5C22 3.34315 20.6568 2 19 2H5C3.34315 2 2 3.34315 2 5V5.6202C2 6.7879 2.51025 7.89729 3.39683 8.65722L8.30158 12.8613C8.74487 13.2413 9 13.796 9 14.3798L9 20.191C9 21.3061 10.1735 22.0313 11.1708 21.5326L13.3416 20.4472C14.358 19.939 15 18.9002 15 17.7639V16.6586C14.2548 16.3952 13.5771 15.9887 13 15.4722V17.7639C13 18.1427 12.786 18.489 12.4472 18.6584L11 19.382V14.3798C11 13.2121 10.4897 12.1027 9.60317 11.3428L4.69842 7.13871C4.25513 6.75874 4 6.20405 4 5.6202V5Z" fill="black"/>
</svg>
