<svg width="24" height="24" viewBox="0 0 24 24" fill="none" xmlns="http://www.w3.org/2000/svg">
<path d="M11.9996 6.51618L20.9995 6.5M11.9995 17.4943H3" stroke="black" stroke-width="2" stroke-linecap="round" stroke-linejoin="round"/>
<path d="M21.0006 16.9998L21.0007 17.9998C21.0008 19.1045 20.1053 20 19.0007 20H18.0009C16.8963 20 16.0009 19.1045 16.0009 18L16.0008 17.0004C16.0006 15.8957 16.8961 15 18.0008 15H19.0006C20.1051 15 21.0005 15.8953 21.0006 16.9998Z" stroke="#667085" stroke-width="2" stroke-linecap="round" stroke-linejoin="round"/>
<path d="M7.99999 7V6C7.99999 4.89543 7.10456 4 5.99999 4L5 4C3.89543 4 3 4.89543 3 6L3 7C3 8.10457 3.89543 9 5 9H5.99999C7.10456 9 7.99999 8.10457 7.99999 7Z" stroke="#667085" stroke-width="2" stroke-linecap="round" stroke-linejoin="round"/>
</svg>
