<svg width="24" height="24" viewBox="0 0 24 24" fill="none" xmlns="http://www.w3.org/2000/svg">
<path fill-rule="evenodd" clip-rule="evenodd" d="M6.64553 1C4.27841 0.999969 2.84371 3.6131 4.1143 5.61031L8.69012 12.8029C8.89342 13.1225 9.00181 13.4932 9.00265 13.8719L9.01893 21.1507C9.02148 22.2958 10.2544 23.0158 11.253 22.4554L13.4523 21.2212C14.3957 20.6918 14.9809 19.6956 14.9841 18.6139L14.9929 15.6558C14.2488 15.3916 13.5724 14.9848 12.9964 14.4683L12.9841 18.6079C12.9831 18.9685 12.788 19.3006 12.4735 19.4771L11.017 20.2944L11.0026 13.8675C11.001 13.11 10.7842 12.3685 10.3776 11.7293L5.80176 4.53677C5.37823 3.87103 5.85647 2.99999 6.6455 3L17.3574 3.00014C17.9999 3.00015 18.4363 3.57774 18.3475 4.15171C19.0193 4.30578 19.648 4.57261 20.2127 4.93121C20.8312 3.06848 19.4634 1.00017 17.3574 1.00014L6.64553 1Z" fill="black"/>
<path fill-rule="evenodd" clip-rule="evenodd" d="M21 10C21 7.79086 19.2091 6 17 6C14.7909 6 13 7.79086 13 10C13 12.2091 14.7909 14 17 14C19.2091 14 21 12.2091 21 10ZM17.75 8C17.75 7.58579 17.4142 7.25 17 7.25C16.5858 7.25 16.25 7.58579 16.25 8V9.25H15C14.5858 9.25 14.25 9.58579 14.25 10C14.25 10.4142 14.5858 10.75 15 10.75H16.25V12C16.25 12.4142 16.5858 12.75 17 12.75C17.4142 12.75 17.75 12.4142 17.75 12V10.75H19C19.4142 10.75 19.75 10.4142 19.75 10C19.75 9.58579 19.4142 9.25 19 9.25H17.75V8Z" fill="#667085"/>
</svg>
