<svg width="24" height="24" viewBox="0 0 24 24" fill="none" xmlns="http://www.w3.org/2000/svg">
<path d="M18 3H6C4.34315 3 3 4.34315 3 6V18C3 19.6569 4.34315 21 6 21H18C19.6569 21 21 19.6569 21 18V6C21 4.34315 19.6569 3 18 3Z" stroke="#667085" stroke-width="2" stroke-linecap="round" stroke-linejoin="round"/>
<path d="M9 7.5H17M7 12H15M9 16.5H17" stroke="black" stroke-width="2" stroke-linecap="round" stroke-linejoin="round"/>
<path d="M10 7.5C10 8.60457 9.10457 9.5 8 9.5C6.89543 9.5 6 8.60457 6 7.5C6 6.39543 6.89543 5.5 8 5.5C9.10457 5.5 10 6.39543 10 7.5Z" fill="black"/>
<path d="M18 12C18 13.1046 17.1046 14 16 14C14.8954 14 14 13.1046 14 12C14 10.8954 14.8954 10 16 10C17.1046 10 18 10.8954 18 12Z" fill="black"/>
<path d="M10 16.5C10 17.6046 9.10457 18.5 8 18.5C6.89543 18.5 6 17.6046 6 16.5C6 15.3954 6.89543 14.5 8 14.5C9.10457 14.5 10 15.3954 10 16.5Z" fill="black"/>
</svg>
