<svg width="24" height="24" viewBox="0 0 24 24" fill="none" xmlns="http://www.w3.org/2000/svg">
<path d="M13.25 14.875V14.25C13.25 13.5596 13.8096 13 14.5 13L15.75 13C16.4404 13 17 13.5596 17 14.25V15.5C17 16.1904 16.4404 16.75 15.75 16.75H14.5C13.8096 16.75 13.25 16.1904 13.25 15.5V14.875ZM13.25 14.875H7M10.75 9.125V9.75C10.75 10.4404 10.1904 11 9.5 11H8.25C7.55964 11 7 10.4404 7 9.75L7 8.5C7 7.80964 7.55964 7.25 8.25 7.25L9.5 7.25C10.1904 7.25 10.75 7.80964 10.75 8.5V9.125ZM10.75 9.125L17 9.125" stroke="black" stroke-width="2" stroke-linecap="round" stroke-linejoin="round"/>
<path d="M22 12C22 6.47715 17.5228 2 12 2C6.47715 2 2 6.47715 2 12C2 17.5228 6.47715 22 12 22C17.5228 22 22 17.5228 22 12Z" stroke="#667085" stroke-width="2" stroke-linecap="round" stroke-linejoin="round"/>
</svg>
