<svg width="24" height="24" viewBox="0 0 24 24" fill="none" xmlns="http://www.w3.org/2000/svg">
<path fill-rule="evenodd" clip-rule="evenodd" d="M6.64553 1C4.27841 0.999969 2.84371 3.6131 4.1143 5.61031L8.69012 12.8029C8.89342 13.1225 9.00181 13.4932 9.00265 13.8719L9.01893 21.1507C9.02148 22.2958 10.2544 23.0158 11.253 22.4554L13.4523 21.2212C14.3957 20.6918 14.9809 19.6956 14.9841 18.6139L14.9929 15.6558C14.2488 15.3916 13.5724 14.9848 12.9964 14.4683L12.9841 18.6079C12.9831 18.9685 12.788 19.3006 12.4735 19.4771L11.017 20.2944L11.0026 13.8675C11.001 13.11 10.7842 12.3685 10.3776 11.7293L5.80176 4.53677C5.37823 3.87103 5.85647 2.99999 6.6455 3L17.3574 3.00014C17.9999 3.00015 18.4363 3.57774 18.3475 4.15171C19.0193 4.30578 19.648 4.57261 20.2127 4.93121C20.8312 3.06848 19.4634 1.00017 17.3574 1.00014L6.64553 1Z" fill="black"/>
<path fill-rule="evenodd" clip-rule="evenodd" d="M19.8284 12.8284C21.3905 11.2663 21.3905 8.73367 19.8284 7.17157C18.2663 5.60948 15.7337 5.60948 14.1716 7.17157C12.6095 8.73367 12.6095 11.2663 14.1716 12.8284C15.7337 14.3905 18.2663 14.3905 19.8284 12.8284ZM18.9445 9.11612C19.2374 8.82322 19.2374 8.34835 18.9445 8.05546C18.6516 7.76256 18.1768 7.76256 17.8839 8.05546L17 8.93934L16.1161 8.05546C15.8232 7.76256 15.3483 7.76256 15.0555 8.05546C14.7626 8.34835 14.7626 8.82322 15.0555 9.11612L15.9393 10L15.0555 10.8839C14.7626 11.1768 14.7626 11.6516 15.0555 11.9445C15.3483 12.2374 15.8232 12.2374 16.1161 11.9445L17 11.0607L17.8839 11.9445C18.1768 12.2374 18.6516 12.2374 18.9445 11.9445C19.2374 11.6516 19.2374 11.1768 18.9445 10.8839L18.0607 10L18.9445 9.11612Z" fill="#667085"/>
</svg>
