<svg width="24" height="24" viewBox="0 0 24 24" fill="none" xmlns="http://www.w3.org/2000/svg">
<path fill-rule="evenodd" clip-rule="evenodd" d="M4 5C4 4.44772 4.44772 4 5 4H10H15C15.5523 4 16 4.44771 16 5V5.91385C16 6.30441 15.8857 6.68465 15.6737 7.00872C15.7817 7.00293 15.8905 7 16 7C16.6144 7 17.2072 7.09234 17.7653 7.26389C17.9194 6.83394 18 6.37753 18 5.91385V5C18 4.64936 17.9398 4.31278 17.8293 4H19C19.5523 4 20 4.44772 20 5V7C20 7.55228 20.4477 8 21 8C21.5523 8 22 7.55228 22 7V5C22 3.34315 20.6569 2 19 2H15H10H5C3.34315 2 2 3.34315 2 5V5.91385C2 6.8496 2.32806 7.75573 2.92711 8.47459L6.53644 12.8058C6.83597 13.1652 7 13.6183 7 14.0862L7 20.191C7 21.3061 8.17347 22.0313 9.17082 21.5326L11.3416 20.4472C12.2322 20.0019 12.8354 19.1492 12.971 18.1804C12.1807 17.7174 11.5059 17.0786 11 16.3178V17.7639C11 18.1427 10.786 18.489 10.4472 18.6584L9 19.382L9 14.0861C9 13.1504 8.67194 12.2443 8.07289 11.5254L4.46356 7.19422C4.16403 6.83479 4 6.38172 4 5.91385V5Z" fill="black"/>
<path fill-rule="evenodd" clip-rule="evenodd" d="M20 13C20 10.7909 18.2091 9 16 9C13.7909 9 12 10.7909 12 13C12 15.2091 13.7909 17 16 17C18.2091 17 20 15.2091 20 13ZM16.75 11C16.75 10.5858 16.4142 10.25 16 10.25C15.5858 10.25 15.25 10.5858 15.25 11V12.25H14C13.5858 12.25 13.25 12.5858 13.25 13C13.25 13.4142 13.5858 13.75 14 13.75H15.25V15C15.25 15.4142 15.5858 15.75 16 15.75C16.4142 15.75 16.75 15.4142 16.75 15V13.75H18C18.4142 13.75 18.75 13.4142 18.75 13C18.75 12.5858 18.4142 12.25 18 12.25H16.75V11Z" fill="#667085"/>
</svg>
