<svg width="24" height="24" viewBox="0 0 24 24" fill="none" xmlns="http://www.w3.org/2000/svg">
<path d="M6.50586 16.0005V3.00049M17.5001 8.00003V21" stroke="black" stroke-width="2" stroke-linecap="round" stroke-linejoin="round"/>
<path d="M7.00017 21.0001L6.00017 21.0002C4.89554 21.0003 4 20.1049 4 19.0002V18.0004C4 16.8959 4.89545 16.0004 6.00004 16.0004L6.50571 16.0004L6.99962 16.0004C8.10434 16.0001 9 16.8956 9 18.0004V19.0001C9 20.1046 8.10468 21 7.00017 21.0001Z" stroke="#667085" stroke-width="2" stroke-linecap="round" stroke-linejoin="round"/>
<path d="M17 7.9995H18C19.1046 7.9995 20 7.10407 20 5.9995V4.99951C20 3.89494 19.1046 2.99951 18 2.99951H17C15.8954 2.99951 15 3.89494 15 4.99951V5.9995C15 7.10407 15.8954 7.9995 17 7.9995Z" stroke="#667085" stroke-width="2" stroke-linecap="round" stroke-linejoin="round"/>
</svg>
