<svg width="24" height="24" viewBox="0 0 24 24" fill="none" xmlns="http://www.w3.org/2000/svg">
<path d="M7.99953 17.4943H20.9995M16 6.5L3 6.5" stroke="black" stroke-width="2" stroke-linecap="round" stroke-linejoin="round"/>
<path d="M3.00009 16.9998L3 17.9998C2.9999 19.1045 3.89536 20 5 20H5.99977C7.10436 20 7.99979 19.1045 7.99977 18L7.99977 17.4943L7.99986 17.0004C8.00007 15.8957 7.10458 15 5.99986 15H5.00009C3.89559 15 3.00018 15.8953 3.00009 16.9998Z" stroke="#667085" stroke-width="2" stroke-linecap="round" stroke-linejoin="round"/>
<path d="M16.0007 7V6C16.0007 4.89543 16.8961 4 18.0007 4L19.0007 4C20.1053 4 21.0007 4.89543 21.0007 6V7C21.0007 8.10457 20.1053 9 19.0007 9H18.0007C16.8961 9 16.0007 8.10457 16.0007 7Z" stroke="#667085" stroke-width="2" stroke-linecap="round" stroke-linejoin="round"/>
</svg>
