<svg width="24" height="24" viewBox="0 0 24 24" fill="none" xmlns="http://www.w3.org/2000/svg">
<path fill-rule="evenodd" clip-rule="evenodd" d="M4 5C4 4.44772 4.44772 4 5 4H10H15C15.5523 4 16 4.44771 16 5V5.91385C16 6.30441 15.8857 6.68465 15.6737 7.00872C15.7817 7.00293 15.8905 7 16 7C16.6144 7 17.2072 7.09234 17.7653 7.26389C17.9194 6.83394 18 6.37753 18 5.91385V5C18 4.64936 17.9398 4.31278 17.8293 4H19C19.5523 4 20 4.44772 20 5V7C20 7.55228 20.4477 8 21 8C21.5523 8 22 7.55228 22 7V5C22 3.34315 20.6569 2 19 2H15H10H5C3.34315 2 2 3.34315 2 5V5.91385C2 6.8496 2.32806 7.75573 2.92711 8.47459L6.53644 12.8058C6.83597 13.1652 7 13.6183 7 14.0862L7 20.191C7 21.3061 8.17347 22.0313 9.17082 21.5326L11.3416 20.4472C12.2322 20.0019 12.8354 19.1492 12.971 18.1804C12.1807 17.7174 11.5059 17.0786 11 16.3178V17.7639C11 18.1427 10.786 18.489 10.4472 18.6584L9 19.382L9 14.0861C9 13.1504 8.67194 12.2443 8.07289 11.5254L4.46356 7.19422C4.16403 6.83479 4 6.38172 4 5.91385V5Z" fill="black"/>
<path d="M16.7324 10.5987C16.4931 10.3593 16.3734 10.2397 16.3734 10.091C16.3734 9.94231 16.4931 9.82265 16.7324 9.58333L16.8268 9.48896C16.8848 9.43097 16.9138 9.40197 16.9394 9.37864C17.4948 8.87379 18.343 8.87379 18.8984 9.37864C18.924 9.40197 18.953 9.43096 19.011 9.48895C19.069 9.5469 19.098 9.57597 19.1214 9.60163C19.6262 10.157 19.6262 11.0052 19.1214 11.5606C19.098 11.5862 19.069 11.6153 19.011 11.6732L18.9167 11.7676C18.6774 12.0069 18.5577 12.1266 18.409 12.1266C18.2603 12.1266 18.1407 12.0069 17.9013 11.7676L16.7324 10.5987Z" fill="#667085"/>
<path d="M16.2247 11.1063C15.9854 10.867 15.8658 10.7474 15.7171 10.7474C15.5684 10.7474 15.4487 10.867 15.2094 11.1063L14.2235 12.0922C13.97 12.3483 14.1265 12.1892 13.8008 12.6832C13.4751 13.1771 13.2539 13.7302 12.8114 14.8364L12.748 14.9949C12.5322 15.5344 12.4243 15.8041 12.5601 15.9399C12.6959 16.0757 12.9656 15.9678 13.5051 15.752L13.6636 15.6886C14.7698 15.2461 15.3229 15.0249 15.8168 14.6992C16.3108 14.3735 16.1517 14.53 16.4078 14.2765L17.3937 13.2906C17.633 13.0513 17.7526 12.9316 17.7526 12.7829C17.7526 12.6342 17.633 12.5146 17.3937 12.2753L16.2247 11.1063Z" fill="#667085"/>
</svg>
