<svg width="24" height="24" viewBox="0 0 24 24" fill="none" xmlns="http://www.w3.org/2000/svg">
<path d="M17.9824 9.09867C17.7431 8.85935 17.6234 8.73969 17.6234 8.591C17.6234 8.44231 17.7431 8.32265 17.9824 8.08333L18.0768 7.98896C18.1348 7.93097 18.1638 7.90197 18.1894 7.87864C18.7448 7.37379 19.593 7.37379 20.1484 7.87864C20.174 7.90197 20.203 7.93096 20.261 7.98895C20.319 8.0469 20.348 8.07597 20.3714 8.10163C20.8762 8.65703 20.8762 9.50517 20.3714 10.0606C20.348 10.0862 20.319 10.1153 20.261 10.1732L20.1667 10.2676C19.9274 10.5069 19.8077 10.6266 19.659 10.6266C19.5103 10.6266 19.3907 10.5069 19.1513 10.2676L17.9824 9.09867Z" fill="#667085"/>
<path d="M17.4747 9.60633C17.2354 9.36702 17.1158 9.24736 16.9671 9.24736C16.8184 9.24736 16.6987 9.36702 16.4594 9.60633L15.4735 10.5922C15.22 10.8483 15.3765 10.6892 15.0508 11.1832C14.7251 11.6771 14.5039 12.2302 14.0614 13.3364L13.998 13.4949C13.7822 14.0344 13.6743 14.3041 13.8101 14.4399C13.9459 14.5757 14.2156 14.4678 14.7551 14.252L14.9136 14.1886C16.0198 13.7461 16.5729 13.5249 17.0668 13.1992C17.5608 12.8735 17.4017 13.03 17.6578 12.7765L18.6437 11.7906C18.883 11.5513 19.0026 11.4316 19.0026 11.2829C19.0026 11.1342 18.883 11.0146 18.6437 10.7753L17.4747 9.60633Z" fill="#667085"/>
<path fill-rule="evenodd" clip-rule="evenodd" d="M4 5C4 4.44772 4.44772 4 5 4H19C19.5523 4 20 4.44772 20 5V5.6202C20 5.67986 19.9973 5.73922 19.9921 5.79812C20.6336 6.16793 21.2003 6.65301 21.6639 7.22506C21.8831 6.72476 22 6.17916 22 5.6202V5C22 3.34315 20.6568 2 19 2H5C3.34315 2 2 3.34315 2 5V5.6202C2 6.7879 2.51025 7.89729 3.39683 8.65722L7.95237 12.562C8.61731 13.1319 9 13.964 9 14.8397L9 20.191C9 21.3061 10.1735 22.0313 11.1708 21.5326L13.3416 20.4472C14.358 19.939 15 18.9002 15 17.7639V16.6586C14.2548 16.3952 13.5771 15.9887 13 15.4722V17.7639C13 18.1427 12.786 18.489 12.4472 18.6584L11 19.382V14.8397C11 13.3801 10.3622 11.9934 9.25396 11.0435L4.69842 7.13871C4.25513 6.75874 4 6.20405 4 5.6202V5Z" fill="black"/>
</svg>
