<svg width="24" height="24" viewBox="0 0 24 24" fill="none" xmlns="http://www.w3.org/2000/svg">
<path fill-rule="evenodd" clip-rule="evenodd" d="M21 11C21 8.79086 19.2091 7 17 7C14.7909 7 13 8.79086 13 11C13 13.2091 14.7909 15 17 15C19.2091 15 21 13.2091 21 11ZM17.75 9C17.75 8.58579 17.4142 8.25 17 8.25C16.5858 8.25 16.25 8.58579 16.25 9V10.25H15C14.5858 10.25 14.25 10.5858 14.25 11C14.25 11.4142 14.5858 11.75 15 11.75H16.25V13C16.25 13.4142 16.5858 13.75 17 13.75C17.4142 13.75 17.75 13.4142 17.75 13V11.75H19C19.4142 11.75 19.75 11.4142 19.75 11C19.75 10.5858 19.4142 10.25 19 10.25H17.75V9Z" fill="#667085"/>
<path fill-rule="evenodd" clip-rule="evenodd" d="M4 5C4 4.44772 4.44772 4 5 4H19C19.5523 4 20 4.44772 20 5V5.6202C20 5.67986 19.9973 5.73922 19.9921 5.79812C20.6336 6.16793 21.2003 6.65301 21.6639 7.22506C21.8831 6.72476 22 6.17916 22 5.6202V5C22 3.34315 20.6568 2 19 2H5C3.34315 2 2 3.34315 2 5V5.6202C2 6.7879 2.51025 7.89729 3.39683 8.65722L8.30158 12.8613C8.74487 13.2413 9 13.796 9 14.3798L9 20.191C9 21.3061 10.1735 22.0313 11.1708 21.5326L13.3416 20.4472C14.358 19.939 15 18.9002 15 17.7639V16.6586C14.2548 16.3952 13.5771 15.9887 13 15.4722V17.7639C13 18.1427 12.786 18.489 12.4472 18.6584L11 19.382V14.3798C11 13.2121 10.4897 12.1027 9.60317 11.3428L4.69842 7.13871C4.25513 6.75874 4 6.20405 4 5.6202V5Z" fill="black"/>
</svg>
