<svg width="24" height="24" viewBox="0 0 24 24" fill="none" xmlns="http://www.w3.org/2000/svg">
<path fill-rule="evenodd" clip-rule="evenodd" d="M6.64553 1C4.27841 0.999969 2.84371 3.6131 4.1143 5.61031L8.69012 12.8029C8.89342 13.1225 9.00181 13.4932 9.00265 13.8719L9.01893 21.1507C9.02148 22.2958 10.2544 23.0158 11.253 22.4554L13.4523 21.2212C14.3957 20.6918 14.9809 19.6956 14.9841 18.6139L14.9929 15.6558C14.2488 15.3916 13.5724 14.9848 12.9964 14.4683L12.9841 18.6079C12.9831 18.9685 12.788 19.3006 12.4735 19.4771L11.017 20.2944L11.0026 13.8675C11.001 13.11 10.7842 12.3685 10.3776 11.7293L5.80176 4.53677C5.37823 3.87103 5.85647 2.99999 6.6455 3L17.3574 3.00014C17.9999 3.00015 18.4363 3.57774 18.3475 4.15171C19.0193 4.30578 19.648 4.57261 20.2127 4.93121C20.8312 3.06848 19.4634 1.00017 17.3574 1.00014L6.64553 1Z" fill="black"/>
<path d="M17.7324 7.84867C17.4931 7.60935 17.3734 7.48969 17.3734 7.341C17.3734 7.19231 17.4931 7.07265 17.7324 6.83333L17.8268 6.73896C17.8848 6.68097 17.9138 6.65197 17.9394 6.62864C18.4948 6.12379 19.343 6.12379 19.8984 6.62864C19.924 6.65197 19.953 6.68096 20.011 6.73895C20.069 6.7969 20.098 6.82597 20.1214 6.85163C20.6262 7.40703 20.6262 8.25517 20.1214 8.81057C20.098 8.83624 20.069 8.86526 20.011 8.92323L19.9167 9.0176C19.6774 9.25692 19.5577 9.37658 19.409 9.37658C19.2603 9.37658 19.1407 9.25692 18.9013 9.0176L17.7324 7.84867Z" fill="#667085"/>
<path d="M17.2247 8.35633C16.9854 8.11702 16.8658 7.99736 16.7171 7.99736C16.5684 7.99736 16.4487 8.11702 16.2094 8.35633L15.2235 9.34218C14.97 9.59833 15.1265 9.43925 14.8008 9.93315C14.4751 10.4271 14.2539 10.9802 13.8114 12.0864L13.748 12.2449C13.5322 12.7844 13.4243 13.0541 13.5601 13.1899C13.6959 13.3257 13.9656 13.2178 14.5051 13.002L14.6636 12.9386C15.7698 12.4961 16.3229 12.2749 16.8168 11.9492C17.3108 11.6235 17.1517 11.78 17.4078 11.5265L18.3937 10.5406C18.633 10.3013 18.7526 10.1816 18.7526 10.0329C18.7526 9.88424 18.633 9.76458 18.3937 9.52527L17.2247 8.35633Z" fill="#667085"/>
</svg>
