<svg width="24" height="24" viewBox="0 0 24 24" fill="none" xmlns="http://www.w3.org/2000/svg">
<path fill-rule="evenodd" clip-rule="evenodd" d="M5.19461 4.41367C4.89377 3.75158 5.37782 2.99999 6.10505 3L9.99853 3.00007L13.8916 3.00013C14.6189 3.00014 15.1029 3.75185 14.8019 4.41394L13.3066 7.70348C14.0543 7.28278 14.9101 7.03181 15.8221 7.00282L16.6227 5.24157C16.9656 4.48711 16.9688 3.69386 16.7213 3.00014L18.9976 3.00016C19.5498 3.00017 19.9976 3.44788 19.9976 4.00016V5.99995C19.9976 6.55223 20.4453 6.99995 20.9976 6.99995C21.5498 6.99995 21.9976 6.55223 21.9976 5.99995V4.00016C21.9976 2.34332 20.6544 1.00018 18.9976 1.00016L9.99856 1.00007L6.10508 1C3.92339 0.999964 2.47125 3.25473 3.37375 5.241L6.81986 12.8254C6.9373 13.0839 6.99836 13.3644 6.999 13.6483L7.01577 21.1507C7.01833 22.2957 8.25125 23.0158 9.24985 22.4554L11.4492 21.2212C12.3925 20.6918 12.9778 19.6956 12.981 18.6138L12.9854 17.101C12.1204 16.5331 11.4251 15.7277 10.9923 14.7777L10.981 18.6079C10.9799 18.9685 10.7848 19.3006 10.4704 19.4771L9.01386 20.2944L8.99899 13.6438C8.99772 13.076 8.87559 12.515 8.64071 11.9981L5.19461 4.41367Z" fill="black"/>
<path d="M16.7324 9.59867C16.4931 9.35935 16.3734 9.23969 16.3734 9.091C16.3734 8.94231 16.4931 8.82265 16.7324 8.58333L16.8268 8.48896C16.8848 8.43097 16.9138 8.40197 16.9394 8.37864C17.4948 7.87379 18.343 7.87379 18.8984 8.37864C18.924 8.40197 18.953 8.43096 19.011 8.48895C19.069 8.5469 19.098 8.57597 19.1214 8.60163C19.6262 9.15703 19.6262 10.0052 19.1214 10.5606C19.098 10.5862 19.069 10.6153 19.011 10.6732L18.9167 10.7676C18.6774 11.0069 18.5577 11.1266 18.409 11.1266C18.2603 11.1266 18.1407 11.0069 17.9013 10.7676L16.7324 9.59867Z" fill="#667085"/>
<path d="M16.2247 10.1063C15.9854 9.86702 15.8658 9.74736 15.7171 9.74736C15.5684 9.74736 15.4487 9.86702 15.2094 10.1063L14.2235 11.0922C13.97 11.3483 14.1265 11.1892 13.8008 11.6832C13.4751 12.1771 13.2539 12.7302 12.8114 13.8364L12.748 13.9949C12.5322 14.5344 12.4243 14.8041 12.5601 14.9399C12.6959 15.0757 12.9656 14.9678 13.5051 14.752L13.6636 14.6886C14.7698 14.2461 15.3229 14.0249 15.8168 13.6992C16.3108 13.3735 16.1517 13.53 16.4078 13.2765L17.3937 12.2906C17.633 12.0513 17.7526 11.9316 17.7526 11.7829C17.7526 11.6342 17.633 11.5146 17.3937 11.2753L16.2247 10.1063Z" fill="#667085"/>
</svg>
