<svg width="24" height="24" viewBox="0 0 24 24" fill="none" xmlns="http://www.w3.org/2000/svg">
<path d="M15 10.7495H14.375C13.6846 10.7495 13.125 10.1899 13.125 9.49951V8.24951C13.125 7.55916 13.6846 6.99951 14.375 6.99951H15.625C16.3154 6.99951 16.875 7.55916 16.875 8.24951V9.49951C16.875 10.1899 16.3154 10.7495 15.625 10.7495H15ZM15 10.7495V16.9995M9.125 13.2495H9.75C10.4404 13.2495 11 13.8092 11 14.4995V15.7495C11 16.4399 10.4404 16.9995 9.75 16.9995H8.5C7.80964 16.9995 7.25 16.4399 7.25 15.7495V14.4995C7.25 13.8092 7.80964 13.2495 8.5 13.2495H9.125ZM9.125 13.2495V6.99951" stroke="black" stroke-width="2" stroke-linecap="round" stroke-linejoin="round"/>
<path d="M12 22C17.5228 22 22 17.5228 22 12C22 6.47715 17.5228 2 12 2C6.47715 2 2 6.47715 2 12C2 17.5228 6.47715 22 12 22Z" stroke="#667085" stroke-width="2" stroke-linecap="round" stroke-linejoin="round"/>
</svg>
