<svg width="24" height="24" viewBox="0 0 24 24" fill="none" xmlns="http://www.w3.org/2000/svg">
<path d="M7.5 15L7.5 7M12 17V9M16.5 15V7" stroke="black" stroke-width="2" stroke-linecap="round" stroke-linejoin="round"/>
<path d="M18 3H6C4.34315 3 3 4.34315 3 6V18C3 19.6569 4.34315 21 6 21H18C19.6569 21 21 19.6569 21 18V6C21 4.34315 19.6569 3 18 3Z" stroke="#667085" stroke-width="2" stroke-linecap="round" stroke-linejoin="round"/>
<path d="M7.5 14C8.60457 14 9.5 14.8954 9.5 16C9.5 17.1046 8.60457 18 7.5 18C6.39543 18 5.5 17.1046 5.5 16C5.5 14.8954 6.39543 14 7.5 14Z" fill="black"/>
<path d="M12 6C13.1046 6 14 6.89543 14 8C14 9.10457 13.1046 10 12 10C10.8954 10 10 9.10457 10 8C10 6.89543 10.8954 6 12 6Z" fill="black"/>
<path d="M16.5 14C17.6046 14 18.5 14.8954 18.5 16C18.5 17.1046 17.6046 18 16.5 18C15.3954 18 14.5 17.1046 14.5 16C14.5 14.8954 15.3954 14 16.5 14Z" fill="black"/>
</svg>
