<svg width="24" height="24" viewBox="0 0 24 24" fill="none" xmlns="http://www.w3.org/2000/svg">
<path fill-rule="evenodd" clip-rule="evenodd" d="M5.19851 4.41367C4.89768 3.75158 5.38172 2.99999 6.10896 3L10.0024 3.00007L13.8955 3.00013C14.6228 3.00014 15.1068 3.75185 14.8058 4.41394L13.9156 6.37246C14.5652 6.13156 15.268 5.99995 16.0015 5.99995C16.0945 5.99995 16.187 6.00206 16.279 6.00625L16.6266 5.24157C16.9695 4.48711 16.9727 3.69386 16.7252 3.00014L19.0015 3.00016C19.5537 3.00017 20.0015 3.44788 20.0015 4.00016V5.99995C20.0015 6.55223 20.4492 6.99995 21.0015 6.99995C21.5537 6.99995 22.0015 6.55223 22.0015 5.99995V4.00016C22.0015 2.34332 20.6583 1.00018 19.0015 1.00016L10.0025 1.00007L6.10899 1C3.92729 0.999964 2.47516 3.25473 3.37766 5.241L6.82376 12.8254C6.9412 13.0839 7.00227 13.3644 7.0029 13.6483L7.01967 21.1507C7.02223 22.2957 8.25516 23.0158 9.25376 22.4554L11.4531 21.2212C12.3964 20.6918 12.9817 19.6956 12.9849 18.6138L12.9891 17.1901C12.1881 16.7242 11.5048 16.0781 10.9946 15.3075L10.9849 18.6079C10.9838 18.9685 10.7887 19.3006 10.4743 19.4771L9.01777 20.2944L9.0029 13.6438C9.00163 13.076 8.8795 12.515 8.64462 11.9981L5.19851 4.41367Z" fill="black"/>
<path fill-rule="evenodd" clip-rule="evenodd" d="M20 12C20 9.79086 18.2091 8 16 8C13.7909 8 12 9.79086 12 12C12 14.2091 13.7909 16 16 16C18.2091 16 20 14.2091 20 12ZM16.75 10C16.75 9.58579 16.4142 9.25 16 9.25C15.5858 9.25 15.25 9.58579 15.25 10V11.25H14C13.5858 11.25 13.25 11.5858 13.25 12C13.25 12.4142 13.5858 12.75 14 12.75H15.25V14C15.25 14.4142 15.5858 14.75 16 14.75C16.4142 14.75 16.75 14.4142 16.75 14V12.75H18C18.4142 12.75 18.75 12.4142 18.75 12C18.75 11.5858 18.4142 11.25 18 11.25H16.75V10Z" fill="#667085"/>
</svg>
