<svg width="24" height="24" viewBox="0 0 24 24" fill="none" xmlns="http://www.w3.org/2000/svg">
<path fill-rule="evenodd" clip-rule="evenodd" d="M4 5C4 4.44772 4.44772 4 5 4H10H15C15.5523 4 16 4.44771 16 5V5.91385C16 6.30441 15.8857 6.68465 15.6737 7.00872C15.7817 7.00293 15.8905 7 16 7C16.6144 7 17.2072 7.09234 17.7653 7.26389C17.9194 6.83394 18 6.37753 18 5.91385V5C18 4.64936 17.9398 4.31278 17.8293 4H19C19.5523 4 20 4.44772 20 5V7C20 7.55228 20.4477 8 21 8C21.5523 8 22 7.55228 22 7V5C22 3.34315 20.6569 2 19 2H15H10H5C3.34315 2 2 3.34315 2 5V5.91385C2 6.8496 2.32806 7.75573 2.92711 8.47459L6.53644 12.8058C6.83597 13.1652 7 13.6183 7 14.0862L7 20.191C7 21.3061 8.17347 22.0313 9.17082 21.5326L11.3416 20.4472C12.2322 20.0019 12.8354 19.1492 12.971 18.1804C12.1807 17.7174 11.5059 17.0786 11 16.3178V17.7639C11 18.1427 10.786 18.489 10.4472 18.6584L9 19.382L9 14.0861C9 13.1504 8.67194 12.2443 8.07289 11.5254L4.46356 7.19422C4.16403 6.83479 4 6.38172 4 5.91385V5Z" fill="black"/>
<path d="M12.8 12.9998C12.8 11.2325 14.2327 9.7998 16 9.7998C16.7568 9.7998 17.4522 10.0625 18 10.5017M12.8 12.9998L12 12.1998M12.8 12.9998L13.8 12.3998M19.2 12.9998C19.2 14.7671 17.7673 16.1998 16 16.1998C15.2444 16.1998 14.55 15.9379 14.0026 15.5M19.2 12.9998L20 13.7998M19.2 12.9998L18.2 13.5998" stroke="#667085" stroke-width="1.5" stroke-linecap="round" stroke-linejoin="round"/>
</svg>
