<svg width="24" height="24" viewBox="0 0 24 24" fill="none" xmlns="http://www.w3.org/2000/svg">
<path fill-rule="evenodd" clip-rule="evenodd" d="M5.19461 4.41367C4.89377 3.75158 5.37782 2.99999 6.10505 3L9.99853 3.00007L13.8916 3.00013C14.6189 3.00014 15.1029 3.75185 14.8019 4.41394L13.9117 6.37246C14.5613 6.13156 15.2641 5.99995 15.9976 5.99995C16.0906 5.99995 16.1831 6.00206 16.2751 6.00625L16.6227 5.24157C16.9656 4.48711 16.9688 3.69386 16.7213 3.00014L18.9976 3.00016C19.5498 3.00017 19.9976 3.44788 19.9976 4.00016V5.99995C19.9976 6.55223 20.4453 6.99995 20.9976 6.99995C21.5498 6.99995 21.9976 6.55223 21.9976 5.99995V4.00016C21.9976 2.34332 20.6544 1.00018 18.9976 1.00016L9.99856 1.00007L6.10508 1C3.92339 0.999964 2.47125 3.25473 3.37375 5.241L6.81986 12.8254C6.9373 13.0839 6.99836 13.3644 6.999 13.6483L7.01577 21.1507C7.01833 22.2957 8.25125 23.0158 9.24985 22.4554L11.4492 21.2212C12.3925 20.6918 12.9778 19.6956 12.981 18.6138L12.9852 17.1901C12.1842 16.7242 11.5009 16.0781 10.9907 15.3075L10.981 18.6079C10.9799 18.9685 10.7848 19.3006 10.4704 19.4771L9.01386 20.2944L8.99899 13.6438C8.99772 13.076 8.87559 12.515 8.64071 11.9981L5.19461 4.41367Z" fill="black"/>
<path fill-rule="evenodd" clip-rule="evenodd" d="M16 8C18.2091 8 20 9.79086 20 12C20 14.2091 18.2091 16 16 16C13.7909 16 12 14.2091 12 12C12 9.79086 13.7909 8 16 8ZM15.25 11.25H14C13.5858 11.25 13.25 11.5858 13.25 12C13.25 12.4142 13.5858 12.75 14 12.75H15.25H16.75H18C18.4142 12.75 18.75 12.4142 18.75 12C18.75 11.5858 18.4142 11.25 18 11.25H16.75H15.25Z" fill="#667085"/>
</svg>
