<svg width="24" height="24" viewBox="0 0 24 24" fill="none" xmlns="http://www.w3.org/2000/svg">
<path fill-rule="evenodd" clip-rule="evenodd" d="M6.64553 1C4.27841 0.999969 2.84371 3.6131 4.1143 5.61031L8.69012 12.8029C8.89342 13.1225 9.00181 13.4932 9.00265 13.8719L9.01893 21.1507C9.02148 22.2958 10.2544 23.0158 11.253 22.4554L13.4523 21.2212C14.3957 20.6918 14.9809 19.6956 14.9841 18.6139L14.9929 15.6558C14.2488 15.3916 13.5724 14.9848 12.9964 14.4683L12.9841 18.6079C12.9831 18.9685 12.788 19.3006 12.4735 19.4771L11.017 20.2944L11.0026 13.8675C11.001 13.11 10.7842 12.3685 10.3776 11.7293L5.80176 4.53677C5.37823 3.87103 5.85647 2.99999 6.6455 3L17.3574 3.00014C17.9999 3.00015 18.4363 3.57774 18.3475 4.15171C19.0193 4.30578 19.648 4.57261 20.2127 4.93121C20.8312 3.06848 19.4634 1.00017 17.3574 1.00014L6.64553 1Z" fill="black"/>
<path d="M13.8 9.9998C13.8 8.23249 15.2327 6.7998 17 6.7998C17.7568 6.7998 18.4522 7.06249 19 7.50166M13.8 9.9998L13 9.1998M13.8 9.9998L14.8 9.3998M20.2 9.9998C20.2 11.7671 18.7673 13.1998 17 13.1998C16.2444 13.1998 15.55 12.9379 15.0026 12.5M20.2 9.9998L21 10.7998M20.2 9.9998L19.2 10.5998" stroke="#667085" stroke-width="1.5" stroke-linecap="round" stroke-linejoin="round"/>
</svg>
