<svg width="24" height="24" viewBox="0 0 24 24" fill="none" xmlns="http://www.w3.org/2000/svg">
<path d="M18 3H6C4.34315 3 3 4.34315 3 6V18C3 19.6569 4.34315 21 6 21H18C19.6569 21 21 19.6569 21 18V6C21 4.34315 19.6569 3 18 3Z" stroke="#667085" stroke-width="2" stroke-linecap="round" stroke-linejoin="round"/>
<path d="M12 7.5H7M17 12H12M12 16.5H7" stroke="black" stroke-width="2" stroke-linecap="round" stroke-linejoin="round"/>
<path d="M14 7.5C14 8.60457 14.8954 9.5 16 9.5C17.1046 9.5 18 8.60457 18 7.5C18 6.39543 17.1046 5.5 16 5.5C14.8954 5.5 14 6.39543 14 7.5Z" fill="black"/>
<path d="M6 12C6 13.1046 6.89543 14 8 14C9.10457 14 10 13.1046 10 12C10 10.8954 9.10457 10 8 10C6.89543 10 6 10.8954 6 12Z" fill="black"/>
<path d="M14 16.5C14 17.6046 14.8954 18.5 16 18.5C17.1046 18.5 18 17.6046 18 16.5C18 15.3954 17.1046 14.5 16 14.5C14.8954 14.5 14 15.3954 14 16.5Z" fill="black"/>
</svg>
