<svg width="24" height="24" viewBox="0 0 24 24" fill="none" xmlns="http://www.w3.org/2000/svg">
<path d="M13.8 10.9998C13.8 9.23249 15.2327 7.7998 17 7.7998C17.7568 7.7998 18.4522 8.06249 19 8.50166M13.8 10.9998L13 10.1998M13.8 10.9998L14.8 10.3998M20.2 10.9998C20.2 12.7671 18.7673 14.1998 17 14.1998C16.2444 14.1998 15.55 13.9379 15.0026 13.5M20.2 10.9998L21 11.7998M20.2 10.9998L19.2 11.5998" stroke="#667085" stroke-width="1.5" stroke-linecap="round" stroke-linejoin="round"/>
<path fill-rule="evenodd" clip-rule="evenodd" d="M4 5C4 4.44772 4.44772 4 5 4H19C19.5523 4 20 4.44772 20 5V5.6202C20 5.67986 19.9973 5.73922 19.9921 5.79812C20.6336 6.16793 21.2003 6.65301 21.6639 7.22506C21.8831 6.72476 22 6.17916 22 5.6202V5C22 3.34315 20.6568 2 19 2H5C3.34315 2 2 3.34315 2 5V5.6202C2 6.7879 2.51025 7.89729 3.39683 8.65722L7.95237 12.562C8.61731 13.1319 9 13.964 9 14.8397L9 20.191C9 21.3061 10.1735 22.0313 11.1708 21.5326L13.3416 20.4472C14.358 19.939 15 18.9002 15 17.7639V16.6586C14.2548 16.3952 13.5771 15.9887 13 15.4722V17.7639C13 18.1427 12.786 18.489 12.4472 18.6584L11 19.382V14.8397C11 13.3801 10.3622 11.9934 9.25396 11.0435L4.69842 7.13871C4.25513 6.75874 4 6.20405 4 5.6202V5Z" fill="black"/>
</svg>
