<svg width="24" height="24" viewBox="0 0 24 24" fill="none" xmlns="http://www.w3.org/2000/svg">
<path fill-rule="evenodd" clip-rule="evenodd" d="M4 5C4 4.44772 4.44772 4 5 4H10H15C15.5523 4 16 4.44771 16 5V5.91385C16 6.30441 15.8857 6.68465 15.6737 7.00872C15.7817 7.00293 15.8905 7 16 7C16.6144 7 17.2072 7.09234 17.7653 7.26389C17.9194 6.83394 18 6.37753 18 5.91385V5C18 4.64936 17.9398 4.31278 17.8293 4H19C19.5523 4 20 4.44772 20 5V7C20 7.55228 20.4477 8 21 8C21.5523 8 22 7.55228 22 7V5C22 3.34315 20.6569 2 19 2H15H10H5C3.34315 2 2 3.34315 2 5V5.91385C2 6.8496 2.32806 7.75573 2.92711 8.47459L6.53644 12.8058C6.83597 13.1652 7 13.6183 7 14.0862L7 20.191C7 21.3061 8.17347 22.0313 9.17082 21.5326L11.3416 20.4472C12.2322 20.0019 12.8354 19.1492 12.971 18.1804C12.1807 17.7174 11.5059 17.0786 11 16.3178V17.7639C11 18.1427 10.786 18.489 10.4472 18.6584L9 19.382L9 14.0861C9 13.1504 8.67194 12.2443 8.07289 11.5254L4.46356 7.19422C4.16403 6.83479 4 6.38172 4 5.91385V5Z" fill="black"/>
<path fill-rule="evenodd" clip-rule="evenodd" d="M18.8284 15.8284C20.3905 14.2663 20.3905 11.7337 18.8284 10.1716C17.2663 8.60948 14.7337 8.60948 13.1716 10.1716C11.6095 11.7337 11.6095 14.2663 13.1716 15.8284C14.7337 17.3905 17.2663 17.3905 18.8284 15.8284ZM17.9445 12.1161C18.2374 11.8232 18.2374 11.3483 17.9445 11.0555C17.6516 10.7626 17.1768 10.7626 16.8839 11.0555L16 11.9393L15.1161 11.0555C14.8232 10.7626 14.3483 10.7626 14.0555 11.0555C13.7626 11.3483 13.7626 11.8232 14.0555 12.1161L14.9393 13L14.0555 13.8839C13.7626 14.1768 13.7626 14.6516 14.0555 14.9445C14.3483 15.2374 14.8232 15.2374 15.1161 14.9445L16 14.0607L16.8839 14.9445C17.1768 15.2374 17.6516 15.2374 17.9445 14.9445C18.2374 14.6516 18.2374 14.1768 17.9445 13.8839L17.0607 13L17.9445 12.1161Z" fill="#667085"/>
</svg>
