<svg width="24" height="24" viewBox="0 0 24 24" fill="none" xmlns="http://www.w3.org/2000/svg">
<path d="M13.125 9V9.625C13.125 10.3154 13.6846 10.875 14.375 10.875H15.625C16.3154 10.875 16.875 10.3154 16.875 9.625V8.375C16.875 7.68464 16.3154 7.125 15.625 7.125L14.375 7.125C13.6846 7.125 13.125 7.68464 13.125 8.375V9ZM13.125 9L6.875 9M10.625 15V14.375C10.625 13.6846 10.0654 13.125 9.375 13.125H8.125C7.43464 13.125 6.875 13.6846 6.875 14.375L6.875 15.625C6.875 16.3154 7.43464 16.875 8.125 16.875H9.375C10.0654 16.875 10.625 16.3154 10.625 15.625V15ZM10.625 15H16.875" stroke="black" stroke-width="2" stroke-linecap="round" stroke-linejoin="round"/>
<path d="M12 22C17.5228 22 22 17.5228 22 12C22 6.47715 17.5228 2 12 2C6.47715 2 2 6.47715 2 12C2 17.5228 6.47715 22 12 22Z" stroke="#667085" stroke-width="2" stroke-linecap="round" stroke-linejoin="round"/>
</svg>
