<svg width="24" height="24" viewBox="0 0 24 24" fill="none" xmlns="http://www.w3.org/2000/svg">
<path fill-rule="evenodd" clip-rule="evenodd" d="M7.15883 5.74494C7.05515 6.14599 7 6.56655 7 7C7 9.76142 9.23858 12 12 12C12.4334 12 12.854 11.9448 13.2551 11.8412L11.3414 9.92747C10.2133 9.67477 9.32523 8.78671 9.07253 7.65864L7.15883 5.74494ZM13.7086 9.46625C14.489 8.92457 15 8.02196 15 7C15 5.34315 13.6569 4 12 4C10.978 4 10.0754 4.511 9.53375 5.29143L8.10586 3.86354C9.02239 2.72703 10.4263 2 12 2C14.7614 2 17 4.23858 17 7C17 8.57371 16.273 9.97761 15.1365 10.8941L13.7086 9.46625ZM14.0917 12.6778C14.0355 12.7986 14.0034 12.9308 13.9989 13.0671C13.9639 14.1402 13.0821 15 12 15C10.9179 15 10.0361 14.1402 10.0011 13.0671C9.99149 12.7729 9.85278 12.4979 9.62191 12.3153C9.39105 12.1327 9.09148 12.0612 8.80302 12.1196C6.06294 12.6749 4 15.0954 4 18V20C4 21.1046 4.89543 22 6 22H18C19.1046 22 20 21.1046 20 20V18.5861L17.5287 16.1149C17.8295 16.6767 18 17.3186 18 18V20H6V18C6 16.4182 6.91884 15.0495 8.2522 14.4007C8.81994 15.9192 10.2836 17 12 17C13.7164 17 15.1801 15.9192 15.7478 14.4007C15.7938 14.4231 15.8393 14.4464 15.8843 14.4704L14.0917 12.6778Z" fill="black"/>
<path d="M3 3L21 21" stroke="#667085" stroke-width="2" stroke-linecap="round" stroke-linejoin="round"/>
</svg>
