<svg width="24" height="24" viewBox="0 0 24 24" fill="none" xmlns="http://www.w3.org/2000/svg">
<path fill-rule="evenodd" clip-rule="evenodd" d="M7.15883 5.74494C7.05515 6.14599 7 6.56655 7 7C7 9.76142 9.23858 12 12 12C12.4334 12 12.854 11.9448 13.2551 11.8412L11.3414 9.92747C10.2133 9.67477 9.32523 8.78671 9.07253 7.65864L7.15883 5.74494ZM13.7086 9.46625C14.489 8.92457 15 8.02196 15 7C15 5.34315 13.6569 4 12 4C10.978 4 10.0754 4.511 9.53375 5.29143L8.10586 3.86354C9.02239 2.72703 10.4263 2 12 2C14.7614 2 17 4.23858 17 7C17 8.57371 16.273 9.97761 15.1365 10.8941L13.7086 9.46625ZM15.1723 13.7584L18.2416 16.8277C18.7266 17.78 19 18.8581 19 20C19 21.1046 18.1046 22 17 22H7C5.89543 22 5 21.1046 5 20C5 16.134 8.13401 13 12 13C13.1419 13 14.22 13.2734 15.1723 13.7584ZM7 20C7 17.2386 9.23858 15 12 15C14.7614 15 17 17.2386 17 20H7Z" fill="black"/>
<path d="M3 3L21 21" stroke="#667085" stroke-width="2" stroke-linecap="round"/>
</svg>
