<svg width="24" height="24" viewBox="0 0 24 24" fill="none" xmlns="http://www.w3.org/2000/svg">
<path fill-rule="evenodd" clip-rule="evenodd" d="M7.1588 5.74503C7.05515 6.14605 7 6.56659 7 7C7 9.76142 9.23858 12 12 12C12.4334 12 12.8539 11.9449 13.255 11.8412L11.3412 9.92744C10.2133 9.6747 9.3253 8.78674 9.07256 7.65879L7.1588 5.74503ZM13.7085 9.4663C14.489 8.92462 15 8.02199 15 7C15 5.34315 13.6569 4 12 4C10.978 4 10.0754 4.51103 9.5337 5.2915L8.1058 3.86361C9.02234 2.72706 10.4263 2 12 2C14.7614 2 17 4.23858 17 7C17 8.57374 16.2729 9.97766 15.1364 10.8942L13.7085 9.4663ZM14.4289 13.0151L19.9849 18.5711C19.9949 18.7128 20 18.8558 20 19V20C20 21.1046 19.1046 22 18 22H6C4.89543 22 4 21.1046 4 20V19C4 15.6863 6.68629 13 10 13H14C14.1442 13 14.2872 13.0051 14.4289 13.0151ZM6 19C6 16.7909 7.79086 15 10 15H14C16.2091 15 18 16.7909 18 19V20H6V19Z" fill="black"/>
<path d="M3 3L21 21" stroke="#667085" stroke-width="2" stroke-linecap="round"/>
</svg>
