<svg width="24" height="24" viewBox="0 0 24 24" fill="none" xmlns="http://www.w3.org/2000/svg">
<path d="M17 20V18C17 15.7441 15.506 13.8371 13.4534 13.2145C13.1698 13.1285 12.8662 13.207 12.6348 13.3922L10.6247 15.0003C10.2595 15.2924 9.74053 15.2924 9.37531 15.0003L7.36524 13.3922C7.13378 13.207 6.83022 13.1285 6.54657 13.2145C4.494 13.8371 3 15.7441 3 18V20C3 20.5523 3.44772 21 4 21H16C16.5523 21 17 20.5523 17 20Z" stroke="black" stroke-width="2" stroke-linecap="round" stroke-linejoin="round"/>
<path d="M10 11C12.2091 11 14 9.20914 14 7C14 4.79086 12.2091 3 10 3C7.79086 3 6 4.79086 6 7C6 9.20914 7.79086 11 10 11Z" stroke="black" stroke-width="2" stroke-linecap="round" stroke-linejoin="round"/>
<path d="M21 11H18.5H16" stroke="#667085" stroke-width="2" stroke-linecap="round" stroke-linejoin="round"/>
</svg>
