<svg width="24" height="24" viewBox="0 0 24 24" fill="none" xmlns="http://www.w3.org/2000/svg">
<path d="M19 19.9999V17.9999C19 15.5804 17.2814 13.5623 14.9984 13.0996C14.9458 14.7103 13.6235 15.9999 12 15.9999C10.3765 15.9999 9.05421 14.7103 9.00163 13.0996C6.71858 13.5623 5 15.5804 5 17.9999V19.9999C5 20.5522 5.44772 20.9999 6 20.9999H18C18.5523 20.9999 19 20.5522 19 19.9999Z" stroke="black" stroke-width="2" stroke-linejoin="round"/>
<path d="M12 11C14.2091 11 16 9.20914 16 7C16 4.79086 14.2091 3 12 3C9.79086 3 8 4.79086 8 7C8 9.20914 9.79086 11 12 11Z" stroke="#667085" stroke-width="2" stroke-linejoin="round"/>
</svg>
