<svg width="24" height="24" viewBox="0 0 24 24" fill="none" xmlns="http://www.w3.org/2000/svg">
<path fill-rule="evenodd" clip-rule="evenodd" d="M6.31436 10.9213C6.11061 10.3181 6.00014 9.67196 6.00014 9C6.00014 7.48262 6.56341 6.09679 7.49226 5.04021C7.33206 5.01376 7.16758 5 6.99988 5C5.34303 5 3.99988 6.34315 3.99988 8C3.99988 9.421 4.98785 10.6112 6.31436 10.9213ZM7.52793 13H6.375C3.95875 13 2 14.9588 2 17.375C2 17.7202 2.27982 18 2.625 18H4.51895C4.67907 15.8952 5.84161 14.0706 7.53023 13.0026C7.52946 13.0017 7.5287 13.0009 7.52793 13ZM19.4812 18H21.375C21.7202 18 22 17.7202 22 17.375C22 14.9588 20.0412 13 17.625 13H16.4724C16.4716 13.0009 16.4708 13.0017 16.4701 13.0026C18.1586 14.0706 19.3212 15.8952 19.4812 18ZM17.686 10.9212C19.0122 10.6109 19.9999 9.4208 19.9999 8C19.9999 6.34315 18.6567 5 16.9999 5C16.8323 5 16.668 5.01373 16.508 5.04014C17.4368 6.09673 18.0001 7.48258 18.0001 9C18.0001 9.67191 17.8897 10.318 17.686 10.9212Z" fill="#667085"/>
<path d="M12.0001 12C13.657 12 15.0001 10.6569 15.0001 9C15.0001 7.34315 13.657 6 12.0001 6C10.3433 6 9.00014 7.34315 9.00014 9C9.00014 10.6569 10.3433 12 12.0001 12Z" stroke="black" stroke-width="2" stroke-linecap="round"/>
<path d="M16.0002 18.9999H8.00001C7.72386 18.9999 7.49999 18.7761 7.5 18.4999C7.50006 16.5669 9.06708 14.9999 11.0001 14.9999H13.0002C14.9332 14.9999 16.5002 16.567 16.5002 18.5C16.5001 18.7761 16.2763 18.9999 16.0002 18.9999Z" stroke="black" stroke-width="2" stroke-linecap="round"/>
<path d="M2 2H22M22 22H2" stroke="#667085" stroke-width="2" stroke-linecap="round"/>
</svg>
