<svg width="24" height="24" viewBox="0 0 24 24" fill="none" xmlns="http://www.w3.org/2000/svg">
<path d="M19 20.0001V18.0001C19 15.7442 17.506 13.8372 15.4534 13.2146C15.1698 13.1286 14.8662 13.2071 14.6348 13.3923L12.6247 15.0003C12.2595 15.2925 11.7405 15.2925 11.3753 15.0003L9.36524 13.3923C9.13378 13.2071 8.83022 13.1286 8.54657 13.2146C6.494 13.8372 5 15.7442 5 18.0001V20.0001C5 20.5524 5.44772 21.0001 6 21.0001H18C18.5523 21.0001 19 20.5524 19 20.0001Z" stroke="black" stroke-width="2"/>
<path d="M12 11C14.2091 11 16 9.20914 16 7C16 4.79086 14.2091 3 12 3C9.79086 3 8 4.79086 8 7C8 9.20914 9.79086 11 12 11Z" stroke="#667085" stroke-width="2"/>
</svg>
