<svg width="24" height="24" viewBox="0 0 24 24" fill="none" xmlns="http://www.w3.org/2000/svg">
<path fill-rule="evenodd" clip-rule="evenodd" d="M7.15883 5.74494C7.05515 6.14599 7 6.56655 7 7C7 9.76142 9.23858 12 12 12C12.4334 12 12.854 11.9448 13.2551 11.8412L11.3414 9.92747C10.2133 9.67477 9.32523 8.78671 9.07253 7.65864L7.15883 5.74494ZM13.7086 9.46625C14.489 8.92457 15 8.02196 15 7C15 5.34315 13.6569 4 12 4C10.978 4 10.0754 4.511 9.53375 5.29143L8.10586 3.86354C9.02239 2.72703 10.4263 2 12 2C14.7614 2 17 4.23858 17 7C17 8.57371 16.273 9.97761 15.1365 10.8941L13.7086 9.46625ZM14.0185 12.6046C14.0157 12.6069 14.0129 12.6091 14.0101 12.6113L12 14.2194L9.98993 12.6113C9.54287 12.2537 8.90324 12.0614 8.25631 12.2576C5.79401 13.0044 4 15.2914 4 18V20C4 21.1046 4.89543 22 6 22H18C19.1046 22 20 21.1046 20 20V18.5861L17.5289 16.115C17.8296 16.6768 18 17.3187 18 18V20H6V18C6 16.2227 7.1599 14.7138 8.76622 14.1936L10.7506 15.7811C11.4811 16.3655 12.5189 16.3655 13.2494 15.7811L15.2338 14.1936C15.4602 14.2669 15.6777 14.3599 15.8843 14.4704L14.0185 12.6046Z" fill="black"/>
<path d="M3 3L21 21" stroke="#667085" stroke-width="2" stroke-linecap="round"/>
</svg>
