<svg width="24" height="24" viewBox="0 0 24 24" fill="none" xmlns="http://www.w3.org/2000/svg">
<path fill-rule="evenodd" clip-rule="evenodd" d="M6.40753 7.82197L4.04792 5.46236C4.30129 4.06207 5.52655 3 6.99988 3C8.11027 3 9.07975 3.60326 9.59848 4.49991C8.14182 5.13683 6.98689 6.33547 6.40753 7.82197ZM2 15.375C2 13.0564 3.80371 11.159 6.08454 11.0095C6.2625 12.0598 6.71341 13.0173 7.36176 13.8064C6.41092 14.3317 5.60567 15.0881 5.02185 16H2.625C2.27982 16 2 15.7202 2 15.375ZM21.375 16H18.9782C18.3944 15.0881 17.5891 14.3316 16.6383 13.8064C17.2866 13.0173 17.7375 12.0598 17.9154 11.0095C20.1963 11.159 22 13.0563 22 15.375C22 15.7202 21.7202 16 21.375 16ZM19.9999 6C19.9999 7.34591 19.1136 8.48481 17.8928 8.86489C17.517 6.90264 16.1855 5.27989 14.4013 4.49984C14.9201 3.60322 15.8895 3 16.9999 3C18.6567 3 19.9999 4.34315 19.9999 6Z" fill="#667085"/>
<path fill-rule="evenodd" clip-rule="evenodd" d="M13.5864 15.0008C16.0031 15.0463 17.9537 16.9969 17.9992 19.4136L13.5864 15.0008ZM10.7571 15H10.5001C8.01481 15 6.00007 17.0147 6 19.4999C5.99998 20.3284 6.67156 21 7.50001 21H16.5C16.5811 21 16.6607 20.9936 16.7383 20.9812L14.7571 19H8.05002C8.28169 17.8589 9.29059 17 10.5001 17H12.7571L10.7571 15ZM12.5483 13.9627L8.03725 9.45169C8.30453 7.50198 9.97685 6 12 6C14.2091 6 16 7.79086 16 10C16 12.0231 14.498 13.6955 12.5483 13.9627ZM9.99998 10C9.99998 8.89543 10.8954 8 12 8C13.1046 8 14 8.89543 14 10C14 11.1046 13.1046 12 12 12C10.8954 12 9.99998 11.1046 9.99998 10Z" fill="black"/>
<path d="M3 3L21 21" stroke="#667085" stroke-width="2" stroke-linecap="round"/>
</svg>
