<svg width="24" height="24" viewBox="0 0 24 24" fill="none" xmlns="http://www.w3.org/2000/svg">
<path fill-rule="evenodd" clip-rule="evenodd" d="M7.41539 6.0015C7.14821 6.61356 7 7.28947 7 8C7 10.7614 9.23858 13 12 13C12.7105 13 13.3864 12.8518 13.9985 12.5846L12.3889 10.975C12.2616 10.9915 12.1318 11 12 11C10.3431 11 9 9.65685 9 8C9 7.8682 9.0085 7.73839 9.02498 7.61109L7.41539 6.0015ZM14.239 9.99672C14.7123 9.46636 15 8.76677 15 8C15 6.34315 13.6569 5 12 5C11.2332 5 10.5336 5.28767 10.0033 5.76096L8.58769 4.34537C9.48115 3.51079 10.6809 3 12 3C14.7614 3 17 5.23858 17 8C17 9.31908 16.4892 10.5188 15.6546 11.4123L14.239 9.99672ZM15.4139 14L20.9322 19.5183C20.7039 20.3716 19.9253 21 19 21H5C3.89543 21 3 20.1046 3 19C3 16.2386 5.23858 14 8 14H15.4139ZM5 19C5 17.3431 6.34315 16 8 16H16C17.6569 16 19 17.3431 19 19H5Z" fill="black"/>
<path d="M3 3L21 21" stroke="#667085" stroke-width="2" stroke-linecap="round"/>
</svg>
