<svg width="24" height="24" viewBox="0 0 24 24" fill="none" xmlns="http://www.w3.org/2000/svg">
<path d="M2 10H22" stroke="black" stroke-width="2" stroke-linecap="round" stroke-linejoin="round"/>
<path d="M12 4V7V14V17V20M7 4V7V17V20M17 4V7V14V17V20" stroke="#667085" stroke-width="2" stroke-linecap="round" stroke-linejoin="round"/>
<path d="M8 7H7H6M11 7H12H13M16 7H17H18M8 17H7H6M11 14H12H13M13 17H12H11M16 17H17H18M16 14H17H18M2 10V7C2 5.34315 3.34315 4 5 4H7H12H17H19C20.6569 4 22 5.34315 22 7V10V17C22 18.6569 20.6569 20 19 20H17H12H7H5C3.34315 20 2 18.6569 2 17V10Z" stroke="black" stroke-width="2" stroke-linecap="round" stroke-linejoin="round"/>
</svg>
