<svg width="24" height="24" viewBox="0 0 24 24" fill="none" xmlns="http://www.w3.org/2000/svg">
<path d="M16.49 16H16.5M16.49 12H16.5M11.99 16H12M11.99 12H12M7.49 16H7.5M7.49 12H7.5M7 4V3C7 2.44772 7.44772 2 8 2H16C16.5523 2 17 2.44772 17 3V4M7 20V21C7 21.5523 7.44772 22 8 22H16C16.5523 22 17 21.5523 17 21V20" stroke="#667085" stroke-width="2" stroke-linecap="round" stroke-linejoin="round"/>
<path d="M4 17V7C4 5.34315 5.34315 4 7 4H17C18.6569 4 20 5.34315 20 7V17C20 18.6569 18.6569 20 17 20H7C5.34315 20 4 18.6569 4 17Z" stroke="black" stroke-width="2" stroke-linecap="round" stroke-linejoin="round"/>
</svg>
