<svg width="24" height="24" viewBox="0 0 24 24" fill="none" xmlns="http://www.w3.org/2000/svg">
<path d="M18.9908 13.61L19.433 14.507L19.433 14.507L18.9908 13.61ZM3.55784 20.1031C3.06247 20.3473 2.85887 20.9469 3.10307 21.4422C3.34727 21.9376 3.9468 22.1412 4.44216 21.897L3.55784 20.1031ZM18.5486 12.7131L3.55784 20.1031L4.44216 21.897L19.433 14.507L18.5486 12.7131ZM19 11.9954C19.0016 12.2829 18.8575 12.5609 18.5486 12.7131L19.433 14.507C20.477 13.9923 21.0056 12.9817 21 11.9841L19 11.9954Z" fill="black"/>
<path d="M4.44216 2.10307C3.9468 1.85887 3.34727 2.06247 3.10307 2.55784C2.85887 3.0532 3.06247 3.65273 3.55784 3.89693L4.44216 2.10307ZM18.9908 10.39L19.433 9.49309L19.433 9.49309L18.9908 10.39ZM3.55784 3.89693L18.5486 11.287L19.433 9.49309L4.44216 2.10307L3.55784 3.89693ZM18.5486 11.287C18.8545 11.4377 18.9984 11.7113 19 11.9953L21 11.984C20.9944 10.9966 20.4655 10.0021 19.433 9.49309L18.5486 11.287Z" fill="#667085"/>
</svg>
