<svg width="24" height="24" viewBox="0 0 24 24" fill="none" xmlns="http://www.w3.org/2000/svg">
<path d="M8 17C8 16.4477 7.55228 16 7 16C6.44772 16 6 16.4477 6 17H8ZM8 19.5V17H6V19.5H8ZM13 19.5V12H11V19.5H13ZM9.5 23C11.433 23 13 21.433 13 19.5H11C11 20.3284 10.3284 21 9.5 21V23ZM9.5 21C8.67157 21 8 20.3284 8 19.5H6C6 21.433 7.567 23 9.5 23V21Z" fill="black"/>
<path d="M16 7C16 7.55228 16.4477 8 17 8C17.5523 8 18 7.55228 18 7H16ZM16 4.5V7H18V4.5H16ZM13 12V4.5H11V12H13ZM14.5 3C15.3284 3 16 3.67157 16 4.5H18C18 2.567 16.433 1 14.5 1V3ZM14.5 1C12.567 1 11 2.567 11 4.5H13C13 3.67157 13.6716 3 14.5 3V1Z" fill="#667085"/>
</svg>
