<svg width="24" height="24" viewBox="0 0 24 24" fill="none" xmlns="http://www.w3.org/2000/svg">
<path d="M5.0092 13.61L4.56704 14.5069H4.56704L5.0092 13.61ZM19.5578 21.8969C20.0532 22.1411 20.6527 21.9375 20.8969 21.4422C21.1411 20.9468 20.9375 20.3473 20.4422 20.1031L19.5578 21.8969ZM4.56704 14.5069L19.5578 21.8969L20.4422 20.1031L5.45136 12.713L4.56704 14.5069ZM3 12C3 12.9925 3.52874 13.9951 4.56704 14.5069L5.45136 12.713C5.14406 12.5615 5 12.2858 5 12L3 12Z" fill="black"/>
<path d="M20.4422 3.89693C20.9375 3.65273 21.1411 3.0532 20.8969 2.55784C20.6527 2.06247 20.0532 1.85887 19.5578 2.10307L20.4422 3.89693ZM5.0092 10.39L4.56704 9.49309L4.56704 9.49309L5.0092 10.39ZM19.5578 2.10307L4.56704 9.49309L5.45137 11.287L20.4422 3.89693L19.5578 2.10307ZM4.56704 9.49309C3.52874 10.0049 3 11.0075 3 12L5 12C5 11.7142 5.14406 11.4385 5.45137 11.287L4.56704 9.49309Z" fill="#667085"/>
</svg>
