<svg width="24" height="24" viewBox="0 0 24 24" fill="none" xmlns="http://www.w3.org/2000/svg">
<path d="M16.1272 20.5L15.668 19.6117C15.2582 19.8235 15.0465 20.2881 15.1555 20.7363C15.2645 21.1845 15.6659 21.5 16.1272 21.5V20.5ZM21 21.5C21.5523 21.5 22 21.0523 22 20.5C22 19.9477 21.5523 19.5 21 19.5V21.5ZM12 4.5C16.4183 4.5 20 8.08172 20 12.5H22C22 6.97715 17.5228 2.5 12 2.5V4.5ZM20 12.5C20 15.5945 18.2432 18.2804 15.668 19.6117L16.5864 21.3883C19.7999 19.7271 22 16.3713 22 12.5H20ZM16.1272 21.5H21V19.5H16.1272V21.5Z" fill="black"/>
<path d="M7.8728 20.5V21.5C8.33406 21.5 8.73548 21.1845 8.84448 20.7363C8.95347 20.2881 8.74177 19.8235 8.33201 19.6117L7.8728 20.5ZM3 19.5C2.44772 19.5 2 19.9477 2 20.5C2 21.0523 2.44772 21.5 3 21.5V19.5ZM12 2.5C6.47715 2.5 2 6.97715 2 12.5H4C4 8.08172 7.58172 4.5 12 4.5V2.5ZM8.33201 19.6117C5.75676 18.2804 4 15.5945 4 12.5H2C2 16.3713 4.20013 19.7271 7.41358 21.3883L8.33201 19.6117ZM7.8728 19.5H3V21.5H7.8728V19.5Z" fill="#667085"/>
</svg>
