<svg width="24" height="24" viewBox="0 0 24 24" fill="none" xmlns="http://www.w3.org/2000/svg">
<path d="M12.1524 12.774L12.7904 13.544L12.1524 12.774ZM4.36418 19.226L5.00214 19.9961L5.00214 19.9961L4.36418 19.226ZM21 17C21 16.4477 20.5523 16 20 16C19.4477 16 19 16.4477 19 17H21ZM11.5145 12.0039L3.72623 18.456L5.00214 19.9961L12.7904 13.544L11.5145 12.0039ZM4.98958 22H18.0248V20H4.98958V22ZM21 19V17H19V19H21ZM18.0248 22C19.6797 22 21 20.6451 21 19H19C19 19.5641 18.5517 20 18.0248 20V22ZM3.72623 18.456C2.30769 19.6311 3.09728 22 4.98958 22V20C4.98464 20 4.98245 19.9996 4.98261 19.9996C4.98277 19.9997 4.98437 20 4.98702 20.0009C4.99285 20.0028 4.99856 20.0059 5.00289 20.0092C5.00684 20.0122 5.00782 20.0139 5.00702 20.0128C5.0061 20.0115 5.00422 20.0084 5.00255 20.0037C5.00089 19.999 5.0002 19.9948 5.00004 19.992C4.99989 19.9894 5.00027 19.9895 4.99963 19.9921C4.99889 19.9952 4.99737 19.9989 4.99547 20.002C4.99465 20.0033 4.99431 20.0036 4.99493 20.0029C4.99555 20.0022 4.99769 19.9998 5.00214 19.9961L3.72623 18.456ZM11.5147 12C11.5147 12.0038 11.5138 12.0056 11.514 12.0052C11.5141 12.0049 11.5145 12.0042 11.515 12.0035C11.5156 12.0027 11.5157 12.0029 11.5145 12.0039L12.7904 13.544C13.2749 13.1426 13.5147 12.5664 13.5147 12L11.5147 12Z" fill="black"/>
<path d="M19 7C19 7.55228 19.4477 8 20 8C20.5523 8 21 7.55228 21 7H19ZM4.36418 4.77396L5.00214 4.00389L4.36418 4.77396ZM12.1524 11.226L11.5145 11.9961L11.5145 11.9961L12.1524 11.226ZM21 7V5H19V7H21ZM18.0248 2H4.98958V4H18.0248V2ZM3.72623 5.54403L11.5145 11.9961L12.7904 10.456L5.00214 4.00389L3.72623 5.54403ZM4.98958 2C3.09727 2 2.30769 4.36886 3.72623 5.54403L5.00214 4.00389C4.99769 4.0002 4.99555 3.99785 4.99493 3.99714C4.99431 3.99643 4.99465 3.99673 4.99547 3.99804C4.99737 4.0011 4.99889 4.00483 4.99963 4.00788C5.00027 4.0105 4.99989 4.01064 5.00004 4.00803C5.0002 4.00523 5.00089 4.00103 5.00255 3.9963C5.00422 3.99157 5.0061 3.98847 5.00702 3.9872C5.00782 3.98608 5.00684 3.98779 5.00289 3.99077C4.99856 3.99405 4.99285 3.99718 4.98702 3.99915C4.98437 4.00004 4.98277 4.00033 4.98261 4.00035C4.98245 4.00038 4.98463 4 4.98958 4V2ZM21 5C21 3.35493 19.6797 2 18.0248 2V4C18.5517 4 19 4.43593 19 5H21ZM11.5145 11.9961C11.5157 11.9971 11.5156 11.9973 11.515 11.9965C11.5145 11.9958 11.5141 11.9951 11.514 11.9948C11.5138 11.9944 11.5147 11.9962 11.5147 12H13.5147C13.5147 11.4336 13.2749 10.8574 12.7904 10.456L11.5145 11.9961Z" fill="#667085"/>
</svg>
