<svg width="24" height="24" viewBox="0 0 24 24" fill="none" xmlns="http://www.w3.org/2000/svg">
<path d="M2 13.3616H3.92963C4.59834 13.3616 5.2228 13.7109 5.59373 14.2925L8.44788 18.7672C8.67595 19.1248 9.19648 19.0578 9.33477 18.6531L13.526 6.38732C13.8102 5.55536 14.5642 5 15.4094 5H22" stroke="#667085" stroke-width="2" stroke-linecap="round" stroke-linejoin="round"/>
<path d="M16 17L18 15M20 13L18 15M18 15L20 17M18 15L16 13" stroke="#121A26" stroke-width="2" stroke-linecap="round" stroke-linejoin="round"/>
<path d="M5.1476 5.9375C5.29986 5.39837 5.83688 5 6.47599 5C7.23351 5 7.8476 5.55964 7.8476 6.25C7.8476 6.94036 7.23351 7.5 6.47599 7.5C7.31768 7.5 8 8.05964 8 8.75C8 9.44036 7.31768 10 6.47599 10C5.76587 10 5.16918 9.60163 5 9.0625" stroke="#121A26" stroke-width="1.5" stroke-linecap="round" stroke-linejoin="round"/>
</svg>
