<svg width="24" height="24" viewBox="0 0 24 24" fill="none" xmlns="http://www.w3.org/2000/svg">
<path d="M2 13.3616H3.92963C4.59834 13.3616 5.2228 13.7109 5.59373 14.2925L8.44788 18.7672C8.67595 19.1248 9.19648 19.0578 9.33477 18.6531L13.526 6.38732C13.8102 5.55536 14.5642 5 15.4094 5H22" stroke="#667085" stroke-width="2" stroke-linecap="round" stroke-linejoin="round"/>
<path d="M16 17L18 15M20 13L18 15M18 15L20 17M18 15L16 13" stroke="#121A26" stroke-width="2" stroke-linecap="round" stroke-linejoin="round"/>
<path d="M5.02069 6.5625C4.87195 5.70312 5.5412 5 6.50791 5C7.40025 5 8.06377 5.76905 7.99512 6.5625C7.8464 8.28125 5.02068 7.8125 5.02069 10H7.99512" stroke="#121A26" stroke-width="1.5" stroke-linecap="round" stroke-linejoin="round"/>
</svg>
