<svg width="24" height="24" viewBox="0 0 24 24" fill="none" xmlns="http://www.w3.org/2000/svg">
<path d="M13.5263 6.38732L12.58 6.06398V6.06398L13.5263 6.38732ZM22.0003 6C22.5526 6 23.0003 5.55228 23.0003 5C23.0003 4.44772 22.5526 4 22.0003 4V6ZM15.4097 6H22.0003V4H15.4097V6ZM14.4725 6.71067C14.6261 6.26134 15.015 6 15.4097 6V4C14.114 4 12.995 4.84938 12.58 6.06398L14.4725 6.71067ZM12.3769 12.8435L14.4725 6.71067L12.58 6.06398L10.4844 12.1969L12.3769 12.8435Z" fill="black"/>
<path d="M2 12.3617C1.44772 12.3617 1 12.8094 1 13.3617C1 13.914 1.44772 14.3617 2 14.3617V12.3617ZM5.59373 14.2925L6.43683 13.7548L5.59373 14.2925ZM8.44788 18.7673L9.29098 18.2295L9.29098 18.2295L8.44788 18.7673ZM9.33477 18.6531L10.2811 18.9765V18.9765L9.33477 18.6531ZM2 14.3617H3.92963V12.3617H2V14.3617ZM4.75063 14.8303L7.60478 19.305L9.29098 18.2295L6.43683 13.7548L4.75063 14.8303ZM7.60478 19.305C8.29789 20.3917 9.88046 20.1488 10.2811 18.9765L8.38849 18.3298C8.5125 17.9669 9.05401 17.858 9.29098 18.2295L7.60478 19.305ZM3.92963 14.3617C4.24398 14.3617 4.55636 14.5257 4.75063 14.8303L6.43683 13.7548C5.88925 12.8963 4.95269 12.3617 3.92963 12.3617V14.3617ZM10.2811 18.9765L12.3766 12.8436L10.4841 12.1969L8.38849 18.3298L10.2811 18.9765Z" fill="#667085"/>
</svg>
