<svg width="24" height="24" viewBox="0 0 24 24" fill="none" xmlns="http://www.w3.org/2000/svg">
<path d="M2 15.1716V8.82843C2 8.29799 2.21071 7.78929 2.58579 7.41421L7.41421 2.58579C7.78929 2.21071 8.29799 2 8.82843 2H15.1716C15.702 2 16.2107 2.21071 16.5858 2.58579L21.4142 7.41421C21.7893 7.78929 22 8.29799 22 8.82843V15.1716C22 15.702 21.7893 16.2107 21.4142 16.5858L16.5858 21.4142C16.2107 21.7893 15.702 22 15.1716 22H8.82843C8.29799 22 7.78929 21.7893 7.41421 21.4142L2.58579 16.5858C2.21071 16.2107 2 15.702 2 15.1716Z" stroke="#667085" stroke-width="2" stroke-linecap="round" stroke-linejoin="round"/>
<path d="M7 12.7781H7.96482C8.29917 12.7781 8.6114 12.9777 8.79687 13.31L10.2239 15.867C10.338 16.0713 10.5982 16.033 10.6674 15.8018L12.763 8.79276C12.9051 8.31735 13.2821 8 13.7047 8H17" stroke="black" stroke-width="2" stroke-linecap="round" stroke-linejoin="round"/>
</svg>
