<svg width="24" height="24" viewBox="0 0 24 24" fill="none" xmlns="http://www.w3.org/2000/svg">
<path d="M23 8C23 7.44772 22.5523 7 22 7C21.4477 7 21 7.44772 21 8H23ZM15.6304 14.9043L15.0057 15.6852L15.6304 14.9043ZM21 8V13H23V8H21ZM19 15H18.7539V17H19V15ZM16.2551 14.1235L12.6247 11.2191L11.3753 12.7809L15.0057 15.6852L16.2551 14.1235ZM18.7539 15C17.8456 15 16.9644 14.6909 16.2551 14.1235L15.0057 15.6852C16.0696 16.5363 17.3915 17 18.7539 17V15ZM21 13C21 14.1046 20.1046 15 19 15V17C21.2091 17 23 15.2091 23 13H21Z" fill="black"/>
<path d="M1 16C1 16.5523 1.44772 17 2 17C2.55229 17 3 16.5523 3 16H1ZM8.36957 9.09566L7.74488 9.87653L8.36957 9.09566ZM1 11L1 16H3L3 11L1 11ZM5.24609 7H5V9H5.24609L5.24609 7ZM12.6247 11.2191L8.99427 8.31479L7.74488 9.87653L11.3753 12.7809L12.6247 11.2191ZM5.24609 9C6.15438 9 7.03562 9.30912 7.74488 9.87653L8.99427 8.31479C7.93039 7.46369 6.60852 7 5.24609 7L5.24609 9ZM3 11C3 9.89543 3.89543 9 5 9V7C2.79086 7 1 8.79086 1 11L3 11Z" fill="#667085"/>
</svg>
