<svg width="24" height="24" viewBox="0 0 24 24" fill="none" xmlns="http://www.w3.org/2000/svg">
<path d="M22.848 12.53C23.1407 12.0617 22.9983 11.4447 22.53 11.152C22.0617 10.8593 21.4447 11.0017 21.152 11.47L22.848 12.53ZM15.728 17.9648L14.88 18.4948L15.728 17.9648ZM21.152 11.47L17.424 17.4348L19.12 18.4948L22.848 12.53L21.152 11.47ZM16.576 17.4348L12.848 11.47L11.152 12.53L14.88 18.4948L16.576 17.4348ZM17.424 17.4348C17.2282 17.7481 16.7718 17.7481 16.576 17.4348L14.88 18.4948C15.8592 20.0615 18.1408 20.0615 19.12 18.4948L17.424 17.4348Z" fill="black"/>
<path d="M1.152 11.47C0.859291 11.9383 1.00166 12.5553 1.47 12.848C1.93834 13.1407 2.55529 12.9983 2.848 12.53L1.152 11.47ZM8.272 6.0352L7.424 6.56519L8.272 6.0352ZM4.88 5.5052L1.152 11.47L2.848 12.53L6.576 6.56519L4.88 5.5052ZM12.848 11.47L9.12 5.5052L7.424 6.56519L11.152 12.53L12.848 11.47ZM6.576 6.56519C6.77183 6.25186 7.22817 6.25186 7.424 6.56519L9.12 5.5052C8.14083 3.93853 5.85917 3.93853 4.88 5.5052L6.576 6.56519Z" fill="#667085"/>
</svg>
