<svg width="24" height="24" viewBox="0 0 24 24" fill="none" xmlns="http://www.w3.org/2000/svg">
<path fill-rule="evenodd" clip-rule="evenodd" d="M19.5886 8.87053C19.7578 8.42712 19.9338 8.01576 20.1245 7.64317C20.7491 6.42313 21.3357 6 22 6C22.5523 6 23 5.55228 23 5C23 4.44772 22.5523 4 22 4C20.3173 4 19.2521 5.11487 18.5323 6.38282C18.9174 7.13863 19.2668 8.0038 19.5649 8.80649C19.5728 8.82782 19.5807 8.84917 19.5886 8.87053ZM17.4551 8.88809C17.8117 9.79335 18.1435 10.7676 18.4223 11.6184C18.4656 11.7506 18.5076 11.8797 18.5482 12.0052C18.5165 12.1049 18.4844 12.2052 18.452 12.306L18.4276 12.3821L18.4276 12.3821C18.1356 13.2907 17.8291 14.2444 17.4693 15.1526C17.4077 14.9764 17.3471 14.7983 17.2873 14.6191C17.1257 14.1342 16.9703 13.6409 16.8167 13.1533L16.8167 13.1533C16.7237 12.864 16.6249 12.557 16.5215 12.2406C16.4966 12.1644 16.4715 12.0877 16.4461 12.0106C16.4799 11.9057 16.5139 11.8001 16.548 11.694C16.6375 11.4156 16.7267 11.1323 16.8166 10.847L16.8167 10.8467C17.0227 10.1928 17.232 9.52845 17.4551 8.88809ZM15.3323 15.0786C15.1375 15.5142 14.9296 15.9168 14.7011 16.2789C13.9871 17.4105 13.1697 18 12 18C10.8303 18 10.0129 17.4105 9.29885 16.2789C8.55215 15.0954 8.02608 13.4799 7.45203 11.694C7.36251 11.4155 7.27324 11.1321 7.18334 10.8468L7.18333 10.8467C6.72829 9.40225 6.25709 7.9065 5.65577 6.73183C4.93657 5.32687 3.83574 4 2 4C1.44772 4 1 4.44772 1 5C1 5.55228 1.44772 6 2 6C2.66426 6 3.25093 6.42313 3.87548 7.64317C4.3926 8.65337 4.80168 9.94859 5.25838 11.3946L5.25839 11.3946C5.35244 11.6924 5.44852 11.9966 5.54797 12.306L5.57243 12.3821C6.11668 14.0757 6.71129 15.9259 7.6074 17.3461C8.54965 18.8395 9.91971 20 12 20C13.9859 20 15.3246 18.9424 16.2617 17.5472C15.9094 16.7603 15.6046 15.9052 15.3323 15.0786Z" fill="#667085"/>
<path fill-rule="evenodd" clip-rule="evenodd" d="M8.66791 8.92163C8.39575 8.09549 8.09118 7.24073 7.73904 6.4542C8.67304 5.06357 9.99533 4 12 4C14.0803 4 15.4504 5.16051 16.3926 6.65389C17.2887 8.07414 17.8833 9.92435 18.4276 11.6179L18.452 11.694C18.5515 12.0034 18.6476 12.3076 18.7416 12.6054L18.7416 12.6054C19.1983 14.0514 19.6074 15.3466 20.1245 16.3568C20.7491 17.5769 21.3357 18 22 18C22.5523 18 23 18.4477 23 19C23 19.5523 22.5523 20 22 20C20.1643 20 19.0634 18.6731 18.3442 17.2682C17.7429 16.0935 17.2717 14.5977 16.8167 13.1533L16.8166 13.1529C16.7267 12.8677 16.6375 12.5844 16.548 12.306C15.9739 10.5201 15.4478 8.90456 14.7011 7.72111C13.9871 6.58949 13.1697 6 12 6C10.5019 6 9.5355 6.98866 8.67347 8.90945C8.67164 8.91353 8.66979 8.91758 8.66791 8.92163ZM4.39692 15.1659C4.69753 15.9915 5.04559 16.838 5.46255 17.6266C5.25028 18.0001 5.01573 18.3475 4.75276 18.6542C4.07615 19.4434 3.17457 20 2 20C1.44772 20 1 19.5523 1 19C1 18.4477 1.44772 18 2 18C2.45719 18 2.84122 17.8111 3.23443 17.3524C3.65134 16.8662 4.02653 16.1302 4.39692 15.1659Z" fill="black"/>
</svg>
