<svg width="24" height="24" viewBox="0 0 24 24" fill="none" xmlns="http://www.w3.org/2000/svg">
<path d="M22 15C22.5523 15 23 14.5523 23 14C23 13.4477 22.5523 13 22 13V15ZM17 16V18H19V16H17ZM16 19H14V21H16V19ZM20 15H22V13H20V15ZM13 18V12H11V18H13ZM14 19C13.4477 19 13 18.5523 13 18H11C11 19.6569 12.3431 21 14 21V19ZM17 18C17 18.5523 16.5523 19 16 19V21C17.6569 21 19 19.6569 19 18H17ZM19 16C19 15.4477 19.4477 15 20 15V13C18.3431 13 17 14.3431 17 16H19Z" fill="black"/>
<path d="M2 9C1.44772 9 1 9.44772 1 10C1 10.5523 1.44772 11 2 11V9ZM5 6V8H7L7 6L5 6ZM10 3L8 3V5H10V3ZM4 9H2V11H4V9ZM13 12V6H11V12H13ZM10 5C10.5523 5 11 5.44772 11 6H13C13 4.34315 11.6569 3 10 3V5ZM5 8C5 8.55229 4.55228 9 4 9V11C5.65685 11 7 9.65685 7 8H5ZM7 6C7 5.44772 7.44772 5 8 5V3C6.34315 3 5 4.34315 5 6L7 6Z" fill="#667085"/>
</svg>
