<svg width="24" height="24" viewBox="0 0 24 24" fill="none" xmlns="http://www.w3.org/2000/svg">
<path d="M22.9965 13.083C23.0424 12.5327 22.6334 12.0493 22.083 12.0035C21.5327 11.9576 21.0493 12.3666 21.0035 12.917L22.9965 13.083ZM22 13C21.0035 12.917 21.0035 12.9167 21.0035 12.9164C21.0035 12.9163 21.0035 12.9161 21.0035 12.9159C21.0036 12.9157 21.0036 12.9155 21.0036 12.9155C21.0036 12.9153 21.0036 12.9155 21.0035 12.9161C21.0034 12.9172 21.0032 12.9197 21.0028 12.9235C21.0021 12.9312 21.0008 12.9443 20.9989 12.9624C20.9951 12.9986 20.9888 13.0548 20.9792 13.128C20.96 13.2746 20.928 13.4884 20.8778 13.7466C20.7765 14.2675 20.6052 14.9474 20.3269 15.6154C19.7491 17.0021 18.8748 18 17.5 18V20C20.1252 20 21.5009 17.9979 22.1731 16.3846C22.5198 15.5526 22.7235 14.7325 22.841 14.1284C22.9002 13.8241 22.9385 13.5691 22.9622 13.3877C22.9741 13.2968 22.9824 13.224 22.9879 13.1724C22.9906 13.1465 22.9926 13.1259 22.994 13.1109C22.9948 13.1034 22.9953 13.0973 22.9957 13.0926C22.9959 13.0903 22.9961 13.0883 22.9962 13.0867C22.9963 13.0859 22.9964 13.0852 22.9964 13.0846C22.9964 13.0843 22.9965 13.0839 22.9965 13.0838C22.9965 13.0834 22.9965 13.083 22 13ZM17.5 18C16.3303 18 15.5129 17.4105 14.7989 16.2789C14.0522 15.0954 13.5261 13.4799 12.952 11.694L11.048 12.306C11.5989 14.0201 12.1978 15.9046 13.1074 17.3461C14.0496 18.8395 15.4197 20 17.5 20V18Z" fill="black"/>
<path d="M1.00345 10.917C0.95759 11.4673 1.36658 11.9507 1.91695 11.9965C2.46733 12.0424 2.95068 11.6334 2.99655 11.083L1.00345 10.917ZM6.5 4C3.8748 4 2.49914 6.00206 1.82692 7.61539C1.48024 8.44743 1.27649 9.26746 1.15901 9.87163C1.09984 10.1759 1.06152 10.4309 1.03776 10.6123C1.02587 10.7032 1.01757 10.776 1.01212 10.8276C1.00939 10.8535 1.00736 10.8741 1.00595 10.8891C1.00525 10.8966 1.00469 10.9027 1.00428 10.9074C1.00408 10.9097 1.0039 10.9117 1.00377 10.9133C1.0037 10.9141 1.00364 10.9148 1.00359 10.9154C1.00356 10.9157 1.00353 10.9161 1.00351 10.9162C1.00348 10.9166 1.00345 10.917 2 11C2.99655 11.083 2.99652 11.0833 2.9965 11.0836C2.99649 11.0837 2.99647 11.0839 2.99646 11.0841C2.99644 11.0843 2.99643 11.0845 2.99642 11.0846C2.99641 11.0847 2.99642 11.0845 2.99647 11.0839C2.99657 11.0828 2.9968 11.0803 2.99716 11.0765C2.99788 11.0688 2.99916 11.0557 3.00107 11.0376C3.00489 11.0014 3.01124 10.9452 3.02083 10.872C3.04004 10.7254 3.07203 10.5116 3.12224 10.2534C3.22351 9.73254 3.39476 9.05258 3.67308 8.38462C4.25086 6.99794 5.1252 6 6.5 6V4ZM12.952 11.694C12.4011 9.97994 11.8022 8.09544 10.8926 6.65389C9.95035 5.16051 8.58029 4 6.5 4V6C7.66971 6 8.48715 6.58949 9.20115 7.72111C9.94785 8.90456 10.4739 10.5201 11.048 12.306L12.952 11.694Z" fill="#667085"/>
</svg>
