<svg width="24" height="24" viewBox="0 0 24 24" fill="none" xmlns="http://www.w3.org/2000/svg">
<path d="M12 22C6.47715 22 2 17.5228 2 12C2 6.47715 6.47715 2 12 2M12 2C16.1006 2 19.6248 4.46819 21.1679 8M22 12C22 16.1006 19.5318 19.6248 16 21.1679M7.4924 15.8511L9.5273 11.103C9.83074 10.3949 10.3949 9.83074 11.103 9.5273L15.8511 7.4924C16.2659 7.3146 16.6854 7.73407 16.5076 8.14893L14.4727 12.897C14.1693 13.6051 13.6051 14.1693 12.897 14.4727L8.14893 16.5076C7.73407 16.6854 7.3146 16.2659 7.4924 15.8511Z" stroke="black" stroke-width="2" stroke-linecap="round" stroke-linejoin="round"/>
</svg>
