<svg width="24" height="24" viewBox="0 0 24 24" fill="none" xmlns="http://www.w3.org/2000/svg">
<path d="M12 22C16.6596 22 20.5748 18.8131 21.685 14.5M12 22C10.0519 20.1257 8.86283 17.4062 8.43276 14.5M12 22C13.9481 20.1257 15.1372 17.4062 15.5672 14.5M12 22C9.74879 22 7.67132 21.2561 6 20.0007M2.31504 14.5C2.10938 13.7009 2 12.8632 2 12C2 11.1368 2.10938 10.299 2.31504 9.5M2.31504 14.5H8.43276M2.31504 14.5C2.54332 15.3869 2.89022 16.2262 3.33782 17M21.685 14.5C21.8906 13.7009 22 12.8632 22 12C22 11.1368 21.8906 10.299 21.685 9.5M21.685 14.5H15.5672M12 2C7.3404 2 3.42515 5.18693 2.31504 9.5M12 2C10.0519 3.87425 8.86283 6.59382 8.43276 9.5M12 2C13.9481 3.87425 15.1372 6.59382 15.5672 9.5M12 2C14.2512 2 16.3287 2.74389 18 3.99927M21.685 9.5H15.5672M21.685 9.5C21.4567 8.61307 21.1098 7.77377 20.6622 7M2.31504 9.5H8.43276M8.43276 9.5C8.18908 11.1467 8.18908 12.8533 8.43276 14.5M8.43276 9.5H15.5672M8.43276 14.5H15.5672M15.5672 9.5C15.8109 11.1467 15.8109 12.8533 15.5672 14.5" stroke="black" stroke-width="2" stroke-linecap="round" stroke-linejoin="round"/>
</svg>
