<svg width="24" height="24" viewBox="0 0 24 24" fill="none" xmlns="http://www.w3.org/2000/svg">
<path d="M12 22C17.5228 22 22 17.5228 22 12M12 22C7 17.1895 7 6.81049 12 2M12 22C17 17.1895 17 6.81049 12 2M2 12C2 6.47715 6.47715 2 12 2M2 12C6.81049 17 17.1895 17 22 12M2 12C6.81049 7 17.1895 7 22 12M21.1679 8C21.7031 9.22492 22 10.5778 22 12M12 2C14.5361 2 16.8517 2.94409 18.6146 4.5M2.04938 13C2.01672 12.6711 2 12.3375 2 12M12 22C8.29859 22 5.06687 19.989 3.33782 17" stroke="black" stroke-width="2" stroke-linecap="round"/>
</svg>
