<svg width="24" height="24" viewBox="0 0 24 24" fill="none" xmlns="http://www.w3.org/2000/svg">
<path d="M12 19C15.866 19 19 15.866 19 12M12 19V22M12 19C9.76904 19 7.78183 17.9563 6.5 16.3306M5 12C5 8.13401 8.13401 5 12 5M5 12H2M5 12C5 12.3395 5.02417 12.6734 5.07089 13M19 12H22M19 12C19 11.305 18.8987 10.6337 18.7101 10M12 5V2M12 5C13.7135 5 15.2832 5.61568 16.5 6.63789M12 14C10.8954 14 10 13.1046 10 12C10 10.8954 10.8954 10 12 10C13.1046 10 14 10.8954 14 12C14 13.1046 13.1046 14 12 14Z" stroke="black" stroke-width="2" stroke-linecap="round" stroke-linejoin="round"/>
</svg>
