<svg width="24" height="24" viewBox="0 0 24 24" fill="none" xmlns="http://www.w3.org/2000/svg">
<path fill-rule="evenodd" clip-rule="evenodd" d="M4.78091 1.37534C4.4359 0.94408 3.8066 0.874158 3.37534 1.21917C2.94408 1.56418 2.87416 2.19347 3.21917 2.62473L5.52952 5.51268L15.1957 17.5954L19.2192 22.6247C19.5642 23.056 20.1935 23.1259 20.6247 22.7809C21.056 22.4359 21.1259 21.8066 20.7809 21.3753L17.2078 16.909C18.1565 15.4236 18.8355 14.1971 19.2841 13.0196C19.8022 11.6593 20 10.3995 20 8.91999C20 8.15808 19.8911 7.4197 19.6871 6.72016C19.5326 6.18995 18.9774 5.88543 18.4472 6.04C17.917 6.19457 17.6125 6.7497 17.7671 7.27991C17.9186 7.7996 18 8.34958 18 8.91999C18 10.1929 17.8344 11.2067 17.4151 12.3076C17.0885 13.1648 16.601 14.0943 15.8848 15.2552L12.4415 10.9511C13.3337 10.7501 14 9.9529 14 9.00004C14 7.89547 13.1046 7.00004 12 7.00004C11.203 7.00004 10.5148 7.46631 10.1934 8.14098L7.59825 4.89703C8.69381 3.73055 10.2591 3.00004 12 3.00004C13.4728 3.00004 14.8181 3.52228 15.8611 4.38849C16.286 4.74134 16.9165 4.68296 17.2693 4.25809C17.6222 3.83322 17.5638 3.20275 17.1389 2.8499C15.7484 1.69507 13.9543 1.00004 12 1.00004C9.79041 1.00004 7.78783 1.88785 6.33944 3.3235L4.78091 1.37534ZM6.02481 8.3777C6.07532 7.82773 5.67043 7.34094 5.12046 7.29043C4.57049 7.23992 4.0837 7.64481 4.03319 8.19478C4.01123 8.43386 4.00004 8.67576 4.00004 8.91999C4.00004 11.8149 4.76818 13.7598 6.87665 17.0406C7.17523 17.5053 7.79393 17.6398 8.25854 17.3413C8.72315 17.0427 8.85774 16.424 8.55916 15.9594C6.55542 12.8415 6.00004 11.278 6.00004 8.91999C6.00004 8.73692 6.00843 8.55605 6.02481 8.3777ZM14.9648 20.2464C15.2789 19.7921 15.1652 19.1693 14.7109 18.8552C14.2566 18.5412 13.6337 18.6549 13.3197 19.1092C12.9143 19.6956 12.4777 20.3232 12.007 20.9993C12.0054 20.9997 12.0031 21 12 21C11.997 21 11.9946 20.9997 11.9931 20.9993C11.5769 20.4014 11.1872 19.8414 10.8222 19.3141C10.5079 18.8601 9.88491 18.7468 9.43082 19.0612C8.97674 19.3755 8.86348 19.9985 9.17785 20.4526C9.54469 20.9824 9.93592 21.5448 10.3523 22.143C11.1478 23.2857 12.8522 23.2857 13.6477 22.143C14.1185 21.4667 14.5572 20.8362 14.9648 20.2464Z" fill="black"/>
</svg>
