<svg width="24" height="24" viewBox="0 0 24 24" fill="none" xmlns="http://www.w3.org/2000/svg">
<path d="M5 8.91995C5 12.6683 6.34786 14.6401 11.173 21.5716C11.3718 21.8572 11.6859 22 12 22M12 2C15.866 2 19 5.09817 19 8.91995C19 10.0461 18.8783 11.0119 18.5773 12M13.5 17.5H18.5M18.5 17.5L16.5 15.5M18.5 17.5L16.5 19.5M12 11C10.8954 11 10 10.1046 10 9C10 7.89543 10.8954 7 12 7C13.1046 7 14 7.89543 14 9C14 10.1046 13.1046 11 12 11Z" stroke="black" stroke-width="2" stroke-linecap="round" stroke-linejoin="round"/>
<path d="M5 8.91995C5 8.25379 5.09522 7.60962 5.27294 7M12 2C10.2865 2 8.71677 2.60864 7.5 3.61916" stroke="black" stroke-width="2" stroke-linecap="round" stroke-linejoin="round"/>
</svg>
