<svg width="24" height="24" viewBox="0 0 24 24" fill="none" xmlns="http://www.w3.org/2000/svg">
<path d="M13.5 18L15 19.5L18.5 16M18.5773 12C18.8783 11.0119 19 10.0461 19 8.91995C19 8.25379 18.9048 7.60962 18.7271 7C18.3371 5.66237 17.55 4.49114 16.5 3.61916C15.2832 2.60864 13.7135 2 12 2C10.2865 2 8.71677 2.60864 7.5 3.61916M12 22C11.6859 22 11.3718 21.8572 11.173 21.5716C6.34786 14.6401 5 12.6683 5 8.91995C5 8.25379 5.09522 7.60962 5.27294 7M12 11C10.8954 11 10 10.1046 10 9C10 7.89543 10.8954 7 12 7C13.1046 7 14 7.89543 14 9C14 10.1046 13.1046 11 12 11Z" stroke="black" stroke-width="2" stroke-linecap="round" stroke-linejoin="round"/>
</svg>
