<svg width="24" height="24" viewBox="0 0 24 24" fill="none" xmlns="http://www.w3.org/2000/svg">
<path d="M11.173 21.5716C11.5706 22.1428 12.4294 22.1428 12.827 21.5716C17.6521 14.6401 19 12.6683 19 8.91995M5 8.91995C5 5.09817 8.13401 2 12 2M12 9.5L14 7.5M12 9.5L10 11.5M12 9.5L14 11.5M12 9.5L10 7.5M18.7271 7C18.9048 7.60962 19 8.25379 19 8.91995M12 2C13.7135 2 15.2832 2.60864 16.5 3.61916M11.173 21.5716C10.7566 20.9734 10.366 20.412 10 19.8833M7.71786 16.5C5.66176 13.3006 5 11.5464 5 8.91995" stroke="black" stroke-width="2" stroke-linecap="round" stroke-linejoin="round"/>
</svg>
