<svg width="24" height="24" viewBox="0 0 24 24" fill="none" xmlns="http://www.w3.org/2000/svg">
<path d="M11.173 21.5716C11.5706 22.1428 12.4294 22.1428 12.827 21.5716C13.2978 20.8952 13.7356 20.266 14.1422 19.6778M5 8.91995C5 8.70631 5.00979 8.49492 5.02896 8.2862M19 8.91995C19 11.6724 18.2732 13.4669 15.9765 16.9707M15.9765 16.9707L10.9734 10.7168M15.9765 16.9707L20 22M12 2C9.65582 2 7.58077 3.13911 6.31036 4.88794M6.31036 4.88794L4 2M6.31036 4.88794L10.0993 9.62414M10.9734 10.7168C11.2735 10.8966 11.6247 11 12 11C13.1046 11 14 10.1046 14 9C14 7.89543 13.1046 7 12 7C10.8954 7 10 7.89543 10 9C10 9.21795 10.0349 9.42775 10.0993 9.62414M10.9734 10.7168L10.0993 9.62414M18.7271 7C18.9048 7.60962 19 8.25379 19 8.91995M12 2C13.7135 2 15.2832 2.60864 16.5 3.61916M11.173 21.5716C10.7566 20.9734 10.366 20.412 10 19.8833M7.71786 16.5C5.66176 13.3006 5 11.5464 5 8.91995" stroke="black" stroke-width="2" stroke-linecap="round" stroke-linejoin="round"/>
</svg>
