<svg width="24" height="24" viewBox="0 0 24 24" fill="none" xmlns="http://www.w3.org/2000/svg">
<path fill-rule="evenodd" clip-rule="evenodd" d="M12 1C7.5926 1 4 4.53507 4 8.91995C4 11.8149 4.76814 13.7597 6.87661 17.0406C7.17519 17.5052 7.79389 17.6398 8.2585 17.3412C8.72311 17.0426 8.85771 16.4239 8.55912 15.9593C6.55538 12.8414 6 11.2779 6 8.91995C6 5.66127 8.67542 3 12 3C13.4728 3 14.8181 3.52225 15.8611 4.38845C16.286 4.7413 16.9164 4.68292 17.2693 4.25805C17.6221 3.83318 17.5638 3.20271 17.1389 2.84986C15.7484 1.69503 13.9542 1 12 1ZM19.6871 6.72012C19.5325 6.18991 18.9774 5.88539 18.4472 6.03996C17.917 6.19454 17.6125 6.74966 17.767 7.27988C17.9185 7.79957 18 8.34955 18 8.91995C18 12.291 16.8877 13.9878 12.0069 20.9993C12.0054 20.9996 12.0031 21 12 21C11.9969 21 11.9946 20.9996 11.9931 20.9993C11.5768 20.4014 11.1872 19.8413 10.8222 19.3141C10.5078 18.86 9.88487 18.7468 9.43079 19.0611C8.9767 19.3755 8.86344 19.9984 9.17781 20.4525C9.54465 20.9824 9.93588 21.5447 10.3523 22.1429C11.1478 23.2857 12.8522 23.2857 13.6477 22.1429L13.7428 22.0063C18.4377 15.2621 20 13.0179 20 8.91995C20 8.15804 19.891 7.41967 19.6871 6.72012ZM12 11C10.8954 11 10 10.1046 10 9C10 7.89543 10.8954 7 12 7C13.1046 7 14 7.89543 14 9C14 10.1046 13.1046 11 12 11Z" fill="black"/>
</svg>
