<svg width="24" height="24" viewBox="0 0 24 24" fill="none" xmlns="http://www.w3.org/2000/svg">
<path d="M12 10C9.79086 10 8 8.20914 8 6C8 3.79086 9.79086 2 12 2C12.5305 2 13.0368 2.10325 13.5 2.29076M12 10C14.2091 10 16 8.20914 16 6C16 5.6547 15.9562 5.31962 15.874 5M12 10V18M16 14.3328C19.5318 14.9501 22 16.3597 22 18C22 20.2091 17.5228 22 12 22C10.1786 22 8.47087 21.8052 7 21.4649M8 14.3328C4.46819 14.9501 2 16.3597 2 18C2 18.6259 2.35934 19.2181 3 19.7456" stroke="black" stroke-width="2" stroke-linecap="round" stroke-linejoin="round"/>
</svg>
