<svg width="24" height="24" viewBox="0 0 24 24" fill="none" xmlns="http://www.w3.org/2000/svg">
<path d="M7 19H12.5M16.49 19H16.5M16.49 15H16.5M16.49 11H16.5M11.99 15H12M11.99 11H12M7.49 15H7.5M7.49 11H7.5M4 6V5C4 3.34315 5.34315 2 7 2H17C18.6569 2 20 3.34315 20 5V19C20 20.6569 18.6569 22 17 22H16M4 10V19C4 20.6569 5.34315 22 7 22H12M8.5 5H15.5C16.3284 5 17 5.67157 17 6.5C17 7.32843 16.3284 8 15.5 8H8.5C7.67157 8 7 7.32843 7 6.5C7 5.67157 7.67157 5 8.5 5Z" stroke="black" stroke-width="2" stroke-linecap="round" stroke-linejoin="round"/>
</svg>
