<svg width="24" height="24" viewBox="0 0 24 24" fill="none" xmlns="http://www.w3.org/2000/svg">
<path d="M7.41421 2.58579C7.78929 2.21071 8.29799 2 8.82843 2H15.1716C15.702 2 16.2107 2.21071 16.5858 2.58579L21.4142 7.41421C21.7893 7.78929 22 8.29799 22 8.82843V15.1716C22 15.702 21.7893 16.2107 21.4142 16.5858L16.5858 21.4142C16.2107 21.7893 15.702 22 15.1716 22M2.58579 7.41421C2.21071 7.78929 2 8.29799 2 8.82843V15.1716C2 15.702 2.21071 16.2107 2.58579 16.5858L7.41421 21.4142C7.78929 21.7893 8.29799 22 8.82843 22M15.5 8.5L11.9999 11.9999L8.5 15.5M8.51 8.5H8.5M15.49 15.5H15.5M3.50015 6.49991L2.58594 7.41412M7.41436 2.58569L6.50015 3.49991M14.0002 21.9999H15.1717M8.82858 21.9999H10.0002" stroke="black" stroke-width="2" stroke-linecap="round" stroke-linejoin="round"/>
</svg>
