<svg width="24" height="24" viewBox="0 0 24 24" fill="none" xmlns="http://www.w3.org/2000/svg">
<path d="M21.4142 7.41421L20.7071 8.12132L21.4142 7.41421ZM16.5858 2.58579L17.2929 1.87868V1.87868L16.5858 2.58579ZM16.5858 21.4142L17.2929 22.1213H17.2929L16.5858 21.4142ZM21.4142 16.5858L22.1213 17.2929V17.2929L21.4142 16.5858ZM2.58579 16.5858L1.87868 17.2929L1.87868 17.2929L2.58579 16.5858ZM7.41421 21.4142L6.70711 22.1213H6.70711L7.41421 21.4142ZM17 13C17.5523 13 18 12.5523 18 12C18 11.4477 17.5523 11 17 11V13ZM7 11C6.44772 11 6 11.4477 6 12C6 12.5523 6.44772 13 7 13V11ZM11.99 7C11.4377 7 10.99 7.44772 10.99 8C10.99 8.55228 11.4377 9 11.99 9V7ZM12.01 9C12.5623 9 13.01 8.55228 13.01 8C13.01 7.44772 12.5623 7 12.01 7V9ZM11.9902 15C11.4379 15 10.9902 15.4477 10.9902 16C10.9902 16.5523 11.4379 17 11.9902 17V15ZM12.0102 17C12.5625 17 13.0102 16.5523 13.0102 16C13.0102 15.4477 12.5625 15 12.0102 15V17ZM4.20726 7.20701C4.59778 6.81649 4.59778 6.18332 4.20726 5.7928C3.81673 5.40228 3.18357 5.40228 2.79304 5.7928L4.20726 7.20701ZM5.79304 2.7928C5.40252 3.18332 5.40252 3.81649 5.79304 4.20701C6.18357 4.59754 6.81673 4.59754 7.20726 4.20701L5.79304 2.7928ZM14.0002 20.9999C13.4479 20.9999 13.0002 21.4476 13.0002 21.9999C13.0002 22.5522 13.4479 22.9999 14.0002 22.9999V20.9999ZM10.0002 22.9999C10.5524 22.9999 11.0002 22.5522 11.0002 21.9999C11.0002 21.4476 10.5524 20.9999 10.0002 20.9999V22.9999ZM1 8.82843V15.1716H3V8.82843H1ZM23 15.1716V8.82843H21V15.1716H23ZM22.1213 6.70711L17.2929 1.87868L15.8787 3.29289L20.7071 8.12132L22.1213 6.70711ZM15.1716 1H8.82843V3H15.1716V1ZM17.2929 22.1213L22.1213 17.2929L20.7071 15.8787L15.8787 20.7071L17.2929 22.1213ZM1.87868 17.2929L6.70711 22.1213L8.12132 20.7071L3.29289 15.8787L1.87868 17.2929ZM6.70711 22.1213C7.26972 22.6839 8.03278 23 8.82843 23V21C8.56321 21 8.30886 20.8946 8.12132 20.7071L6.70711 22.1213ZM17.2929 1.87868C16.7303 1.31607 15.9672 1 15.1716 1V3C15.4368 3 15.6911 3.10536 15.8787 3.29289L17.2929 1.87868ZM21 15.1716C21 15.4368 20.8946 15.6911 20.7071 15.8787L22.1213 17.2929C22.6839 16.7303 23 15.9672 23 15.1716H21ZM1 15.1716C1 15.9672 1.31607 16.7303 1.87868 17.2929L3.29289 15.8787C3.10536 15.6911 3 15.4368 3 15.1716H1ZM23 8.82843C23 8.03278 22.6839 7.26972 22.1213 6.70711L20.7071 8.12132C20.8946 8.30886 21 8.56321 21 8.82843H23ZM15.8787 20.7071C15.6911 20.8946 15.4368 21 15.1716 21V23C15.9672 23 16.7303 22.6839 17.2929 22.1213L15.8787 20.7071ZM3 8.82843C3 8.56321 3.10536 8.30886 3.29289 8.12132L1.87868 6.70711C1.31607 7.26972 1 8.03278 1 8.82843H3ZM8.12132 3.29289C8.30886 3.10536 8.56321 3 8.82843 3V1C8.03278 1 7.26972 1.31607 6.70711 1.87868L8.12132 3.29289ZM12 13H17V11H12V13ZM12 11H7V13H12V11ZM11.99 9H12.01V7H11.99V9ZM11.9902 17H12.0102V15H11.9902V17ZM2.79304 5.7928L1.87883 6.70701L3.29304 8.12123L4.20726 7.20701L2.79304 5.7928ZM6.70726 1.87859L5.79304 2.7928L7.20726 4.20701L8.12147 3.2928L6.70726 1.87859ZM14.0002 22.9999H15.1717V20.9999H14.0002V22.9999ZM8.82858 22.9999H10.0002V20.9999H8.82858V22.9999Z" fill="black"/>
</svg>
