<svg width="24" height="24" viewBox="0 0 24 24" fill="none" xmlns="http://www.w3.org/2000/svg">
<path d="M17 21C19.2091 21 21 19.2091 21 17V7C21 4.79086 19.2091 3 17 3H7C4.79086 3 3 4.79086 3 7M7 21C4.79086 21 3 19.2091 3 17M3 8V7M3 17V12M17 21H16M12 21H7" stroke="black" stroke-width="2" stroke-linecap="round" stroke-linejoin="round"/>
<path d="M7 7H9M16.4762 17H16C14.8954 17 14 16.1046 14 15V7M17 7H14M9 7V17M9 7H14" stroke="black" stroke-width="2" stroke-linecap="round" stroke-linejoin="round"/>
</svg>
