<svg width="24" height="24" viewBox="0 0 24 24" fill="none" xmlns="http://www.w3.org/2000/svg">
<path d="M5.89539 16C7.3056 18.9634 10.2339 21 13.6177 21C16.7491 21 19.4904 19.2559 20.9996 16.6471C20.0744 17.129 19.0309 17.4 17.9267 17.4C16.2109 17.4 14.6415 16.7454 13.4349 15.6624M5.01367 11.4807C5.27129 6.75178 9.02494 3 13.6177 3C14.4061 3 15.1698 3.11056 15.8953 3.31764C13.4288 4.11067 11.5525 6.30991 11.1245 9.01917" stroke="#667085" stroke-width="2" stroke-linecap="round" stroke-linejoin="round"/>
<path d="M5.41345 11.4556C5.40455 11.3607 5.4 11.2647 5.4 11.1676C5.4 9.41819 6.87746 8 8.7 8C9.65877 8 10.522 8.39247 11.125 9.01917C11.4719 9.37983 11.7327 9.81806 11.8758 10.3037H12.0328C13.6715 10.3037 15 11.5789 15 13.1519C15 14.2379 14.3667 15.1819 13.4353 15.6624C13.0177 15.8778 12.5401 16 12.0328 16H5.89582H5.36719C4.05983 16 3 14.9827 3 13.7278C3 12.588 3.87421 11.6443 5.01411 11.4807C5.1293 11.4641 5.2472 11.4556 5.36719 11.4556H5.41345Z" stroke="black" stroke-width="2" stroke-linecap="round" stroke-linejoin="round"/>
</svg>
