<svg width="24" height="24" viewBox="0 0 24 24" fill="none" xmlns="http://www.w3.org/2000/svg">
<path d="M5.02544 16.1698C3.2198 15.0561 2 12.9343 2 10.5C2 6.91015 4.65269 4 7.92496 4C8.46698 4 8.99201 4.07985 9.4908 4.22941C7.55466 4.88338 6.14747 6.8614 6.14747 9.2C6.14747 10.8182 6.8212 12.2637 7.87772 13.2174" stroke="#667085" stroke-width="2" stroke-linecap="round" stroke-linejoin="round"/>
<path d="M8.41906 13.1834C8.40644 13.0411 8.4 12.897 8.4 12.7514C8.4 10.1273 10.4931 8 13.075 8C15.2149 8 17.019 9.46127 17.574 11.4556H17.7965C20.118 11.4556 22 13.3683 22 15.7278C22 18.0873 20.118 20 17.7965 20H8.35352C6.50142 20 5 18.474 5 16.5917C5 16.4488 5.00865 16.308 5.02544 16.1698C5.2106 14.6454 6.38621 13.4327 7.87772 13.2174C8.03314 13.195 8.19199 13.1834 8.35352 13.1834H8.41906Z" stroke="#121A26" stroke-width="2" stroke-linecap="round" stroke-linejoin="round"/>
<path d="M20.7867 3.19252C20.6799 2.93583 20.3161 2.93583 20.2094 3.19252L19.7158 4.37894C19.671 4.48645 19.5702 4.5602 19.4542 4.57028L18.286 4.67183C18.0179 4.69513 17.9026 5.0236 18.0972 5.20931L18.9846 6.05583C19.0651 6.13259 19.0987 6.24631 19.0729 6.35446L18.7724 7.61397C18.7078 7.88439 19.0021 8.09812 19.2394 7.95321L20.3351 7.28418C20.4351 7.22308 20.5609 7.22308 20.661 7.28418L21.7566 7.95321C21.9939 8.09812 22.2882 7.88439 22.2237 7.61397L21.9232 6.35486C21.8974 6.24649 21.9312 6.13255 22.012 6.0558L22.9023 5.20974C23.0976 5.02418 22.9823 4.69508 22.7139 4.67182L21.5419 4.57024C21.4258 4.56018 21.325 4.48643 21.2802 4.37889L20.7867 3.19252Z" fill="#667085"/>
</svg>
