<svg width="24" height="24" viewBox="0 0 24 24" fill="none" xmlns="http://www.w3.org/2000/svg">
<path d="M7.21794 6.75141C7.20606 6.621 7.2 6.48893 7.2 6.35546C7.2 3.95 9.16995 2 11.6 2C13.614 2 15.312 3.3395 15.8344 5.1676H16.0437C18.2287 5.1676 20 6.92095 20 9.0838C20 11.2467 18.2287 13 16.0437 13H11.6H7.15625C5.4131 13 4 11.6012 4 9.8757C4 8.1502 5.4131 6.75141 7.15625 6.75141H7.21794Z" stroke="black" stroke-width="2" stroke-linecap="round" stroke-linejoin="round"/>
<path d="M12 19V16M12 19V22M12 19L14.5301 17.3881M12 19L9.46973 20.6119M12 19L9.47003 17.3878M12 19L14.5304 20.6116" stroke="#667085" stroke-width="2" stroke-linecap="round" stroke-linejoin="round"/>
</svg>
