<svg width="24" height="24" viewBox="0 0 24 24" fill="none" xmlns="http://www.w3.org/2000/svg">
<path d="M7.21794 6.75141C7.20606 6.621 7.2 6.48893 7.2 6.35546C7.2 3.95 9.16995 2 11.6 2C13.614 2 15.312 3.3395 15.8344 5.1676H16.0437C18.2287 5.1676 20 6.92095 20 9.0838C20 11.2467 18.2287 13 16.0437 13H11.6H7.15625C5.4131 13 4 11.6012 4 9.8757C4 8.1502 5.4131 6.75141 7.15625 6.75141H7.21794Z" stroke="black" stroke-width="2" stroke-linecap="round" stroke-linejoin="round"/>
<path d="M19 21.5L18.4303 21.1521C17.9363 20.8504 17.2655 21.0136 17 21.5C16.7345 21.9864 16.0637 22.1496 15.5697 21.8479L14.4303 21.1521C13.9363 20.8504 13.2655 21.0136 13 21.5C12.7345 21.9864 12.0637 22.1496 11.5697 21.8479L10.4303 21.1521C9.9363 20.8504 9.2655 21.0136 9 21.5C8.7345 21.9864 8.0637 22.1496 7.56974 21.8479L6.43026 21.1521C5.9363 20.8504 5.2655 21.0136 5 21.5M19 17.5L18.4303 17.1521C17.9363 16.8504 17.2655 17.0136 17 17.5C16.7345 17.9864 16.0637 18.1496 15.5697 17.8479L14.4303 17.1521C13.9363 16.8504 13.2655 17.0136 13 17.5C12.7345 17.9864 12.0637 18.1496 11.5697 17.8479L10.4303 17.1521C9.9363 16.8504 9.2655 17.0136 9 17.5C8.7345 17.9864 8.0637 18.1496 7.56974 17.8479L6.43026 17.1521C5.9363 16.8504 5.2655 17.0136 5 17.5" stroke="#667085" stroke-width="2" stroke-linecap="round" stroke-linejoin="round"/>
</svg>
