<svg width="24" height="24" viewBox="0 0 24 24" fill="none" xmlns="http://www.w3.org/2000/svg">
<path d="M12.6954 22C7.34077 22 3 17.5228 3 12C3 6.47715 7.34077 2 12.6954 2C13.5823 2 14.4415 2.12284 15.2577 2.35293C12.0895 3.35904 9.78677 6.40216 9.78677 10C9.78677 14.4183 13.2594 18 17.5431 18C18.7852 18 19.9591 17.6988 21 17.1635C19.3022 20.0621 16.2182 22 12.6954 22Z" stroke="#121A26" stroke-width="2" stroke-linecap="round" stroke-linejoin="round"/>
<path d="M19.344 3.23102C19.2158 2.92299 18.7794 2.92299 18.6512 3.23102L18.0589 4.65473C18.0052 4.78375 17.8843 4.87223 17.745 4.88434L16.3432 5.00619C16.0215 5.03415 15.8831 5.42832 16.1167 5.65118L17.1815 6.66699C17.2781 6.7591 17.3184 6.89557 17.2875 7.02535L16.9268 8.53676C16.8494 8.86126 17.2025 9.11775 17.4873 8.94385L18.8021 8.14101C18.9221 8.0677 19.0731 8.0677 19.1932 8.14101L20.5079 8.94385C20.7927 9.11775 21.1458 8.86126 21.0684 8.53676L20.7079 7.02583C20.6769 6.89579 20.7174 6.75906 20.8143 6.66696L21.8828 5.65168C22.1171 5.42902 21.9788 5.0341 21.6567 5.00619L20.2503 4.88429C20.111 4.87222 19.99 4.78372 19.9363 4.65467L19.344 3.23102Z" fill="#667085"/>
</svg>
