<svg width="24" height="24" viewBox="0 0 24 24" fill="none" xmlns="http://www.w3.org/2000/svg">
<path d="M2 13.5C2 18.1944 5.80558 22 10.5 22C15.1944 22 19 18.1944 19 13.5C19 8.80558 15.1944 5 10.5 5C5.80558 5 2 8.80558 2 13.5Z" stroke="#667085" stroke-width="2" stroke-linecap="round" stroke-linejoin="round"/>
<path d="M20.7867 1.19252C20.6799 0.935827 20.3161 0.935827 20.2094 1.19252L19.7158 2.37894C19.671 2.48645 19.5702 2.5602 19.4542 2.57028L18.286 2.67183C18.0179 2.69513 17.9026 3.0236 18.0972 3.20931L18.9846 4.05583C19.0651 4.13259 19.0987 4.24631 19.0729 4.35446L18.7724 5.61397C18.7078 5.88439 19.0021 6.09812 19.2394 5.95321L20.3351 5.28418C20.4351 5.22308 20.5609 5.22308 20.661 5.28418L21.7566 5.95321C21.9939 6.09812 22.2882 5.88439 22.2237 5.61397L21.9232 4.35486C21.8974 4.24649 21.9312 4.13255 22.012 4.0558L22.9023 3.20974C23.0976 3.02418 22.9823 2.69508 22.7139 2.67182L21.5419 2.57024C21.4258 2.56018 21.325 2.48643 21.2802 2.37889L20.7867 1.19252Z" fill="#121A26"/>
</svg>
