<svg width="24" height="24" viewBox="0 0 24 24" fill="none" xmlns="http://www.w3.org/2000/svg">
<path d="M9.16651 8H6.17594C4.9742 8 4 7.04363 4 5.86389C4 4.68415 4.9742 3.72778 6.17594 3.72778H6.29109C6.57838 2.73063 7.51228 2 8.62 2C9.95653 2 11.04 3.06364 11.04 4.3757C11.04 4.44851 11.0367 4.52054 11.0301 4.59168H11.0641M17 22H5M15 17H4" stroke="#667085" stroke-width="2" stroke-linecap="round" stroke-linejoin="round"/>
<path d="M20.0004 19.5H9.00039M9.12039 8.56355C9.12039 8.67276 9.12555 8.78081 9.13564 8.88751H9.0832C7.60153 8.88751 6.40039 10.032 6.40039 11.4438C6.40039 12.8555 7.60153 14 9.0832 14H16.6376C18.4948 14 20.0004 12.5654 20.0004 10.7958C20.0004 9.02623 18.4948 7.59168 16.6376 7.59168H16.4596C16.0156 6.09595 14.5723 5 12.8604 5C12.6513 5 12.4462 5.01635 12.2465 5.04778C10.6653 5.29657 9.41862 6.49038 9.1669 8C9.13629 8.18356 9.12039 8.37179 9.12039 8.56355Z" stroke="black" stroke-width="2" stroke-linecap="round" stroke-linejoin="round"/>
</svg>
