<svg width="24" height="24" viewBox="0 0 24 24" fill="none" xmlns="http://www.w3.org/2000/svg">
<path d="M12.2461 5.04778C11.9362 4.76477 11.5207 4.59168 11.0641 4.59168H11.0301C11.0367 4.52054 11.04 4.44851 11.04 4.3757C11.04 3.06364 9.95653 2 8.62 2C7.51228 2 6.57838 2.73063 6.29109 3.72778H6.17594C4.9742 3.72778 4 4.68415 4 5.86389C4 7.04363 4.9742 8 6.17594 8H9.16651M8.63636 17H8.43182C7.64105 17 7 17.6027 7 18.3462C7 19.0896 7.64105 19.6923 8.43182 19.6923H11.5M16 19.6923H11.5M11.5 19.6923C10.8222 19.6923 10.2727 20.2089 10.2727 20.8462C10.2727 21.4834 10.8222 22 11.5 22H12.3182" stroke="#667085" stroke-width="2" stroke-linecap="round" stroke-linejoin="round"/>
<path d="M9.13564 8.88751C9.12555 8.78081 9.12039 8.67276 9.12039 8.56355C9.12039 8.37179 9.13629 8.18356 9.1669 8C9.41862 6.49038 10.6653 5.29657 12.2465 5.04778C12.4462 5.01635 12.6513 5 12.8604 5C14.5723 5 16.0156 6.09595 16.4596 7.59168H16.6376C18.4948 7.59168 20.0004 9.02623 20.0004 10.7958C20.0004 12.5654 18.4948 14 16.6376 14H9.0832C7.60153 14 6.40039 12.8555 6.40039 11.4438C6.40039 10.032 7.60153 8.88751 9.0832 8.88751H9.13564Z" stroke="black" stroke-width="2" stroke-linecap="round" stroke-linejoin="round"/>
</svg>
