<svg width="24" height="24" viewBox="0 0 24 24" fill="none" xmlns="http://www.w3.org/2000/svg">
<path d="M14 19.396C15.8935 19.396 17.4286 17.8416 17.4286 15.9242M6 7C7.10457 7 8 6.19994 8 5.21301C8 4.29505 7.13018 2.91107 6.20177 2.07506C6.09063 1.97498 5.90937 1.97498 5.79823 2.07506C4.86982 2.91107 4 4.29505 4 5.21301C4 6.19994 4.89543 7 6 7Z" stroke="#667085" stroke-width="2" stroke-linecap="round" stroke-linejoin="round"/>
<path d="M20 15.9242C20 19.2798 17.3137 22 14 22C10.6863 22 8 19.2798 8 15.9242C8 12.8032 10.6095 8.09765 13.3947 5.25521C13.7281 4.91493 14.2719 4.91493 14.6053 5.25521C17.3905 8.09765 20 12.8032 20 15.9242Z" stroke="black" stroke-width="2" stroke-linecap="round" stroke-linejoin="round"/>
</svg>
