<svg width="24" height="24" viewBox="0 0 24 24" fill="none" xmlns="http://www.w3.org/2000/svg">
<path d="M6.62018 7.18335C6.60682 7.04109 6.6 6.89701 6.6 6.75141C6.6 4.12728 8.81619 2 11.55 2C13.8158 2 15.726 3.46127 16.3137 5.45557H16.5492C19.0073 5.45557 21 7.3683 21 9.72778C21 12.0873 19.0073 14 16.5492 14H11.55H6.55078C4.58974 14 3 12.474 3 10.5917C3 8.70931 4.58974 7.18335 6.55078 7.18335H6.62018Z" stroke="#121A26" stroke-width="2" stroke-linecap="round" stroke-linejoin="round"/>
<path d="M8.49994 18.209V15.959M8.49994 18.209V20.459M8.49994 18.209L10.4998 17.0001M8.49994 18.209L6.5 19.4179M8.49994 18.209L6.50024 16.9998M8.49994 18.209L10.5 19.4177M15.4999 19.7913V17.5413M15.4999 19.7913V22.0413M15.4999 19.7913L17.4998 18.5824M15.4999 19.7913L13.5 21.0002M15.4999 19.7913L13.5002 18.5822M15.4999 19.7913L17.5 21" stroke="#667085" stroke-width="1.5" stroke-linecap="round" stroke-linejoin="round"/>
</svg>
