<svg width="24" height="24" viewBox="0 0 24 24" fill="none" xmlns="http://www.w3.org/2000/svg">
<path d="M12 10V4.4M12 10L8.12513 6.12513M12 10L15.8749 6.12513M12 10H17.6M12 10L15.8749 13.8749M12 10V15.6M12 10L8.12513 13.8749M12 10H6.4M12 4.4L13.4 3M12 4.4L10.6 3M8.12513 6.12513L8.15 4.05M8.12513 6.12513L6.05 6.15M15.8749 6.12513V4.05M15.8749 6.12513H17.95M17.6 10L19 8.6M17.6 10L19 11.4M15.8749 13.8749V15.95M15.8749 13.8749H17.95M12 15.6L10.6 17M12 15.6L13.4 17M8.12513 13.8749H6.05M8.12513 13.8749V15.95M6.4 10L5 8.6M6.4 10L5 11.4" stroke="#121A26" stroke-width="2" stroke-linecap="round" stroke-linejoin="round"/>
<path d="M3 19.8556C3 21.0399 3.89543 22 5 22C6.10457 22 7 21.0399 7 19.8556C7 18.7541 6.13018 17.0933 5.20177 16.0901C5.09063 15.97 4.90937 15.97 4.79823 16.0901C3.86982 17.0933 3 18.7541 3 19.8556Z" fill="#667085"/>
<path d="M17 19.8556C17 21.0399 17.8954 22 19 22C20.1046 22 21 21.0399 21 19.8556C21 18.7541 20.1302 17.0933 19.2018 16.0901C19.0906 15.97 18.9094 15.97 18.7982 16.0901C17.8698 17.0933 17 18.7541 17 19.8556Z" fill="#667085"/>
</svg>
