<svg width="24" height="24" viewBox="0 0 24 24" fill="none" xmlns="http://www.w3.org/2000/svg">
<path d="M7 12H2M12 7V2M17 12H22M12 17V22M15.5355 15.5355L18.2756 18.2756M15.5355 8.46447L18.2756 5.72443M8.46447 8.46447L5.72443 5.72443M8.46447 15.5355L5.72443 18.2756" stroke="#667085" stroke-width="2" stroke-linecap="round" stroke-linejoin="round"/>
<path d="M8.46447 15.5355C9.36929 16.4404 10.6193 17 12 17C13.3807 17 14.6307 16.4404 15.5355 15.5355C16.4404 14.6307 17 13.3807 17 12C17 10.6193 16.4404 9.36929 15.5355 8.46447C14.6307 7.55964 13.3807 7 12 7C10.6193 7 9.36929 7.55964 8.46447 8.46447C7.55964 9.36929 7 10.6193 7 12C7 13.3807 7.55964 14.6307 8.46447 15.5355Z" stroke="black" stroke-width="2" stroke-linecap="round" stroke-linejoin="round"/>
</svg>
