<svg width="24" height="24" viewBox="0 0 24 24" fill="none" xmlns="http://www.w3.org/2000/svg">
<path d="M10.088 11.1597C10.4741 9.35403 12.0787 8 13.9996 8C16.2088 8 17.9996 9.79086 17.9996 12C17.9996 12.2523 17.9763 12.4992 17.9316 12.7386M9.1913 7.19167L8.34277 6.34315M13.9996 5.2V4M18.808 7.19167L19.6565 6.34315M20.7996 12H21.9996" stroke="#667085" stroke-width="2" stroke-linecap="round" stroke-linejoin="round"/>
<path d="M19.9437 20H4.05577C2.55725 20 1.56345 18.5136 2.19141 17.2115L4.84336 11.7127C5.81695 9.69395 8.6836 9.39625 10.0884 11.1597L10.1039 11.1793L12.5311 14.2764C12.8788 14.7201 13.5412 14.8006 13.9938 14.4541L15.4537 13.3364C16.1861 12.7757 17.0911 12.5913 17.9319 12.7386C18.8002 12.8907 19.5999 13.3964 20.0702 14.2066L21.7386 17.0806C22.499 18.3904 21.5093 20 19.9437 20Z" stroke="black" stroke-width="2" stroke-linecap="round" stroke-linejoin="round"/>
</svg>
