<svg width="24" height="24" viewBox="0 0 24 24" fill="none" xmlns="http://www.w3.org/2000/svg">
<path d="M6 12.9996C4.78555 13.9118 4 15.3642 4 17C4 19.7614 6.23858 22 9 22C11.7614 22 14 19.7614 14 17C14 15.3642 13.2145 13.9119 12 12.9996V5C12 3.34315 10.6569 2 9 2C7.34315 2 6 3.34315 6 5V12.9996Z" stroke="#667085" stroke-width="2" stroke-linecap="round" stroke-linejoin="round"/>
<path d="M9 14.9997C7.89543 14.9997 7 15.8951 7 16.9997C7 18.1042 7.89543 18.9997 9 18.9997C10.1046 18.9997 11 18.1042 11 16.9997C11 15.8951 10.1046 14.9997 9 14.9997ZM9 14.9997V12.9996M17.5 4V12.9996M17.5 12.9996L15 10.4996M17.5 12.9996L20 10.4996" stroke="black" stroke-width="2" stroke-linecap="round" stroke-linejoin="round"/>
</svg>
