<svg width="24" height="24" viewBox="0 0 24 24" fill="none" xmlns="http://www.w3.org/2000/svg">
<path d="M7.21794 6.75141C7.20606 6.621 7.2 6.48893 7.2 6.35546C7.2 3.95 9.16995 2 11.6 2C13.614 2 15.312 3.3395 15.8344 5.1676H16.0437C18.2287 5.1676 20 6.92095 20 9.0838C20 11.2467 18.2287 13 16.0437 13H11.6H7.15625C5.4131 13 4 11.6012 4 9.8757C4 8.1502 5.4131 6.75141 7.15625 6.75141H7.21794Z" stroke="black" stroke-width="2" stroke-linecap="round" stroke-linejoin="round"/>
<path d="M15.5 15.9995V17.4995M19.5 15.9995V17.4995M6.5 15.7773H5.75C4.7835 15.7773 4 16.5274 4 17.4526C4 18.3778 4.7835 19.1278 5.75 19.1278H9.5M12 19.1278H9.5M9.5 19.1278C8.67157 19.1278 8 19.7706 8 20.5637C8 21.3567 8.67157 21.9996 9.5 21.9996H10.5M15.5 20.5637V21.9995M19.5 20.5637V21.9995" stroke="#667085" stroke-width="2" stroke-linecap="round" stroke-linejoin="round"/>
</svg>
