<svg width="24" height="24" viewBox="0 0 24 24" fill="none" xmlns="http://www.w3.org/2000/svg">
<path d="M8 4.27148V12.7284M12 4.66662V12.3333M16 5.33329V11.6666" stroke="#667085" stroke-width="2" stroke-linecap="round" stroke-linejoin="round"/>
<path d="M4 7V2M4 7L6.97304 4.77022C7.28347 4.5374 7.6326 4.36951 8 4.27153C8.40884 4.1625 8.8403 4.14005 9.26624 4.21104L12 4.66667L16 5.33333L18.3288 5.72147C19.2932 5.8822 20 6.71658 20 7.69425V9.30575C20 10.2834 19.2932 11.1178 18.3288 11.2785L16 11.6667L12 12.3333L9.26624 12.789C8.8403 12.8599 8.40884 12.8375 8 12.7285C7.6326 12.6305 7.28347 12.4626 6.97304 12.2298L4 10M4 7V10M4 22V10" stroke="black" stroke-width="2" stroke-linecap="round" stroke-linejoin="round"/>
</svg>
