<svg width="24" height="24" viewBox="0 0 24 24" fill="none" xmlns="http://www.w3.org/2000/svg">
<path d="M9.25 15.9222C9.84722 16.7253 10.8339 17.25 11.95 17.25C13.7725 17.25 15.25 15.8509 15.25 14.125C15.25 12.3991 13.7725 11 11.95 11C10.8339 11 9.84722 11.5247 9.25 12.3278L9.85 7.25H14.65" stroke="black" stroke-width="2" stroke-linecap="round" stroke-linejoin="round"/>
<path d="M3 7C3 4.79086 4.79086 3 7 3H17C19.2091 3 21 4.79086 21 7V17C21 19.2091 19.2091 21 17 21H7C4.79086 21 3 19.2091 3 17V7Z" stroke="#667085" stroke-width="2" stroke-linecap="round"/>
</svg>
