<svg width="24" height="24" viewBox="0 0 24 24" fill="none" xmlns="http://www.w3.org/2000/svg">
<path d="M6.40039 14.7831C6.81844 15.3453 7.50912 15.7126 8.29039 15.7126C9.56617 15.7126 10.6004 14.7332 10.6004 13.5251C10.6004 12.317 9.56617 11.3376 8.29039 11.3376C7.50912 11.3376 6.81844 11.7049 6.40039 12.2671L6.82039 8.7126H10.1804M17.6004 12.0376C17.6004 13.9706 16.5035 15.5376 15.1504 15.5376C13.7973 15.5376 12.7004 13.9706 12.7004 12.0376C12.7004 10.1046 13.7973 8.5376 15.1504 8.5376C16.5035 8.5376 17.6004 10.1046 17.6004 12.0376Z" stroke="black" stroke-width="2" stroke-linecap="round" stroke-linejoin="round"/>
<path d="M3 7C3 4.79086 4.79086 3 7 3H17C19.2091 3 21 4.79086 21 7V17C21 19.2091 19.2091 21 17 21H7C4.79086 21 3 19.2091 3 17V7Z" stroke="#667085" stroke-width="2"/>
</svg>
