<svg width="24" height="24" viewBox="0 0 24 24" fill="none" xmlns="http://www.w3.org/2000/svg">
<path d="M9.2952 8.875C9.59972 7.79673 10.6738 7 11.952 7C13.467 7 14.6952 8.11929 14.6952 9.5C14.6952 10.8807 13.467 12 11.952 12C13.6354 12 15 13.1193 15 14.5C15 15.8807 13.6354 17 11.952 17C10.5317 17 9.33836 16.2033 9 15.125" stroke="black" stroke-width="2" stroke-linecap="round" stroke-linejoin="round"/>
<path d="M12 22C17.5228 22 22 17.5228 22 12C22 6.47715 17.5228 2 12 2C6.47715 2 2 6.47715 2 12C2 17.5228 6.47715 22 12 22Z" stroke="#667085" stroke-width="2" stroke-linecap="round"/>
</svg>
