<svg width="24" height="24" viewBox="0 0 24 24" fill="none" xmlns="http://www.w3.org/2000/svg">
<path d="M9 13.875C9 15.6009 10.3431 17 12 17C13.6569 17 15 15.6009 15 13.875C15 12.1491 13.6569 10.75 12 10.75C10.3431 10.75 9 12.1491 9 13.875ZM9 13.875V10.75C9 8.25 10.4208 7 12 7C12.9 7 13.95 7.4375 14.55 8.5625" stroke="black" stroke-width="2" stroke-linecap="round" stroke-linejoin="round"/>
<path d="M12 22C17.5228 22 22 17.5228 22 12C22 6.47715 17.5228 2 12 2C6.47715 2 2 6.47715 2 12C2 17.5228 6.47715 22 12 22Z" stroke="#667085" stroke-width="2" stroke-linecap="round"/>
</svg>
