<svg width="24" height="24" viewBox="0 0 24 24" fill="none" xmlns="http://www.w3.org/2000/svg">
<path d="M6.40039 14.7831C6.81844 15.3453 7.50912 15.7126 8.29039 15.7126C9.56617 15.7126 10.6004 14.7332 10.6004 13.5251C10.6004 12.317 9.56617 11.3376 8.29039 11.3376C7.50912 11.3376 6.81844 11.7049 6.40039 12.2671L6.82039 8.7126H10.1804M17.6004 12.0376C17.6004 13.9706 16.5035 15.5376 15.1504 15.5376C13.7973 15.5376 12.7004 13.9706 12.7004 12.0376C12.7004 10.1046 13.7973 8.5376 15.1504 8.5376C16.5035 8.5376 17.6004 10.1046 17.6004 12.0376Z" stroke="black" stroke-width="2" stroke-linecap="round" stroke-linejoin="round"/>
<path d="M2 15.1716V8.82843C2 8.29799 2.21071 7.78929 2.58579 7.41421L7.41421 2.58579C7.78929 2.21071 8.29799 2 8.82843 2H15.1716C15.702 2 16.2107 2.21071 16.5858 2.58579L21.4142 7.41421C21.7893 7.78929 22 8.29799 22 8.82843V15.1716C22 15.702 21.7893 16.2107 21.4142 16.5858L16.5858 21.4142C16.2107 21.7893 15.702 22 15.1716 22H8.82843C8.29799 22 7.78929 21.7893 7.41421 21.4142L2.58579 16.5858C2.21071 16.2107 2 15.702 2 15.1716Z" stroke="#667085" stroke-width="2" stroke-linecap="round"/>
</svg>
