<svg width="24" height="24" viewBox="0 0 24 24" fill="none" xmlns="http://www.w3.org/2000/svg">
<path d="M6.40039 13.3125C6.40039 14.5206 7.34059 15.5 8.50039 15.5C9.66019 15.5 10.6004 14.5206 10.6004 13.3125C10.6004 12.1044 9.66019 11.125 8.50039 11.125C7.34059 11.125 6.40039 12.1044 6.40039 13.3125ZM6.40039 13.3125V11.125C6.40039 9.375 7.39495 8.5 8.50039 8.5C9.13039 8.5 9.86539 8.80625 10.2854 9.59375M17.6004 12C17.6004 13.933 16.5035 15.5 15.1504 15.5C13.7973 15.5 12.7004 13.933 12.7004 12C12.7004 10.067 13.7973 8.5 15.1504 8.5C16.5035 8.5 17.6004 10.067 17.6004 12Z" stroke="black" stroke-width="2" stroke-linecap="round" stroke-linejoin="round"/>
<path d="M12 22C17.5228 22 22 17.5228 22 12C22 6.47715 17.5228 2 12 2C6.47715 2 2 6.47715 2 12C2 17.5228 6.47715 22 12 22Z" stroke="#667085" stroke-width="2" stroke-linecap="round"/>
</svg>
