<svg width="24" height="24" viewBox="0 0 24 24" fill="none" xmlns="http://www.w3.org/2000/svg">
<path d="M9.2002 15.5V8.87735C9.2002 8.54184 8.8232 8.37382 8.60271 8.61106L7.4502 9.85113M16.5502 12C16.5502 13.933 15.4533 15.5 14.1002 15.5C12.7471 15.5 11.6502 13.933 11.6502 12C11.6502 10.067 12.7471 8.5 14.1002 8.5C15.4533 8.5 16.5502 10.067 16.5502 12Z" stroke="black" stroke-width="2" stroke-linecap="round"/>
<path d="M17 3H7C4.79086 3 3 4.79086 3 7V17C3 19.2091 4.79086 21 7 21H17C19.2091 21 21 19.2091 21 17V7C21 4.79086 19.2091 3 17 3Z" stroke="#667085" stroke-width="2" stroke-linecap="round"/>
</svg>
