<svg width="24" height="24" viewBox="0 0 24 24" fill="none" xmlns="http://www.w3.org/2000/svg">
<path d="M15 9.96875C15 11.6083 13.6569 12.9375 12 12.9375C10.3431 12.9375 9 11.6083 9 9.96875C9 8.32915 10.3431 7 12 7C13.6569 7 15 8.32915 15 9.96875ZM15 9.96875V13.25C15 15.75 13.5792 17 12 17C11.1 17 10.05 16.5625 9.45 15.4375" stroke="black" stroke-width="2" stroke-linecap="round" stroke-linejoin="round"/>
<path d="M12 22C17.5228 22 22 17.5228 22 12C22 6.47715 17.5228 2 12 2C6.47715 2 2 6.47715 2 12C2 17.5228 6.47715 22 12 22Z" stroke="#667085" stroke-width="2" stroke-linecap="round"/>
</svg>
