<svg width="24" height="24" viewBox="0 0 24 24" fill="none" xmlns="http://www.w3.org/2000/svg">
<path d="M9.2952 8.875C9.59972 7.79673 10.6738 7 11.952 7C13.467 7 14.6952 8.11929 14.6952 9.5C14.6952 10.8807 13.467 12 11.952 12C13.6354 12 15 13.1193 15 14.5C15 15.8807 13.6354 17 11.952 17C10.5317 17 9.33836 16.2033 9 15.125" stroke="black" stroke-width="2" stroke-linecap="round" stroke-linejoin="round"/>
<path d="M3 7C3 4.79086 4.79086 3 7 3H17C19.2091 3 21 4.79086 21 7V17C21 19.2091 19.2091 21 17 21H7C4.79086 21 3 19.2091 3 17V7Z" stroke="#667085" stroke-width="2" stroke-linecap="round"/>
</svg>
