<svg width="24" height="24" viewBox="0 0 24 24" fill="none" xmlns="http://www.w3.org/2000/svg">
<path d="M8.50039 12C9.54421 12 10.3904 11.2165 10.3904 10.25C10.3904 9.2835 9.54421 8.5 8.50039 8.5C7.45657 8.5 6.61039 9.2835 6.61039 10.25C6.61039 11.2165 7.45657 12 8.50039 12ZM8.50039 12C7.34059 12 6.40039 12.7835 6.40039 13.75C6.40039 14.7165 7.34059 15.5 8.50039 15.5C9.66019 15.5 10.6004 14.7165 10.6004 13.75C10.6004 12.7835 9.66019 12 8.50039 12ZM17.6004 12C17.6004 13.933 16.5035 15.5 15.1504 15.5C13.7973 15.5 12.7004 13.933 12.7004 12C12.7004 10.067 13.7973 8.5 15.1504 8.5C16.5035 8.5 17.6004 10.067 17.6004 12Z" stroke="black" stroke-width="2"/>
<path d="M2 15.1716V8.82843C2 8.29799 2.21071 7.78929 2.58579 7.41421L7.41421 2.58579C7.78929 2.21071 8.29799 2 8.82843 2H15.1716C15.702 2 16.2107 2.21071 16.5858 2.58579L21.4142 7.41421C21.7893 7.78929 22 8.29799 22 8.82843V15.1716C22 15.702 21.7893 16.2107 21.4142 16.5858L16.5858 21.4142C16.2107 21.7893 15.702 22 15.1716 22H8.82843C8.29799 22 7.78929 21.7893 7.41421 21.4142L2.58579 16.5858C2.21071 16.2107 2 15.702 2 15.1716Z" stroke="#667085" stroke-width="2" stroke-linecap="round"/>
</svg>
