<svg width="24" height="24" viewBox="0 0 24 24" fill="none" xmlns="http://www.w3.org/2000/svg">
<path d="M10.6004 10.5781C10.6004 11.7258 9.66019 12.6562 8.50039 12.6562C7.34059 12.6562 6.40039 11.7258 6.40039 10.5781C6.40039 9.43041 7.34059 8.5 8.50039 8.5C9.66019 8.5 10.6004 9.43041 10.6004 10.5781ZM10.6004 10.5781V12.875C10.6004 14.625 9.60584 15.5 8.50039 15.5C7.87039 15.5 7.13539 15.1937 6.71539 14.4062M17.6004 12C17.6004 13.933 16.5035 15.5 15.1504 15.5C13.7973 15.5 12.7004 13.933 12.7004 12C12.7004 10.067 13.7973 8.5 15.1504 8.5C16.5035 8.5 17.6004 10.067 17.6004 12Z" stroke="black" stroke-width="2" stroke-linecap="round" stroke-linejoin="round"/>
<path d="M3 7C3 4.79086 4.79086 3 7 3H17C19.2091 3 21 4.79086 21 7V17C21 19.2091 19.2091 21 17 21H7C4.79086 21 3 19.2091 3 17V7Z" stroke="#667085" stroke-width="2"/>
</svg>
