<svg width="24" height="24" viewBox="0 0 24 24" fill="none" xmlns="http://www.w3.org/2000/svg">
<path d="M9 13.875C9 15.6009 10.3431 17 12 17C13.6569 17 15 15.6009 15 13.875C15 12.1491 13.6569 10.75 12 10.75C10.3431 10.75 9 12.1491 9 13.875ZM9 13.875V10.75C9 8.25 10.4208 7 12 7C12.9 7 13.95 7.4375 14.55 8.5625" stroke="black" stroke-width="2" stroke-linecap="round" stroke-linejoin="round"/>
<path d="M3 7C3 4.79086 4.79086 3 7 3H17C19.2091 3 21 4.79086 21 7V17C21 19.2091 19.2091 21 17 21H7C4.79086 21 3 19.2091 3 17V7Z" stroke="#667085" stroke-width="2" stroke-linecap="round"/>
</svg>
