<svg width="24" height="24" viewBox="0 0 24 24" fill="none" xmlns="http://www.w3.org/2000/svg">
<path d="M9.2002 15.5V8.87735C9.2002 8.54184 8.8232 8.37382 8.60271 8.61106L7.4502 9.85113M16.5502 12C16.5502 13.933 15.4533 15.5 14.1002 15.5C12.7471 15.5 11.6502 13.933 11.6502 12C11.6502 10.067 12.7471 8.5 14.1002 8.5C15.4533 8.5 16.5502 10.067 16.5502 12Z" stroke="black" stroke-width="2" stroke-linecap="round"/>
<path d="M2 15.1716V8.82843C2 8.29799 2.21071 7.78929 2.58579 7.41421L7.41421 2.58579C7.78929 2.21071 8.29799 2 8.82843 2H15.1716C15.702 2 16.2107 2.21071 16.5858 2.58579L21.4142 7.41421C21.7893 7.78929 22 8.29799 22 8.82843V15.1716C22 15.702 21.7893 16.2107 21.4142 16.5858L16.5858 21.4142C16.2107 21.7893 15.702 22 15.1716 22H8.82843C8.29799 22 7.78929 21.7893 7.41421 21.4142L2.58579 16.5858C2.21071 16.2107 2 15.702 2 15.1716Z" stroke="#667085" stroke-width="2" stroke-linecap="round"/>
</svg>
