<svg width="24" height="24" viewBox="0 0 24 24" fill="none" xmlns="http://www.w3.org/2000/svg">
<path d="M6.5752 8.5H10.7752L7.4152 15.5M17.4252 12C17.4252 13.933 16.3283 15.5 14.9752 15.5C13.6221 15.5 12.5252 13.933 12.5252 12C12.5252 10.067 13.6221 8.5 14.9752 8.5C16.3283 8.5 17.4252 10.067 17.4252 12Z" stroke="black" stroke-width="2" stroke-linecap="round" stroke-linejoin="round"/>
<path d="M3 7C3 4.79086 4.79086 3 7 3H17C19.2091 3 21 4.79086 21 7V17C21 19.2091 19.2091 21 17 21H7C4.79086 21 3 19.2091 3 17V7Z" stroke="#667085" stroke-width="2"/>
</svg>
