<svg width="24" height="24" viewBox="0 0 24 24" fill="none" xmlns="http://www.w3.org/2000/svg">
<path d="M5.44401 10.858C5.5382 11.4022 6.05571 11.767 6.59991 11.6729C7.1441 11.5787 7.5089 11.0612 7.41471 10.517L5.44401 10.858ZM10.5936 10.6875L9.59728 10.6013L10.5936 10.6875ZM6.42936 15.5L5.42936 15.5C5.42937 16.0523 5.87708 16.5 6.42936 16.5V15.5ZM10.5936 16.5C11.1458 16.5 11.5936 16.0523 11.5936 15.5C11.5936 14.9477 11.1458 14.5 10.5936 14.5V16.5ZM7.41471 10.517C7.33327 10.0464 7.64906 9.5 8.51146 9.5V7.5C6.66708 7.5 5.10898 8.92235 5.44401 10.858L7.41471 10.517ZM8.51146 9.5C9.18004 9.5 9.64237 10.0802 9.59728 10.6013L11.5898 10.7737C11.737 9.07318 10.3414 7.5 8.51146 7.5V9.5ZM9.59728 10.6013C9.57369 10.8739 9.46516 11.0525 9.22496 11.2474C8.92895 11.4876 8.54516 11.6671 7.97775 11.9575C7.47034 12.2172 6.82205 12.5659 6.31473 13.1174C5.76917 13.7106 5.42935 14.4861 5.42936 15.5L7.42936 15.5C7.42936 14.9827 7.58404 14.6918 7.78673 14.4714C8.02766 14.2095 8.38138 13.9976 8.889 13.7378C9.33661 13.5087 9.98086 13.2097 10.4852 12.8004C11.0453 12.3459 11.5093 11.7043 11.5898 10.7737L9.59728 10.6013ZM6.42936 16.5H10.5936V14.5H6.42936V16.5ZM16.6004 12C16.6004 12.7865 16.3756 13.4556 16.0636 13.9014C15.7493 14.3504 15.4111 14.5 15.1504 14.5V16.5C16.2428 16.5 17.1296 15.8661 17.702 15.0483C18.2767 14.2274 18.6004 13.1465 18.6004 12H16.6004ZM15.1504 14.5C14.8897 14.5 14.5515 14.3504 14.2372 13.9014C13.9252 13.4556 13.7004 12.7865 13.7004 12H11.7004C11.7004 13.1465 12.0241 14.2274 12.5987 15.0483C13.1712 15.8661 14.058 16.5 15.1504 16.5V14.5ZM13.7004 12C13.7004 11.2135 13.9252 10.5444 14.2372 10.0986C14.5515 9.64964 14.8897 9.5 15.1504 9.5V7.5C14.058 7.5 13.1712 8.13387 12.5987 8.95166C12.0241 9.77262 11.7004 10.8535 11.7004 12H13.7004ZM15.1504 9.5C15.4111 9.5 15.7493 9.64964 16.0636 10.0986C16.3756 10.5444 16.6004 11.2135 16.6004 12H18.6004C18.6004 10.8535 18.2767 9.77262 17.702 8.95166C17.1296 8.13387 16.2428 7.5 15.1504 7.5V9.5Z" fill="black"/>
<path d="M3 7C3 4.79086 4.79086 3 7 3H17C19.2091 3 21 4.79086 21 7V17C21 19.2091 19.2091 21 17 21H7C4.79086 21 3 19.2091 3 17V7Z" stroke="#667085" stroke-width="2"/>
</svg>
