<svg width="24" height="24" viewBox="0 0 24 24" fill="none" xmlns="http://www.w3.org/2000/svg">
<path d="M9.76039 15.5V13.9688M9.76039 13.9688V8.5L6.40039 13.9688H9.76039ZM9.76039 13.9688H10.6004M17.6004 12C17.6004 13.933 16.5035 15.5 15.1504 15.5C13.7973 15.5 12.7004 13.933 12.7004 12C12.7004 10.067 13.7973 8.5 15.1504 8.5C16.5035 8.5 17.6004 10.067 17.6004 12Z" stroke="black" stroke-width="2" stroke-linecap="round" stroke-linejoin="round"/>
<path d="M2 15.1716V8.82843C2 8.29799 2.21071 7.78929 2.58579 7.41421L7.41421 2.58579C7.78929 2.21071 8.29799 2 8.82843 2H15.1716C15.702 2 16.2107 2.21071 16.5858 2.58579L21.4142 7.41421C21.7893 7.78929 22 8.29799 22 8.82843V15.1716C22 15.702 21.7893 16.2107 21.4142 16.5858L16.5858 21.4142C16.2107 21.7893 15.702 22 15.1716 22H8.82843C8.29799 22 7.78929 21.7893 7.41421 21.4142L2.58579 16.5858C2.21071 16.2107 2 15.702 2 15.1716Z" stroke="#667085" stroke-width="2" stroke-linecap="round"/>
</svg>
