<svg width="24" height="24" viewBox="0 0 24 24" fill="none" xmlns="http://www.w3.org/2000/svg">
<path d="M15 9.96875C15 11.6083 13.6569 12.9375 12 12.9375C10.3431 12.9375 9 11.6083 9 9.96875C9 8.32915 10.3431 7 12 7C13.6569 7 15 8.32915 15 9.96875ZM15 9.96875V13.25C15 15.75 13.5792 17 12 17C11.1 17 10.05 16.5625 9.45 15.4375" stroke="black" stroke-width="2" stroke-linecap="round" stroke-linejoin="round"/>
<path d="M3 7C3 4.79086 4.79086 3 7 3H17C19.2091 3 21 4.79086 21 7V17C21 19.2091 19.2091 21 17 21H7C4.79086 21 3 19.2091 3 17V7Z" stroke="#667085" stroke-width="2" stroke-linecap="round"/>
</svg>
