<svg width="24" height="24" viewBox="0 0 24 24" fill="none" xmlns="http://www.w3.org/2000/svg">
<path d="M9.2002 15.5V8.87735C9.2002 8.54184 8.8232 8.37382 8.60271 8.61106L7.4502 9.85113M16.5502 12C16.5502 13.933 15.4533 15.5 14.1002 15.5C12.7471 15.5 11.6502 13.933 11.6502 12C11.6502 10.067 12.7471 8.5 14.1002 8.5C15.4533 8.5 16.5502 10.067 16.5502 12Z" stroke="black" stroke-width="2" stroke-linecap="round"/>
<path d="M12 22C17.5228 22 22 17.5228 22 12C22 6.47715 17.5228 2 12 2C6.47715 2 2 6.47715 2 12C2 17.5228 6.47715 22 12 22Z" stroke="#667085" stroke-width="2" stroke-linecap="round"/>
</svg>
