<svg width="24" height="24" viewBox="0 0 24 24" fill="none" xmlns="http://www.w3.org/2000/svg">
<path d="M6.60703 9.8125C6.8202 9.05771 7.57202 8.5 8.46678 8.5C9.52731 8.5 10.387 9.2835 10.387 10.25C10.387 11.2165 9.52731 12 8.46678 12C9.64514 12 10.6004 12.7835 10.6004 13.75C10.6004 14.7165 9.64514 15.5 8.46678 15.5C7.47261 15.5 6.63724 14.9423 6.40039 14.1875M17.6004 12C17.6004 13.933 16.5035 15.5 15.1504 15.5C13.7973 15.5 12.7004 13.933 12.7004 12C12.7004 10.067 13.7973 8.5 15.1504 8.5C16.5035 8.5 17.6004 10.067 17.6004 12Z" stroke="black" stroke-width="2" stroke-linecap="round" stroke-linejoin="round"/>
<path d="M12 22C17.5228 22 22 17.5228 22 12C22 6.47715 17.5228 2 12 2C6.47715 2 2 6.47715 2 12C2 17.5228 6.47715 22 12 22Z" stroke="#667085" stroke-width="2" stroke-linecap="round"/>
</svg>
