<svg width="24" height="24" viewBox="0 0 24 24" fill="none" xmlns="http://www.w3.org/2000/svg">
<path d="M17.6004 12C17.6004 13.933 16.5818 15.5 15.3254 15.5C14.0689 15.5 13.0504 13.933 13.0504 12C13.0504 10.067 14.0689 8.5 15.3254 8.5C16.5818 8.5 17.6004 10.067 17.6004 12Z" stroke="black" stroke-width="2"/>
<path d="M10.9504 12C10.9504 13.933 9.93184 15.5 8.67539 15.5C7.41894 15.5 6.40039 13.933 6.40039 12C6.40039 10.067 7.41894 8.5 8.67539 8.5C9.93184 8.5 10.9504 10.067 10.9504 12Z" stroke="black" stroke-width="2"/>
<path d="M3 7C3 4.79086 4.79086 3 7 3H17C19.2091 3 21 4.79086 21 7V17C21 19.2091 19.2091 21 17 21H7C4.79086 21 3 19.2091 3 17V7Z" stroke="#667085" stroke-width="2"/>
</svg>
