<svg width="24" height="24" viewBox="0 0 24 24" fill="none" xmlns="http://www.w3.org/2000/svg">
<path d="M8.50039 12C9.54421 12 10.3904 11.2165 10.3904 10.25C10.3904 9.2835 9.54421 8.5 8.50039 8.5C7.45657 8.5 6.61039 9.2835 6.61039 10.25C6.61039 11.2165 7.45657 12 8.50039 12ZM8.50039 12C7.34059 12 6.40039 12.7835 6.40039 13.75C6.40039 14.7165 7.34059 15.5 8.50039 15.5C9.66019 15.5 10.6004 14.7165 10.6004 13.75C10.6004 12.7835 9.66019 12 8.50039 12ZM17.6004 12C17.6004 13.933 16.5035 15.5 15.1504 15.5C13.7973 15.5 12.7004 13.933 12.7004 12C12.7004 10.067 13.7973 8.5 15.1504 8.5C16.5035 8.5 17.6004 10.067 17.6004 12Z" stroke="black" stroke-width="2"/>
<path d="M3 7C3 4.79086 4.79086 3 7 3H17C19.2091 3 21 4.79086 21 7V17C21 19.2091 19.2091 21 17 21H7C4.79086 21 3 19.2091 3 17V7Z" stroke="#667085" stroke-width="2"/>
</svg>
