<svg width="24" height="24" viewBox="0 0 24 24" fill="none" xmlns="http://www.w3.org/2000/svg">
<path d="M5.02544 16.1698C5.00865 16.308 5 16.4488 5 16.5917C5 18.474 6.50142 20 8.35352 20H13M5.02544 16.1698C5.2106 14.6454 6.38621 13.4327 7.87772 13.2174M5.02544 16.1698C3.2198 15.0561 2 12.9343 2 10.5C2 10.3318 2.00583 10.165 2.01727 10M7.87772 13.2174C8.03314 13.195 8.19199 13.1834 8.35352 13.1834H8.41906C8.40644 13.0411 8.4 12.897 8.4 12.7514C8.4 10.1273 10.4931 8 13.075 8C15.2149 8 17.019 9.46127 17.574 11.4556H17.7965C20.118 11.4556 22 13.3683 22 15.7278C22 18.0873 20.118 20 17.7965 20H17M7.87772 13.2174C6.8212 12.2637 6.14747 10.8182 6.14747 9.2C6.14747 6.8614 7.55466 4.88338 9.4908 4.22941C8.99201 4.07985 8.46698 4 7.92496 4C6.24468 4 4.72776 4.76733 3.64948 6" stroke="black" stroke-width="2" stroke-linecap="round" stroke-linejoin="round"/>
</svg>
