<svg width="24" height="24" viewBox="0 0 24 24" fill="none" xmlns="http://www.w3.org/2000/svg">
<path d="M5.80229 9.10483C5.54663 9.29919 5.30075 9.51335 5.06684 9.74726C2.40339 12.4107 2.30058 16.6262 4.83719 19.1628C7.37381 21.6994 11.5893 21.5966 14.2527 18.9332C14.4866 18.6992 14.7008 18.4534 14.8952 18.1977L21 10.2175L18.2123 10.5382C17.801 10.5855 17.491 10.1724 17.6514 9.79074L20.147 3.85298L14.2093 6.34856C13.8276 6.50896 13.4145 6.19897 13.4618 5.78769L13.7825 3L9.40529 6.34856M12.6494 15C12.778 14.032 12.4704 13.0172 11.7266 12.2734C10.4583 11.0051 8.40197 11.0051 7.13367 12.2734C5.86536 13.5417 5.86536 15.598 7.13367 16.8663C7.91336 17.646 8.99085 17.9464 10 17.7675" stroke="black" stroke-width="2" stroke-linecap="round" stroke-linejoin="round"/>
</svg>
