<svg width="24" height="24" viewBox="0 0 24 24" fill="none" xmlns="http://www.w3.org/2000/svg">
<path d="M16.6299 20.866C19.8218 19.1957 22 15.8522 22 12C22 10.4547 21.6495 8.99131 21.0237 7.68493M16.6299 20.866C15.2456 21.5903 13.6706 22 12 22C6.47715 22 2 17.5228 2 12C2 11.3151 2.06886 10.6462 2.20004 10M16.6299 20.866C15.2707 20.5962 14.0532 19.933 13.101 19M21.0237 7.68493C19.4128 4.32227 15.9776 2 12 2C8.72836 2 5.82368 3.57111 3.99927 6M21.0237 7.68493C20.1084 7.24591 19.0829 7 18 7C14.134 7 11 10.134 11 14C11 14.5149 11.0556 15.0168 11.1611 15.5" stroke="black" stroke-width="2" stroke-linecap="round" stroke-linejoin="round"/>
</svg>
