<svg width="24" height="24" viewBox="0 0 24 24" fill="none" xmlns="http://www.w3.org/2000/svg">
<path d="M13.2496 21.9227C18.1827 21.3078 22 17.0997 22 12C22 6.90033 18.1827 2.69224 13.2496 2.07731M13.2496 21.9227C12.8402 21.9737 12.4232 22 12 22C6.47715 22 2 17.5228 2 12C2 11.3151 2.06886 10.6462 2.20004 10M13.2496 21.9227C12.419 21.3565 11.6632 20.6889 11 19.9375M13.2496 2.07731C12.8402 2.02629 12.4232 2 12 2C8.72836 2 5.82368 3.57111 3.99927 6M13.2496 2.07731C10.0807 4.23731 8 7.87568 8 12C8 13.5914 8.30976 15.1104 8.87228 16.5" stroke="black" stroke-width="2" stroke-linecap="round" stroke-linejoin="round"/>
</svg>
