<svg width="24" height="24" viewBox="0 0 24 24" fill="none" xmlns="http://www.w3.org/2000/svg">
<path d="M16.0001 15.0004C16.6279 14.1647 17 13.1258 17 12C17 9.23858 14.7614 7 12 7M16.0001 15.0004C15.0879 16.2146 13.6356 17 12 17C11.6575 17 11.3231 16.9656 11 16.9M16.0001 15.0004C14.7204 15.0004 13.4408 14.5122 12.4645 13.5359C10.6816 11.753 10.5271 8.95873 12 7M12 7C9.23881 7.00027 7 9.23875 7 12C7 12.9107 7.24349 13.7646 7.66891 14.5M6.91414 4.63637L7.5 2L10.3754 3.27798C11.4097 3.73765 12.5903 3.73765 13.6246 3.27798L16.5 2L17.0859 4.63637C17.3385 5.77344 18.2266 6.66146 19.3636 6.91414L22 7.5L20.722 10.3754C20.2624 11.4097 20.2624 12.5903 20.722 13.6246L22 16.5L19.3636 17.0859C18.2266 17.3385 17.3385 18.2266 17.0859 19.3636L16.5 22L13.6246 20.722C12.5903 20.2624 11.4097 20.2624 10.3754 20.722L7.5 22L6.91414 19.3636C6.66146 18.2266 5.77344 17.3385 4.63637 17.0859L2 16.5L3.27798 13.6246C3.73765 12.5903 3.73765 11.4097 3.27798 10.3754L2 7.5L4 7.05556" stroke="black" stroke-width="2" stroke-linecap="round" stroke-linejoin="round"/>
</svg>
