<svg width="24" height="24" viewBox="0 0 24 24" fill="none" xmlns="http://www.w3.org/2000/svg">
<path fill-rule="evenodd" clip-rule="evenodd" d="M20.2094 1.19252C20.3161 0.935827 20.6799 0.935827 20.7867 1.19252L21.2802 2.37889C21.325 2.48643 21.4258 2.56018 21.5419 2.57024L22.7139 2.67182C22.9823 2.69508 23.0976 3.02418 22.9023 3.20974L22.012 4.0558C21.9312 4.13255 21.8974 4.24649 21.9232 4.35486L22.2237 5.61397C22.2882 5.88439 21.9939 6.09812 21.7566 5.95321L20.661 5.28418C20.5609 5.22308 20.4351 5.22308 20.3351 5.28418L19.2394 5.95321C19.0021 6.09812 18.7078 5.88439 18.7724 5.61397L19.0729 4.35446C19.0987 4.24631 19.0651 4.13259 18.9846 4.05583L18.0972 3.20931C17.9026 3.0236 18.0179 2.69513 18.286 2.67183L19.4542 2.57028C19.5702 2.5602 19.671 2.48645 19.7158 2.37894L20.2094 1.19252ZM10.5 4C7.5973 4 4.99792 5.30306 3.2569 7.35258C2.89934 7.7735 2.9507 8.40458 3.37162 8.76214C3.79253 9.11969 4.42361 9.06833 4.78117 8.64742C6.15842 7.02612 8.20887 6 10.5 6C14.6421 6 18 9.35786 18 13.5C18 15.576 17.1578 17.4534 15.7941 18.8125C15.4029 19.2023 15.4018 19.8355 15.7917 20.2267C16.1815 20.6179 16.8147 20.619 17.2059 20.2291C18.9308 18.5102 20 16.129 20 13.5C20 8.25329 15.7467 4 10.5 4ZM3.11645 12.1753C3.21326 11.6316 2.85096 11.1123 2.30723 11.0155C1.76349 10.9187 1.24423 11.281 1.14742 11.8247C1.05047 12.3692 1 12.9291 1 13.5C1 18.7467 5.25329 23 10.5 23C11.4707 23 12.4092 22.8541 13.2937 22.5823C13.8216 22.4201 14.1181 21.8606 13.9559 21.3327C13.7937 20.8048 13.2342 20.5083 12.7063 20.6705C12.01 20.8845 11.2694 21 10.5 21C6.35786 21 3 17.6421 3 13.5C3 13.0472 3.04001 12.6046 3.11645 12.1753Z" fill="black"/>
</svg>
