<svg width="24" height="24" viewBox="0 0 24 24" fill="none" xmlns="http://www.w3.org/2000/svg">
<path d="M15.8482 21.2328C19.4609 19.7253 22 16.1592 22 12C22 7.84085 19.4609 4.27474 15.8482 2.76724M15.8482 21.2328C14.6636 21.727 13.3637 22 12 22C6.47715 22 2 17.5228 2 12C2 11.3151 2.06886 10.6462 2.20004 10M15.8482 21.2328C15.1682 20.5587 14.5622 19.81 14.0436 19M15.8482 2.76724C14.6636 2.27297 13.3637 2 12 2C8.72836 2 5.82368 3.57111 3.99927 6M15.8482 2.76724C13.4718 5.1229 12 8.38957 12 12C12 13.2126 12.166 14.3864 12.4766 15.5" stroke="black" stroke-width="2" stroke-linecap="round" stroke-linejoin="round"/>
</svg>
