<svg width="24" height="24" viewBox="0 0 24 24" fill="none" xmlns="http://www.w3.org/2000/svg">
<path d="M12.2462 5.04778C12.446 5.01635 12.651 5 12.8601 5C14.5721 5 16.0154 6.09595 16.4594 7.59168H16.6373C18.4946 7.59168 20.0001 9.02623 20.0001 10.7958C20.0001 12.5654 18.4946 14 16.6373 14H16.0001M12.2462 5.04778C10.665 5.29657 9.41836 6.49038 9.16664 8M12.2462 5.04778C11.9363 4.76477 11.5208 4.59168 11.0642 4.59168H11.0303C11.0368 4.52054 11.0401 4.44851 11.0401 4.3757C11.0401 3.06364 9.95666 2 8.62013 2C7.51241 2 6.57852 2.73063 6.29123 3.72778M9.16664 8C9.13603 8.18356 9.12013 8.37179 9.12013 8.56355C9.12013 8.67276 9.12529 8.78081 9.13538 8.88751H9.08295C7.60127 8.88751 6.40013 10.032 6.40013 11.4438C6.40013 12.8555 7.60127 14 9.08295 14H12.0001M9.16664 8H6.17607C5.23079 8 4.42629 7.40826 4.12598 6.58154M8.6365 17H8.43195C7.64118 17 7.00013 17.6027 7.00013 18.3462C7.00013 19.0896 7.64118 19.6923 8.43195 19.6923H11.5001M16.0001 19.6923H11.5001M11.5001 19.6923C10.8223 19.6923 10.2729 20.2089 10.2729 20.8462C10.2729 21.4834 10.8223 22 11.5001 22H12.3183" stroke="black" stroke-width="2" stroke-linecap="round" stroke-linejoin="round"/>
</svg>
