<svg width="24" height="24" viewBox="0 0 24 24" fill="none" xmlns="http://www.w3.org/2000/svg">
<path d="M12 14.5V11.5M12 14.5V17.5M12 14.5L14.5301 12.8881M12 14.5L9.46975 16.1119M12 14.5L9.47005 12.8878M12 14.5L14.5304 16.1116M5.46965 12C5.16892 13.0188 5 13.9871 5 14.852C5 18.7997 8.13401 22 12 22C12.695 22 13.3663 21.8966 14 21.704M7.16806 8C8.30645 5.89758 9.77781 3.86038 11.2938 2.30025C11.6828 1.89992 12.3172 1.89992 12.7062 2.30025C15.9556 5.64429 19 11.1802 19 14.852C19 16.5216 18.4394 18.0575 17.5 19.2742" stroke="black" stroke-width="2" stroke-linecap="round" stroke-linejoin="round"/>
</svg>
