<svg width="24" height="24" viewBox="0 0 24 24" fill="none" xmlns="http://www.w3.org/2000/svg">
<path d="M5 16C5 12.134 8.13401 9 12 9C13.7135 9 15.2832 9.61568 16.5 10.6379M5 16H2C2 14.5778 2.2969 13.2249 2.83209 12M5 16H8M19 16H16M19 16H22C22 10.4772 17.5228 6 12 6C9.46388 6 7.14827 6.94409 5.38544 8.5M19 16C19 15.305 18.8987 14.6337 18.7101 14M8 16C8 13.7909 9.79086 12 12 12C14.2091 12 16 13.7909 16 16M8 16H16" stroke="black" stroke-width="2" stroke-linecap="round" stroke-linejoin="round"/>
</svg>
