<svg width="24" height="24" viewBox="0 0 24 24" fill="none" xmlns="http://www.w3.org/2000/svg">
<path d="M3.5 12H2M5.98959 5.98959L4.92893 4.92893M12 3.5V2M18.0104 5.98959L19.0711 4.92893M20.5 12H22M18.0104 18.0104L19.0711 19.0711M12 20.5V22M5.98959 18.0104L4.92893 19.0711M7.10002 11C7.03443 11.3231 7 11.6575 7 12C7 14.7614 9.23858 17 12 17C14.7614 17 17 14.7614 17 12C17 9.23858 14.7614 7 12 7C11.0893 7 10.2354 7.24349 9.5 7.66891" stroke="black" stroke-width="2" stroke-linecap="round" stroke-linejoin="round"/>
</svg>
