<svg width="24" height="24" viewBox="0 0 24 24" fill="none" xmlns="http://www.w3.org/2000/svg">
<path d="M10.0884 11.1597C10.0936 11.1662 10.0988 11.1728 10.1039 11.1793L12.5311 14.2764C12.8788 14.7201 13.5412 14.8006 13.9938 14.4541L15.4537 13.3364C16.1861 12.7757 17.0911 12.5913 17.9319 12.7386M10.0884 11.1597C8.6836 9.39625 5.81695 9.69395 4.84336 11.7127L4.22252 13M10.0884 11.1597C10.4744 9.35403 12.0791 8 14 8C14.3453 8 14.6804 8.04375 15 8.12602M17.9319 12.7386C18.8002 12.8907 19.5999 13.3964 20.0702 14.2066L21.7386 17.0806C22.499 18.3904 21.5093 20 19.9437 20H4.05577C2.55725 20 1.56345 18.5136 2.19141 17.2115L2.2934 17M17.9319 12.7386C17.9766 12.4992 18 12.2523 18 12C18 11.6547 17.9562 11.3196 17.874 11M9.19167 7.19167L8.34315 6.34315M14 5.2V4M18.8083 7.19167L19.6569 6.34315M20.8 12H22" stroke="black" stroke-width="2" stroke-linecap="round" stroke-linejoin="round"/>
</svg>
