<svg width="24" height="24" viewBox="0 0 24 24" fill="none" xmlns="http://www.w3.org/2000/svg">
<path d="M14 12C14 8.68629 11.3137 6 8 6C7.10779 6 6.26106 6.19474 5.5 6.54404M16 8H20C21.1046 8 22 7.10457 22 6C22 4.89543 21.1046 4 20 4M17 12H22M12.5 15H17.5C18.8807 15 20 16.1193 20 17.5C20 18.8807 18.8807 20 17.5 20H17M10.5 17.456C9.73894 17.8053 8.89221 18 8 18C4.68629 18 2 15.3137 2 12C2 11.2987 2.12031 10.6256 2.34141 10M8.00014 9.00019V12.2002M8.00014 14.7002H7.99414" stroke="black" stroke-width="2" stroke-linecap="round"/>
</svg>
