<svg width="24" height="24" viewBox="0 0 24 24" fill="none" xmlns="http://www.w3.org/2000/svg">
<path d="M22 4.05908L18.2939 6.28274C17.5129 6.75137 16.5249 6.69577 15.8014 6.14247L15.5726 5.96755C14.066 4.81539 11.9641 4.85332 10.5 6.05908L9.28575 7.05908M19 15.2946C17.4056 13.6533 15.203 10.9229 13.9581 9.34538C13.4167 8.65934 12.4354 8.50546 11.7148 8.99998L11.0348 9.46665C10.4371 9.87689 9.63064 9.79662 9.12548 9.27658C8.51938 8.65264 8.5754 7.64409 9.24686 7.09111L9.28575 7.05908M19 15.2946L22 12.2946M19 15.2946C21.3965 17.794 14.7307 20.1098 11.0348 19.9962M2 12.2946L5 15.2946L7.62801 18M9.28575 7.05908L2 4.05908" stroke="black" stroke-width="2" stroke-linecap="round" stroke-linejoin="round"/>
</svg>
