<svg width="24" height="24" viewBox="0 0 24 24" fill="none" xmlns="http://www.w3.org/2000/svg">
<path d="M22 7.05907H17.8851C17.311 7.05907 16.7529 6.87013 16.2969 6.52139L15.5726 5.96754C14.066 4.81538 11.9641 4.85331 10.5 6.05907L9.28575 7.05907M19 15.2946C17.4056 13.6533 15.203 10.9229 13.9581 9.34537C13.4167 8.65933 12.4354 8.50545 11.7148 8.99997L11.0348 9.46664C10.4371 9.87688 9.63064 9.79661 9.12548 9.27657C8.51938 8.65263 8.5754 7.64408 9.24686 7.0911L9.28575 7.05907M19 15.2946H22M19 15.2946C20.6481 17.0135 18.0103 18.6455 15 19.4602M2 15.2946H5L9 19.4124C9.35736 19.7803 10.0857 19.963 11 19.995M9.28575 7.05907H2" stroke="black" stroke-width="2" stroke-linecap="round" stroke-linejoin="round"/>
</svg>
