<svg width="24" height="24" viewBox="0 0 24 24" fill="none" xmlns="http://www.w3.org/2000/svg">
<path fill-rule="evenodd" clip-rule="evenodd" d="M9 3C8.44772 3 8 3.44772 8 4H16C16 3.44772 15.5523 3 15 3H9ZM18 4C18 2.34315 16.6569 1 15 1H9C7.34315 1 6 2.34315 6 4H5C4.44772 4 4 4.44772 4 5C4 5.55228 4.44772 6 5 6H7H12H17H19C20.1046 6 21 6.89543 21 8V9C21 10.1046 20.1046 11 19 11H17.917C17.9716 11.3252 18 11.6593 18 12C18 12.3407 17.9716 12.6748 17.917 13H19C19.7286 13 20.4117 12.8052 21 12.4649V15C21 15.5523 21.4477 16 22 16C22.5523 16 23 15.5523 23 15V9V8C23 5.79086 21.2091 4 19 4H18ZM5 11H6.08296C6.0284 11.3252 6 11.6593 6 12C6 12.3407 6.0284 12.6748 6.08296 13H5C4.27143 13 3.58835 12.8052 3 12.4649V19C3 20.1046 3.89543 21 5 21H19C20.1046 21 21 20.1046 21 19C21 18.4477 21.4477 18 22 18C22.5523 18 23 18.4477 23 19C23 21.2091 21.2091 23 19 23H5C2.79086 23 1 21.2091 1 19V9V8C1 7.44772 1.44772 7 2 7C2.55228 7 3 7.44772 3 8V9C3 10.1046 3.89543 11 5 11ZM7 18H12H17C17.5523 18 18 18.4477 18 19C18 19.5523 17.5523 20 17 20H7C6.44772 20 6 19.5523 6 19C6 18.4477 6.44772 18 7 18ZM13.4429 9.2393C13.4611 9.14783 13.4706 9.05328 13.4706 8.95652C13.4706 8.15211 12.8122 7.5 12 7.5C11.1878 7.5 10.5293 8.15211 10.5293 8.95652C10.5293 9.05328 10.5389 9.14783 10.557 9.2393L8.48798 9.23945C8.16067 9.23945 7.89533 9.50224 7.89533 9.82641C7.89533 10.1496 8.15915 10.4119 8.48517 10.4134L7.5 12.8124C7.50076 14.3478 10.4421 14.3478 10.4418 12.8124L9.45656 10.4133L11.4073 10.4131V15.3261H10.4196C10.0923 15.3261 9.82693 15.5889 9.82693 15.913C9.82693 16.2372 10.0923 16.5 10.4196 16.5H13.5804C13.9077 16.5 14.173 16.2372 14.173 15.913C14.173 15.5889 13.9077 15.3261 13.5804 15.3261H12.5926V10.4131L14.5434 10.4135L13.5582 12.8125C13.559 14.3479 16.5003 14.3479 16.5 12.8125L15.5148 10.4134C15.8408 10.4119 16.1046 10.1496 16.1046 9.82641C16.1046 9.50224 15.8393 9.23945 15.512 9.23945L13.4429 9.2393Z" fill="black"/>
</svg>
