<svg width="24" height="24" viewBox="0 0 24 24" fill="none" xmlns="http://www.w3.org/2000/svg">
<path d="M5.99978 7H4.45692C3.60482 7 2.91406 7.69076 2.91406 8.54286C2.91406 9.39495 3.60482 10.0857 4.45692 10.0857M5.99978 7V8.54286C5.99978 9.39495 5.30902 10.0857 4.45692 10.0857M5.99978 7H7.99955M17.9136 7H19.4565C20.3086 7 20.9993 7.69076 20.9993 8.54286C20.9993 9.39495 20.3086 10.0857 19.4565 10.0857M17.9136 7V8.54286C17.9136 9.39495 18.6044 10.0857 19.4565 10.0857M17.9136 7H15.9996M15.9996 21V7M15.9996 21H19.4565M15.9996 21H11.9996M7.99955 21V7M7.99955 21H4.45692M7.99955 21H11.9996M20.9996 21H19.4565M2.99955 21H4.45692M4.45692 10.0857V11M19.4565 10.0857V15M15.9996 7H7.99955M15.9996 7V5C15.9996 3.89543 15.1041 3 13.9996 3H9.99955C8.89498 3 7.99955 3.89543 7.99955 5V7M19.4565 21V19M4.45692 21V15M11.9996 21V16" stroke="black" stroke-width="2" stroke-linecap="round" stroke-linejoin="round"/>
</svg>
