<svg width="24" height="24" viewBox="0 0 24 24" fill="none" xmlns="http://www.w3.org/2000/svg">
<path d="M5.99978 7.00004H4.45692C3.60482 7.00004 2.91406 7.6908 2.91406 8.5429C2.91406 9.39499 3.60482 10.0858 4.45692 10.0858M5.99978 7.00004V8.5429C5.99978 9.39499 5.30902 10.0858 4.45692 10.0858M5.99978 7.00004H7.99955M17.9136 7.00004H19.4565C20.3086 7.00004 20.9993 7.6908 20.9993 8.5429C20.9993 9.39499 20.3086 10.0858 19.4565 10.0858M17.9136 7.00004V8.5429C17.9136 9.39499 18.6044 10.0858 19.4565 10.0858M17.9136 7.00004H15.9996M15.9996 18V7.00004M15.9996 18H19.4565M15.9996 18H11.9996M7.99955 18V7.00004M7.99955 18H4.45692M7.99955 18H11.9996M4.45692 10.0858V18M19.4565 10.0858V13M15.9996 7.00004L13 7.00002M7.99955 7.00004L9 7M2.99955 5.00004L11.5657 3.09645C11.8515 3.03295 12.1477 3.03295 12.4334 3.09645L20.9996 5.00004M19.4565 18H19.9996C20.5518 18 20.9996 18.4477 20.9996 19V20C20.9996 20.5523 20.5518 21 19.9996 21H3.99955C3.44727 21 2.99955 20.5523 2.99955 20V19C2.99955 18.4477 3.44727 18 3.99955 18H4.45692M19.4565 18V17M11.9996 18V13" stroke="black" stroke-width="2" stroke-linecap="round" stroke-linejoin="round"/>
</svg>
