<svg width="24" height="24" viewBox="0 0 24 24" fill="none" xmlns="http://www.w3.org/2000/svg">
<path d="M19.3072 14.2947C19.3072 14.3807 19.2988 14.4647 19.2826 14.546L21.1218 14.5462C21.4127 14.5462 21.6486 14.7798 21.6486 15.0679C21.6486 15.3552 21.4141 15.5883 21.1243 15.5896L22 17.7223C22.0003 19.087 19.3858 19.087 19.3851 17.7223L20.2608 15.5897L18.5268 15.5894V19.9565H19.4048C19.6957 19.9565 19.9316 20.1901 19.9316 20.4783C19.9316 20.7664 19.6957 21 19.4048 21H16.5952C16.3042 21 16.0684 20.7664 16.0684 20.4783C16.0684 20.1901 16.3042 19.9565 16.5952 19.9565H17.4732V15.5894L15.7392 15.5896L16.6149 17.7222C16.6152 19.087 14.0007 19.087 14 17.7222L14.8757 15.5896C14.5859 15.5883 14.3514 15.3552 14.3514 15.0679C14.3514 14.7798 14.5873 14.5462 14.8782 14.5462L16.7174 14.546C16.7012 14.4647 16.6927 14.3807 16.6927 14.2947C16.6927 13.5797 17.278 13 18 13C18.722 13 19.3072 13.5797 19.3072 14.2947Z" fill="black"/>
<path fill-rule="evenodd" clip-rule="evenodd" d="M13.0011 2C13.0011 1.44772 12.5534 1 12.0011 1C11.4488 1 11.0011 1.44772 11.0011 2V2.03566C9.45326 2.14795 8.08538 2.52172 6.90943 3.10378C6.41446 3.34877 6.21182 3.94864 6.45681 4.44361C6.70181 4.93858 7.30167 5.14122 7.79664 4.89622C7.90136 4.84439 8.00852 4.7944 8.11812 4.74637C8.05991 4.86765 8.0049 4.99081 7.95299 5.11538C7.36744 6.52071 7.09444 8.26084 7.02165 10H4.07288C4.22314 8.95966 4.60874 7.95385 5.22679 7.07544C5.5446 6.62376 5.43607 5.99996 4.98439 5.68216C4.5327 5.36435 3.90891 5.47288 3.5911 5.92456C2.63946 7.27709 2.11812 8.84899 2.01865 10.4378C1.96275 11.3306 2.69043 12 3.50107 12H8.00107H11.0007L10.9997 14.9997C10.9995 15.5519 11.447 15.9998 11.9993 16C12.175 16.0001 12.34 15.9548 12.4835 15.8754C12.3982 15.6227 12.3518 15.3514 12.3518 15.0679C12.3518 14.5417 12.5117 14.0572 12.7837 13.6565L12.8306 13.5898C12.8835 13.5171 12.9401 13.4474 13.0002 13.3809L13.0007 12H15.6271C16.231 11.3814 17.0752 11 18.0004 11C18.9255 11 19.7697 11.3814 20.3736 12H20.5011C21.3117 12 22.0394 11.3306 21.9835 10.4378C21.8488 8.28646 20.9382 6.16632 19.2418 4.58388C17.7255 3.16953 15.627 2.22642 13.0011 2.0357V2ZM12.013 18.0001C12.087 18.8113 12.4804 19.4684 13.0009 19.9237L13.0011 19.9981L13.0011 20C13.0011 20.8252 12.5985 21.5668 12.0832 22.0821C11.5678 22.5975 10.8263 23 10.0011 23C9.17584 23 8.43431 22.5975 7.91896 22.0821C7.40362 21.5668 7.00107 20.8252 7.00107 20C7.00107 19.4477 7.44878 19 8.00107 19C8.55335 19 9.00107 19.4477 9.00107 20C9.00107 20.1748 9.09852 20.4332 9.33318 20.6679C9.56783 20.9025 9.8263 21 10.0011 21C10.1758 21 10.4343 20.9025 10.669 20.6679C10.9033 20.4335 11.0008 20.1754 11.0011 20.0006L11.0011 20L10.9992 19.0019C10.9982 18.4496 11.4451 18.001 11.9974 18C12.0026 18 12.0078 18 12.013 18.0001ZM9.79915 5.88462C10.3461 4.57182 11.0736 4 12.0011 4C12.9286 4 13.656 4.57182 14.203 5.88462C14.6592 6.97947 14.9065 8.4324 14.9785 10H12.0011H9.0236C9.09567 8.4324 9.34296 6.97947 9.79915 5.88462ZM19.9292 10H16.9805C16.9077 8.26084 16.6347 6.52071 16.0491 5.11538C15.9973 4.99101 15.9424 4.86804 15.8843 4.74695C16.668 5.09075 17.3305 5.5361 17.8776 6.0464C19.0299 7.12129 19.7162 8.52625 19.9292 10Z" fill="black"/>
</svg>
