<svg width="24" height="24" viewBox="0 0 24 24" fill="none" xmlns="http://www.w3.org/2000/svg">
<path fill-rule="evenodd" clip-rule="evenodd" d="M16.7 13.8C16.7 13.3582 17.0582 13 17.5 13H17.504C17.9458 13 18.304 13.3582 18.304 13.8C18.304 14.1519 18.0768 14.4507 17.7611 14.5578L18.6457 15.7699C18.6591 15.7889 18.6795 15.7999 18.701 15.7999H19.9252C19.9087 15.736 19.9 15.669 19.9 15.6C19.9 15.1582 20.2581 14.8 20.7 14.8H20.7C21.1418 14.8 21.5 15.1582 21.5 15.6C21.5 16.0418 21.1418 16.4 20.7 16.4H20.7C20.4791 16.4 20.2792 16.3105 20.1345 16.1658L19.3796 17.3533C19.3619 17.3812 19.3619 17.4187 19.3796 17.4466L20.1345 18.6341C20.2792 18.4894 20.4792 18.4 20.7 18.4H20.7C21.1418 18.4 21.5 18.7581 21.5 19.2C21.5 19.6418 21.1418 20 20.7 20H20.7C20.2581 20 19.9 19.6418 19.9 19.2C19.9 19.1309 19.9087 19.0639 19.9252 18.9999L18.701 18.9999C18.6795 18.9999 18.6591 19.011 18.6457 19.03L17.7611 20.2422C18.0768 20.3493 18.304 20.6481 18.304 21C18.304 21.4418 17.9458 21.7999 17.504 21.7999H17.5C17.0582 21.7999 16.7 21.4418 16.7 21C16.7 20.6447 16.9315 20.3436 17.2519 20.2392L16.424 19.0347C16.409 19.013 16.3844 19 16.358 19L15.0788 19C15.0952 19.0639 15.104 19.1309 15.104 19.2C15.104 19.6418 14.7458 20 14.304 20H14.3C13.8582 20 13.5 19.6418 13.5 19.2C13.5 18.7581 13.8582 18.4 14.3 18.4H14.304C14.5446 18.4 14.7604 18.5062 14.907 18.6743L15.6898 17.4429C15.7064 17.4167 15.7064 17.3833 15.6898 17.3571L14.907 16.1257C14.7604 16.2938 14.5446 16.4 14.304 16.4H14.3C13.8582 16.4 13.5 16.0418 13.5 15.6C13.5 15.1582 13.8582 14.8 14.3 14.8H14.304C14.7458 14.8 15.104 15.1582 15.104 15.6C15.104 15.669 15.0952 15.7361 15.0788 15.8H16.358C16.3844 15.8 16.409 15.787 16.424 15.7653L17.252 14.5608C16.9315 14.4564 16.7 14.1552 16.7 13.8Z" fill="black"/>
<path fill-rule="evenodd" clip-rule="evenodd" d="M13.0011 2C13.0011 1.44772 12.5534 1 12.0011 1C11.4488 1 11.0011 1.44772 11.0011 2V2.03566C9.45326 2.14795 8.08538 2.52172 6.90943 3.10378C6.41446 3.34877 6.21182 3.94864 6.45681 4.44361C6.70181 4.93858 7.30167 5.14122 7.79664 4.89622C7.90136 4.84439 8.00852 4.7944 8.11812 4.74637C8.05991 4.86765 8.0049 4.99081 7.95299 5.11538C7.36744 6.52071 7.09444 8.26084 7.02165 10H4.07288C4.22314 8.95966 4.60874 7.95385 5.22679 7.07544C5.5446 6.62376 5.43607 5.99996 4.98439 5.68216C4.5327 5.36435 3.90891 5.47288 3.5911 5.92456C2.63946 7.27709 2.11812 8.84899 2.01865 10.4378C1.96275 11.3306 2.69043 12 3.50107 12H8.00107H11.0007L10.9997 14.9997C10.9995 15.5519 11.447 15.9998 11.9993 16C12.0112 16 12.023 15.9998 12.0347 15.9994C12.012 15.8697 12.0002 15.7362 12.0002 15.6C12.0002 14.8122 12.3963 14.1169 13.0001 13.7024L13.0007 12H16.0011H16.0682C16.4611 11.687 16.9588 11.5 17.5002 11.5H17.5042C18.0455 11.5 18.5432 11.687 18.9361 12H20.5011C21.3117 12 22.0394 11.3306 21.9835 10.4378C21.8488 8.28646 20.9382 6.16632 19.2418 4.58388C17.7255 3.16953 15.627 2.22642 13.0011 2.0357V2ZM12.3086 18.0488C12.1125 18.3873 12.0002 18.7805 12.0002 19.2C12.0002 19.9061 12.3184 20.5379 12.8193 20.9598C12.6533 21.3934 12.388 21.7773 12.0832 22.0821C11.5678 22.5975 10.8263 23 10.0011 23C9.17584 23 8.43431 22.5975 7.91896 22.0821C7.40362 21.5668 7.00107 20.8252 7.00107 20C7.00107 19.4477 7.44878 19 8.00107 19C8.55335 19 9.00107 19.4477 9.00107 20C9.00107 20.1748 9.09852 20.4332 9.33318 20.6679C9.56783 20.9025 9.8263 21 10.0011 21C10.1758 21 10.4343 20.9025 10.669 20.6679C10.9033 20.4335 11.0008 20.1754 11.0011 20.0006L11.0011 20L10.9992 19.0019C10.9982 18.4496 11.4451 18.001 11.9974 18C12.106 17.9998 12.2106 18.0169 12.3086 18.0488ZM9.79915 5.88462C10.3461 4.57182 11.0736 4 12.0011 4C12.9286 4 13.656 4.57182 14.203 5.88462C14.6592 6.97947 14.9065 8.4324 14.9785 10H12.0011H9.0236C9.09567 8.4324 9.34296 6.97947 9.79915 5.88462ZM19.9292 10H16.9805C16.9077 8.26084 16.6347 6.52071 16.0491 5.11538C15.9973 4.99101 15.9424 4.86804 15.8843 4.74695C16.668 5.09075 17.3305 5.5361 17.8776 6.0464C19.0299 7.12129 19.7162 8.52625 19.9292 10Z" fill="black"/>
</svg>
