<svg width="24" height="24" viewBox="0 0 24 24" fill="none" xmlns="http://www.w3.org/2000/svg">
<path fill-rule="evenodd" clip-rule="evenodd" d="M12.0011 2C12.0011 1.44772 11.5534 1 11.0011 1C10.4488 1 10.0011 1.44772 10.0011 2V2.03566C8.76023 2.12569 7.63494 2.38385 6.63063 2.78322C6.11743 2.98729 5.86684 3.56876 6.07091 4.08195C6.24483 4.51932 6.69286 4.76595 7.13912 4.70297C7.0731 4.83823 7.0111 4.97592 6.95299 5.11538C6.36744 6.52071 6.09444 8.26084 6.02165 10H3.07293C3.24873 8.78439 3.74649 7.61564 4.56094 6.64137C4.91516 6.21764 4.85881 5.58699 4.43508 5.23277C4.01135 4.87855 3.3807 4.9349 3.02648 5.35863C1.79895 6.82704 1.13238 8.62124 1.01865 10.4378C0.962753 11.3306 1.69043 12 2.50107 12H7.00107H10.001L10.0006 14.9999C10.0005 15.5522 10.4482 15.9999 11.0005 16C11.5528 16.0001 12.0005 15.5524 12.0006 15.0001L12.001 12H15.0011H19.5011C20.3117 12 21.0394 11.3306 20.9835 10.4378C20.8488 8.28646 19.9382 6.16632 18.2418 4.58388C16.7255 3.16953 14.627 2.22642 12.0011 2.0357V2ZM8.79915 5.88462C9.34614 4.57182 10.0736 4 11.0011 4C11.9286 4 12.656 4.57182 13.203 5.88462C13.6592 6.97947 13.9065 8.4324 13.9785 10H11.0011H8.0236C8.09567 8.4324 8.34296 6.97947 8.79915 5.88462ZM18.9292 10H15.9805C15.9077 8.26084 15.6347 6.52071 15.0491 5.11538C14.9973 4.99101 14.9424 4.86804 14.8843 4.74695C15.668 5.09075 16.3305 5.5361 16.8776 6.0464C18.0299 7.12129 18.7162 8.52625 18.9292 10ZM12.0001 18.9991C11.9996 18.4468 11.5515 17.9995 10.9992 18C10.4469 18.0005 9.99963 18.4486 10.0001 19.0009L10.0011 20V20.0003C10.001 20.1751 9.90348 20.4334 9.66896 20.6679C9.43431 20.9025 9.17584 21 9.00107 21C8.8263 21 8.56783 20.9025 8.33318 20.6679C8.09852 20.4332 8.00107 20.1748 8.00107 20C8.00107 19.4477 7.55335 19 7.00107 19C6.44878 19 6.00107 19.4477 6.00107 20C6.00107 20.8252 6.40362 21.5668 6.91896 22.0821C7.43431 22.5975 8.17584 23 9.00107 23C9.8263 23 10.5678 22.5975 11.0832 22.0821C11.5985 21.5668 12.0011 20.8252 12.0011 20V19.9991L12.0001 18.9991ZM17.4743 13.9667L21.0957 17.5601C21.1343 17.5984 21.1965 17.5984 21.235 17.5601L21.3759 17.4203C21.4907 17.3064 21.6758 17.3064 21.7905 17.4203C21.9065 17.5354 21.9065 17.723 21.7905 17.8381L19.4923 20.1185C19.3776 20.2324 19.1925 20.2324 19.0777 20.1185C18.9617 20.0034 18.9617 19.8158 19.0777 19.7007L19.2154 19.5641C19.2538 19.526 19.2538 19.464 19.2154 19.4259L18.242 18.46C18.164 18.3826 18.0382 18.3826 17.9602 18.46L14.745 21.6504C14.55 21.8439 14.2354 21.8438 14.0405 21.6502L13.3584 20.9729C13.1615 20.7773 13.1616 20.4587 13.3586 20.2632L16.5664 17.0802C16.6452 17.002 16.6452 16.8744 16.5663 16.7962L15.594 15.8324C15.5554 15.7942 15.4933 15.7942 15.4547 15.8325L15.348 15.9384C15.2143 16.071 14.9987 16.071 14.865 15.9384C14.7298 15.8043 14.7298 15.5857 14.865 15.4516L17.0942 13.2396C17.2279 13.107 17.4436 13.107 17.5772 13.2396C17.7124 13.3737 17.7124 13.5923 17.5772 13.7264L17.4743 13.8285C17.4359 13.8666 17.4359 13.9286 17.4743 13.9667Z" fill="black"/>
</svg>
