<svg width="24" height="24" viewBox="0 0 24 24" fill="none" xmlns="http://www.w3.org/2000/svg">
<path d="M19.585 10.5857C20.366 11.3668 20.366 12.6331 19.585 13.4141M19.585 13.4141L21.9992 10.9999M19.585 13.4141L17.9134 15.0857M17.9134 15.0857L15.4992 17.4999M17.9134 15.0857C17.1324 15.8668 15.866 15.8667 15.085 15.0857L13.1242 13.1249M10.8742 10.8749L8.91341 8.91413C8.13253 8.13325 8.13286 6.86679 8.91341 6.0857M10.8742 10.8749L13.1242 13.1249M10.8742 10.8749L8.74911 13M13.1242 13.1249L5.37419 20.8749C4.75287 21.4962 3.74551 21.4962 3.12419 20.8749C2.50287 20.2536 2.50287 19.2462 3.12419 18.6249L5.74911 16M8.91341 6.0857L9.74919 5.24991M8.91341 6.0857L6.49919 8.49991M9.74919 5.24991L10.585 4.41413C10.5869 4.41223 10.5888 4.41033 10.5907 4.40844M9.74919 5.24991L10.5907 4.40844M10.5907 4.40844L12.9992 2M10.5907 4.40844C11.3722 3.63308 12.6343 3.63498 13.4134 4.41413L16.4992 7.49992" stroke="black" stroke-width="2" stroke-linecap="round" stroke-linejoin="round"/>
</svg>
