<svg width="24" height="24" viewBox="0 0 24 24" fill="none" xmlns="http://www.w3.org/2000/svg">
<path d="M16.0688 8.86856C16.6936 9.4934 16.6936 10.5065 16.0688 11.1313M16.0688 11.1313L18.0001 9.19993M16.0688 11.1313L14.7315 12.4686M14.7315 12.4686L12.8001 14.3999M14.7315 12.4686C14.1067 13.0934 13.0936 13.0934 12.4688 12.4686L10.9001 10.8999M9.10014 9.09993L7.53151 7.5313C6.90667 6.90646 6.90667 5.8934 7.53151 5.26856M9.10014 9.09993L10.9001 10.8999M9.10014 9.09993L2.90014 15.2999C2.40308 15.797 2.40308 16.6029 2.90014 17.0999C3.39719 17.597 4.20308 17.597 4.70014 17.0999L10.9001 10.8999M7.53151 5.26856L5.60014 7.19993M7.53151 5.26856L8.86877 3.9313L8.87331 3.92677M8.87331 3.92677L10.8001 2M8.87331 3.92677C9.49851 3.30647 10.5082 3.30798 11.1315 3.9313L13.2002 6M21.0001 21H12.0001M14.0001 20H19.0001" stroke="black" stroke-width="2" stroke-linecap="round" stroke-linejoin="round"/>
</svg>
