<svg width="24" height="24" viewBox="0 0 24 24" fill="none" xmlns="http://www.w3.org/2000/svg">
<path d="M3 20.9999C3 15.8233 6.96398 12.86 8.9728 12.0113M8.9728 12.0113C8.98191 12.0074 8.99097 12.0036 9 11.9999M8.9728 12.0113C6.24348 13.1495 5.68446 11.262 6 9.99986C4 8.49986 5 6.49986 6.5 6.49986C5.5628 4.62546 7.02803 3.19023 8.66853 3.47781C8.83508 3.50701 8.99936 3.38546 9.02485 3.21831C9.28614 1.50519 11.5293 1.58787 12 2.99986C12.4707 1.58787 14.7139 1.505 14.9752 3.21812C15.0006 3.38527 15.1649 3.50682 15.3315 3.47762C16.972 3.19004 18.4372 4.62527 17.5 6.49967C19 6.49967 20 8.49986 18 9.99986C18.3155 11.262 17.7565 13.1495 15.0272 12.0113M9 11.9999C9 13.1187 9.43464 13.8463 10 14.3044M9 11.9999C9 10.9791 9 9.65092 9.23078 8.49986M10 14.3044C10.6474 14.8289 11.4662 14.9999 12 14.9999C12.5338 14.9999 13.3526 14.8289 14 14.3044M10 14.3044L8.50247 19.3177C8.28066 20.0603 8.95133 20.762 9.70317 20.5741L11.2724 20.1818C11.5113 20.122 11.7556 20.0922 12 20.0922M15 11.9999C15 9.59986 15 5.49986 12 5.99986M15 11.9999C15.0091 12.0037 15.0182 12.0075 15.0272 12.0113M15 11.9999C15 13.1187 14.5654 13.8463 14 14.3044M15.0272 12.0113C17.036 12.86 21 15.8233 21 20.9999M14 14.3044L15.4975 19.3177" stroke="black" stroke-width="2" stroke-linecap="round" stroke-linejoin="round"/>
</svg>
