<svg width="24" height="24" viewBox="0 0 24 24" fill="none" xmlns="http://www.w3.org/2000/svg">
<path d="M3 21C3 15.8235 6.96398 12.8602 8.9728 12.0114M8.9728 12.0114C8.98191 12.0076 8.99097 12.0038 9 12M8.9728 12.0114C6.24348 13.1496 5.68446 11.2622 6 10C4 8.5 5.5 6 7 6C7.5 4.5 8.5 3 12 3C15.5 3 16.5 4.5 17 6C18.5 6 20 8.5 18 10C18.3155 11.2622 17.7565 13.1496 15.0272 12.0114M9 12C9 13.1188 9.43464 13.8465 10 14.3045M9 12C9 10.9793 9 9.65106 9.23078 8.5M10 14.3045C10.6474 14.829 11.4662 15 12 15C12.5338 15 13.3526 14.829 14 14.3045M10 14.3045L8.76841 18.4276C8.38524 19.7103 9.346 21 10.6847 21H12.3153M12 6C15 5.5 15 9.6 15 12M15 12C15.0091 12.0038 15.0182 12.0076 15.0272 12.0114M15 12C15 13.1188 14.5654 13.8465 14 14.3045M15.0272 12.0114C17.036 12.8602 21 15.8235 21 21M14 14.3045L15.2316 18.4276" stroke="black" stroke-width="2" stroke-linecap="round" stroke-linejoin="round"/>
</svg>
