<svg width="24" height="24" viewBox="0 0 24 24" fill="none" xmlns="http://www.w3.org/2000/svg">
<path d="M2 12.1765H8M2 12.1765C2 14.4354 4 15.0001 5 15.0001C6 15.0001 8 14.2942 8 12.1765M2 12.1765L2.71156 10M8 12.1765L5 3.00006M5 3.00006C6.24426 3.00006 6.80044 2.31198 8.09547 2.07735C8.67826 1.97177 9.26297 2.17538 9.75577 2.50391L12 4.00006M5 3.00006H3M5 3.00006L4.01925 6M12 22.0001V20M6 20.0001V20.5001C6 21.3285 6.67157 22.0001 7.5 22.0001H16.5C17.3284 22.0001 18 21.3285 18 20.5001V20.0001M22 12.1765H16M22 12.1765C22 14.4354 20 15.0001 19 15.0001C18 15.0001 16 14.2942 16 12.1765M22 12.1765L19 3.00006M16 12.1765L19 3.00006M19 3.00006C17.7557 3.00006 17.1996 2.31198 15.9045 2.07735C15.3217 1.97177 14.737 2.17538 14.2442 2.50391L12 4.00006M19 3.00006H21M12 4.00006V16" stroke="black" stroke-width="2" stroke-linecap="round" stroke-linejoin="round"/>
</svg>
