<svg width="24" height="24" viewBox="0 0 24 24" fill="none" xmlns="http://www.w3.org/2000/svg">
<path d="M3 18.1765H9M3 18.1765C3 20.4353 5 21 6 21C7 21 9 20.2941 9 18.1765M3 18.1765L6 9M9 18.1765L6 9M6 9C7.5 9 7 8 9 8H15C16 8 16.5 9 18 9M6 9H4M21 18.1765H15M21 18.1765C21 20.4353 19 21 18 21C17 21 15 20.2941 15 18.1765M21 18.1765L20.6154 17M15 18.1765L18 9M18 9H20M18 9L19.3077 13M12 3C13.1046 3 14 3.89543 14 5C14 6.10457 13.1046 7 12 7C11.0681 7 10.285 6.36261 10.063 5.5" stroke="black" stroke-width="2" stroke-linecap="round" stroke-linejoin="round"/>
</svg>
