<svg width="24" height="24" viewBox="0 0 24 24" fill="none" xmlns="http://www.w3.org/2000/svg">
<path fill-rule="evenodd" clip-rule="evenodd" d="M13.2826 3.56104C13.2988 3.47894 13.3072 3.39408 13.3072 3.30724C13.3072 2.58527 12.722 2 12 2C11.278 2 10.6927 2.58527 10.6927 3.30724C10.6927 3.39408 10.7012 3.47894 10.7174 3.56104L8.87821 3.56117C8.58726 3.56117 8.35141 3.79703 8.35141 4.08797C8.35141 4.37808 8.58591 4.61342 8.8757 4.61477L8 6.76797C8.00068 8.14599 10.6152 8.14599 10.6149 6.76797L9.73916 4.61468L11.4732 4.61455V9.02399H10.5952C10.3042 9.02399 10.0684 9.25985 10.0684 9.55079C10.0684 9.84173 10.3042 10.0776 10.5952 10.0776H13.4048C13.6957 10.0776 13.9316 9.84173 13.9316 9.55079C13.9316 9.25985 13.6957 9.02399 13.4048 9.02399H12.5268V4.61455L14.2608 4.61486L13.3851 6.76806C13.3858 8.14608 16.0003 8.14608 16 6.76806L15.1243 4.61477C15.4141 4.61342 15.6486 4.37808 15.6486 4.08797C15.6486 3.79703 15.4127 3.56117 15.1218 3.56117L13.2826 3.56104ZM3 11C2.44772 11 2 11.4477 2 12C2 12.5523 2.44772 13 3 13H4V15H3C2.44772 15 2 15.4477 2 16C2 16.5523 2.44772 17 3 17H5C3.34315 17 2 18.3431 2 20C2 21.6569 3.34315 23 5 23H14C14.5523 23 15 22.5523 15 22C15 21.4477 14.5523 21 14 21H5C4.44772 21 4 20.5523 4 20C4 19.4477 4.44772 19 5 19H18V21C17.4477 21 17 21.4477 17 22C17 22.5523 17.4477 23 18 23H19H21C21.5523 23 22 22.5523 22 22C22 21.4477 21.5523 21 21 21H20V19H21C21.5523 19 22 18.5523 22 18C22 17.4477 21.5523 17 21 17H19C20.6569 17 22 15.6569 22 14C22 12.3431 20.6569 11 19 11H11C10.4477 11 10 11.4477 10 12C10 12.5523 10.4477 13 11 13H19C19.5523 13 20 13.4477 20 14C20 14.5523 19.5523 15 19 15H6V13H7C7.55228 13 8 12.5523 8 12C8 11.4477 7.55228 11 7 11H5H3Z" fill="black"/>
</svg>
