<svg width="24" height="24" viewBox="0 0 24 24" fill="none" xmlns="http://www.w3.org/2000/svg">
<path fill-rule="evenodd" clip-rule="evenodd" d="M6 1C4.34315 1 3 2.34315 3 4V5C3 5.55228 3.44772 6 4 6C4.55228 6 5 5.55228 5 5V4C5 3.44772 5.44772 3 6 3H18C18.5523 3 19 3.44772 19 4V17H18H17C16.4477 17 16 17.4477 16 18C16 18.5523 16.4477 19 17 19V21H6C5.44771 21 5 20.5523 5 20C5 19.4477 5.44772 19 6 19H13C13.5523 19 14 18.5523 14 18C14 17.4477 13.5523 17 13 17H6C5.64936 17 5.31278 17.0602 5 17.1707V9C5 8.44772 4.55228 8 4 8C3.44772 8 3 8.44772 3 9V20C3 21.6569 4.34315 23 6 23H18H20C20.5523 23 21 22.5523 21 22C21 21.4477 20.5523 21 20 21H19V19C20.1046 19 21 18.1046 21 17V4C21 2.34315 19.6569 1 18 1H6ZM13.8255 6.47245C13.8485 6.35556 13.8605 6.23474 13.8605 6.11111C13.8605 5.08325 13.0273 4.25 11.9994 4.25C10.9716 4.25 10.1383 5.08325 10.1383 6.11111C10.1383 6.23474 10.1504 6.35556 10.1734 6.47245L7.55498 6.47263C7.14077 6.47263 6.80498 6.80842 6.80498 7.22263C6.80498 7.63565 7.13885 7.9707 7.55142 7.97262L6.30469 11.0381C6.30565 13 10.0279 13 10.0275 11.0381L8.78072 7.97249L11.2494 7.97231V14.25H9.99943C9.58521 14.25 9.24943 14.5858 9.24943 15C9.24943 15.4142 9.58521 15.75 9.99943 15.75H13.9994C14.4136 15.75 14.7494 15.4142 14.7494 15C14.7494 14.5858 14.4136 14.25 13.9994 14.25H12.7494V7.97231L15.2181 7.97275L13.9714 11.0382C13.9724 13.0001 17.6946 13.0001 17.6942 11.0382L16.4474 7.97262C16.86 7.9707 17.1939 7.63565 17.1939 7.22263C17.1939 6.80842 16.8581 6.47263 16.4439 6.47263L13.8255 6.47245Z" fill="black"/>
</svg>
