<svg width="24" height="24" viewBox="0 0 24 24" fill="none" xmlns="http://www.w3.org/2000/svg">
<path fill-rule="evenodd" clip-rule="evenodd" d="M4 4.54286C4 4.24305 4.24305 4 4.54286 4C4.84267 4 5.08571 4.24305 5.08571 4.54286V5.08571H4.54286C4.24305 5.08571 4 4.84267 4 4.54286ZM7.08571 4.54286C7.08571 4.35655 7.06568 4.17491 7.02764 4H15.4286C16.5331 4 17.4286 4.89543 17.4286 6V14.9144L17.0001 14.9145C16.4478 14.9146 16.0001 15.3624 16.0002 15.9147C16.0003 16.467 16.4481 16.9146 17.0004 16.9145L18.4286 16.9143H18.4287L20 16.9143V19.4571C20 19.757 19.757 20 19.4571 20H10.1134C10.1514 19.8251 10.1714 19.6435 10.1714 19.4571V16.9143L13.0001 16.9145C13.5524 16.9146 14.0002 16.4669 14.0002 15.9146C14.0003 15.3623 13.5526 14.9146 13.0003 14.9145L10.1715 14.9143H10.1714C9.06686 14.9143 8.17143 15.8097 8.17143 16.9143V19.4571C8.17143 19.757 7.92838 20 7.62857 20C7.32876 20 7.08571 19.757 7.08571 19.4572L7.08594 11.0002C7.08595 10.448 6.63825 10.0002 6.08596 10.0002C5.53368 10.0002 5.08595 10.4479 5.08594 11.0002L5.08571 19.4571C5.08571 20.8615 6.22419 22 7.62857 22H19.4571C20.8615 22 22 20.8615 22 19.4571V16.9143C22 15.8097 21.1046 14.9143 20 14.9143H19.4286V6C19.4286 3.79086 17.6377 2 15.4286 2H4.54286C3.13848 2 2 3.13848 2 4.54286C2 5.94724 3.13848 7.08571 4.54286 7.08571H5.08954C5.13292 7.59809 5.56261 8.00035 6.08618 8.00022C6.63847 8.00009 7.08607 7.55226 7.08594 6.99998L7.08571 6.08571V6.08547V4.54286ZM10 12C9.44772 12 9 12.4477 9 13C9 13.5523 9.44772 14 10 14H14.5C15.0523 14 15.5 13.5523 15.5 13C15.5 12.4477 15.0523 12 14.5 12H10ZM12.962 6.15954C12.9741 6.09855 12.9804 6.03552 12.9804 5.97101C12.9804 5.43474 12.5415 5 12 5C11.4585 5 11.0196 5.43474 11.0196 5.97101C11.0196 6.03552 11.0259 6.09855 11.038 6.15954L9.65866 6.15963C9.44045 6.15963 9.26356 6.33483 9.26356 6.55094C9.26356 6.76643 9.43944 6.94124 9.65678 6.94224L9 8.54163C9.00051 9.56522 10.9614 9.56522 10.9612 8.54163L10.3044 6.94217L11.6049 6.94208V10.2174H10.9464C10.7282 10.2174 10.5513 10.3926 10.5513 10.6087C10.5513 10.8248 10.7282 11 10.9464 11H13.0536C13.2718 11 13.4487 10.8248 13.4487 10.6087C13.4487 10.3926 13.2718 10.2174 13.0536 10.2174H12.3951V6.94208L13.6956 6.9423L13.0388 8.54169C13.0393 9.56528 15.0002 9.56528 15 8.54169L14.3432 6.94224C14.5605 6.94124 14.7364 6.76643 14.7364 6.55094C14.7364 6.33483 14.5595 6.15963 14.3413 6.15963L12.962 6.15954Z" fill="black"/>
</svg>
