<svg width="24" height="24" viewBox="0 0 24 24" fill="none" xmlns="http://www.w3.org/2000/svg">
<path fill-rule="evenodd" clip-rule="evenodd" d="M4 4.54286C4 4.24305 4.24305 4 4.54286 4C4.84267 4 5.08571 4.24305 5.08571 4.54286V5.08571H4.54286C4.24305 5.08571 4 4.84267 4 4.54286ZM7.08571 4.54286C7.08571 4.35655 7.06568 4.17491 7.02764 4H15.4286C16.5331 4 17.4286 4.89543 17.4286 6V14.9144L17.0001 14.9145C16.4478 14.9146 16.0001 15.3624 16.0002 15.9147C16.0003 16.467 16.4481 16.9146 17.0004 16.9145L18.4286 16.9143H18.4287L20 16.9143V19.4571C20 19.757 19.757 20 19.4571 20H10.1134C10.1514 19.8251 10.1714 19.6435 10.1714 19.4571V16.9143L13.0001 16.9145C13.5524 16.9146 14.0002 16.4669 14.0002 15.9146C14.0003 15.3623 13.5526 14.9146 13.0003 14.9145L10.1715 14.9143H10.1714C9.06686 14.9143 8.17143 15.8097 8.17143 16.9143V19.4571C8.17143 19.757 7.92838 20 7.62857 20C7.32876 20 7.08571 19.757 7.08571 19.4572L7.08594 11.0002C7.08595 10.448 6.63825 10.0002 6.08596 10.0002C5.53368 10.0002 5.08595 10.4479 5.08594 11.0002L5.08571 19.4571C5.08571 20.8615 6.22419 22 7.62857 22H19.4571C20.8615 22 22 20.8615 22 19.4571V16.9143C22 15.8097 21.1046 14.9143 20 14.9143H19.4286V6C19.4286 3.79086 17.6377 2 15.4286 2H4.54286C3.13848 2 2 3.13848 2 4.54286C2 5.94724 3.13848 7.08571 4.54286 7.08571H5.08954C5.13292 7.59809 5.56261 8.00035 6.08618 8.00022C6.63847 8.00009 7.08607 7.55226 7.08594 6.99998L7.08571 6.08571V6.08547V4.54286ZM10.9444 7.88287V7.33333C10.9444 6.59695 11.5414 6 12.2778 6H12.7222C13.4586 6 14.0556 6.59695 14.0556 7.33333V7.88287C14.0556 8.43485 13.927 8.97925 13.6802 9.47296L13.4142 10.0049C13.3245 10.1844 13.2778 10.3822 13.2778 10.5829C13.2778 11.0587 13.6635 11.4444 14.1394 11.4444H14.963C15.5357 11.4444 16 11.9087 16 12.4815C16 12.7679 15.7679 13 15.4815 13H9.51852C9.23215 13 9 12.7679 9 12.4815C9 11.9087 9.4643 11.4444 10.037 11.4444H10.8606C11.3365 11.4444 11.7222 11.0587 11.7222 10.5829C11.7222 10.3822 11.6755 10.1844 11.5858 10.0049L11.3198 9.47296C11.073 8.97925 10.9444 8.43485 10.9444 7.88287Z" fill="black"/>
</svg>
