<svg width="24" height="24" viewBox="0 0 24 24" fill="none" xmlns="http://www.w3.org/2000/svg">
<path d="M8.00044 18H6.23651C5.47897 18 4.78644 18.428 4.44766 19.1056L3.72405 20.5528C3.3916 21.2177 3.8751 22 4.61848 22H14M8.00044 18H16.0004M8.00044 18L7.09135 13M16.0004 18H17.7644C18.5219 18 19.2144 18.428 19.5532 19.1056L20.2768 20.5528C20.6093 21.2177 20.1258 22 19.3824 22H18M16.0004 18L17.562 9.41171C17.8171 8.00835 17.0489 6.61937 15.7245 6.08963L15.5004 6M8.50044 6L8.27638 6.08963C7.08192 6.56741 6.33983 7.74415 6.39295 9M8.50044 6L11.1763 5.23548C11.7149 5.08157 12.2859 5.08157 12.8246 5.23548L15.5004 6M8.50044 6V4.60555C8.50044 3.60249 9.00175 2.6658 9.83634 2.1094L10.0004 2M15.5004 6V4.60555C15.5004 3.60249 14.9991 2.6658 14.1645 2.1094L14.0004 2M14.0004 12C14.0004 13.1046 13.105 14 12.0004 14C10.8959 14 10.0004 13.1046 10.0004 12C10.0004 10.8954 10.8959 10 12.0004 10C13.105 10 14.0004 10.8954 14.0004 12Z" stroke="black" stroke-width="2" stroke-linecap="round" stroke-linejoin="round"/>
</svg>
