<svg width="24" height="24" viewBox="0 0 24 24" fill="none" xmlns="http://www.w3.org/2000/svg">
<path fill-rule="evenodd" clip-rule="evenodd" d="M12 3L12 2H11.9999L12 3ZM11.9983 4.00001L11.9996 4H12.0002H12.0004L12.0004 4L12.0077 4.00004L12.042 4.00036C12.0735 4.00075 12.1217 4.00154 12.1852 4.00316C12.3124 4.00641 12.5002 4.01299 12.7364 4.02629C13.2095 4.05294 13.872 4.10635 14.6248 4.21301C16.1554 4.42988 17.9554 4.85324 19.3102 5.64592C19.5499 5.78617 19.6987 6.02164 19.6977 6.67286C19.6971 6.99758 19.6575 7.35976 19.6036 7.77523C19.5949 7.84262 19.5857 7.91201 19.5763 7.9829L19.5762 7.98328L19.5762 7.98342C19.5307 8.32604 19.4806 8.70383 19.4562 9.0609C19.4013 9.86552 19.4963 10.7392 19.61 11.5715C19.6451 11.8284 19.6818 12.0807 19.7181 12.3304C19.8045 12.9243 19.8888 13.5033 19.9435 14.0925C19.9947 14.6425 20.4819 15.0468 21.0318 14.9957C21.5817 14.9446 21.9861 14.4574 21.935 13.9075C21.8751 13.2635 21.779 12.6028 21.6897 11.9888C21.6551 11.7513 21.6216 11.5207 21.5916 11.3009C21.4791 10.4771 21.4118 9.78025 21.4516 9.19701C21.4712 8.90969 21.5109 8.6094 21.556 8.26888C21.5661 8.19221 21.5765 8.11351 21.587 8.03245C21.6413 7.61369 21.6969 7.14023 21.6977 6.6762C21.6992 5.74994 21.4753 4.59549 20.3202 3.91969C18.6282 2.92969 16.5206 2.46165 14.9053 2.23279C14.0851 2.11658 13.3651 2.05854 12.8489 2.02946C12.5904 2.01489 12.3819 2.00753 12.2364 2.00381C12.1635 2.00195 12.1064 2.001 12.0665 2.00051L12.0197 2.00007L12.0064 2.00001L12.0023 2L12.0009 2H12.0004C12.0002 2 12 2 12 3C11.9999 2 11.9998 2 11.9997 2H11.9994H11.9987L11.9967 2L11.9908 2.00002L11.971 2.00013C11.9543 2.00026 11.9306 2.0005 11.9004 2.00097C11.8399 2.0019 11.7531 2.00374 11.6431 2.00733C11.4232 2.01452 11.1099 2.02877 10.7282 2.05708C9.96694 2.11353 8.92309 2.22663 7.80077 2.45456C7.25954 2.56449 6.90989 3.09235 7.01981 3.63359C7.12973 4.17482 7.6576 4.52447 8.19883 4.41455C9.21595 4.20798 10.1722 4.1038 10.8761 4.0516C11.227 4.02558 11.5126 4.01266 11.7085 4.00626C11.8063 4.00306 11.8816 4.0015 11.9313 4.00073L11.9861 4.00008L11.9983 4.00001ZM4.68921 5.64592C5.16589 5.36702 5.32623 4.75449 5.04732 4.2778C4.76841 3.80112 4.15589 3.64078 3.6792 3.91969C2.52417 4.59549 2.30024 5.74993 2.30178 6.6762C2.30256 7.14023 2.35811 7.61369 2.41242 8.03245C2.42293 8.11349 2.43334 8.19217 2.44348 8.26882L2.44348 8.26883C2.48852 8.60936 2.52825 8.90968 2.54785 9.19701C2.60086 9.97418 2.46822 10.8913 2.30954 11.9884C2.27945 12.1965 2.24843 12.4109 2.21756 12.6322C2.03511 13.9397 1.86803 15.4462 2.15322 16.8514C2.45149 18.321 3.24118 19.6677 4.88073 20.6081C6.46274 21.5155 8.75847 22 12 22C17.1944 22 20.0198 20.7443 21.2616 18.481C21.5272 17.9968 21.35 17.3889 20.8658 17.1233C20.3816 16.8576 19.7738 17.0348 19.5081 17.519C18.8198 18.7735 17.0138 20 12 20C8.911 20 7.02082 19.53 5.8758 18.8732C4.78833 18.2495 4.30988 17.4224 4.11326 16.4536C3.90356 15.4204 4.01485 14.2238 4.19837 12.9086C4.22472 12.7197 4.25297 12.5266 4.28165 12.3306L4.28165 12.3306C4.44048 11.2448 4.61214 10.0714 4.54321 9.0609C4.51885 8.7038 4.4687 8.32597 4.42322 7.98332L4.42322 7.9833L4.42322 7.9833C4.41379 7.91226 4.40457 7.84274 4.39581 7.77523C4.34193 7.35976 4.30232 6.99758 4.30178 6.67286C4.30069 6.02164 4.44951 5.78617 4.68921 5.64592ZM11.5346 8.30803C11.7054 7.89732 12.2874 7.89732 12.4583 8.30803L13.248 10.2062C13.3196 10.3783 13.4809 10.4963 13.6666 10.5124L15.5419 10.6749C15.9713 10.7121 16.1557 11.2387 15.8433 11.5356L14.4187 12.8893C14.2895 13.0121 14.2354 13.1944 14.2768 13.3678L14.7575 15.3823C14.8607 15.815 14.3899 16.157 14.0102 15.9251L12.2572 14.8547C12.0971 14.7569 11.8958 14.7569 11.7357 14.8547L9.98266 15.9251C9.60296 16.157 9.13214 15.815 9.23538 15.3823L9.7162 13.3671C9.75749 13.1941 9.70371 13.0121 9.57497 12.8893L8.15519 11.5349C7.84372 11.2378 8.02828 10.7122 8.45718 10.6749L10.3263 10.5125C10.512 10.4963 10.6733 10.3783 10.7448 10.2063L11.5346 8.30803Z" fill="black"/>
</svg>
