<svg width="24" height="24" viewBox="0 0 24 24" fill="none" xmlns="http://www.w3.org/2000/svg">
<path fill-rule="evenodd" clip-rule="evenodd" d="M11.9994 2L11.9994 1H11.9994L11.9994 2ZM11.9977 3.00001L11.999 3H11.9996H11.9998L11.9999 3L12.0072 3.00004L12.0415 3.00036C12.0729 3.00075 12.1211 3.00154 12.1847 3.00316C12.3118 3.00641 12.4997 3.01299 12.7358 3.02629C13.2089 3.05294 13.8714 3.10635 14.6242 3.21301C16.1548 3.42988 17.9549 3.85324 19.3097 4.64592C19.5494 4.78617 19.6982 5.02164 19.6971 5.67286C19.6965 5.99758 19.6569 6.35976 19.6031 6.77523C19.5943 6.84262 19.5851 6.91201 19.5757 6.9829L19.5756 6.98328L19.5756 6.98342C19.5302 7.32604 19.48 7.70383 19.4557 8.0609C19.4002 8.87402 19.5442 9.66102 19.726 10.3774C19.8174 10.7374 19.9229 11.096 20.0239 11.4376L20.0382 11.486L20.0383 11.4861C20.1358 11.8158 20.2288 12.1302 20.3114 12.4449C20.657 13.761 20.7593 14.868 20.1284 15.9878C19.8574 16.469 20.0277 17.0788 20.5089 17.3499C20.9901 17.621 21.5999 17.4507 21.871 16.9695C22.8919 15.1572 22.6313 13.4049 22.2459 11.937C22.1551 11.5914 22.054 11.2497 21.9586 10.9271L21.9418 10.8705C21.8398 10.5255 21.745 10.2023 21.6645 9.8853C21.5026 9.24753 21.4167 8.69953 21.451 8.19701C21.4706 7.90969 21.5103 7.6094 21.5554 7.26888C21.5655 7.19221 21.5759 7.11351 21.5864 7.03245C21.6408 6.61369 21.6963 6.14023 21.6971 5.6762C21.6986 4.74994 21.4747 3.59549 20.3197 2.91969C18.6276 1.92969 16.5201 1.46165 14.9048 1.23279C14.0846 1.11658 13.3645 1.05854 12.8483 1.02946C12.5898 1.01489 12.3814 1.00753 12.2358 1.00381C12.163 1.00195 12.1058 1.001 12.0659 1.00051L12.0192 1.00007L12.0058 1.00001L12.0018 1L12.0004 1H11.9998C11.9996 1 11.9994 1 11.9994 2C11.9994 1 11.9992 1 11.9991 1H11.9988H11.9981L11.9962 1L11.9903 1.00002L11.9704 1.00013C11.9537 1.00026 11.9301 1.0005 11.8998 1.00097C11.8394 1.0019 11.7526 1.00373 11.6426 1.00733C11.4228 1.01451 11.1095 1.02877 10.7278 1.05706C9.96663 1.1135 8.9229 1.22658 7.80068 1.45447C7.25945 1.56438 6.90979 2.09223 7.01969 2.63347C7.1296 3.17471 7.65746 3.52437 8.1987 3.41446C9.21573 3.20794 10.1719 3.10378 10.8757 3.05159C11.2266 3.02557 11.5121 3.01266 11.7079 3.00626C11.8058 3.00306 11.8811 3.0015 11.9307 3.00073L11.9855 3.00008L11.9977 3.00001ZM4.68864 4.64592C5.16533 4.36702 5.32566 3.75449 5.04676 3.2778C4.76785 2.80112 4.15532 2.64078 3.67863 2.91969C2.52361 3.59549 2.29967 4.74993 2.30122 5.6762C2.30199 6.14023 2.35755 6.61369 2.41186 7.03245C2.42235 7.11339 2.43275 7.19199 2.44288 7.26855L2.44291 7.26883C2.48796 7.60936 2.52768 7.90968 2.54728 8.19701C2.60318 9.01648 2.34756 9.88324 2.01585 11.008L1.98959 11.097C1.66851 12.1864 1.29078 13.5053 1.44956 14.8913C1.78852 17.8503 4.40516 20.4391 11.6734 22.9454C11.8846 23.0182 12.1142 23.0182 12.3254 22.9454C14.9996 22.0232 17.0195 21.099 18.527 20.1633C18.9963 19.8721 19.1406 19.2556 18.8493 18.7864C18.5581 18.3171 17.9416 18.1728 17.4724 18.464C16.1903 19.2597 14.4206 20.0882 11.9994 20.941C5.04946 18.4933 3.62472 16.3062 3.43656 14.6637C3.33032 13.7363 3.57577 12.7897 3.908 11.6625C3.92868 11.5923 3.94982 11.5211 3.97125 11.449L3.97133 11.4487C4.27005 10.443 4.62388 9.25181 4.54265 8.0609C4.51829 7.7038 4.46814 7.32596 4.42266 6.98331L4.42266 6.9833C4.41323 6.91227 4.404 6.84274 4.39525 6.77523C4.34136 6.35976 4.30176 5.99758 4.30121 5.67286C4.30013 5.02164 4.44895 4.78617 4.68864 4.64592ZM11.5343 8.30803C11.7052 7.89732 12.2872 7.89732 12.458 8.30803L13.2478 10.2062C13.3193 10.3783 13.4807 10.4963 13.6664 10.5124L15.5417 10.6749C15.9711 10.7121 16.1555 11.2387 15.8431 11.5356L14.4185 12.8893C14.2893 13.0121 14.2352 13.1944 14.2766 13.3678L14.7572 15.3823C14.8605 15.815 14.3897 16.157 14.01 15.9251L12.2569 14.8547C12.0969 14.7569 11.8955 14.7569 11.7355 14.8547L9.98244 15.9251C9.60274 16.157 9.13192 15.815 9.23516 15.3823L9.71598 13.3671C9.75727 13.1941 9.70349 13.0121 9.57475 12.8893L8.15497 11.5349C7.8435 11.2378 8.02806 10.7122 8.45696 10.6749L10.3261 10.5125C10.5117 10.4963 10.673 10.3783 10.7446 10.2063L11.5343 8.30803Z" fill="black"/>
</svg>
