<svg width="24" height="24" viewBox="0 0 24 24" fill="none" xmlns="http://www.w3.org/2000/svg">
<path fill-rule="evenodd" clip-rule="evenodd" d="M11.141 4.02465C11.648 3.65591 12.3503 3.65591 12.8573 4.02465C15.1206 5.67074 17.1486 5.9539 19.9698 5.99416C19.9717 5.99419 19.9732 5.99437 19.9744 5.99462C20.2072 10.0887 19.6863 13.0748 18.2252 15.481C17.9386 15.9531 18.0889 16.5682 18.561 16.8548C19.0331 17.1415 19.6481 16.9911 19.9348 16.5191C21.6917 13.6255 22.217 10.1726 21.9702 5.86519C21.909 4.79677 21.0193 4.00894 19.9983 3.99437C17.3387 3.95641 15.8051 3.69559 14.0337 2.40721L13.4455 3.21593L14.0337 2.40721C12.8254 1.52839 11.173 1.52839 9.96465 2.40721C9.48555 2.75567 9.03167 3.02246 8.58206 3.22931C8.08032 3.46013 7.8607 4.05399 8.09153 4.55572C8.32235 5.05746 8.91621 5.27708 9.41794 5.04625C9.99969 4.77862 10.5669 4.44226 11.141 4.02465ZM4.9787 5.96863C5.53049 5.94541 5.95899 5.47927 5.93576 4.92747C5.91254 4.37567 5.44639 3.94718 4.8946 3.9704C3.39468 4.03353 2.03626 5.1859 1.98598 6.81451C1.87166 10.5176 2.38954 13.5699 3.86187 16.1748C5.33555 18.7822 7.70061 20.827 11.065 22.6377C11.6468 22.9508 12.3516 22.9508 12.9333 22.6377C14.3365 21.8825 15.5657 21.0868 16.6291 20.2263C17.0584 19.8789 17.1248 19.2492 16.7774 18.8199C16.4299 18.3906 15.8003 18.3242 15.3709 18.6716C14.427 19.4354 13.3112 20.1622 11.9992 20.8692C8.84747 19.1709 6.82881 17.3595 5.603 15.1907C4.37407 13.0164 3.87721 10.3684 3.98503 6.87622C3.99909 6.4208 4.39544 5.99318 4.9787 5.96863ZM11.535 8.30798C11.7058 7.89727 12.2878 7.89727 12.4587 8.30798L13.2484 10.2062C13.32 10.3782 13.4813 10.4962 13.667 10.5123L15.5423 10.6749C15.9717 10.7121 16.1561 11.2386 15.8437 11.5355L14.4191 12.8892C14.2899 13.012 14.2358 13.1943 14.2772 13.3677L14.7579 15.3823C14.8611 15.815 14.3903 16.1569 14.0106 15.9251L12.2575 14.8546C12.0975 14.7569 11.8962 14.7569 11.7361 14.8546L9.98305 15.9251C9.60335 16.1569 9.13253 15.815 9.23577 15.3823L9.7166 13.3671C9.75789 13.194 9.7041 13.0121 9.57536 12.8893L8.15559 11.5349C7.84412 11.2377 8.02867 10.7122 8.45758 10.6749L10.3267 10.5124C10.5124 10.4963 10.6736 10.3783 10.7452 10.2063L11.535 8.30798Z" fill="black"/>
</svg>
