<svg width="24" height="24" viewBox="0 0 24 24" fill="none" xmlns="http://www.w3.org/2000/svg">
<path fill-rule="evenodd" clip-rule="evenodd" d="M8.58703 2.33657C9.30723 2.01029 10.1237 1.8105 11.0382 1.73028C11.1559 1.30902 11.5426 1 12.0014 1C12.4603 1 12.8471 1.30914 12.9647 1.73054C14.9908 1.9091 16.5087 2.67226 17.5407 4.01515C18.6812 5.4991 19.095 7.5282 19.1969 9.74143C19.2254 10.3588 19.3944 10.9362 19.7019 11.4134L20.3452 12.4116C20.9885 13.4098 20.2719 14.7241 19.0844 14.7241H18.3348V16.6667C18.3348 17.9014 17.9804 19.0564 17.3675 20.032C17.0737 20.4996 16.4564 20.6406 15.9888 20.3468C15.5211 20.0529 15.3802 19.4357 15.674 18.968C16.0925 18.3018 16.3348 17.514 16.3348 16.6667V14.7241H7.66809V16.6667C7.66809 19.0599 9.60819 21 12.0014 21C12.2799 21 12.5513 20.9739 12.8136 20.9242C13.3563 20.8214 13.8795 21.178 13.9822 21.7207C14.085 22.2633 13.7284 22.7865 13.1857 22.8893C12.8013 22.9621 12.4053 23 12.0014 23C8.50362 23 5.66809 20.1645 5.66809 16.6667V14.7241H4.91847C3.73097 14.7241 3.01434 13.4098 3.65762 12.4116L4.30091 11.4134C4.60844 10.9362 4.77746 10.3588 4.8059 9.74143C4.86478 8.46285 5.0275 7.26403 5.36191 6.20014C5.52752 5.67327 6.08889 5.38041 6.61576 5.54602C7.14263 5.71163 7.43548 6.27299 7.26987 6.79986C7.00532 7.64151 6.85808 8.65422 6.80378 9.83344C6.7615 10.7515 6.50715 11.682 5.98205 12.4968L5.83553 12.7241H6.66809H17.3348H18.1673L18.0208 12.4968C17.4957 11.682 17.2413 10.7515 17.1991 9.83344C17.1028 7.74255 16.7149 6.22275 15.955 5.23385C15.2441 4.30884 14.08 3.68966 12.0014 3.68966C10.8957 3.68966 10.0554 3.86703 9.41234 4.15834C8.90928 4.38624 8.3167 4.16318 8.0888 3.66011C7.8609 3.15704 8.08396 2.56447 8.58703 2.33657ZM12.2007 10.9108C13.1729 10.4663 13.8987 9.94196 13.991 8.1523C14.003 7.91765 13.837 7.71558 13.6099 7.65513C13.1863 7.54233 12.6954 7.37895 12.2843 7.16499C12.1076 7.073 11.8941 7.073 11.7174 7.16499C11.3064 7.37895 10.8155 7.54233 10.3918 7.65513C10.1648 7.71558 9.99872 7.91765 10.0108 8.1523C10.1031 9.94196 10.8288 10.4663 11.8011 10.9108C11.9279 10.9688 12.0739 10.9688 12.2007 10.9108Z" fill="black"/>
</svg>
