<svg width="24" height="24" viewBox="0 0 24 24" fill="none" xmlns="http://www.w3.org/2000/svg">
<path fill-rule="evenodd" clip-rule="evenodd" d="M12.8714 1.46585C12.3747 1.03432 11.6253 1.03432 11.1286 1.46585C10.9549 1.61668 10.6562 1.79497 10.1943 2.01404C9.83307 2.18541 9.4271 2.35701 8.97102 2.54979L8.9708 2.54988C8.85344 2.59949 8.73275 2.65051 8.60866 2.70328C8.10042 2.91941 7.86362 3.50663 8.07975 4.01487C8.29589 4.5231 8.8831 4.7599 9.39134 4.54377C9.50351 4.49607 9.61626 4.44843 9.72883 4.40086C10.1895 4.20621 10.6474 4.01276 11.0515 3.82105C11.3754 3.66743 11.7032 3.49768 12 3.3042C12.2661 3.47769 12.556 3.63127 12.8436 3.77077C13.2742 3.97956 13.7638 4.18647 14.2545 4.39381L14.3709 4.443C15.4582 4.90281 16.5869 5.39149 17.5648 6.04984C18.5338 6.70217 19.2865 7.47732 19.683 8.47366C20.0242 9.33117 20.1407 10.4515 19.7763 11.9611H4.22374C3.91886 10.6978 3.95148 9.7097 4.16642 8.92424C4.41864 8.0025 4.94727 7.26697 5.6592 6.64288C6.0745 6.27882 6.11604 5.64701 5.75197 5.23171C5.38791 4.81641 4.75611 4.77487 4.3408 5.13894C3.40329 5.96079 2.61494 7.01645 2.23734 8.39637C1.87064 9.73643 1.91547 11.2939 2.4652 13.1119V15.9481V17.8953C2.4652 19.523 3.45551 21.0347 5.03971 21.5905C7.68476 22.5186 9.92272 23.0005 12.1522 23C14.3848 22.9995 16.5417 22.5155 19.0244 21.6032C20.5778 21.0324 21.5348 19.5358 21.5348 17.9368V15.9481V13.1119C22.18 10.978 22.1275 9.20761 21.5413 7.73424C20.9459 6.2379 19.8514 5.17819 18.6818 4.39078C17.5211 3.60938 16.2198 3.0534 15.1499 2.60094L15.0477 2.55773C14.5412 2.34364 14.0981 2.15635 13.7164 1.97122C13.3016 1.7701 13.0314 1.60482 12.8714 1.46585ZM4.4652 13.9611H19.5348V14.9481H18C17.4477 14.9481 17 15.3958 17 15.9481C17 16.5004 17.4477 16.9481 18 16.9481H19.5348V17.9368C19.5348 18.7539 19.049 19.4634 18.3346 19.7259C15.9923 20.5866 14.0765 20.9996 12.1518 21C10.2241 21.0004 8.22021 20.587 5.70188 19.7033C4.96689 19.4455 4.4652 18.7254 4.4652 17.8953V16.9481H14C14.5523 16.9481 15 16.5004 15 15.9481C15 15.3958 14.5523 14.9481 14 14.9481H4.4652V13.9611ZM12.2001 10.411C13.4582 9.84224 14.3975 9.18915 14.4921 6.84118C14.5016 6.60641 14.3363 6.40271 14.1087 6.34426C13.5335 6.19654 12.8409 5.971 12.2819 5.66763C12.1068 5.57261 11.8932 5.57261 11.7181 5.66763C11.1591 5.971 10.4665 6.19654 9.89131 6.34426C9.66373 6.40271 9.4984 6.60641 9.50787 6.84118C9.60254 9.18915 10.5418 9.84224 11.7999 10.411C11.9269 10.4685 12.0731 10.4685 12.2001 10.411Z" fill="black"/>
</svg>
