<svg width="24" height="24" viewBox="0 0 24 24" fill="none" xmlns="http://www.w3.org/2000/svg">
<path d="M8.11811 9.25152C8.11811 10.6872 8.94386 14.0306 10.1592 14.6677M8.11811 9.25152H15.8819M8.11811 9.25152H6.18896M8.11811 9.25152L6.18896 6.14264L6.84448 5.78813M10.1592 14.6677C10.707 14.9548 11.3339 15.1178 12 15.1178C12.6661 15.1178 13.293 14.9548 13.8408 14.6677M10.1592 14.6677L8.91632 17.6663M2 21C2 21 4.03843 18.4719 8.91632 17.6663M8.91632 17.6663L12 21L15.0837 17.6663M15.8819 9.25152C15.8819 10.6872 15.0561 14.0306 13.8408 14.6677M15.8819 9.25152H17.811M15.8819 9.25152L17.811 6.14264L12 3L10.5 3.81121M13.8408 14.6677L15.0837 17.6663M22 21C22 21 21.3783 20.2289 20 19.4028M15.0837 17.6663C15.4011 17.7187 15.7064 17.7784 16 17.8442" stroke="black" stroke-width="2" stroke-linecap="round" stroke-linejoin="round"/>
</svg>
