<svg width="24" height="24" viewBox="0 0 24 24" fill="none" xmlns="http://www.w3.org/2000/svg">
<path d="M10.1592 13.6681C10.707 13.9552 11.3339 14.1182 12 14.1182C12.6661 14.1182 13.293 13.9552 13.8408 13.6681M10.1592 13.6681L8.91632 16.6667C4.03843 17.4723 2 20.0004 2 20.0004M10.1592 13.6681C9.10373 13.1148 8.34209 10.756 8.15998 9M13.8408 13.6681C15.0561 13.031 15.8819 10 15.8819 8.25195C15.8819 6 14.5505 4 12 4C10.8854 4 10.0036 4.38197 9.36405 5M13.8408 13.6681L15.0837 16.6667C19.9616 17.4723 22 20.0004 22 20.0004" stroke="black" stroke-width="2" stroke-linecap="round" stroke-linejoin="round"/>
</svg>
