<svg width="24" height="24" viewBox="0 0 24 24" fill="none" xmlns="http://www.w3.org/2000/svg">
<path d="M5.36439 7.99959C5.20661 7.99959 5.11096 8.17373 5.1956 8.30688L7.47477 11.8923C7.51639 11.9578 7.51639 12.0414 7.47477 12.1069L5.1956 15.6924C5.11096 15.8255 5.20661 15.9997 5.36439 15.9997L9.14537 15.9997C9.21123 15.9997 9.27288 16.0321 9.31019 16.0864L11.8403 19.767C11.9184 19.8807 12.0854 19.883 12.1667 19.7716L14.8645 16.0746C14.8981 16.0271 14.949 15.9995 15.0028 15.9995L18.8229 15.9995C18.9671 15.9995 19.0508 15.8152 18.9667 15.6829L16.6994 12.1161C16.6551 12.0464 16.6551 11.9525 16.6994 11.8828L18.9667 8.31607C19.0508 8.18374 18.9671 7.99943 18.8229 7.99943H15.0028C14.949 7.99943 14.8981 7.97181 14.8645 7.92437L12.1667 4.22761C12.0854 4.11622 11.9184 4.11858 11.8403 4.23221L9.31019 7.91288M14.0003 11.9995C14.0003 13.1041 13.1048 13.9995 12.0003 13.9995C10.8957 13.9995 10.0003 13.1041 10.0003 11.9995C10.0003 10.895 10.8957 9.99955 12.0003 9.99955C13.1048 9.99955 14.0003 10.895 14.0003 11.9995Z" stroke="black" stroke-width="2" stroke-linecap="round" stroke-linejoin="round"/>
<path d="M12 3H12.01M12 21H12.01M20 7.5H20.01M4 7.5H4.01M4 16.5H4.01M20 16.5H20.01" stroke="black" stroke-width="3" stroke-linecap="round" stroke-linejoin="round"/>
</svg>
