<svg width="24" height="24" viewBox="0 0 24 24" fill="none" xmlns="http://www.w3.org/2000/svg">
<path d="M5 18H4C3.44772 18 3 17.5523 3 17C3 15.8954 3.89543 15 5 15H8.14966C9.17157 15 10 14.1716 10 13.1497C10 12.4135 9.70758 11.7076 9.18707 11.1871L9.14286 11.1429C8.4111 10.4111 8 9.41862 8 8.38376V8M5 18V19C5 20.1046 5.89543 21 7 21H17C18.1046 21 19 20.1046 19 19V18M5 18H13M19 18H20C20.5523 18 21 17.5523 21 17C21 15.8954 20.1046 15 19 15H15.8503C14.8284 15 14 14.1716 14 13.1497C14 12.4135 14.2924 11.7076 14.8129 11.1871L14.8571 11.1429C15.5889 10.4111 16 9.41862 16 8.38376V5C16 3.34315 14.6569 2 13 2H11C9.69378 2 8.58254 2.83481 8.17071 4M19 18H17" stroke="black" stroke-width="2" stroke-linecap="round" stroke-linejoin="round"/>
</svg>
