<svg width="24" height="24" viewBox="0 0 24 24" fill="none" xmlns="http://www.w3.org/2000/svg">
<path d="M10 14H9.5C8.67157 14 8 13.3284 8 12.5V9M10 14V17M10 14H14M10 17H5.66667C4.19391 17 3 18.1939 3 19.6667C3 20.403 3.59695 21 4.33333 21H15M10 17H14M14 17H18.3333C19.8061 17 21 18.1939 21 19.6667C21 20.403 20.403 21 19.6667 21H19M14 17V14M14 14H14.5C15.3284 14 16 13.3284 16 12.5V6C16 4.34315 14.6569 3 13 3H11C9.69378 3 8.58254 3.83481 8.17071 5" stroke="black" stroke-width="2" stroke-linecap="round" stroke-linejoin="round"/>
</svg>
