<svg width="24" height="24" viewBox="0 0 24 24" fill="none" xmlns="http://www.w3.org/2000/svg">
<path fill-rule="evenodd" clip-rule="evenodd" d="M6 2C3.79086 2 2 3.79086 2 6V7C2 7.55228 2.44772 8 3 8C3.55228 8 4 7.55228 4 7V6C4 4.89543 4.89543 4 6 4H18C19.1046 4 20 4.89543 20 6V18C20 19.1046 19.1046 20 18 20H17C16.4477 20 16 20.4477 16 21C16 21.5523 16.4477 22 17 22H18C20.2091 22 22 20.2091 22 18V6C22 3.79086 20.2091 2 18 2H6ZM7.5 5C6.11929 5 5 6.11929 5 7.5V12.5C5 13.8807 6.11929 15 7.5 15H9.75H14.25H16.5C17.8807 15 19 13.8807 19 12.5V7.5C19 6.11929 17.8807 5 16.5 5H7.5ZM7 7.5C7 7.22386 7.22386 7 7.5 7H16.5C16.7761 7 17 7.22386 17 7.5V12.5C17 12.7761 16.7761 13 16.5 13H15.1995C15.0706 12.3715 14.7079 11.8507 14.2652 11.4818C13.7149 11.0232 12.9897 10.75 12.25 10.75H11.75C11.0103 10.75 10.2851 11.0232 9.73482 11.4818C9.29206 11.8507 8.9294 12.3715 8.80048 13H7.5C7.22386 13 7 12.7761 7 12.5V7.5ZM12.25 12.75C12.5007 12.75 12.7647 12.8444 12.9623 13H11.0377C11.2353 12.8444 11.4993 12.75 11.75 12.75H12.25ZM4 11C4 10.4477 3.55228 10 3 10C2.44772 10 2 10.4477 2 11V18C2 20.2091 3.79086 22 6 22H13C13.5523 22 14 21.5523 14 21C14 20.4477 13.5523 20 13 20H6C4.89543 20 4 19.1046 4 18V11ZM8 16C7.44772 16 7 16.4477 7 17C7 17.5523 7.44772 18 8 18H16C16.5523 18 17 17.5523 17 17C17 16.4477 16.5523 16 16 16H8ZM13.5 9.09961C13.5 9.92804 12.8284 10.5996 12 10.5996C11.1716 10.5996 10.5 9.92804 10.5 9.09961C10.5 8.27118 11.1716 7.59961 12 7.59961C12.8284 7.59961 13.5 8.27118 13.5 9.09961Z" fill="black"/>
</svg>
