<svg width="24" height="24" viewBox="0 0 24 24" fill="none" xmlns="http://www.w3.org/2000/svg">
<path d="M12.9361 19.2664L11.987 18.9516L11.987 18.9516L12.9361 19.2664ZM17.0507 3.68518C17.2245 3.16098 17.7904 2.87698 18.3146 3.05085C18.8388 3.22472 19.1228 3.79062 18.949 4.31482L17.0507 3.68518ZM11.987 18.9516L17.0507 3.68518L18.949 4.31482L13.8853 19.5812L11.987 18.9516ZM11.9998 19C11.9814 19 11.9662 19.0063 11.9579 19.0124C11.9542 19.0151 11.9557 19.015 11.9606 19.0082C11.9655 19.0013 11.9762 18.9842 11.987 18.9516L13.8853 19.5812C13.5933 20.4615 12.8364 20.9998 12.0002 21L11.9998 19Z" fill="#667085"/>
<path d="M5.05085 4.31492C4.87698 3.79072 5.16098 3.22482 5.68518 3.05095C6.20938 2.87708 6.77528 3.16108 6.94915 3.68528L5.05085 4.31492ZM11.0637 19.2665L12.0128 18.9517V18.9517L11.0637 19.2665ZM6.94915 3.68528L12.0128 18.9517L10.1145 19.5813L5.05085 4.31492L6.94915 3.68528ZM11.9996 21C11.1636 20.9998 10.4066 20.4618 10.1145 19.5813L12.0128 18.9517C12.0236 18.9843 12.0343 19.0014 12.0392 19.0082C12.044 19.015 12.0455 19.0151 12.0418 19.0124C12.0334 19.0062 12.0182 19 12 19L11.9996 21Z" fill="#121A26"/>
</svg>
