<svg width="24" height="24" viewBox="0 0 24 24" fill="none" xmlns="http://www.w3.org/2000/svg">
<path d="M8.11776 17.0047C7.84424 16.5249 7.23355 16.3577 6.75376 16.6313C6.27396 16.9048 6.10675 17.5155 6.38028 17.9953L8.11776 17.0047ZM11.9998 20L11.9998 21H11.9998L11.9998 20ZM16.9882 15.5L15.9913 15.5789L16.9882 15.5ZM6.38028 17.9953C6.78482 18.7049 7.36077 19.4783 8.2888 20.0643C9.22015 20.6524 10.4234 21 11.9998 21L11.9998 19C10.7258 19 9.90994 18.7226 9.35666 18.3732C8.80006 18.0217 8.42585 17.5451 8.11776 17.0047L6.38028 17.9953ZM11.9998 21C15.232 21 18.243 18.6776 17.9851 15.4211L15.9913 15.5789C16.128 17.3051 14.4686 19 11.9998 19L11.9998 21ZM17.9851 15.4211C17.8189 13.3225 16.0794 12.2317 14.7848 11.7C14.1021 11.4196 13.4378 11.2479 12.9502 11.1461C12.7045 11.0948 12.4991 11.0603 12.3526 11.0384C12.2793 11.0274 12.2204 11.0195 12.1783 11.0142C12.1573 11.0116 12.1404 11.0095 12.1281 11.0081C12.1219 11.0074 12.1168 11.0068 12.1128 11.0064C12.1109 11.0062 12.1092 11.006 12.1078 11.0058C12.1071 11.0058 12.1065 11.0057 12.1059 11.0056C12.1057 11.0056 12.1053 11.0056 12.1052 11.0056C12.1048 11.0055 12.1045 11.0055 11.9998 12C11.8952 12.9945 11.8949 12.9945 11.8946 12.9944C11.8946 12.9944 11.8943 12.9944 11.8942 12.9944C11.8939 12.9944 11.8937 12.9944 11.8936 12.9943C11.8934 12.9943 11.8934 12.9943 11.8937 12.9944C11.8944 12.9944 11.8961 12.9946 11.8989 12.9949C11.9045 12.9956 11.9143 12.9968 11.9282 12.9985C11.9558 13.002 11.9992 13.0078 12.0563 13.0163C12.1705 13.0334 12.3381 13.0614 12.5415 13.1039C12.9521 13.1896 13.4903 13.3304 14.025 13.55C15.1652 14.0183 15.9199 14.6775 15.9913 15.5789L17.9851 15.4211Z" fill="#121A26"/>
<path d="M15.8821 6.99527C16.1556 7.47506 16.7663 7.64227 17.2461 7.36874C17.7259 7.09521 17.8931 6.48453 17.6195 6.00473L15.8821 6.99527ZM7.01164 8.5L8.00852 8.42108L7.01164 8.5ZM17.6195 6.00473C17.215 5.29514 16.6391 4.52175 15.711 3.93572C14.7797 3.3476 13.5764 3 12 3V5C13.2741 5 14.0899 5.2774 14.6432 5.62678C15.1998 5.97825 15.574 6.45486 15.8821 6.99527L17.6195 6.00473ZM12 3C8.76778 3 5.75696 5.32242 6.01476 8.57892L8.00852 8.42108C7.87187 6.69484 9.53123 5 12 5V3ZM6.01476 8.57892C6.1809 10.6775 7.92037 11.7683 9.21496 12.3C9.89767 12.5804 10.562 12.7521 11.0496 12.8539C11.2953 12.9052 11.5008 12.9397 11.6472 12.9616C11.7206 12.9726 11.7794 12.9805 11.8215 12.9858C11.8425 12.9884 11.8594 12.9905 11.8718 12.9919C11.878 12.9926 11.8831 12.9932 11.887 12.9936C11.889 12.9938 11.8907 12.994 11.892 12.9942C11.8927 12.9942 11.8934 12.9943 11.8939 12.9944C11.8942 12.9944 11.8945 12.9944 11.8947 12.9944C11.895 12.9945 11.8953 12.9945 12 12C12.1047 11.0055 12.1049 11.0055 12.1052 11.0055C12.1053 11.0056 12.1055 11.0056 12.1057 11.0056C12.1059 11.0056 12.1061 11.0056 12.1062 11.0057C12.1065 11.0057 12.1064 11.0057 12.1061 11.0056C12.1055 11.0056 12.1037 11.0054 12.1009 11.0051C12.0953 11.0044 12.0855 11.0032 12.0717 11.0015C12.044 10.998 12.0006 10.9922 11.9436 10.9837C11.8293 10.9666 11.6617 10.9386 11.4583 10.8961C11.0477 10.8104 10.5095 10.6696 9.97479 10.45C8.83458 9.98168 8.07988 9.32247 8.00852 8.42108L6.01476 8.57892Z" fill="#667085"/>
</svg>
