<svg width="24" height="24" viewBox="0 0 24 24" fill="none" xmlns="http://www.w3.org/2000/svg">
<path d="M2 12C2 17.5228 6.47715 22 12 22C17.5228 22 22 17.5228 22 12C22 6.47715 17.5228 2 12 2C6.47715 2 2 6.47715 2 12Z" stroke="#667085" stroke-width="2" stroke-linecap="round"/>
<path d="M15.5355 15.5355L17 17M15.5355 15.5355C16.4404 14.6307 17 13.3807 17 12C17 9.23858 14.7614 7 12 7C9.23858 7 7 9.23858 7 12C7 14.7614 9.23858 17 12 17C13.3807 17 14.6307 16.4404 15.5355 15.5355ZM15.5355 15.5355L13.25 13.25" stroke="#121A26" stroke-width="2" stroke-linecap="round"/>
</svg>
