<svg width="24" height="24" viewBox="0 0 24 24" fill="none" xmlns="http://www.w3.org/2000/svg">
<path d="M2 12C2 17.5228 6.47715 22 12 22C17.5228 22 22 17.5228 22 12C22 6.47715 17.5228 2 12 2C6.47715 2 2 6.47715 2 12Z" stroke="#667085" stroke-width="2"/>
<path d="M8.33398 11.6875V7.625C8.33398 7.27982 8.63246 7 9.00065 7H12.6673C14.048 7 15.1673 8.04933 15.1673 9.34375C15.1673 10.6382 14.048 11.6875 12.6673 11.6875M8.33398 11.6875V16.375C8.33398 16.7202 8.63246 17 9.00065 17H13.0007C14.5655 17 15.834 15.8108 15.834 14.3438C15.834 12.8767 14.5655 11.6875 13.0007 11.6875H12.6673M8.33398 11.6875H12.6673" stroke="#121A26" stroke-width="2"/>
</svg>
