<svg width="24" height="24" viewBox="0 0 24 24" fill="none" xmlns="http://www.w3.org/2000/svg">
<path d="M18 3H6C4.34315 3 3 4.34315 3 6V18C3 19.6569 4.34315 21 6 21H18C19.6569 21 21 19.6569 21 18V6C21 4.34315 19.6569 3 18 3Z" stroke="#667085" stroke-width="2"/>
<path d="M8.33301 11.6875V7.625C8.33301 7.27982 8.63148 7 8.99967 7H12.6663C14.0471 7 15.1663 8.04933 15.1663 9.34375C15.1663 10.6382 14.0471 11.6875 12.6663 11.6875M8.33301 11.6875V16.375C8.33301 16.7202 8.63148 17 8.99967 17H12.9997C14.5645 17 15.833 15.8108 15.833 14.3438C15.833 12.8767 14.5645 11.6875 12.9997 11.6875H12.6663M8.33301 11.6875H12.6663" stroke="#121A26" stroke-width="2"/>
</svg>
