<svg width="24" height="24" viewBox="0 0 24 24" fill="none" xmlns="http://www.w3.org/2000/svg">
<path d="M19.6983 18.3727C20.0936 17.987 20.1015 17.3539 19.7158 16.9586C19.3302 16.5632 18.6971 16.5554 18.3017 16.941L19.6983 18.3727ZM7.40202 17.6569L6.70374 18.3727L7.40202 17.6569ZM18.3017 16.941C15.4874 19.6863 10.9146 19.6863 8.1003 16.941L6.70374 18.3727C10.2949 21.8758 16.1072 21.8758 19.6983 18.3727L18.3017 16.941ZM4 12.0011C4.00028 14.3105 4.90467 16.6177 6.70374 18.3727L8.1003 16.941C6.69718 15.5723 6.00022 13.7856 6 12.0009L4 12.0011Z" fill="#121A26"/>
<path d="M7.40202 6.34315L8.1003 7.05897L7.40202 6.34315ZM18.3017 7.05897C18.6971 7.44462 19.3302 7.43676 19.7158 7.04143C20.1015 6.64609 20.0936 6.01297 19.6983 5.62732L18.3017 7.05897ZM8.1003 7.05897C10.9146 4.31368 15.4874 4.31368 18.3017 7.05897L19.6983 5.62732C16.1072 2.12423 10.2949 2.12423 6.70374 5.62732L8.1003 7.05897ZM6.70374 5.62732C4.9041 7.38285 3.99972 9.69101 4 12.0011L6 12.0008C5.99978 10.2155 6.69674 8.42813 8.1003 7.05897L6.70374 5.62732Z" fill="#667085"/>
</svg>
