<svg width="24" height="24" viewBox="0 0 24 24" fill="none" xmlns="http://www.w3.org/2000/svg">
<path d="M17.7041 17.6569L16.9982 16.9485L17.7041 17.6569ZM6.35126 17.6569L5.64537 18.3652L6.35126 17.6569ZM19.9931 12.9974L19.0009 12.873V12.873L19.9931 12.9974ZM12.0277 11C11.4754 11 11.0277 11.4477 11.0277 12C11.0277 12.5523 11.4754 13 12.0277 13V11ZM16.9982 16.9485C14.2535 19.6838 9.80191 19.6838 7.05714 16.9485L5.64537 18.3652C9.17063 21.8783 14.8848 21.8783 18.41 18.3652L16.9982 16.9485ZM19.0009 12.873C18.8141 14.3628 18.1476 15.8031 16.9982 16.9485L18.41 18.3652C19.8855 16.8948 20.745 15.039 20.9854 13.1218L19.0009 12.873ZM19.0519 11H12.0277V13H19.0519V11ZM20.9854 13.1218C21.1399 11.8891 20.1157 11 19.0519 11V13C19.0585 13 19.051 13.0026 19.0367 12.9878C19.0287 12.9795 19.0173 12.9642 19.0091 12.9407C19.0004 12.9157 18.9986 12.891 19.0009 12.873L20.9854 13.1218ZM3 12C3 14.3028 3.88238 16.6083 5.64537 18.3652L7.05714 16.9485C5.68512 15.5812 5 13.7919 5 12L3 12Z" fill="#121A26"/>
<path d="M6.35126 6.34315L5.64537 5.63482L6.35126 6.34315ZM16.9982 7.05147C17.3894 7.44132 18.0226 7.44023 18.4125 7.04903C18.8023 6.65783 18.8012 6.02467 18.41 5.63482L16.9982 7.05147ZM7.05714 7.05147C9.80191 4.31618 14.2535 4.31618 16.9982 7.05147L18.41 5.63482C14.8848 2.12173 9.17063 2.12173 5.64537 5.63482L7.05714 7.05147ZM5.64537 5.63482C3.88238 7.39173 3 9.69715 3 12H5C5 10.2081 5.68512 8.41876 7.05714 7.05147L5.64537 5.63482Z" fill="#667085"/>
</svg>
