<svg width="24" height="24" viewBox="0 0 24 24" fill="none" xmlns="http://www.w3.org/2000/svg">
<path d="M9.60677 12H9.60078M14.4008 12H14.3948M12.0056 8.39995H11.9996M12.0056 15.6H11.9996M15.0056 7.19995H14.9996M15.6056 10.2H15.5996M17.4056 12H17.3996M15.6056 13.8H15.5996M15.0056 16.8H14.9996M9.0056 7.19995H8.99961M8.4056 10.2H8.39961M6.6056 12H6.59961M8.4056 13.8H8.39961M9.0056 16.8H8.99961" stroke="black" stroke-width="2" stroke-linecap="round" stroke-linejoin="round"/>
<path d="M13.2018 13.8H13.1958M13.2018 10.2H13.1958M10.8048 13.8H10.7988M10.8048 10.2H10.7988" stroke="#667085" stroke-width="2" stroke-linecap="round" stroke-linejoin="round"/>
<path d="M12.0026 6H11.9966M12.0026 18H11.9966M17.3996 9H17.3936M6.6056 9H6.59961M17.3996 15H17.3936M6.6056 15H6.59961" stroke="#667085" stroke-width="1.5" stroke-linecap="round" stroke-linejoin="round"/>
<path d="M2 12C2 17.5228 6.47715 22 12 22C17.5228 22 22 17.5228 22 12C22 6.47715 17.5228 2 12 2C6.47715 2 2 6.47715 2 12Z" stroke="black" stroke-width="2" stroke-linecap="round" stroke-linejoin="round"/>
</svg>
