<svg width="24" height="24" viewBox="0 0 24 24" fill="none" xmlns="http://www.w3.org/2000/svg">
<path d="M9.60677 12.0002H9.60078M14.4008 12.0002H14.3948M12.0056 8.4002H11.9996M12.0056 15.6002H11.9996M15.0056 7.2002H14.9996M15.6056 10.2002H15.5996M17.4056 12.0002H17.3996M15.6056 13.8002H15.5996M15.0056 16.8002H14.9996M9.0056 7.2002H8.99961M8.4056 10.2002H8.39961M6.6056 12.0002H6.59961M8.4056 13.8002H8.39961M9.0056 16.8002H8.99961M21 6V18C21 19.6569 19.6569 21 18 21H6C4.34315 21 3 19.6569 3 18V6C3 4.34315 4.34315 3 6 3H18C19.6569 3 21 4.34315 21 6Z" stroke="black" stroke-width="2" stroke-linecap="round" stroke-linejoin="round"/>
<path d="M13.2018 13.8002H13.1958M13.2018 10.2002H13.1958M10.8048 13.8002H10.7988M10.8048 10.2002H10.7988" stroke="#667085" stroke-width="2" stroke-linecap="round" stroke-linejoin="round"/>
<path d="M12.0026 6H11.9966M12.0026 18H11.9966M17.3996 9H17.3936M6.6056 9H6.59961M17.3996 15H17.3936M6.6056 15H6.59961" stroke="#667085" stroke-width="1.5" stroke-linecap="round" stroke-linejoin="round"/>
</svg>
