<svg width="24" height="24" viewBox="0 0 24 24" fill="none" xmlns="http://www.w3.org/2000/svg">
<path d="M8.00999 12H8M16 12H15.99M12.008 6H11.998M12.008 18H11.998M17.008 4H16.998M18.008 9H17.998M21.008 12H20.998M18.008 15H17.998M17.008 20H16.998M7.00803 4H6.99805M6.00803 9H5.99805M3.00803 12H2.99805M6.00803 15H5.99805M7.00803 20H6.99805" stroke="black" stroke-width="3" stroke-linecap="round" stroke-linejoin="round"/>
<path d="M14.003 15H13.9931M14.003 9H13.9931M10.008 15H9.99805M10.008 9H9.99805" stroke="#667085" stroke-width="3" stroke-linecap="round" stroke-linejoin="round"/>
<path d="M12.003 2H11.9931M12.003 22H11.9931M20.998 7H20.9881M3.00803 7H2.99805M20.998 17H20.9881M3.00803 17H2.99805" stroke="#667085" stroke-width="2" stroke-linecap="round" stroke-linejoin="round"/>
</svg>
