<svg width="24" height="24" viewBox="0 0 24 24" fill="none" xmlns="http://www.w3.org/2000/svg">
<path d="M2 12C2 17.5228 6.47715 22 12 22C17.5228 22 22 17.5228 22 12C22 6.47715 17.5228 2 12 2C6.47715 2 2 6.47715 2 12Z" stroke="black" stroke-width="2" stroke-linecap="round" stroke-linejoin="round"/>
<path d="M10.4163 7.4739L6.03957 14.2822C5.59035 14.981 6.09209 15.9 6.92281 15.9H8.36381C8.72109 15.9 9.05385 15.7183 9.24705 15.4178L12.9033 9.73027C13.1256 9.3844 13.1257 8.94056 12.9033 8.59468L12.1828 7.4739C11.7695 6.83096 10.8296 6.83096 10.4163 7.4739Z" stroke="#667085" stroke-width="2" stroke-linecap="round" stroke-linejoin="round"/>
<path d="M17.9062 14.8214L16.0384 11.9159C15.7628 11.4873 15.1363 11.4873 14.8607 11.9159L12.9929 14.8214C12.6934 15.2873 13.0279 15.9 13.5817 15.9H17.3174C17.8712 15.9 18.2057 15.2873 17.9062 14.8214Z" stroke="#667085" stroke-width="2" stroke-linecap="round" stroke-linejoin="round"/>
</svg>
