<svg width="24" height="24" viewBox="0 0 24 24" fill="none" xmlns="http://www.w3.org/2000/svg">
<path d="M10.5 7.91683V6.75017M10.5 16.0835V17.2502M13 7.91667V6.75M13 16.0835V17.2502M3 6V18C3 19.6569 4.34315 21 6 21H18C19.6569 21 21 19.6569 21 18V6C21 4.34315 19.6569 3 18 3H6C4.34315 3 3 4.34315 3 6Z" stroke="black" stroke-width="2" stroke-linecap="round" stroke-linejoin="round"/>
<path d="M12.875 12H9.66667M12.875 12H13.4583C14.5859 12 15.5 12.9141 15.5 14.0417C15.5 15.1693 14.5859 16.0833 13.4583 16.0833H13H10.5H9.66667M12.875 12C14.0026 12 14.9167 11.0859 14.9167 9.95834C14.9167 8.83076 14.1276 7.9165 13 7.9165L10.5 7.91667H9.66667M9.66667 12V16.0833M9.66667 12V7.91667M9.66667 16.0833H8.5M8.5 7.91667H9.66667" stroke="#667085" stroke-width="2" stroke-linecap="round" stroke-linejoin="round"/>
</svg>
