<svg width="24" height="24" viewBox="0 0 24 24" fill="none" xmlns="http://www.w3.org/2000/svg">
<path d="M9.66797 19.2948V21M13.5569 19.2633V21M13.5569 4.70953V3M9.66797 4.65705V3" stroke="#667085" stroke-width="2" stroke-linecap="round" stroke-linejoin="round"/>
<path d="M15.1116 4.92537C16.9559 5.54116 18.0931 7.23334 18.0931 9.06003C18.0931 9.98276 17.7849 10.8388 17.2585 11.5449C18.3217 12.348 19.0005 13.5706 19.0005 14.94C19.0005 17.0927 17.3227 18.8827 15.1116 19.2507L13.5561 19.2632L9.66717 19.2947L6.55606 19.3199H6.00096C5.44867 19.3199 5.00113 18.8723 5.00113 18.32V17.4396C5.00113 16.8874 5.44885 16.4399 6.00113 16.4399H6.81532V7.56005H6.00024C5.44786 7.56005 5.00011 7.11248 5.00022 6.5601L5.00039 5.67983C5.00049 5.12755 5.44812 4.67995 6.0004 4.67995H6.81532C7.85315 4.67214 8.80465 4.66246 9.66717 4.65696C11.2805 4.64667 12.5825 4.65098 13.5561 4.70944C14.2375 4.75036 14.758 4.81782 15.1116 4.92537Z" stroke="black" stroke-width="2" stroke-linecap="round" stroke-linejoin="round"/>
<path fill-rule="evenodd" clip-rule="evenodd" d="M13.0435 8L10.5 8.00017C10.2238 8.00019 10 8.22404 10 8.50017V10.2028C10 10.479 10.2239 10.7028 10.5 10.7028H12.8804C13.6308 10.7028 14.2391 10.0978 14.2391 9.35153C14.2391 8.49481 13.6876 8.00003 13.0435 8ZM10.5 13.2974C10.2239 13.2974 10 13.5212 10 13.7974V15.5C10 15.7761 10.2239 16 10.5 16H13.6413C14.3917 16 15 15.395 15 14.6487C15 13.9024 14.3917 13.2974 13.6413 13.2974H10.5Z" fill="#667085"/>
</svg>
