<svg width="24" height="24" viewBox="0 0 24 24" fill="none" xmlns="http://www.w3.org/2000/svg">
<path d="M17.3996 10.2001C17.3996 8.21187 15.7878 6.6001 13.7996 6.6001C11.8114 6.6001 10.1996 8.21187 10.1996 10.2001C10.1996 11.0576 10.4994 11.8452 11 12.4635M12 22C6.47715 22 2 17.5228 2 12C2 6.47715 6.47715 2 12 2C17.5228 2 22 6.47715 22 12C22 17.5228 17.5228 22 12 22Z" stroke="black" stroke-width="2" stroke-linecap="round" stroke-linejoin="round"/>
<path d="M10.1996 17.4002C12.1878 17.4002 13.7996 15.7884 13.7996 13.8002C13.7996 11.812 12.1878 10.2002 10.1996 10.2002C8.21138 10.2002 6.59961 11.812 6.59961 13.8002C6.59961 15.7884 8.21138 17.4002 10.1996 17.4002Z" stroke="#667085" stroke-width="2" stroke-linecap="round" stroke-linejoin="round"/>
<path d="M17.3996 10.2002C17.3996 12.1884 15.7878 13.8002 13.7996 13.8002C12.6689 13.8002 11.66 13.2789 11 12.4636" stroke="black" stroke-width="2" stroke-linecap="round" stroke-linejoin="round"/>
</svg>
