<svg width="24" height="24" viewBox="0 0 24 24" fill="none" xmlns="http://www.w3.org/2000/svg">
<path d="M12.8817 16.9037L15.8817 15.2162C16.4485 14.8974 16.7992 14.2977 16.7992 13.6474V10.3528C16.7992 9.70253 16.4485 9.1028 15.8817 8.78399L12.8817 7.09649C12.3337 6.78827 11.6647 6.78827 11.1167 7.09649L8.11675 8.78399C7.54997 9.1028 7.19922 9.70253 7.19922 10.3528V13.6474C7.19922 14.2977 7.54997 14.8974 8.11675 15.2162L11.1167 16.9037C11.6647 17.2119 12.3337 17.2119 12.8817 16.9037Z" stroke="#667085" stroke-width="1.5" stroke-linejoin="round"/>
<path d="M21 18V6C21 4.34315 19.6569 3 18 3H6C4.34315 3 3 4.34315 3 6V18C3 19.6569 4.34315 21 6 21H18C19.6569 21 21 19.6569 21 18Z" stroke="black" stroke-width="2" stroke-linecap="round" stroke-linejoin="round"/>
</svg>
