<svg width="24" height="24" viewBox="0 0 24 24" fill="none" xmlns="http://www.w3.org/2000/svg">
<path d="M2 12C2 17.5228 6.47715 22 12 22C17.5228 22 22 17.5228 22 12C22 6.47715 17.5228 2 12 2C6.47715 2 2 6.47715 2 12Z" stroke="black" stroke-width="2" stroke-linecap="round" stroke-linejoin="round"/>
<path d="M12.8817 16.9036L15.8817 15.2161C16.4485 14.8973 16.7992 14.2976 16.7992 13.6473V10.3527C16.7992 9.70244 16.4485 9.10271 15.8817 8.7839L12.8817 7.0964C12.3337 6.78818 11.6647 6.78818 11.1167 7.0964L8.11675 8.7839C7.54997 9.10271 7.19922 9.70244 7.19922 10.3527V13.6473C7.19922 14.2976 7.54997 14.8973 8.11675 15.2161L11.1167 16.9036C11.6647 17.2118 12.3337 17.2118 12.8817 16.9036Z" stroke="#667085" stroke-width="2" stroke-linecap="round" stroke-linejoin="round"/>
</svg>
