<svg width="24" height="24" viewBox="0 0 24 24" fill="none" xmlns="http://www.w3.org/2000/svg">
<path d="M16.2031 8.2001L9.60313 12.4001M7.80313 8.2001L14.4031 12.4001M16.4282 8.44378L12.2773 17.7833C12.1717 18.0208 11.8346 18.0208 11.729 17.7833L7.5781 8.44378C7.40175 8.04701 7.69219 7.6001 8.12638 7.6001H15.8799C16.3141 7.6001 16.6045 8.04701 16.4282 8.44378Z" stroke="#667085" stroke-width="1.5" stroke-linecap="round" stroke-linejoin="round"/>
<path d="M7.20312 7.6061V7.6001M16.8138 7.6061V7.6001M12.0085 18.4001V18.3941M14.7031 12.7001V12.6941M9.30313 12.7001V12.6941" stroke="black" stroke-width="2.5" stroke-linecap="round" stroke-linejoin="round"/>
<path d="M21 18V6C21 4.34315 19.6569 3 18 3H6C4.34315 3 3 4.34315 3 6V18C3 19.6569 4.34315 21 6 21H18C19.6569 21 21 19.6569 21 18Z" stroke="black" stroke-width="2" stroke-linecap="round" stroke-linejoin="round"/>
</svg>
