<svg width="24" height="24" viewBox="0 0 24 24" fill="none" xmlns="http://www.w3.org/2000/svg">
<path d="M10.8001 9.10297V7.8001C10.8001 7.13736 11.3374 6.6001 12.0001 6.6001C12.6628 6.6001 13.2001 7.13736 13.2001 7.8001V9.10322L12.0002 10.3031L10.8001 9.10297Z" stroke="black" stroke-width="1.5" stroke-linecap="round" stroke-linejoin="round"/>
<path d="M10.8001 12.4971V11.5032L11.5033 10.8H12.4971L13.2001 11.503V12.4973L12.4974 13.2H11.503L10.8001 12.4971Z" stroke="black" stroke-width="1.5" stroke-linecap="round" stroke-linejoin="round"/>
<path d="M10.8001 16.2001V14.8973L12.0002 13.6972L13.2001 14.8971V16.2001C13.2001 16.8628 12.6628 17.4001 12.0001 17.4001C11.3374 17.4001 10.8001 16.8628 10.8001 16.2001Z" stroke="black" stroke-width="1.5" stroke-linecap="round" stroke-linejoin="round"/>
<path d="M9.10332 13.2L10.3032 12.0002L9.10303 10.8H7.79961C7.13687 10.8 6.59961 11.3373 6.59961 12C6.59961 12.6627 7.13687 13.2 7.79961 13.2H9.10332Z" stroke="black" stroke-width="1.5" stroke-linecap="round" stroke-linejoin="round"/>
<path d="M14.8974 10.8L13.6973 12.0002L14.8971 13.2H16.1996C16.8624 13.2 17.3996 12.6627 17.3996 12C17.3996 11.3373 16.8624 10.8 16.1996 10.8H14.8974Z" stroke="black" stroke-width="1.5" stroke-linecap="round" stroke-linejoin="round"/>
<path d="M10.7999 10.7999V9.10287L9.87861 8.18155C9.40998 7.71292 8.65018 7.71292 8.18155 8.18155C7.71292 8.65018 7.71292 9.40998 8.18155 9.87861L9.10285 10.7999H10.7999ZM10.7999 10.7999V11.5031L10.303 12L10.7999 12.497V13.1999M10.7999 10.7999H11.5031L12 10.303L12.497 10.7999H13.1999M10.7999 13.1999V14.8972L9.87873 15.8184C9.4101 16.2871 8.6503 16.2871 8.18167 15.8184C7.71304 15.3498 7.71304 14.59 8.18167 14.1214L9.10314 13.1999H10.7999ZM10.7999 13.1999H11.5028L12 13.6971L12.4973 13.1999H13.1999M13.1999 13.1999V14.897L14.1212 15.8183C14.5899 16.2869 15.3497 16.2869 15.8183 15.8183C16.2869 15.3497 16.2869 14.5899 15.8183 14.1212L14.897 13.1999H13.1999ZM13.1999 13.1999V12.4972L13.6971 12L13.1999 11.5029V10.7999M13.1999 10.7999V9.10312L14.1214 8.18168C14.59 7.71305 15.3498 7.71305 15.8184 8.18168C16.2871 8.6503 16.2871 9.4101 15.8184 9.87873L14.8973 10.7999H13.1999Z" stroke="#667085" stroke-width="1.5" stroke-linecap="round" stroke-linejoin="round"/>
<path d="M21 18V6C21 4.34315 19.6569 3 18 3H6C4.34315 3 3 4.34315 3 6V18C3 19.6569 4.34315 21 6 21H18C19.6569 21 21 19.6569 21 18Z" stroke="black" stroke-width="2" stroke-linecap="round" stroke-linejoin="round"/>
</svg>
