<svg width="24" height="24" viewBox="0 0 24 24" fill="none" xmlns="http://www.w3.org/2000/svg">
<path d="M10.0008 7.17146V5C10.0008 3.89543 10.8963 3 12.0008 3C13.1054 3 14.0008 3.89543 14.0008 5V7.17187L12.0005 9.1716L10.0008 7.17146Z" stroke="#667085" stroke-width="2" stroke-linecap="round" stroke-linejoin="round"/>
<path d="M10.0008 19V16.8287L12.0005 14.8285L14.0008 16.8283V19C14.0008 20.1046 13.1054 21 12.0008 21C10.8963 21 10.0008 20.1046 10.0008 19Z" stroke="#667085" stroke-width="2" stroke-linecap="round" stroke-linejoin="round"/>
<path d="M7.17285 13.9998H5C3.89543 13.9998 3 13.1044 3 11.9998C3 10.8953 3.89543 9.99985 5 9.99985H7.17236L9.17212 12L7.17285 13.9998Z" stroke="#667085" stroke-width="2" stroke-linecap="round" stroke-linejoin="round"/>
<path d="M19 13.9998H16.8292L14.829 12L16.8297 9.99985H19C20.1046 9.99985 21 10.8953 21 11.9998C21 13.1044 20.1046 13.9998 19 13.9998Z" stroke="#667085" stroke-width="2" stroke-linecap="round" stroke-linejoin="round"/>
<path d="M10 12.8282V11.1718L11.172 9.99976H12.8284L14 11.1714V12.8286L12.8289 13.9998H11.1715L10 12.8282Z" stroke="#667085" stroke-width="2" stroke-linecap="round" stroke-linejoin="round"/>
<path d="M10.0005 9.99976V7.17136L8.46499 5.63584C7.68395 4.85479 6.41762 4.85479 5.63657 5.63584C4.85552 6.41688 4.85552 7.68321 5.63657 8.46426L7.17206 9.99976H10.0005ZM10.0005 9.99976V11.1718L9.17231 12L10.0005 12.8282V13.9998M10.0005 9.99976H11.1725L12.0007 9.17157L12.8289 9.99976H14.0005M10.0005 13.9998V16.8286L8.46519 18.364C7.68414 19.145 6.41781 19.145 5.63677 18.364C4.85572 17.5829 4.85572 16.3166 5.63677 15.5355L7.17255 13.9998H10.0005ZM10.0005 13.9998H11.1721L12.0007 14.8284L12.8294 13.9998H14.0005M14.0005 13.9998V16.8282L15.5361 18.3638C16.3171 19.1448 17.5834 19.1448 18.3645 18.3638C19.1455 17.5827 19.1455 16.3164 18.3645 15.5353L16.8289 13.9998H14.0005ZM14.0005 13.9998V12.8286L14.8292 12L14.0005 11.1714V9.99976M14.0005 9.99976V7.17178L15.5363 5.63604C16.3173 4.855 17.5836 4.855 18.3647 5.63604C19.1457 6.41709 19.1457 7.68342 18.3647 8.46447L16.8294 9.99976H14.0005Z" stroke="black" stroke-width="2" stroke-linecap="round" stroke-linejoin="round"/>
</svg>
