<svg width="24" height="24" viewBox="0 0 24 24" fill="none" xmlns="http://www.w3.org/2000/svg">
<path d="M10 8.00012V12.0001V16.0001C10 16.5524 10.4463 17.0092 10.9986 17.0117C13.3064 17.0222 17 16.7273 17 12.0001C17 7.27292 13.3064 6.97806 10.9986 6.98853C10.4463 6.99104 10 7.44783 10 8.00012Z" stroke="#667085" stroke-width="2" stroke-linecap="round" stroke-linejoin="round"/>
<path d="M3 12H6H10H13M6 12V5C6 3.89543 6.89543 3 8 3H13C17.4183 3 21 6.58172 21 11V13C21 17.4183 17.4183 21 13 21H8C6.89543 21 6 20.1046 6 19V12Z" stroke="black" stroke-width="2" stroke-linecap="round" stroke-linejoin="round"/>
</svg>
