<svg width="24" height="24" viewBox="0 0 24 24" fill="none" xmlns="http://www.w3.org/2000/svg">
<path d="M20 12V12.5C20 13.3284 19.3284 14 18.5 14H9.38743C8.70487 14 8.2229 14.6687 8.43874 15.3162L8.77208 16.3162C8.90819 16.7246 9.29033 17 9.72076 17H18.5C19.3284 17 20 17.6716 20 18.5V19.5C20 20.3284 19.3284 21 18.5 21H12C7.58172 21 4 17.4183 4 13V12" stroke="#667085" stroke-width="2" stroke-linecap="round" stroke-linejoin="round"/>
<path d="M20 12V11.5C20 10.6716 19.3284 10 18.5 10H9.38743C8.70487 10 8.2229 9.3313 8.43874 8.68377L8.77208 7.68377C8.90819 7.27543 9.29033 7 9.72076 7H18.5C19.3284 7 20 6.32843 20 5.5L20 4.5C20 3.67157 19.3284 3 18.5 3H12C7.58172 3 4 6.58172 4 11V12" stroke="black" stroke-width="2" stroke-linecap="round" stroke-linejoin="round"/>
</svg>
