<svg width="24" height="24" viewBox="0 0 24 24" fill="none" xmlns="http://www.w3.org/2000/svg">
<path d="M17.3996 8.40015C17.3996 12.6001 6.59961 12.0001 6.59961 15.6001M12 22C6.47715 22 2 17.5228 2 12C2 6.47715 6.47715 2 12 2C17.5228 2 22 6.47715 22 12C22 17.5228 17.5228 22 12 22Z" stroke="black" stroke-width="2" stroke-linecap="round" stroke-linejoin="round"/>
<path d="M6.59961 15.6001V8.4001C6.59961 7.40598 7.4055 6.6001 8.39961 6.6001C9.39372 6.6001 10.1996 7.40598 10.1996 8.4001V15.6001C10.1996 16.5942 9.39372 17.4001 8.39961 17.4001C7.4055 17.4001 6.59961 16.5942 6.59961 15.6001Z" stroke="#667085" stroke-width="2" stroke-linecap="round" stroke-linejoin="round"/>
<path d="M13.7996 15.6001V8.4001C13.7996 7.40598 14.6055 6.6001 15.5996 6.6001C16.5937 6.6001 17.3996 7.40598 17.3996 8.4001V15.6001C17.3996 16.5942 16.5937 17.4001 15.5996 17.4001C14.6055 17.4001 13.7996 16.5942 13.7996 15.6001Z" stroke="#667085" stroke-width="2" stroke-linecap="round" stroke-linejoin="round"/>
</svg>
