<svg width="24" height="24" viewBox="0 0 24 24" fill="none" xmlns="http://www.w3.org/2000/svg">
<path d="M3 18C3 12 21 13 21 6" stroke="#667085" stroke-width="2" stroke-linecap="round" stroke-linejoin="round"/>
<path d="M3 18V6C3 4.34315 4.34315 3 6 3C7.65685 3 9 4.34315 9 6V18C9 19.6569 7.65685 21 6 21C4.34315 21 3 19.6569 3 18Z" stroke="black" stroke-width="2" stroke-linecap="round" stroke-linejoin="round"/>
<path d="M15 18V6C15 4.34315 16.3431 3 18 3C19.6569 3 21 4.34315 21 6V18C21 19.6569 19.6569 21 18 21C16.3431 21 15 19.6569 15 18Z" stroke="black" stroke-width="2" stroke-linecap="round" stroke-linejoin="round"/>
</svg>
