<svg width="24" height="24" viewBox="0 0 24 24" fill="none" xmlns="http://www.w3.org/2000/svg">
<path d="M7.19922 15.5999C9.18744 15.5999 10.7992 13.9881 10.7992 11.9999C10.7992 10.0117 9.18744 8.3999 7.19922 8.3999M16.7992 15.5999C14.811 15.5999 13.1992 13.9881 13.1992 11.9999C13.1992 10.0117 14.811 8.3999 16.7992 8.3999" stroke="#667085" stroke-width="2" stroke-linecap="round" stroke-linejoin="round"/>
<path d="M9 12H10.8H13.2H15M12 22C6.47715 22 2 17.5228 2 12C2 6.47715 6.47715 2 12 2C17.5228 2 22 6.47715 22 12C22 17.5228 17.5228 22 12 22Z" stroke="black" stroke-width="2" stroke-linecap="round" stroke-linejoin="round"/>
</svg>
