<svg width="24" height="24" viewBox="0 0 24 24" fill="none" xmlns="http://www.w3.org/2000/svg">
<path d="M12 11.7001C12.0001 9.10734 13.6 7.39491 14.4 6.86279M12 11.7001C13.92 12.9001 14.0056 15.4001 13.8083 16.5001M12 11.7001C10.08 12.9001 7.87317 12.0001 7.00977 11.4001M12 22C6.47715 22 2 17.5228 2 12C2 6.47715 6.47715 2 12 2C17.5228 2 22 6.47715 22 12C22 17.5228 17.5228 22 12 22Z" stroke="black" stroke-width="2" stroke-linecap="round" stroke-linejoin="round"/>
<path d="M14.3996 6.8628C11.6531 6.22173 7.91406 6.75399 6.81423 8.45917C6.44661 9.02912 6.57707 10.1448 7.00941 11.4001C7.93285 14.0814 10.2335 17.4001 11.9997 17.4001C12.5684 17.4001 13.1924 17.0561 13.808 16.5001C15.9996 14.5207 18.0845 9.85455 17.1853 8.45917C16.6868 7.68567 15.6453 7.15356 14.3996 6.8628Z" stroke="#667085" stroke-width="2" stroke-linecap="round" stroke-linejoin="round"/>
</svg>
