<svg width="24" height="24" viewBox="0 0 24 24" fill="none" xmlns="http://www.w3.org/2000/svg">
<path d="M12.0006 11.4999C12.0008 7.17866 14.6673 4.32461 16.0006 3.43774M12.0006 11.4999C15.2006 13.4999 15.3432 17.6666 15.0146 19.4999M12.0006 11.4999C8.80059 13.4999 5.12259 11.9999 3.68359 10.9999" stroke="#667085" stroke-width="2" stroke-linecap="round" stroke-linejoin="round"/>
<path d="M16 3.43784C11.4225 2.36939 5.19076 3.25648 3.3577 6.09845C2.74501 7.04836 2.96244 8.90776 3.683 11C5.22207 15.4689 9.05655 21 12.0002 21C12.948 21 13.988 20.4266 15.014 19.5C18.6666 16.201 22.1416 8.42409 20.6427 6.09845C19.8119 4.80928 18.0761 3.92243 16 3.43784Z" stroke="black" stroke-width="2" stroke-linecap="round" stroke-linejoin="round"/>
</svg>
