<svg width="24" height="24" viewBox="0 0 24 24" fill="none" xmlns="http://www.w3.org/2000/svg">
<path d="M6.59961 13.8543C6.59961 16.2182 9.01727 17.4001 11.9996 17.4001C14.9819 17.4001 17.3996 16.2182 17.3996 13.8543C17.3996 12.5802 16.7142 11.6584 15.5996 11.071C15.9996 10.2259 16.6796 8.29921 16.1996 7.35367C15.9996 6.95969 15.3596 6.28993 14.3996 6.76271C13.9996 6.95969 13.1996 7.95821 13.1996 10.3763C12.8137 10.3311 12.412 10.3085 11.9996 10.3085C11.5872 10.3085 11.1855 10.3311 10.7996 10.3763C10.7996 7.95821 9.99961 6.95971 9.59961 6.76272C8.63961 6.28995 7.99961 6.95971 7.79961 7.35369C7.31961 8.29923 7.99961 10.2259 8.39961 11.0711C7.29486 11.6589 6.59961 12.5867 6.59961 13.8543Z" stroke="#667085" stroke-width="1.5" stroke-linejoin="round"/>
<path d="M10.1992 12.6001V13.2001M13.7992 12.6001V13.2001" stroke="black" stroke-width="1.5" stroke-linecap="round" stroke-linejoin="round"/>
<path d="M2 12C2 17.5228 6.47715 22 12 22C17.5228 22 22 17.5228 22 12C22 6.47715 17.5228 2 12 2C6.47715 2 2 6.47715 2 12Z" stroke="black" stroke-width="2" stroke-linecap="round" stroke-linejoin="round"/>
</svg>
