<svg width="24" height="24" viewBox="0 0 24 24" fill="none" xmlns="http://www.w3.org/2000/svg">
<path d="M3 15.0903C3 19.0301 7.02944 21 12 21C16.9706 21 21 19.0301 21 15.0903C21 12.9668 19.8577 11.4305 18 10.4516C18.6667 9.043 19.8 5.83186 19 4.25595C18.6667 3.59933 17.6 2.48306 16 3.27101C15.3333 3.59933 14 5.26353 14 9.29371C13.3568 9.21836 12.6874 9.18069 12 9.18069C11.3126 9.18069 10.6432 9.21836 10 9.29371C10 5.26353 8.66667 3.59935 8 3.27104C6.4 2.48308 5.33333 3.59935 5 4.25598C4.2 5.83188 5.33333 9.04303 6 10.4516C4.15875 11.4314 3 12.9776 3 15.0903Z" stroke="black" stroke-width="2" stroke-linecap="round" stroke-linejoin="round"/>
<path d="M9 13V14M15 13V14" stroke="#667085" stroke-width="2" stroke-linecap="round" stroke-linejoin="round"/>
</svg>
