<svg width="24" height="24" viewBox="0 0 24 24" fill="none" xmlns="http://www.w3.org/2000/svg">
<path d="M8.99961 6.6001H16.7996C17.0468 6.6001 17.1879 6.88233 17.0396 7.0801L15.9596 8.5201C15.733 8.82226 15.3773 9.0001 14.9996 9.0001H7.19961C6.9524 9.0001 6.81128 8.71787 6.95961 8.5201L8.03961 7.0801C8.26623 6.77793 8.6219 6.6001 8.99961 6.6001Z" stroke="#667085" stroke-width="1.5" stroke-linecap="round" stroke-linejoin="round"/>
<path d="M6.95961 16.9201L8.03961 15.4801C8.26623 15.1779 8.6219 15.0001 8.99961 15.0001H16.7996C17.0468 15.0001 17.1879 15.2823 17.0396 15.4801L15.9596 16.9201C15.733 17.2223 15.3773 17.4001 14.9996 17.4001H7.19961C6.9524 17.4001 6.81128 17.1179 6.95961 16.9201Z" stroke="#667085" stroke-width="1.5" stroke-linecap="round" stroke-linejoin="round"/>
<path d="M17.0396 12.72L15.9596 11.28C15.733 10.9779 15.3773 10.8 14.9996 10.8H7.19961C6.9524 10.8 6.81128 11.0823 6.95961 11.28L8.03961 12.72C8.26623 13.0222 8.6219 13.2 8.99961 13.2H16.7996C17.0468 13.2 17.1879 12.9178 17.0396 12.72Z" stroke="black" stroke-width="1.5" stroke-linecap="round" stroke-linejoin="round"/>
<path d="M2 12C2 17.5228 6.47715 22 12 22C17.5228 22 22 17.5228 22 12C22 6.47715 17.5228 2 12 2C6.47715 2 2 6.47715 2 12Z" stroke="black" stroke-width="2" stroke-linecap="round" stroke-linejoin="round"/>
</svg>
