<svg width="24" height="24" viewBox="0 0 24 24" fill="none" xmlns="http://www.w3.org/2000/svg">
<path d="M17.0396 12.7203L15.9596 11.2803C15.733 10.9781 15.3773 10.8003 14.9996 10.8003H7.19961C6.9524 10.8003 6.81128 11.0825 6.95961 11.2803L8.03961 12.7203C8.26623 13.0225 8.6219 13.2003 8.99961 13.2003H16.7996C17.0468 13.2003 17.1879 12.9181 17.0396 12.7203Z" stroke="black" stroke-width="1.5" stroke-linecap="round" stroke-linejoin="round"/>
<path d="M8.99961 6.6001H16.7996C17.0468 6.6001 17.1879 6.88233 17.0396 7.0801L15.9596 8.5201C15.733 8.82226 15.3773 9.0001 14.9996 9.0001H7.19961C6.9524 9.0001 6.81128 8.71787 6.95961 8.5201L8.03961 7.0801C8.26623 6.77793 8.6219 6.6001 8.99961 6.6001Z" stroke="#667085" stroke-width="1.5" stroke-linecap="round" stroke-linejoin="round"/>
<path d="M6.95961 16.9201L8.03961 15.4801C8.26623 15.1779 8.6219 15.0001 8.99961 15.0001H16.7996C17.0468 15.0001 17.1879 15.2823 17.0396 15.4801L15.9596 16.9201C15.733 17.2223 15.3773 17.4001 14.9996 17.4001H7.19961C6.9524 17.4001 6.81128 17.1179 6.95961 16.9201Z" stroke="#667085" stroke-width="1.5" stroke-linecap="round" stroke-linejoin="round"/>
<path d="M21 18V6C21 4.34315 19.6569 3 18 3H6C4.34315 3 3 4.34315 3 6V18C3 19.6569 4.34315 21 6 21H18C19.6569 21 21 19.6569 21 18Z" stroke="black" stroke-width="2" stroke-linecap="round" stroke-linejoin="round"/>
</svg>
