<svg width="24" height="24" viewBox="0 0 24 24" fill="none" xmlns="http://www.w3.org/2000/svg">
<path d="M4.27148 14.3762C5.85012 11.6322 8.80221 13.8748 10.3931 14.7965C12.3021 15.9026 15.1656 17.5617 16.5521 14.2301M15.994 10.5914C15.707 11.0903 14.1978 10.615 13.1485 10.007C12.0879 9.39256 10.9344 8.32511 11.2215 7.82621C11.5085 7.3273 13.0064 7.79607 14.067 8.41056C15.1276 9.02505 16.2811 10.0925 15.994 10.5914Z" stroke="#667085" stroke-width="2" stroke-linecap="round" stroke-linejoin="round"/>
<path d="M20.7662 13.3565C21.9143 11.3609 18.626 7.85922 15.4443 6.01576C12.2626 4.17229 7.5966 3.06533 6.44849 5.06094M20.7662 13.3565L17.5515 18.9442C16.4034 20.9398 11.7035 19.8132 8.5557 17.9894C6.96484 17.0677 5.34735 15.7314 4.27108 14.3761C3.19481 13.0208 2.65976 11.6464 3.23381 10.6486L6.44849 5.06094M20.7662 13.3565C20.1406 14.4439 18.4606 14.6043 16.5517 14.23C14.9572 13.9174 13.203 13.2318 11.7704 12.4017C8.58867 10.5582 5.30039 7.05655 6.44849 5.06094" stroke="black" stroke-width="2" stroke-linecap="round" stroke-linejoin="round"/>
</svg>
