<svg width="24" height="24" viewBox="0 0 24 24" fill="none" xmlns="http://www.w3.org/2000/svg">
<path d="M7.36133 13.4261C8.30851 11.7797 10.0798 13.1253 11.0343 13.6783C12.1797 14.3419 13.8978 15.3374 14.7297 13.3385M14.3949 11.1552C14.2226 11.4546 13.3171 11.1694 12.6875 10.8046C12.0512 10.4359 11.3591 9.79546 11.5313 9.49611C11.7035 9.19677 12.6023 9.47803 13.2386 9.84673C13.875 10.2154 14.5671 10.8559 14.3949 11.1552Z" stroke="black" stroke-width="1.5" stroke-linejoin="round"/>
<path d="M17.2593 12.8141C17.9482 11.6167 15.9752 9.51573 14.0662 8.40965C12.1572 7.30357 9.35757 6.63939 8.66871 7.83676M17.2593 12.8141L15.3305 16.1667C14.6417 17.3641 11.8217 16.6881 9.93303 15.5938C8.97852 15.0408 8.00802 14.239 7.36226 13.4258C6.71649 12.6127 6.39547 11.7881 6.7399 11.1894L8.66871 7.83676M17.2593 12.8141C16.884 13.4665 15.8759 13.5628 14.7306 13.3382C13.7739 13.1506 12.7214 12.7393 11.8618 12.2412C9.95281 11.1351 7.97985 9.03412 8.66871 7.83676" stroke="#667085" stroke-width="1.5" stroke-linejoin="round"/>
<path d="M2 12C2 17.5228 6.47715 22 12 22C17.5228 22 22 17.5228 22 12C22 6.47715 17.5228 2 12 2C6.47715 2 2 6.47715 2 12Z" stroke="black" stroke-width="2" stroke-linecap="round" stroke-linejoin="round"/>
</svg>
