<svg width="24" height="24" viewBox="0 0 24 24" fill="none" xmlns="http://www.w3.org/2000/svg">
<path d="M7.79883 8.4001V7.2001C7.79883 6.86873 8.06746 6.6001 8.39883 6.6001H15.5988C15.9302 6.6001 16.1988 6.86873 16.1988 7.2001V8.4001C16.1988 8.73147 15.9302 9.0001 15.5988 9.0001H13.7988C13.4675 9.0001 13.1988 9.26873 13.1988 9.6001V16.8001C13.1988 17.1315 12.9302 17.4001 12.5988 17.4001H11.3988C11.0675 17.4001 10.7988 17.1315 10.7988 16.8001V9.6001C10.7988 9.26873 10.5302 9.0001 10.1988 9.0001H8.39883C8.06746 9.0001 7.79883 8.73147 7.79883 8.4001Z" stroke="#667085" stroke-width="2" stroke-linecap="round" stroke-linejoin="round"/>
<path d="M8.39961 11.8001C7.29486 12.1846 6.59961 12.6781 6.59961 13.3001C6.59961 14.4599 9.01727 15.4001 11.9996 15.4001C14.9819 15.4001 17.3996 14.4599 17.3996 13.3001C17.3996 12.6781 16.7044 12.1846 15.5996 11.8001M21 6V18C21 19.6569 19.6569 21 18 21H6C4.34315 21 3 19.6569 3 18V6C3 4.34315 4.34315 3 6 3H18C19.6569 3 21 4.34315 21 6Z" stroke="black" stroke-width="2" stroke-linecap="round" stroke-linejoin="round"/>
</svg>
