<svg width="24" height="24" viewBox="0 0 24 24" fill="none" xmlns="http://www.w3.org/2000/svg">
<path d="M2 12C2 17.5228 6.47715 22 12 22C17.5228 22 22 17.5228 22 12C22 6.47715 17.5228 2 12 2C6.47715 2 2 6.47715 2 12Z" stroke="black" stroke-width="2" stroke-linecap="round" stroke-linejoin="round"/>
<path d="M10.9889 7H7.9C7.40294 7 7 7.40294 7 7.9V9.76667C7 10.2637 7.40294 10.6667 7.9 10.6667H8.23333C8.5647 10.6667 8.83333 10.9353 8.83333 11.2667V17.1C8.83333 17.5971 9.23628 18 9.73333 18H10.9889C11.4859 18 11.8889 17.5971 11.8889 17.1V7.9C11.8889 7.40294 11.4859 7 10.9889 7Z" stroke="#667085" stroke-width="2" stroke-linecap="round" stroke-linejoin="round"/>
<path d="M15.8611 7C17.0424 7 18 7.95761 18 9.13889C18 10.3202 17.0424 11.2778 15.8611 11.2778C14.6798 11.2778 13.7222 10.3202 13.7222 9.13889C13.7222 7.95761 14.6798 7 15.8611 7Z" stroke="#667085" stroke-width="2" stroke-linecap="round" stroke-linejoin="round"/>
</svg>
