<svg width="24" height="24" viewBox="0 0 24 24" fill="none" xmlns="http://www.w3.org/2000/svg">
<path d="M21 18V6C21 4.34315 19.6569 3 18 3H6C4.34315 3 3 4.34315 3 6V18C3 19.6569 4.34315 21 6 21H18C19.6569 21 21 19.6569 21 18Z" stroke="black" stroke-width="2" stroke-linecap="round" stroke-linejoin="round"/>
<path d="M10.4889 6.5H7.4C6.90294 6.5 6.5 6.90294 6.5 7.4V9.26667C6.5 9.76372 6.90294 10.1667 7.4 10.1667H7.73333C8.0647 10.1667 8.33333 10.4353 8.33333 10.7667V16.6C8.33333 17.0971 8.73628 17.5 9.23333 17.5H10.4889C10.9859 17.5 11.3889 17.0971 11.3889 16.6V7.4C11.3889 6.90294 10.9859 6.5 10.4889 6.5Z" stroke="#667085" stroke-width="2" stroke-linecap="round" stroke-linejoin="round"/>
<path d="M15.3611 6.5C16.5424 6.5 17.5 7.45761 17.5 8.63889C17.5 9.82017 16.5424 10.7778 15.3611 10.7778C14.1798 10.7778 13.2222 9.82017 13.2222 8.63889C13.2222 7.45761 14.1798 6.5 15.3611 6.5Z" stroke="#667085" stroke-width="2" stroke-linecap="round" stroke-linejoin="round"/>
</svg>
