<svg width="24" height="24" viewBox="0 0 24 24" fill="none" xmlns="http://www.w3.org/2000/svg">
<path d="M11.8008 11.8L10.7208 17.2M11.8008 11.8L7.30078 7.30005M11.8008 11.8L15.1008 8.50005M11.8008 11.8L17.2008 11.26M12 22C6.47715 22 2 17.5228 2 12C2 6.47715 6.47715 2 12 2C17.5228 2 22 6.47715 22 12C22 17.5228 17.5228 22 12 22Z" stroke="black" stroke-width="2" stroke-linecap="round" stroke-linejoin="round"/>
<path d="M10.4537 17.3611L7.1535 7.4605C7.08298 7.24893 7.25976 7.03711 7.48053 7.06865L14.9295 8.13279C15.2318 8.17597 15.5062 8.33271 15.6969 8.5711L17.6248 10.981C17.7234 11.1042 17.7096 11.2829 17.5932 11.3895L10.941 17.4874C10.7808 17.6343 10.5224 17.5673 10.4537 17.3611Z" stroke="#667085" stroke-width="2" stroke-linecap="round" stroke-linejoin="round"/>
</svg>
