<svg width="24" height="24" viewBox="0 0 24 24" fill="none" xmlns="http://www.w3.org/2000/svg">
<path d="M21 18V6C21 4.34315 19.6569 3 18 3H6C4.34315 3 3 4.34315 3 6V18C3 19.6569 4.34315 21 6 21H18C19.6569 21 21 19.6569 21 18Z" stroke="black" stroke-width="2" stroke-linecap="round" stroke-linejoin="round"/>
<path d="M17.3996 7L14.0731 16.9795C13.9098 17.4695 13.4512 17.8 12.9347 17.8H11.6205C11.1256 17.8 10.6815 17.4962 10.5021 17.0349L6.91751 7.81747C6.76455 7.42415 7.0547 7 7.47672 7H8.77873C9.27363 7 9.71776 7.30382 9.89713 7.76506L13.5663 17.2" stroke="#667085" stroke-width="2" stroke-linecap="round" stroke-linejoin="round"/>
</svg>
