<svg width="24" height="24" viewBox="0 0 24 24" fill="none" xmlns="http://www.w3.org/2000/svg">
<path d="M2 12C2 17.5228 6.47715 22 12 22C17.5228 22 22 17.5228 22 12C22 6.47715 17.5228 2 12 2C6.47715 2 2 6.47715 2 12Z" stroke="black" stroke-width="2" stroke-linecap="round" stroke-linejoin="round"/>
<path d="M7.30672 11.293L11.2925 7.3072C11.683 6.91668 12.3162 6.91668 12.7067 7.3072L16.6925 11.293C17.083 11.6835 17.083 12.3167 16.6925 12.7072L12.7067 16.693C12.3162 17.0835 11.683 17.0835 11.2925 16.693L7.30672 12.7072C6.91619 12.3167 6.91619 11.6835 7.30672 11.293Z" stroke="#667085" stroke-width="2" stroke-linecap="round" stroke-linejoin="round"/>
</svg>
