<svg width="24" height="24" viewBox="0 0 24 24" fill="none" xmlns="http://www.w3.org/2000/svg">
<path d="M21 18V6C21 4.34315 19.6569 3 18 3H6C4.34315 3 3 4.34315 3 6V18C3 19.6569 4.34315 21 6 21H18C19.6569 21 21 19.6569 21 18Z" stroke="black" stroke-width="2" stroke-linecap="round" stroke-linejoin="round"/>
<path d="M8.01382 10.5859L10.5854 8.01431C11.3664 7.23326 12.6328 7.23326 13.4138 8.01431L15.9854 10.5859C16.7664 11.3669 16.7664 12.6333 15.9854 13.4143L13.4138 15.9859C12.6328 16.7669 11.3664 16.7669 10.5854 15.9859L8.01382 13.4143C7.23277 12.6333 7.23278 11.3669 8.01382 10.5859Z" stroke="#667085" stroke-width="2" stroke-linecap="round" stroke-linejoin="round"/>
</svg>
