<svg width="24" height="24" viewBox="0 0 24 24" fill="none" xmlns="http://www.w3.org/2000/svg">
<path d="M4.41421 10.5858L10.5858 4.41421C11.3668 3.63317 12.6332 3.63316 13.4142 4.41421L19.5858 10.5858C20.3668 11.3668 20.3668 12.6332 19.5858 13.4142L13.4142 19.5858C12.6332 20.3668 11.3668 20.3668 10.5858 19.5858L4.41421 13.4142C3.63317 12.6332 3.63316 11.3668 4.41421 10.5858Z" stroke="black" stroke-width="2" stroke-linecap="round" stroke-linejoin="round"/>
<path d="M8.70711 11.2929L11.2929 8.70711C11.6834 8.31658 12.3166 8.31658 12.7071 8.70711L15.2929 11.2929C15.6834 11.6834 15.6834 12.3166 15.2929 12.7071L12.7071 15.2929C12.3166 15.6834 11.6834 15.6834 11.2929 15.2929L8.70711 12.7071C8.31658 12.3166 8.31658 11.6834 8.70711 11.2929Z" stroke="#667085" stroke-width="2" stroke-linecap="round" stroke-linejoin="round"/>
</svg>
