<svg width="24" height="24" viewBox="0 0 24 24" fill="none" xmlns="http://www.w3.org/2000/svg">
<path d="M12 5V3M12 20V22" stroke="#667085" stroke-width="2" stroke-linecap="round" stroke-linejoin="round"/>
<path d="M12.5775 15.2059L18.845 6.58817C19.3257 5.9272 18.8535 5 18.0362 5H12H6C5.44772 5 5 5.44772 5 6V8C5 8.55228 5.44772 9 6 9H11.0181C11.4268 9 11.6628 9.4636 11.4225 9.79409L5.15503 18.4118C4.67433 19.0728 5.14648 20 5.96377 20H12H18C18.5523 20 19 19.5523 19 19V17C19 16.4477 18.5523 16 18 16H12.9819C12.5732 16 12.3372 15.5364 12.5775 15.2059Z" stroke="black" stroke-width="2" stroke-linecap="round" stroke-linejoin="round"/>
</svg>
