<svg width="24" height="24" viewBox="0 0 24 24" fill="none" xmlns="http://www.w3.org/2000/svg">
<path d="M2 12C2 17.5228 6.47715 22 12 22C17.5228 22 22 17.5228 22 12C22 6.47715 17.5228 2 12 2C6.47715 2 2 6.47715 2 12Z" stroke="black" stroke-width="2" stroke-linejoin="round"/>
<path d="M17.3185 11.0115C14.4048 7.3295 9.59523 7.3295 6.68151 11.0115C6.22316 11.5907 6.22316 12.4093 6.68151 12.9885C9.59523 16.6705 14.4048 16.6705 17.3185 12.9885C17.7768 12.4093 17.7768 11.5907 17.3185 11.0115Z" stroke="#667085" stroke-width="2" stroke-linejoin="round"/>
<path d="M12 14C13.1046 14 14 13.1046 14 12C14 10.8954 13.1046 10 12 10C11.887 10 11.7763 10.0094 11.6684 10.0274C11.5775 10.0425 11.564 10.169 11.6351 10.2275C11.8579 10.4109 12 10.6889 12 11C12 11.5523 11.5523 12 11 12C10.6889 12 10.4109 11.8579 10.2275 11.6351C10.169 11.564 10.0425 11.5775 10.0274 11.6684C10.0094 11.7763 10 11.887 10 12C10 13.1046 10.8954 14 12 14Z" fill="black"/>
</svg>
