<svg width="24" height="24" viewBox="0 0 24 24" fill="none" xmlns="http://www.w3.org/2000/svg">
<path d="M4.8784 8.90834L10.5855 3.54999C11.3666 2.81667 12.6329 2.81667 13.4139 3.54999L19.121 8.90834M4.8784 8.90834C4.31599 9.43653 3.99972 10.1531 3.99972 10.9V18.1833C3.99972 19.7389 5.34286 21 6.99972 21H8.99969H14.9997H16.9997C18.6566 21 19.9997 19.7389 19.9997 18.1833V10.9C19.9997 10.153 19.6836 9.43656 19.121 8.90834M4.8784 8.90834L3 10.6722M19.121 8.90834L20.9997 10.6722" stroke="black" stroke-width="2" stroke-linecap="round"/>
<path d="M12 16.5C13.6569 16.5 15 15.1569 15 13.5C15 11.8431 13.6569 10.5 12 10.5C10.3431 10.5 9 11.8431 9 13.5C9 15.1569 10.3431 16.5 12 16.5Z" stroke="#667085" stroke-width="2" stroke-linecap="round"/>
</svg>
