<svg width="24" height="24" viewBox="0 0 24 24" fill="none" xmlns="http://www.w3.org/2000/svg">
<path d="M20 18.1833V10.9C20 10.153 19.6839 9.43656 19.1213 8.90834L13.4142 3.54999C12.6332 2.81667 11.3668 2.81667 10.5858 3.54999L4.87868 8.90834C4.31607 9.43656 4 10.153 4 10.9V18.1833C4 19.7389 5.34315 21 7 21H17C18.6569 21 20 19.7389 20 18.1833Z" stroke="black" stroke-width="2"/>
<path d="M12 16.5C13.6569 16.5 15 15.1569 15 13.5C15 11.8431 13.6569 10.5 12 10.5C10.3431 10.5 9 11.8431 9 13.5C9 15.1569 10.3431 16.5 12 16.5Z" stroke="#667085" stroke-width="2"/>
</svg>
