<svg width="24" height="24" viewBox="0 0 24 24" fill="none" xmlns="http://www.w3.org/2000/svg">
<path d="M3.14516 17.3504L2.43805 18.0575H2.43805L3.14516 17.3504ZM3.14516 16.6496L3.85226 17.3567L3.14516 16.6496ZM7.35044 20.8548L6.64333 20.1477H6.64333L7.35044 20.8548ZM6.64956 20.8548L7.35667 20.1477L6.64956 20.8548ZM10.8548 17.3504L11.562 18.0575L10.8548 17.3504ZM6.64956 13.1452L5.94245 12.4381L6.64956 13.1452ZM17 9C17 9.55228 17.4477 10 18 10C18.5523 10 19 9.55228 19 9H17ZM19 3C19 2.44772 18.5523 2 18 2C17.4477 2 17 2.44772 17 3H19ZM21 7C21.5523 7 22 6.55228 22 6C22 5.44772 21.5523 5 21 5V7ZM15 5C14.4477 5 14 5.44772 14 6C14 6.55228 14.4477 7 15 7V5ZM6.64333 13.8523L10.1477 17.3567L11.562 15.9425L8.05755 12.4381L6.64333 13.8523ZM10.1477 16.6433L6.64333 20.1477L8.05755 21.562L11.562 18.0575L10.1477 16.6433ZM7.35667 20.1477L3.85226 16.6433L2.43805 18.0575L5.94245 21.562L7.35667 20.1477ZM3.85226 17.3567L7.35667 13.8523L5.94245 12.4381L2.43805 15.9425L3.85226 17.3567ZM3.85226 16.6433C4.04925 16.8403 4.04925 17.1597 3.85226 17.3567L2.43805 15.9425C1.85398 16.5265 1.85398 17.4735 2.43805 18.0575L3.85226 16.6433ZM6.64333 20.1477C6.84032 19.9508 7.15969 19.9508 7.35667 20.1477L5.94245 21.562C6.52652 22.146 7.47348 22.146 8.05755 21.562L6.64333 20.1477ZM10.1477 17.3567C9.95076 17.1597 9.95076 16.8403 10.1477 16.6433L11.562 18.0575C12.146 17.4735 12.146 16.5265 11.562 15.9425L10.1477 17.3567ZM8.05755 12.4381C7.47348 11.854 6.52652 11.854 5.94245 12.4381L7.35667 13.8523C7.15969 14.0492 6.84032 14.0492 6.64333 13.8523L8.05755 12.4381ZM19 9V6H17V9H19ZM19 6V3H17V6H19ZM18 7H21V5H18V7ZM15 7H18V5H15V7Z" fill="black"/>
<path d="M4 3.5C4 3.22386 4.22386 3 4.5 3H9.5C9.77614 3 10 3.22386 10 3.5V8.5C10 8.77614 9.77614 9 9.5 9H4.5C4.22386 9 4 8.77614 4 8.5V3.5Z" stroke="#667085" stroke-width="2" stroke-linecap="round"/>
<path d="M15 14.5C15 14.2239 15.2239 14 15.5 14H20.5C20.7761 14 21 14.2239 21 14.5V19.5C21 19.7761 20.7761 20 20.5 20H15.5C15.2239 20 15 19.7761 15 19.5V14.5Z" stroke="#667085" stroke-width="2" stroke-linecap="round"/>
</svg>
