<svg width="24" height="24" viewBox="0 0 24 24" fill="none" xmlns="http://www.w3.org/2000/svg">
<path d="M2 12C2 17.5228 6.47715 22 12 22C17.5228 22 22 17.5228 22 12C22 6.47715 17.5228 2 12 2C6.47715 2 2 6.47715 2 12Z" stroke="black" stroke-width="2"/>
<path d="M12.5733 7.38516C12.3597 6.87161 11.6323 6.87161 11.4187 7.38516L10.4315 9.75878C10.3421 9.97388 10.1405 10.1214 9.90837 10.1416L7.57197 10.3447C7.03584 10.3914 6.80515 11.0485 7.19449 11.4201L8.96921 13.1136C9.13014 13.2672 9.19736 13.4947 9.14575 13.7111L8.54472 16.2309C8.41567 16.772 9.00419 17.1996 9.47882 16.9096L11.6701 15.5711C11.8702 15.4489 12.1218 15.4489 12.3219 15.5711L14.5132 16.9096C14.9878 17.1996 15.5764 16.772 15.4473 16.2309L14.8465 13.7119C14.7948 13.4951 14.8624 13.2671 15.0239 13.1136L16.8046 11.4209C17.1952 11.0497 16.9647 10.3913 16.4279 10.3447L14.0838 10.1415C13.8516 10.1214 13.65 9.97383 13.5605 9.75868L12.5733 7.38516Z" stroke="#667085" stroke-width="2"/>
</svg>
