<svg width="24" height="24" viewBox="0 0 24 24" fill="none" xmlns="http://www.w3.org/2000/svg">
<path d="M7.88346 21.1164L11.9997 17.0002M5.44622 19.5537L11.9997 13.0002M3.58869 17.4112L11.9997 9.00019M2.35355 14.6463L11.9997 5.00019M2.05469 10.9452L10.9447 2.05518" stroke="#667085" stroke-width="2"/>
<path d="M12 22C17.5228 22 22 17.5228 22 12C22 6.47715 17.5228 2 12 2M12 22C10.5327 22 9.13912 21.684 7.88376 21.1162C6.99437 20.714 6.17433 20.1855 5.44652 19.5535C4.73092 18.9321 4.10449 18.2107 3.58899 17.411C3.04546 16.5679 2.62525 15.6378 2.35385 14.6462C2.12317 13.8033 2 12.916 2 12C2 11.6437 2.01864 11.2917 2.05499 10.945M12 22V17V13V9V5V2M2.05499 10.945C2.54571 6.26477 6.26477 2.54571 10.945 2.05499C11.2917 2.01864 11.6437 2 12 2M2.05499 10.945L2 11" stroke="black" stroke-width="2"/>
</svg>
