<svg width="24" height="24" viewBox="0 0 24 24" fill="none" xmlns="http://www.w3.org/2000/svg">
<path d="M12 16.6401V22" stroke="#667085" stroke-width="2" stroke-linecap="round" stroke-linejoin="round"/>
<path d="M16 22H12H8M16.999 8.09982C16.999 5.3384 14.7614 3 12 3C9.23858 3 7.00098 5.3384 7.00098 8.09982C4.71825 8.56271 3 10.5807 3 13C3 15.7614 5.23858 18 8 18C9.15714 18 10.2225 17.6069 11.0697 16.947C11.3324 16.7424 11.6662 16.6401 12 16.6401C12.3338 16.6401 12.6676 16.7424 12.9303 16.947C13.7775 17.6069 14.8429 18 16 18C18.7614 18 21 15.7614 21 13C21 10.5807 19.2818 8.56271 16.999 8.09982Z" stroke="black" stroke-width="2" stroke-linecap="round" stroke-linejoin="round"/>
</svg>
