<svg width="24" height="24" viewBox="0 0 24 24" fill="none" xmlns="http://www.w3.org/2000/svg">
<path d="M3.42048 7.26723C3.68696 6.82163 4.07049 6.44489 4.54307 6.18421L5.29307 5.77051M3.42048 7.26723C3.14992 7.71964 3 8.24303 3 8.78801V9.59095M3.42048 7.26723L5.56537 8.45037M20.5795 7.26721C20.313 6.82162 19.9295 6.44488 19.4569 6.18421L18.7069 5.77051M20.5795 7.26721C20.8501 7.71962 21 8.24303 21 8.78801V9.59095M20.5795 7.26721L18.4347 8.45036M12.0001 11.9998L14.1449 10.8167M12.0001 11.9998L9.85516 10.8167M12.0001 11.9998L12.0001 14.3748M12.0001 21.4998C12.502 21.4998 13.0039 21.3748 13.4569 21.1249L14.2069 20.7112M12.0001 21.4998C11.4981 21.4998 10.9961 21.3748 10.5431 21.1249L9.79307 20.7112M12.0001 21.4998L12.0001 19.1248" stroke="black" stroke-width="2" stroke-linecap="round" stroke-linejoin="round"/>
<path d="M14.2069 3.28854L13.4569 2.87484C13.0039 2.62495 12.5019 2.5 12 2.5C11.4981 2.5 10.9961 2.62495 10.5431 2.87484L9.79307 3.28854M3 14.4088V15.2118C3 15.6272 3.08714 16.0302 3.24844 16.3987C3.29872 16.5136 3.3562 16.6251 3.4205 16.7326C3.68698 17.1782 4.0705 17.5549 4.54307 17.8156L5.29307 18.2293M18.7069 18.2293L19.4569 17.8156C19.9295 17.5549 20.313 17.1782 20.5795 16.7326C20.6438 16.625 20.7013 16.5135 20.7516 16.3986C20.9129 16.0301 21 15.6272 21 15.2118V14.4088" stroke="#667085" stroke-width="2" stroke-linecap="round" stroke-linejoin="round"/>
</svg>
