<svg width="24" height="24" viewBox="0 0 24 24" fill="none" xmlns="http://www.w3.org/2000/svg">
<path d="M3.4209 7.2676L10.5435 11.1965C10.9966 11.4464 11.4985 11.5714 12.0005 11.5713M20.5799 7.26758L13.4573 11.1965C13.0043 11.4464 12.5024 11.5713 12.0005 11.5713M12.0005 11.5713V21.5001" stroke="#667085" stroke-width="2" stroke-linecap="round" stroke-linejoin="round"/>
<path d="M19.4569 6.18444L13.4569 2.87484C12.5509 2.37505 11.4491 2.37505 10.5431 2.87484L4.54307 6.18444C4.07049 6.44512 3.68696 6.82186 3.42048 7.26746C3.14992 7.71987 3 8.24327 3 8.78824V15.2118C3 16.2935 3.59068 17.2902 4.54307 17.8156L10.5431 21.1252C10.9961 21.3751 11.4981 21.5 12.0001 21.5C12.502 21.5 13.0039 21.375 13.4569 21.1252L19.4569 17.8156C20.4093 17.2902 21 16.2935 21 15.2118V8.78824C21 8.24326 20.8501 7.71986 20.5795 7.26744C20.313 6.82185 19.9295 6.44511 19.4569 6.18444Z" stroke="black" stroke-width="2" stroke-linecap="round" stroke-linejoin="round"/>
</svg>
