<svg width="24" height="24" viewBox="0 0 24 24" fill="none" xmlns="http://www.w3.org/2000/svg">
<path d="M9.36189 19.6385L12.0978 16.9026M7.36189 17.6385L12.0729 12.9276M5.36189 15.6385L12.0479 8.95254M3.42969 13.5707L12.0229 4.97754" stroke="#667085" stroke-width="2"/>
<path d="M12.01 3.00002C12.7957 3.00256 13.5806 3.30358 14.1801 3.90304L20.097 9.81992C21.301 11.024 21.301 12.9761 20.097 14.1801L14.1801 20.097C13.6094 20.6677 12.8706 20.9679 12.1231 20.9976M12.01 3.00002C11.2177 2.99745 10.4245 3.29847 9.81991 3.90304L3.90303 9.81992C2.88594 10.837 2.72802 12.3879 3.42926 13.5708C3.55815 13.7882 3.71607 13.9932 3.90302 14.1801L5.36146 15.6385L7.36146 17.6385L9.36146 19.6385L9.8199 20.097C10.4532 20.7303 11.2936 21.0305 12.1231 20.9976M12.01 3.00002L12.0225 4.97756L12.0474 8.95256L12.0724 12.9276L12.0974 16.9026L12.1231 20.9976" stroke="black" stroke-width="2"/>
</svg>
