<svg width="24" height="24" viewBox="0 0 24 24" fill="none" xmlns="http://www.w3.org/2000/svg">
<path d="M9.60933 4.39111L3.24512 10.7553M8.66367 17.3368L12.0002 14.0002M6.73485 15.2656L12.0002 10.0002M4.80602 13.1944L12.0002 6.0002" stroke="#667085" stroke-width="2" stroke-linejoin="round"/>
<path d="M12 5.87848C12.0431 5.87848 12.0861 5.87599 12.129 5.87102C12.3903 5.84071 12.6442 5.71799 12.8445 5.50284C14.7102 3.49947 17.7351 3.49884 19.6007 5.50222C21.4664 7.50559 21.4664 10.7543 19.6007 12.7577L13.4472 19.3654C13.0532 19.7885 12.5266 20 12 20M12 5.87848C11.6943 5.87848 11.3887 5.75327 11.1555 5.50284C10.6983 5.01188 10.1714 4.64124 9.60909 4.39091C7.87682 3.61979 5.80772 3.99043 4.39926 5.50284C3.07619 6.92357 2.69139 8.97028 3.24487 10.7551C3.47186 11.4871 3.85665 12.175 4.39926 12.7577L4.80578 13.1942L6.7346 15.2654L8.66342 17.3366L10.5528 19.3654C10.9468 19.7885 11.4734 20 12 20M12 5.87848V6V10V14V20" stroke="black" stroke-width="2" stroke-linejoin="round"/>
</svg>
