<svg width="24" height="24" viewBox="0 0 24 24" fill="none" xmlns="http://www.w3.org/2000/svg">
<path d="M12 22C11.4019 22 10.8038 21.843 10.2679 21.5291L4.73205 18.2864C3.66025 17.6586 3 16.4984 3 15.2427V8.75728C3 7.50165 3.66025 6.3414 4.73205 5.71358L10.2679 2.47086C10.8038 2.15695 11.4019 2 12 2" stroke="black" stroke-width="2"/>
<path d="M12 22C12.5981 22 13.1962 21.843 13.7321 21.5291L19.268 18.2864C20.3397 17.6586 21 16.4984 21 15.2427V8.75728C21 7.50165 20.3397 6.3414 19.268 5.71358L13.7321 2.47086C13.1962 2.15695 12.5981 2 12 2" stroke="#667085" stroke-width="2"/>
</svg>
