<svg width="24" height="24" viewBox="0 0 24 24" fill="none" xmlns="http://www.w3.org/2000/svg">
<path d="M19 13.3613H16C14.8954 13.3613 14 14.2745 14 15.4009V18.4604C14 19.5868 14.8954 20.5 16 20.5H19C20.1046 20.5 21 19.5868 21 18.4604V15.4009C21 14.2745 20.1046 13.3613 19 13.3613Z" stroke="black" stroke-width="2" stroke-linejoin="round"/>
<path d="M6.5 20.5C8.433 20.5 10 18.9019 10 16.9307C10 14.9594 8.433 13.3613 6.5 13.3613C4.567 13.3613 3 14.9594 3 16.9307C3 18.9019 4.567 20.5 6.5 20.5Z" stroke="black" stroke-width="2" stroke-linejoin="round"/>
<path d="M8.4345 7.96146L10.7281 4.21897C11.3156 3.26034 12.6846 3.26034 13.2721 4.21897L15.5658 7.96146C16.1902 8.98033 15.4719 10.3019 14.2938 10.3019H9.7065C8.52835 10.3019 7.81008 8.98033 8.4345 7.96146Z" stroke="#667085" stroke-width="2" stroke-linejoin="round"/>
</svg>
