<svg width="24" height="24" viewBox="0 0 24 24" fill="none" xmlns="http://www.w3.org/2000/svg">
<path d="M12.0039 3.00002C11.8126 2.99855 11.6206 3.10414 11.5388 3.31675L9.33374 9.04995C9.28355 9.18045 9.18043 9.28357 9.04994 9.33376L3.31674 11.5388C2.89442 11.7013 2.89442 12.2988 3.31674 12.4612L9.04994 14.6663C9.18043 14.7165 9.28355 14.8196 9.33374 14.9501L11.5388 20.6833C11.62 20.8944 11.81 21 12 21" stroke="black" stroke-width="2" stroke-linejoin="round"/>
<path d="M12.0039 3C12.1926 3.00145 12.3805 3.10704 12.4612 3.31674L14.6663 9.04994C14.7164 9.18043 14.8196 9.28355 14.9501 9.33374L20.6833 11.5388C21.1056 11.7012 21.1056 12.2988 20.6833 12.4612L14.9501 14.6663C14.8196 14.7164 14.7164 14.8196 14.6663 14.9501L12.4612 20.6833C12.38 20.8944 12.19 21 12 21" stroke="#667085" stroke-width="2" stroke-linejoin="round"/>
</svg>
