<svg width="24" height="24" viewBox="0 0 24 24" fill="none" xmlns="http://www.w3.org/2000/svg">
<path d="M5.5 3V5.5M5.5 8V5.5M5.5 5.5H8M5.5 5.5H3M13 5C12.8311 5 12.6623 5.09385 12.5901 5.28155L10.63 10.3777C10.5854 10.4937 10.4937 10.5854 10.3777 10.63L5.28155 12.5901C4.90615 12.7344 4.90615 13.2656 5.28155 13.4099L10.3777 15.37C10.4937 15.4146 10.5854 15.5063 10.63 15.6223L12.5901 20.7185C12.6623 20.9063 12.8314 21.0002 13.0005 21" stroke="black" stroke-width="2" stroke-linecap="round" stroke-linejoin="round"/>
<path d="M13 5C13.1689 5 13.3377 5.09385 13.4099 5.28155L15.37 10.3777C15.4146 10.4937 15.5063 10.5854 15.6223 10.63L20.7185 12.5901C21.0938 12.7344 21.0938 13.2656 20.7185 13.4099L15.6223 15.37C15.5063 15.4146 15.4146 15.5063 15.37 15.6223L13.4099 20.7185C13.3378 20.906 13.1692 20.9998 13.0005 21" stroke="#667085" stroke-width="2" stroke-linejoin="round"/>
</svg>
