<svg width="24" height="24" viewBox="0 0 24 24" fill="none" xmlns="http://www.w3.org/2000/svg">
<path d="M12 18.0029C11.763 18.0029 11.526 18.0675 11.3172 18.1967L7.91525 20.3021C6.93495 20.9088 5.7048 20.0277 5.98719 18.9212L6.96719 15.0811C7.08744 14.6099 6.92347 14.1125 6.54522 13.8009L3.46268 11.2621C2.57443 10.5305 3.04431 9.10495 4.19913 9.02776L8.20679 8.75988C8.69856 8.72701 9.12784 8.41956 9.31152 7.96866L10.8084 4.29416C11.0256 3.76107 11.5188 3.49634 12.0102 3.50004" stroke="black" stroke-width="2" stroke-linejoin="round"/>
<path d="M12 18.0029C12.237 18.0029 12.474 18.0675 12.6828 18.1966L16.0847 20.3021C17.065 20.9087 18.2952 20.0277 18.0128 18.9212L17.0328 15.0811C16.9126 14.6099 17.0765 14.1124 17.4548 13.8009L20.5373 11.262C21.4256 10.5305 20.9557 9.10491 19.8009 9.02772L15.7932 8.75985C15.3014 8.72697 14.8722 8.41952 14.6885 7.96863L13.1916 4.29412C12.9774 3.76838 12.4947 3.50365 12.0102 3.5" stroke="#667085" stroke-width="2" stroke-linejoin="round"/>
</svg>
