<svg width="24" height="24" viewBox="0 0 24 24" fill="none" xmlns="http://www.w3.org/2000/svg">
<path d="M11.9928 2C11.6131 2.00231 11.2344 2.18742 11.0173 2.55529L9.05061 5.88834C8.84789 6.23189 8.47343 6.44354 8.06816 6.44363L4.13631 6.44449C3.26291 6.44468 2.71708 7.37022 3.15361 8.1108L5.11877 11.4447C5.32132 11.7883 5.32132 12.2117 5.11876 12.5553L3.15361 15.8892C2.71708 16.6298 3.26291 17.5553 4.13632 17.5555L8.06816 17.5564C8.47343 17.5565 8.84789 17.7681 9.05061 18.1117L11.0173 21.4447C11.2354 21.8143 11.6167 21.9994 11.9982 22" stroke="black" stroke-width="2"/>
<path d="M11.9932 2.00002C12.3777 1.99768 12.7633 2.18279 12.9831 2.55531L14.9498 5.88836C15.1525 6.23191 15.5269 6.44356 15.9322 6.44365L19.8641 6.44451C20.7375 6.44471 21.2833 7.37024 20.8468 8.11082L18.8816 11.4447C18.679 11.7884 18.679 12.2117 18.8816 12.5553L20.8468 15.8892C21.2833 16.6298 20.7375 17.5553 19.8641 17.5555L15.9322 17.5564C15.5269 17.5565 15.1525 17.7681 14.9498 18.1117L12.9831 21.4447C12.7643 21.8155 12.3813 22.0006 11.9986 22" stroke="#667085" stroke-width="2"/>
</svg>
