<svg width="24" height="24" viewBox="0 0 24 24" fill="none" xmlns="http://www.w3.org/2000/svg">
<path d="M7 3H6C4.34315 3 3 4.34315 3 6V18C3 19.6569 4.34315 21 6 21H7M7 3V7C7 7.55228 7.44772 8 8 8H13C13.5523 8 14 7.55228 14 7V3M7 3H14M14 3H14.7574C15.553 3 16.3161 3.31607 16.8787 3.87868L20.1213 7.12132C20.6839 7.68393 21 8.44699 21 9.24264V18C21 19.6569 19.6569 21 18 21H11M15 14.5C15 16.1569 13.6569 17.5 12 17.5C10.3431 17.5 9 16.1569 9 14.5C9 12.8431 10.3431 11.5 12 11.5C12.3506 11.5 12.6872 11.5602 13 11.6707" stroke="black" stroke-width="2" stroke-linecap="round" stroke-linejoin="round"/>
</svg>
