<svg width="24" height="24" viewBox="0 0 24 24" fill="none" xmlns="http://www.w3.org/2000/svg">
<path d="M19.8498 10C19.9482 10.2393 20 10.4974 20 10.7604V19C20 20.6569 18.6569 22 17 22H7C5.34315 22 4 20.6569 4 19V18M19.8498 10C19.765 9.79361 19.6455 9.6012 19.4948 9.43167L13.5967 2.67127C13.4267 2.48002 13.2237 2.32541 13 2.213C12.7243 2.07446 12.4173 2 12.1019 2H7C5.34315 2 4 3.34315 4 5V14M19.8498 10H16C14.3431 10 13 8.65685 13 7V6.5M13.2678 16.7678C14.2441 15.7915 14.2441 14.2085 13.2678 13.2322C12.2915 12.2559 10.7085 12.2559 9.73223 13.2322C8.75592 14.2085 8.75592 15.7915 9.73223 16.7678C10.7085 17.7441 12.2915 17.7441 13.2678 16.7678ZM13.2678 16.7678L15 18.5" stroke="black" stroke-width="2" stroke-linecap="round" stroke-linejoin="round"/>
</svg>
