<svg width="24" height="24" viewBox="0 0 24 24" fill="none" xmlns="http://www.w3.org/2000/svg">
<path d="M19.8498 11C19.9482 11.2393 20 11.4974 20 11.7604V19C20 20.6569 18.6569 22 17 22H7C5.34315 22 4 20.6569 4 19V18M19.8498 11C19.765 10.7936 19.6455 10.6012 19.4948 10.4317L12.5967 2.67127C12.4267 2.48002 12.2237 2.32541 12 2.213C11.7243 2.07446 11.4173 2 11.1019 2H7C5.34315 2 4 3.34315 4 5V14M19.8498 11H15C13.3431 11 12 9.65685 12 8V7.5M10 14L8 16L10 18M14 14L16 16L14 18" stroke="black" stroke-width="2" stroke-linecap="round" stroke-linejoin="round"/>
</svg>
