<svg width="24" height="24" viewBox="0 0 24 24" fill="none" xmlns="http://www.w3.org/2000/svg">
<path fill-rule="evenodd" clip-rule="evenodd" d="M5 5C5 3.89543 5.89543 3 7 3V3.5C7 3.77614 7.22386 4 7.5 4H8.5C8.77614 4 9 3.77614 9 3.5V3H12.1019C12.2596 3 12.413 3.03719 12.551 3.10651C12.6617 3.16217 12.7622 3.23844 12.8467 3.33278L17.7911 9H16C14.8954 9 14 8.10457 14 7V6.5C14 5.94772 13.5523 5.5 13 5.5C12.4477 5.5 12 5.94772 12 6.5V7C12 9.20914 13.7909 11 16 11H19V19C19 20.1046 18.1046 21 17 21H7C5.89543 21 5 20.1046 5 19V18C5 17.4477 4.55228 17 4 17C3.44772 17 3 17.4477 3 18V19C3 21.2091 4.79086 23 7 23H17C19.2091 23 21 21.2091 21 19V10.7604C21 10.3659 20.9223 9.97872 20.7747 9.61981C20.6481 9.31183 20.4701 9.02455 20.2457 8.77122L14.3502 2.01386L14.3502 2.01383L14.3441 2.00691C14.0891 1.72005 13.7845 1.4881 13.449 1.31949C13.0356 1.11172 12.575 1 12.1019 1H7C4.79086 1 3 2.79086 3 5V14C3 14.5523 3.44772 15 4 15C4.55228 15 5 14.5523 5 14V5ZM7 5.5C7 5.22386 7.22386 5 7.5 5H8.5C8.77614 5 9 5.22386 9 5.5V6.5C9 6.77614 8.77614 7 8.5 7H7.5C7.22386 7 7 6.77614 7 6.5V5.5ZM7 8.5C7 8.22386 7.22386 8 7.5 8H8.5C8.77614 8 9 8.22386 9 8.5V9.5C9 9.77614 8.77614 10 8.5 10H7.5C7.22386 10 7 9.77614 7 9.5V8.5ZM8 17C9.10457 17 10 16.1046 10 15C10 14.436 9.87206 13.749 9.65324 13.1951C9.61165 13.0898 9.56681 12.9807 9.52082 12.8687C9.34223 12.4339 9.14613 11.9565 9.05377 11.4962C8.99944 11.2255 8.77614 11 8.5 11H7.5C7.22386 11 7.00056 11.2255 6.94623 11.4962C6.85387 11.9565 6.65775 12.434 6.47916 12.8687C6.43317 12.9807 6.38835 13.0898 6.34676 13.1951C6.12794 13.749 6 14.436 6 15C6 16.1046 6.89543 17 8 17ZM8.75 15C8.75 15.4142 8.41421 15.75 8 15.75C7.58579 15.75 7.25 15.4142 7.25 15C7.25 14.5858 7.58579 14.25 8 14.25C8.41421 14.25 8.75 14.5858 8.75 15Z" fill="black"/>
</svg>
