<svg width="24" height="24" viewBox="0 0 24 24" fill="none" xmlns="http://www.w3.org/2000/svg">
<path d="M2 16V17C2 18.6569 3.34315 20 5 20H13M2 12V7C2 5.34315 3.34315 4 5 4H9.39445C10.3975 4 11.3342 4.5013 11.8906 5.3359L12.1094 5.6641C12.6658 6.4987 13.6025 7 14.6056 7H19C20.6569 7 22 8.34315 22 10V17C22 18.6569 20.6569 20 19 20H17M12.5 11.5933C11.9002 10.944 10.9 10.7693 10.1485 11.3639C9.39695 11.9584 9.29115 12.9525 9.88131 13.6557C10.4715 14.3588 12.5 16 12.5 16C12.5 16 14.5285 14.3588 15.1187 13.6557C15.7089 12.9525 15.616 11.9522 14.8515 11.3639C14.0871 10.7756 13.0998 10.944 12.5 11.5933Z" stroke="black" stroke-width="2" stroke-linecap="round" stroke-linejoin="round"/>
</svg>
