<svg width="24" height="24" viewBox="0 0 24 24" fill="none" xmlns="http://www.w3.org/2000/svg">
<path d="M18.8079 13L18.5184 11.6078C18.3239 10.6729 17.4702 10 16.4787 10H4.92359H4.08076C2.76815 10 1.78368 11.1546 2.0411 12.3922L3.28913 18.3922C3.48358 19.3271 4.33727 20 5.32879 20H5.9798H17.7267H18.4795C19.5061 20 20.3792 19.2798 20.5353 18.3041L21.9754 9.30411C22.1692 8.0926 21.1943 7 19.9195 7H15.137C14.4416 7 13.7921 6.6658 13.4063 6.1094L12.5613 4.8906C12.1755 4.3342 11.526 4 10.8306 4H7.53984C6.49082 4 5.60597 4.75107 5.47585 5.75193L5.4436 6" stroke="black" stroke-width="2" stroke-linecap="round" stroke-linejoin="round"/>
</svg>
