<svg width="24" height="24" viewBox="0 0 24 24" fill="none" xmlns="http://www.w3.org/2000/svg">
<path fill-rule="evenodd" clip-rule="evenodd" d="M3 7C3 5.89543 3.89543 5 5 5H9.39445C10.0632 5 10.6876 5.3342 11.0585 5.8906L11.2774 6.2188C12.0192 7.3316 13.2681 8 14.6056 8H19C20.1046 8 21 8.89543 21 10V17C21 18.1046 20.1046 19 19 19H17C16.4477 19 16 19.4477 16 20C16 20.5523 16.4477 21 17 21H19C21.2091 21 23 19.2091 23 17V10C23 7.79086 21.2091 6 19 6H14.6056C13.9368 6 13.3124 5.6658 12.9415 5.1094L12.7226 4.7812C11.9808 3.6684 10.7319 3 9.39445 3H5C2.79086 3 1 4.79086 1 7V12C1 12.5523 1.44772 13 2 13C2.55228 13 3 12.5523 3 12V7ZM3 16C3 15.4477 2.55228 15 2 15C1.44772 15 1 15.4477 1 16V17C1 19.2091 2.79086 21 5 21H13C13.5523 21 14 20.5523 14 20C14 19.4477 13.5523 19 13 19H5C3.89543 19 3 18.1046 3 17V16ZM9.75 11C10.4404 11 11 10.4404 11 9.75C11 9.05964 10.4404 8.5 9.75 8.5C9.05964 8.5 8.5 9.05964 8.5 9.75C8.5 10.4404 9.05964 11 9.75 11ZM5.76041 17H18.2395C18.6427 17 18.8863 16.548 18.6682 16.2042L15.818 11.7116C15.2302 10.7849 13.9026 10.7584 13.2792 11.6609L11.1688 14.7159C11.0924 14.8264 10.9337 14.8343 10.847 14.7318L9.4021 13.0237C8.7056 12.2003 7.41128 12.338 6.8988 13.2901L5.31295 16.2362C5.1277 16.5804 5.37352 17 5.76041 17Z" fill="black"/>
</svg>
