<svg width="24" height="24" viewBox="0 0 24 24" fill="none" xmlns="http://www.w3.org/2000/svg">
<path d="M16 21H7C5.34315 21 4 19.6569 4 18V9M2 2L4.43813 4.43813M22 22L19.5619 19.5619M19.5619 19.5619C19.8398 19.1069 20 18.5722 20 18V12.7604C20 12.4974 19.9482 12.2393 19.8498 12C19.765 11.7936 19.6455 11.6012 19.4948 11.4317L18.2222 10M19.5619 19.5619L4.43813 4.43813M4.43813 4.43813C4.96507 3.57566 5.91531 3 7 3H11.1019C11.4173 3 11.7243 3.07446 12 3.213C12.2237 3.32541 12.4267 3.48002 12.5967 3.67127L15.5556 7" stroke="black" stroke-width="2" stroke-linecap="round"/>
</svg>
