<svg width="24" height="24" viewBox="0 0 24 24" fill="none" xmlns="http://www.w3.org/2000/svg">
<path fill-rule="evenodd" clip-rule="evenodd" d="M8 2C7.06808 2 6.28503 2.63739 6.06301 3.5H5C3.34315 3.5 2 4.84315 2 6.5V7C2 7.55228 2.44772 8 3 8C3.55228 8 4 7.55228 4 7V6.5C4 5.94772 4.44772 5.5 5 5.5C5 6.05228 5.44772 6.5 6 6.5H10C10.5523 6.5 11 6.05228 11 5.5C11.0879 5.5 11.1717 5.5111 11.2507 5.53145C11.7856 5.66911 12.3308 5.34712 12.4684 4.81227C12.6061 4.27741 12.2841 3.73223 11.7493 3.59457C11.5087 3.53266 11.2574 3.5 11 3.5H9.93699C9.71497 2.63739 8.93192 2 8 2ZM3 10C3.55228 10 4 10.4477 4 11V16.5C4 17.0523 4.44772 17.5 5 17.5H7C7.55228 17.5 8 17.9477 8 18.5C8 19.0523 7.55228 19.5 7 19.5H5C3.34315 19.5 2 18.1569 2 16.5V11C2 10.4477 2.44772 10 3 10ZM8 4.75C8.41421 4.75 8.75 4.41421 8.75 4C8.75 3.58579 8.41421 3.25 8 3.25C7.58579 3.25 7.25 3.58579 7.25 4C7.25 4.41421 7.58579 4.75 8 4.75Z" fill="black"/>
<path fill-rule="evenodd" clip-rule="evenodd" d="M12 10C12 9.44772 12.4477 9 13 9H17V11C17 11.5523 17.4477 12 18 12H20V19C20 19.5523 19.5523 20 19 20H13C12.4477 20 12 19.5523 12 19V10ZM13 7C11.3431 7 10 8.34315 10 10V19C10 20.6569 11.3431 22 13 22H19C20.6569 22 22 20.6569 22 19V11.3284C22 10.5328 21.6839 9.76972 21.1213 9.20711L19.7929 7.87868C19.2303 7.31607 18.4672 7 17.6716 7H13Z" fill="black"/>
</svg>
