<svg width="24" height="24" viewBox="0 0 24 24" fill="none" xmlns="http://www.w3.org/2000/svg">
<path fill-rule="evenodd" clip-rule="evenodd" d="M12.0001 7C13.657 7 15.0001 5.65685 15.0001 4C15.0001 2.34315 13.657 1 12.0001 1C10.3432 1 9.0001 2.34315 9.0001 4C9.0001 5.65685 10.3432 7 12.0001 7ZM10.7322 10.5468C11.0466 10.2089 11.5017 10 12.0001 10C12.7754 10 13.4374 10.5025 13.6416 11.2029L14.7475 14.9959L14.7451 14.9974C14.7441 14.9979 14.7428 14.9984 14.7408 14.9989C14.739 14.9993 14.7353 15 14.729 15H13.5308H10.4694H9.27116C9.26489 15 9.26118 14.9993 9.25937 14.9989C9.25745 14.9984 9.25614 14.9979 9.25513 14.9974L9.25272 14.9959L9.60725 13.7799C9.76183 13.2497 9.45733 12.6946 8.92712 12.54C8.39691 12.3854 7.84178 12.6899 7.68719 13.2201L7.32996 14.4454C6.94941 15.7506 7.95438 17 9.27116 17H9.46944V22C9.46944 22.5523 9.91715 23 10.4694 23C11.0217 23 11.4694 22.5523 11.4694 22V17H12.5308V22C12.5308 22.5523 12.9785 23 13.5308 23C14.083 23 14.5308 22.5523 14.5308 22V17H14.729C16.0458 17 17.0508 15.7506 16.6702 14.4454L15.5617 10.6431C15.1022 9.067 13.6409 8 12.0001 8C10.9384 8 9.95541 8.4456 9.26801 9.18435C8.89179 9.58867 8.91457 10.2214 9.31889 10.5976C9.72322 10.9739 10.356 10.9511 10.7322 10.5468Z" fill="black"/>
</svg>
