<svg width="24" height="24" viewBox="0 0 24 24" fill="none" xmlns="http://www.w3.org/2000/svg">
<path fill-rule="evenodd" clip-rule="evenodd" d="M8.49971 6.5C9.74235 6.5 10.7497 5.49264 10.7497 4.25C10.7497 3.00736 9.74235 2 8.49971 2C7.25707 2 6.24971 3.00736 6.24971 4.25C6.24971 5.49264 7.25707 6.5 8.49971 6.5ZM10.0237 7.94403C9.87201 7.413 9.31853 7.1055 8.78749 7.25723C8.25645 7.40895 7.94896 7.96243 8.10069 8.49347L9.03819 11.7747L9.62374 13.8242C9.99171 15.1121 11.1689 16 12.5083 16H15.7636C16.1424 16 16.4887 16.214 16.6581 16.5528L17.7465 18.7298C18.1658 19.5682 19.1111 20.003 20.0205 19.7756L21.2422 19.4702C21.778 19.3362 22.1038 18.7933 21.9699 18.2575C21.8359 17.7217 21.293 17.3959 20.7572 17.5299L19.5354 17.8353L18.4469 15.6584C17.9387 14.642 16.9 14 15.7636 14H12.5083C12.0618 14 11.6694 13.704 11.5468 13.2747L11.3254 12.5H13.9997C14.552 12.5 14.9997 12.0523 14.9997 11.5C14.9997 10.9477 14.552 10.5 13.9997 10.5H10.754L10.0237 7.94403ZM7.19864 12.0796C7.73989 11.9698 8.08959 11.4419 7.97972 10.9007C7.86986 10.3595 7.34202 10.0098 6.80078 10.1196C5.33366 10.4174 4.06349 11.2489 3.19943 12.3995C2.86778 12.8411 2.95693 13.468 3.39855 13.7996C3.84017 14.1313 4.46703 14.0421 4.79868 13.6005C5.37709 12.8303 6.22493 12.2773 7.19864 12.0796ZM4.0798 16.801C3.96989 16.2598 3.44203 15.9101 2.9008 16.02C2.35956 16.1299 2.0099 16.6578 2.11981 17.199C2.67599 19.9379 5.09596 21.9996 7.99971 21.9996C10.4616 21.9996 12.5751 20.517 13.5 18.4C13.7211 17.8939 13.4901 17.3044 12.984 17.0833C12.4779 16.8621 11.8884 17.0932 11.6673 17.5992C11.0492 19.0141 9.63841 19.9996 7.99971 19.9996C6.06582 19.9996 4.45045 18.6262 4.0798 16.801Z" fill="black"/>
</svg>
