<svg width="24" height="24" viewBox="0 0 24 24" fill="none" xmlns="http://www.w3.org/2000/svg">
<path fill-rule="evenodd" clip-rule="evenodd" d="M18 7C19.6569 7 21 5.65685 21 4C21 2.34315 19.6569 1 18 1C16.3431 1 15 2.34315 15 4C15 5.65685 16.3431 7 18 7ZM16.6669 10.509C17.0214 10.1917 17.4871 10 18 10C19.1046 10 20 10.8954 20 12V15H19.5H16.5H16V13.5C16 12.9477 15.5523 12.5 15 12.5C14.4477 12.5 14 12.9477 14 13.5V15C14 15.9319 14.6374 16.715 15.5 16.937V22C15.5 22.5523 15.9477 23 16.5 23C17.0523 23 17.5 22.5523 17.5 22V17H18.5V22C18.5 22.5523 18.9477 23 19.5 23C20.0523 23 20.5 22.5523 20.5 22V16.937C21.3626 16.715 22 15.9319 22 15V12C22 9.79086 20.2091 8 18 8C16.9762 8 16.0401 8.38597 15.3331 9.01876C14.9216 9.38708 14.8865 10.0193 15.2549 10.4308C15.6232 10.8423 16.2554 10.8774 16.6669 10.509Z" fill="black"/>
<path fill-rule="evenodd" clip-rule="evenodd" d="M6.75157 7C8.40842 7 9.75157 5.65685 9.75157 4C9.75157 2.34315 8.40842 1 6.75157 1C5.09471 1 3.75157 2.34315 3.75157 4C3.75157 5.65685 5.09471 7 6.75157 7ZM5.48366 10.5468C5.79808 10.2088 6.25314 10 6.75157 10C7.52684 10 8.18889 10.5025 8.3931 11.2029L9.49895 14.9959L9.49654 14.9974C9.49602 14.9976 9.49542 14.9979 9.49471 14.9982C9.49403 14.9984 9.49323 14.9986 9.4923 14.9989C9.49049 14.9993 9.48678 15 9.4805 15H8.28223H5.2209H4.02263C4.01636 15 4.01264 14.9993 4.01083 14.9989C4.00892 14.9984 4.00761 14.9979 4.0066 14.9974L4.00419 14.9959L4.35872 13.7799C4.5133 13.2497 4.2088 12.6946 3.67859 12.54C3.14838 12.3854 2.59324 12.6899 2.43866 13.2201L2.08142 14.4454C1.70087 15.7506 2.70584 17 4.02263 17H4.2209V22C4.2209 22.5523 4.66862 23 5.2209 23C5.77319 23 6.2209 22.5523 6.2209 22V17H7.28223V22C7.28223 22.5523 7.72995 23 8.28223 23C8.83451 23 9.28223 22.5523 9.28223 22V17H9.4805C10.7973 17 11.8023 15.7506 11.4217 14.4454L10.3132 10.6431C9.85362 9.067 8.39234 8 6.75157 8C5.68988 8 4.70688 8.4456 4.01948 9.18435C3.64326 9.58867 3.66604 10.2214 4.07036 10.5976C4.47468 10.9739 5.10744 10.9511 5.48366 10.5468Z" fill="black"/>
</svg>
