<svg width="24" height="24" viewBox="0 0 24 24" fill="none" xmlns="http://www.w3.org/2000/svg">
<path d="M3 17.5V20C3 20.5523 3.44772 21 4 21H11C11.5523 21 12 20.5523 12 20V17.5C12 15.0147 9.98528 13 7.5 13C6.57493 13 5.71505 13.2791 5 13.7578M15 19.5V20.1667C15 20.6269 15.3731 21 15.8333 21H20.1667C20.6269 21 21 20.6269 21 20.1667V19C21 17.3431 19.6569 16 18 16C17.6494 16 17.3128 16.0602 17 16.1707M11 6.5C11 8.433 9.433 10 7.5 10C5.567 10 4 8.433 4 6.5C4 4.567 5.567 3 7.5 3C9.433 3 11 4.567 11 6.5ZM20.5 10.5C20.5 11.8807 19.3807 13 18 13C16.6193 13 15.5 11.8807 15.5 10.5C15.5 9.11929 16.6193 8 18 8C19.3807 8 20.5 9.11929 20.5 10.5Z" stroke="black" stroke-width="2" stroke-linecap="round"/>
</svg>
