<svg width="24" height="24" viewBox="0 0 24 24" fill="none" xmlns="http://www.w3.org/2000/svg">
<path d="M3 19.5V20.1667C3 20.6269 3.3731 21 3.83333 21H8.16667C8.6269 21 9 20.6269 9 20.1667V19C9 17.3431 7.65685 16 6 16C5.64936 16 5.31278 16.0602 5 16.1707M12 17.5V20C12 20.5523 12.4477 21 13 21H20C20.5523 21 21 20.5523 21 20V17.5C21 15.0147 18.9853 13 16.5 13C15.5749 13 14.715 13.2791 14 13.7578M8.5 10.5C8.5 11.8807 7.38071 13 6 13C4.61929 13 3.5 11.8807 3.5 10.5C3.5 9.11929 4.61929 8 6 8C7.38071 8 8.5 9.11929 8.5 10.5ZM20 6.5C20 8.433 18.433 10 16.5 10C14.567 10 13 8.433 13 6.5C13 4.567 14.567 3 16.5 3C18.433 3 20 4.567 20 6.5Z" stroke="black" stroke-width="2" stroke-linecap="round"/>
</svg>
