<svg width="24" height="24" viewBox="0 0 24 24" fill="none" xmlns="http://www.w3.org/2000/svg">
<path fill-rule="evenodd" clip-rule="evenodd" d="M17.2516 7C18.9084 7 20.2516 5.65685 20.2516 4C20.2516 2.34315 18.9084 1 17.2516 1C15.5947 1 14.2516 2.34315 14.2516 4C14.2516 5.65685 15.5947 7 17.2516 7ZM15.9837 10.5468C16.2981 10.2089 16.7531 10 17.2516 10C18.0268 10 18.6889 10.5025 18.8931 11.2029L19.9989 14.9959L19.9965 14.9974C19.996 14.9976 19.9954 14.9979 19.9947 14.9982C19.994 14.9984 19.9932 14.9986 19.9923 14.9989C19.9905 14.9993 19.9868 15 19.9805 15H18.7822H15.7209H14.5226C14.5164 15 14.5126 14.9993 14.5108 14.9989C14.5089 14.9984 14.5076 14.9979 14.5066 14.9974L14.5042 14.9959L14.8587 13.7799C15.0133 13.2497 14.7088 12.6946 14.1786 12.54C13.6484 12.3854 13.0932 12.6899 12.9387 13.2201L12.5817 14.4446L12.5814 14.4454C12.2009 15.7506 13.2058 17 14.5226 17H14.7209V22C14.7209 22.5523 15.1686 23 15.7209 23C16.2732 23 16.7209 22.5523 16.7209 22V17H17.7822V22C17.7822 22.5523 18.2299 23 18.7822 23C19.3345 23 19.7822 22.5523 19.7822 22V17H19.9805C21.2973 17 22.3023 15.7506 21.9217 14.4454L20.8132 10.6431C20.3536 9.067 18.8923 8 17.2516 8C16.1899 8 15.2069 8.4456 14.5195 9.18435C14.1433 9.58867 14.166 10.2214 14.5704 10.5976C14.9747 10.9739 15.6074 10.9511 15.9837 10.5468Z" fill="black"/>
<path fill-rule="evenodd" clip-rule="evenodd" d="M6 7C7.65685 7 9 5.65685 9 4C9 2.34315 7.65685 1 6 1C4.34315 1 3 2.34315 3 4C3 5.65685 4.34315 7 6 7ZM4.66691 10.509C5.02142 10.1917 5.48712 10 6 10C7.10457 10 8 10.8954 8 12V15H7.5H4.5H4V13.5C4 12.9477 3.55228 12.5 3 12.5C2.44772 12.5 2 12.9477 2 13.5V15C2 15.9319 2.63739 16.715 3.5 16.937V22C3.5 22.5523 3.94772 23 4.5 23C5.05228 23 5.5 22.5523 5.5 22V17H6.5V22C6.5 22.5523 6.94772 23 7.5 23C8.05228 23 8.5 22.5523 8.5 22V16.937C9.36261 16.715 10 15.9319 10 15V12C10 9.79086 8.20914 8 6 8C4.97617 8 4.0401 8.38597 3.33309 9.01876C2.92156 9.38708 2.88654 10.0193 3.25487 10.4308C3.62319 10.8423 4.25539 10.8774 4.66691 10.509Z" fill="black"/>
</svg>
