<svg width="24" height="24" viewBox="0 0 24 24" fill="none" xmlns="http://www.w3.org/2000/svg">
<path fill-rule="evenodd" clip-rule="evenodd" d="M8 7C8 5.34315 9.34315 4 11 4C11.5523 4 12 3.55228 12 3C12 2.44772 11.5523 2 11 2C8.23858 2 6 4.23858 6 7C6 9.76142 8.23858 12 11 12C13.7614 12 16 9.76142 16 7C16 6.09094 15.7565 5.23573 15.3305 4.49927C15.0539 4.02121 14.4422 3.85785 13.9641 4.13439C13.4861 4.41094 13.3227 5.02267 13.5993 5.50073C13.8539 5.94097 14 6.45191 14 7C14 8.65685 12.6569 10 11 10C9.34315 10 8 8.65685 8 7ZM7 13C6.44772 13 6 13.4477 6 14C6 14.5523 6.44772 15 7 15H12.5997C13.0086 14.2002 13.6075 13.5137 14.3369 13H7ZM12.5997 20C12.2881 19.3904 12.0868 18.7149 12.0224 18H4C4 17.4519 4.14607 16.941 4.40073 16.5007C4.67728 16.0227 4.51392 15.4109 4.03585 15.1344C3.55779 14.8579 2.94607 15.0212 2.66952 15.4993C2.24351 16.2357 2 17.0909 2 18C2 19.1046 2.89543 20 4 20H12.5997Z" fill="black"/>
<path d="M21 21L19.2678 19.2678M19.2678 19.2678C19.7202 18.8154 20 18.1904 20 17.5C20 16.1193 18.8807 15 17.5 15C16.1193 15 15 16.1193 15 17.5C15 18.8807 16.1193 20 17.5 20C18.1904 20 18.8154 19.7202 19.2678 19.2678Z" stroke="black" stroke-width="2" stroke-linecap="round" stroke-linejoin="round"/>
</svg>
