<svg width="24" height="24" viewBox="0 0 24 24" fill="none" xmlns="http://www.w3.org/2000/svg">
<path fill-rule="evenodd" clip-rule="evenodd" d="M7 6C7 4.34315 8.34315 3 10 3C10.5523 3 11 2.55228 11 2C11 1.44772 10.5523 1 10 1C7.23858 1 5 3.23858 5 6C5 8.76142 7.23858 11 10 11C12.7614 11 15 8.76142 15 6C15 5.09092 14.7564 4.2357 14.3304 3.49927C14.0539 3.02121 13.4422 2.85785 12.9641 3.13439C12.4861 3.41094 12.3227 4.02267 12.5992 4.50073C12.8539 4.94099 13 5.45194 13 6C13 7.65685 11.6569 9 10 9C8.34315 9 7 7.65685 7 6ZM7.98977 11.6112C7.54305 11.2538 6.90374 11.0612 6.25673 11.2573C5.87777 11.3722 5.5154 11.5234 5.17265 11.7068C4.68569 11.9674 4.50216 12.5734 4.76272 13.0603C5.02328 13.5473 5.62927 13.7308 6.11622 13.4702C6.32339 13.3594 6.54044 13.2666 6.7661 13.1935L8.75062 14.7811C9.48105 15.3655 10.5189 15.3655 11.2494 14.7811L11.5177 14.5664C11.8797 13.3152 13.0338 12.4004 14.4016 12.4004H15.8526C15.2412 11.8878 14.5262 11.4949 13.7437 11.2576C13.0968 11.0614 12.4571 11.2537 12.0101 11.6113L10 13.2194L7.98977 11.6112ZM13.1645 21L12.2791 20.1146C11.9614 19.7969 11.7222 19.4153 11.5742 19H4V17C4 16.6777 4.03791 16.3656 4.10907 16.0674C4.23724 15.5302 3.90565 14.9908 3.36845 14.8626C2.83124 14.7344 2.29185 15.066 2.16367 15.6032C2.0565 16.0524 2 16.5203 2 17V19C2 20.1046 2.89543 21 4 21H13.1645Z" fill="black"/>
<path fill-rule="evenodd" clip-rule="evenodd" d="M19.1169 22.707L21.707 20.1169C22.0982 19.7258 22.0982 19.0916 21.707 18.7004L17.7004 14.6938C17.5125 14.5059 17.2578 14.4004 16.9921 14.4004H14.402C13.8488 14.4004 13.4004 14.8488 13.4004 15.402V17.9921C13.4004 18.2578 13.5059 18.5125 13.6938 18.7004L17.7004 22.707C18.0916 23.0982 18.7258 23.0982 19.1169 22.707ZM15.4037 17.1549C15.8186 17.1549 16.1549 16.8186 16.1549 16.4037C16.1549 15.9888 15.8186 15.6525 15.4037 15.6525C14.9888 15.6525 14.6525 15.9888 14.6525 16.4037C14.6525 16.8186 14.9888 17.1549 15.4037 17.1549Z" fill="black"/>
</svg>
