<svg width="24" height="24" viewBox="0 0 24 24" fill="none" xmlns="http://www.w3.org/2000/svg">
<path fill-rule="evenodd" clip-rule="evenodd" d="M8 7C8 5.34315 9.34315 4 11 4C11.5523 4 12 3.55228 12 3C12 2.44772 11.5523 2 11 2C8.23858 2 6 4.23858 6 7C6 9.76142 8.23858 12 11 12C13.7614 12 16 9.76142 16 7C16 6.09094 15.7565 5.23573 15.3305 4.49927C15.0539 4.02121 14.4422 3.85785 13.9641 4.13439C13.4861 4.41094 13.3227 5.02267 13.5993 5.50073C13.8539 5.94097 14 6.45191 14 7C14 8.65685 12.6569 10 11 10C9.34315 10 8 8.65685 8 7ZM7 13C6.44772 13 6 13.4477 6 14C6 14.5523 6.44772 15 7 15H13.1644C13.4513 14.2353 14.1062 13.6787 14.8376 13.4738C15.2075 13.3701 15.5982 13.2419 15.9716 13.0943C15.6573 13.0324 15.3324 13 15 13H7ZM14.1059 20C13.793 19.3673 13.5355 18.6918 13.348 18H4C4 17.4519 4.14607 16.941 4.40073 16.5007C4.67728 16.0227 4.51392 15.4109 4.03585 15.1344C3.55779 14.8579 2.94607 15.0212 2.66952 15.4993C2.24351 16.2357 2 17.0909 2 18C2 19.1046 2.89543 20 4 20H14.1059Z" fill="black"/>
<path d="M21.9961 15.8909C21.914 19.8979 20.5525 20.9497 18.7233 21.8871C18.5832 21.9589 18.4168 21.9589 18.2767 21.8871C16.4475 20.9497 15.086 19.8979 15.0039 15.8909C14.9992 15.6615 15.1562 15.4619 15.3771 15.4C16.242 15.1577 17.34 14.7622 18.192 14.2137C18.3788 14.0933 18.6212 14.0933 18.808 14.2137C19.66 14.7622 20.758 15.1577 21.6229 15.4C21.8438 15.4619 22.0008 15.6615 21.9961 15.8909Z" fill="black"/>
</svg>
