<svg width="24" height="24" viewBox="0 0 24 24" fill="none" xmlns="http://www.w3.org/2000/svg">
<path fill-rule="evenodd" clip-rule="evenodd" d="M7 6C7 4.34315 8.34315 3 10 3C10.5523 3 11 2.55228 11 2C11 1.44772 10.5523 1 10 1C7.23858 1 5 3.23858 5 6C5 8.76142 7.23858 11 10 11C12.7614 11 15 8.76142 15 6C15 5.09092 14.7565 4.2357 14.3304 3.49927C14.0539 3.02121 13.4422 2.85785 12.9641 3.13439C12.4861 3.41094 12.3227 4.02267 12.5992 4.50073C12.8539 4.94099 13 5.45193 13 6C13 7.65685 11.6569 9 10 9C8.34315 9 7 7.65685 7 6ZM7.98977 11.6112C7.54305 11.2538 6.90374 11.0612 6.25673 11.2573C5.87777 11.3722 5.5154 11.5234 5.17265 11.7068C4.68569 11.9674 4.50216 12.5734 4.76273 13.0603C5.02329 13.5473 5.62927 13.7308 6.11622 13.4702C6.32339 13.3594 6.54044 13.2666 6.7661 13.1935L8.75062 14.7811C9.48105 15.3655 10.5189 15.3655 11.2494 14.7811L13.2338 13.1936C13.8741 13.4009 14.4434 13.7654 14.8966 14.2413C15.3881 13.7731 15.9852 13.415 16.6487 13.2064C15.9042 12.2954 14.8973 11.6075 13.7437 11.2576C13.0968 11.0614 12.4571 11.2537 12.0101 11.6113L10 13.2194L7.98977 11.6112ZM12 21V19H4V17C4 16.6777 4.03791 16.3656 4.10907 16.0674C4.23724 15.5302 3.90566 14.9908 3.36845 14.8626C2.83125 14.7344 2.29185 15.066 2.16368 15.6032C2.05651 16.0524 2 16.5202 2 17V19C2 20.1046 2.89543 21 4 21H12Z" fill="black"/>
<path fill-rule="evenodd" clip-rule="evenodd" d="M18 15C16.6193 15 15.5 16.1193 15.5 17.5V18H15C14.4477 18 14 18.4477 14 19V22C14 22.5523 14.4477 23 15 23H21C21.5523 23 22 22.5523 22 22V19C22 18.4477 21.5523 18 21 18H20.5V17.5C20.5 16.1193 19.3807 15 18 15ZM18.5 18V17.5C18.5 17.2239 18.2761 17 18 17C17.7239 17 17.5 17.2239 17.5 17.5V18H18.5ZM18.75 20.5C18.75 20.9142 18.4142 21.25 18 21.25C17.5858 21.25 17.25 20.9142 17.25 20.5C17.25 20.0858 17.5858 19.75 18 19.75C18.4142 19.75 18.75 20.0858 18.75 20.5Z" fill="black"/>
</svg>
