<svg width="24" height="24" viewBox="0 0 24 24" fill="none" xmlns="http://www.w3.org/2000/svg">
<path fill-rule="evenodd" clip-rule="evenodd" d="M3.69172 2.27783C3.30013 1.90244 2.67833 1.90746 2.29289 2.29289C1.90237 2.68342 1.90237 3.31658 2.29289 3.70711L7.3025 8.71672C7.80712 10.0971 8.90286 11.1929 10.2833 11.6975L12.4473 13.8615L12 14.2194L9.98977 12.6112C9.54305 12.2538 8.90374 12.0612 8.25673 12.2573C7.87777 12.3722 7.5154 12.5234 7.17265 12.7068C6.68569 12.9674 6.50216 13.5734 6.76272 14.0603C7.02329 14.5473 7.62927 14.7308 8.11622 14.4702C8.32339 14.3594 8.54044 14.2666 8.7661 14.1935L10.7506 15.7811C11.4811 16.3655 12.5189 16.3655 13.2494 15.7811L13.8702 15.2844L18 19.4142V20H6V18C6 17.6777 6.03791 17.3656 6.10907 17.0674C6.23724 16.5302 5.90566 15.9908 5.36845 15.8626C4.83125 15.7344 4.29185 16.066 4.16368 16.6032C4.05651 17.0524 4 17.5202 4 18V20C4 21.1046 4.89543 22 6 22H18C18.7021 22 19.3198 21.6382 19.6766 21.0908L20.2929 21.7071C20.6834 22.0976 21.3166 22.0976 21.7071 21.7071C22.0925 21.3217 22.0976 20.6999 21.7222 20.3083L21.7072 20.2933L3.70716 2.29327L3.69172 2.27783ZM15.1365 10.8941C16.273 9.97761 17 8.57371 17 7C17 6.09092 16.7565 5.2357 16.3304 4.49927C16.0539 4.02121 15.4422 3.85785 14.9641 4.13439C14.4861 4.41094 14.3227 5.02267 14.5992 5.50073C14.8539 5.94099 15 6.45193 15 7C15 8.02196 14.489 8.92457 13.7086 9.46625L15.1365 10.8941ZM9.53375 5.29143C10.0754 4.511 10.978 4 12 4C12.5523 4 13 3.55228 13 3C13 2.44772 12.5523 2 12 2C10.4263 2 9.02239 2.72703 8.10586 3.86354L9.53375 5.29143Z" fill="black"/>
</svg>
