<svg width="24" height="24" viewBox="0 0 24 24" fill="none" xmlns="http://www.w3.org/2000/svg">
<path d="M9 3C6.79086 3 5 4.79086 5 7C5 9.20914 6.79086 11 9 11C11.2091 11 13 9.20914 13 7C13 6.27143 12.8052 5.58835 12.4648 5M4.64443 13.5885C5.06457 13.3637 5.52057 13.1972 6.00163 13.0997C6.05421 14.7104 7.37651 16 9 16C10.6235 16 11.9458 14.7104 11.9984 13.0997C14.2814 13.5623 16 15.5805 16 18V20C16 20.5523 15.5523 21 15 21H3C2.44772 21 2 20.5523 2 20V18C2 17.599 2.04721 17.209 2.13637 16.8353" stroke="black" stroke-width="2" stroke-linecap="round" stroke-linejoin="round"/>
<path fill-rule="evenodd" clip-rule="evenodd" d="M17 3C15.8954 3 15 3.89543 15 5V8V11.5C15 11.7761 15.2347 11.9976 15.474 11.8598C16.0253 11.5423 16.5256 10.7379 16.7939 9.98951C16.8617 9.99645 16.9304 10 17 10H21C22.1046 10 23 9.10457 23 8V5C23 3.89543 22.1046 3 21 3H17ZM17 8H21V5H17V8Z" fill="black"/>
</svg>
