<svg width="24" height="24" viewBox="0 0 24 24" fill="none" xmlns="http://www.w3.org/2000/svg">
<path fill-rule="evenodd" clip-rule="evenodd" d="M7 6C7 4.34315 8.34315 3 10 3C10.5523 3 11 2.55228 11 2C11 1.44772 10.5523 1 10 1C7.23858 1 5 3.23858 5 6C5 8.76142 7.23858 11 10 11C12.7614 11 15 8.76142 15 6C15 5.09092 14.7565 4.2357 14.3304 3.49927C14.0539 3.02121 13.4422 2.85785 12.9641 3.13439C12.4861 3.41094 12.3227 4.02267 12.5992 4.50073C12.8539 4.94099 13 5.45193 13 6C13 7.65685 11.6569 9 10 9C8.34315 9 7 7.65685 7 6ZM7.98977 11.6112C7.54305 11.2538 6.90374 11.0612 6.25673 11.2573C5.87777 11.3722 5.5154 11.5234 5.17265 11.7068C4.68569 11.9674 4.50216 12.5734 4.76273 13.0603C5.02329 13.5473 5.62927 13.7308 6.11622 13.4702C6.32339 13.3594 6.54044 13.2666 6.7661 13.1935L8.75062 14.7811C9.48105 15.3655 10.5189 15.3655 11.2494 14.7811L13.2338 13.1936C13.7027 13.3454 14.1335 13.5815 14.5085 13.8839C15.1153 13.4899 15.8045 13.2123 16.5447 13.0827C15.8117 12.2331 14.8445 11.5915 13.7437 11.2576C13.0968 11.0614 12.4571 11.2537 12.0101 11.6113L10 13.2194L7.98977 11.6112ZM12.5997 21C12.2881 20.3904 12.0868 19.7149 12.0224 19H4V17C4 16.6777 4.03791 16.3656 4.10907 16.0674C4.23724 15.5302 3.90566 14.9908 3.36845 14.8626C2.83125 14.7344 2.29185 15.066 2.16368 15.6032C2.05651 16.0524 2 16.5202 2 17V19C2 20.1046 2.89543 21 4 21H12.5997Z" fill="black"/>
<path d="M21 22L19.2678 20.2678M19.2678 20.2678C19.7202 19.8154 20 19.1904 20 18.5C20 17.1193 18.8807 16 17.5 16C16.1193 16 15 17.1193 15 18.5C15 19.8807 16.1193 21 17.5 21C18.1904 21 18.8154 20.7202 19.2678 20.2678Z" stroke="black" stroke-width="2" stroke-linecap="round" stroke-linejoin="round"/>
</svg>
