<svg width="24" height="24" viewBox="0 0 24 24" fill="none" xmlns="http://www.w3.org/2000/svg">
<path fill-rule="evenodd" clip-rule="evenodd" d="M7 6C7 4.34315 8.34315 3 10 3C10.5523 3 11 2.55228 11 2C11 1.44772 10.5523 1 10 1C7.23858 1 5 3.23858 5 6C5 8.76142 7.23858 11 10 11C12.7614 11 15 8.76142 15 6C15 5.09091 14.7564 4.23569 14.3304 3.49927C14.0539 3.02121 13.4422 2.85785 12.9641 3.13439C12.486 3.41094 12.3227 4.02267 12.5992 4.50073C12.8539 4.941 13 5.45194 13 6C13 7.65685 11.6569 9 10 9C8.34315 9 7 7.65685 7 6ZM10 12C9.44772 12 9 12.4477 9 13C9 13.5523 9.44772 14 10 14C10.2446 14 10.485 14.0176 10.7202 14.0515C11.0996 13.2996 11.786 12.7291 12.6146 12.5046C11.8068 12.1791 10.9243 12 10 12ZM12.1645 21L11.2791 20.1146C10.9614 19.7969 10.7222 19.4153 10.5742 19H5C5 17.4656 5.68996 16.0933 6.78016 15.1746C7.20248 14.8187 7.25632 14.1878 6.90042 13.7655C6.54452 13.3431 5.91365 13.2893 5.49133 13.6452C3.96948 14.9277 3 16.8511 3 19C3 20.1046 3.89543 21 5 21H12.1645Z" fill="black"/>
<path fill-rule="evenodd" clip-rule="evenodd" d="M18.1165 22.707L20.7065 20.1169C21.0977 19.7258 21.0977 19.0916 20.7065 18.7004L16.6999 14.6938C16.5121 14.5059 16.2573 14.4004 15.9916 14.4004H13.4016C12.8484 14.4004 12.3999 14.8488 12.3999 15.402V17.9921C12.3999 18.2578 12.5054 18.5125 12.6933 18.7004L16.6999 22.707C17.0911 23.0982 17.7253 23.0982 18.1165 22.707ZM14.4032 17.1549C14.8181 17.1549 15.1545 16.8186 15.1545 16.4037C15.1545 15.9888 14.8181 15.6525 14.4032 15.6525C13.9883 15.6525 13.652 15.9888 13.652 16.4037C13.652 16.8186 13.9883 17.1549 14.4032 17.1549Z" fill="black"/>
</svg>
