<svg width="24" height="24" viewBox="0 0 24 24" fill="none" xmlns="http://www.w3.org/2000/svg">
<path d="M10 3C7.79086 3 6 4.79086 6 7C6 9.20914 7.79086 11 10 11C12.2091 11 14 9.20914 14 7C14 6.27143 13.8052 5.58835 13.4648 5M21 10H18.5M18.5 10H16M18.5 10V7.5M18.5 10V12.5M5.64444 13.5885C5.93019 13.4356 6.23178 13.3098 6.54683 13.2143C6.83038 13.1284 7.13371 13.207 7.36508 13.3921L9.37531 15.0003C9.74053 15.2924 10.2595 15.2924 10.6247 15.0003L12.6348 13.3922C12.8662 13.207 13.1698 13.1285 13.4534 13.2145C15.506 13.8371 17 15.7441 17 18V20C17 20.5523 16.5523 21 16 21H4C3.44772 21 3 20.5523 3 20V18C3 17.599 3.04721 17.209 3.13637 16.8353" stroke="black" stroke-width="2" stroke-linecap="round" stroke-linejoin="round"/>
</svg>
