<svg width="24" height="24" viewBox="0 0 24 24" fill="none" xmlns="http://www.w3.org/2000/svg">
<g clip-path="url(#clip0_1669_6366)">
<path fill-rule="evenodd" clip-rule="evenodd" d="M6 6C6 4.34315 7.34315 3 9 3C9.55228 3 10 2.55228 10 2C10 1.44772 9.55228 1 9 1C6.23858 1 4 3.23858 4 6C4 8.76142 6.23858 11 9 11C11.7614 11 14 8.76142 14 6C14 5.09091 13.7564 4.23569 13.3304 3.49927C13.0539 3.02121 12.4422 2.85785 11.9641 3.13439C11.486 3.41094 11.3227 4.02267 11.5992 4.50073C11.8539 4.941 12 5.45194 12 6C12 7.65685 10.6569 9 9 9C7.34315 9 6 7.65685 6 6ZM9 12C8.44772 12 8 12.4477 8 13C8 13.5523 8.44772 14 9 14C10.2039 14 11.3084 14.4255 12.1713 15.1342C12.5275 14.559 13.0098 14.0699 13.5796 13.7057C12.352 12.643 10.7511 12 9 12ZM10 21V19H4C4 17.4656 4.68996 16.0933 5.78016 15.1746C6.20248 14.8187 6.25632 14.1878 5.90042 13.7655C5.54452 13.3431 4.91365 13.2893 4.49133 13.6452C2.96948 14.9277 2 16.8511 2 19C2 20.1046 2.89543 21 4 21H10Z" fill="black"/>
<path fill-rule="evenodd" clip-rule="evenodd" d="M16 15C14.6193 15 13.5 16.1193 13.5 17.5V18H13C12.4477 18 12 18.4477 12 19V22C12 22.5523 12.4477 23 13 23H19C19.5523 23 20 22.5523 20 22V19C20 18.4477 19.5523 18 19 18H18.5V17.5C18.5 16.1193 17.3807 15 16 15ZM16.5 18V17.5C16.5 17.2239 16.2761 17 16 17C15.7239 17 15.5 17.2239 15.5 17.5V18H16.5ZM16.75 20.5C16.75 20.9142 16.4142 21.25 16 21.25C15.5858 21.25 15.25 20.9142 15.25 20.5C15.25 20.0858 15.5858 19.75 16 19.75C16.4142 19.75 16.75 20.0858 16.75 20.5Z" fill="black"/>
</g>
<defs>
<clipPath id="clip0_1669_6366">
<rect width="24" height="24" fill="white"/>
</clipPath>
</defs>
</svg>
