<svg width="24" height="24" viewBox="0 0 24 24" fill="none" xmlns="http://www.w3.org/2000/svg">
<path fill-rule="evenodd" clip-rule="evenodd" d="M8 6C8 4.34315 9.34315 3 11 3C11.5523 3 12 2.55228 12 2C12 1.44772 11.5523 1 11 1C8.23858 1 6 3.23858 6 6C6 8.76142 8.23858 11 11 11C13.7614 11 16 8.76142 16 6C16 5.09094 15.7565 4.23573 15.3305 3.49927C15.0539 3.02121 14.4422 2.85785 13.9641 3.13439C13.4861 3.41094 13.3227 4.02267 13.5993 4.50073C13.8539 4.94097 14 5.45191 14 6C14 7.65685 12.6569 9 11 9C9.34315 9 8 7.65685 8 6ZM9 12C8.44772 12 8 12.4477 8 13C8 13.5523 8.44772 14 9 14H13C13.7531 14 14.4576 14.2081 15.0591 14.57C15.7868 14.209 16.6058 14.0043 17.4723 14.0001C16.3736 12.7725 14.777 12 13 12H9ZM12.207 21C12.0722 20.5232 12 20.02 12 19.5C12 19.3315 12.0076 19.1647 12.0224 19H5V18C5 16.9691 5.38876 16.0315 6.02933 15.3217C6.39934 14.9117 6.36693 14.2793 5.95692 13.9093C5.54692 13.5393 4.91458 13.5717 4.54456 13.9817C3.58536 15.0446 3 16.455 3 18V19C3 20.1046 3.89543 21 5 21H12.207Z" fill="black"/>
<path fill-rule="evenodd" clip-rule="evenodd" d="M17.5 23C19.433 23 21 21.433 21 19.5C21 17.567 19.433 16 17.5 16C15.567 16 14 17.567 14 19.5C14 21.433 15.567 23 17.5 23ZM18 18C18 17.7239 17.7761 17.5 17.5 17.5C17.2239 17.5 17 17.7239 17 18V19.7929C17 20.0581 17.1054 20.3125 17.2929 20.5L17.8964 21.1036C18.0917 21.2988 18.4083 21.2988 18.6036 21.1036C18.7988 20.9083 18.7988 20.5917 18.6036 20.3964L18 19.7929V18Z" fill="black"/>
</svg>
