<svg width="24" height="24" viewBox="0 0 24 24" fill="none" xmlns="http://www.w3.org/2000/svg">
<path d="M9.00001 3C6.79087 3 5.00001 4.79086 5.00001 7C5.00001 9.20914 6.79087 11 9.00001 11C11.2091 11 13 9.20914 13 7C13 6.27143 12.8052 5.58835 12.4648 5M9.00001 14C12.3137 14 15 16.6863 15 20C15 20.5523 14.5523 21 14 21H4.00001C3.44773 21 3.00001 20.5523 3.00001 20C3.00001 18.1584 3.82973 16.5105 5.13575 15.4099M16.5 11L18 12.5L21 9.5" stroke="black" stroke-width="2" stroke-linecap="round" stroke-linejoin="round"/>
</svg>
