<svg width="24" height="24" viewBox="0 0 24 24" fill="none" xmlns="http://www.w3.org/2000/svg">
<g clip-path="url(#clip0_1669_6330)">
<path fill-rule="evenodd" clip-rule="evenodd" d="M8 6C8 4.34315 9.34315 3 11 3C11.5523 3 12 2.55228 12 2C12 1.44772 11.5523 1 11 1C8.23858 1 6 3.23858 6 6C6 8.76142 8.23858 11 11 11C13.7614 11 16 8.76142 16 6C16 5.09094 15.7565 4.23573 15.3305 3.49927C15.0539 3.02121 14.4422 2.85785 13.9641 3.13439C13.4861 3.41094 13.3227 4.02267 13.5993 4.50073C13.8539 4.94097 14 5.45191 14 6C14 7.65685 12.6569 9 11 9C9.34315 9 8 7.65685 8 6ZM9 12C8.44772 12 8 12.4477 8 13C8 13.5523 8.44772 14 9 14H13C13.1074 14 13.2139 14.0042 13.3192 14.0125C14.172 13.4069 15.205 13.0383 16.322 13.0028C15.3709 12.3693 14.2286 12 13 12H9ZM11.5997 21C11.2881 20.3904 11.0868 19.7149 11.0224 19H5V18C5 16.9691 5.38876 16.0315 6.02933 15.3217C6.39934 14.9117 6.36693 14.2793 5.95692 13.9093C5.54692 13.5393 4.91458 13.5717 4.54456 13.9817C3.58536 15.0446 3 16.455 3 18V19C3 20.1046 3.89543 21 5 21H11.5997Z" fill="black"/>
<path d="M20 22L18.2678 20.2678M18.2678 20.2678C18.7202 19.8154 19 19.1904 19 18.5C19 17.1193 17.8807 16 16.5 16C15.1193 16 14 17.1193 14 18.5C14 19.8807 15.1193 21 16.5 21C17.1904 21 17.8154 20.7202 18.2678 20.2678Z" stroke="black" stroke-width="2" stroke-linecap="round" stroke-linejoin="round"/>
</g>
<defs>
<clipPath id="clip0_1669_6330">
<rect width="24" height="24" fill="white"/>
</clipPath>
</defs>
</svg>
