<svg width="24" height="24" viewBox="0 0 24 24" fill="none" xmlns="http://www.w3.org/2000/svg">
<path fill-rule="evenodd" clip-rule="evenodd" d="M8 7C8 5.34315 9.34315 4 11 4C11.5523 4 12 3.55228 12 3C12 2.44772 11.5523 2 11 2C8.23858 2 6 4.23858 6 7C6 9.76142 8.23858 12 11 12C13.7614 12 16 9.76142 16 7C16 6.09094 15.7565 5.23573 15.3305 4.49927C15.0539 4.02121 14.4422 3.85785 13.9641 4.13439C13.4861 4.41094 13.3227 5.02267 13.5993 5.50073C13.8539 5.94097 14 6.45191 14 7C14 8.65685 12.6569 10 11 10C9.34315 10 8 8.65685 8 7ZM7 13C6.44772 13 6 13.4477 6 14C6 14.5523 6.44772 15 7 15H11.3999V14.402C11.3999 13.8956 11.5253 13.4185 11.7468 13H7ZM13.1645 20L12.2791 19.1146C11.9614 18.7969 11.7222 18.4153 11.5742 18H4C4 17.4519 4.14607 16.941 4.40073 16.5007C4.67728 16.0227 4.51392 15.4109 4.03585 15.1344C3.55779 14.8579 2.94607 15.0212 2.66952 15.4993C2.24351 16.2357 2 17.0909 2 18C2 19.1046 2.89543 20 4 20H13.1645Z" fill="black"/>
<path fill-rule="evenodd" clip-rule="evenodd" d="M19.1165 21.707L21.7065 19.1169C22.0977 18.7258 22.0977 18.0916 21.7065 17.7004L17.6999 13.6938C17.5121 13.5059 17.2573 13.4004 16.9916 13.4004H14.4016C13.8484 13.4004 13.3999 13.8488 13.3999 14.402V16.9921C13.3999 17.2578 13.5054 17.5125 13.6933 17.7004L17.6999 21.707C18.0911 22.0982 18.7253 22.0982 19.1165 21.707ZM15.4032 16.1549C15.8181 16.1549 16.1545 15.8186 16.1545 15.4037C16.1545 14.9888 15.8181 14.6525 15.4032 14.6525C14.9883 14.6525 14.652 14.9888 14.652 15.4037C14.652 15.8186 14.9883 16.1549 15.4032 16.1549Z" fill="black"/>
</svg>
