<svg width="24" height="24" viewBox="0 0 24 24" fill="none" xmlns="http://www.w3.org/2000/svg">
<path fill-rule="evenodd" clip-rule="evenodd" d="M7 6C7 4.34315 8.34315 3 10 3C10.5523 3 11 2.55228 11 2C11 1.44772 10.5523 1 10 1C7.23858 1 5 3.23858 5 6C5 8.76142 7.23858 11 10 11C12.7614 11 15 8.76142 15 6C15 5.09091 14.7564 4.23569 14.3304 3.49927C14.0539 3.02121 13.4422 2.85785 12.9641 3.13439C12.486 3.41094 12.3227 4.02267 12.5992 4.50073C12.8539 4.941 13 5.45194 13 6C13 7.65685 11.6569 9 10 9C8.34315 9 7 7.65685 7 6ZM10 12C9.44772 12 9 12.4477 9 13C9 13.5523 9.44772 14 10 14C10.9249 14 11.7912 14.2512 12.5344 14.689C13.029 14.1745 13.6227 13.756 14.2849 13.4643C13.1008 12.5464 11.6142 12 10 12ZM11.5997 21C11.2881 20.3904 11.0868 19.7149 11.0224 19H5C5 17.4656 5.68996 16.0933 6.78016 15.1746C7.20248 14.8187 7.25632 14.1878 6.90042 13.7655C6.54452 13.3431 5.91365 13.2893 5.49133 13.6452C3.96948 14.9277 3 16.8511 3 19C3 20.1046 3.89543 21 5 21H11.5997Z" fill="black"/>
<path d="M20 22L18.2678 20.2678M18.2678 20.2678C18.7202 19.8154 19 19.1904 19 18.5C19 17.1193 17.8807 16 16.5 16C15.1193 16 14 17.1193 14 18.5C14 19.8807 15.1193 21 16.5 21C17.1904 21 17.8154 20.7202 18.2678 20.2678Z" stroke="black" stroke-width="2" stroke-linecap="round" stroke-linejoin="round"/>
</svg>
