<svg width="24" height="24" viewBox="0 0 24 24" fill="none" xmlns="http://www.w3.org/2000/svg">
<path fill-rule="evenodd" clip-rule="evenodd" d="M7 6C7 4.34315 8.34315 3 10 3C10.5523 3 11 2.55228 11 2C11 1.44772 10.5523 1 10 1C7.23858 1 5 3.23858 5 6C5 8.76142 7.23858 11 10 11C12.7614 11 15 8.76142 15 6C15 5.09092 14.7564 4.2357 14.3304 3.49927C14.0539 3.02121 13.4422 2.85785 12.9641 3.13439C12.4861 3.41094 12.3227 4.02267 12.5992 4.50073C12.8539 4.94099 13 5.45194 13 6C13 7.65685 11.6569 9 10 9C8.34315 9 7 7.65685 7 6ZM7.98977 11.6112C7.54305 11.2538 6.90374 11.0612 6.25673 11.2573C5.87777 11.3722 5.5154 11.5234 5.17265 11.7068C4.68569 11.9674 4.50216 12.5734 4.76272 13.0603C5.02328 13.5473 5.62927 13.7308 6.11622 13.4702C6.32339 13.3594 6.54044 13.2666 6.7661 13.1935L8.75062 14.7811C9.48105 15.3655 10.5189 15.3655 11.2494 14.7811L13.2338 13.1936C13.6082 13.3149 13.9584 13.4898 14.2753 13.7094C14.4536 13.6078 14.6429 13.5283 14.8376 13.4738C15.3505 13.33 15.9033 13.1391 16.3944 12.9149C15.6816 12.1486 14.7708 11.5691 13.7437 11.2576C13.0968 11.0614 12.4571 11.2537 12.0101 11.6113L10 13.2194L7.98977 11.6112ZM14.6693 21C14.5238 20.7722 14.3886 20.5404 14.2639 20.3071C14.0408 19.8902 13.8419 19.4517 13.6716 19H4V17C4 16.6777 4.03791 16.3656 4.10907 16.0674C4.23724 15.5302 3.90566 14.9908 3.36845 14.8626C2.83124 14.7344 2.29185 15.066 2.16367 15.6032C2.0565 16.0524 2 16.5202 2 17V19C2 20.1046 2.89543 21 4 21H14.6693Z" fill="black"/>
<path d="M21.9961 15.8909C21.914 19.8979 20.5525 20.9497 18.7233 21.8871C18.5832 21.9589 18.4168 21.9589 18.2767 21.8871C16.4475 20.9497 15.086 19.8979 15.0039 15.8909C14.9992 15.6615 15.1562 15.4619 15.3771 15.4C16.242 15.1577 17.34 14.7622 18.192 14.2137C18.3788 14.0933 18.6212 14.0933 18.808 14.2137C19.66 14.7622 20.758 15.1577 21.6229 15.4C21.8438 15.4619 22.0008 15.6615 21.9961 15.8909Z" fill="black"/>
</svg>
