<svg width="24" height="24" viewBox="0 0 24 24" fill="none" xmlns="http://www.w3.org/2000/svg">
<path d="M13 7C13 9.20914 11.2091 11 9 11C6.79086 11 5 9.20914 5 7C5 4.79086 6.79086 3 9 3M9 14C12.3137 14 15 16.6863 15 20C15 20.5523 14.5523 21 14 21H4C3.44772 21 3 20.5523 3 20M19 11L21 9M19 11L17 9M19 11L17 13M19 11L21 13M5.13574 15.4099C3.82972 16.5105 3 18.1584 3 20M12.4648 5C12.8052 5.58835 13 6.27143 13 7" stroke="black" stroke-width="2" stroke-linecap="round" stroke-linejoin="round"/>
</svg>
