<svg width="24" height="24" viewBox="0 0 24 24" fill="none" xmlns="http://www.w3.org/2000/svg">
<path fill-rule="evenodd" clip-rule="evenodd" d="M8 6C8 4.34315 9.34315 3 11 3C11.5523 3 12 2.55228 12 2C12 1.44772 11.5523 1 11 1C8.23858 1 6 3.23858 6 6C6 8.76142 8.23858 11 11 11C13.7614 11 16 8.76142 16 6C16 5.09092 15.7565 4.2357 15.3304 3.49927C15.0539 3.02121 14.4422 2.85785 13.9641 3.13439C13.4861 3.41094 13.3227 4.02267 13.5992 4.50073C13.8539 4.94099 14 5.45193 14 6C14 7.65685 12.6569 9 11 9C9.34315 9 8 7.65685 8 6ZM8.98977 11.6112C8.54305 11.2538 7.90374 11.0612 7.25673 11.2573C6.87777 11.3722 6.5154 11.5234 6.17265 11.7068C5.68569 11.9674 5.50216 12.5734 5.76273 13.0603C6.02329 13.5473 6.62927 13.7308 7.11622 13.4702C7.32339 13.3594 7.54044 13.2666 7.7661 13.1935L9.75062 14.7811C10.4811 15.3655 11.5189 15.3655 12.2494 14.7811L14.2338 13.1936C15.6415 13.6495 16.7064 14.8647 16.9482 16.3544L17.46 15.8437C17.8455 15.4933 18.2797 15.2773 18.7124 15.1593C18.1117 13.2935 16.6222 11.8274 14.7437 11.2576C14.0968 11.0614 13.4571 11.2537 13.0101 11.6113L11 13.2194L8.98977 11.6112ZM13.5135 21C13.8015 20.2823 14.0893 19.5951 14.4453 19.0551L14.4793 19H5V17C5 16.6777 5.03791 16.3656 5.10907 16.0674C5.23724 15.5302 4.90566 14.9908 4.36845 14.8626C3.83125 14.7344 3.29185 15.066 3.16368 15.6032C3.05651 16.0524 3 16.5202 3 17V19C3 20.1046 3.89543 21 5 21H13.5135Z" fill="black"/>
<path d="M18.6278 18.3703C18.4226 18.1652 18.3201 18.0626 18.3201 17.9351C18.3201 17.8077 18.4226 17.7051 18.6278 17.5L18.7087 17.4191C18.7584 17.3694 18.7832 17.3445 18.8052 17.3245C19.2813 16.8918 20.0083 16.8918 20.4843 17.3245C20.5063 17.3445 20.5312 17.3694 20.5809 17.4191C20.6305 17.4688 20.6555 17.4937 20.6755 17.5157C21.1082 17.9917 21.1082 18.7187 20.6755 19.1948C20.6555 19.2168 20.6306 19.2416 20.5809 19.2913L20.5 19.3722C20.2949 19.5774 20.1923 19.6799 20.0649 19.6799C19.9374 19.6799 19.8348 19.5774 19.6297 19.3722L18.6278 18.3703Z" fill="black"/>
<path d="M18.1926 18.8054C17.9875 18.6003 17.8849 18.4977 17.7575 18.4977C17.63 18.4977 17.5275 18.6003 17.3223 18.8054L16.4773 19.6504C16.26 19.87 16.3941 19.7336 16.115 20.157C15.8358 20.5803 15.6462 21.0544 15.2669 22.0026L15.2126 22.1385C15.0276 22.6009 14.9351 22.8321 15.0515 22.9485C15.1679 23.0649 15.3991 22.9724 15.8615 22.7874L15.9974 22.7331C16.9455 22.3538 17.4197 22.1642 17.843 21.885C18.2664 21.6059 18.13 21.74 18.3496 21.5227L19.1946 20.6777C19.3997 20.4725 19.5023 20.37 19.5023 20.2425C19.5023 20.1151 19.3997 20.0125 19.1946 19.8074L18.1926 18.8054Z" fill="black"/>
</svg>
