<svg width="24" height="24" viewBox="0 0 24 24" fill="none" xmlns="http://www.w3.org/2000/svg">
<path fill-rule="evenodd" clip-rule="evenodd" d="M17 3C15.8954 3 15 3.89543 15 5V8V11.6C15 11.7887 15 11.8831 15.0931 11.942C15.1862 12.0009 15.2526 11.9693 15.3855 11.9063C15.9713 11.6282 16.5113 10.7778 16.7939 9.98951C16.8617 9.99645 16.9304 10 17 10H21C22.1046 10 23 9.10457 23 8V5C23 3.89543 22.1046 3 21 3H17ZM17 8H21V5H17V8Z" fill="black"/>
<path d="M8.00001 3C5.79087 3 4.00001 4.79086 4.00001 7C4.00001 9.20914 5.79087 11 8.00001 11C10.2091 11 12 9.20914 12 7C12 6.27143 11.8052 5.58835 11.4648 5M8.00001 14C11.3137 14 14 16.6863 14 20C14 20.5523 13.5523 21 13 21H3.00001C2.44772 21 2.00001 20.5523 2.00001 20C2.00001 18.1584 2.82972 16.5105 4.13574 15.4099" stroke="black" stroke-width="2" stroke-linecap="round"/>
</svg>
