<svg width="24" height="24" viewBox="0 0 24 24" fill="none" xmlns="http://www.w3.org/2000/svg">
<path fill-rule="evenodd" clip-rule="evenodd" d="M7 6C7 4.34315 8.34315 3 10 3C10.5523 3 11 2.55228 11 2C11 1.44772 10.5523 1 10 1C7.23858 1 5 3.23858 5 6C5 8.76142 7.23858 11 10 11C12.7614 11 15 8.76142 15 6C15 5.09091 14.7564 4.2357 14.3304 3.49927C14.0539 3.02121 13.4422 2.85785 12.9641 3.13439C12.4861 3.41094 12.3227 4.02267 12.5992 4.50073C12.8539 4.94099 13 5.45194 13 6C13 7.65685 11.6569 9 10 9C8.34315 9 7 7.65685 7 6ZM8.00109 12.0671C7.99149 11.7729 7.85278 11.4979 7.62191 11.3153C7.39105 11.1327 7.09149 11.0612 6.80302 11.1196C6.22501 11.2367 5.67713 11.4369 5.17265 11.7068C4.68569 11.9674 4.50216 12.5734 4.76272 13.0603C5.02328 13.5473 5.62926 13.7308 6.11622 13.4702C6.16106 13.4462 6.2064 13.4231 6.25222 13.4008C6.81997 14.9192 8.28364 16 10 16C11.7164 16 13.1801 14.9192 13.7478 13.4007C14.18 13.611 14.5687 13.897 14.8966 14.2413C15.388 13.7732 15.9853 13.415 16.6487 13.2064C15.789 12.1544 14.5791 11.3997 13.197 11.1196C12.9085 11.0612 12.6089 11.1327 12.3781 11.3153C12.1472 11.4979 12.0085 11.7729 11.9989 12.0671C11.9639 13.1402 11.0821 14 10 14C8.91786 14 8.03613 13.1402 8.00109 12.0671ZM12 21V19H4V17C4 16.6777 4.03791 16.3656 4.10907 16.0674C4.23724 15.5302 3.90565 14.9908 3.36845 14.8626C2.83124 14.7344 2.29185 15.066 2.16367 15.6032C2.0565 16.0524 2 16.5203 2 17V19C2 20.1046 2.89543 21 4 21H12Z" fill="black"/>
<path fill-rule="evenodd" clip-rule="evenodd" d="M18 15C16.6193 15 15.5 16.1193 15.5 17.5V18H15C14.4477 18 14 18.4477 14 19V22C14 22.5523 14.4477 23 15 23H21C21.5523 23 22 22.5523 22 22V19C22 18.4477 21.5523 18 21 18H20.5V17.5C20.5 16.1193 19.3807 15 18 15ZM18.5 18V17.5C18.5 17.2239 18.2761 17 18 17C17.7239 17 17.5 17.2239 17.5 17.5V18H18.5ZM18.75 20.5C18.75 20.9142 18.4142 21.25 18 21.25C17.5858 21.25 17.25 20.9142 17.25 20.5C17.25 20.0858 17.5858 19.75 18 19.75C18.4142 19.75 18.75 20.0858 18.75 20.5Z" fill="black"/>
</svg>
