<svg width="24" height="24" viewBox="0 0 24 24" fill="none" xmlns="http://www.w3.org/2000/svg">
<path fill-rule="evenodd" clip-rule="evenodd" d="M7 6C7 4.34315 8.34315 3 10 3C10.5523 3 11 2.55228 11 2C11 1.44772 10.5523 1 10 1C7.23858 1 5 3.23858 5 6C5 8.76142 7.23858 11 10 11C12.7614 11 15 8.76142 15 6C15 5.09091 14.7564 4.2357 14.3304 3.49927C14.0539 3.02121 13.4422 2.85785 12.9641 3.13439C12.4861 3.41094 12.3227 4.02267 12.5992 4.50073C12.8539 4.94099 13 5.45194 13 6C13 7.65685 11.6569 9 10 9C8.34315 9 7 7.65685 7 6ZM8.00109 12.0671C7.99149 11.7729 7.85278 11.4979 7.62191 11.3153C7.39105 11.1327 7.09149 11.0612 6.80302 11.1196C6.22501 11.2367 5.67713 11.4369 5.17265 11.7068C4.68569 11.9674 4.50216 12.5734 4.76272 13.0603C5.02328 13.5473 5.62926 13.7308 6.11622 13.4702C6.16106 13.4462 6.2064 13.4231 6.25222 13.4008C6.81997 14.9192 8.28364 16 10 16C11.7164 16 13.1801 14.9192 13.7478 13.4007C14.0201 13.5332 14.2751 13.6957 14.5085 13.8839C15.1153 13.4899 15.8046 13.2123 16.5448 13.0827C15.6928 12.0953 14.5243 11.3886 13.197 11.1196C12.9085 11.0612 12.6089 11.1327 12.3781 11.3153C12.1472 11.4979 12.0085 11.7729 11.9989 12.0671C11.9639 13.1402 11.0821 14 10 14C8.91786 14 8.03613 13.1402 8.00109 12.0671ZM12.5997 21C12.2881 20.3904 12.0868 19.7149 12.0224 19H4V17C4 16.6777 4.03791 16.3656 4.10907 16.0674C4.23724 15.5302 3.90565 14.9908 3.36845 14.8626C2.83124 14.7344 2.29185 15.066 2.16367 15.6032C2.0565 16.0524 2 16.5203 2 17V19C2 20.1046 2.89543 21 4 21H12.5997Z" fill="black"/>
<path d="M21 22L19.2678 20.2678M19.2678 20.2678C19.7202 19.8154 20 19.1904 20 18.5C20 17.1193 18.8807 16 17.5 16C16.1193 16 15 17.1193 15 18.5C15 19.8807 16.1193 21 17.5 21C18.1904 21 18.8154 20.7202 19.2678 20.2678Z" stroke="black" stroke-width="2" stroke-linecap="round" stroke-linejoin="round"/>
</svg>
