<svg width="24" height="24" viewBox="0 0 24 24" fill="none" xmlns="http://www.w3.org/2000/svg">
<path fill-rule="evenodd" clip-rule="evenodd" d="M8 6C8 4.34315 9.34315 3 11 3C11.5523 3 12 2.55228 12 2C12 1.44772 11.5523 1 11 1C8.23858 1 6 3.23858 6 6C6 8.76142 8.23858 11 11 11C13.7614 11 16 8.76142 16 6C16 5.09092 15.7564 4.2357 15.3304 3.49927C15.0539 3.02121 14.4422 2.85785 13.9641 3.13439C13.4861 3.41094 13.3227 4.02267 13.5992 4.50073C13.8539 4.94099 14 5.45194 14 6C14 7.65685 12.6569 9 11 9C9.34315 9 8 7.65685 8 6ZM8.98977 11.6112C8.54305 11.2538 7.90374 11.0612 7.25673 11.2573C6.87777 11.3722 6.5154 11.5234 6.17265 11.7068C5.68569 11.9674 5.50216 12.5734 5.76272 13.0603C6.02328 13.5473 6.62927 13.7308 7.11622 13.4702C7.32339 13.3594 7.54044 13.2666 7.7661 13.1935L9.75062 14.7811C10.4811 15.3655 11.5189 15.3655 12.2494 14.7811L14.2338 13.1936C14.8727 13.4005 15.441 13.7638 15.8938 14.2383C16.4019 14.0833 16.9412 14 17.5 14C17.7456 14 17.9873 14.0161 18.2244 14.0473C17.4726 12.7203 16.2299 11.7084 14.7437 11.2576C14.0968 11.0614 13.4571 11.2537 13.0101 11.6113L11 13.2194L8.98977 11.6112ZM12.207 21C12.0722 20.5232 12 20.02 12 19.5C12 19.3315 12.0076 19.1647 12.0224 19H5V17C5 16.6777 5.03791 16.3656 5.10907 16.0674C5.23724 15.5302 4.90566 14.9908 4.36845 14.8626C3.83124 14.7344 3.29185 15.066 3.16367 15.6032C3.0565 16.0524 3 16.5202 3 17V19C3 20.1046 3.89543 21 5 21H12.207Z" fill="black"/>
<path fill-rule="evenodd" clip-rule="evenodd" d="M17.5 23C19.433 23 21 21.433 21 19.5C21 17.567 19.433 16 17.5 16C15.567 16 14 17.567 14 19.5C14 21.433 15.567 23 17.5 23ZM18 18C18 17.7239 17.7761 17.5 17.5 17.5C17.2239 17.5 17 17.7239 17 18V19.7929C17 20.0581 17.1054 20.3125 17.2929 20.5L17.8964 21.1036C18.0917 21.2988 18.4083 21.2988 18.6036 21.1036C18.7988 20.9083 18.7988 20.5917 18.6036 20.3964L18 19.7929V18Z" fill="black"/>
</svg>
