<svg width="24" height="24" viewBox="0 0 24 24" fill="none" xmlns="http://www.w3.org/2000/svg">
<path d="M12 3C9.79086 3 8 4.79086 8 7C8 9.20914 9.79086 11 12 11C14.2091 11 16 9.20914 16 7C16 6.27143 15.8052 5.58835 15.4648 5M7.64444 13.5885C7.93019 13.4356 8.23178 13.3098 8.54683 13.2143C8.83038 13.1284 9.13371 13.207 9.36508 13.3921L11.3753 15.0003C11.7405 15.2924 12.2595 15.2924 12.6247 15.0003L14.6348 13.3922C14.8662 13.207 15.1698 13.1285 15.4534 13.2145C17.506 13.8371 19 15.7441 19 18V20C19 20.5523 18.5523 21 18 21H6C5.44772 21 5 20.5523 5 20V18C5 17.599 5.04721 17.209 5.13637 16.8353" stroke="black" stroke-width="2" stroke-linecap="round"/>
</svg>
