<svg width="24" height="24" viewBox="0 0 24 24" fill="none" xmlns="http://www.w3.org/2000/svg">
<path d="M3 18V20C3 20.5523 3.44772 21 4 21H16C16.5523 21 17 20.5523 17 20V18C17 15.5805 15.2814 13.5623 12.9984 13.0997C12.9458 14.7104 11.6235 16 10 16C8.37651 16 7.05421 14.7104 7.00163 13.0997M14 7C14 9.20914 12.2091 11 10 11C7.79086 11 6 9.20914 6 7C6 4.79086 7.79086 3 10 3M21 11H18.5H16M7.00163 13.0997C6.52057 13.1972 6.06457 13.3637 5.64443 13.5885M3.13637 16.8353C3.04721 17.209 3 17.599 3 18M13.4648 5C13.8052 5.58835 14 6.27143 14 7" stroke="black" stroke-width="2" stroke-linecap="round" stroke-linejoin="round"/>
</svg>
