<svg width="24" height="24" viewBox="0 0 24 24" fill="none" xmlns="http://www.w3.org/2000/svg">
<path d="M12 3C9.79086 3 8 4.79086 8 7C8 9.20914 9.79086 11 12 11C14.2091 11 16 9.20914 16 7C16 6.27143 15.8052 5.58835 15.4648 5M7.64444 13.5885C8.06457 13.3637 8.52057 13.1972 9.00163 13.0997C9.05421 14.7104 10.3765 16 12 16C13.6235 16 14.9458 14.7104 14.9984 13.0997C17.2814 13.5623 19 15.5805 19 18V20C19 20.5523 18.5523 21 18 21H6C5.44772 21 5 20.5523 5 20V18C5 17.599 5.04721 17.209 5.13637 16.8353" stroke="black" stroke-width="2" stroke-linecap="round" stroke-linejoin="round"/>
</svg>
