<svg width="24" height="24" viewBox="0 0 24 24" fill="none" xmlns="http://www.w3.org/2000/svg">
<path d="M10 3C7.79086 3 6 4.79086 6 7C6 9.20914 7.79086 11 10 11C12.2091 11 14 9.20914 14 7C14 6.27143 13.8052 5.58835 13.4648 5M16.5 11L18 12.5L21 9.5M5.64444 13.5885C6.06457 13.3637 6.52057 13.1972 7.00163 13.0997C7.05422 14.7104 8.37651 16 10 16C11.6235 16 12.9458 14.7104 12.9984 13.0997C15.2814 13.5623 17 15.5805 17 18V20C17 20.5523 16.5523 21 16 21H4C3.44772 21 3 20.5523 3 20V18C3 17.599 3.04721 17.209 3.13637 16.8353" stroke="black" stroke-width="2" stroke-linecap="round" stroke-linejoin="round"/>
</svg>
