<svg width="24" height="24" viewBox="0 0 24 24" fill="none" xmlns="http://www.w3.org/2000/svg">
<path d="M8 14H12C14.7614 14 17 16.2386 17 19V20C17 20.5523 16.5523 21 16 21H4C3.44772 21 3 20.5523 3 20V19C3 17.7121 3.48706 16.538 4.28694 15.6517M10 3C7.79086 3 6 4.79086 6 7C6 9.20914 7.79086 11 10 11C12.2091 11 14 9.20914 14 7C14 6.27143 13.8052 5.58835 13.4649 5M21 11H18.5M16 11H18.5M18.5 11V8.5M18.5 11V13.5" stroke="black" stroke-width="2" stroke-linecap="round" stroke-linejoin="round"/>
</svg>
