<svg width="24" height="24" viewBox="0 0 24 24" fill="none" xmlns="http://www.w3.org/2000/svg">
<path fill-rule="evenodd" clip-rule="evenodd" d="M7 6C7 4.34315 8.34315 3 10 3C10.5523 3 11 2.55228 11 2C11 1.44772 10.5523 1 10 1C7.23858 1 5 3.23858 5 6C5 8.76142 7.23858 11 10 11C12.7614 11 15 8.76142 15 6C15 5.09091 14.7564 4.23569 14.3304 3.49927C14.0539 3.02121 13.4422 2.85785 12.9641 3.13439C12.486 3.41094 12.3227 4.02267 12.5992 4.50073C12.8539 4.941 13 5.45194 13 6C13 7.65685 11.6569 9 10 9C8.34315 9 7 7.65685 7 6ZM10 12C9.44772 12 9 12.4477 9 13C9 13.5523 9.44772 14 10 14C11.0937 14 12.1053 14.3511 12.9283 14.9468C13.1988 14.7273 13.5105 14.5654 13.8376 14.4738C14.2127 14.3686 14.6092 14.2383 14.9873 14.0881C13.7177 12.7991 11.9522 12 10 12ZM13.1059 21C12.793 20.3673 12.5355 19.6918 12.348 19H5C5 17.4656 5.68996 16.0933 6.78016 15.1746C7.20248 14.8187 7.25632 14.1878 6.90042 13.7655C6.54452 13.3431 5.91365 13.2893 5.49133 13.6452C3.96948 14.9277 3 16.8511 3 19C3 20.1046 3.89543 21 5 21H13.1059Z" fill="black"/>
<path d="M20.9961 16.8909C20.914 20.8979 19.5525 21.9497 17.7233 22.8871C17.5832 22.9589 17.4168 22.9589 17.2767 22.8871C15.4475 21.9497 14.086 20.8979 14.0039 16.8909C13.9992 16.6615 14.1562 16.4619 14.3771 16.4C15.242 16.1577 16.34 15.7622 17.192 15.2137C17.3788 15.0933 17.6212 15.0933 17.808 15.2137C18.66 15.7622 19.758 16.1577 20.6229 16.4C20.8438 16.4619 21.0008 16.6615 20.9961 16.8909Z" fill="black"/>
</svg>
