<svg width="24" height="24" viewBox="0 0 24 24" fill="none" xmlns="http://www.w3.org/2000/svg">
<path fill-rule="evenodd" clip-rule="evenodd" d="M8 6C8 4.34315 9.34315 3 11 3C11.5523 3 12 2.55228 12 2C12 1.44772 11.5523 1 11 1C8.23857 1 6 3.23858 6 6C6 8.76142 8.23857 11 11 11C13.7614 11 16 8.76142 16 6C16 5.09092 15.7564 4.2357 15.3304 3.49927C15.0539 3.02121 14.4422 2.85785 13.9641 3.13439C13.4861 3.41094 13.3227 4.02267 13.5992 4.50073C13.8539 4.94099 14 5.45194 14 6C14 7.65685 12.6569 9 11 9C9.34315 9 8 7.65685 8 6ZM9.00109 12.0671C8.99149 11.7729 8.85278 11.4979 8.62191 11.3153C8.39105 11.1327 8.09148 11.0612 7.80302 11.1196C7.22501 11.2367 6.67713 11.4369 6.17265 11.7068C5.68569 11.9674 5.50216 12.5734 5.76272 13.0603C6.02328 13.5473 6.62926 13.7308 7.11622 13.4702C7.16106 13.4462 7.2064 13.4231 7.25222 13.4008C7.81997 14.9192 9.28364 16 11 16C12.7164 16 14.1801 14.9192 14.7478 13.4007C15.1787 13.6104 15.5664 13.8953 15.8937 14.2383C16.4018 14.0833 16.9412 14 17.5 14C17.7456 14 17.9874 14.0161 18.2244 14.0473C17.3824 12.5608 15.9242 11.4696 14.197 11.1196C13.9085 11.0612 13.6089 11.1327 13.3781 11.3153C13.1472 11.4979 13.0085 11.7729 12.9989 12.0671C12.9639 13.1402 12.0821 14 11 14C9.91786 14 9.03613 13.1402 9.00109 12.0671ZM12.207 21C12.0722 20.5232 12 20.02 12 19.5C12 19.3315 12.0076 19.1647 12.0224 19H5V17C5 16.6777 5.03791 16.3656 5.10907 16.0674C5.23724 15.5302 4.90565 14.9908 4.36845 14.8626C3.83124 14.7344 3.29185 15.066 3.16367 15.6032C3.0565 16.0524 3 16.5203 3 17V19C3 20.1046 3.89543 21 5 21H12.207Z" fill="black"/>
<path fill-rule="evenodd" clip-rule="evenodd" d="M17.5 23C19.433 23 21 21.433 21 19.5C21 17.567 19.433 16 17.5 16C15.567 16 14 17.567 14 19.5C14 21.433 15.567 23 17.5 23ZM18 18C18 17.7239 17.7761 17.5 17.5 17.5C17.2239 17.5 17 17.7239 17 18V19.7929C17 20.0581 17.1054 20.3125 17.2929 20.5L17.8964 21.1036C18.0917 21.2988 18.4083 21.2988 18.6036 21.1036C18.7988 20.9083 18.7988 20.5917 18.6036 20.3964L18 19.7929V18Z" fill="black"/>
</svg>
