<svg width="24" height="24" viewBox="0 0 24 24" fill="none" xmlns="http://www.w3.org/2000/svg">
<path fill-rule="evenodd" clip-rule="evenodd" d="M3.69172 2.27783C3.30013 1.90244 2.67833 1.90746 2.29289 2.29289C1.90237 2.68342 1.90237 3.31658 2.29289 3.70711L7.01846 8.43267C7.22557 10.8489 9.15108 12.7744 11.5673 12.9815L12.5858 14H8C7.44772 14 7 14.4477 7 15C7 15.5523 7.44772 16 8 16H14.5858L17.5858 19H5C5 18.4519 5.14607 17.941 5.40073 17.5007C5.67728 17.0227 5.51392 16.4109 5.03585 16.1344C4.55779 15.8579 3.94607 16.0212 3.66952 16.4993C3.24351 17.2357 3 18.0909 3 19C3 20.1046 3.89543 21 5 21H19C19.1792 21 19.3528 20.9764 19.518 20.9323L20.2929 21.7071C20.6834 22.0976 21.3166 22.0976 21.7071 21.7071C22.0925 21.3217 22.0976 20.6999 21.7222 20.3083L21.7072 20.2933L3.70716 2.29327L3.69172 2.27783ZM15.6546 11.4123C16.4892 10.5188 17 9.31908 17 8C17 7.09094 16.7565 6.23573 16.3305 5.49927C16.0539 5.02121 15.4422 4.85785 14.9641 5.13439C14.4861 5.41094 14.3227 6.02267 14.5993 6.50073C14.8539 6.94097 15 7.45191 15 8C15 8.76677 14.7123 9.46636 14.239 9.99672L15.6546 11.4123ZM10.0033 5.76096C10.5336 5.28767 11.2332 5 12 5C12.5523 5 13 4.55228 13 4C13 3.44772 12.5523 3 12 3C10.6809 3 9.48115 3.51079 8.58769 4.34537L10.0033 5.76096Z" fill="black"/>
</svg>
