<svg width="24" height="24" viewBox="0 0 24 24" fill="none" xmlns="http://www.w3.org/2000/svg">
<path fill-rule="evenodd" clip-rule="evenodd" d="M3.68901 2.27524C3.29726 1.90246 2.67744 1.90835 2.29289 2.29289C1.90237 2.68342 1.90237 3.31658 2.29289 3.70711L7.3025 8.71672C7.80712 10.0971 8.90286 11.1929 10.2833 11.6975L11.5858 13H10C9.44772 13 9 13.4477 9 14C9 14.5523 9.44772 15 10 15H13.5858L18 19.4142V20H6V19C6 17.9691 6.38876 17.0315 7.02933 16.3217C7.39934 15.9117 7.36693 15.2793 6.95692 14.9093C6.54692 14.5393 5.91458 14.5717 5.54456 14.9817C4.58536 16.0446 4 17.455 4 19V20C4 21.1046 4.89543 22 6 22H18C18.7021 22 19.3198 21.6382 19.6766 21.0908L20.2929 21.7071C20.6834 22.0976 21.3166 22.0976 21.7071 21.7071C22.0917 21.3226 22.0975 20.7027 21.7248 20.311L21.707 20.2933L3.70704 2.29327L3.68901 2.27524ZM15.1364 10.8942C16.2729 9.97766 17 8.57374 17 7C17 6.09094 16.7565 5.23573 16.3305 4.49927C16.0539 4.02121 15.4422 3.85785 14.9641 4.13439C14.4861 4.41094 14.3227 5.02267 14.5993 5.50073C14.8539 5.94097 15 6.45191 15 7C15 8.02199 14.489 8.92462 13.7085 9.4663L15.1364 10.8942ZM9.5337 5.2915C10.0754 4.51103 10.978 4 12 4C12.5523 4 13 3.55228 13 3C13 2.44772 12.5523 2 12 2C10.4263 2 9.02234 2.72706 8.1058 3.86361L9.5337 5.2915Z" fill="black"/>
</svg>
