<svg width="24" height="24" viewBox="0 0 24 24" fill="none" xmlns="http://www.w3.org/2000/svg">
<path fill-rule="evenodd" clip-rule="evenodd" d="M7 6C7 4.34315 8.34315 3 10 3C10.5523 3 11 2.55228 11 2C11 1.44772 10.5523 1 10 1C7.23858 1 5 3.23858 5 6C5 8.76142 7.23858 11 10 11C12.7614 11 15 8.76142 15 6C15 5.09091 14.7564 4.2357 14.3304 3.49927C14.0539 3.02121 13.4422 2.85785 12.9641 3.13439C12.4861 3.41094 12.3227 4.02267 12.5992 4.50073C12.8539 4.94099 13 5.45194 13 6C13 7.65685 11.6569 9 10 9C8.34315 9 7 7.65685 7 6ZM8.00109 12.0671C7.99149 11.7729 7.85278 11.4979 7.62191 11.3153C7.39105 11.1327 7.09149 11.0612 6.80302 11.1196C6.22501 11.2367 5.67713 11.4369 5.17265 11.7068C4.68569 11.9674 4.50216 12.5734 4.76272 13.0603C5.02328 13.5473 5.62926 13.7308 6.11622 13.4702C6.16106 13.4462 6.2064 13.4231 6.25222 13.4008C6.81997 14.9192 8.28364 16 10 16C10.4925 16 10.9642 15.911 11.3999 15.7482V15.402C11.3999 13.7443 12.7438 12.4004 14.4016 12.4004H15.8527C15.1017 11.7708 14.1942 11.3217 13.197 11.1196C12.9085 11.0612 12.6089 11.1327 12.3781 11.3153C12.1472 11.4979 12.0085 11.7729 11.9989 12.0671C11.9639 13.1402 11.0821 14 10 14C8.91786 14 8.03613 13.1402 8.00109 12.0671ZM13.1645 21L12.2791 20.1146C11.9614 19.7969 11.7222 19.4153 11.5742 19H4V17C4 16.6777 4.03791 16.3656 4.10907 16.0674C4.23724 15.5302 3.90565 14.9908 3.36845 14.8626C2.83124 14.7344 2.29185 15.066 2.16367 15.6032C2.0565 16.0524 2 16.5203 2 17V19C2 20.1046 2.89543 21 4 21H13.1645Z" fill="black"/>
<path fill-rule="evenodd" clip-rule="evenodd" d="M19.1165 22.707L21.7065 20.1169C22.0977 19.7258 22.0977 19.0916 21.7065 18.7004L17.6999 14.6938C17.5121 14.5059 17.2573 14.4004 16.9916 14.4004H14.4016C13.8484 14.4004 13.3999 14.8488 13.3999 15.402V17.9921C13.3999 18.2578 13.5054 18.5125 13.6933 18.7004L17.6999 22.707C18.0911 23.0982 18.7253 23.0982 19.1165 22.707ZM15.4032 17.1549C15.8181 17.1549 16.1545 16.8186 16.1545 16.4037C16.1545 15.9888 15.8181 15.6525 15.4032 15.6525C14.9883 15.6525 14.652 15.9888 14.652 16.4037C14.652 16.8186 14.9883 17.1549 15.4032 17.1549Z" fill="black"/>
</svg>
