<svg width="24" height="24" viewBox="0 0 24 24" fill="none" xmlns="http://www.w3.org/2000/svg">
<path fill-rule="evenodd" clip-rule="evenodd" d="M7 6C7 4.34315 8.34315 3 10 3C10.5523 3 11 2.55228 11 2C11 1.44772 10.5523 1 10 1C7.23858 1 5 3.23858 5 6C5 8.76142 7.23858 11 10 11C12.7614 11 15 8.76142 15 6C15 5.09094 14.7565 4.23573 14.3305 3.49927C14.0539 3.02121 13.4422 2.85785 12.9641 3.13439C12.4861 3.41094 12.3227 4.02267 12.5993 4.50073C12.8539 4.94097 13 5.45191 13 6C13 7.65685 11.6569 9 10 9C8.34315 9 7 7.65685 7 6ZM8 12C7.44772 12 7 12.4477 7 13C7 13.5523 7.44772 14 8 14H12C12.8452 14 13.6292 14.2621 14.2751 14.7096C14.4535 14.6078 14.6428 14.5283 14.8376 14.4738C15.3506 14.33 15.9033 14.1391 16.3945 13.9148C15.299 12.7369 13.7355 12 12 12H8ZM14.1059 21C13.793 20.3673 13.5355 19.6918 13.348 19H4V18C4 16.9691 4.38876 16.0315 5.02933 15.3217C5.39934 14.9117 5.36693 14.2793 4.95692 13.9093C4.54692 13.5393 3.91458 13.5717 3.54456 13.9817C2.58536 15.0446 2 16.455 2 18V19C2 20.1046 2.89543 21 4 21H14.1059Z" fill="black"/>
<path d="M21.9961 16.8909C21.914 20.8979 20.5525 21.9497 18.7233 22.8871C18.5832 22.9589 18.4168 22.9589 18.2767 22.8871C16.4475 21.9497 15.086 20.8979 15.0039 16.8909C14.9992 16.6615 15.1562 16.4619 15.3771 16.4C16.242 16.1577 17.34 15.7622 18.192 15.2137C18.3788 15.0933 18.6212 15.0933 18.808 15.2137C19.66 15.7622 20.758 16.1577 21.6229 16.4C21.8438 16.4619 22.0008 16.6615 21.9961 16.8909Z" fill="black"/>
</svg>
