<svg width="24" height="24" viewBox="0 0 24 24" fill="none" xmlns="http://www.w3.org/2000/svg">
<path d="M17 20.6622V19.5C17 17.2909 15.2091 15.5 13 15.5H11C8.79086 15.5 7 17.2909 7 19.5V20.6622M17 20.6622C19.989 18.9331 22 15.7014 22 12C22 9.20261 20.8514 6.67349 19 4.85857M17 20.6622C15.5291 21.513 13.8214 22 12 22C10.1786 22 8.47087 21.513 7 20.6622M7 20.6622C5.82905 19.9848 4.80866 19.0765 4 18M15 2.4578C14.053 2.16035 13.0452 2 12 2C6.47715 2 2 6.47715 2 12C2 12.685 2.06891 13.3538 2.20016 14M15 9C15 10.6569 13.6569 12 12 12C10.3431 12 9 10.6569 9 9C9 7.34315 10.3431 6 12 6C13.6569 6 15 7.34315 15 9Z" stroke="black" stroke-width="2" stroke-linecap="round"/>
</svg>
