<svg width="24" height="24" viewBox="0 0 24 24" fill="none" xmlns="http://www.w3.org/2000/svg">
<path fill-rule="evenodd" clip-rule="evenodd" d="M14.8574 10.8344C15.5799 9.73304 16.0001 8.41559 16.0001 7C16.0001 5.58441 15.5799 4.26696 14.8574 3.16558C15.2195 3.05785 15.603 3 16 3C18.2092 3 20 4.79086 20 7C20 9.20914 18.2092 11 16 11C15.603 11 15.2195 10.9422 14.8574 10.8344ZM17.8741 21C17.9563 20.6804 18.0001 20.3453 18.0001 20V19C18.0001 17.1081 17.3434 15.3696 16.2455 14H17C19.7615 14 22 16.2386 22 19V20C22 20.5523 21.5523 21 21 21H17.8741Z" fill="black"/>
<path d="M6 14.416C6.61246 14.1484 7.2889 14 8 14H10C12.7614 14 15 16.2386 15 19V20C15 20.5523 14.5523 21 14 21H4C3.44772 21 3 20.5523 3 20V19C3 18.4774 3.08024 17.9735 3.22903 17.5M5.12602 6C5.04375 6.31962 5 6.6547 5 7C5 9.20914 6.79086 11 9 11C11.2091 11 13 9.20914 13 7C13 4.79086 11.2091 3 9 3C8.6547 3 8.31962 3.04375 8 3.12602" stroke="black" stroke-width="2" stroke-linecap="round"/>
</svg>
