<svg width="24" height="24" viewBox="0 0 24 24" fill="none" xmlns="http://www.w3.org/2000/svg">
<path fill-rule="evenodd" clip-rule="evenodd" d="M7 6C7 4.34315 8.34315 3 10 3C10.5523 3 11 2.55228 11 2C11 1.44772 10.5523 1 10 1C7.23858 1 5 3.23858 5 6C5 8.76142 7.23858 11 10 11C12.7614 11 15 8.76142 15 6C15 5.09091 14.7564 4.2357 14.3304 3.49927C14.0539 3.02121 13.4422 2.85785 12.9641 3.13439C12.4861 3.41094 12.3227 4.02267 12.5992 4.50073C12.8539 4.94099 13 5.45194 13 6C13 7.65685 11.6569 9 10 9C8.34315 9 7 7.65685 7 6ZM8.00109 12.0671C7.99149 11.7729 7.85278 11.4979 7.62191 11.3153C7.39105 11.1327 7.09149 11.0612 6.80302 11.1196C6.22501 11.2367 5.67713 11.4369 5.17265 11.7068C4.68569 11.9674 4.50216 12.5734 4.76272 13.0603C5.02328 13.5473 5.62926 13.7308 6.11622 13.4702C6.16106 13.4462 6.2064 13.4231 6.25222 13.4008C6.81997 14.9192 8.28364 16 10 16C11.7164 16 13.1801 14.9192 13.7478 13.4007C13.932 13.4903 14.1082 13.5937 14.2753 13.7094C14.4536 13.6078 14.6429 13.5283 14.8376 13.4738C15.3505 13.33 15.9033 13.1391 16.3945 12.9149C15.5577 12.0153 14.4479 11.3731 13.197 11.1196C12.9085 11.0612 12.6089 11.1327 12.3781 11.3153C12.1472 11.4979 12.0085 11.7729 11.9989 12.0671C11.9639 13.1402 11.0821 14 10 14C8.91786 14 8.03613 13.1402 8.00109 12.0671ZM14.6693 21C14.5238 20.7722 14.3886 20.5404 14.2639 20.3071C14.0408 19.8902 13.8419 19.4517 13.6716 19H4V17C4 16.6777 4.03791 16.3656 4.10907 16.0674C4.23724 15.5302 3.90565 14.9908 3.36845 14.8626C2.83124 14.7344 2.29185 15.066 2.16367 15.6032C2.0565 16.0524 2 16.5203 2 17V19C2 20.1046 2.89543 21 4 21H14.6693Z" fill="black"/>
<path d="M21.9961 15.8909C21.914 19.8979 20.5525 20.9497 18.7233 21.8871C18.5832 21.9589 18.4168 21.9589 18.2767 21.8871C16.4475 20.9497 15.086 19.8979 15.0039 15.8909C14.9992 15.6615 15.1562 15.4619 15.3771 15.4C16.242 15.1577 17.34 14.7622 18.192 14.2137C18.3788 14.0933 18.6212 14.0933 18.808 14.2137C19.66 14.7622 20.758 15.1577 21.6229 15.4C21.8438 15.4619 22.0008 15.6615 21.9961 15.8909Z" fill="black"/>
</svg>
