<svg width="24" height="24" viewBox="0 0 24 24" fill="none" xmlns="http://www.w3.org/2000/svg">
<path d="M3 12V11C3 9.89543 3.89543 9 5 9H7V20C7 20.5523 6.55228 21 6 21H4C3.44772 21 3 20.5523 3 20V16M13 3C13.5523 3 14 3.44772 14 4V20C14 20.5523 13.5523 21 13 21H11C10.4477 21 10 20.5523 10 20V6H8.5C8.22386 6 8 5.77614 8 5.5V3.5C8 3.22386 8.22386 3 8.5 3H13ZM17 20V9H19C20.1046 9 21 9.89543 21 11V20C21 20.5523 20.5523 21 20 21H18C17.4477 21 17 20.5523 17 20Z" stroke="black" stroke-width="2" stroke-linecap="round" stroke-linejoin="round"/>
</svg>
