<svg width="24" height="24" viewBox="0 0 24 24" fill="none" xmlns="http://www.w3.org/2000/svg">
<path d="M4 19C4 19 6 22 11 22C14.5 22 16 21 16 21M19 21.5L20 19L17.5 18.5M15.7556 13C15.8102 13.3515 15.8894 13.6866 16 14C16.2906 14.8235 17 15 17 15L14 17L13 16.5C13 16.5 8 18.5 6 15C2.7751 9.35642 12.5 8 12.5 8C12.5 8 13.755 5.56375 11.5 5C9.5 4.5 8 6.5 8 6.5L5.5 5C5.5 5 6.5 2 11 2C15 2 16 5 16 6C16 6.92357 15.8936 7.95502 15.7987 9M12.5 11C12.5 11 9.3197 10.8944 8.5 12.5C7.87544 13.7234 9.37601 14.8645 10.5 14.5C12.4024 13.883 12.5 11 12.5 11Z" stroke="black" stroke-width="2" stroke-linecap="round" stroke-linejoin="round"/>
</svg>
