<svg width="24" height="24" viewBox="0 0 24 24" fill="none" xmlns="http://www.w3.org/2000/svg">
<path d="M12.0002 14.0001L8.91481 20.1709C8.66072 20.6791 8.14133 21.0001 7.57317 21.0001H3.80924C3.43755 21.0001 3.1958 20.609 3.36203 20.2765L6.08563 14.8293C6.33972 14.3211 6.85911 14.0001 7.42727 14.0001H12.0002ZM12.0002 14.0001L15.0856 20.1709C15.3397 20.6791 15.8591 21.0001 16.4273 21.0001H20.1912C20.5629 21.0001 20.8046 20.609 20.6384 20.2765L20 19M12.0002 14.0001L9.58563 9.17095C9.37449 8.74866 9.37449 8.2516 9.58563 7.82931L11.553 3.89456C11.7373 3.52603 12.2632 3.52603 12.4474 3.89456L18 15" stroke="black" stroke-width="2" stroke-linecap="round" stroke-linejoin="round"/>
</svg>
