<svg width="24" height="24" viewBox="0 0 24 24" fill="none" xmlns="http://www.w3.org/2000/svg">
<path d="M3.00604 15.5588C2.41273 15.2292 2.11468 14.5422 2.27929 13.8837L3.00023 11M21.0002 11L21.6972 13.7877C21.8727 14.49 21.5217 15.2175 20.8627 15.5171L12.3768 19.3743C11.511 19.7679 10.5098 19.7275 9.67844 19.2657L6.64509 17.5805M21.0002 11L12.2511 14.4997C11.4554 14.8179 10.5617 14.7807 9.79526 14.3975L3.00023 11M21.0002 11L20.7502 10M3.00023 11L3.25023 10M16.8261 9.50321C17.5028 9.2132 17.869 8.47494 17.6904 7.76069L17.0002 5M17.0002 5L11.9489 6.68377C11.3331 6.88904 10.6673 6.88904 10.0515 6.68377L8.00023 6M17.0002 5L16.7502 4M8.00023 6L7.29206 8.83267C7.12155 9.51473 7.44763 10.2237 8.07646 10.5381L9.75573 11.3777C10.545 11.7724 11.468 11.7995 12.2791 11.4519L13 11.143M8.00023 6L8.25023 5" stroke="black" stroke-width="2" stroke-linecap="round" stroke-linejoin="round"/>
</svg>
