<svg width="24" height="24" viewBox="0 0 24 24" fill="none" xmlns="http://www.w3.org/2000/svg">
<path d="M7.9542 6.32115C8.98205 5.92703 10.3092 5.74679 12 5.73564C13.6908 5.74679 15.0179 5.9275 16.0458 6.32162M7.9542 6.32115C5.90223 3.88025 4.41396 3.35821 2.89695 4.78468C1.12546 6.45044 2.0599 8.1539 4.97822 10.4903M7.9542 6.32115C6.18371 7.00003 5.30129 8.31347 4.97822 10.4903M4.97822 10.4903C4.91114 10.9423 4.80486 11.4522 4.72381 12M16.0458 6.32162C18.0978 3.88071 19.586 3.35867 21.1031 4.78515C21.6984 5.34498 21.9885 5.90906 22 6.5M16.0458 6.32162C17.8163 7.00049 18.6987 8.31393 19.0218 10.4908M19.0218 10.4908C19.2109 11.7647 19.7116 13.4993 19.0802 15.2457C18.5292 16.7697 17.9979 17.7288 16.5401 18.5273M19.0218 10.4908C19.3778 10.2057 19.7043 9.9301 20 9.66282M7.45986 18.5271C7.70524 18.6615 7.99693 18.7884 8.31493 18.9083C10.6545 19.7903 13.3455 19.7903 15.6851 18.9084C16.0031 18.7886 16.2948 18.6617 16.5401 18.5273M7.45986 18.5271C7.54958 14.6834 9.18936 13.0713 12 13C14.8106 13.0713 16.4504 14.6836 16.5401 18.5273M7.45986 18.5271L12 17.0781M7.45986 18.5271C6.25878 17.8691 5.68664 17.1021 5.21423 16M16.5401 18.5273L12 17.0781M12 17.0781L12 15.5M9 10V10.01M15 10V10.01" stroke="black" stroke-width="2" stroke-linecap="round" stroke-linejoin="round"/>
</svg>
