<svg width="24" height="24" viewBox="0 0 24 24" fill="none" xmlns="http://www.w3.org/2000/svg">
<path d="M12 8H17.5C18.3284 8 19 8.67157 19 9.5V14.5C19 15.3284 18.3284 16 17.5 16H6.5C5.67157 16 5 15.3284 5 14.5V9.5C5 8.67157 5.67157 8 6.5 8H12ZM12 8L14.4142 5.58579C14.7893 5.21071 15.298 5 15.8284 5H19C20.6569 5 22 6.34315 22 8V11M12 8L9.58579 5.58579C9.21071 5.21071 8.70201 5 8.17157 5M3.88971 5.21216C2.78249 5.65351 2 6.73537 2 8V16C2 17.6569 3.34315 19 5 19H19C20.6569 19 22 17.6569 22 16V15M8 11.5V12.5C8 12.7761 8.22386 13 8.5 13H9.5C9.77614 13 10 12.7761 10 12.5V11.5C10 11.2239 9.77614 11 9.5 11H8.5C8.22386 11 8 11.2239 8 11.5ZM14 11.5V12.5C14 12.7761 14.2239 13 14.5 13H15.5C15.7761 13 16 12.7761 16 12.5V11.5C16 11.2239 15.7761 11 15.5 11H14.5C14.2239 11 14 11.2239 14 11.5Z" stroke="black" stroke-width="2" stroke-linecap="round" stroke-linejoin="round"/>
</svg>
