<svg width="24" height="24" viewBox="0 0 24 24" fill="none" xmlns="http://www.w3.org/2000/svg">
<path d="M17.0722 11L14.3526 19.9367C14.1604 20.5683 13.5778 21 12.9176 21H11.0831C10.4229 21 9.84029 20.5683 9.64806 19.9368L8.75423 17M17.0722 11L17.0722 8M17.0722 11C17.7952 10.7498 18.4458 10.3883 19 9.95496M17.0722 8H6.92769M17.0722 8C18.985 6.52023 19.1815 5.47405 17.0721 3C19.8793 3.46258 21.0169 4.88809 20.9998 6.43515M6.92769 8C5.01484 6.52023 4.81829 5.47405 6.92766 3C0.85925 4 2.59351 9.5 6.92809 11M6.92769 8L6.92809 11M6.92809 11L7.5368 13" stroke="black" stroke-width="2" stroke-linecap="round" stroke-linejoin="round"/>
</svg>
