<svg width="24" height="24" viewBox="0 0 24 24" fill="none" xmlns="http://www.w3.org/2000/svg">
<path d="M9 6L8.5 6.5L9.5 7.5L13 4L12 3L11.5 3.5M12.5 20.5L12 21L11 20L14.5 16.5L15.5 17.5L15 18M14 12L17.5 15.5L18.5 14.5L15 11L14 12ZM16.5 9.5L20 13L21 12L17.5 8.5L16.5 9.5ZM12 14L8.5 17.5L9.5 18.5L13 15L12 14ZM3 12L6.5 15.5L7.5 14.5L4 11L3 12ZM5.5 9.5L9 13L10 12L6.5 8.5L5.5 9.5ZM14.5 5.5L11 9L12 10L15.5 6.5L14.5 5.5Z" stroke="black" stroke-width="2" stroke-linecap="round" stroke-linejoin="round"/>
</svg>
