<svg width="24" height="24" viewBox="0 0 24 24" fill="none" xmlns="http://www.w3.org/2000/svg">
<path d="M10.8757 4L11.5648 2.77489C11.756 2.43506 12.2453 2.43506 12.4364 2.77489L20.5915 17.2727C20.6946 17.456 20.4812 17.6539 20.3062 17.5372L13.11 12.7398C12.4382 12.2919 11.563 12.2919 10.8912 12.7398L3.69506 17.5372C3.52006 17.6539 3.30669 17.456 3.4098 17.2727L8.90697 7.5M12.0006 22.0002H3.94307C3.72706 22.0002 3.66445 21.7051 3.86185 21.6174L10.7822 18.5417C11.5579 18.1969 12.4433 18.1969 13.219 18.5417L20.1394 21.6174C20.3368 21.7051 20.2742 22.0002 20.0582 22.0002L16 22" stroke="black" stroke-width="2" stroke-linecap="round" stroke-linejoin="round"/>
</svg>
