<svg width="24" height="24" viewBox="0 0 24 24" fill="none" xmlns="http://www.w3.org/2000/svg">
<path fill-rule="evenodd" clip-rule="evenodd" d="M9.87868 3.87868C10.4647 3.2927 11.2307 3 12 3C12.7693 3 13.5353 3.2927 14.1213 3.87868L17.5858 7.34315H6.41421L7.05025 6.70711C7.44078 6.31658 7.44078 5.68342 7.05025 5.29289C6.65973 4.90237 6.02656 4.90237 5.63604 5.29289L4.17157 6.75736C3.42143 7.50751 3 8.52492 3 9.58579V19.0002C3 21.2093 4.79086 23.0002 7 23.0002C7.55228 23.0002 8 22.5525 8 22.0002C8 21.4479 7.55228 21.0002 7 21.0002C5.89543 21.0002 5 20.1048 5 19.0002V9.58579C5 9.50426 5.00498 9.42324 5.01477 9.34315H18.9852C18.995 9.42324 19 9.50426 19 9.58579V19.0002C19 20.1048 18.1046 21.0002 17 21.0002C16.4477 21.0002 16 21.4479 16 22.0002C16 22.5525 16.4477 23.0002 17 23.0002C19.2091 23.0002 21 21.2093 21 19.0002V9.58579C21 8.52492 20.5786 7.50751 19.8284 6.75736L15.5355 2.46447C14.5594 1.48835 13.2781 1 12 1C10.7219 1 9.44058 1.48835 8.46447 2.46446C8.07394 2.85499 8.07394 3.48815 8.46447 3.87868C8.85499 4.2692 9.48816 4.2692 9.87868 3.87868ZM12 4.5C11.4477 4.5 11 4.94772 11 5.5C11 6.05228 11.4477 6.5 12 6.5H12.01C12.5623 6.5 13.01 6.05228 13.01 5.5C13.01 4.94772 12.5623 4.5 12.01 4.5H12ZM13.1312 13.2149C13.2213 13.0638 13.3482 12.9157 13.4806 12.7611C13.7292 12.471 13.9972 12.1582 14.0778 11.7605C14.1703 11.3041 13.6823 11 13.2039 11H10.7961C10.3177 11 9.8297 11.3041 9.92221 11.7605C10.0028 12.1582 10.2708 12.471 10.5194 12.7611L10.5194 12.7611C10.6518 12.9157 10.7787 13.0638 10.8688 13.2149H13.1312ZM12 21C9.25 21 8 18.8947 8 17.3158C8 16.0101 9.15396 15.2105 10.0305 14.6032L10.0305 14.6032L10.0305 14.6032L10.0306 14.6031C10.3227 14.4007 10.5841 14.2196 10.7616 14.0482H13.2384C13.4159 14.2196 13.6773 14.4007 13.9695 14.6032C14.846 15.2105 16 16.0101 16 17.3158C16 18.8947 14.75 21 12 21ZM12.0001 15.2893C12.2368 15.2893 12.4287 15.4758 12.4287 15.7059V15.7305H12.9232C13.1599 15.7305 13.3517 15.917 13.3517 16.1471C13.3517 16.3772 13.1599 16.5638 12.9232 16.5638H11.7693C11.6168 16.5638 11.5056 16.6802 11.5056 16.8089C11.5056 16.9376 11.6168 17.054 11.7693 17.054H12.2309C12.843 17.054 13.3517 17.5302 13.3517 18.1324C13.3517 18.6684 12.9488 19.1045 12.4287 19.194V19.2354C12.4287 19.4655 12.2368 19.652 12.0001 19.652C11.7634 19.652 11.5715 19.4655 11.5715 19.2354V19.2108H11.077C10.8403 19.2108 10.6484 19.0243 10.6484 18.7942C10.6484 18.5641 10.8403 18.3775 11.077 18.3775H12.2309C12.3834 18.3775 12.4946 18.2612 12.4946 18.1324C12.4946 18.0037 12.3834 17.8873 12.2309 17.8873H11.7693C11.1571 17.8873 10.6484 17.4111 10.6484 16.8089C10.6484 16.2729 11.0513 15.8368 11.5715 15.7473V15.7059C11.5715 15.4758 11.7634 15.2893 12.0001 15.2893Z" fill="black"/>
</svg>
