<svg width="24" height="24" viewBox="0 0 24 24" fill="none" xmlns="http://www.w3.org/2000/svg">
<path d="M10 7.26316C10 5.98672 8.03942 5.05425 7.81648 3.35349C7.70854 2.53005 8.54905 2 9.37953 2H14.6205C15.451 2 16.2915 2.53005 16.1835 3.35349C15.9606 5.05425 14 5.98672 14 7.26316M10 7.26316H14M10 7.26316C10 7.67234 9.59705 8.08152 9 8.53651M14 7.26316C14 8.84211 20 10.4211 20 14.6316C20 16.6047 19.024 18.9888 16.9499 20.5M10 17.5L14 12.5M14 17.5H14.01M10 12.5H10.01M5.75693 11C4.76928 11.9537 4 13.1239 4 14.6316C4 17.7895 6.5 22 12 22C12.3451 22 12.6784 21.9834 13 21.9516" stroke="black" stroke-width="2" stroke-linecap="round" stroke-linejoin="round"/>
</svg>
