<svg width="24" height="24" viewBox="0 0 24 24" fill="none" xmlns="http://www.w3.org/2000/svg">
<path d="M8.00125 17V16C8.00125 13.7909 9.79211 12 12.0013 12C14.2104 12 16.0013 13.7909 16.0013 16V17H8.00125ZM8.00125 17V18C8.00125 20.2092 9.79211 22 12.0013 22C13.4818 22 14.7745 21.1956 15.4661 20M4.02148 10C4.10386 10.9054 4.48267 11.9654 6.0022 13C6.72605 11.4907 7.33233 10.7957 9.00125 10C5.57309 9.12405 7.16747 5.72917 9.00125 2.00004C7.18715 3.51321 5.8377 5.10243 5.00084 6.53259M15.0004 2C16.8342 5.72913 18.4286 9.12401 15.0004 10C16.6694 10.7957 17.2756 11.4906 17.9995 13C19.8089 11.7679 20.0008 10.5 20.0008 9.5C20.0008 7.65194 18.2428 4.70451 15.0004 2Z" stroke="black" stroke-width="2" stroke-linecap="round" stroke-linejoin="round"/>
</svg>
