<svg width="24" height="24" viewBox="0 0 24 24" fill="none" xmlns="http://www.w3.org/2000/svg">
<path d="M21 3C16.3925 5.01084 13.8489 6.90821 12 10.2001M21 3C17.9392 9.48566 15.9686 11.3144 12 10.2001M21 3C17.6587 2.99998 15.1673 3.30901 13.5258 4M21 3C21 9.61098 19.8411 14.0693 17.659 17M10 15C10.6132 13.1029 11.2494 11.5366 12 10.2001M12 10.2001C10.4827 7.04413 10.9913 5.06684 13.5258 4M13.5258 4H10M6 4H5C3.89543 4 2.99436 4.89618 3.03815 5.99988C3.39245 14.9308 6.20449 18.7029 11.0469 20.6485C11.6579 20.894 12.3424 20.8963 12.9493 20.6409C13.6795 20.3337 14.3636 19.9693 15 19.5411" stroke="black" stroke-width="2" stroke-linecap="round" stroke-linejoin="round"/>
</svg>
