<svg width="24" height="24" viewBox="0 0 24 24" fill="none" xmlns="http://www.w3.org/2000/svg">
<path fill-rule="evenodd" clip-rule="evenodd" d="M11.9989 3C11.1831 3 10.3979 3.13996 9.66727 3.398C9.14651 3.58192 8.87344 4.15318 9.05736 4.67394C9.24128 5.1947 9.81254 5.46777 10.3333 5.28385C10.853 5.10031 11.4132 5 11.9989 5C14.7603 5 16.9989 7.23858 16.9989 10C16.9989 10.7124 16.8505 11.3883 16.5832 12H15.9989C15.1135 12 14.2667 12.1645 13.4872 12.4643C13.9397 12.1498 14.2498 11.6432 14.2498 11.0312C14.2498 9.9874 13.3475 9.25 12.3748 9.25H11.6248C11.3549 9.25 11.2498 9.06399 11.2498 8.96875C11.2498 8.87351 11.3549 8.6875 11.6248 8.6875H11.9998H13.4998C13.914 8.6875 14.2498 8.35171 14.2498 7.9375C14.2498 7.52329 13.914 7.1875 13.4998 7.1875H12.7472C12.7154 6.80253 12.3929 6.5 11.9998 6.5C11.5942 6.5 11.2639 6.82185 11.2502 7.22405C10.4323 7.38472 9.74977 8.06081 9.74977 8.96875C9.74977 10.0126 10.652 10.75 11.6248 10.75H12.3748C12.6446 10.75 12.7498 10.936 12.7498 11.0312C12.7498 11.1265 12.6446 11.3125 12.3748 11.3125H11.9998H10.4998C10.0856 11.3125 9.74977 11.6483 9.74977 12.0625C9.74977 12.4767 10.0856 12.8125 10.4998 12.8125H11.2523C11.2765 13.105 11.4685 13.35 11.7318 13.4507C11.2786 13.7998 10.8693 14.203 10.5139 14.6506C9.87497 14.1108 9.13731 13.683 8.33115 13.3982C7.50341 12.5054 6.99891 11.3124 6.99891 10C6.99891 9.08762 7.24237 8.23514 7.66721 7.50073C7.94375 7.02267 7.78039 6.41094 7.30233 6.13439C6.82427 5.85785 6.21254 6.02121 5.936 6.49927C5.33981 7.5299 4.99891 8.72666 4.99891 10C4.99891 11.0733 5.24088 12.0907 5.67282 13H2.49891C1.69362 13 0.947613 13.6702 1.02282 14.582C1.31924 18.1762 4.3288 21 7.99891 21H9.99891H15.9989C16.3958 21 16.7858 20.9669 17.166 20.903C17.7106 20.8115 18.078 20.2958 17.9865 19.7511C17.895 19.2065 17.3793 18.8391 16.8346 18.9306C16.5635 18.9762 16.2844 19 15.9989 19H10.9989C10.9989 18.1677 11.2015 17.3856 11.5592 16.6976L10.7878 16.2965L11.5592 16.6976C11.6097 16.6003 11.6634 16.505 11.72 16.4116L10.9978 15.9735L11.72 16.4116C12.5981 14.9638 14.1864 14 15.9989 14H17.1962H20.9989C20.9989 15.2681 20.5281 16.4238 19.7503 17.3057C19.385 17.7199 19.4246 18.3518 19.8388 18.7171C20.253 19.0825 20.8849 19.0429 21.2503 18.6287C22.3379 17.3955 22.9989 15.7737 22.9989 14V13.5C22.9989 12.6716 22.3273 12 21.4989 12H18.7088C18.8976 11.3658 18.9989 10.6943 18.9989 10C18.9989 6.13401 15.8649 3 11.9989 3ZM12.7482 12.7992C12.7736 12.7858 12.799 12.7726 12.8246 12.7596C12.7996 12.7655 12.7746 12.771 12.7493 12.7759C12.7491 12.7837 12.7487 12.7915 12.7482 12.7992ZM7.48664 15.2248C8.24738 15.4615 8.93148 15.8758 9.48984 16.4204C9.17291 17.2196 8.99891 18.0904 8.99891 19H7.99891C5.5801 19 3.5617 17.2819 3.09878 15H5.99891C6.51857 15 7.01792 15.0789 7.48664 15.2248Z" fill="black"/>
</svg>
