<svg width="24" height="24" viewBox="0 0 24 24" fill="none" xmlns="http://www.w3.org/2000/svg">
<path d="M2.50038 11.3753C2.20821 11.7405 2.20821 12.2595 2.50038 12.6247L5.64445 16.5548C5.76255 16.7024 6.00062 16.6189 6.00062 16.4298V7.57016C6.00062 7.3811 5.76255 7.29759 5.64445 7.44522L5 8.25078M21.5009 11.3753L18.3568 7.44522C18.2387 7.29759 18.0006 7.3811 18.0006 7.57016V16.4298C18.0006 16.6189 18.2387 16.7024 18.3568 16.5548L21.5009 12.6247C21.793 12.2595 21.793 11.7405 21.5009 11.3753ZM8.48347 5H15.5178C15.696 5 15.7852 5.21543 15.6592 5.34142L12.7077 8.29289C12.3172 8.68342 11.684 8.68342 11.2935 8.29289L8.34205 5.34142C8.21605 5.21543 8.30529 5 8.48347 5ZM8.48347 19H15.5178C15.696 19 15.7852 18.7846 15.6592 18.6586L12.7077 15.7071C12.3172 15.3166 11.684 15.3166 11.2935 15.7071L8.34205 18.6586C8.21605 18.7846 8.30529 19 8.48347 19Z" stroke="black" stroke-width="2" stroke-linecap="round" stroke-linejoin="round"/>
</svg>
