<svg width="24" height="24" viewBox="0 0 24 24" fill="none" xmlns="http://www.w3.org/2000/svg">
<path fill-rule="evenodd" clip-rule="evenodd" d="M9.18146 4.53501C8.71873 3.97945 8.43396 3.60814 8.34723 3.18663C8.35399 3.17904 8.36456 3.16854 8.38048 3.15573C8.47818 3.07718 8.67172 3 8.89324 3H13.1068C13.3283 3 13.5218 3.07718 13.6195 3.15573C13.6354 3.16854 13.646 3.17904 13.6528 3.18663C13.566 3.60814 13.2813 3.97945 12.8185 4.53501L12.8001 4.55709C12.5964 4.80158 12.3445 5.10398 12.1494 5.42625C12.0914 5.52217 12.0345 5.62579 11.9827 5.73684H10.0173C9.96549 5.62579 9.90864 5.52217 9.85059 5.42625C9.65552 5.10398 9.40357 4.80159 9.19986 4.5571L9.18146 4.53501ZM9.92395 7.73684H12.076C12.1063 7.782 12.1372 7.82461 12.1679 7.86461C12.3738 8.13329 12.6379 8.37152 12.8925 8.57779C13.1519 8.788 13.4475 9.00126 13.7391 9.20943L13.8679 9.30122C14.1246 9.48424 14.3828 9.66822 14.6432 9.86436C15.8997 10.8105 16.8681 11.8014 16.9874 13.092C17.0382 13.6419 17.5252 14.0466 18.0751 13.9958C18.6251 13.9449 19.0297 13.4579 18.9789 12.908C18.7734 10.6835 17.1253 9.22981 15.8463 8.26671C15.5631 8.05343 15.2813 7.85261 15.0254 7.67021L14.9012 7.58166C14.6062 7.37105 14.3574 7.19061 14.1516 7.02386C13.9506 6.86102 13.8304 6.74249 13.7644 6.65969C13.7786 6.61513 13.8063 6.55122 13.8604 6.46189C13.9688 6.28274 14.1259 6.0904 14.3553 5.815L14.404 5.75667C14.8115 5.26866 15.426 4.53287 15.6173 3.56227C15.7845 2.71379 15.3978 2.0192 14.8727 1.59707C14.3746 1.19654 13.7225 1 13.1068 1H8.89324C8.2775 1 7.6254 1.19654 7.12725 1.59707C6.60225 2.0192 6.21552 2.71379 6.38274 3.56226C6.57404 4.53287 7.18849 5.26866 7.59603 5.75667L7.6447 5.815C7.87408 6.0904 8.03117 6.28274 8.13961 6.46189C8.19369 6.55124 8.22145 6.61515 8.23561 6.65972C8.22804 6.66917 8.21916 6.67984 8.20879 6.69176C8.09894 6.81802 7.91133 6.98189 7.61985 7.20207C7.17917 7.53497 7.09179 8.16207 7.42468 8.60276C7.75758 9.04344 8.38468 9.13082 8.82537 8.79793C9.13896 8.56103 9.46505 8.29484 9.71763 8.00455C9.78529 7.92679 9.85645 7.83738 9.92395 7.73684ZM13.7248 6.60316L13.7264 6.60627C13.7253 6.60418 13.7248 6.60315 13.7248 6.60316ZM8.27306 6.60719C8.27445 6.60475 8.27501 6.60354 8.27494 6.60355C8.27489 6.60356 8.27455 6.60413 8.27399 6.60526C8.27372 6.60579 8.27341 6.60643 8.27306 6.60719ZM5.94047 11.1296C6.30445 10.7142 6.26278 10.0825 5.8474 9.71848C5.43202 9.3545 4.80023 9.39617 4.43625 9.81155C3.64103 10.7191 3 11.8867 3 13.3684C3 16.6407 5.52055 21 11 21C11.5523 21 12 20.5523 12 20C12 19.4477 11.5523 19 11 19C6.85445 19 5 15.7804 5 13.3684C5 12.5146 5.35604 11.7966 5.94047 11.1296ZM8.38462 12.4559C8.38462 11.4363 9.08045 10.5972 10.008 10.3435C10.0705 9.8512 10.4908 9.47059 11 9.47059C11.4817 9.47059 11.8839 9.81119 11.9788 10.2647H12.6154C13.1677 10.2647 13.6154 10.7124 13.6154 11.2647C13.6154 11.817 13.1677 12.2647 12.6154 12.2647H11H10.5962C10.4633 12.2647 10.3846 12.3662 10.3846 12.4559C10.3846 12.5456 10.4633 12.6471 10.5962 12.6471H11.4038C12.6092 12.6471 13.6154 13.6122 13.6154 14.8382C13.6154 15.8578 12.9195 16.697 11.992 16.9507C11.9295 17.4429 11.5092 17.8235 11 17.8235C10.5183 17.8235 10.1161 17.4829 10.0212 17.0294H9.38462C8.83233 17.0294 8.38462 16.5817 8.38462 16.0294C8.38462 15.4771 8.83233 15.0294 9.38462 15.0294H11H11.4038C11.5367 15.0294 11.6154 14.9279 11.6154 14.8382C11.6154 14.7486 11.5367 14.6471 11.4038 14.6471H10.5962C9.3908 14.6471 8.38462 13.6819 8.38462 12.4559ZM14 19.5C14 21.433 15.567 23 17.5 23C19.433 23 21 21.433 21 19.5C21 17.567 19.433 16 17.5 16C15.567 16 14 17.567 14 19.5ZM17.5508 17.25C17.965 17.25 18.3008 17.5858 18.3008 18V19.25H18.5508C18.965 19.25 19.3008 19.5858 19.3008 20C19.3008 20.4142 18.965 20.75 18.5508 20.75H17.7174C17.2112 20.75 16.8008 20.3396 16.8008 19.8333V18C16.8008 17.5858 17.1366 17.25 17.5508 17.25Z" fill="black"/>
</svg>
