<svg width="24" height="24" viewBox="0 0 24 24" fill="none" xmlns="http://www.w3.org/2000/svg">
<path d="M6 5L7.14645 3.85355C7.46143 3.53857 8 3.76165 8 4.20711L8 11.5C8 12.3284 7.32843 13 6.5 13H4.5C3.67157 13 3 12.3284 3 11.5V9.24264C3 8.80977 3.09355 8.38655 3.26946 8M18 19L16.8536 20.1464C16.5386 20.4614 16 20.2383 16 19.7929V12.5C16 11.6716 16.6716 11 17.5 11H19.5C20.3284 11 21 11.6716 21 12.5V14.7574C21 15.1902 20.9064 15.6135 20.7305 16M11.5 16H4.20711C3.76165 16 3.53857 16.5386 3.85355 16.8536L7.12132 20.1213C7.68393 20.6839 8.44699 21 9.24264 21H11.5C12.3284 21 13 20.3284 13 19.5V17.5C13 16.6716 12.3284 16 11.5 16ZM12.5 8L19.7929 8C20.2383 8 20.4614 7.46143 20.1464 7.14645L16.8787 3.87868C16.3161 3.31607 15.553 3 14.7574 3H12.5C11.6716 3 11 3.67157 11 4.5V6.5C11 7.32843 11.6716 8 12.5 8Z" stroke="black" stroke-width="2" stroke-linecap="round" stroke-linejoin="round"/>
</svg>
