<svg width="24" height="24" viewBox="0 0 24 24" fill="none" xmlns="http://www.w3.org/2000/svg">
<path d="M3.33782 7C2.48697 8.47087 2 10.1786 2 12C2 17.5228 6.47715 22 12 22C12.3375 22 12.6711 21.9833 13 21.9506M6 3.99927C7.67132 2.74389 9.74879 2 12 2C17.5228 2 22 6.47715 22 12C22 15.7283 19.9597 18.9801 16.9346 20.6997M10.6687 18H13.3365V6H10.6687V18ZM6 15.3333C11.6691 15.3333 11.6691 11.6667 8.66781 8.66667H6C9.01841 11.7691 9.07754 13.3397 6 13.3333V15.3333ZM18 15.3333C12.3309 15.3333 12.3309 11.6667 15.3322 8.66667H18C14.9816 11.7691 14.9225 13.3397 18 13.3333V15.3333Z" stroke="black" stroke-width="2" stroke-linecap="round" stroke-linejoin="round"/>
</svg>
