<svg width="24" height="24" viewBox="0 0 24 24" fill="none" xmlns="http://www.w3.org/2000/svg">
<path d="M2.20004 10C2.06886 10.6462 2 11.3151 2 12C2 15.2712 3.57069 18.1755 5.99903 20M2.20004 10H21.8M2.20004 10C2.4177 8.92773 2.80692 7.91776 3.33782 7M21.8 10C21.9311 10.6462 22 11.3151 22 12C22 14.4815 21.0961 16.752 19.5996 18.5M21.8 10L5.99903 20M21.8 10C21.0829 6.46731 18.5035 3.61087 15.1312 2.5M5.99903 20C7.67051 21.2558 9.74835 22 12 22C12.6849 22 13.3538 21.9311 14 21.8M8 14L15.1312 2.5M15.1312 2.5C14.1462 2.17555 13.0936 2 12 2C9.96804 2 8.07791 2.60643 6.5 3.6477M15.1312 2.5L14 21.8M14 21.8C14.6956 21.6588 15.365 21.4454 16 21.1679" stroke="black" stroke-width="2" stroke-linecap="round" stroke-linejoin="round"/>
</svg>
