<svg width="24" height="24" viewBox="0 0 24 24" fill="none" xmlns="http://www.w3.org/2000/svg">
<path d="M4.02393 8C3.99889 8.34366 3.99135 8.70763 4.00025 9.09267C4.06648 12.3401 4.63213 13.5642 6.5 16.047C8 18.0781 6.72851 19.7843 3 18.2323C8.0718 22.2962 12.4568 22.1403 9.5 16.047C8.07361 13.1075 7.50865 11.5468 8 9.09267C8.20332 8.07715 9 7.0615 12.0003 7.0615C15.0005 7.0615 15.7972 8.07715 16.0005 9.09267C16.4919 11.5468 15.9269 13.1075 14.5005 16.047C11.5437 22.1403 15.9287 22.2962 21.0005 18.2323C17.272 19.7843 16.0005 18.0781 17.5005 16.047C17.7817 15.6732 18.0334 15.3279 18.2584 15M5.5 4.5461C6.74329 3.45594 8.82662 2.99957 12.0003 2.99951C18.0005 2.99963 20.1034 4.63083 20.0003 9.09267C19.9855 9.81696 19.9459 10.4406 19.8725 11" stroke="black" stroke-width="2" stroke-linecap="round" stroke-linejoin="round"/>
</svg>
