<svg width="24" height="24" viewBox="0 0 24 24" fill="none" xmlns="http://www.w3.org/2000/svg">
<path d="M16.5 7.5C16.5 5.01472 14.4853 3 12 3C9.51472 3 7.5 5.01472 7.5 7.5M16.5 7.5C16.5 9.98528 14.4853 12 12 12M16.5 7.5C18.9853 7.5 21 9.51472 21 12C21 14.4853 18.9853 16.5 16.5 16.5M16.5 7.5H7.5M12 12C9.51472 12 7.5 9.98528 7.5 7.5M12 12C14.4853 12 16.5 14.0147 16.5 16.5M12 12C9.51472 12 7.5 14.0147 7.5 16.5M7.5 7.5C6.97405 7.5 6.46917 7.59023 6 7.75606M16.5 16.5H7.5M16.5 16.5C16.5 17.4251 16.2209 18.285 15.7422 19M7.5 16.5C7.5 18.9853 9.51472 21 12 21C12.3437 21 12.6784 20.9615 13 20.8885M7.5 16.5C5.01472 16.5 3 14.4853 3 12C3 11.474 3.09023 10.9692 3.25606 10.5" stroke="black" stroke-width="2" stroke-linecap="round" stroke-linejoin="round"/>
</svg>
