<svg width="24" height="24" viewBox="0 0 24 24" fill="none" xmlns="http://www.w3.org/2000/svg">
<path d="M15.1194 20.7675C14.7524 20.9306 14.3325 20.7995 14.0753 20.491L12.7677 18.9219C12.3679 18.4421 11.6311 18.4421 11.2313 18.9219L9.92369 20.491C9.66656 20.7995 9.24666 20.9306 8.87959 20.7675C7.82598 20.2996 6.81908 19.4954 5.99355 18.7127C5.79315 18.5227 5.79384 18.2057 5.9891 18.0104L8.41372 15.5858C8.78879 15.2107 9.2975 15 9.82794 15H14.1711C14.7015 15 15.2102 15.2107 15.5853 15.5858L18.0099 18.0104C18.2052 18.2057 18.2059 18.5227 18.0055 18.7127M5.29119 6C4.18068 7.24075 3.40934 8.79143 3.12289 10.5063C2.98641 11.3234 3.67108 12 4.49951 12H6.99951C7.55179 12 7.98668 11.5453 8.12293 11.0101C8.56345 9.27976 10.132 8 11.9995 8C13.867 8 15.4356 9.27976 15.8761 11.0101C16.0123 11.5453 16.4472 12 16.9995 12H19.4995C20.3279 12 21.0126 11.3234 20.8761 10.5063C20.1646 6.24662 16.4612 3 11.9995 3C10.9478 3 9.9382 3.1804 9 3.51194" stroke="black" stroke-width="2" stroke-linecap="round" stroke-linejoin="round"/>
</svg>
