<svg width="24" height="24" viewBox="0 0 24 24" fill="none" xmlns="http://www.w3.org/2000/svg">
<path d="M3.5 9.03451C3.17607 9.96308 3 10.961 3 12C3 16.9706 7.02944 21 12 21C12.338 21 12.6717 20.9814 13 20.9451M3.5 9.03451C5.58515 13.7046 8.5 14.5347 12 12C15.5 9.46529 18.2457 9.75643 20.4879 15M3.5 9.03451C3.74975 8.31858 4.08739 7.64388 4.5 7.02331M20.4879 15C20.8195 14.0617 21 13.0519 21 12C21 7.02944 16.9706 3 12 3C10.3607 3 8.82378 3.43827 7.5 4.20404M20.4879 15C19.8357 16.8452 18.5989 18.4142 17 19.4845" stroke="black" stroke-width="2" stroke-linecap="round" stroke-linejoin="round"/>
</svg>
