<svg width="24" height="24" viewBox="0 0 24 24" fill="none" xmlns="http://www.w3.org/2000/svg">
<path d="M7.84856 13.0588C8.63924 10.8882 10 9.5 10 9.5C10 9.5 12.5344 8.94781 13.2723 10.2353C14.4609 12.3091 9.39693 13.9303 7.84856 13.0588ZM7.84856 13.0588C6.97233 15.4643 6.48788 18 8.33969 18C9.71554 18 11.1582 15.8824 11.1582 15.8824C11.1582 15.8824 17.5 13.7647 17.5 10.2353C17.5 6.70588 13.4143 6 11.8631 6C6.00025 6 4.78775 11.336 7.84856 13.0588ZM3.33782 7C2.48697 8.47087 2 10.1786 2 12C2 17.5228 6.47715 22 12 22C12.3375 22 12.6711 21.9833 13 21.9506M6 3.99927C7.67132 2.74389 9.74879 2 12 2C17.5228 2 22 6.47715 22 12C22 15.7014 19.989 18.9331 17 20.6622" stroke="black" stroke-width="2" stroke-linecap="round" stroke-linejoin="round"/>
</svg>
