<svg width="24" height="24" viewBox="0 0 24 24" fill="none" xmlns="http://www.w3.org/2000/svg">
<path d="M2 15L3.5 10.5M3.5 10.5L5.07692 6H6.91886C7.9427 6 8.66565 7.00305 8.34189 7.97434L7.95585 9.13246C7.68362 9.94914 6.91934 10.5 6.05848 10.5H3.5ZM19 18C18.2716 18 17.607 17.9759 17 17.924M11.7901 15.2972C11.3499 14.5532 11.0353 13.6306 10.7949 12.5M11.7901 15.2972L10.7949 16.1677C7.5641 18.5 5.0641 13.6962 10.7949 12.5M11.7901 15.2972L12.8462 14.3734M11.7901 15.2972C12.1171 15.8499 12.5134 16.3041 13 16.6719M10.7949 12.5C10.2416 10.6856 10.0641 9.37449 11.8205 8.9905C14.0641 8.5 14.0392 11.8228 10.7949 12.5ZM21.4872 7.1962C21 6 19.5942 6.05553 18.4103 7.1962C15.5 10 14.5 15 18.4103 15C20.3599 14.7373 21 13 20.7179 10.7848M19.5 11L20.7179 10.7848M20.7179 10.7848L22 10.5" stroke="black" stroke-width="2" stroke-linecap="round" stroke-linejoin="round"/>
</svg>
