<svg width="24" height="24" viewBox="0 0 24 24" fill="none" xmlns="http://www.w3.org/2000/svg">
<path d="M6 20C4.15875 18.3214 3 15.8821 3 13.1671C3 11.2505 3.57748 9.47121 4.56488 8M15 16.2228L12 14.1857C12 14.1857 15.5 14.1857 15.5 12.1485C15.5 10.6207 14.2091 9.09284 12 9.09284C9.79086 9.09284 8 10.917 8 13.1671C8 15.4173 9 18.26 12 19.2785C12.577 19.4744 13.265 19.5562 14 19.5244M7.5 5.2264C8.82378 4.44641 10.3607 4 12 4C16.9706 4 21 8.10426 21 13.1671C21 15.5273 19.6961 17.2365 18 18.2855" stroke="black" stroke-width="2" stroke-linecap="round" stroke-linejoin="round"/>
</svg>
