<svg width="24" height="24" viewBox="0 0 24 24" fill="none" xmlns="http://www.w3.org/2000/svg">
<path d="M4.5 7.02331C3.55223 8.44877 3 10.1599 3 12C3 16.9706 7.02944 21 12 21C12.338 21 12.6717 20.9814 13 20.9451M7.5 4.20404C8.82378 3.43827 10.3607 3 12 3C16.9706 3 21 7.02944 21 12C21 15.1204 19.412 17.8699 17 19.4845M12 15C10.3431 15 9 13.6569 9 12C9 10.3431 10.3431 9 12 9C13.6569 9 15 10.3431 15 12C15 13.6569 13.6569 15 12 15ZM12 13C11.4477 13 11 12.5523 11 12C11 11.4477 11.4477 11 12 11C12.5523 11 13 11.4477 13 12C13 12.5523 12.5523 13 12 13Z" stroke="black" stroke-width="2" stroke-linecap="round" stroke-linejoin="round"/>
</svg>
