<svg width="24" height="24" viewBox="0 0 24 24" fill="none" xmlns="http://www.w3.org/2000/svg">
<path d="M7 12.5656C12.1911 15.0591 19.1402 13.4058 22 7.6056C20.8603 5.8322 20.0073 5.06737 18 4C17.9997 7.64764 18.1424 9.96346 17 11.4344M7 12.5656C5.85757 14.0365 6.00031 16.3524 6 20C3.99264 18.9326 3.13973 18.1678 2 16.3944C6 8.28163 18 8.28169 22 16.3944C20.8603 18.1678 20.0073 18.9326 18 20C17.9999 19.2831 18.0054 18.6177 18.0055 18M7 12.5656C6.1468 12.1557 5.3411 11.6339 4.60884 11M17 12.5656C17.3178 12.9748 17.5362 13.4495 17.6858 14M7 11.4344C5.85757 9.96346 6.00031 7.64764 6 4C3.99264 5.06737 3.13973 5.8322 2 7.6056C2.06591 7.73927 2.13398 7.87074 2.20416 8" stroke="black" stroke-width="2" stroke-linecap="round" stroke-linejoin="round"/>
</svg>
