<svg width="24" height="24" viewBox="0 0 24 24" fill="none" xmlns="http://www.w3.org/2000/svg">
<path d="M9 9.75H7.5M7.5 9.75H7.125C6.50368 9.75 6 10.2537 6 10.875C6 11.4963 6.50368 12 7.125 12H7.875C8.49632 12 9 12.5037 9 13.125C9 13.7463 8.49632 14.25 7.875 14.25H7.5M7.5 9.75V9M7.5 14.25H6M7.5 14.25V15M18 12H18.01M6 6L5 6C3.34315 6 2 7.34315 2 9V15C2 16.6569 3.34315 18 5 18H15.5858C16.6467 18 17.6641 17.5786 18.4142 16.8284L21.1213 14.1213C21.7071 13.5355 22 12.7678 22 12C22 11.2322 21.7071 10.4645 21.1213 9.87868L18.4142 7.17157C17.6641 6.42143 16.6467 6 15.5858 6L10 6" stroke="black" stroke-width="2" stroke-linecap="round" stroke-linejoin="round"/>
</svg>
