<svg width="24" height="24" viewBox="0 0 24 24" fill="none" xmlns="http://www.w3.org/2000/svg">
<path d="M5.00002 6.34267L9.00002 20.4879M5.00002 6.34267C6.03609 5.06229 7.41634 4.07187 9.00002 3.51212M5.00002 6.34267C4.47369 6.9931 4.03617 7.71836 3.70593 8.5M9.00002 20.4879C9.93835 20.8195 10.9481 21 12 21C13.0519 21 14.0617 20.8195 15 20.4879M9.00002 20.4879L15 3.51212M9.00002 20.4879C5.6541 19.3053 3.21629 16.2003 3.01367 12.5M19 6.34267C18.1886 5.3399 17.1661 4.51499 16 3.93552C15.6772 3.7751 15.3434 3.63348 15 3.51212M19 6.34267C20.2508 7.88839 21 9.8567 21 12C21 15.9187 18.4956 19.2524 15 20.4879M19 6.34267L17.4002 12M15 20.4879L9.00002 3.51212M15 20.4879L16.2691 16M9.00002 3.51212C9.93835 3.18046 10.9481 3 12 3C13.0519 3 14.0617 3.18046 15 3.51212" stroke="black" stroke-width="2" stroke-linecap="round" stroke-linejoin="round"/>
</svg>
