<svg width="24" height="24" viewBox="0 0 24 24" fill="none" xmlns="http://www.w3.org/2000/svg">
<path d="M4.52278 6L4.1441 5.71436L5.71545 4.14301L9 8.5L8.5 9L7.5 8.2457M17.5 12.6528L16 12.5V11.5L22 10.8889V13.1111L21.25 13.0347M10.8889 2H13.1111L12.5 8H11.5L10.8889 2ZM10.8889 22H13.1111L12.5 16H11.5L10.8889 22ZM2 13.1111V10.8889L8 11.5V12.5L2 13.1111ZM18.2862 19.8565L19.8576 18.2851L15.5 15L15 15.5L18.2862 19.8565ZM5.71545 19.8565L4.1441 18.2851L8.5 15L9 15.5L5.71545 19.8565ZM19.8576 5.71436L18.2862 4.14301L15 8.5L15.5 9L19.8576 5.71436Z" stroke="black" stroke-width="2" stroke-linecap="round" stroke-linejoin="round"/>
</svg>
