<svg width="24" height="24" viewBox="0 0 24 24" fill="none" xmlns="http://www.w3.org/2000/svg">
<path d="M11.9837 18.6109C11.9816 19.332 11.5914 19.9962 10.9625 20.3491L8.76321 21.5833C8.43034 21.7701 8.01937 21.5301 8.01852 21.1484L8.00174 13.646C8.00079 13.2202 7.90919 12.7994 7.73303 12.4117L4.28693 4.82734C3.68526 3.50315 4.65335 1.99998 6.10782 2M21.0003 5.99995V4.00016C21.0003 2.8956 20.1049 2.00017 19.0003 2.00016H10.1496L13.8944 2.00013C15.3489 2.00015 16.317 3.50357 15.715 4.82776L12.2673 12.4126C12.0913 12.7997 11.9997 13.2199 11.9984 13.6452L11.9959 14.5" stroke="black" stroke-width="2" stroke-linecap="round" stroke-linejoin="round"/>
</svg>
