<svg width="24" height="24" viewBox="0 0 24 24" fill="none" xmlns="http://www.w3.org/2000/svg">
<path d="M17.4943 16.0004L17.0004 16.0004C15.8957 16.0001 15 16.8956 15 18.0004L15 19.0001C15 20.1046 15.8953 21 16.9998 21.0001L17.9998 21.0002C19.1045 21.0003 20 20.1049 20 19.0002L20 18.0004C20 16.8959 19.1045 16.0004 18 16.0004L17.4943 16.0004ZM17.4943 16.0004L17.4943 7.99951M6.5 7.99999L6.5 15.9995M6.5 21L6.5 19.9995M17.4943 3.00044L17.4943 3.99951M6 7.9995L7 7.9995C8.10457 7.9995 9 7.10407 9 5.9995L9 4.99951C9 3.89494 8.10457 2.99951 7 2.99951L6 2.99951C4.89543 2.99951 4 3.89494 4 4.99951L4 5.9995C4 7.10407 4.89543 7.9995 6 7.9995Z" stroke="black" stroke-width="2" stroke-linecap="round" stroke-linejoin="round"/>
</svg>
