<svg width="24" height="24" viewBox="0 0 24 24" fill="none" xmlns="http://www.w3.org/2000/svg">
<path d="M5 21C6.10457 21 7 20.1046 7 19C7 17.8954 6.10457 17 5 17C4.06808 17 3.28503 17.6374 3.06301 18.5M19 10C17.8954 10 17 10.8954 17 12C17 13.1046 17.8954 14 19 14C19.9319 14 20.715 13.3626 20.937 12.5M5 7C6.10457 7 7 6.10457 7 5C7 3.89543 6.10457 3 5 3C4.06808 3 3.28503 3.63739 3.06301 4.5M11 19H21M13 12H3M11 5L21 5" stroke="black" stroke-width="2" stroke-linecap="round" stroke-linejoin="round"/>
</svg>
