<svg width="24" height="24" viewBox="0 0 24 24" fill="none" xmlns="http://www.w3.org/2000/svg">
<path d="M7 19C7 17.8954 6.10457 17 5 17C3.89543 17 3 17.8954 3 19C3 19.9319 3.63739 20.715 4.5 20.937M10 5C10 6.10457 10.8954 7 12 7C13.1046 7 14 6.10457 14 5C14 4.06808 13.3626 3.28503 12.5 3.06301M21 19C21 17.8954 20.1046 17 19 17C17.8954 17 17 17.8954 17 19C17 19.9319 17.6374 20.715 18.5 20.937M19 3L19 13M12 21V11M5 3L5 13" stroke="black" stroke-width="2" stroke-linecap="round" stroke-linejoin="round"/>
</svg>
