<svg width="24" height="24" viewBox="0 0 24 24" fill="none" xmlns="http://www.w3.org/2000/svg">
<path d="M13.1111 8.94444C13.1111 7.87056 13.9817 7 15.0556 7C16.1294 7 17 7.87056 17 8.94444C17 10.0183 16.1294 10.8889 15.0556 10.8889C13.9817 10.8889 13.1111 10.0183 13.1111 8.94444ZM13.1111 8.94444H7M10.8889 15.0556C10.8889 16.1294 10.0183 17 8.94444 17C7.87056 17 7 16.1294 7 15.0556C7 13.9817 7.87056 13.1111 8.94444 13.1111C10.0183 13.1111 10.8889 13.9817 10.8889 15.0556ZM10.8889 15.0556H17M2.04938 11C2.01672 11.3289 2 11.6625 2 12C2 17.5228 6.47715 22 12 22C12.3375 22 12.6711 21.9833 13 21.9506M3.33782 7C5.06687 4.01099 8.29859 2 12 2C17.5228 2 22 6.47715 22 12C22 15.7014 19.989 18.9331 17 20.6622" stroke="black" stroke-width="2" stroke-linecap="round" stroke-linejoin="round"/>
</svg>
