<svg width="24" height="24" viewBox="0 0 24 24" fill="none" xmlns="http://www.w3.org/2000/svg">
<path d="M19 21C17.8954 21 17 20.1046 17 19C17 17.8954 17.8954 17 19 17C19.9319 17 20.715 17.6374 20.937 18.5M5 10C6.10457 10 7 10.8954 7 12C7 13.1046 6.10457 14 5 14C4.06808 14 3.28503 13.3626 3.06301 12.5M19 7C17.8954 7 17 6.10457 17 5C17 3.89543 17.8954 3 19 3C19.9319 3 20.715 3.63739 20.937 4.5M13 19H3M11 12H21M13 5L3 5" stroke="black" stroke-width="2" stroke-linecap="round" stroke-linejoin="round"/>
</svg>
