<svg width="24" height="24" viewBox="0 0 24 24" fill="none" xmlns="http://www.w3.org/2000/svg">
<path d="M16.9998 21.0001C15.8953 21 15 20.1046 15 19.0001L15 18.0004C15 16.8956 15.8957 16.0001 17.0004 16.0004L18 16.0004C19.1045 16.0004 20 16.8959 20 18.0004L20 19.0002M6.51618 12L6.5 21M17.4943 12L17.4943 3.00044M7 2.99951C8.10457 2.99951 9 3.89494 9 4.99951L9 5.9995C9 7.10407 8.10457 7.9995 7 7.9995L6 7.9995C4.89543 7.9995 4 7.10407 4 5.9995L4 4.99951" stroke="black" stroke-width="2" stroke-linecap="round" stroke-linejoin="round"/>
</svg>
