<svg width="24" height="24" viewBox="0 0 24 24" fill="none" xmlns="http://www.w3.org/2000/svg">
<path d="M10.8889 8.94444C10.8889 7.87056 10.0183 7 8.94444 7C7.87056 7 7 7.87056 7 8.94444C7 10.0183 7.87056 10.8889 8.94444 10.8889C10.0183 10.8889 10.8889 10.0183 10.8889 8.94444ZM10.8889 8.94444H17M13.1111 15.0556C13.1111 16.1294 13.9817 17 15.0556 17C16.1294 17 17 16.1294 17 15.0556C17 13.9817 16.1294 13.1111 15.0556 13.1111C13.9817 13.1111 13.1111 13.9817 13.1111 15.0556ZM13.1111 15.0556H7M2.04938 11C2.01672 11.3289 2 11.6625 2 12C2 17.5228 6.47715 22 12 22C12.3375 22 12.6711 21.9833 13 21.9506M3.33782 7C5.06687 4.01099 8.29859 2 12 2C17.5228 2 22 6.47715 22 12C22 15.7014 19.989 18.9331 17 20.6622" stroke="black" stroke-width="2" stroke-linecap="round" stroke-linejoin="round"/>
</svg>
