<svg width="24" height="24" viewBox="0 0 24 24" fill="none" xmlns="http://www.w3.org/2000/svg">
<path d="M6.50571 16.0004L6.99962 16.0004C8.10434 16.0001 9 16.8956 9 18.0004L9 19.0001C9 20.1046 8.10468 21 7.00017 21.0001L6.00017 21.0002C4.89554 21.0003 4 20.1049 4 19.0002L4 18.0004C4 16.8959 4.89545 16.0004 6.00003 16.0004L6.50571 16.0004ZM6.50571 16.0004L6.50571 7.99951M17.5 7.99999L17.5 15.9995M17.5 21L17.5 19.9995M6.50571 3.00044L6.50571 3.99951M18 7.9995L17 7.9995C15.8954 7.9995 15 7.10407 15 5.9995L15 4.99951C15 3.89494 15.8954 2.99951 17 2.99951L18 2.99951C19.1046 2.99951 20 3.89494 20 4.99951L20 5.9995C20 7.10407 19.1046 7.9995 18 7.9995Z" stroke="black" stroke-width="2" stroke-linecap="round" stroke-linejoin="round"/>
</svg>
