<svg width="24" height="24" viewBox="0 0 24 24" fill="none" xmlns="http://www.w3.org/2000/svg">
<path d="M12 17.7639C12 18.5215 11.572 19.214 10.8944 19.5528L8.72361 20.6382C8.39116 20.8044 8 20.5627 8 20.191L8 14.4482C8 13.5125 7.67194 12.6063 7.07289 11.8875L3.69534 7.8344C3.24605 7.29526 3 6.61566 3 5.91385V5C3 3.89543 3.89543 3 5 3H6M21 7V5C21 3.89543 20.1046 3 19 3H15M15 3C16.1046 3 17 3.89543 17 5V5.91385C17 6.61566 16.7539 7.29526 16.3047 7.8344L12.9271 11.8875C12.4968 12.4039 12.2062 13.017 12.0768 13.6683M15 3H10" stroke="black" stroke-width="2" stroke-linecap="round" stroke-linejoin="round"/>
</svg>
