<svg width="24" height="24" viewBox="0 0 24 24" fill="none" xmlns="http://www.w3.org/2000/svg">
<path d="M7.00017 21.0001C8.10468 21 9 20.1046 9 19.0001L9 18.0004C9 16.8956 8.10434 16.0001 6.99962 16.0004L6.00003 16.0004C4.89545 16.0004 4 16.8959 4 18.0004L4 19.0002M17.4838 12L17.5 21M6.50571 12L6.50571 3.00044M17 2.99951C15.8954 2.99951 15 3.89494 15 4.99951L15 5.9995C15 7.10407 15.8954 7.9995 17 7.9995L18 7.9995C19.1046 7.9995 20 7.10407 20 5.9995L20 4.99951" stroke="black" stroke-width="2" stroke-linecap="round" stroke-linejoin="round"/>
</svg>
