<svg width="24" height="24" viewBox="0 0 24 24" fill="none" xmlns="http://www.w3.org/2000/svg">
<path d="M15 10.7495H14.375C13.6846 10.7495 13.125 10.1899 13.125 9.49951V8.24951C13.125 7.55916 13.6846 6.99951 14.375 6.99951H15.625C16.3154 6.99951 16.875 7.55916 16.875 8.24951V9.49951C16.875 10.1899 16.3154 10.7495 15.625 10.7495H15ZM15 10.7495V16.9995M9.125 13.2495H9.75C10.4404 13.2495 11 13.8092 11 14.4995V15.7495C11 16.4399 10.4404 16.9995 9.75 16.9995H8.5C7.80964 16.9995 7.25 16.4399 7.25 15.7495V14.4995C7.25 13.8092 7.80964 13.2495 8.5 13.2495H9.125ZM9.125 13.2495V6.99951M2.04938 11C2.01672 11.3289 2 11.662 2 11.9995C2 17.5224 6.47715 21.9995 12 21.9995C12.3375 21.9995 12.6711 21.9833 13 21.9506M3.33782 7C5.06687 4.01099 8.29859 1.99951 12 1.99951C17.5228 1.99951 22 6.47666 22 11.9995C22 15.7009 19.989 18.9331 17 20.6622" stroke="black" stroke-width="2" stroke-linecap="round" stroke-linejoin="round"/>
</svg>
