<svg width="24" height="24" viewBox="0 0 24 24" fill="none" xmlns="http://www.w3.org/2000/svg">
<path d="M3 5C3 6.10457 3.89543 7 5 7C6.10457 7 7 6.10457 7 5C7 4.06808 6.36261 3.28503 5.5 3.06301M14 19C14 17.8954 13.1046 17 12 17C10.8954 17 10 17.8954 10 19C10 19.9319 10.6374 20.715 11.5 20.937M17 5C17 6.10457 17.8954 7 19 7C20.1046 7 21 6.10457 21 5C21 4.06808 20.3626 3.28503 19.5 3.06301M19 21L19 11M12 3V13M5 21L5 11" stroke="black" stroke-width="2" stroke-linecap="round" stroke-linejoin="round"/>
</svg>
