<svg width="24" height="24" viewBox="0 0 24 24" fill="none" xmlns="http://www.w3.org/2000/svg">
<path d="M5 6.99981L6 6.28553M19 6.99981L13.7437 3.24532C12.7006 2.50026 11.2994 2.50026 10.2563 3.24532L9.19974 4M6 15.9998V13.9998C6 12.343 7.34315 10.9998 9 10.9998H10M6 15.9998V18.9998C6 20.6567 7.34315 21.9998 9 21.9998H15C16.6569 21.9998 18 20.6567 18 18.9998V15.9998M6 15.9998H8M18 15.9998V13.9998C18 12.343 16.6569 10.9998 15 10.9998H14M18 15.9998L12 16M10 10.9998V9.99981M10 10.9998H14M14 10.9998V9.99981" stroke="black" stroke-width="2" stroke-linecap="round" stroke-linejoin="round"/>
</svg>
