<svg width="24" height="24" viewBox="0 0 24 24" fill="none" xmlns="http://www.w3.org/2000/svg">
<path d="M2 17L4.58579 19.5858C5.36684 20.3668 6.63317 20.3668 7.41421 19.5858L10 17M21.25 5V7.5C21.25 8.60457 20.3546 9.5 19.25 9.5H16.75C15.6454 9.5 14.75 8.60457 14.75 7.5V5C14.75 3.89543 15.6454 3 16.75 3L18 3.00019M6 4V3M6 16V8M14.8549 15.4961L17.1318 19.4806C17.5157 20.1524 18.4843 20.1524 18.8682 19.4806L21.1451 15.4961C21.526 14.8295 21.0446 14 20.2768 14H15.7232C14.9554 14 14.474 14.8295 14.8549 15.4961Z" stroke="black" stroke-width="2" stroke-linecap="round" stroke-linejoin="round"/>
</svg>
