<svg width="24" height="24" viewBox="0 0 24 24" fill="none" xmlns="http://www.w3.org/2000/svg">
<path d="M6.99953 16.4507H4.56C3.93112 16.4507 3.58149 17.1781 3.97435 17.6692L6.41388 20.7186C6.71413 21.0939 7.28494 21.0939 7.58518 20.7186L10.0247 17.6692C10.4176 17.1781 10.0679 16.4507 9.43906 16.4507H6.99953ZM6.99953 16.4507V8.45068M20.2495 5.45068V7.95068C20.2495 9.05525 19.3541 9.95068 18.2495 9.95068H15.7495C14.645 9.95068 13.7495 9.05525 13.7495 7.95068V5.45068C13.7495 4.34611 14.645 3.45068 15.7495 3.45068H16.9995M6.99953 4.45068V3.45068M13.8545 15.9468L16.1313 19.9313C16.5152 20.6031 17.4839 20.6031 17.8678 19.9313L20.1446 15.9468C20.5255 15.2802 20.0442 14.4507 19.2764 14.4507H14.7227C13.9549 14.4507 13.4735 15.2802 13.8545 15.9468Z" stroke="black" stroke-width="2" stroke-linecap="round" stroke-linejoin="round"/>
</svg>
