<svg width="24" height="24" viewBox="0 0 24 24" fill="none" xmlns="http://www.w3.org/2000/svg">
<path d="M2 7.00019L4.58579 4.4144C5.36684 3.63335 6.63317 3.63335 7.41421 4.4144L10 7.00019M21.25 19.0002V16.5002C21.25 15.3956 20.3546 14.5002 19.25 14.5002H16.75C15.6454 14.5002 14.75 15.3956 14.75 16.5002V19.0002C14.75 20.1048 15.6454 21.0002 16.75 21.0002L18 21M6 20.0002V21.0002M6 8.00019V16.0002M14.8549 8.50405L17.1318 4.51961C17.5157 3.8478 18.4843 3.8478 18.8682 4.51961L21.1451 8.50405C21.526 9.1707 21.0446 10.0002 20.2768 10.0002H15.7232C14.9554 10.0002 14.474 9.1707 14.8549 8.50405Z" stroke="black" stroke-width="2" stroke-linecap="round" stroke-linejoin="round"/>
</svg>
