<svg width="24" height="24" viewBox="0 0 24 24" fill="none" xmlns="http://www.w3.org/2000/svg">
<path d="M5.99984 15.9998V13.9998C5.99984 12.343 7.34299 10.9998 8.99984 10.9998H9.99984M5.99984 15.9998V18.9998C5.99984 20.6567 7.34299 21.9998 8.99984 21.9998H14.9998C16.6567 21.9998 17.9998 20.6567 17.9998 18.9998V15.9998M5.99984 15.9998H8M17.9998 15.9998V13.9998C17.9998 12.343 16.6567 10.9998 14.9998 10.9998H13.9998M17.9998 15.9998H12M9.99984 10.9998V9.99984M9.99984 10.9998H13.9998M13.9998 10.9998V9.99984M7.19959 5L4.73904 6.53784C4.52604 6.67096 4.62037 6.99984 4.87154 6.99984H19.1281C19.3793 6.99984 19.4736 6.67096 19.2606 6.53784L12.3973 2.24828C12.1541 2.09628 11.8455 2.09628 11.6023 2.24828L10.5 2.93724" stroke="black" stroke-width="2" stroke-linecap="round" stroke-linejoin="round"/>
</svg>
