<svg width="24" height="24" viewBox="0 0 24 24" fill="none" xmlns="http://www.w3.org/2000/svg">
<path d="M5.99984 16V14C5.99984 12.3431 7.34299 11 8.99984 11H9.99984M5.99984 16V19C5.99984 20.6569 7.34299 22 8.99984 22H14.9998C16.6567 22 17.9998 20.6569 17.9998 19V16M5.99984 16H8M17.9998 16V14C17.9998 12.3431 16.6567 11 14.9998 11H13.9998M17.9998 16H12M9.99984 11V10M9.99984 11H13.9998M13.9998 11V10M17 3.8749L19.2606 2.462C19.4736 2.32888 19.3793 2 19.1281 2H4.87154C4.62037 2 4.52604 2.32888 4.73904 2.462L11.6023 6.75156C11.8455 6.90356 12.1541 6.90356 12.3973 6.75156L13.5998 6" stroke="black" stroke-width="2" stroke-linecap="round" stroke-linejoin="round"/>
</svg>
