<svg width="24" height="24" viewBox="0 0 24 24" fill="none" xmlns="http://www.w3.org/2000/svg">
<path d="M6.99953 8.0001H4.56C3.93112 8.0001 3.58149 7.27265 3.97435 6.78158L6.41388 3.73216C6.71413 3.35686 7.28494 3.35686 7.58518 3.73216L10.0247 6.78158C10.4176 7.27265 10.0679 8.0001 9.43906 8.0001H6.99953ZM6.99953 8.0001V16.0001M20.2495 19.0001V16.5001C20.2495 15.3955 19.3541 14.5001 18.2495 14.5001H15.7495C14.645 14.5001 13.7495 15.3955 13.7495 16.5001V19.0001C13.7495 20.1047 14.645 21.0001 15.7495 21.0001H16.9995M6.99953 20.0001V21.0001M13.8545 8.50396L16.1313 4.51952C16.5152 3.84771 17.4839 3.84771 17.8678 4.51952L20.1446 8.50396C20.5255 9.17062 20.0442 10.0001 19.2764 10.0001H14.7227C13.9549 10.0001 13.4735 9.17062 13.8545 8.50396Z" stroke="black" stroke-width="2" stroke-linecap="round" stroke-linejoin="round"/>
</svg>
