<svg width="24" height="24" viewBox="0 0 24 24" fill="none" xmlns="http://www.w3.org/2000/svg">
<path d="M19 15.2944L22 12.2944" stroke="#667085" stroke-width="2" stroke-linecap="round" stroke-linejoin="round"/>
<path d="M19 15.2946C22 18.4234 10.7991 21.2644 9 19.4124C7.4379 17.8043 6.5621 16.9027 5 15.2946L2 12.2946M2 4.05908L9.28575 7.05908" stroke="black" stroke-width="2" stroke-linecap="round" stroke-linejoin="round"/>
<path d="M22 4.05888L18.2939 6.28254C17.5129 6.75117 16.5249 6.69557 15.8014 6.14227L15.5726 5.96736C14.066 4.81519 11.9641 4.85312 10.5 6.05888V6.05888L9.28575 7.05888L9.24686 7.09091C8.5754 7.6439 8.51938 8.65244 9.12548 9.27638V9.27638C9.63064 9.79642 10.4371 9.87669 11.0348 9.46645L13 8.11777" stroke="#667085" stroke-width="2" stroke-linecap="round" stroke-linejoin="round"/>
<path d="M13 8.11816C13 8.11816 16.6569 12.8827 19 15.2948" stroke="black" stroke-width="2" stroke-linecap="round" stroke-linejoin="round"/>
</svg>
