<svg width="24" height="24" viewBox="0 0 24 24" fill="none" xmlns="http://www.w3.org/2000/svg">
<path d="M19 15.2944C19.781 15.2944 22 15.2944 22 15.2944" stroke="#667085" stroke-width="2" stroke-linecap="round" stroke-linejoin="round"/>
<path d="M19 15.2946C22 18.4234 10.7991 21.2644 9 19.4124C7.4379 17.8043 6.5621 16.9027 5 15.2946H2M2 7.05908H9.28575" stroke="black" stroke-width="2" stroke-linecap="round" stroke-linejoin="round"/>
<path d="M22 7.05888H17.8851C17.311 7.05888 16.7529 6.86994 16.2969 6.52121L15.5726 5.96736C14.066 4.81519 11.9641 4.85312 10.5 6.05888V6.05888L9.28575 7.05888L9.24686 7.09091C8.5754 7.6439 8.51938 8.65244 9.12548 9.27638V9.27638C9.63064 9.79642 10.4371 9.87669 11.0348 9.46645L13 8.11777" stroke="#667085" stroke-width="2" stroke-linecap="round" stroke-linejoin="round"/>
<path d="M13 8.11816C13 8.11816 16.6569 12.8827 19 15.2948" stroke="black" stroke-width="2" stroke-linecap="round" stroke-linejoin="round"/>
</svg>
