<svg width="24" height="24" viewBox="0 0 24 24" fill="none" xmlns="http://www.w3.org/2000/svg">
<path d="M7 5V4C7 2.89543 7.89543 2 9 2H15C16.1046 2 17 2.89543 17 4V5" stroke="#667085" stroke-width="2" stroke-linecap="round" stroke-linejoin="round"/>
<path d="M10.4444 9.33333V9.88287C10.4444 10.4349 10.573 10.9793 10.8198 11.473L11.0858 12.0049C11.1755 12.1844 11.2222 12.3822 11.2222 12.5829C11.2222 13.0587 10.8365 13.4444 10.3606 13.4444H9.53704C8.9643 13.4444 8.5 13.9087 8.5 14.4815C8.5 14.7679 8.73215 15 9.01852 15H14.9815C15.2679 15 15.5 14.7679 15.5 14.4815C15.5 13.9087 15.0357 13.4444 14.463 13.4444H13.6394C13.1635 13.4444 12.7778 13.0587 12.7778 12.5829C12.7778 12.3822 12.8245 12.1844 12.9142 12.0049L13.1802 11.473C13.427 10.9793 13.5556 10.4349 13.5556 9.88287V9.33333C13.5556 8.59695 12.9586 8 12.2222 8H11.7778C11.0414 8 10.4444 8.59695 10.4444 9.33333Z" fill="#667085"/>
<path fill-rule="evenodd" clip-rule="evenodd" d="M5 4C2.79086 4 1 5.79086 1 8V9V19C1 21.2091 2.79086 23 5 23H19C21.2091 23 23 21.2091 23 19V9V8C23 5.79086 21.2091 4 19 4H17H7H5ZM3 19V12.4649C3.58835 12.8052 4.27143 13 5 13H6.08296C6.0284 12.6748 6 12.3407 6 12C6 11.6593 6.0284 11.3252 6.08296 11H5C3.89543 11 3 10.1046 3 9V8C3 6.89543 3.89543 6 5 6H7H12H17H19C20.1046 6 21 6.89543 21 8V9C21 10.1046 20.1046 11 19 11H17.917C17.9716 11.3252 18 11.6593 18 12C18 12.3407 17.9716 12.6748 17.917 13H19C19.7286 13 20.4117 12.8052 21 12.4649V19C21 20.1046 20.1046 21 19 21H5C3.89543 21 3 20.1046 3 19ZM12 18H7C6.44772 18 6 18.4477 6 19C6 19.5523 6.44772 20 7 20H17C17.5523 20 18 19.5523 18 19C18 18.4477 17.5523 18 17 18H12Z" fill="black"/>
</svg>
