<svg width="24" height="24" viewBox="0 0 24 24" fill="none" xmlns="http://www.w3.org/2000/svg">
<path d="M7 5V4C7 2.89543 7.89543 2 9 2H15C16.1046 2 17 2.89543 17 4V5" stroke="#667085" stroke-width="2" stroke-linecap="round" stroke-linejoin="round"/>
<path d="M13.4706 8.95652C13.4706 9.05328 13.4611 9.14783 13.4429 9.2393L15.512 9.23945C15.8393 9.23945 16.1046 9.50224 16.1046 9.82641C16.1046 10.1496 15.8408 10.4119 15.5148 10.4134L16.5 12.8125C16.5003 14.3479 13.559 14.3479 13.5582 12.8125L14.5434 10.4135L12.5926 10.4131V15.3261H13.5804C13.9077 15.3261 14.173 15.5889 14.173 15.913C14.173 16.2372 13.9077 16.5 13.5804 16.5H10.4196C10.0923 16.5 9.82693 16.2372 9.82693 15.913C9.82693 15.5889 10.0923 15.3261 10.4196 15.3261H11.4073V10.4131L9.45656 10.4133L10.4418 12.8124C10.4421 14.3478 7.50076 14.3478 7.5 12.8124L8.48517 10.4134C8.15915 10.4119 7.89533 10.1496 7.89533 9.82641C7.89533 9.50224 8.16067 9.23945 8.48798 9.23945L10.557 9.2393C10.5389 9.14783 10.5293 9.05328 10.5293 8.95652C10.5293 8.15211 11.1878 7.5 12 7.5C12.8122 7.5 13.4706 8.15211 13.4706 8.95652Z" fill="#667085"/>
<path fill-rule="evenodd" clip-rule="evenodd" d="M5 4C2.79086 4 1 5.79086 1 8V9V19C1 21.2091 2.79086 23 5 23H19C21.2091 23 23 21.2091 23 19V9V8C23 5.79086 21.2091 4 19 4H17H7H5ZM3 19V12.4649C3.58835 12.8052 4.27143 13 5 13H6.08296C6.0284 12.6748 6 12.3407 6 12C6 11.6593 6.0284 11.3252 6.08296 11H5C3.89543 11 3 10.1046 3 9V8C3 6.89543 3.89543 6 5 6H7H12H17H19C20.1046 6 21 6.89543 21 8V9C21 10.1046 20.1046 11 19 11H17.917C17.9716 11.3252 18 11.6593 18 12C18 12.3407 17.9716 12.6748 17.917 13H19C19.7286 13 20.4117 12.8052 21 12.4649V19C21 20.1046 20.1046 21 19 21H5C3.89543 21 3 20.1046 3 19ZM12 18H7C6.44772 18 6 18.4477 6 19C6 19.5523 6.44772 20 7 20H17C17.5523 20 18 19.5523 18 19C18 18.4477 17.5523 18 17 18H12Z" fill="black"/>
</svg>
