<svg width="24" height="24" viewBox="0 0 24 24" fill="none" xmlns="http://www.w3.org/2000/svg">
<path d="M7 5V4C7 2.89543 7.89543 2 9 2H15C16.1046 2 17 2.89543 17 4V5" stroke="#667085" stroke-width="2" stroke-linecap="round" stroke-linejoin="round"/>
<path fill-rule="evenodd" clip-rule="evenodd" d="M11.1 7.89999C11.1 7.40294 11.5029 7 12 7H12.0045C12.5015 7 12.9045 7.40294 12.9045 7.89999C12.9045 8.29587 12.6489 8.63204 12.2937 8.7525L13.2889 10.1162C13.304 10.1375 13.3269 10.1499 13.3511 10.1499H14.7283C14.7098 10.078 14.7 10.0027 14.7 9.92498C14.7 9.42793 15.1029 9.02499 15.6 9.02499H15.6C16.0971 9.02499 16.5 9.42793 16.5 9.92498C16.5 10.422 16.0971 10.825 15.6 10.825H15.6C15.3515 10.825 15.1266 10.7243 14.9638 10.5616L14.1146 11.8974C14.0947 11.9288 14.0947 11.9711 14.1146 12.0024L14.9638 13.3383C15.1266 13.1756 15.3515 13.075 15.6 13.075H15.6C16.0971 13.075 16.5 13.4779 16.5 13.975C16.5 14.472 16.0971 14.875 15.6 14.875H15.6C15.1029 14.875 14.7 14.472 14.7 13.975C14.7 13.8973 14.7098 13.8219 14.7283 13.7499L13.3511 13.7499C13.3269 13.7499 13.304 13.7624 13.2889 13.7837L12.2937 15.1474C12.6489 15.2679 12.9045 15.6041 12.9045 15.9999C12.9045 16.497 12.5015 16.8999 12.0045 16.8999H12C11.5029 16.8999 11.1 16.497 11.1 15.9999C11.1 15.6003 11.3605 15.2615 11.7209 15.1441L10.7894 13.789C10.7727 13.7646 10.7449 13.75 10.7153 13.75L9.27615 13.75C9.29465 13.8219 9.30449 13.8973 9.30449 13.975C9.30449 14.472 8.90155 14.875 8.4045 14.875H8.4C7.90294 14.875 7.5 14.472 7.5 13.975C7.5 13.4779 7.90294 13.075 8.4 13.075H8.4045C8.67517 13.075 8.91794 13.1945 9.08293 13.3836L9.96352 11.9983C9.98224 11.9688 9.98224 11.9312 9.96352 11.9017L9.0829 10.5164C8.91792 10.7055 8.67516 10.825 8.4045 10.825H8.4C7.90294 10.825 7.5 10.422 7.5 9.92498C7.5 9.42793 7.90294 9.02499 8.4 9.02499H8.4045C8.90155 9.02499 9.30449 9.42793 9.30449 9.92498C9.30449 10.0027 9.29465 10.0781 9.27613 10.15H10.7153C10.7449 10.15 10.7727 10.1354 10.7894 10.111L11.721 8.7559C11.3605 8.63846 11.1 8.29965 11.1 7.89999Z" fill="#667085"/>
<path fill-rule="evenodd" clip-rule="evenodd" d="M5 4C2.79086 4 1 5.79086 1 8V9V19C1 21.2091 2.79086 23 5 23H19C21.2091 23 23 21.2091 23 19V9V8C23 5.79086 21.2091 4 19 4H17H7H5ZM3 19V12.4649C3.58835 12.8052 4.27143 13 5 13H6.08296C6.0284 12.6748 6 12.3407 6 12C6 11.6593 6.0284 11.3252 6.08296 11H5C3.89543 11 3 10.1046 3 9V8C3 6.89543 3.89543 6 5 6H7H12H17H19C20.1046 6 21 6.89543 21 8V9C21 10.1046 20.1046 11 19 11H17.917C17.9716 11.3252 18 11.6593 18 12C18 12.3407 17.9716 12.6748 17.917 13H19C19.7286 13 20.4117 12.8052 21 12.4649V19C21 20.1046 20.1046 21 19 21H5C3.89543 21 3 20.1046 3 19ZM12 18H7C6.44772 18 6 18.4477 6 19C6 19.5523 6.44772 20 7 20H17C17.5523 20 18 19.5523 18 19C18 18.4477 17.5523 18 17 18H12Z" fill="black"/>
</svg>
