<svg width="24" height="24" viewBox="0 0 24 24" fill="none" xmlns="http://www.w3.org/2000/svg">
<path d="M7 5V4C7 2.89543 7.89543 2 9 2H15C16.1046 2 17 2.89543 17 4V5" stroke="#667085" stroke-width="2" stroke-linecap="round" stroke-linejoin="round"/>
<path d="M15.5947 12.0601L11.9732 8.46671C11.9349 8.42864 11.9349 8.36659 11.9732 8.32851L12.0762 8.22641C12.2113 8.0923 12.2113 7.87375 12.0762 7.73963C11.9425 7.60699 11.7268 7.60699 11.5932 7.73963L9.36392 9.95164C9.22876 10.0857 9.22876 10.3043 9.36392 10.4384C9.49759 10.571 9.71323 10.571 9.84691 10.4384L9.95365 10.3325C9.99219 10.2942 10.0544 10.2942 10.0929 10.3324L11.0652 11.2962C11.1441 11.3744 11.1442 11.502 11.0653 11.5802L7.85753 14.7632C7.6605 14.9587 7.66043 15.2773 7.85738 15.4729L8.5394 16.1502C8.73432 16.3438 9.04891 16.3439 9.24391 16.1504L12.4592 12.96C12.5371 12.8826 12.6629 12.8826 12.7409 12.96L13.7143 13.9259C13.7527 13.964 13.7527 14.026 13.7143 14.0641L13.5766 14.2007C13.4606 14.3158 13.4606 14.5034 13.5766 14.6185C13.6914 14.7324 13.8765 14.7324 13.9913 14.6185L16.2895 12.3381C16.4055 12.223 16.4055 12.0354 16.2895 11.9203C16.1747 11.8064 15.9896 11.8064 15.8748 11.9203L15.7339 12.0601C15.6954 12.0983 15.6332 12.0984 15.5947 12.0601Z" fill="#667085"/>
<path fill-rule="evenodd" clip-rule="evenodd" d="M5 4C2.79086 4 1 5.79086 1 8V9V19C1 21.2091 2.79086 23 5 23H19C21.2091 23 23 21.2091 23 19V9V8C23 5.79086 21.2091 4 19 4H17H7H5ZM3 19V12.4649C3.58835 12.8052 4.27143 13 5 13H6.08296C6.0284 12.6748 6 12.3407 6 12C6 11.6593 6.0284 11.3252 6.08296 11H5C3.89543 11 3 10.1046 3 9V8C3 6.89543 3.89543 6 5 6H7H12H17H19C20.1046 6 21 6.89543 21 8V9C21 10.1046 20.1046 11 19 11H17.917C17.9716 11.3252 18 11.6593 18 12C18 12.3407 17.9716 12.6748 17.917 13H19C19.7286 13 20.4117 12.8052 21 12.4649V19C21 20.1046 20.1046 21 19 21H5C3.89543 21 3 20.1046 3 19ZM12 18H7C6.44772 18 6 18.4477 6 19C6 19.5523 6.44772 20 7 20H17C17.5523 20 18 19.5523 18 19C18 18.4477 17.5523 18 17 18H12Z" fill="black"/>
</svg>
