<svg width="24" height="24" viewBox="0 0 24 24" fill="none" xmlns="http://www.w3.org/2000/svg">
<path d="M4.45703 10.0859V21.0002M19.4566 10.0859V21.0002M11.9997 21.0002V16.0002" stroke="#667085" stroke-width="2" stroke-linecap="round" stroke-linejoin="round"/>
<path d="M16 21H14H12H10H8M16 21V7V5C16 3.89543 15.1046 3 14 3H10C8.89543 3 8 3.89543 8 5V7V21M16 21H19.4569H21M8 21H4.45737H3" stroke="black" stroke-width="2" stroke-linecap="round" stroke-linejoin="round"/>
<path d="M5.99978 7H4.45692C3.60482 7 2.91406 7.69076 2.91406 8.54286C2.91406 9.39495 3.60482 10.0857 4.45692 10.0857C5.30902 10.0857 5.99978 9.39495 5.99978 8.54286V7ZM5.99978 7H7.99955H15.9996H17.9136M17.9136 7H19.4565C20.3086 7 20.9993 7.69076 20.9993 8.54286C20.9993 9.39495 20.3086 10.0857 19.4565 10.0857C18.6044 10.0857 17.9136 9.39495 17.9136 8.54286V7Z" stroke="#667085" stroke-width="2" stroke-linecap="round" stroke-linejoin="round"/>
</svg>
