<svg width="24" height="24" viewBox="0 0 24 24" fill="none" xmlns="http://www.w3.org/2000/svg">
<path d="M10 21V16C10 15.4477 10.4477 15 11 15H13C13.5523 15 14 15.4477 14 16V21" stroke="#667085" stroke-width="2" stroke-linecap="round" stroke-linejoin="round"/>
<path d="M17 21H21M17 21H14H10H7M17 21V7V5C17 3.89543 16.1046 3 15 3H9C7.89543 3 7 3.89543 7 5V7V21M7 21H3" stroke="black" stroke-width="2" stroke-linecap="round" stroke-linejoin="round"/>
<path d="M5.99978 7H4.45692C3.60482 7 2.91406 7.69076 2.91406 8.54286C2.91406 9.39495 3.60482 10.0857 4.45692 10.0857C5.30902 10.0857 5.99978 9.39495 5.99978 8.54286V7ZM5.99978 7H6.99955H16.9996H17.9136M17.9136 7H19.4565C20.3086 7 20.9993 7.69076 20.9993 8.54286C20.9993 9.39495 20.3086 10.0857 19.4565 10.0857C18.6044 10.0857 17.9136 9.39495 17.9136 8.54286V7Z" stroke="#667085" stroke-width="2" stroke-linecap="round" stroke-linejoin="round"/>
</svg>
