<svg width="24" height="24" viewBox="0 0 24 24" fill="none" xmlns="http://www.w3.org/2000/svg">
<path fill-rule="evenodd" clip-rule="evenodd" d="M9 11C9 9.0581 9.24614 7.20927 9.79808 5.88462C10.3451 4.57182 11.0725 4 12 4C12.9275 4 13.6549 4.57182 14.2019 5.88462C14.7539 7.20927 15 9.0581 15 11C15 11.4401 15.2843 11.8138 15.6793 11.9475C16.0441 11.5901 16.4912 11.317 16.9876 11.1578C16.9958 11.1064 17 11.0537 17 11C17 8.9419 16.7461 6.79073 16.0481 5.11538C15.3451 3.42818 14.0725 2 12 2C9.92749 2 8.65492 3.42818 7.95192 5.11538C7.25386 6.79073 7 8.9419 7 11C7 11.5523 7.44772 12 8 12C8.55228 12 9 11.5523 9 11ZM13 13.3809C12.9399 13.4474 12.8833 13.5171 12.8304 13.5898L12.7835 13.6565C12.5115 14.0572 12.3516 14.5417 12.3516 15.0679C12.3516 15.4062 12.4177 15.7273 12.5372 16.0199L12 17.328L12.0002 17.7232C12.0007 18.6619 12.4218 19.417 13 19.923V20C13 20.8252 12.5975 21.5668 12.0821 22.0821C11.5668 22.5975 10.8252 23 10 23C9.17477 23 8.43324 22.5975 7.91789 22.0821C7.40255 21.5668 7 20.8252 7 20C7 19.4477 7.44772 19 8 19C8.55228 19 9 19.4477 9 20C9 20.1748 9.09745 20.4332 9.33211 20.6679C9.56676 20.9025 9.82523 21 10 21C10.1748 21 10.4332 20.9025 10.6679 20.6679C10.9025 20.4332 11 20.1748 11 20V11C11 10.4477 11.4477 10 12 10C12.5523 10 13 10.4477 13 11V13.3809Z" fill="#667085"/>
<path d="M19.3072 14.2947C19.3072 14.3807 19.2988 14.4647 19.2826 14.546L21.1218 14.5462C21.4127 14.5462 21.6486 14.7798 21.6486 15.0679C21.6486 15.3552 21.4141 15.5883 21.1243 15.5896L22 17.7223C22.0003 19.087 19.3858 19.087 19.3851 17.7223L20.2608 15.5897L18.5268 15.5894V19.9565H19.4048C19.6957 19.9565 19.9316 20.1901 19.9316 20.4783C19.9316 20.7664 19.6957 21 19.4048 21H16.5952C16.3042 21 16.0684 20.7664 16.0684 20.4783C16.0684 20.1901 16.3042 19.9565 16.5952 19.9565H17.4732V15.5894L15.7392 15.5896L16.6149 17.7222C16.6152 19.087 14.0007 19.087 14 17.7222L14.8757 15.5896C14.5859 15.5883 14.3514 15.3552 14.3514 15.0679C14.3514 14.7798 14.5873 14.5462 14.8782 14.5462L16.7174 14.546C16.7012 14.4647 16.6927 14.3807 16.6927 14.2947C16.6927 13.5797 17.278 13 18 13C18.722 13 19.3072 13.5797 19.3072 14.2947Z" fill="#667085"/>
<path fill-rule="evenodd" clip-rule="evenodd" d="M12.9991 2C12.9991 1.44772 12.5514 1 11.9991 1C11.4468 1 10.9991 1.44772 10.9991 2V2.0357C8.37321 2.22642 6.2747 3.16953 4.75842 4.58388C3.06194 6.16632 2.15139 8.28646 2.01669 10.4378C1.9608 11.3306 2.68847 12 3.49912 12H7.99912H11.9991H15.626C16.2299 11.3814 17.0741 11 17.9993 11C18.9245 11 19.7687 11.3814 20.3726 12H20.4991C21.3098 12 22.0374 11.3306 21.9815 10.4378C21.8468 8.28646 20.9363 6.16632 19.2398 4.58388C17.7235 3.16953 15.625 2.22642 12.9991 2.0357V2ZM7.99912 10H4.07096C4.28403 8.52625 4.97027 7.12129 6.12262 6.0464C7.41331 4.84247 9.3462 4 11.9991 4C14.652 4 16.5849 4.84247 17.8756 6.0464C19.028 7.12129 19.7142 8.52625 19.9273 10H15.9991H11.9991H7.99912Z" fill="black"/>
</svg>
