<svg width="24" height="24" viewBox="0 0 24 24" fill="none" xmlns="http://www.w3.org/2000/svg">
<path fill-rule="evenodd" clip-rule="evenodd" d="M9 11C9 9.0581 9.24614 7.20927 9.79808 5.88462C10.3451 4.57182 11.0725 4 12 4C12.9275 4 13.6549 4.57182 14.2019 5.88462C14.7539 7.20927 15 9.0581 15 11C15 11.5523 15.4477 12 16 12C16.0239 12 16.0477 11.9992 16.0712 11.9975C16.284 11.8286 16.5273 11.6966 16.7916 11.6112C16.9222 11.4422 17 11.2302 17 11C17 8.9419 16.7461 6.79073 16.0481 5.11538C15.3451 3.42818 14.0725 2 12 2C9.92749 2 8.65492 3.42818 7.95192 5.11538C7.25386 6.79073 7 8.9419 7 11C7 11.5523 7.44772 12 8 12C8.55228 12 9 11.5523 9 11ZM13 13.7024C12.3961 14.1169 12 14.8122 12 15.6C12 16.3289 12.3391 16.9786 12.8681 17.4C12.3391 17.8214 12 18.4711 12 19.2C12 19.9058 12.3179 20.5373 12.8184 20.9592C12.6525 21.393 12.387 21.7772 12.0821 22.0821C11.5668 22.5975 10.8252 23 10 23C9.17477 23 8.43324 22.5975 7.91789 22.0821C7.40255 21.5668 7 20.8252 7 20C7 19.4477 7.44772 19 8 19C8.55228 19 9 19.4477 9 20C9 20.1748 9.09745 20.4332 9.33211 20.6679C9.56676 20.9025 9.82523 21 10 21C10.1748 21 10.4332 20.9025 10.6679 20.6679C10.9025 20.4332 11 20.1748 11 20V11C11 10.4477 11.4477 10 12 10C12.5523 10 13 10.4477 13 11V13.7024Z" fill="#667085"/>
<path fill-rule="evenodd" clip-rule="evenodd" d="M16.7 13.8C16.7 13.3582 17.0582 13 17.5 13H17.504C17.9458 13 18.304 13.3582 18.304 13.8C18.304 14.1519 18.0768 14.4507 17.7611 14.5578L18.6457 15.7699C18.6591 15.7889 18.6795 15.7999 18.701 15.7999H19.9252C19.9087 15.736 19.9 15.669 19.9 15.6C19.9 15.1582 20.2581 14.8 20.7 14.8H20.7C21.1418 14.8 21.5 15.1582 21.5 15.6C21.5 16.0418 21.1418 16.4 20.7 16.4H20.7C20.4791 16.4 20.2792 16.3105 20.1345 16.1658L19.3796 17.3533C19.3619 17.3812 19.3619 17.4187 19.3796 17.4466L20.1345 18.6341C20.2792 18.4894 20.4792 18.4 20.7 18.4H20.7C21.1418 18.4 21.5 18.7581 21.5 19.2C21.5 19.6418 21.1418 20 20.7 20H20.7C20.2581 20 19.9 19.6418 19.9 19.2C19.9 19.1309 19.9087 19.0639 19.9252 18.9999L18.701 18.9999C18.6795 18.9999 18.6591 19.011 18.6457 19.03L17.7611 20.2422C18.0768 20.3493 18.304 20.6481 18.304 21C18.304 21.4418 17.9458 21.7999 17.504 21.7999H17.5C17.0582 21.7999 16.7 21.4418 16.7 21C16.7 20.6447 16.9315 20.3436 17.2519 20.2392L16.424 19.0347C16.409 19.013 16.3844 19 16.358 19L15.0788 19C15.0952 19.0639 15.104 19.1309 15.104 19.2C15.104 19.6418 14.7458 20 14.304 20H14.3C13.8582 20 13.5 19.6418 13.5 19.2C13.5 18.7581 13.8582 18.4 14.3 18.4H14.304C14.5446 18.4 14.7604 18.5062 14.907 18.6743L15.6898 17.4429C15.7064 17.4167 15.7064 17.3833 15.6898 17.3571L14.907 16.1257C14.7604 16.2938 14.5446 16.4 14.304 16.4H14.3C13.8582 16.4 13.5 16.0418 13.5 15.6C13.5 15.1582 13.8582 14.8 14.3 14.8H14.304C14.7458 14.8 15.104 15.1582 15.104 15.6C15.104 15.669 15.0952 15.7361 15.0788 15.8H16.358C16.3844 15.8 16.409 15.787 16.424 15.7653L17.252 14.5608C16.9315 14.4564 16.7 14.1552 16.7 13.8Z" fill="#667085"/>
<path fill-rule="evenodd" clip-rule="evenodd" d="M12.9991 2C12.9991 1.44772 12.5514 1 11.9991 1C11.4468 1 10.9991 1.44772 10.9991 2V2.0357C8.37321 2.22642 6.2747 3.16953 4.75842 4.58388C3.06194 6.16632 2.15139 8.28646 2.01669 10.4378C1.9608 11.3306 2.68847 12 3.49912 12H7.99912H11.9991H15.9991H16.0672C16.4601 11.687 16.9577 11.5 17.4991 11.5H17.5031C18.0445 11.5 18.5421 11.687 18.935 12H20.4991C21.3098 12 22.0374 11.3306 21.9815 10.4378C21.8468 8.28646 20.9363 6.16632 19.2398 4.58388C17.7235 3.16953 15.625 2.22642 12.9991 2.0357V2ZM7.99912 10H4.07096C4.28403 8.52625 4.97027 7.12129 6.12262 6.0464C7.41331 4.84247 9.3462 4 11.9991 4C14.652 4 16.5849 4.84247 17.8756 6.0464C19.028 7.12129 19.7142 8.52625 19.9273 10H15.9991H11.9991H7.99912Z" fill="black"/>
</svg>
