<svg width="24" height="24" viewBox="0 0 24 24" fill="none" xmlns="http://www.w3.org/2000/svg">
<path d="M7 11C7 7 8 3 11 3C14 3 15 7 15 11M11 11V20C11 21 10 22 9 22C8 22 7 21 7 20" stroke="#667085" stroke-width="2" stroke-linecap="round"/>
<path d="M11 3C16.75 3 19.7448 6.67361 19.9844 10.5003C20.0016 10.7759 19.7761 11 19.5 11H15H11H7H2.5C2.22386 11 1.99837 10.7759 2.01562 10.5003C2.25521 6.67361 5.25 3 11 3ZM11 3V2" stroke="black" stroke-width="2" stroke-linecap="round"/>
<path d="M21.0947 17.5601L17.4732 13.9667C17.4349 13.9286 17.4349 13.8666 17.4732 13.8285L17.5762 13.7264C17.7113 13.5923 17.7113 13.3737 17.5762 13.2396C17.4425 13.107 17.2268 13.107 17.0932 13.2396L14.8639 15.4516C14.7288 15.5857 14.7288 15.8043 14.8639 15.9384C14.9976 16.071 15.2132 16.071 15.3469 15.9384L15.4537 15.8325C15.4922 15.7942 15.5544 15.7942 15.5929 15.8324L16.5652 16.7962C16.6441 16.8744 16.6442 17.002 16.5653 17.0802L13.3575 20.2632C13.1605 20.4587 13.1604 20.7773 13.3574 20.9729L14.0394 21.6502C14.2343 21.8438 14.5489 21.8439 14.7439 21.6504L17.9592 18.46C18.0371 18.3826 18.1629 18.3826 18.2409 18.46L19.2143 19.4259C19.2527 19.464 19.2527 19.526 19.2143 19.5641L19.0766 19.7007C18.9606 19.8158 18.9606 20.0034 19.0766 20.1185C19.1914 20.2324 19.3765 20.2324 19.4913 20.1185L21.7895 17.8381C21.9055 17.723 21.9055 17.5354 21.7895 17.4203C21.6747 17.3064 21.4896 17.3064 21.3748 17.4203L21.2339 17.5601C21.1954 17.5983 21.1332 17.5984 21.0947 17.5601Z" fill="#667085"/>
</svg>
