<svg width="24" height="24" viewBox="0 0 24 24" fill="none" xmlns="http://www.w3.org/2000/svg">
<path fill-rule="evenodd" clip-rule="evenodd" d="M7 2C4.79086 2 3 3.79086 3 6V17C3 19.2091 4.79086 21 7 21H11.8027C11.4513 20.3926 11.2034 19.7179 11.083 19H7C5.89543 19 5 18.1046 5 17V6C5 4.89543 5.89543 4 7 4H17C18.1046 4 19 4.89543 19 6V12.3414C19.7452 12.6048 20.4229 13.0113 21 13.5278V6C21 3.79086 19.2091 2 17 2H7ZM8 10C7.44772 10 7 10.4477 7 11C7 11.5523 7.44772 12 8 12H15C15.5523 12 16 11.5523 16 11C16 10.4477 15.5523 10 15 10H8Z" fill="black"/>
<path d="M8 7H16" stroke="#667085" stroke-width="2" stroke-linecap="round"/>
<path fill-rule="evenodd" clip-rule="evenodd" d="M17 22C19.2091 22 21 20.2091 21 18C21 15.7909 19.2091 14 17 14C14.7909 14 13 15.7909 13 18C13 20.2091 14.7909 22 17 22ZM17.8016 16.4663C17.8117 16.4155 17.817 16.3629 17.817 16.3092C17.817 15.8623 17.4512 15.5 17 15.5C16.5488 15.5 16.183 15.8623 16.183 16.3092C16.183 16.3629 16.1883 16.4155 16.1983 16.4663L15.0489 16.4664C14.867 16.4664 14.7196 16.6124 14.7196 16.7924C14.7196 16.972 14.8662 17.1177 15.0473 17.1185L14.5 18.4514C14.5004 19.3043 16.1345 19.3043 16.1343 18.4514L15.587 17.1185L16.6707 17.1184V19.8478H16.122C15.9402 19.8478 15.7927 19.9938 15.7927 20.1739C15.7927 20.354 15.9402 20.5 16.122 20.5H17.878C18.0598 20.5 18.2072 20.354 18.2072 20.1739C18.2072 19.9938 18.0598 19.8478 17.878 19.8478H17.3292V17.1184L18.413 17.1186L17.8657 18.4514C17.8661 19.3044 19.5002 19.3044 19.5 18.4514L18.9527 17.1185C19.1338 17.1177 19.2803 16.972 19.2803 16.7924C19.2803 16.6124 19.1329 16.4664 18.9511 16.4664L17.8016 16.4663Z" fill="#667085"/>
</svg>
