<svg width="24" height="24" viewBox="0 0 24 24" fill="none" xmlns="http://www.w3.org/2000/svg">
<path fill-rule="evenodd" clip-rule="evenodd" d="M7 2C4.79086 2 3 3.79086 3 6V17C3 19.2091 4.79086 21 7 21H11.8027C11.4513 20.3926 11.2034 19.7179 11.083 19H7C5.89543 19 5 18.1046 5 17V6C5 4.89543 5.89543 4 7 4H17C18.1046 4 19 4.89543 19 6V12.3414C19.7452 12.6048 20.4229 13.0113 21 13.5278V6C21 3.79086 19.2091 2 17 2H7ZM8 10C7.44772 10 7 10.4477 7 11C7 11.5523 7.44772 12 8 12H15C15.5523 12 16 11.5523 16 11C16 10.4477 15.5523 10 15 10H8Z" fill="black"/>
<path d="M8 7H16" stroke="#667085" stroke-width="2" stroke-linecap="round"/>
<path fill-rule="evenodd" clip-rule="evenodd" d="M17 22C19.2091 22 21 20.2091 21 18C21 15.7909 19.2091 14 17 14C14.7909 14 13 15.7909 13 18C13 20.2091 14.7909 22 17 22ZM17 15.5C16.7238 15.5 16.5 15.7035 16.5 15.9545C16.5 16.1564 16.6447 16.3275 16.845 16.3868L16.3275 17.0712C16.3181 17.0835 16.3027 17.0909 16.2863 17.0909H15.4867C15.497 17.0546 15.5025 17.0165 15.5025 16.9773C15.5025 16.7262 15.2786 16.5227 15.0025 16.5227H15C14.7239 16.5227 14.5 16.7262 14.5 16.9773C14.5 17.2283 14.7239 17.4318 15 17.4318H15.0025C15.1529 17.4318 15.2877 17.3715 15.3794 17.276L15.8686 17.9756C15.879 17.9905 15.879 18.0095 15.8686 18.0244L15.3794 18.724C15.2877 18.6285 15.1529 18.5682 15.0025 18.5682H15C14.7239 18.5682 14.5 18.7717 14.5 19.0227C14.5 19.2738 14.7239 19.4773 15 19.4773H15.0025C15.2786 19.4773 15.5025 19.2738 15.5025 19.0227C15.5025 18.9835 15.497 18.9454 15.4868 18.9091L16.2863 18.9091C16.3027 18.9091 16.3181 18.9165 16.3275 18.9288L16.845 19.6132C16.6447 19.6725 16.5 19.8436 16.5 20.0455C16.5 20.2965 16.7238 20.5 17 20.5H17.0025C17.2786 20.5 17.5025 20.2965 17.5025 20.0455C17.5025 19.8455 17.3605 19.6757 17.1632 19.6149L17.716 18.9261C17.7244 18.9154 17.7372 18.9091 17.7506 18.9091H18.5157C18.5055 18.9454 18.5 18.9835 18.5 19.0227C18.5 19.2738 18.7238 19.4773 19 19.4773H19C19.2761 19.4773 19.5 19.2738 19.5 19.0227C19.5 18.7717 19.2761 18.5682 19 18.5682H19C18.862 18.5682 18.737 18.619 18.6466 18.7012L18.1748 18.0265C18.1637 18.0106 18.1637 17.9893 18.1748 17.9735L18.6465 17.2988C18.737 17.381 18.862 17.4318 19 17.4318H19C19.2761 17.4318 19.5 17.2283 19.5 16.9773C19.5 16.7262 19.2761 16.5227 19 16.5227H19C18.7238 16.5227 18.5 16.7262 18.5 16.9773C18.5 17.0165 18.5054 17.0546 18.5157 17.0909H17.7506C17.7372 17.0909 17.7244 17.0846 17.716 17.0738L17.1632 16.3851C17.3605 16.3243 17.5025 16.1545 17.5025 15.9545C17.5025 15.7035 17.2786 15.5 17.0025 15.5H17Z" fill="#667085"/>
</svg>
