<svg width="24" height="24" viewBox="0 0 24 24" fill="none" xmlns="http://www.w3.org/2000/svg">
<path fill-rule="evenodd" clip-rule="evenodd" d="M7 2C4.79086 2 3 3.79086 3 6V17C3 19.2091 4.79086 21 7 21H11.8027C11.4513 20.3926 11.2034 19.7179 11.083 19H7C5.89543 19 5 18.1046 5 17V6C5 4.89543 5.89543 4 7 4H17C18.1046 4 19 4.89543 19 6V12.3414C19.7452 12.6048 20.4229 13.0113 21 13.5278V6C21 3.79086 19.2091 2 17 2H7ZM8 10C7.44772 10 7 10.4477 7 11C7 11.5523 7.44772 12 8 12H15C15.5523 12 16 11.5523 16 11C16 10.4477 15.5523 10 15 10H8Z" fill="black"/>
<path d="M8 7H16" stroke="#667085" stroke-width="2" stroke-linecap="round"/>
<path fill-rule="evenodd" clip-rule="evenodd" d="M17 22C19.2091 22 21 20.2091 21 18C21 15.7909 19.2091 14 17 14C14.7909 14 13 15.7909 13 18C13 20.2091 14.7909 22 17 22ZM16.1111 16.7046V16.6389C16.1111 16.148 16.5091 15.75 17 15.75C17.4909 15.75 17.8889 16.148 17.8889 16.6389V16.7046C17.8889 17.0998 17.7969 17.4896 17.6201 17.8431L17.5224 18.0385C17.4711 18.1411 17.4444 18.2541 17.4444 18.3688C17.4444 18.6407 17.6649 18.8611 17.9368 18.8611H18.4074C18.7347 18.8611 19 19.1264 19 19.4537C19 19.6173 18.8673 19.75 18.7037 19.75H15.2963C15.1327 19.75 15 19.6173 15 19.4537C15 19.1264 15.2653 18.8611 15.5926 18.8611H16.0632C16.3351 18.8611 16.5556 18.6407 16.5556 18.3688C16.5556 18.2541 16.5289 18.1411 16.4776 18.0385L16.3799 17.8431C16.2031 17.4896 16.1111 17.0998 16.1111 16.7046Z" fill="#667085"/>
</svg>
