<svg width="24" height="24" viewBox="0 0 24 24" fill="none" xmlns="http://www.w3.org/2000/svg">
<path fill-rule="evenodd" clip-rule="evenodd" d="M3 5C3 2.79086 4.79086 1 7 1H10.3431C11.6692 1 12.941 1.52678 13.8787 2.46447L17.5355 6.12132C18.4732 7.059 19 8.33077 19 9.65685V12.3414C18.3744 12.1203 17.7013 12 17 12V9.65685C17 9.06318 16.824 8.48765 16.501 8H14C12.8954 8 12 7.10457 12 6V3.49902C11.5123 3.17597 10.9368 3 10.3431 3H7C5.89543 3 5 3.89543 5 5V17C5 18.1046 5.89543 19 7 19H11.083C11.2034 19.7179 11.4513 20.3926 11.8027 21H7C4.79086 21 3 19.2091 3 17V5Z" fill="black"/>
<path fill-rule="evenodd" clip-rule="evenodd" d="M17 22C19.2091 22 21 20.2091 21 18C21 15.7909 19.2091 14 17 14C14.7909 14 13 15.7909 13 18C13 20.2091 14.7909 22 17 22ZM17.8016 16.4757C17.8117 16.4243 17.817 16.3713 17.817 16.317C17.817 15.8658 17.4512 15.5 17 15.5C16.5488 15.5 16.183 15.8658 16.183 16.317C16.183 16.3713 16.1883 16.4243 16.1983 16.4757L15.0489 16.4757C14.867 16.4757 14.7196 16.6231 14.7196 16.805C14.7196 16.9863 14.8662 17.1334 15.0473 17.1342L14.5 18.48C14.5004 19.3412 16.1345 19.3412 16.1343 18.48L15.587 17.1342L16.6707 17.1341V19.89H16.122C15.9402 19.89 15.7927 20.0374 15.7927 20.2192C15.7927 20.4011 15.9402 20.5485 16.122 20.5485H17.878C18.0598 20.5485 18.2072 20.4011 18.2072 20.2192C18.2072 20.0374 18.0598 19.89 17.878 19.89H17.3292V17.1341L18.413 17.1343L17.8657 18.48C17.8661 19.3413 19.5002 19.3413 19.5 18.48L18.9527 17.1342C19.1338 17.1334 19.2803 16.9863 19.2803 16.805C19.2803 16.6231 19.1329 16.4757 18.9511 16.4757L17.8016 16.4757Z" fill="#667085"/>
</svg>
