<svg width="24" height="24" viewBox="0 0 24 24" fill="none" xmlns="http://www.w3.org/2000/svg">
<path fill-rule="evenodd" clip-rule="evenodd" d="M7 1C4.79086 1 3 2.79086 3 5V19C3 21.2091 4.79086 23 7 23H17C19.2091 23 21 21.2091 21 19V10.6569C21 9.33077 20.4732 8.059 19.5355 7.12132L14.8787 2.46447C13.941 1.52678 12.6692 1 11.3431 1H7ZM5 5C5 3.89543 5.89543 3 7 3H11.3431C11.9368 3 12.5123 3.17597 13 3.49902V7C13 8.10457 13.8954 9 15 9H18.501C18.824 9.48765 19 10.0632 19 10.6569V19C19 20.1046 18.1046 21 17 21H7C5.89543 21 5 20.1046 5 19V5Z" fill="black"/>
<path d="M13.2562 12.2947C13.2562 12.3807 13.2479 12.4647 13.2319 12.546L15.0533 12.5462C15.3415 12.5462 15.5751 12.7798 15.5751 13.0679C15.5751 13.3552 15.3428 13.5883 15.0558 13.5896L15.9232 15.7223C15.9234 17.087 13.334 17.087 13.3334 15.7223L14.2007 13.5897L12.4833 13.5894V17.9565H13.3529C13.641 17.9565 13.8746 18.1901 13.8746 18.4783C13.8746 18.7664 13.641 19 13.3529 19H10.5703C10.2821 19 10.0485 18.7664 10.0485 18.4783C10.0485 18.1901 10.2821 17.9565 10.5703 17.9565H11.4398V13.5894L9.72246 13.5896L10.5898 15.7222C10.5901 17.087 8.00067 17.087 8 15.7222L8.86729 13.5896C8.58028 13.5883 8.34803 13.3552 8.34803 13.0679C8.34803 12.7798 8.58162 12.5462 8.86977 12.5462L10.6913 12.546C10.6753 12.4647 10.6669 12.3807 10.6669 12.2947C10.6669 11.5797 11.2465 11 11.9616 11C12.6766 11 13.2562 11.5797 13.2562 12.2947Z" fill="#667085"/>
</svg>
