<svg width="24" height="24" viewBox="0 0 24 24" fill="none" xmlns="http://www.w3.org/2000/svg">
<path d="M10.2222 12.3333V13.2718C10.2222 13.8237 10.3507 14.3681 10.5976 14.8619L10.9703 15.6074C11.0629 15.7925 11.1111 15.9967 11.1111 16.2036V16.3333C11.1111 16.8243 10.7131 17.2222 10.2222 17.2222H9.18518C8.53062 17.2222 8 17.7528 8 18.4074C8 18.7347 8.26531 19 8.59259 19H15.4074C15.7347 19 16 18.7347 16 18.4074C16 17.7528 15.4694 17.2222 14.8148 17.2222H13.7778C13.2869 17.2222 12.8889 16.8243 12.8889 16.3333V16.2036C12.8889 15.9967 12.9371 15.7925 13.0297 15.6074L13.4024 14.8619C13.6493 14.3681 13.7778 13.8237 13.7778 13.2718V12.3333C13.7778 11.597 13.1808 11 12.4444 11H11.5556C10.8192 11 10.2222 11.597 10.2222 12.3333Z" fill="#667085"/>
<path fill-rule="evenodd" clip-rule="evenodd" d="M7 1C4.79086 1 3 2.79086 3 5V19C3 21.2091 4.79086 23 7 23H17C19.2091 23 21 21.2091 21 19V10.6569C21 9.33077 20.4732 8.059 19.5355 7.12132L14.8787 2.46447C13.941 1.52678 12.6692 1 11.3431 1H7ZM5 5C5 3.89543 5.89543 3 7 3H11.3431C11.9368 3 12.5123 3.17597 13 3.49902V7C13 8.10457 13.8954 9 15 9H18.501C18.824 9.48765 19 10.0632 19 10.6569V19C19 20.1046 18.1046 21 17 21H7C5.89543 21 5 20.1046 5 19V5Z" fill="black"/>
</svg>
