<svg width="24" height="24" viewBox="0 0 24 24" fill="none" xmlns="http://www.w3.org/2000/svg">
<path fill-rule="evenodd" clip-rule="evenodd" d="M3 5C3 2.79086 4.79086 1 7 1H10.3431C11.6692 1 12.941 1.52678 13.8787 2.46447L17.5355 6.12132C18.4732 7.059 19 8.33077 19 9.65685V12.3414C18.3744 12.1203 17.7013 12 17 12V9.65685C17 9.06318 16.824 8.48765 16.501 8H14C12.8954 8 12 7.10457 12 6V3.49902C11.5123 3.17597 10.9368 3 10.3431 3H7C5.89543 3 5 3.89543 5 5V17C5 18.1046 5.89543 19 7 19H11.083C11.2034 19.7179 11.4513 20.3926 11.8027 21H7C4.79086 21 3 19.2091 3 17V5Z" fill="black"/>
<path fill-rule="evenodd" clip-rule="evenodd" d="M17 22C19.2091 22 21 20.2091 21 18C21 15.7909 19.2091 14 17 14C14.7909 14 13 15.7909 13 18C13 20.2091 14.7909 22 17 22ZM15.8889 16.1933V16.1111C15.8889 15.4975 16.3864 15 17 15C17.6136 15 18.1111 15.4975 18.1111 16.1111V16.1933C18.1111 16.6873 17.9961 17.1745 17.7752 17.6163L17.653 17.8606C17.5889 17.9888 17.5556 18.1302 17.5556 18.2735C17.5556 18.6134 17.8311 18.8889 18.171 18.8889H18.7593C19.1684 18.8889 19.5 19.2205 19.5 19.6296C19.5 19.8342 19.3342 20 19.1296 20H14.8704C14.6658 20 14.5 19.8342 14.5 19.6296C14.5 19.2205 14.8316 18.8889 15.2407 18.8889H15.829C16.1689 18.8889 16.4444 18.6134 16.4444 18.2735C16.4444 18.1302 16.4111 17.9888 16.347 17.8606L16.2248 17.6163C16.0039 17.1745 15.8889 16.6873 15.8889 16.1933Z" fill="#667085"/>
</svg>
