<svg width="24" height="24" viewBox="0 0 24 24" fill="none" xmlns="http://www.w3.org/2000/svg">
<path fill-rule="evenodd" clip-rule="evenodd" d="M3 5C3 2.79086 4.79086 1 7 1H10.3431C11.6692 1 12.941 1.52678 13.8787 2.46447L17.5355 6.12132C18.4732 7.059 19 8.33077 19 9.65685V12.3414C18.3744 12.1203 17.7013 12 17 12V9.65685C17 9.06318 16.824 8.48765 16.501 8H14C12.8954 8 12 7.10457 12 6V3.49902C11.5123 3.17597 10.9368 3 10.3431 3H7C5.89543 3 5 3.89543 5 5V17C5 18.1046 5.89543 19 7 19H11.083C11.2034 19.7179 11.4513 20.3926 11.8027 21H7C4.79086 21 3 19.2091 3 17V5Z" fill="black"/>
<path fill-rule="evenodd" clip-rule="evenodd" d="M17 22C19.2091 22 21 20.2091 21 18C21 15.7909 19.2091 14 17 14C14.7909 14 13 15.7909 13 18C13 20.2091 14.7909 22 17 22ZM17.2351 15.7871L19.247 17.7834C19.2684 17.8046 19.303 17.8046 19.3244 17.7834L19.4027 17.7057C19.4664 17.6425 19.5693 17.6425 19.633 17.7057C19.6975 17.7697 19.6975 17.8739 19.633 17.9378L18.3563 19.2047C18.2925 19.268 18.1897 19.268 18.1259 19.2047C18.0615 19.1408 18.0615 19.0366 18.1259 18.9726L18.2024 18.8967C18.2237 18.8756 18.2237 18.8411 18.2024 18.8199L17.7242 18.3455C17.6462 18.2681 17.5205 18.2681 17.4425 18.3455L15.8754 19.9004C15.6804 20.0939 15.3658 20.0938 15.1709 19.9002L15.1074 19.8371C14.9104 19.6415 14.9105 19.3229 15.1075 19.1274L16.6671 17.5799C16.746 17.5017 16.7459 17.3741 16.667 17.2959L16.1905 16.8236C16.1691 16.8023 16.1346 16.8024 16.1131 16.8236L16.0538 16.8824C15.9796 16.9561 15.8598 16.9561 15.7855 16.8824C15.7104 16.8079 15.7104 16.6865 15.7855 16.612L17.024 15.3831C17.0982 15.3094 17.2181 15.3094 17.2923 15.3831C17.3674 15.4576 17.3674 15.5791 17.2923 15.6536L17.2351 15.7103C17.2138 15.7314 17.2138 15.7659 17.2351 15.7871Z" fill="#667085"/>
</svg>
