<svg width="24" height="24" viewBox="0 0 24 24" fill="none" xmlns="http://www.w3.org/2000/svg">
<path d="M15.1952 15.0534L11.9762 11.8593C11.9421 11.8255 11.9421 11.7703 11.9762 11.7365L12.0677 11.6457C12.1878 11.5265 12.1878 11.3322 12.0677 11.213C11.9489 11.0951 11.7572 11.0951 11.6384 11.213L9.65681 13.1792C9.53668 13.2984 9.53668 13.4927 9.65681 13.6119C9.77564 13.7298 9.96732 13.7298 10.0861 13.6119L10.181 13.5178C10.2153 13.4838 10.2705 13.4838 10.3048 13.5177L11.1532 14.3587C11.2321 14.4369 11.2321 14.5644 11.1533 14.6427L8.35753 17.4168C8.1605 17.6123 8.16043 17.9309 8.35738 18.1264L8.88478 18.6502C9.0797 18.8438 9.39429 18.8439 9.58929 18.6504L12.3925 15.8689C12.4705 15.7915 12.5963 15.7915 12.6742 15.8689L13.5238 16.7119C13.5579 16.7458 13.5579 16.8009 13.5238 16.8348L13.4015 16.9562C13.2983 17.0585 13.2983 17.2253 13.4015 17.3276C13.5035 17.4288 13.668 17.4288 13.77 17.3276L15.8128 15.3006C15.916 15.1982 15.916 15.0315 15.8128 14.9291C15.7108 14.8279 15.5463 14.8279 15.4443 14.9291L15.3191 15.0534C15.2848 15.0874 15.2295 15.0874 15.1952 15.0534Z" fill="#667085"/>
<path fill-rule="evenodd" clip-rule="evenodd" d="M7 1C4.79086 1 3 2.79086 3 5V19C3 21.2091 4.79086 23 7 23H17C19.2091 23 21 21.2091 21 19V10.6569C21 9.33077 20.4732 8.059 19.5355 7.12132L14.8787 2.46447C13.941 1.52678 12.6692 1 11.3431 1H7ZM5 5C5 3.89543 5.89543 3 7 3H11.3431C11.9368 3 12.5123 3.17597 13 3.49902V7C13 8.10457 13.8954 9 15 9H18.501C18.824 9.48765 19 10.0632 19 10.6569V19C19 20.1046 18.1046 21 17 21H7C5.89543 21 5 20.1046 5 19V5Z" fill="black"/>
</svg>
