<svg width="24" height="24" viewBox="0 0 24 24" fill="none" xmlns="http://www.w3.org/2000/svg">
<path d="M10.9 10.9001L4.7 17.1001C4.20294 17.5972 3.39706 17.5972 2.9 17.1001V17.1001C2.40294 16.603 2.40294 15.7972 2.9 15.3001L9.1 9.1001M14 20.0002H19" stroke="#667085" stroke-width="2" stroke-linecap="round" stroke-linejoin="round"/>
<path d="M10.0004 2.7998L17.2004 9.9998M13.6004 13.5998L10.9004 10.8998L9.10039 9.0998L6.40039 6.3998M21.0004 20.9999H12.0004" stroke="black" stroke-width="2" stroke-linecap="round" stroke-linejoin="round"/>
<path d="M9.99961 2.79993L8.19961 4.59993M17.1996 9.99993L13.5996 13.5999M6.39961 6.39993L8.19961 4.59993M5.59961 7.19993L8.19961 4.59993M8.19961 4.59993L10.7996 2M12.7996 14.3999L15.3996 11.7999L17.9996 9.19993" stroke="#667085" stroke-width="2" stroke-linecap="round" stroke-linejoin="round"/>
</svg>
