<svg width="24" height="24" viewBox="0 0 24 24" fill="none" xmlns="http://www.w3.org/2000/svg">
<path d="M12.8783 6.75L4.25217 6.75C3.56062 6.75 3 7.30964 3 8C3 8.69036 3.56062 9.25 4.25217 9.25L12.8783 9.25M19 21V21C19 19.8954 18.1046 19 17 19H13.7652C12.6606 19 11.7652 19.8954 11.7652 21V21" stroke="#667085" stroke-width="2" stroke-linecap="round" stroke-linejoin="round"/>
<path d="M19 21H15.3826M11.7652 21H15.3826M10 21H15.3826M15.3826 21H21M17.887 4.57135V11.4287C17.887 12.2963 17.182 12.9997 16.3129 13H14.4513C13.5824 12.9994 12.8783 12.2961 12.8783 11.4286V9.25L12.8783 6.75V4.57135C12.8783 3.70352 13.583 3 14.4523 3L16.3129 3L16.3192 3.00001C17.1856 3.00339 17.887 3.70561 17.887 4.57135Z" stroke="black" stroke-width="2" stroke-linecap="round" stroke-linejoin="round"/>
<path d="M11.7656 3L16.3196 3.00001L19.0004 3.00005M11.7656 13L16.3133 13H19.0004" stroke="#667085" stroke-width="2" stroke-linecap="round" stroke-linejoin="round"/>
</svg>
