<svg width="24" height="24" viewBox="0 0 24 24" fill="none" xmlns="http://www.w3.org/2000/svg">
<path d="M11.0477 16.4667H9.63817M11.0477 16.4667H12.6283C13.4213 16.4667 14.1818 16.1549 14.7426 15.6L18.4478 11.9333C19.0317 11.3556 19.9783 11.3556 20.5621 11.9333C21.146 12.5111 21.146 13.4479 20.5621 14.0256L16.4369 18.108C14.5646 19.9607 12.0369 21 9.40288 21H3M11.0477 16.4667C11.8262 16.4667 12.4572 15.8422 12.4572 15.0718C12.4572 14.3014 11.8262 13.6769 11.0477 13.6769H8.05762C7.2646 13.6769 6.50406 13.9887 5.94331 14.5436L5.46123 15.0206C4.76791 15.7067 3.92543 16.1697 3 16.3638" stroke="black" stroke-width="2" stroke-linecap="round" stroke-linejoin="round"/>
<path d="M15.5947 7.5601L11.9732 3.96671C11.9349 3.92864 11.9349 3.86659 11.9732 3.82851L12.0762 3.72641C12.2113 3.5923 12.2113 3.37375 12.0762 3.23963C11.9425 3.10699 11.7268 3.10699 11.5932 3.23963L9.36392 5.45164C9.22876 5.58575 9.22876 5.80429 9.36392 5.9384C9.49759 6.07104 9.71323 6.07104 9.84691 5.9384L9.95365 5.83248C9.99219 5.79424 10.0544 5.79422 10.0929 5.83244L11.0652 6.79623C11.1441 6.87445 11.1442 7.00199 11.0653 7.08024L7.85753 10.2632C7.6605 10.4587 7.66043 10.7773 7.85738 10.9729L8.5394 11.6502C8.73432 11.8438 9.04891 11.8439 9.24391 11.6504L12.4592 8.46002C12.5371 8.38264 12.6629 8.38264 12.7409 8.46002L13.7143 9.42589C13.7527 9.46397 13.7527 9.52602 13.7143 9.5641L13.5766 9.7007C13.4606 9.81582 13.4606 10.0034 13.5766 10.1185C13.6914 10.2324 13.8765 10.2324 13.9913 10.1185L16.2895 7.83812C16.4055 7.723 16.4055 7.5354 16.2895 7.42028C16.1747 7.30642 15.9896 7.30642 15.8748 7.42028L15.7339 7.5601C15.6954 7.59835 15.6332 7.59835 15.5947 7.5601Z" fill="#667085"/>
</svg>
