<svg width="24" height="24" viewBox="0 0 24 24" fill="none" xmlns="http://www.w3.org/2000/svg">
<path d="M11.0477 16.4667H9.63817M11.0477 16.4667H12.6283C13.4213 16.4667 14.1818 16.1549 14.7426 15.6L18.4478 11.9333C19.0317 11.3556 19.9783 11.3556 20.5621 11.9333C21.146 12.5111 21.146 13.4479 20.5621 14.0256L16.4369 18.108C14.5646 19.9607 12.0369 21 9.40288 21H3M11.0477 16.4667C11.8262 16.4667 12.4572 15.8422 12.4572 15.0718C12.4572 14.3014 11.8262 13.6769 11.0477 13.6769H8.05762C7.2646 13.6769 6.50406 13.9887 5.94331 14.5436L5.46123 15.0206C4.76791 15.7067 3.92543 16.1697 3 16.3638" stroke="black" stroke-width="2" stroke-linecap="round" stroke-linejoin="round"/>
<path fill-rule="evenodd" clip-rule="evenodd" d="M11.1 2.90909C11.1 2.40701 11.5029 2 12 2H12.0045C12.5015 2 12.9045 2.40701 12.9045 2.90909C12.9045 3.30896 12.6489 3.64854 12.2937 3.77022L13.2889 5.14765C13.304 5.16921 13.3269 5.18177 13.3511 5.18177H14.7283C14.7098 5.10914 14.7 5.033 14.7 4.95455C14.7 4.45247 15.1029 4.04545 15.6 4.04545H15.6C16.0971 4.04545 16.5 4.45247 16.5 4.95455C16.5 5.45662 16.0971 5.86364 15.6 5.86364H15.6C15.3515 5.86364 15.1266 5.76197 14.9638 5.59757L14.1146 6.94695C14.0947 6.97863 14.0947 7.0213 14.1146 7.05298L14.9638 8.4024C15.1266 8.23802 15.3515 8.13636 15.6 8.13636H15.6C16.0971 8.13636 16.5 8.54338 16.5 9.04545C16.5 9.54753 16.0971 9.95455 15.6 9.95455H15.6C15.1029 9.95455 14.7 9.54753 14.7 9.04545C14.7 8.96697 14.7098 8.89081 14.7283 8.81817L13.3511 8.81816C13.3269 8.81816 13.304 8.83072 13.2889 8.85228L12.2937 10.2298C12.6489 10.3515 12.9045 10.691 12.9045 11.0909C12.9045 11.593 12.5015 12 12.0045 12H12C11.5029 12 11.1 11.593 11.1 11.0909C11.1 10.6872 11.3605 10.345 11.7209 10.2264L10.7894 8.85765C10.7727 8.83297 10.7449 8.81823 10.7153 8.81823L9.27615 8.81823C9.29465 8.89086 9.30449 8.967 9.30449 9.04545C9.30449 9.54753 8.90155 9.95455 8.4045 9.95455H8.4C7.90294 9.95455 7.5 9.54753 7.5 9.04545C7.5 8.54338 7.90294 8.13636 8.4 8.13636H8.4045C8.67517 8.13636 8.91794 8.25706 9.08293 8.44809L9.96352 7.0488C9.98224 7.01904 9.98224 6.98103 9.96352 6.95127L9.0829 5.55194C8.91792 5.74295 8.67516 5.86364 8.4045 5.86364H8.4C7.90294 5.86364 7.5 5.45662 7.5 4.95455C7.5 4.45247 7.90294 4.04545 8.4 4.04545H8.4045C8.90155 4.04545 9.30449 4.45247 9.30449 4.95455C9.30449 5.03303 9.29465 5.10919 9.27613 5.18184H10.7153C10.7449 5.18184 10.7727 5.1671 10.7894 5.14243L11.721 3.77365C11.3605 3.65502 11.1 3.31279 11.1 2.90909Z" fill="#667085"/>
</svg>
