<svg width="24" height="24" viewBox="0 0 24 24" fill="none" xmlns="http://www.w3.org/2000/svg">
<path d="M11.0477 16.4667H9.63817M11.0477 16.4667H12.6283C13.4213 16.4667 14.1818 16.1549 14.7426 15.6L18.4478 11.9333C19.0317 11.3556 19.9783 11.3556 20.5621 11.9333C21.146 12.5111 21.146 13.4479 20.5621 14.0256L16.4369 18.108C14.5646 19.9607 12.0369 21 9.40288 21H3M11.0477 16.4667C11.8262 16.4667 12.4572 15.8422 12.4572 15.0718C12.4572 14.3014 11.8262 13.6769 11.0477 13.6769H8.05762C7.2646 13.6769 6.50406 13.9887 5.94331 14.5436L5.46123 15.0206C4.76791 15.7067 3.92543 16.1697 3 16.3638" stroke="black" stroke-width="2" stroke-linecap="round" stroke-linejoin="round"/>
<path d="M13.4706 3.45652C13.4706 3.55328 13.4611 3.64783 13.4429 3.7393L15.512 3.73945C15.8393 3.73945 16.1046 4.00224 16.1046 4.32641C16.1046 4.64964 15.8408 4.91185 15.5148 4.91336L16.5 7.31254C16.5003 8.84793 13.559 8.84793 13.5582 7.31254L14.5434 4.91346L12.5926 4.91312V9.82609H13.5804C13.9077 9.82609 14.173 10.0889 14.173 10.413C14.173 10.7372 13.9077 11 13.5804 11H10.4196C10.0923 11 9.82693 10.7372 9.82693 10.413C9.82693 10.0889 10.0923 9.82609 10.4196 9.82609H11.4073V4.91312L9.45656 4.91326L10.4418 7.31244C10.4421 8.84783 7.50076 8.84783 7.5 7.31244L8.48517 4.91336C8.15915 4.91185 7.89533 4.64964 7.89533 4.32641C7.89533 4.00224 8.16067 3.73945 8.48798 3.73945L10.557 3.7393C10.5389 3.64783 10.5293 3.55328 10.5293 3.45652C10.5293 2.65211 11.1878 2 12 2C12.8122 2 13.4706 2.65211 13.4706 3.45652Z" fill="#667085"/>
</svg>
