<svg width="24" height="24" viewBox="0 0 24 24" fill="none" xmlns="http://www.w3.org/2000/svg">
<path d="M11.0477 16.4667H9.63817M11.0477 16.4667H12.6283C13.4213 16.4667 14.1818 16.1549 14.7426 15.6L18.4478 11.9333C19.0317 11.3556 19.9783 11.3556 20.5621 11.9333C21.146 12.5111 21.146 13.4479 20.5621 14.0256L16.4369 18.108C14.5646 19.9607 12.0369 21 9.40288 21H3M11.0477 16.4667C11.8262 16.4667 12.4572 15.8422 12.4572 15.0718C12.4572 14.3014 11.8262 13.6769 11.0477 13.6769H8.05762C7.2646 13.6769 6.50406 13.9887 5.94331 14.5436L5.46123 15.0206C4.76791 15.7067 3.92543 16.1697 3 16.3638" stroke="black" stroke-width="2" stroke-linecap="round" stroke-linejoin="round"/>
<path d="M10 3.33333V4.66065C10 5.21263 10.1285 5.75703 10.3754 6.25074L10.8592 7.21847C10.9518 7.40361 11 7.60776 11 7.81476V8.11111C11 8.60203 10.602 9 10.1111 9H8.83333C8.09695 9 7.5 9.59695 7.5 10.3333C7.5 10.7015 7.79848 11 8.16667 11H15.8333C16.2015 11 16.5 10.7015 16.5 10.3333C16.5 9.59695 15.903 9 15.1667 9H13.8889C13.398 9 13 8.60203 13 8.11111V7.81476C13 7.60776 13.0482 7.40361 13.1408 7.21847L13.6246 6.25074C13.8715 5.75703 14 5.21263 14 4.66065V3.33333C14 2.59695 13.403 2 12.6667 2H11.3333C10.597 2 10 2.59695 10 3.33333Z" fill="#667085"/>
</svg>
