<svg width="24" height="24" viewBox="0 0 24 24" fill="none" xmlns="http://www.w3.org/2000/svg">
<path d="M8.99912 12C6.24632 13.1621 5.68253 11.2663 5.99912 10C3.99912 8.5 5.49912 6 6.99912 6C7.49912 4.5 8.49912 3 11.9991 3C15.4991 3 16.4991 4.5 16.9991 6C18.4991 6 19.9991 8.5 17.9991 10C18.3157 11.2663 17.7519 13.1621 14.9991 12M13.9991 14.3045L15.2307 18.4276C15.6139 19.7103 14.6531 21 13.3144 21H11.9991H10.6839C9.34512 21 8.38436 19.7103 8.76752 18.4276L9.99912 14.3045" stroke="#667085" stroke-width="2" stroke-linecap="round" stroke-linejoin="round"/>
<path d="M3 20.9998C3 15.7998 7 12.8332 9 11.9998M9 11.9998C9 14.3998 11 14.9998 12 14.9998C12.5338 14.9998 13.3526 14.8289 14 14.3044C14.5654 13.8463 15 13.1187 15 11.9998M9 11.9998C9 9.59984 9 5.49984 12 5.99984C15 5.49984 15 9.59984 15 11.9998M15 11.9998C17 12.8332 21 15.7998 21 20.9998" stroke="black" stroke-width="2" stroke-linecap="round" stroke-linejoin="round"/>
</svg>
