<svg width="24" height="24" viewBox="0 0 24 24" fill="none" xmlns="http://www.w3.org/2000/svg">
<path d="M9.00086 11.9999C6.24806 13.162 5.68427 11.2662 6.00086 9.99986C4.00086 8.49986 5.00086 6.49986 6.50086 6.49986C5.56366 4.62546 7.02889 3.19023 8.66939 3.47781C8.83594 3.50701 9.00022 3.38546 9.02571 3.21831C9.287 1.50519 11.5302 1.58787 12.0009 2.99986C12.4716 1.58787 14.7147 1.505 14.976 3.21812C15.0015 3.38527 15.1658 3.50682 15.3323 3.47762C16.9728 3.19004 18.4381 4.62527 17.5009 6.49967C19.0009 6.49967 20.0009 8.49986 18.0009 9.99986C18.3174 11.2662 17.7537 13.162 15.0009 11.9999M14.0009 14.3044L15.4984 19.3177C15.7202 20.0603 15.0495 20.762 14.2977 20.5741L12.7285 20.1818C12.2507 20.0623 11.751 20.0623 11.2733 20.1818L9.70403 20.5741C8.95219 20.762 8.28152 20.0603 8.50333 19.3177L10.0009 14.3044" stroke="#667085" stroke-width="2" stroke-linecap="round" stroke-linejoin="round"/>
<path d="M3 20.9998C3 15.7998 7 12.8332 9 11.9998M9 11.9998C9 14.3998 11 14.9998 12 14.9998C12.5338 14.9998 13.3526 14.8289 14 14.3044C14.5654 13.8463 15 13.1187 15 11.9998M9 11.9998C9 9.59984 9 5.49984 12 5.99984C15 5.49984 15 9.59984 15 11.9998M15 11.9998C17 12.8332 21 15.7998 21 20.9998" stroke="black" stroke-width="2" stroke-linecap="round" stroke-linejoin="round"/>
</svg>
