<svg width="24" height="24" viewBox="0 0 24 24" fill="none" xmlns="http://www.w3.org/2000/svg">
<path d="M21 18.1763H15" stroke="black" stroke-width="2" stroke-linecap="round" stroke-linejoin="round"/>
<path d="M3 18.1765H9M18 21C18.9254 21 20.7073 20.5164 20.9679 18.6539C21.0118 18.3404 20.9499 18.0231 20.8515 17.7222L18 9L15.1485 17.7222C15.0501 18.0231 14.987 18.3406 15.0361 18.6534C15.3105 20.4015 17.0792 21 18 21ZM14 5C14 6.10457 13.1046 7 12 7C10.8954 7 10 6.10457 10 5C10 3.89543 10.8954 3 12 3C13.1046 3 14 3.89543 14 5Z" stroke="#667085" stroke-width="2" stroke-linecap="round" stroke-linejoin="round"/>
<path d="M6 9L3.14851 17.7222C3.05013 18.0231 2.98824 18.3404 3.03211 18.6539C3.29268 20.5164 5.07456 21 6 21C6.9208 21 8.68947 20.4015 8.96385 18.6534C9.01295 18.3406 8.94988 18.0231 8.85149 17.7222L6 9ZM6 9C7.5 9 7 8 9 8H12H15C16 8 16.5 9 18 9H20M6 9H4" stroke="black" stroke-width="2" stroke-linecap="round" stroke-linejoin="round"/>
</svg>
