<svg width="24" height="24" viewBox="0 0 24 24" fill="none" xmlns="http://www.w3.org/2000/svg">
<path d="M22 13.1763H16" stroke="black" stroke-width="2" stroke-linecap="round" stroke-linejoin="round"/>
<path d="M2 13.1763H8" stroke="#667085" stroke-width="2" stroke-linecap="round" stroke-linejoin="round"/>
<path d="M19 16C19.9254 16 21.7073 15.5164 21.9679 13.6539C22.0118 13.3404 21.9499 13.0231 21.8515 12.7222L19 4L16.1485 12.7222C16.0501 13.0231 15.987 13.3406 16.0361 13.6534C16.3105 15.4015 18.0792 16 19 16Z" stroke="#667085" stroke-width="2" stroke-linecap="round" stroke-linejoin="round"/>
<path d="M5 4L2.14851 12.7222C2.05013 13.0231 1.98824 13.3404 2.03211 13.6539C2.29268 15.5164 4.07456 16 5 16C5.9208 16 7.68947 15.4015 7.96385 13.6534C8.01295 13.3406 7.94988 13.0231 7.85149 12.7222L5 4ZM5 4C6.5 4 7 3 9 3H12M5 4H3M12 19V3M21 4H19C17.5 4 17 3 15 3H12" stroke="black" stroke-width="2" stroke-linecap="round" stroke-linejoin="round"/>
<path d="M6 21V20.5C6 19.6716 6.67157 19 7.5 19H16.5C17.3284 19 18 19.6716 18 20.5V21" stroke="#667085" stroke-width="2" stroke-linecap="round" stroke-linejoin="round"/>
</svg>
