<svg width="24" height="24" viewBox="0 0 24 24" fill="none" xmlns="http://www.w3.org/2000/svg">
<path d="M19 15V18.5" stroke="#667085" stroke-width="2" stroke-linecap="round" stroke-linejoin="round"/>
<path d="M5 17C5 18.1046 5.89543 19 7 19H18.5C18.7761 19 19 18.7761 19 18.5M5 17C5 15.8954 5.89543 15 7 15H18.5C18.7761 15 19 14.7761 19 14.5V3.5C19 3.22386 18.7761 3 18.5 3H7C5.89543 3 5 3.89543 5 5V17Z" stroke="black" stroke-width="2" stroke-linecap="round" stroke-linejoin="round"/>
<path d="M8 17V21" stroke="#667085" stroke-width="2" stroke-linecap="round" stroke-linejoin="round"/>
<path d="M13.4706 6.96462C13.4706 7.06191 13.4611 7.15698 13.4429 7.24897L15.512 7.24911C15.8393 7.24911 16.1046 7.51336 16.1046 7.83933C16.1046 8.16437 15.8408 8.42803 15.5148 8.42954L16.5 10.8421C16.5003 12.386 13.559 12.386 13.5582 10.8421L14.5434 8.42965L9.45656 8.42944L10.4418 10.842C10.4421 12.3859 7.50076 12.3859 7.5 10.842L8.48517 8.42954C8.15915 8.42803 7.89533 8.16437 7.89533 7.83933C7.89533 7.51336 8.16067 7.24911 8.48798 7.24911L10.557 7.24897C10.5389 7.15698 10.5293 7.06191 10.5293 6.96462C10.5293 6.15573 11.1878 5.5 12 5.5C12.8122 5.5 13.4706 6.15573 13.4706 6.96462Z" fill="#667085"/>
</svg>
