<svg width="24" height="24" viewBox="0 0 24 24" fill="none" xmlns="http://www.w3.org/2000/svg">
<path d="M18 22V18" stroke="#667085" stroke-width="2" stroke-linecap="round" stroke-linejoin="round"/>
<path d="M20 22H18H6C4.89543 22 4 21.1046 4 20V20M4 20V20C4 18.8954 4.89543 18 6 18H18H19C19.5523 18 20 17.5523 20 17V4C20 2.89543 19.1046 2 18 2H6C4.89543 2 4 2.89543 4 4V20Z" stroke="black" stroke-width="2" stroke-linecap="round" stroke-linejoin="round"/>
<path d="M13.8605 6.11111C13.8605 6.23474 13.8485 6.35556 13.8255 6.47245L16.4439 6.47263C16.8581 6.47263 17.1939 6.80842 17.1939 7.22263C17.1939 7.63565 16.86 7.9707 16.4474 7.97262L17.6942 11.0382C17.6946 13.0001 13.9724 13.0001 13.9714 11.0382L15.2181 7.97275L12.7494 7.97231V14.25H13.9994C14.4136 14.25 14.7494 14.5858 14.7494 15C14.7494 15.4142 14.4136 15.75 13.9994 15.75H9.99943C9.58521 15.75 9.24943 15.4142 9.24943 15C9.24943 14.5858 9.58521 14.25 9.99943 14.25H11.2494V7.97231L8.78072 7.97249L10.0275 11.0381C10.0279 13 6.30565 13 6.30469 11.0381L7.55142 7.97262C7.13885 7.9707 6.80498 7.63565 6.80498 7.22263C6.80498 6.80842 7.14077 6.47263 7.55498 6.47263L10.1734 6.47245C10.1504 6.35556 10.1383 6.23474 10.1383 6.11111C10.1383 5.08325 10.9716 4.25 11.9994 4.25C13.0273 4.25 13.8605 5.08325 13.8605 6.11111Z" fill="#667085"/>
</svg>
