<svg width="24" height="24" viewBox="0 0 24 24" fill="none" xmlns="http://www.w3.org/2000/svg">
<path d="M12 8C12 6.34315 13.3431 5 15 5H20C20.5523 5 21 5.44772 21 6V18C21 18.5523 20.5523 19 20 19H12" stroke="#667085" stroke-width="2" stroke-linecap="round" stroke-linejoin="round"/>
<path d="M8.31702 8.78864C8.31702 8.84103 8.31172 8.89222 8.30163 8.94175L9.4511 8.94183C9.63294 8.94183 9.78035 9.08412 9.78035 9.25964C9.78035 9.43466 9.63378 9.57663 9.45266 9.57745L10 10.8765C10.0002 11.7078 8.36611 11.7078 8.36569 10.8765L8.913 9.5775L6.08698 9.57739L6.63431 10.8764C6.6345 11.7078 5.00042 11.7078 5 10.8764L5.54732 9.57745C5.3662 9.57663 5.21963 9.43466 5.21963 9.25964C5.21963 9.08412 5.36704 8.94183 5.54888 8.94183L6.69835 8.94175C6.68825 8.89222 6.68296 8.84103 6.68296 8.78864C6.68296 8.35309 7.04876 8 7.49999 8C7.95122 8 8.31702 8.35309 8.31702 8.78864Z" fill="#667085"/>
<path d="M6 14H9M3 18V6C3 5.44772 3.44772 5 4 5H9C10.6569 5 12 6.34315 12 8V19H4C3.44772 19 3 18.5523 3 18Z" stroke="black" stroke-width="2" stroke-linecap="round" stroke-linejoin="round"/>
</svg>
