<svg width="24" height="24" viewBox="0 0 24 24" fill="none" xmlns="http://www.w3.org/2000/svg">
<path d="M5 12V16" stroke="#667085" stroke-width="2" stroke-linecap="round" stroke-linejoin="round"/>
<path d="M19 18V22M3 12H5H19C20.1046 12 21 12.8954 21 14C21 15.1046 20.1046 16 19 16H5H3" stroke="black" stroke-width="2" stroke-linecap="round" stroke-linejoin="round"/>
<path d="M21 22H19H5C3.89543 22 3 21.1046 3 20V20C3 18.8954 3.89543 18 5 18H19H21" stroke="#667085" stroke-width="2" stroke-linecap="round" stroke-linejoin="round"/>
<path d="M13.3072 3.30724C13.3072 3.39408 13.2988 3.47894 13.2826 3.56104L15.1218 3.56117C15.4127 3.56117 15.6486 3.79703 15.6486 4.08797C15.6486 4.37808 15.4141 4.61342 15.1243 4.61477L16 6.76806C16.0003 8.14608 13.3858 8.14608 13.3851 6.76806L14.2608 4.61486L12.5268 4.61455V9.02399H13.4048C13.6957 9.02399 13.9316 9.25985 13.9316 9.55079C13.9316 9.84173 13.6957 10.0776 13.4048 10.0776H10.5952C10.3042 10.0776 10.0684 9.84173 10.0684 9.55079C10.0684 9.25985 10.3042 9.02399 10.5952 9.02399H11.4732V4.61455L9.73916 4.61468L10.6149 6.76797C10.6152 8.14599 8.00068 8.14599 8 6.76797L8.8757 4.61477C8.58591 4.61342 8.35141 4.37808 8.35141 4.08797C8.35141 3.79703 8.58726 3.56117 8.87821 3.56117L10.7174 3.56104C10.7012 3.47894 10.6927 3.39408 10.6927 3.30724C10.6927 2.58527 11.278 2 12 2C12.722 2 13.3072 2.58527 13.3072 3.30724Z" fill="#667085"/>
</svg>
