<svg width="24" height="24" viewBox="0 0 24 24" fill="none" xmlns="http://www.w3.org/2000/svg">
<path d="M20 21C18 20.5 18 17.5 20 17M8 14H16" stroke="#667085" stroke-width="2" stroke-linecap="round" stroke-linejoin="round"/>
<path d="M20 21H6C4.89543 21 4 20.1046 4 19V19M4 19V19C4 17.8954 4.89543 17 6 17H20V4C20 2.89543 19.1046 2 18 2H6C4.89543 2 4 2.89543 4 4V19ZM10 11H14" stroke="black" stroke-width="2" stroke-linecap="round" stroke-linejoin="round"/>
<path d="M13.1438 5.12663C13.1438 5.20147 13.1364 5.2746 13.1223 5.34536L14.7315 5.34547C14.9861 5.34547 15.1925 5.54874 15.1925 5.79949C15.1925 6.04951 14.9873 6.25233 14.7337 6.2535L15.5 8.10928C15.5003 9.29691 13.2126 9.29691 13.212 8.10928L13.9782 6.25357L10.0218 6.25342L10.788 8.1092C10.7883 9.29683 8.50059 9.29683 8.5 8.1092L9.26624 6.2535C9.01267 6.25233 8.80748 6.04951 8.80748 5.79949C8.80748 5.54874 9.01386 5.34547 9.26843 5.34547L10.8777 5.34536C10.8636 5.2746 10.8561 5.20147 10.8561 5.12663C10.8561 4.50441 11.3683 4 12 4C12.6317 4 13.1438 4.50441 13.1438 5.12663Z" fill="#667085"/>
</svg>
