<svg width="24" height="24" viewBox="0 0 24 24" fill="none" xmlns="http://www.w3.org/2000/svg">
<path d="M4.54286 3C3.69076 3 3 3.69076 3 4.54286C3 5.39495 3.69076 6.08571 4.54286 6.08571H6.08571" stroke="#667085" stroke-width="2" stroke-linecap="round" stroke-linejoin="round"/>
<path d="M7.62868 21C6.77659 21 6.08583 20.3092 6.08583 19.4571V6.08571V4.54286C6.08583 3.69076 5.39507 3 4.54297 3H15.4287C17.0855 3 18.4287 4.34315 18.4287 6V15.9143M10.0001 13H14.5001" stroke="black" stroke-width="2" stroke-linecap="round" stroke-linejoin="round"/>
<path d="M7.62891 20.9998C8.481 20.9998 9.17176 20.309 9.17176 19.4569V16.9141C9.17176 16.3618 9.61948 15.9141 10.1718 15.9141H18.4289H20.0003C20.5526 15.9141 21.0003 16.3618 21.0003 16.9141V19.4569C21.0003 20.309 20.3096 20.9998 19.4575 20.9998H7.62891Z" stroke="#667085" stroke-width="2" stroke-linecap="round" stroke-linejoin="round"/>
<path d="M15.2958 8.04674L12.4792 5.25189C12.4493 5.22227 12.4493 5.17401 12.4792 5.1444L12.5592 5.06498C12.6644 4.96068 12.6644 4.79069 12.5592 4.68638C12.4553 4.58321 12.2875 4.58321 12.1836 4.68638L10.4497 6.40683C10.3446 6.51114 10.3446 6.68112 10.4497 6.78542C10.5537 6.88859 10.7214 6.88859 10.8254 6.78542L10.9084 6.70304C10.9384 6.6733 10.9867 6.67328 11.0167 6.70301L11.7411 7.42108C11.82 7.49929 11.8201 7.62683 11.7412 7.70509L9.35753 10.0703C9.1605 10.2658 9.16043 10.5844 9.35738 10.78L9.73016 11.1502C9.92508 11.3438 10.2397 11.3439 10.4347 11.1504L12.8258 8.77774C12.9038 8.70037 13.0296 8.70037 13.1076 8.77774L13.8334 9.49792C13.8632 9.52753 13.8632 9.5758 13.8334 9.60541L13.7263 9.71165C13.636 9.80119 13.636 9.9471 13.7263 10.0366C13.8155 10.1252 13.9595 10.1252 14.0488 10.0366L15.8362 8.26298C15.9265 8.17345 15.9265 8.02753 15.8362 7.938C15.747 7.84944 15.603 7.84944 15.5138 7.938L15.4042 8.04674C15.3742 8.07649 15.3258 8.07649 15.2958 8.04674Z" fill="#667085"/>
</svg>
