<svg width="24" height="24" viewBox="0 0 24 24" fill="none" xmlns="http://www.w3.org/2000/svg">
<path d="M4.54286 3C3.69076 3 3 3.69076 3 4.54286C3 5.39495 3.69076 6.08571 4.54286 6.08571H6.08571M4.54286 3C5.39495 3 6.08571 3.69076 6.08571 4.54286V6.08571M4.54286 3H15.4286C17.0854 3 18.4286 4.34315 18.4286 6V15.9143M7.62857 21C8.48067 21 9.17143 20.3092 9.17143 19.4571V16.9143C9.17143 16.362 9.61914 15.9143 10.1714 15.9143H18.4286M7.62857 21C6.77647 21 6.08571 20.3092 6.08571 19.4571V6.08571M7.62857 21H19.4571C20.3092 21 21 20.3092 21 19.4571V16.9143C21 16.362 20.5523 15.9143 20 15.9143L18.4286 15.9143" stroke="black" stroke-width="2" stroke-linecap="round" stroke-linejoin="round"/>
<path d="M13.6438 7.14384C13.6438 7.21982 13.6364 7.29407 13.6223 7.36591L15.2315 7.36603C15.4861 7.36603 15.6925 7.5724 15.6925 7.82698C15.6925 8.08082 15.4873 8.28674 15.2337 8.28792L16 10.1721C16.0003 11.3778 13.7126 11.3778 13.712 10.1721L14.4782 8.288L12.9609 8.28773V12.146H13.7292C13.9838 12.146 14.1901 12.3524 14.1901 12.6069C14.1901 12.8615 13.9838 13.0679 13.7292 13.0679H11.2708C11.0162 13.0679 10.8098 12.8615 10.8098 12.6069C10.8098 12.3524 11.0162 12.146 11.2708 12.146H12.039V8.28773L10.5218 8.28784L11.288 10.172C11.2883 11.3777 9.00059 11.3777 9 10.172L9.76624 8.28792C9.51267 8.28674 9.30748 8.08082 9.30748 7.82698C9.30748 7.5724 9.51386 7.36603 9.76843 7.36603L11.3777 7.36591C11.3636 7.29407 11.3561 7.21982 11.3561 7.14384C11.3561 6.51211 11.8683 6 12.5 6C13.1317 6 13.6438 6.51211 13.6438 7.14384Z" fill="#667085"/>
</svg>
