<svg width="24" height="24" viewBox="0 0 24 24" fill="none" xmlns="http://www.w3.org/2000/svg">
<path d="M4.54286 3C3.69076 3 3 3.69076 3 4.54286C3 5.39495 3.69076 6.08571 4.54286 6.08571H6.08571" stroke="#667085" stroke-width="2" stroke-linecap="round" stroke-linejoin="round"/>
<path d="M7.62868 21C6.77659 21 6.08583 20.3092 6.08583 19.4571V6.08571V4.54286C6.08583 3.69076 5.39507 3 4.54297 3H15.4287C17.0855 3 18.4287 4.34315 18.4287 6V15.9143M10.0001 12H14.5001" stroke="black" stroke-width="2" stroke-linecap="round" stroke-linejoin="round"/>
<path d="M7.62891 20.9998C8.481 20.9998 9.17176 20.309 9.17176 19.4569V16.9141C9.17176 16.3618 9.61948 15.9141 10.1718 15.9141H18.4289H20.0003C20.5526 15.9141 21.0003 16.3618 21.0003 16.9141V19.4569C21.0003 20.309 20.3096 20.9998 19.4575 20.9998H7.62891Z" stroke="#667085" stroke-width="2" stroke-linecap="round" stroke-linejoin="round"/>
<path fill-rule="evenodd" clip-rule="evenodd" d="M11.5 5.5C11.5 5.22386 11.7238 5 12 5H12.0025C12.2786 5 12.5025 5.22386 12.5025 5.5C12.5025 5.71993 12.3605 5.90669 12.1632 5.97361L12.716 6.7312C12.7244 6.74306 12.7372 6.74996 12.7506 6.74996H13.5157C13.5054 6.71002 13.5 6.66814 13.5 6.62499C13.5 6.34885 13.7238 6.12499 14 6.12499H14C14.2761 6.12499 14.5 6.34885 14.5 6.62499C14.5 6.90113 14.2761 7.12499 14 7.12499H14C13.862 7.12499 13.737 7.06907 13.6465 6.97865L13.1748 7.72081C13.1637 7.73823 13.1637 7.7617 13.1748 7.77912L13.6466 8.5213C13.737 8.43089 13.862 8.37498 14 8.37498H14C14.2761 8.37498 14.5 8.59884 14.5 8.87498C14.5 9.15112 14.2761 9.37497 14 9.37497H14C13.7238 9.37497 13.5 9.15112 13.5 8.87498C13.5 8.83181 13.5055 8.78992 13.5157 8.74997L12.7506 8.74997C12.7372 8.74997 12.7244 8.75687 12.716 8.76873L12.1632 9.52636C12.3605 9.59329 12.5025 9.78005 12.5025 9.99997C12.5025 10.2761 12.2786 10.5 12.0025 10.5H12C11.7238 10.5 11.5 10.2761 11.5 9.99997C11.5 9.77795 11.6447 9.58972 11.845 9.52447L11.3275 8.77168C11.3181 8.75811 11.3027 8.75001 11.2863 8.75001L10.4868 8.75001C10.497 8.78995 10.5025 8.83182 10.5025 8.87498C10.5025 9.15112 10.2786 9.37497 10.0025 9.37497H10C9.72386 9.37497 9.5 9.15112 9.5 8.87498C9.5 8.59884 9.72386 8.37498 10 8.37498H10.0025C10.1529 8.37498 10.2877 8.44136 10.3794 8.54643L10.8686 7.77683C10.879 7.76046 10.879 7.73955 10.8686 7.72318L10.3794 6.95356C10.2877 7.05861 10.1529 7.12499 10.0025 7.12499H10C9.72386 7.12499 9.5 6.90113 9.5 6.62499C9.5 6.34885 9.72386 6.12499 10 6.12499H10.0025C10.2786 6.12499 10.5025 6.34885 10.5025 6.62499C10.5025 6.66816 10.497 6.71004 10.4867 6.75H11.2863C11.3027 6.75 11.3181 6.74189 11.3275 6.72832L11.845 5.9755C11.6447 5.91026 11.5 5.72203 11.5 5.5Z" fill="#667085"/>
</svg>
