<svg width="24" height="24" viewBox="0 0 24 24" fill="none" xmlns="http://www.w3.org/2000/svg">
<path d="M4.54286 3C3.69076 3 3 3.69076 3 4.54286C3 5.39495 3.69076 6.08571 4.54286 6.08571H6.08571M4.54286 3C5.39495 3 6.08571 3.69076 6.08571 4.54286V6.08571M4.54286 3H15.4286C17.0854 3 18.4286 4.34315 18.4286 6V15.9143M7.62857 21C8.48067 21 9.17143 20.3092 9.17143 19.4571V16.9143C9.17143 16.362 9.61914 15.9143 10.1714 15.9143H18.4286M7.62857 21C6.77647 21 6.08571 20.3092 6.08571 19.4571V6.08571M7.62857 21H19.4571C20.3092 21 21 20.3092 21 19.4571V16.9143C21 16.362 20.5523 15.9143 20 15.9143L18.4286 15.9143" stroke="black" stroke-width="2" stroke-linecap="round" stroke-linejoin="round"/>
<path d="M10.9444 7.33333V7.88287C10.9444 8.43485 11.073 8.97925 11.3198 9.47296L11.5858 10.0049C11.6755 10.1844 11.7222 10.3822 11.7222 10.5829C11.7222 11.0587 11.3365 11.4444 10.8606 11.4444H10.037C9.4643 11.4444 9 11.9087 9 12.4815C9 12.7679 9.23215 13 9.51852 13H15.4815C15.7679 13 16 12.7679 16 12.4815C16 11.9087 15.5357 11.4444 14.963 11.4444H14.1394C13.6635 11.4444 13.2778 11.0587 13.2778 10.5829C13.2778 10.3822 13.3245 10.1844 13.4142 10.0049L13.6802 9.47296C13.927 8.97925 14.0556 8.43485 14.0556 7.88287V7.33333C14.0556 6.59695 13.4586 6 12.7222 6H12.2778C11.5414 6 10.9444 6.59695 10.9444 7.33333Z" fill="#667085"/>
</svg>
