<svg width="24" height="24" viewBox="0 0 24 24" fill="none" xmlns="http://www.w3.org/2000/svg">
<path d="M4.54286 3C3.69076 3 3 3.69076 3 4.54286C3 5.39495 3.69076 6.08571 4.54286 6.08571H6.08571" stroke="#667085" stroke-width="2" stroke-linecap="round" stroke-linejoin="round"/>
<path d="M7.62868 21C6.77659 21 6.08583 20.3092 6.08583 19.4571V6.08571V4.54286C6.08583 3.69076 5.39507 3 4.54297 3H15.4287C17.0855 3 18.4287 4.34315 18.4287 6V15.9143" stroke="black" stroke-width="2" stroke-linecap="round" stroke-linejoin="round"/>
<path d="M10.0003 7H14.5003M10.0003 11H14.5003M9.17176 19.4571C9.17176 20.3092 8.481 21 7.62891 21H19.4575C20.3096 21 21.0003 20.3092 21.0003 19.4571V16.9143C21.0003 16.362 20.5526 15.9143 20.0003 15.9143L18.4289 15.9143H10.1718C9.61948 15.9143 9.17176 16.362 9.17176 16.9143V19.4571Z" stroke="#667085" stroke-width="2" stroke-linecap="round" stroke-linejoin="round"/>
</svg>
