<svg width="24" height="24" viewBox="0 0 24 24" fill="none" xmlns="http://www.w3.org/2000/svg">
<path d="M4.54286 3C3.69076 3 3 3.69076 3 4.54286C3 5.39495 3.69076 6.08571 4.54286 6.08571H6.08571M4.54286 3C5.39495 3 6.08571 3.69076 6.08571 4.54286V6.08571M4.54286 3H15.4286C17.0854 3 18.4286 4.34315 18.4286 6V15.9143M7.62857 21C8.48067 21 9.17143 20.3092 9.17143 19.4571V16.9143C9.17143 16.362 9.61914 15.9143 10.1714 15.9143H18.4286M7.62857 21C6.77647 21 6.08571 20.3092 6.08571 19.4571V6.08571M7.62857 21H19.4571C20.3092 21 21 20.3092 21 19.4571V16.9143C21 16.362 20.5523 15.9143 20 15.9143L18.4286 15.9143" stroke="black" stroke-width="2" stroke-linecap="round" stroke-linejoin="round"/>
<path fill-rule="evenodd" clip-rule="evenodd" d="M11.8 6.7C11.8 6.3134 12.1134 6 12.5 6H12.5035C12.8901 6 13.2035 6.3134 13.2035 6.7C13.2035 7.0079 13.0047 7.26936 12.7284 7.36306L13.5025 8.42367C13.5142 8.44028 13.532 8.44994 13.5509 8.44994H14.622C14.6076 8.39402 14.6 8.3354 14.6 8.27499C14.6 7.88839 14.9134 7.57499 15.3 7.57499H15.3C15.6866 7.57499 16 7.88839 16 8.27499C16 8.66158 15.6866 8.97498 15.3 8.97498H15.3C15.1067 8.97498 14.9318 8.8967 14.8052 8.77011L14.1447 9.80913C14.1292 9.83352 14.1292 9.86638 14.1447 9.89077L14.8052 10.9298C14.9318 10.8032 15.1068 10.725 15.3 10.725H15.3C15.6866 10.725 16 11.0384 16 11.425C16 11.8116 15.6866 12.125 15.3 12.125H15.3C14.9134 12.125 14.6 11.8116 14.6 11.425C14.6 11.3645 14.6076 11.3059 14.622 11.25L13.5509 11.25C13.532 11.25 13.5142 11.2596 13.5025 11.2762L12.7285 12.3369C13.0047 12.4306 13.2035 12.6921 13.2035 13C13.2035 13.3866 12.8901 13.7 12.5035 13.7H12.5C12.1134 13.7 11.8 13.3866 11.8 13C11.8 12.6891 12.0026 12.4256 12.2829 12.3343L11.5585 11.2804C11.5454 11.2614 11.5238 11.25 11.5008 11.25L10.3815 11.25C10.3958 11.3059 10.4035 11.3646 10.4035 11.425C10.4035 11.8116 10.0901 12.125 9.7035 12.125H9.7C9.3134 12.125 9 11.8116 9 11.425C9 11.0384 9.3134 10.725 9.7 10.725H9.7035C9.91402 10.725 10.1028 10.8179 10.2312 10.965L10.9161 9.88756C10.9306 9.86464 10.9306 9.83537 10.9161 9.81245L10.2311 8.73498C10.1028 8.88205 9.91401 8.97498 9.7035 8.97498H9.7C9.3134 8.97498 9 8.66158 9 8.27499C9 7.88839 9.3134 7.57499 9.7 7.57499H9.7035C10.0901 7.57499 10.4035 7.88839 10.4035 8.27499C10.4035 8.33542 10.3958 8.39406 10.3814 8.45H11.5008C11.5238 8.45 11.5454 8.43865 11.5585 8.41965L12.283 7.3657C12.0026 7.27436 11.8 7.01084 11.8 6.7Z" fill="#667085"/>
</svg>
