<svg width="24" height="24" viewBox="0 0 24 24" fill="none" xmlns="http://www.w3.org/2000/svg">
<path d="M4.54286 3C3.69076 3 3 3.69076 3 4.54286C3 5.39495 3.69076 6.08571 4.54286 6.08571H6.08571" stroke="#667085" stroke-width="2" stroke-linecap="round" stroke-linejoin="round"/>
<path d="M7.62868 21C6.77659 21 6.08583 20.3092 6.08583 19.4571V6.08571V4.54286C6.08583 3.69076 5.39507 3 4.54297 3H15.4287C17.0855 3 18.4287 4.34315 18.4287 6V15.9143M10.0001 13H14.5001" stroke="black" stroke-width="2" stroke-linecap="round" stroke-linejoin="round"/>
<path d="M7.62891 20.9998C8.481 20.9998 9.17176 20.309 9.17176 19.4569V16.9141C9.17176 16.3618 9.61948 15.9141 10.1718 15.9141H18.4289H20.0003C20.5526 15.9141 21.0003 16.3618 21.0003 16.9141V19.4569C21.0003 20.309 20.3096 20.9998 19.4575 20.9998H7.62891Z" stroke="#667085" stroke-width="2" stroke-linecap="round" stroke-linejoin="round"/>
<path d="M10.6667 6.33333V6.49398C10.6667 7.04596 10.7952 7.59037 11.042 8.08407L11.2164 8.43277C11.2933 8.58659 11.3333 8.7562 11.3333 8.92817C11.3333 9.33603 11.0027 9.66667 10.5948 9.66667H9.88889C9.39797 9.66667 9 10.0646 9 10.5556C9 10.801 9.19898 11 9.44444 11H14.5556C14.801 11 15 10.801 15 10.5556C15 10.0646 14.602 9.66667 14.1111 9.66667H13.4052C12.9973 9.66667 12.6667 9.33603 12.6667 8.92817C12.6667 8.7562 12.7067 8.58659 12.7836 8.43277L12.958 8.08407C13.2048 7.59037 13.3333 7.04596 13.3333 6.49398V6.33333C13.3333 5.59695 12.7364 5 12 5C11.2636 5 10.6667 5.59695 10.6667 6.33333Z" fill="#667085"/>
</svg>
