<svg width="24" height="24" viewBox="0 0 24 24" fill="none" xmlns="http://www.w3.org/2000/svg">
<path d="M4.54286 3C3.69076 3 3 3.69076 3 4.54286C3 5.39495 3.69076 6.08571 4.54286 6.08571H6.08571M4.54286 3C5.39495 3 6.08571 3.69076 6.08571 4.54286V6.08571M4.54286 3H15.4286C17.0854 3 18.4286 4.34315 18.4286 6V15.9143M7.62857 21C8.48067 21 9.17143 20.3092 9.17143 19.4571V16.9143C9.17143 16.362 9.61914 15.9143 10.1714 15.9143H18.4286M7.62857 21C6.77647 21 6.08571 20.3092 6.08571 19.4571V6.08571M7.62857 21H19.4571C20.3092 21 21 20.3092 21 19.4571V16.9143C21 16.362 20.5523 15.9143 20 15.9143L18.4286 15.9143" stroke="black" stroke-width="2" stroke-linecap="round" stroke-linejoin="round"/>
<path d="M15.6952 9.55342L12.4762 6.3593C12.4421 6.32545 12.4421 6.2703 12.4762 6.23646L12.5677 6.1457C12.6878 6.02649 12.6878 5.83222 12.5677 5.71301C12.4489 5.5951 12.2572 5.5951 12.1384 5.71301L10.1568 7.67924C10.0367 7.79844 10.0367 7.9927 10.1568 8.11191C10.2756 8.22982 10.4673 8.22982 10.5861 8.11191L10.681 8.01776C10.7153 7.98377 10.7705 7.98375 10.8048 8.01773L11.6532 8.85865C11.7321 8.93687 11.7321 9.06441 11.6533 9.14267L8.85753 11.9168C8.6605 12.1123 8.66043 12.4309 8.85738 12.6264L9.38478 13.1502C9.5797 13.3438 9.89429 13.3439 10.0893 13.1504L12.8925 10.3689C12.9705 10.2915 13.0963 10.2915 13.1742 10.3689L14.0238 11.2119C14.0579 11.2458 14.0579 11.3009 14.0238 11.3348L13.9015 11.4562C13.7983 11.5585 13.7983 11.7253 13.9015 11.8276C14.0035 11.9288 14.168 11.9288 14.27 11.8276L16.3128 9.80055C16.416 9.69822 16.416 9.53147 16.3128 9.42914C16.2108 9.32793 16.0463 9.32793 15.9443 9.42914L15.8191 9.55342C15.7848 9.58742 15.7295 9.58742 15.6952 9.55342Z" fill="#667085"/>
</svg>
