<svg width="24" height="24" viewBox="0 0 24 24" fill="none" xmlns="http://www.w3.org/2000/svg">
<path d="M4.54286 3C3.69076 3 3 3.69076 3 4.54286C3 5.39495 3.69076 6.08571 4.54286 6.08571H6.08571" stroke="#667085" stroke-width="2" stroke-linecap="round" stroke-linejoin="round"/>
<path d="M7.62868 21C6.77659 21 6.08583 20.3092 6.08583 19.4571V6.08571V4.54286C6.08583 3.69076 5.39507 3 4.54297 3H15.4287C17.0855 3 18.4287 4.34315 18.4287 6V15.9143M10.0001 13H14.5001" stroke="black" stroke-width="2" stroke-linecap="round" stroke-linejoin="round"/>
<path d="M7.62891 20.9998C8.481 20.9998 9.17176 20.309 9.17176 19.4569V16.9141C9.17176 16.3618 9.61948 15.9141 10.1718 15.9141H18.4289H20.0003C20.5526 15.9141 21.0003 16.3618 21.0003 16.9141V19.4569C21.0003 20.309 20.3096 20.9998 19.4575 20.9998H7.62891Z" stroke="#667085" stroke-width="2" stroke-linecap="round" stroke-linejoin="round"/>
<path d="M12.9804 5.97101C12.9804 6.03552 12.9741 6.09855 12.962 6.15954L14.3413 6.15963C14.5595 6.15963 14.7364 6.33483 14.7364 6.55094C14.7364 6.76643 14.5605 6.94124 14.3432 6.94224L15 8.54169C15.0002 9.56528 13.0393 9.56528 13.0388 8.54169L13.6956 6.9423L12.3951 6.94208V10.2174H13.0536C13.2718 10.2174 13.4487 10.3926 13.4487 10.6087C13.4487 10.8248 13.2718 11 13.0536 11H10.9464C10.7282 11 10.5513 10.8248 10.5513 10.6087C10.5513 10.3926 10.7282 10.2174 10.9464 10.2174H11.6049V6.94208L10.3044 6.94217L10.9612 8.54163C10.9614 9.56522 9.00051 9.56522 9 8.54163L9.65678 6.94224C9.43943 6.94124 9.26356 6.76643 9.26356 6.55094C9.26356 6.33483 9.44045 6.15963 9.65866 6.15963L11.038 6.15954C11.0259 6.09855 11.0196 6.03552 11.0196 5.97101C11.0196 5.43474 11.4585 5 12 5C12.5415 5 12.9804 5.43474 12.9804 5.97101Z" fill="#667085"/>
</svg>
