<svg width="24" height="24" viewBox="0 0 24 24" fill="none" xmlns="http://www.w3.org/2000/svg">
<path d="M8.5 6V4.60555C8.5 3.60249 9.0013 2.6658 9.8359 2.1094L10 2M15.5 6V4.60555C15.5 3.60249 14.9987 2.6658 14.1641 2.1094L14 2" stroke="#667085" stroke-width="2" stroke-linecap="round" stroke-linejoin="round"/>
<path d="M6 18V9.0311C6 7.80439 6.74685 6.70126 7.88583 6.24567L8.5 6L11.1758 5.23548C11.7145 5.08157 12.2855 5.08157 12.8242 5.23548L15.5 6L16.1142 6.24567C17.2531 6.70126 18 7.80439 18 9.0311V18" stroke="black" stroke-width="2" stroke-linecap="round" stroke-linejoin="round"/>
<path d="M20 22H4C3.44772 22 3 21.5523 3 21V20C3 18.8954 3.89543 18 5 18H6H18H19C20.1046 18 21 18.8954 21 20V21C21 21.5523 20.5523 22 20 22Z" stroke="#667085" stroke-width="2" stroke-linecap="round" stroke-linejoin="round"/>
<path d="M12 14C13.1046 14 14 13.1046 14 12C14 10.8954 13.1046 10 12 10C10.8954 10 10 10.8954 10 12C10 13.1046 10.8954 14 12 14Z" stroke="#667085" stroke-width="2" stroke-linecap="round" stroke-linejoin="round"/>
</svg>
