<svg width="24" height="24" viewBox="0 0 24 24" fill="none" xmlns="http://www.w3.org/2000/svg">
<path d="M8.5 6V4.60555C8.5 3.60249 9.0013 2.6658 9.8359 2.1094L10 2M15.5 6V4.60555C15.5 3.60249 14.9987 2.6658 14.1641 2.1094L14 2" stroke="#667085" stroke-width="2" stroke-linecap="round" stroke-linejoin="round"/>
<path d="M8 18L6.43849 9.41172C6.18334 8.00835 6.95158 6.61937 8.27593 6.08963L8.5 6L11.1758 5.23548C11.7145 5.08157 12.2855 5.08157 12.8242 5.23548L15.5 6L15.7241 6.08963C17.0484 6.61937 17.8167 8.00835 17.5615 9.41171L16 18" stroke="black" stroke-width="2" stroke-linecap="round" stroke-linejoin="round"/>
<path d="M19.382 22H4.61803C3.87465 22 3.39116 21.2177 3.72361 20.5528L4.44721 19.1056C4.786 18.428 5.47852 18 6.23607 18H8H16H17.7639C18.5215 18 19.214 18.428 19.5528 19.1056L20.2764 20.5528C20.6088 21.2177 20.1253 22 19.382 22Z" stroke="#667085" stroke-width="2" stroke-linecap="round" stroke-linejoin="round"/>
<path d="M12 14C13.1046 14 14 13.1046 14 12C14 10.8954 13.1046 10 12 10C10.8954 10 10 10.8954 10 12C10 13.1046 10.8954 14 12 14Z" stroke="#667085" stroke-width="2" stroke-linecap="round" stroke-linejoin="round"/>
</svg>
