<svg width="24" height="24" viewBox="0 0 24 24" fill="none" xmlns="http://www.w3.org/2000/svg">
<path d="M6.66602 13.7241V16.6667C6.66602 19.6122 9.05383 22 11.9994 22V22C14.9449 22 17.3327 19.6122 17.3327 16.6667V13.7241" stroke="#667085" stroke-width="2" stroke-linecap="round" stroke-linejoin="round"/>
<path d="M12 2.68966C7.40675 2.68966 6.00163 5.48331 5.80342 9.78743C5.76806 10.5552 5.55638 11.3091 5.14006 11.9551L4.49677 12.9533C4.28235 13.286 4.52122 13.7241 4.91706 13.7241H6.66667H17.3333H19.0829C19.4788 13.7241 19.7177 13.286 19.5032 12.9533L18.8599 11.9551C18.4436 11.3091 18.2319 10.5552 18.1966 9.78743C17.9984 5.48331 16.5932 2.68966 12 2.68966ZM12 2.68966V2" stroke="black" stroke-width="2" stroke-linecap="round" stroke-linejoin="round"/>
<path d="M13.9901 8.1523C13.8978 9.94196 13.172 10.4663 12.1998 10.9108C12.073 10.9688 11.927 10.9688 11.8002 10.9108C10.828 10.4663 10.1022 9.94196 10.0099 8.1523C9.99783 7.91765 10.1639 7.71558 10.3909 7.65513C10.8146 7.54233 11.3055 7.37895 11.7165 7.16499C11.8933 7.073 12.1067 7.073 12.2835 7.16499C12.6945 7.37895 13.1854 7.54233 13.6091 7.65513C13.8361 7.71558 14.0022 7.91765 13.9901 8.1523Z" fill="#667085"/>
</svg>
