<svg width="24" height="24" viewBox="0 0 24 24" fill="none" xmlns="http://www.w3.org/2000/svg">
<path d="M3.46484 15.9482V17.8954C3.46484 19.1244 4.21084 20.2402 5.37044 20.6471C10.5338 22.4588 13.8541 22.4377 18.6791 20.6647C19.8131 20.248 20.5345 19.145 20.5345 17.9369V15.9482" stroke="#667085" stroke-width="2" stroke-linecap="round" stroke-linejoin="round"/>
<path d="M3.4652 12.9611H20.5348M3.4652 12.9611C0.899273 4.81897 9.68873 4.04124 11.7844 2.22078C11.905 2.11601 12.095 2.11601 12.2156 2.22078C14.3113 4.04124 23.1007 4.81897 20.5348 12.9611M3.4652 12.9611V15.9481H20.5348V12.9611" stroke="black" stroke-width="2" stroke-linecap="round" stroke-linejoin="round"/>
<path d="M14.4921 6.8413C14.3975 9.18926 13.4582 9.84236 12.2001 10.4111C12.0731 10.4686 11.9269 10.4686 11.7999 10.4111C10.5418 9.84236 9.60254 9.18926 9.50787 6.8413C9.4984 6.60652 9.66372 6.40283 9.89131 6.34438C10.4665 6.19665 11.1591 5.97111 11.7181 5.66775C11.8932 5.57273 12.1068 5.57273 12.2819 5.66775C12.8409 5.97111 13.5335 6.19665 14.1087 6.34438C14.3363 6.40283 14.5016 6.60652 14.4921 6.8413Z" fill="#667085"/>
</svg>
