<svg width="24" height="24" viewBox="0 0 24 24" fill="none" xmlns="http://www.w3.org/2000/svg">
<path d="M19.815 3.78281C16.7682 2.00013 11.9997 2 11.9997 2C11.9997 2 7.23077 2.00013 4.18395 3.78281C2.78922 4.59885 3.43843 6.56265 3.54527 8.12896C3.83415 12.3638 -2.50015 17 11.9997 22C26.4995 17 20.1648 12.3638 20.4536 8.12896C20.5605 6.56265 21.2097 4.59885 19.815 3.78281Z" stroke="black" stroke-width="2" stroke-linecap="round" stroke-linejoin="round"/>
<path d="M12.4587 8.30803C12.2878 7.89732 11.7058 7.89732 11.535 8.30803L10.7452 10.2063C10.6737 10.3783 10.5124 10.4963 10.3267 10.5125L8.45758 10.6749C8.02867 10.7122 7.84412 11.2378 8.15559 11.5349L9.57536 12.8893C9.70411 13.0121 9.75789 13.1941 9.7166 13.3671L9.23577 15.3823C9.13254 15.815 9.60335 16.157 9.98306 15.9251L11.7361 14.8547C11.8962 14.7569 12.0975 14.7569 12.2575 14.8547L14.0106 15.9251C14.3903 16.157 14.8611 15.815 14.7579 15.3823L14.2772 13.3678C14.2358 13.1944 14.2899 13.0121 14.4191 12.8893L15.8437 11.5356C16.1561 11.2387 15.9717 10.7121 15.5423 10.6749L13.667 10.5124C13.4813 10.4963 13.32 10.3783 13.2484 10.2062L12.4587 8.30803Z" fill="#667085"/>
</svg>
