<svg width="24" height="24" viewBox="0 0 24 24" fill="none" xmlns="http://www.w3.org/2000/svg">
<path d="M18 6C19.6569 6 21 6.34315 21 8V21H18M6 21H3V8C3 6.34315 4.34315 6 6 6" stroke="#667085" stroke-width="2" stroke-linecap="round" stroke-linejoin="round"/>
<path d="M10 21H6V6C6 4.34315 7.34315 3 9 3H15C16.6569 3 18 4.34315 18 6V21H14M10 21V16C10 15.4477 10.4477 15 11 15H13C13.5523 15 14 15.4477 14 16V21M10 21H14" stroke="black" stroke-width="2" stroke-linecap="round" stroke-linejoin="round"/>
<path d="M14.9935 7.52895C14.8974 10.4374 13.7442 11.218 12.2002 11.9114C12.073 11.9685 11.927 11.9685 11.7998 11.9114C10.2558 11.218 9.10256 10.4374 9.00649 7.52895C8.99873 7.29411 9.16361 7.09017 9.39154 7.03305C10.116 6.85151 11.0138 6.56369 11.7193 6.16959C11.8932 6.07243 12.1068 6.07243 12.2807 6.16959C12.9862 6.56369 13.884 6.85151 14.6085 7.03305C14.8364 7.09017 15.0013 7.29411 14.9935 7.52895Z" fill="#667085"/>
</svg>
