<svg width="24" height="24" viewBox="0 0 24 24" fill="none" xmlns="http://www.w3.org/2000/svg">
<path d="M10.1589 14.668L8.91602 17.6666M13.8405 14.668L15.0834 17.6666" stroke="#667085" stroke-width="2" stroke-linecap="round" stroke-linejoin="round"/>
<path d="M2 21.0004C2 21.0004 4.03843 18.4723 8.91632 17.6667L12 21.0004L15.0837 17.6667C19.9616 18.4723 22 21.0004 22 21.0004M8.11811 9.25195C8.11811 10.6876 8.94386 14.031 10.1592 14.6681C10.707 14.9552 11.3339 15.1182 12 15.1182C12.6661 15.1182 13.2931 14.9552 13.8408 14.6681C15.0561 14.031 15.8819 10.6876 15.8819 9.25195" stroke="black" stroke-width="2" stroke-linecap="round" stroke-linejoin="round"/>
<path d="M8.11861 9.25152H15.8824M8.11861 9.25152H6.18945M8.11861 9.25152L6.18945 6.14264L12.0005 3L17.8115 6.14264L15.8824 9.25152M15.8824 9.25152H17.8115" stroke="#667085" stroke-width="2" stroke-linecap="round" stroke-linejoin="round"/>
</svg>
