<svg width="24" height="24" viewBox="0 0 24 24" fill="none" xmlns="http://www.w3.org/2000/svg">
<path d="M10.1589 15.668L8.91602 18.6666M13.8405 15.668L15.0834 18.6666" stroke="#667085" stroke-width="2" stroke-linecap="round" stroke-linejoin="round"/>
<path d="M2 22.0004C2 22.0004 4.03843 19.4723 8.91632 18.6667L12 22.0004L15.0837 18.6667C19.9616 19.4723 22 22.0004 22 22.0004M8.11811 10.252C8.11811 12 8.94386 15.031 10.1592 15.6681C10.707 15.9552 11.3339 16.1182 12 16.1182C12.6661 16.1182 13.2931 15.9552 13.8408 15.6681C15.0561 15.031 15.8819 12 15.8819 10.252M11.9991 3V2" stroke="black" stroke-width="2" stroke-linecap="round" stroke-linejoin="round"/>
<path d="M11.9991 3C9.44862 3 8.11719 6 8.11719 8.25195L6 10.252H8.11811H15.8819H17.9982L15.881 8.25195C15.881 6 14.5495 3 11.9991 3Z" stroke="#667085" stroke-width="2" stroke-linecap="round" stroke-linejoin="round"/>
</svg>
