<svg width="24" height="24" viewBox="0 0 24 24" fill="none" xmlns="http://www.w3.org/2000/svg">
<path d="M2 20.0003C2 20.0003 4.03843 17.4722 8.91632 16.6666L10.1592 13.668M13.8408 13.668L15.0837 16.6666C19.9616 17.4722 22 20.0003 22 20.0003" stroke="#667085" stroke-width="2" stroke-linecap="round" stroke-linejoin="round"/>
<path d="M10.1582 13.6681C8.94294 13.031 8.11719 10 8.11719 8.25195C8.11719 6 9.44862 4 11.9991 4C14.5495 4 15.881 6 15.881 8.25195C15.881 10 15.0552 13.031 13.8399 13.6681C13.2921 13.9552 12.6652 14.1182 11.9991 14.1182C11.333 14.1182 10.706 13.9552 10.1582 13.6681Z" stroke="black" stroke-width="2" stroke-linecap="round" stroke-linejoin="round"/>
</svg>
