<svg width="24" height="24" viewBox="0 0 24 24" fill="none" xmlns="http://www.w3.org/2000/svg">
<path d="M13.3728 16.3728C14.6019 15.1437 14.6019 13.1509 13.3728 11.9218C12.1437 10.6927 10.1509 10.6927 8.92183 11.9218C7.69272 13.1509 7.69272 15.1437 8.92183 16.3728C10.1509 17.6019 12.1437 17.6019 13.3728 16.3728ZM13.3728 16.3728L14.7443 17.7443M14.7443 17.7443L14.8101 17.6784C14.8979 17.5906 15.0402 17.5906 15.128 17.6784L15.9342 18.4845C16.0219 18.5723 16.0219 18.7147 15.9342 18.8025L15.8683 18.8683M14.7443 17.7443L14.6784 17.8101C14.5906 17.8979 14.5906 18.0402 14.6784 18.128L15.4845 18.9342C15.5723 19.0219 15.7147 19.0219 15.8025 18.9342L15.8683 18.8683M14.7443 17.7443L15.8683 18.8683" stroke="#667085" stroke-width="2"/>
<path fill-rule="evenodd" clip-rule="evenodd" d="M7 1C4.79086 1 3 2.79086 3 5V19C3 21.2091 4.79086 23 7 23H17C19.2091 23 21 21.2091 21 19V10.6569C21 9.33077 20.4732 8.059 19.5355 7.12132L14.8787 2.46447C13.941 1.52678 12.6692 1 11.3431 1H7ZM5 5C5 3.89543 5.89543 3 7 3H11.3431C11.9368 3 12.5123 3.17597 13 3.49902V7C13 8.10457 13.8954 9 15 9H18.501C18.824 9.48765 19 10.0632 19 10.6569V19C19 20.1046 18.1046 21 17 21H7C5.89543 21 5 20.1046 5 19V5Z" fill="black"/>
</svg>
