<svg width="24" height="24" viewBox="0 0 24 24" fill="none" xmlns="http://www.w3.org/2000/svg">
<path d="M8.53958 17.103L11.9058 21.7229C12.0056 21.8599 12.21 21.8599 12.3099 21.7229L15.6826 17.0938C15.7258 17.0345 15.7912 17 15.8604 17L20.7719 17C20.9574 17 21.065 16.7696 20.9569 16.6042L18.0418 12.1458C17.9848 12.0587 17.9848 11.9413 18.0418 11.8542L20.9569 7.39579C21.065 7.23039 20.9574 7 20.7719 7H15.8604C15.7912 7 15.7258 6.96548 15.6826 6.90617L12.3099 2.27749C12.21 2.14046 12.0056 2.14046 11.9058 2.2775L8.53958 6.89741C8.49253 6.962 8.41744 7.00019 8.33753 7.00019H3.46216C3.26349 7.00019 3.14419 7.22073 3.25291 7.387L6.17974 11.8634C6.23409 11.9465 6.23409 12.0539 6.17974 12.137L3.25291 16.6134C3.14419 16.7797 3.26349 17.0002 3.46216 17.0002L8.33753 17.0002C8.41744 17.0002 8.49253 17.0384 8.53958 17.103Z" stroke="black" stroke-width="2" stroke-linecap="round" stroke-linejoin="round"/>
<circle cx="12" cy="12" r="3" stroke="#667085" stroke-width="2" stroke-linecap="round" stroke-linejoin="round"/>
</svg>
