<svg width="24" height="24" viewBox="0 0 24 24" fill="none" xmlns="http://www.w3.org/2000/svg">
<path d="M5 18V19C5 20.1046 5.89543 21 7 21H17C18.1046 21 19 20.1046 19 19V18" stroke="#667085" stroke-width="2" stroke-linecap="round" stroke-linejoin="round"/>
<path d="M8 6V8.38376C8 9.41862 8.4111 10.4111 9.14286 11.1429L9.18707 11.1871C9.70758 11.7076 10 12.4135 10 13.1497C10 14.1716 9.17157 15 8.14966 15H5C3.89543 15 3 15.8954 3 17C3 17.5523 3.44772 18 4 18H5H19H20C20.5523 18 21 17.5523 21 17C21 15.8954 20.1046 15 19 15H15.8503C14.8284 15 14 14.1716 14 13.1497C14 12.4135 14.2924 11.7076 14.8129 11.1871L14.8571 11.1429C15.5889 10.4111 16 9.41862 16 8.38376V6C16 4.34315 14.6569 3 13 3H11C9.34315 3 8 4.34315 8 6Z" stroke="black" stroke-width="2" stroke-linecap="round" stroke-linejoin="round"/>
</svg>
