<svg width="24" height="24" viewBox="0 0 24 24" fill="none" xmlns="http://www.w3.org/2000/svg">
<path d="M8 18H16M14.7782 14.9999V14.1666C14.7782 12.9393 13.7833 11.9443 12.556 11.9443H11.4449C10.2176 11.9443 9.22266 12.9393 9.22266 14.1666V14.9999" stroke="#667085" stroke-width="2" stroke-linecap="round" stroke-linejoin="round"/>
<path d="M15.3333 5H8.66667C7.74619 5 7 5.74619 7 6.66667V13.3333C7 14.2538 7.74619 15 8.66667 15H9.22222H14.7778H15.3333C16.2538 15 17 14.2538 17 13.3333V6.66667C17 5.74619 16.2538 5 15.3333 5Z" stroke="black" stroke-width="2" stroke-linecap="round" stroke-linejoin="round"/>
<path d="M17 2H7C5.34315 2 4 3.34315 4 5V19C4 20.6569 5.34315 22 7 22H17C18.6569 22 20 20.6569 20 19V5C20 3.34315 18.6569 2 17 2Z" stroke="black" stroke-width="2" stroke-linecap="round" stroke-linejoin="round"/>
<path d="M12 11C13.1046 11 14 10.1046 14 9C14 7.89543 13.1046 7 12 7C10.8954 7 10 7.89543 10 9C10 10.1046 10.8954 11 12 11Z" fill="#667085"/>
</svg>
