<svg width="24" height="24" viewBox="0 0 24 24" fill="none" xmlns="http://www.w3.org/2000/svg">
<path d="M8 18H16M12 15C12.9107 15 13.7646 14.7565 14.5 14.3311V13.75C14.5 12.6454 13.6046 11.75 12.5 11.75H11.5C10.3954 11.75 9.5 12.6454 9.5 13.75V14.3311C10.2354 14.7565 11.0893 15 12 15Z" stroke="#667085" stroke-width="2" stroke-linecap="round" stroke-linejoin="round"/>
<path d="M17 2H7C5.34315 2 4 3.34315 4 5V19C4 20.6569 5.34315 22 7 22H17C18.6569 22 20 20.6569 20 19V5C20 3.34315 18.6569 2 17 2Z" stroke="black" stroke-width="2" stroke-linecap="round" stroke-linejoin="round"/>
<path d="M12 10.5996C12.8284 10.5996 13.5 9.92804 13.5 9.09961C13.5 8.27118 12.8284 7.59961 12 7.59961C11.1716 7.59961 10.5 8.27118 10.5 9.09961C10.5 9.92804 11.1716 10.5996 12 10.5996Z" fill="#667085"/>
</svg>
