<svg width="24" height="24" viewBox="0 0 24 24" fill="none" xmlns="http://www.w3.org/2000/svg">
<path d="M8 17H16M14.25 14V13.5C14.25 12.5 13.25 11.75 12.25 11.75H11.75C10.75 11.75 9.75 12.5 9.75 13.5V14" stroke="#667085" stroke-width="2" stroke-linecap="round" stroke-linejoin="round"/>
<path d="M18 3H6C4.34315 3 3 4.34315 3 6V18C3 19.6569 4.34315 21 6 21H18C19.6569 21 21 19.6569 21 18V6C21 4.34315 19.6569 3 18 3Z" stroke="black" stroke-width="2" stroke-linecap="round" stroke-linejoin="round"/>
<path d="M12 10.5996C12.8284 10.5996 13.5 9.92804 13.5 9.09961C13.5 8.27118 12.8284 7.59961 12 7.59961C11.1716 7.59961 10.5 8.27118 10.5 9.09961C10.5 9.92804 11.1716 10.5996 12 10.5996Z" fill="#667085"/>
</svg>
