<svg width="24" height="24" viewBox="0 0 24 24" fill="none" xmlns="http://www.w3.org/2000/svg">
<path d="M2 12C2 6.47715 6.47715 2 12 2C17.5228 2 22 6.47715 22 12C22 17.5228 17.5228 22 12 22C6.47715 22 2 17.5228 2 12Z" stroke="black" stroke-width="2"/>
<path d="M13.25 12C13.25 12.6904 12.6904 13.25 12 13.25C11.3096 13.25 10.75 12.6904 10.75 12C10.75 11.3096 11.3096 10.75 12 10.75C12.6904 10.75 13.25 11.3096 13.25 12Z" fill="#667085"/>
<path d="M8.75 12C8.75 12.6904 8.19036 13.25 7.5 13.25C6.80964 13.25 6.25 12.6904 6.25 12C6.25 11.3096 6.80964 10.75 7.5 10.75C8.19036 10.75 8.75 11.3096 8.75 12Z" fill="#667085"/>
<path d="M17.75 12C17.75 12.6904 17.1904 13.25 16.5 13.25C15.8096 13.25 15.25 12.6904 15.25 12C15.25 11.3096 15.8096 10.75 16.5 10.75C17.1904 10.75 17.75 11.3096 17.75 12Z" fill="#667085"/>
</svg>
