<svg width="24" height="24" viewBox="0 0 24 24" fill="none" xmlns="http://www.w3.org/2000/svg">
<path d="M6 3H18C19.6569 3 21 4.34315 21 6V18C21 19.6569 19.6569 21 18 21H6C4.34315 21 3 19.6569 3 18V6C3 4.34315 4.34315 3 6 3Z" stroke="black" stroke-width="2" stroke-linecap="round" stroke-linejoin="round"/>
<path d="M17.3186 11.0115C14.4049 7.3295 9.59538 7.3295 6.68165 11.0115C6.2233 11.5907 6.2233 12.4093 6.68165 12.9885C9.59538 16.6705 14.4049 16.6705 17.3186 12.9885C17.777 12.4093 17.777 11.5907 17.3186 11.0115Z" stroke="#667085" stroke-width="2" stroke-linecap="round" stroke-linejoin="round"/>
<path d="M12 14C13.1046 14 14 13.1046 14 12C14 10.8954 13.1046 10 12 10C11.887 10 11.7763 10.0094 11.6684 10.0274C11.5775 10.0425 11.564 10.169 11.6351 10.2275C11.8579 10.4109 12 10.6889 12 11C12 11.5523 11.5523 12 11 12C10.6889 12 10.4109 11.8579 10.2275 11.6351C10.169 11.564 10.0425 11.5775 10.0274 11.6684C10.0094 11.7763 10 11.887 10 12C10 13.1046 10.8954 14 12 14Z" fill="black"/>
</svg>
