<svg width="24" height="24" viewBox="0 0 24 24" fill="none" xmlns="http://www.w3.org/2000/svg">
<path d="M6 3H18C19.6569 3 21 4.34315 21 6V18C21 19.6569 19.6569 21 18 21H6C4.34315 21 3 19.6569 3 18V6C3 4.34315 4.34315 3 6 3Z" stroke="black" stroke-width="2" stroke-linecap="round" stroke-linejoin="round"/>
<path d="M8.46961 9.10048C9.59688 8.11939 11.0972 8.40759 11.9969 9.479C12.8966 8.40759 14.3776 8.12971 15.5242 9.10048C16.6709 10.0712 16.8102 11.7219 15.9249 12.8822C15.3004 13.7008 13.6021 15.2898 12.6559 16.1547C12.2814 16.4971 11.7125 16.4971 11.3379 16.1547C10.3917 15.2898 8.69341 13.7008 8.06889 12.8822C7.18364 11.7219 7.34234 10.0816 8.46961 9.10048Z" stroke="#667085" stroke-width="2" stroke-linecap="round" stroke-linejoin="round"/>
</svg>
