<svg width="24" height="24" viewBox="0 0 24 24" fill="none" xmlns="http://www.w3.org/2000/svg">
<path d="M2 12C2 17.5228 6.47715 22 12 22C17.5228 22 22 17.5228 22 12C22 6.47715 17.5228 2 12 2C6.47715 2 2 6.47715 2 12Z" stroke="black" stroke-width="2"/>
<path fill-rule="evenodd" clip-rule="evenodd" d="M9 12C8.44772 12 8 12.4477 8 13V16C8 16.5523 8.44772 17 9 17H15C15.5523 17 16 16.5523 16 16V13C16 12.4477 15.5523 12 15 12H9ZM12 15.5C12.5523 15.5 13 15.0523 13 14.5C13 13.9477 12.5523 13.5 12 13.5C11.4477 13.5 11 13.9477 11 14.5C11 15.0523 11.4477 15.5 12 15.5Z" fill="#667085"/>
<path d="M10 12V10C10 8.89543 10.8954 8 12 8C13.1046 8 14 8.89543 14 10V12" stroke="#667085" stroke-width="2"/>
</svg>
