<svg width="24" height="24" viewBox="0 0 24 24" fill="none" xmlns="http://www.w3.org/2000/svg">
<path d="M12.9173 4.61606C12.5756 3.79465 11.4117 3.79465 11.0699 4.61606L9.49044 8.41261C9.3473 8.75666 9.02472 8.99263 8.6534 9.0249L4.91516 9.34984C4.05735 9.42441 3.68824 10.4755 4.31118 11.0698L7.15073 13.7786C7.40822 14.0243 7.51578 14.3882 7.4332 14.7343L6.47154 18.7647C6.26507 19.63 7.20671 20.314 7.96612 19.8503L11.4722 17.7094C11.7923 17.5139 12.1949 17.5139 12.5151 17.7094L16.0211 19.8503C16.7806 20.314 17.7222 19.63 17.5157 18.7647L16.5544 14.7355C16.4716 14.3888 16.5798 14.0242 16.8382 13.7786L19.6874 11.0712C20.3123 10.4774 19.9435 9.42427 19.0846 9.34983L15.334 9.02477C14.9626 8.99258 14.6399 8.75658 14.4967 8.41245L12.9173 4.61606Z" stroke="black" stroke-width="2"/>
</svg>
