<svg width="24" height="24" viewBox="0 0 24 24" fill="none" xmlns="http://www.w3.org/2000/svg">
<path d="M8 12V8C8 5.79086 9.79086 4 12 4C14.2091 4 16 5.79086 16 8V9" stroke="#667085" stroke-width="2" stroke-linecap="round"/>
<path d="M19 18V14C19 12.8954 18.1046 12 17 12H16H8H7C5.89543 12 5 12.8954 5 14V18C5 19.1046 5.89543 20 7 20H17C18.1046 20 19 19.1046 19 18Z" stroke="black" stroke-width="2" stroke-linecap="round"/>
<path d="M10 16C10 16.5523 9.55228 17 9 17C8.44772 17 8 16.5523 8 16C8 15.4477 8.44772 15 9 15C9.55228 15 10 15.4477 10 16Z" fill="#667085"/>
<path d="M13 16C13 16.5523 12.5523 17 12 17C11.4477 17 11 16.5523 11 16C11 15.4477 11.4477 15 12 15C12.5523 15 13 15.4477 13 16Z" fill="#667085"/>
<path d="M16 16C16 16.5523 15.5523 17 15 17C14.4477 17 14 16.5523 14 16C14 15.4477 14.4477 15 15 15C15.5523 15 16 15.4477 16 16Z" fill="#667085"/>
</svg>
