<svg width="24" height="24" viewBox="0 0 24 24" fill="none" xmlns="http://www.w3.org/2000/svg">
<path d="M4.74671 12.2545L2.1232 14.3378C1.90053 14.5147 1.99627 14.872 2.27752 14.9138L5.59122 15.4062C5.79817 15.437 5.92255 15.6524 5.84572 15.847L4.61536 18.963C4.51093 19.2275 4.77251 19.4891 5.03697 19.3846L8.15296 18.1543C8.34756 18.0774 8.563 18.2018 8.59376 18.4088L9.08623 21.7225C9.12802 22.0037 9.48534 22.0995 9.66216 21.8768L11.7455 19.2533C11.8756 19.0894 12.1244 19.0894 12.2545 19.2533L14.3378 21.8768C14.5147 22.0995 14.872 22.0037 14.9138 21.7225L15.4062 18.4088C15.437 18.2018 15.6524 18.0774 15.847 18.1543L18.963 19.3846C19.2275 19.4891 19.4891 19.2275 19.3846 18.963L18.1543 15.847C18.0774 15.6524 18.2018 15.437 18.4088 15.4062L21.7225 14.9138C22.0037 14.872 22.0995 14.5147 21.8768 14.3378L19.2533 12.2545C19.0894 12.1244 19.0894 11.8756 19.2533 11.7455L21.8768 9.66216C22.0995 9.48534 22.0037 9.12802 21.7225 9.08623L18.4088 8.59376C18.2018 8.563 18.0774 8.34756 18.1543 8.15296L19.3846 5.03697C19.4891 4.77251 19.2275 4.51093 18.963 4.61536L15.847 5.84572C15.6524 5.92255 15.437 5.79817 15.4062 5.59122L14.9138 2.27752C14.872 1.99627 14.5147 1.90053 14.3378 2.1232L12.2545 4.74671C12.1244 4.91055 11.8756 4.91055 11.7455 4.74671L9.66216 2.1232C9.48534 1.90053 9.12802 1.99627 9.08623 2.27752L8.59376 5.59122C8.563 5.79817 8.34756 5.92255 8.15296 5.84572L5.03697 4.61536C4.77251 4.51093 4.51093 4.77251 4.61536 5.03697L5.84572 8.15296C5.92255 8.34756 5.79817 8.563 5.59122 8.59376L3.93437 8.83999" stroke="black" stroke-width="2" stroke-linecap="round"/>
</svg>
