<svg width="24" height="24" viewBox="0 0 24 24" fill="none" xmlns="http://www.w3.org/2000/svg">
<path d="M12 22C10.5327 22 9.13912 21.684 7.88376 21.1162M12 22V17M12 22C13.8214 22 15.5291 21.513 17 20.6622M7.88376 21.1162C6.99437 20.714 6.17433 20.1855 5.44652 19.5535M7.88376 21.1162L12 17M5.44652 19.5535C4.73092 18.9321 4.10449 18.2107 3.58899 17.411M5.44652 19.5535L12 13M3.58899 17.411C3.04546 16.5679 2.62525 15.6378 2.35385 14.6462M3.58899 17.411L12 9M2.35385 14.6462C2.12317 13.8033 2 12.916 2 12C2 11.6437 2.01864 11.2917 2.05499 10.945M2.35385 14.6462L5 12M2.05499 10.945C2.54571 6.26477 6.26477 2.54571 10.945 2.05499M2.05499 10.945L2 11M2.05499 10.945L10.945 2.05499M10.945 2.05499C11.2917 2.01864 11.6437 2 12 2M12 2C17.5228 2 22 6.47715 22 12C22 14.2516 21.2558 16.3295 20 18.001M12 2V5M12 5V9M12 5L8 9M12 9V13M12 13V17" stroke="black" stroke-width="2" stroke-linecap="round"/>
</svg>
