<svg width="24" height="24" viewBox="0 0 24 24" fill="none" xmlns="http://www.w3.org/2000/svg">
<path d="M20 18.0125L19.5654 17.0388M20 18.0125C20 17.6716 19.8471 17.344 19.5654 17.0388M20 18.0125C20 18.7757 19.2338 19.472 17.973 20M4 18.0125C4 19.6625 7.58172 21 12 21C12.6906 21 13.3608 20.9673 14 20.9059M4 18.0125L4.4346 17.0388M4 18.0125C4 17.6716 4.15294 17.344 4.4346 17.0388M4.4346 17.0388C5.51598 15.8669 8.49472 15.0251 12 15.0251C15.5053 15.0251 18.484 15.8669 19.5654 17.0388M4.4346 17.0388L7.79924 9.5M19.5654 17.0388L13.8276 4.18276C13.1238 2.60575 10.8762 2.60575 10.1724 4.18276L9.36132 6" stroke="black" stroke-width="2" stroke-linecap="round"/>
</svg>
