<svg width="24" height="24" viewBox="0 0 24 24" fill="none" xmlns="http://www.w3.org/2000/svg">
<path fill-rule="evenodd" clip-rule="evenodd" d="M7 2C4.23858 2 2 4.23858 2 7V8C2 8.55228 2.44772 9 3 9C3.55228 9 4 8.55228 4 8V7C4 5.34315 5.34315 4 7 4H17C18.6569 4 20 5.34315 20 7V17C20 18.6569 18.6569 20 17 20H16C15.4477 20 15 20.4477 15 21C15 21.5523 15.4477 22 16 22H17C19.7614 22 22 19.7614 22 17V7C22 4.23858 19.7614 2 17 2H7ZM4 12C4 11.4477 3.55228 11 3 11C2.44772 11 2 11.4477 2 12V17C2 19.7614 4.23858 22 7 22H12C12.5523 22 13 21.5523 13 21C13 20.4477 12.5523 20 12 20H7C5.34315 20 4 18.6569 4 17V12ZM12 14C13.1046 14 14 13.1046 14 12C14 10.8954 13.1046 10 12 10C10.8954 10 10 10.8954 10 12C10 13.1046 10.8954 14 12 14Z" fill="black"/>
</svg>
