<svg width="24" height="24" viewBox="0 0 24 24" fill="none" xmlns="http://www.w3.org/2000/svg">
<path d="M10.728 4.21897C11.3155 3.26034 12.6845 3.26034 13.272 4.21897L15.5656 7.96146C16.19 8.98033 15.4718 10.3019 14.2936 10.3019H9.70637C8.52822 10.3019 7.80995 8.98033 8.43437 7.96146M3.12017 16C3.0418 16.2967 3 16.6087 3 16.9307C3 18.902 4.567 20.5 6.5 20.5C8.433 20.5 10 18.902 10 16.9307C10 14.9594 8.433 13.3613 6.5 13.3613C6.15251 13.3613 5.81685 13.413 5.5 13.5092M14.0386 15C14.2213 14.0656 15.03 13.3613 16 13.3613H19C20.1046 13.3613 21 14.2745 21 15.401V18.4604C21 19.5868 20.1046 20.5 19 20.5H16C15.0786 20.5 14.3027 19.8646 14.0707 19" stroke="black" stroke-width="2" stroke-linecap="round" stroke-linejoin="round"/>
</svg>
