<svg width="24" height="24" viewBox="0 0 24 24" fill="none" xmlns="http://www.w3.org/2000/svg">
<path d="M3.54477 9C3.51571 8.62784 3.50167 8.27575 3.50002 7.94894C3.49647 7.02278 4.07731 6.2557 4.85647 5.92694L11.529 3.10251C11.6742 3.03535 11.8371 3 12 3C12.1629 3 12.3258 3.03535 12.4746 3.10251L19.1435 5.92694C19.9227 6.2557 20.5035 7.02278 20.5 7.94894C20.4889 10.1427 19.9192 13.4752 18 16.3771M4.36392 13C5.35361 15.9284 7.343 19.0091 11.065 20.7879C11.6565 21.0707 12.3435 21.0707 12.935 20.7879C13.6932 20.4256 14.3794 20.0092 15 19.5511" stroke="black" stroke-width="2" stroke-linecap="round"/>
</svg>
