<svg width="24" height="24" viewBox="0 0 24 24" fill="none" xmlns="http://www.w3.org/2000/svg">
<path d="M4.39968 9.2423L10.5532 2.6346C11.3412 1.78847 12.6597 1.78846 13.4476 2.6346L19.6012 9.2423C21.4668 11.2457 21.4668 14.4944 19.6012 16.4978C17.7355 18.5012 14.7106 18.5005 12.8449 16.4972C12.6117 16.2467 12.3061 16.1215 12.0004 16.1215M12.0004 16.1215C11.6948 16.1215 11.3891 16.2467 11.1559 16.4972C9.29022 18.5005 6.26536 18.5005 4.39968 16.4972C3.4977 15.5286 3.03179 14.2691 3.00195 13M12.0004 16.1215V22M12.0004 22H16.0004M12.0004 22H8.00042" stroke="black" stroke-width="2" stroke-linecap="round" stroke-linejoin="round"/>
</svg>
