<svg width="24" height="24" viewBox="0 0 24 24" fill="none" xmlns="http://www.w3.org/2000/svg">
<path d="M22 12C22 17.5228 17.5228 22 12 22M22 12C22 6.47715 17.5228 2 12 2M22 12C22 13.6403 19.5318 15.0499 16 15.6672M12 22C6.47715 22 2 17.5228 2 12M12 22C10.316 22 8.87498 19.3983 8.28511 15.7149M2 12C2 13.684 4.60173 15.125 8.28511 15.7149M2 12C2 11.3151 2.06886 10.6462 2.20004 10M12 2C9.79086 2 8 6.47715 8 12C8 13.3127 8.10118 14.5664 8.28511 15.7149M12 2C8.53602 2 5.48341 3.76127 3.68884 6.43714M8.28511 15.7149C9.4336 15.8988 10.6873 16 12 16" stroke="black" stroke-width="2" stroke-linecap="round"/>
</svg>
