<svg width="24" height="24" viewBox="0 0 24 24" fill="none" xmlns="http://www.w3.org/2000/svg">
<path d="M8.20679 8.75985C8.69856 8.72697 9.12784 8.41952 9.31152 7.96863L10.8084 4.29412C11.2397 3.23529 12.7603 3.23529 13.1916 4.29412L14.6885 7.96863C14.8722 8.41952 15.3014 8.72697 15.7932 8.75985L19.8009 9.02772C20.9557 9.10491 21.4256 10.5305 20.5373 11.262L17.4548 13.8009C17.0765 14.1124 16.9126 14.6099 17.0328 15.0811L18.0128 18.9212C18.2952 20.0277 17.065 20.9087 16.0847 20.3021M4.19913 9.02772C3.04431 9.10491 2.57443 10.5305 3.46268 11.262L6.54522 13.8009C6.92347 14.1124 7.08744 14.6099 6.96719 15.0811L5.98719 18.9212C5.7048 20.0277 6.93495 20.9087 7.91525 20.3021L11.3172 18.1966C11.7347 17.9383 12.2653 17.9383 12.6828 18.1966" stroke="black" stroke-width="2" stroke-linecap="round" stroke-linejoin="round"/>
</svg>
