<svg width="24" height="24" viewBox="0 0 24 24" fill="none" xmlns="http://www.w3.org/2000/svg">
<path d="M17.0328 15.0811C16.9126 14.6099 17.0765 14.1125 17.4548 13.8009L20.5373 11.2621C21.4256 10.5305 20.9557 9.10495 19.8009 9.02776L15.7932 8.75988C15.3014 8.72701 14.8722 8.41956 14.6885 7.96866L13.1916 4.29416C12.9744 3.76107 12.4812 3.49634 11.9898 3.50004M18.0128 18.9212C18.2952 20.0277 17.065 20.9088 16.0847 20.3021L12.6828 18.1967C12.4711 18.0657 12.2302 18.0011 11.9898 18.003M5.14952 12.6514L6.54522 13.8009C6.84728 14.0497 7.01269 14.4171 7.00583 14.795M5.14952 12.6514L3.46268 11.2621C2.57443 10.5305 3.04431 9.10495 4.19913 9.02776L8.20679 8.75988C8.69856 8.72701 9.12784 8.41956 9.31152 7.96866L10.8084 4.29416C11.0226 3.76842 11.5053 3.50369 11.9898 3.50004M5.14952 12.6514L11.9898 5.8111M7.00583 14.795C7.0041 14.8903 6.99141 14.9862 6.96719 15.0811L5.98719 18.9212C5.91074 19.2208 5.94515 19.5038 6.05546 19.7453M7.00583 14.795L7.99986 13.8009M6.05546 19.7453C6.35259 20.3958 7.20036 20.7445 7.91525 20.3021L11.3172 18.1967C11.523 18.0694 11.7562 18.0048 11.9898 18.003M6.05546 19.7453L11.9898 13.811M11.9898 3.50004V5.8111M11.9898 18.003V13.811M11.9898 5.8111V9.81095M11.9898 9.81095V13.811M11.9898 9.81095L10.8008 11" stroke="black" stroke-width="2" stroke-linecap="round" stroke-linejoin="round"/>
</svg>
