<svg width="24" height="24" viewBox="0 0 24 24" fill="none" xmlns="http://www.w3.org/2000/svg">
<path d="M12 2V3.5M2 12H3.5M12 22V20.5M22 12H20.5M6 6L5 5M19.0711 4.92893L18 6M19.0711 19.0711L18 18M4.92893 19.0711L6 18M11.1513 9.24843L9.24843 11.1513C8.77982 11.6199 8.77982 12.3797 9.24843 12.8483L11.1513 14.7512C11.6199 15.2198 12.3797 15.2198 12.8483 14.7512L14.7512 12.8483C15.2198 12.3797 15.2198 11.6199 14.7512 11.1513L12.8483 9.24843C12.3797 8.77982 11.6199 8.77982 11.1513 9.24843Z" stroke="#667085" stroke-width="2" stroke-linecap="round" stroke-linejoin="round"/>
<path d="M2 12C2 6.47715 6.47715 2 12 2C14.7614 2 17.2614 3.11929 19.0711 4.92893C20.8807 6.73858 22 9.23858 22 12C22 14.7614 20.8807 17.2614 19.0711 19.0711C17.2614 20.8807 14.7614 22 12 22C9.23858 22 6.73858 20.8807 4.92893 19.0711C3.11929 17.2614 2 14.7614 2 12Z" stroke="black" stroke-width="2" stroke-linecap="round" stroke-linejoin="round"/>
</svg>
