<svg width="24" height="24" viewBox="0 0 24 24" fill="none" xmlns="http://www.w3.org/2000/svg">
<path d="M12 2V3.5M12 22V20.5M22 12H20.5M2 12H3.5M6 6L5 5M18 6L19.0711 4.92893M6 18L4.92893 19.0711M18 18L19.0711 19.0711M7.49238 15.8511L9.52728 11.103C9.83073 10.3949 10.3949 9.83073 11.103 9.52728L15.8511 7.49238C16.2659 7.31459 16.6854 7.73406 16.5076 8.14892L14.4727 12.897C14.1692 13.6051 13.6051 14.1692 12.897 14.4727L8.14892 16.5076C7.73406 16.6854 7.31459 16.2659 7.49238 15.8511Z" stroke="#667085" stroke-width="2" stroke-linecap="round" stroke-linejoin="round"/>
<path d="M2 12C2 6.47715 6.47715 2 12 2C14.7614 2 17.2614 3.11929 19.0711 4.92893C20.8807 6.73858 22 9.23858 22 12C22 14.7614 20.8807 17.2614 19.0711 19.0711C17.2614 20.8807 14.7614 22 12 22C9.23858 22 6.73858 20.8807 4.92893 19.0711C3.11929 17.2614 2 14.7614 2 12Z" stroke="black" stroke-width="2" stroke-linecap="round" stroke-linejoin="round"/>
</svg>
