<svg width="24" height="24" viewBox="0 0 24 24" fill="none" xmlns="http://www.w3.org/2000/svg">
<path d="M2 12C2 17.5228 6.47715 22 12 22C17.5228 22 22 17.5228 22 12C22 6.47715 17.5228 2 12 2C6.47715 2 2 6.47715 2 12Z" stroke="black" stroke-width="2" stroke-linejoin="round"/>
<path d="M9.52704 11.1027L7.49214 15.8508C7.31434 16.2657 7.73381 16.6851 8.14867 16.5073L12.8968 14.4724C13.6048 14.169 14.169 13.6048 14.4724 12.8968L16.5073 8.14867C16.6851 7.73381 16.2657 7.31434 15.8508 7.49214L11.1027 9.52704C10.3947 9.83049 9.83049 10.3947 9.52704 11.1027Z" stroke="#667085" stroke-width="2" stroke-linejoin="round"/>
</svg>
