<svg width="24" height="24" viewBox="0 0 24 24" fill="none" xmlns="http://www.w3.org/2000/svg">
<path d="M2.31494 14.5H8.43266M21.6849 14.5H15.5671M21.6849 9.5H15.5671M2.31494 9.5H8.43266M8.43266 9.5C8.86273 6.59382 10.0518 3.87425 11.9999 2C13.948 3.87425 15.1371 6.59382 15.5671 9.5M8.43266 9.5C8.18898 11.1467 8.18898 12.8533 8.43266 14.5M8.43266 9.5H15.5671M8.43266 14.5C8.86273 17.4062 10.0518 20.1257 11.9999 22C13.948 20.1257 15.1371 17.4062 15.5671 14.5M8.43266 14.5H15.5671M15.5671 9.5C15.8108 11.1467 15.8108 12.8533 15.5671 14.5" stroke="#667085" stroke-width="2" stroke-linejoin="round"/>
<path d="M2.31504 14.5C3.42515 18.8131 7.3404 22 12 22C16.6596 22 20.5748 18.8131 21.685 14.5C21.8906 13.701 22 12.8632 22 12C22 11.1368 21.8906 10.299 21.685 9.5C20.5748 5.18693 16.6596 2 12 2C7.3404 2 3.42515 5.18693 2.31504 9.5C2.10938 10.299 2 11.1368 2 12C2 12.8632 2.10938 13.701 2.31504 14.5Z" stroke="black" stroke-width="2"/>
</svg>
