<svg width="24" height="24" viewBox="0 0 24 24" fill="none" xmlns="http://www.w3.org/2000/svg">
<path d="M18.5773 12C18.8783 11.0119 19 10.0461 19 8.91995C19 5.09817 15.866 2 12 2C8.13401 2 5 5.09817 5 8.91995C5 12.6683 6.34786 14.6401 11.173 21.5716C11.3718 21.8572 11.6859 22 12 22" stroke="black" stroke-width="2" stroke-linecap="round" stroke-linejoin="round"/>
<path fill-rule="evenodd" clip-rule="evenodd" d="M15.5 13.5C14.4645 13.5 13.625 14.3395 13.625 15.375V15.75H13.25C12.8358 15.75 12.5 16.0858 12.5 16.5V18.75C12.5 19.1642 12.8358 19.5 13.25 19.5H17.75C18.1642 19.5 18.5 19.1642 18.5 18.75V16.5C18.5 16.0858 18.1642 15.75 17.75 15.75H17.375V15.375C17.375 14.3395 16.5355 13.5 15.5 13.5ZM15.875 15.75V15.375C15.875 15.1679 15.7071 15 15.5 15C15.2929 15 15.125 15.1679 15.125 15.375V15.75H15.875ZM16.0625 17.625C16.0625 17.9357 15.8107 18.1875 15.5 18.1875C15.1893 18.1875 14.9375 17.9357 14.9375 17.625C14.9375 17.3143 15.1893 17.0625 15.5 17.0625C15.8107 17.0625 16.0625 17.3143 16.0625 17.625Z" fill="#667085"/>
<path d="M10 9C10 10.1046 10.8954 11 12 11C13.1046 11 14 10.1046 14 9C14 7.89543 13.1046 7 12 7C10.8954 7 10 7.89543 10 9Z" stroke="#667085" stroke-width="2" stroke-linecap="round" stroke-linejoin="round"/>
</svg>
