<svg width="24" height="24" viewBox="0 0 24 24" fill="none" xmlns="http://www.w3.org/2000/svg">
<path fill-rule="evenodd" clip-rule="evenodd" d="M4 8.91995C4 4.53507 7.5926 1 12 1C16.4074 1 20 4.53507 20 8.91995C20 10.1249 19.869 11.1915 19.5339 12.2915C19.3729 12.8198 18.8141 13.1176 18.2858 12.9566C17.7575 12.7956 17.4597 12.2368 17.6207 11.7085C17.8877 10.8323 18 9.96728 18 8.91995C18 5.66127 15.3246 3 12 3C8.67542 3 6 5.66127 6 8.91995C6 12.291 7.11226 13.9878 11.9931 20.9993C11.9946 20.9996 11.9969 21 12 21C12.5523 21 13 21.4477 13 22C13 22.5523 12.5523 23 12 23C11.385 23 10.7526 22.718 10.3523 22.1429L10.2572 22.0063C5.56228 15.2621 4 13.0179 4 8.91995Z" fill="black"/>
<path d="M16.7008 18.2008L18 19.5M16.7008 18.2008C16.3615 18.5401 15.8928 18.75 15.375 18.75C14.3395 18.75 13.5 17.9105 13.5 16.875C13.5 15.8395 14.3395 15 15.375 15C16.4105 15 17.25 15.8395 17.25 16.875C17.25 17.3928 17.0401 17.8615 16.7008 18.2008ZM12 11C10.8954 11 10 10.1046 10 9C10 7.89543 10.8954 7 12 7C13.1046 7 14 7.89543 14 9C14 10.1046 13.1046 11 12 11Z" stroke="#667085" stroke-width="2" stroke-linecap="round" stroke-linejoin="round"/>
</svg>
