<svg width="24" height="24" viewBox="0 0 24 24" fill="none" xmlns="http://www.w3.org/2000/svg">
<path d="M18.5773 12C18.8783 11.0119 19 10.0461 19 8.91995C19 5.09817 15.866 2 12 2C8.13401 2 5 5.09817 5 8.91995C5 12.6683 6.34786 14.6401 11.173 21.5716C11.3718 21.8572 11.6859 22 12 22" stroke="black" stroke-width="2" stroke-linecap="round" stroke-linejoin="round"/>
<path fill-rule="evenodd" clip-rule="evenodd" d="M12.9351 18.1372C13.27 18.4605 13.4374 18.6221 13.5963 18.7458C14.8874 19.7514 16.6126 19.7514 17.9037 18.7458C18.0626 18.6221 18.23 18.4605 18.5649 18.1372C18.6714 18.0345 18.7246 17.9831 18.763 17.9357C19.079 17.545 19.079 16.955 18.763 16.5643C18.7246 16.5169 18.6714 16.4655 18.565 16.3628C18.23 16.0395 18.0626 15.8779 17.9037 15.7541C16.6126 14.7486 14.8874 14.7486 13.5963 15.7541C13.4374 15.8779 13.27 16.0395 12.935 16.3628C12.8286 16.4655 12.7754 16.5169 12.737 16.5643C12.421 16.955 12.421 17.545 12.737 17.9357C12.7754 17.9831 12.8286 18.0345 12.9351 18.1372ZM15.75 18.2798C16.2656 18.2798 16.6835 17.8187 16.6835 17.25C16.6835 16.6813 16.2656 16.2202 15.75 16.2202C15.2344 16.2202 14.8165 16.6813 14.8165 17.25C14.8165 17.8187 15.2344 18.2798 15.75 18.2798Z" fill="#667085"/>
<path d="M10 9C10 10.1046 10.8954 11 12 11C13.1046 11 14 10.1046 14 9C14 7.89543 13.1046 7 12 7C10.8954 7 10 7.89543 10 9Z" stroke="#667085" stroke-width="2" stroke-linecap="round" stroke-linejoin="round"/>
</svg>
