<svg width="24" height="24" viewBox="0 0 24 24" fill="none" xmlns="http://www.w3.org/2000/svg">
<path d="M5 8.91995C5 12.6683 6.34786 14.6401 11.173 21.5716C11.5706 22.1428 12.4294 22.1428 12.827 21.5716C17.6521 14.6401 19 12.6683 19 8.91995C19 5.09817 15.866 2 12 2C8.13401 2 5 5.09817 5 8.91995Z" stroke="black" stroke-width="2" stroke-linecap="round" stroke-linejoin="round"/>
<path fill-rule="evenodd" clip-rule="evenodd" d="M12 6.5C10.9645 6.5 10.125 7.33947 10.125 8.375V8.75H9.75C9.33579 8.75 9 9.08579 9 9.5V11.75C9 12.1642 9.33579 12.5 9.75 12.5H14.25C14.6642 12.5 15 12.1642 15 11.75V9.5C15 9.08579 14.6642 8.75 14.25 8.75H13.875V8.375C13.875 7.33947 13.0355 6.5 12 6.5ZM12.375 8.75V8.375C12.375 8.16789 12.2071 8 12 8C11.7929 8 11.625 8.16789 11.625 8.375V8.75H12.375ZM12.5625 10.625C12.5625 10.9357 12.3107 11.1875 12 11.1875C11.6893 11.1875 11.4375 10.9357 11.4375 10.625C11.4375 10.3143 11.6893 10.0625 12 10.0625C12.3107 10.0625 12.5625 10.3143 12.5625 10.625Z" fill="#667085"/>
</svg>
