<svg width="24" height="24" viewBox="0 0 24 24" fill="none" xmlns="http://www.w3.org/2000/svg">
<path d="M5 8.91995C5 12.6683 6.34786 14.6401 11.173 21.5716C11.5706 22.1428 12.4294 22.1428 12.827 21.5716C17.6521 14.6401 19 12.6683 19 8.91995C19 5.09817 15.866 2 12 2C8.13401 2 5 5.09817 5 8.91995Z" stroke="black" stroke-width="2" stroke-linecap="round" stroke-linejoin="round"/>
<path d="M11.6512 6.73108C11.7794 6.42297 12.2158 6.42297 12.344 6.73108L12.9363 8.15511C12.99 8.28419 13.111 8.37272 13.2503 8.38479L14.6567 8.50672C14.9788 8.53464 15.1171 8.92967 14.8828 9.15239L13.8143 10.1679C13.7174 10.2601 13.6769 10.3968 13.7079 10.5269L14.0684 12.0382C14.1458 12.3628 13.7927 12.6194 13.5079 12.4454L12.1932 11.6424C12.0731 11.5691 11.9221 11.5691 11.8021 11.6424L10.4873 12.4454C10.2025 12.6194 9.8494 12.3628 9.92683 12.0382L10.2875 10.5264C10.3184 10.3966 10.2781 10.2601 10.1815 10.168L9.11669 9.15188C8.88309 8.92897 9.02151 8.5347 9.34318 8.50673L10.745 8.38484C10.8843 8.37274 11.0052 8.28422 11.0589 8.15517L11.6512 6.73108Z" fill="#667085"/>
</svg>
