<svg width="24" height="24" viewBox="0 0 24 24" fill="none" xmlns="http://www.w3.org/2000/svg">
<path d="M5 8.91995C5 12.6683 6.34786 14.6401 11.173 21.5716C11.5706 22.1428 12.4294 22.1428 12.827 21.5716C17.6521 14.6401 19 12.6683 19 8.91995C19 5.09817 15.866 2 12 2C8.13401 2 5 5.09817 5 8.91995Z" stroke="black" stroke-width="2" stroke-linecap="round" stroke-linejoin="round"/>
<path d="M12.6278 7.87028C12.4226 7.66516 12.3201 7.56259 12.3201 7.43514C12.3201 7.30769 12.4226 7.20513 12.6278 7L12.7087 6.91911C12.7584 6.8694 12.7832 6.84455 12.8052 6.82455C13.2813 6.39182 14.0083 6.39182 14.4843 6.82455C14.5063 6.84455 14.5312 6.8694 14.5809 6.9191C14.6305 6.96877 14.6555 6.99369 14.6755 7.01568C15.1082 7.49174 15.1082 8.21872 14.6755 8.69477C14.6555 8.71678 14.6306 8.74165 14.5809 8.79134L14.5 8.87223C14.2949 9.07736 14.1923 9.17992 14.0649 9.17992C13.9374 9.17992 13.8348 9.07736 13.6297 8.87223L12.6278 7.87028Z" fill="#667085"/>
<path d="M12.1926 8.30543C11.9875 8.1003 11.8849 7.99774 11.7575 7.99774C11.63 7.99774 11.5275 8.1003 11.3223 8.30543L10.4773 9.15044C10.26 9.37 10.3941 9.23364 10.115 9.65699C9.83582 10.0803 9.64618 10.5544 9.2669 11.5026L9.21257 11.6385C9.0276 12.1009 8.93512 12.3321 9.05151 12.4485C9.1679 12.5649 9.39912 12.4724 9.86155 12.2874L9.99735 12.2331C10.9455 11.8538 11.4197 11.6642 11.843 11.385C12.2664 11.1059 12.13 11.24 12.3496 11.0227L13.1946 10.1777C13.3997 9.97253 13.5023 9.86997 13.5023 9.74252C13.5023 9.61507 13.3997 9.5125 13.1946 9.30737L12.1926 8.30543Z" fill="#667085"/>
</svg>
