<svg width="24" height="24" viewBox="0 0 24 24" fill="none" xmlns="http://www.w3.org/2000/svg">
<path d="M18.5773 12C18.8783 11.0119 19 10.0461 19 8.91995C19 5.09817 15.866 2 12 2C8.13401 2 5 5.09817 5 8.91995C5 12.6683 6.34786 14.6401 11.173 21.5716C11.3718 21.8572 11.6859 22 12 22" stroke="black" stroke-width="2" stroke-linecap="round" stroke-linejoin="round"/>
<path d="M15.6512 14.2311C15.7794 13.923 16.2158 13.923 16.344 14.2311L16.9363 15.6551C16.99 15.7842 17.111 15.8727 17.2503 15.8848L18.6567 16.0067C18.9788 16.0346 19.1171 16.4297 18.8828 16.6524L17.8143 17.6679C17.7174 17.7601 17.6769 17.8968 17.7079 18.0269L18.0684 19.5382C18.1458 19.8628 17.7927 20.1194 17.5079 19.9454L16.1932 19.1424C16.0731 19.0691 15.9221 19.0691 15.8021 19.1424L14.4873 19.9454C14.2025 20.1194 13.8494 19.8628 13.9268 19.5382L14.2875 18.0264C14.3184 17.8966 14.2781 17.7601 14.1815 17.668L13.1167 16.6519C12.8831 16.429 13.0215 16.0347 13.3432 16.0067L14.745 15.8848C14.8843 15.8727 15.0052 15.7842 15.0589 15.6552L15.6512 14.2311Z" fill="#667085"/>
<path d="M10 9C10 10.1046 10.8954 11 12 11C13.1046 11 14 10.1046 14 9C14 7.89543 13.1046 7 12 7C10.8954 7 10 7.89543 10 9Z" stroke="#667085" stroke-width="2" stroke-linecap="round" stroke-linejoin="round"/>
</svg>
