<svg width="24" height="24" viewBox="0 0 24 24" fill="none" xmlns="http://www.w3.org/2000/svg">
<path d="M18.5773 12C18.8783 11.0119 19 10.0461 19 8.91995C19 5.09817 15.866 2 12 2C8.13401 2 5 5.09817 5 8.91995C5 12.6683 6.34786 14.6401 11.173 21.5716C11.3718 21.8572 11.6859 22 12 22" stroke="black" stroke-width="2" stroke-linecap="round" stroke-linejoin="round"/>
<path d="M16.6278 15.3703C16.4226 15.1652 16.3201 15.0626 16.3201 14.9351C16.3201 14.8077 16.4226 14.7051 16.6278 14.5L16.7087 14.4191C16.7584 14.3694 16.7832 14.3445 16.8052 14.3245C17.2813 13.8918 18.0083 13.8918 18.4843 14.3245C18.5063 14.3445 18.5312 14.3694 18.5809 14.4191C18.6305 14.4688 18.6555 14.4937 18.6755 14.5157C19.1082 14.9917 19.1082 15.7187 18.6755 16.1948C18.6555 16.2168 18.6306 16.2416 18.5809 16.2913L18.5 16.3722C18.2949 16.5774 18.1923 16.6799 18.0649 16.6799C17.9374 16.6799 17.8348 16.5774 17.6297 16.3722L16.6278 15.3703Z" fill="#667085"/>
<path d="M16.1926 15.8054C15.9875 15.6003 15.8849 15.4977 15.7575 15.4977C15.63 15.4977 15.5275 15.6003 15.3223 15.8054L14.4773 16.6504C14.26 16.87 14.3941 16.7336 14.115 17.157C13.8358 17.5803 13.6462 18.0544 13.2669 19.0026L13.2126 19.1385C13.0276 19.6009 12.9351 19.8321 13.0515 19.9485C13.1679 20.0649 13.3991 19.9724 13.8615 19.7874L13.9974 19.7331C14.9455 19.3538 15.4197 19.1642 15.843 18.885C16.2664 18.6059 16.13 18.74 16.3496 18.5227L17.1946 17.6777C17.3997 17.4725 17.5023 17.37 17.5023 17.2425C17.5023 17.1151 17.3997 17.0125 17.1946 16.8074L16.1926 15.8054Z" fill="#667085"/>
<path d="M10 9C10 10.1046 10.8954 11 12 11C13.1046 11 14 10.1046 14 9C14 7.89543 13.1046 7 12 7C10.8954 7 10 7.89543 10 9Z" stroke="#667085" stroke-width="2" stroke-linecap="round" stroke-linejoin="round"/>
</svg>
