<svg width="24" height="24" viewBox="0 0 24 24" fill="none" xmlns="http://www.w3.org/2000/svg">
<path d="M5 8.91995C5 12.6683 6.34786 14.6401 11.173 21.5716C11.5706 22.1428 12.4294 22.1428 12.827 21.5716C17.6521 14.6401 19 12.6683 19 8.91995C19 5.09817 15.866 2 12 2C8.13401 2 5 5.09817 5 8.91995Z" stroke="black" stroke-width="2" stroke-linecap="round" stroke-linejoin="round"/>
<path fill-rule="evenodd" clip-rule="evenodd" d="M9.18505 10.3872C9.51997 10.7105 9.68744 10.8721 9.84632 10.9958C11.1374 12.0014 12.8626 12.0014 14.1537 10.9958C14.3126 10.8721 14.48 10.7105 14.8149 10.3872C14.9214 10.2845 14.9746 10.2331 15.013 10.1857C15.329 9.79502 15.329 9.20498 15.013 8.81433C14.9746 8.76689 14.9214 8.71553 14.815 8.61282C14.48 8.28954 14.3126 8.12789 14.1537 8.00415C12.8626 6.99862 11.1374 6.99862 9.84632 8.00415C9.68743 8.12789 9.51997 8.28953 9.18505 8.6128C9.07862 8.71553 9.02541 8.76689 8.98703 8.81433C8.67099 9.20498 8.67099 9.79502 8.98703 10.1857C9.02541 10.2331 9.07863 10.2845 9.18505 10.3872ZM12 10.5298C12.5156 10.5298 12.9335 10.0687 12.9335 9.5C12.9335 8.93127 12.5156 8.47022 12 8.47022C11.4844 8.47022 11.0665 8.93127 11.0665 9.5C11.0665 10.0687 11.4844 10.5298 12 10.5298Z" fill="#667085"/>
</svg>
