<svg width="24" height="24" viewBox="0 0 24 24" fill="none" xmlns="http://www.w3.org/2000/svg">
<path d="M14.7572 2H9.24249C8.44682 2 7.68375 2.31608 7.12113 2.87871L2.87865 7.12133C2.31606 7.68393 2 8.44698 2 9.24261V14.7574C2 15.553 2.31606 16.3161 2.87865 16.8787L7.12113 21.1213C7.68375 21.6839 8.44682 22 9.24249 22H14.7572C15.5528 22 16.3159 21.6839 16.8785 21.1213L21.1211 16.8787C21.6837 16.3161 21.9998 15.553 21.9998 14.7574V9.24264C21.9998 8.44699 21.6837 7.68393 21.1211 7.12132L16.8785 2.87868C16.3159 2.31607 15.5528 2 14.7572 2Z" stroke="black" stroke-width="2" stroke-linecap="round" stroke-linejoin="round"/>
<path d="M6 12H18" stroke="#667085" stroke-width="2" stroke-linecap="round" stroke-linejoin="round"/>
</svg>
