<svg width="24" height="24" viewBox="0 0 24 24" fill="none" xmlns="http://www.w3.org/2000/svg">
<path d="M12.041 10V19M12.041 4V2" stroke="black" stroke-width="2" stroke-linecap="round" stroke-linejoin="round"/>
<path d="M7.39413 10H12.0412H18.0059C18.5549 10 19 9.55228 19 9V5C19 4.44772 18.5549 4 18.0059 4H12.0412H7.39413C6.86682 4 6.3611 4.21071 5.98824 4.58579L4.29117 6.29289C4.09706 6.48816 4 6.74408 4 7C4 7.25592 4.09706 7.51184 4.29117 7.70711L5.98824 9.41421C6.3611 9.78929 6.86682 10 7.39413 10Z" stroke="#667085" stroke-width="2" stroke-linecap="round" stroke-linejoin="round"/>
<path d="M14.0294 19H12.0412H10.0529C9.5039 19 9.05882 19.4477 9.05882 20V22H15.0235V20C15.0235 19.4477 14.5784 19 14.0294 19Z" stroke="#667085" stroke-width="2" stroke-linecap="round" stroke-linejoin="round"/>
</svg>
