<svg width="24" height="24" viewBox="0 0 24 24" fill="none" xmlns="http://www.w3.org/2000/svg">
<path d="M11.959 10V19M11.959 4V2" stroke="black" stroke-width="2" stroke-linecap="round" stroke-linejoin="round"/>
<path d="M16.6059 10H11.9588H5.99412C5.44508 10 5 9.55228 5 9V5C5 4.44772 5.44508 4 5.99412 4H11.9588H16.6059C17.1332 4 17.6389 4.21071 18.0118 4.58579L19.7088 6.29289C19.9029 6.48816 20 6.74408 20 7C20 7.25592 19.9029 7.51184 19.7088 7.70711L18.0118 9.41421C17.6389 9.78929 17.1332 10 16.6059 10Z" stroke="#667085" stroke-width="2" stroke-linecap="round" stroke-linejoin="round"/>
<path d="M9.97059 19H11.9588H13.9471C14.4961 19 14.9412 19.4477 14.9412 20V22H8.97647V20C8.97647 19.4477 9.42156 19 9.97059 19Z" stroke="#667085" stroke-width="2" stroke-linecap="round" stroke-linejoin="round"/>
</svg>
