<svg width="24" height="24" viewBox="0 0 24 24" fill="none" xmlns="http://www.w3.org/2000/svg">
<path d="M11.8787 3.87875L16.1213 8.12139C16.3778 8.37792 16.5831 8.67611 16.7305 9.00007H12C11.4477 9.00007 11 8.55236 11 8.00007V3.26953C11.324 3.41696 11.6222 3.62223 11.8787 3.87875Z" fill="#667085"/>
<path fill-rule="evenodd" clip-rule="evenodd" d="M18 14C20.2091 14 22 15.7909 22 18C22 20.2091 20.2091 22 18 22C15.7909 22 14 20.2091 14 18C14 15.7909 15.7909 14 18 14ZM20.25 18C20.25 17.5858 19.9142 17.25 19.5 17.25H16.5C16.0858 17.25 15.75 17.5858 15.75 18C15.75 18.4142 16.0858 18.75 16.5 18.75H19.5C19.9142 18.75 20.25 18.4142 20.25 18Z" fill="#667085"/>
<path d="M12 20H6C4.34315 20 3 18.6569 3 17V6C3 4.34315 4.34315 3 6 3H9.75736C10.1902 3 10.6135 3.09355 11 3.26946C11.324 3.41689 11.6222 3.62216 11.8787 3.87868L16.1213 8.12132C16.3778 8.37784 16.5831 8.67604 16.7305 9C16.9064 9.38655 17 9.80977 17 10.2426V12" stroke="black" stroke-width="2" stroke-linecap="round" stroke-linejoin="round"/>
</svg>
