<svg width="24" height="24" viewBox="0 0 24 24" fill="none" xmlns="http://www.w3.org/2000/svg">
<path fill-rule="evenodd" clip-rule="evenodd" d="M22 18C22 15.7909 20.2091 14 18 14C15.7909 14 14 15.7909 14 18C14 20.2091 15.7909 22 18 22C20.2091 22 22 20.2091 22 18ZM17.6017 16.7294C17.4961 16.8178 17.3838 16.9735 17.2768 17.2384C17.1526 17.5456 16.8028 17.6939 16.4956 17.5697C16.1884 17.4455 16.04 17.0958 16.1642 16.7886C16.3132 16.4202 16.5209 16.0692 16.8313 15.8093C17.1549 15.5384 17.5499 15.4002 18.0006 15.4002C19.1253 15.4002 19.8806 16.3032 19.8806 17.2668C19.8806 17.6188 19.7982 17.941 19.6227 18.2238C19.4498 18.5024 19.2093 18.7062 18.9486 18.861C18.9059 18.8863 18.8781 18.9154 18.8634 18.9377C18.8505 18.9574 18.8506 18.9669 18.8506 18.9683L18.8506 19.04C18.8506 19.3714 18.5819 19.64 18.2506 19.64C17.9192 19.64 17.6506 19.3714 17.6506 19.04V18.9684C17.6506 18.4392 17.9809 18.04 18.3359 17.8292C18.4791 17.7442 18.5578 17.6641 18.6031 17.591C18.6458 17.5222 18.6806 17.4252 18.6806 17.2668C18.6806 16.9142 18.4119 16.6002 18.0006 16.6002C17.8112 16.6002 17.6942 16.652 17.6017 16.7294ZM18.9003 20.6002C18.9003 20.9316 18.6317 21.2002 18.3003 21.2002C17.9689 21.2002 17.7003 20.9316 17.7003 20.6002C17.7003 20.2688 17.9689 20.0002 18.3003 20.0002C18.6317 20.0002 18.9003 20.2688 18.9003 20.6002Z" fill="#667085"/>
<path d="M18 9.24264H13.7573C12.6528 9.24264 11.7573 8.34721 11.7573 7.24264V3" stroke="#667085" stroke-width="2" stroke-linecap="round" stroke-linejoin="round"/>
<path d="M12 21H6C4.34315 21 3 19.6569 3 18V6C3 4.34315 4.34315 3 6 3H11.7574C12.553 3 13.3161 3.31607 13.8787 3.87868L17.1213 7.12132C17.6839 7.68393 18 8.44699 18 9.24264V11.5" stroke="black" stroke-width="2" stroke-linecap="round" stroke-linejoin="round"/>
</svg>
