<svg width="24" height="24" viewBox="0 0 24 24" fill="none" xmlns="http://www.w3.org/2000/svg">
<path d="M11.8787 3.87875L16.1213 8.12139C16.3778 8.37792 16.5831 8.67611 16.7305 9.00007H12C11.4477 9.00007 11 8.55236 11 8.00007V3.26953C11.324 3.41696 11.6222 3.62223 11.8787 3.87875Z" fill="#667085"/>
<path d="M6.5 21H6C4.34315 21 3 19.6569 3 18V6C3 4.34315 4.34315 3 6 3H9.75736C10.1902 3 10.6135 3.09355 11 3.26946C11.324 3.41689 11.6222 3.62216 11.8787 3.87868L16.1213 8.12132C16.3778 8.37784 16.5831 8.67604 16.7305 9C16.9064 9.38655 17 9.80977 17 10.2426V13.5" stroke="black" stroke-width="2" stroke-linecap="round" stroke-linejoin="round"/>
<path d="M9.5 21V19.5M9.5 19.5V16.5H10.5C11.3284 16.5 12 17.1716 12 18C12 18.8284 11.3284 19.5 10.5 19.5H9.5ZM21 16.5H18.5V19M18.5 19V21M18.5 19H20M14 16.5V21H14.25C15.4926 21 16.5 19.9926 16.5 18.75C16.5 17.5074 15.4926 16.5 14.25 16.5H14Z" stroke="#667085" stroke-width="1.5" stroke-linecap="round" stroke-linejoin="round"/>
</svg>
