<svg width="24" height="24" viewBox="0 0 24 24" fill="none" xmlns="http://www.w3.org/2000/svg">
<path fill-rule="evenodd" clip-rule="evenodd" d="M18 14C20.2091 14 22 15.7909 22 18C22 20.2091 20.2091 22 18 22C15.7909 22 14 20.2091 14 18C14 15.7909 15.7909 14 18 14ZM17.0303 15.9697C16.7374 15.6768 16.2626 15.6768 15.9697 15.9697C15.6768 16.2626 15.6768 16.7374 15.9697 17.0303L16.9393 18L15.9697 18.9697C15.6768 19.2626 15.6768 19.7374 15.9697 20.0303C16.2626 20.3232 16.7374 20.3232 17.0303 20.0303L18 19.0607L18.9697 20.0303C19.2626 20.3232 19.7374 20.3232 20.0303 20.0303C20.3232 19.7374 20.3232 19.2626 20.0303 18.9697L19.0607 18L20.0303 17.0303C20.3232 16.7374 20.3232 16.2626 20.0303 15.9697C19.7374 15.6768 19.2626 15.6768 18.9697 15.9697L18 16.9393L17.0303 15.9697Z" fill="#667085"/>
<path d="M18.0005 9.24264H13.7578C12.6532 9.24264 11.7578 8.34721 11.7578 7.24264V3" stroke="#667085" stroke-width="2" stroke-linecap="round" stroke-linejoin="round"/>
<path d="M12 21H6C4.34315 21 3 19.6569 3 18V6C3 4.34315 4.34315 3 6 3H11.7574C12.553 3 13.3161 3.31607 13.8787 3.87868L17.1213 7.12132C17.6839 7.68393 18 8.44699 18 9.24264V11.5" stroke="black" stroke-width="2" stroke-linecap="round" stroke-linejoin="round"/>
</svg>
