<svg width="24" height="24" viewBox="0 0 24 24" fill="none" xmlns="http://www.w3.org/2000/svg">
<path d="M16.001 21.9999H9.00098C5.68727 21.9999 3.00098 19.3136 3.00098 15.9999V6.99994M14.501 2.13184V7.49994C14.501 8.60451 15.3964 9.49994 16.501 9.49994H20.9384" stroke="#667085" stroke-width="2" stroke-linecap="round"/>
<path d="M9.00098 19H18.001C19.6578 19 21.001 17.6569 21.001 16V10.1098C21.001 9.90356 20.9797 9.69931 20.9384 9.5C20.836 9.00716 20.6106 8.54456 20.2787 8.1574L15.8989 3.04763C15.5252 2.61154 15.0386 2.29685 14.501 2.1319C14.2188 2.04533 13.9226 2 13.6212 2H9.00098C7.34412 2 6.00098 3.34315 6.00098 5V16C6.00098 17.6569 7.34412 19 9.00098 19Z" stroke="black" stroke-width="2" stroke-linecap="round"/>
</svg>
