<svg width="24" height="24" viewBox="0 0 24 24" fill="none" xmlns="http://www.w3.org/2000/svg">
<path d="M13 2.21289V6.99989C13 8.65674 14.3431 9.99989 16 9.99989H19.8498M13.2678 16.7677C14.2441 15.7913 14.2441 14.2084 13.2678 13.2321C12.2915 12.2558 10.7085 12.2558 9.73223 13.2321C8.75592 14.2084 8.75592 15.7913 9.73223 16.7677C10.7085 17.744 12.2915 17.744 13.2678 16.7677ZM13.2678 16.7677L15 18.4999" stroke="#667085" stroke-width="2" stroke-linecap="round" stroke-linejoin="round"/>
<path d="M7 22H17C18.6569 22 20 20.6569 20 19V10.7604C20 10.4974 19.9482 10.2393 19.8498 10C19.765 9.79361 19.6455 9.6012 19.4948 9.43167L13.5967 2.67127C13.4267 2.48002 13.2237 2.32541 13 2.213C12.7243 2.07446 12.4173 2 12.1019 2H7C5.34315 2 4 3.34315 4 5V19C4 20.6569 5.34315 22 7 22Z" stroke="black" stroke-width="2" stroke-linecap="round" stroke-linejoin="round"/>
</svg>
