<svg width="24" height="24" viewBox="0 0 24 24" fill="none" xmlns="http://www.w3.org/2000/svg">
<path fill-rule="evenodd" clip-rule="evenodd" d="M18 14C20.2091 14 22 15.7909 22 18C22 20.2091 20.2091 22 18 22C15.7909 22 14 20.2091 14 18C14 15.7909 15.7909 14 18 14ZM20.25 18C20.25 17.5858 19.9142 17.25 19.5 17.25H16.5C16.0858 17.25 15.75 17.5858 15.75 18C15.75 18.4142 16.0858 18.75 16.5 18.75H19.5C19.9142 18.75 20.25 18.4142 20.25 18Z" fill="#667085"/>
<path d="M18 9.24264H13.7573C12.6528 9.24264 11.7573 8.34721 11.7573 7.24264V3" stroke="#667085" stroke-width="2" stroke-linecap="round" stroke-linejoin="round"/>
<path d="M12 21H6C4.34315 21 3 19.6569 3 18V6C3 4.34315 4.34315 3 6 3H11.7574C12.553 3 13.3161 3.31607 13.8787 3.87868L17.1213 7.12132C17.6839 7.68393 18 8.44699 18 9.24264V11.5" stroke="black" stroke-width="2" stroke-linecap="round" stroke-linejoin="round"/>
</svg>
