<svg width="24" height="24" viewBox="0 0 24 24" fill="none" xmlns="http://www.w3.org/2000/svg">
<path d="M14.8797 2.87875L19.1223 7.12139C19.3788 7.37792 19.5841 7.67611 19.7315 8.00007H15.001C14.4487 8.00007 14.001 7.55236 14.001 7.00007V2.26953C14.3249 2.41696 14.6231 2.62223 14.8797 2.87875Z" fill="#667085"/>
<path d="M7.00098 22H17.001C18.6578 22 20.001 20.6569 20.001 19V9.24264C20.001 8.80977 19.9074 8.38655 19.7315 8C19.5841 7.67604 19.3788 7.37784 19.1223 7.12132L14.8797 2.87868C14.6231 2.62216 14.3249 2.41689 14.001 2.26946C13.6144 2.09355 13.1912 2 12.7583 2H7.00098C5.34412 2 4.00098 3.34315 4.00098 5V19C4.00098 20.6569 5.34412 22 7.00098 22Z" stroke="black" stroke-width="2" stroke-linecap="round" stroke-linejoin="round"/>
<path d="M12.001 11.5L10.001 13.5M12.001 11.5L14.001 13.5M12.001 11.5V17" stroke="#667085" stroke-width="2" stroke-linecap="round" stroke-linejoin="round"/>
</svg>
