<svg width="24" height="24" viewBox="0 0 24 24" fill="none" xmlns="http://www.w3.org/2000/svg">
<path d="M13 2.21289V6.99989C13 8.65674 14.3431 9.99989 16 9.99989H19.8498" stroke="#667085" stroke-width="2" stroke-linecap="round" stroke-linejoin="round"/>
<path d="M7 22H17C18.6569 22 20 20.6569 20 19V10.7604C20 10.4974 19.9482 10.2393 19.8498 10C19.765 9.79361 19.6455 9.6012 19.4948 9.43167L13.5967 2.67127C13.4267 2.48002 13.2237 2.32541 13 2.213C12.7243 2.07446 12.4173 2 12.1019 2H7C5.34315 2 4 3.34315 4 5V19C4 20.6569 5.34315 22 7 22Z" stroke="black" stroke-width="2" stroke-linecap="round" stroke-linejoin="round"/>
<path d="M16 12.5C16 12.2004 15.8657 11.9166 15.634 11.7267C15.4023 11.5367 15.0977 11.4607 14.8039 11.5194L9.80388 12.5194C9.33646 12.6129 9 13.0233 9 13.5V17C7.89543 17 7 17.6716 7 18.5C7 19.3284 7.89543 20 9 20C10.1046 20 11 19.3284 11 18.5V14.8198L14 14.2198V16C12.8954 16 12 16.6716 12 17.5C12 18.3284 12.8954 19 14 19C15.1046 19 16 18.3284 16 17.5V12.5Z" fill="#667085"/>
</svg>
