<svg width="24" height="24" viewBox="0 0 24 24" fill="none" xmlns="http://www.w3.org/2000/svg">
<path d="M14 2.21289V7.99989C14 9.65674 15.3431 10.9999 17 10.9999H21.8498M2 15.4999H13M13 15.4999L10.5 12.9999M13 15.4999L10.5 17.9999" stroke="#667085" stroke-width="2" stroke-linecap="round" stroke-linejoin="round"/>
<path d="M6 19C6 20.6569 7.34315 22 9 22H19C20.6569 22 22 20.6569 22 19V11.7604C22 11.4974 21.9482 11.2393 21.8498 11C21.765 10.7936 21.6455 10.6012 21.4948 10.4317L14.5967 2.67127C14.4267 2.48002 14.2237 2.32541 14 2.213C13.7243 2.07446 13.4173 2 13.1019 2H9C7.34315 2 6 3.34315 6 5V12" stroke="black" stroke-width="2" stroke-linecap="round" stroke-linejoin="round"/>
</svg>
