<svg width="24" height="24" viewBox="0 0 24 24" fill="none" xmlns="http://www.w3.org/2000/svg">
<path d="M18 9.24264H13.7573C12.6528 9.24264 11.7573 8.34721 11.7573 7.24264V3" stroke="#667085" stroke-width="2" stroke-linecap="round" stroke-linejoin="round"/>
<path d="M6.5 21H6C4.34315 21 3 19.6569 3 18V6C3 4.34315 4.34315 3 6 3H11.7574C12.553 3 13.3161 3.31607 13.8787 3.87868L17.1213 7.12132C17.6839 7.68393 18 8.44699 18 9.24264V13.5" stroke="black" stroke-width="2" stroke-linecap="round" stroke-linejoin="round"/>
<path d="M21 17.5V17.3333C21 16.8731 20.6269 16.5 20.1667 16.5C19.2462 16.5 18.5 17.2462 18.5 18.1667V19.3333C18.5 20.2538 19.2462 21 20.1667 21C20.6269 21 21 20.6269 21 20.1667V20M9.5 16.5H10C11.1046 16.5 12 17.3954 12 18.5V19C12 20.1046 11.1046 21 10 21H9.5V16.5ZM14 17.75V19.75C14 20.4404 14.5596 21 15.25 21C15.9404 21 16.5 20.4404 16.5 19.75V17.75C16.5 17.0596 15.9404 16.5 15.25 16.5C14.5596 16.5 14 17.0596 14 17.75Z" stroke="#667085" stroke-width="1.5" stroke-linecap="round" stroke-linejoin="round"/>
</svg>
