<svg width="24" height="24" viewBox="0 0 24 24" fill="none" xmlns="http://www.w3.org/2000/svg">
<path d="M14.8787 2.87875L19.1213 7.12139C19.3778 7.37792 19.5831 7.67611 19.7305 8.00007H15C14.4477 8.00007 14 7.55236 14 7.00007V2.26953C14.324 2.41696 14.6222 2.62223 14.8787 2.87875Z" fill="#667085"/>
<path d="M9 13C8.44772 13 8 13.4477 8 14V16C8 16.5523 8.44772 17 9 17H12.5C13.0523 17 13.5 16.5523 13.5 16V15.299C13.533 15.3432 13.5744 15.3829 13.624 15.416L15.5336 16.6891C15.733 16.822 16 16.6791 16 16.4394V13.5606C16 13.3209 15.733 13.178 15.5336 13.3109L13.624 14.584C13.5744 14.6171 13.533 14.6568 13.5 14.701V14C13.5 13.4477 13.0523 13 12.5 13H9Z" fill="#667085"/>
<path d="M7 22H17C18.6569 22 20 20.6569 20 19V9.24264C20 8.80977 19.9064 8.38655 19.7305 8C19.5831 7.67604 19.3778 7.37784 19.1213 7.12132L14.8787 2.87868C14.6222 2.62216 14.324 2.41689 14 2.26946C13.6135 2.09355 13.1902 2 12.7574 2H7C5.34315 2 4 3.34315 4 5V19C4 20.6569 5.34315 22 7 22Z" stroke="black" stroke-width="2" stroke-linecap="round" stroke-linejoin="round"/>
</svg>
