<svg width="24" height="24" viewBox="0 0 24 24" fill="none" xmlns="http://www.w3.org/2000/svg">
<path d="M12 2.21289V7.99989C12 9.65674 13.3431 10.9999 15 10.9999H19.8498" stroke="#667085" stroke-width="2"/>
<path d="M7 22H17C18.6569 22 20 20.6569 20 19V11.7604C20 11.4974 19.9482 11.2393 19.8498 11C19.765 10.7936 19.6455 10.6012 19.4948 10.4317L12.5967 2.67127C12.4267 2.48002 12.2237 2.32541 12 2.213C11.7243 2.07446 11.4173 2 11.1019 2H7C5.34315 2 4 3.34315 4 5V19C4 20.6569 5.34315 22 7 22Z" stroke="black" stroke-width="2"/>
</svg>
