<svg width="24" height="24" viewBox="0 0 24 24" fill="none" xmlns="http://www.w3.org/2000/svg">
<path d="M11.8787 3.87875L16.1213 8.12139C16.3778 8.37792 16.5831 8.67611 16.7305 9.00007H12C11.4477 9.00007 11 8.55236 11 8.00007V3.26953C11.324 3.41696 11.6222 3.62223 11.8787 3.87875Z" fill="#667085"/>
<path d="M6.5 21H6C4.34315 21 3 19.6569 3 18V6C3 4.34315 4.34315 3 6 3H9.75736C10.1902 3 10.6135 3.09355 11 3.26946C11.324 3.41689 11.6222 3.62216 11.8787 3.87868L16.1213 8.12132C16.3778 8.37784 16.5831 8.67604 16.7305 9C16.9064 9.38655 17 9.80977 17 10.2426V13.5" stroke="black" stroke-width="2" stroke-linecap="round" stroke-linejoin="round"/>
<path d="M21 17.5V17.3333C21 16.8731 20.6269 16.5 20.1667 16.5C19.2462 16.5 18.5 17.2462 18.5 18.1667V19.3333C18.5 20.2538 19.2462 21 20.1667 21C20.6269 21 21 20.6269 21 20.1667V20M9.5 16.5H10C11.1046 16.5 12 17.3954 12 18.5V19C12 20.1046 11.1046 21 10 21H9.5V16.5ZM14 17.75V19.75C14 20.4404 14.5596 21 15.25 21C15.9404 21 16.5 20.4404 16.5 19.75V17.75C16.5 17.0596 15.9404 16.5 15.25 16.5C14.5596 16.5 14 17.0596 14 17.75Z" stroke="#667085" stroke-width="1.5" stroke-linecap="round" stroke-linejoin="round"/>
</svg>
