<svg width="24" height="24" viewBox="0 0 24 24" fill="none" xmlns="http://www.w3.org/2000/svg">
<path d="M18.0005 9.24264H13.7578C12.6532 9.24264 11.7578 8.34721 11.7578 7.24264V3" stroke="#667085" stroke-width="2" stroke-linecap="round" stroke-linejoin="round"/>
<path d="M8 21H6C4.34315 21 3 19.6569 3 18V6C3 4.34315 4.34315 3 6 3H11.7574C12.553 3 13.3161 3.31607 13.8787 3.87868L17.1213 7.12132C17.6839 7.68393 18 8.44699 18 9.24264V13.5" stroke="black" stroke-width="2" stroke-linecap="round" stroke-linejoin="round"/>
<path d="M11 16.5H12.5423C13.0712 16.5 13.5 16.9288 13.5 17.4577C13.5 17.7942 13.3235 18.1059 13.035 18.279L11.465 19.221C11.1765 19.3941 11 19.7058 11 20.0423C11 20.5712 11.4288 21 11.9577 21H13.5M16 16.5V21M18.5 21V19.5M18.5 19.5V16.5H19.5C20.3284 16.5 21 17.1716 21 18C21 18.8284 20.3284 19.5 19.5 19.5H18.5Z" stroke="#667085" stroke-width="1.5" stroke-linecap="round" stroke-linejoin="round"/>
</svg>
