<svg width="24" height="24" viewBox="0 0 24 24" fill="none" xmlns="http://www.w3.org/2000/svg">
<path d="M11.8787 3.87875L16.1213 8.12139C16.3778 8.37792 16.5831 8.67611 16.7305 9.00007H12C11.4477 9.00007 11 8.55236 11 8.00007V3.26953C11.324 3.41696 11.6222 3.62223 11.8787 3.87875Z" fill="#667085"/>
<path fill-rule="evenodd" clip-rule="evenodd" d="M22 18C22 15.7909 20.2091 14 18 14C15.7909 14 14 15.7909 14 18C14 20.2091 15.7909 22 18 22C20.2091 22 22 20.2091 22 18ZM20.0303 17.7803C20.3232 17.4874 20.3232 17.0126 20.0303 16.7197C19.7374 16.4268 19.2626 16.4268 18.9697 16.7197L17.5 18.1893L17.0303 17.7197C16.7374 17.4268 16.2626 17.4268 15.9697 17.7197C15.6768 18.0126 15.6768 18.4874 15.9697 18.7803L16.9697 19.7803C17.2626 20.0732 17.7374 20.0732 18.0303 19.7803L20.0303 17.7803Z" fill="#667085"/>
<path d="M12 20H6C4.34315 20 3 18.6569 3 17V6C3 4.34315 4.34315 3 6 3H9.75736C10.1902 3 10.6135 3.09355 11 3.26946C11.324 3.41689 11.6222 3.62216 11.8787 3.87868L16.1213 8.12132C16.3778 8.37784 16.5831 8.67604 16.7305 9C16.9064 9.38655 17 9.80977 17 10.2426V12" stroke="black" stroke-width="2" stroke-linecap="round" stroke-linejoin="round"/>
</svg>
