<svg width="24" height="24" viewBox="0 0 24 24" fill="none" xmlns="http://www.w3.org/2000/svg">
<path d="M13 2.21289V6.99989C13 8.65674 14.3431 9.99989 16 9.99989H19.8498" stroke="#667085" stroke-width="2" stroke-linecap="round" stroke-linejoin="round"/>
<path d="M7 22H17C18.6569 22 20 20.6569 20 19V10.7604C20 10.4974 19.9482 10.2393 19.8498 10C19.765 9.79361 19.6455 9.6012 19.4948 9.43167L13.5967 2.67127C13.4267 2.48002 13.2237 2.32541 13 2.213C12.7243 2.07446 12.4173 2 12.1019 2H7C5.34315 2 4 3.34315 4 5V19C4 20.6569 5.34315 22 7 22Z" stroke="black" stroke-width="2" stroke-linecap="round" stroke-linejoin="round"/>
<path d="M14.7315 13.4144C14.3949 13.1556 13.9037 13.2081 13.6344 13.5315C13.3652 13.855 13.4197 14.3269 13.7563 14.5857C14.6666 15.2854 14.6666 16.7146 13.7563 17.4144C13.4197 17.6731 13.3652 18.1451 13.6344 18.4685C13.9037 18.792 14.3949 18.8444 14.7315 18.5857C16.4228 17.2854 16.4228 14.7146 14.7315 13.4144Z" fill="#667085"/>
<path d="M9.04065 14.5C8.46592 14.5 8 14.9477 8 15.5V16.5C8 17.0523 8.46592 17.5 9.04065 17.5H9.58997C9.91308 17.5 10.2318 17.5723 10.5208 17.7112L11.8614 18.3553C11.9998 18.4218 12.1626 18.3251 12.1626 18.1764V13.8236C12.1626 13.675 11.9998 13.5783 11.8614 13.6447L10.5208 14.2889C10.2318 14.4277 9.91308 14.5 9.58997 14.5H9.04065Z" fill="#667085"/>
</svg>
