<svg width="24" height="24" viewBox="0 0 24 24" fill="none" xmlns="http://www.w3.org/2000/svg">
<path d="M12 3.21289V8.99989C12 10.6567 13.3431 11.9999 15 11.9999H19.8498" stroke="#667085" stroke-width="2" stroke-linecap="round"/>
<path d="M16.5 21H7C5.34315 21 4 19.6569 4 18V8.5M3 3L4.43813 4.43813M21 21L19.5619 19.5619M19.5619 19.5619C19.8398 19.1069 20 18.5722 20 18V12.7604C20 12.4974 19.9482 12.2393 19.8498 12C19.765 11.7936 19.6455 11.6012 19.4948 11.4317L12.5967 3.67127C12.4267 3.48002 12.2237 3.32541 12 3.213C11.7243 3.07446 11.4173 3 11.1019 3H7C5.91531 3 4.96507 3.57566 4.43813 4.43813M19.5619 19.5619L4.43813 4.43813" stroke="black" stroke-width="2" stroke-linecap="round"/>
</svg>
