<svg width="24" height="24" viewBox="0 0 24 24" fill="none" xmlns="http://www.w3.org/2000/svg">
<path d="M18 9.24264H13.7573C12.6528 9.24264 11.7573 8.34721 11.7573 7.24264V3" stroke="#667085" stroke-width="2" stroke-linecap="round" stroke-linejoin="round"/>
<path d="M6.5 21H6C4.34315 21 3 19.6569 3 18V6C3 4.34315 4.34315 3 6 3H11.7574C12.553 3 13.3161 3.31607 13.8787 3.87868L17.1213 7.12132C17.6839 7.68393 18 8.44699 18 9.24264V13.5" stroke="black" stroke-width="2" stroke-linecap="round" stroke-linejoin="round"/>
<path d="M16.5 16.5H14.9577C14.4288 16.5 14 16.9288 14 17.4577C14 17.7942 14.1765 18.1059 14.465 18.279L16.035 19.221C16.3235 19.3941 16.5 19.7058 16.5 20.0423C16.5 20.5712 16.0712 21 15.5423 21H14M12 17.5V17.3333C12 16.8731 11.6269 16.5 11.1667 16.5C10.2462 16.5 9.5 17.2462 9.5 18.1667V19.3333C9.5 20.2538 10.2462 21 11.1667 21C11.6269 21 12 20.6269 12 20.1667V20M21 16.5L19.8464 20.6531C19.8192 20.7508 19.6808 20.7508 19.6536 20.6531L18.5 16.5" stroke="#667085" stroke-width="1.5" stroke-linecap="round" stroke-linejoin="round"/>
</svg>
