<svg width="24" height="24" viewBox="0 0 24 24" fill="none" xmlns="http://www.w3.org/2000/svg">
<path d="M20.1223 6.12139L16.8797 2.87875C16.6231 2.62223 16.3249 2.41696 16.001 2.26953V6.00007C16.001 6.55236 16.4487 7.00007 17.001 7.00007H20.7315C20.5841 6.67611 20.3788 6.37792 20.1223 6.12139Z" fill="#667085"/>
<path d="M10.001 19H18.001C19.6578 19 21.001 17.6569 21.001 16V8.24264C21.001 7.80977 20.9074 7.38655 20.7315 7C20.5841 6.67604 20.3788 6.37785 20.1223 6.12132L16.8797 2.87868C16.6231 2.62216 16.3249 2.41689 16.001 2.26946C15.6144 2.09355 15.1912 2 14.7583 2H10.001C8.34412 2 7.00098 3.34315 7.00098 5V16C7.00098 17.6569 8.34412 19 10.001 19Z" stroke="black" stroke-width="2" stroke-linecap="round"/>
<path d="M17.001 22H10.001C6.68727 22 4.00098 19.3137 4.00098 16V7" stroke="#667085" stroke-width="2" stroke-linecap="round"/>
</svg>
