<svg width="24" height="24" viewBox="0 0 24 24" fill="none" xmlns="http://www.w3.org/2000/svg">
<path d="M9 3H7V3.5C7 3.77614 7.22386 4 7.5 4H8.5C8.77614 4 9 3.77614 9 3.5V3Z" fill="#667085"/>
<path d="M7.5 5C7.22386 5 7 5.22386 7 5.5V6.5C7 6.77614 7.22386 7 7.5 7H8.5C8.77614 7 9 6.77614 9 6.5V5.5C9 5.22386 8.77614 5 8.5 5H7.5Z" fill="#667085"/>
<path d="M7 8.5C7 8.22386 7.22386 8 7.5 8H8.5C8.77614 8 9 8.22386 9 8.5V9.5C9 9.77614 8.77614 10 8.5 10H7.5C7.22386 10 7 9.77614 7 9.5V8.5Z" fill="#667085"/>
<path fill-rule="evenodd" clip-rule="evenodd" d="M10 15C10 16.1046 9.10457 17 8 17C6.89543 17 6 16.1046 6 15C6 14.436 6.12794 13.749 6.34676 13.1951C6.38835 13.0898 6.43317 12.9807 6.47916 12.8687C6.65775 12.434 6.85387 11.9565 6.94623 11.4962C7.00056 11.2255 7.22386 11 7.5 11H8.5C8.77614 11 8.99944 11.2255 9.05377 11.4962C9.14613 11.9565 9.34223 12.4339 9.52082 12.8687C9.56681 12.9807 9.61165 13.0898 9.65324 13.1951C9.87206 13.749 10 14.436 10 15ZM8 15.75C8.41421 15.75 8.75 15.4142 8.75 15C8.75 14.5858 8.41421 14.25 8 14.25C7.58579 14.25 7.25 14.5858 7.25 15C7.25 15.4142 7.58579 15.75 8 15.75Z" fill="#667085"/>
<path d="M19.1213 7.12139L14.8787 2.87875C14.6222 2.62223 14.324 2.41696 14 2.26953V7.00007C14 7.55236 14.4477 8.00007 15 8.00007H19.7305C19.5831 7.67611 19.3778 7.37792 19.1213 7.12139Z" fill="#667085"/>
<path d="M7 22H17C18.6569 22 20 20.6569 20 19V9.24264C20 8.80977 19.9064 8.38655 19.7305 8C19.5831 7.67604 19.3778 7.37784 19.1213 7.12132L14.8787 2.87868C14.6222 2.62216 14.324 2.41689 14 2.26946C13.6135 2.09355 13.1902 2 12.7574 2H7C5.34315 2 4 3.34315 4 5V19C4 20.6569 5.34315 22 7 22Z" stroke="black" stroke-width="2" stroke-linecap="round" stroke-linejoin="round"/>
</svg>
