<svg width="24" height="24" viewBox="0 0 24 24" fill="none" xmlns="http://www.w3.org/2000/svg">
<path d="M11.8787 3.87875L16.1213 8.12139C16.3778 8.37792 16.5831 8.67611 16.7305 9.00007H12C11.4477 9.00007 11 8.55236 11 8.00007V3.26953C11.324 3.41696 11.6222 3.62223 11.8787 3.87875Z" fill="#667085"/>
<path d="M14.0039 14.8909C14.0785 18.529 15.2077 19.731 16.7842 20.6231C17.1076 20.8062 17.5 20.5627 17.5 20.191V14C17.5 13.588 17.0163 13.3357 16.6511 13.5265C15.9071 13.9153 15.0678 14.2065 14.3771 14.4C14.1562 14.4619 13.9992 14.6615 14.0039 14.8909Z" fill="#667085"/>
<path d="M12 20H6C4.34315 20 3 18.6569 3 17V6C3 4.34315 4.34315 3 6 3H9.75736C10.1902 3 10.6135 3.09355 11 3.26946C11.324 3.41689 11.6222 3.62216 11.8787 3.87868L16.1213 8.12132C16.3778 8.37784 16.5831 8.67604 16.7305 9C16.9064 9.38655 17 9.80977 17 10.2426" stroke="black" stroke-width="2" stroke-linecap="round" stroke-linejoin="round"/>
<path d="M20.9962 14.891C20.9141 18.898 19.5526 19.9498 17.7234 20.8872C17.5833 20.959 17.4169 20.959 17.2768 20.8872C15.4476 19.9498 14.0861 18.898 14.004 14.891C13.9993 14.6616 14.1563 14.462 14.3772 14.4001C15.242 14.1578 16.3401 13.7623 17.1921 13.2138C17.3789 13.0935 17.6213 13.0935 17.8081 13.2138C18.66 13.7623 19.7581 14.1578 20.6229 14.4001C20.8439 14.462 21.0009 14.6616 20.9962 14.891Z" stroke="#667085" stroke-width="2" stroke-linecap="round" stroke-linejoin="round"/>
</svg>
