<svg width="24" height="24" viewBox="0 0 24 24" fill="none" xmlns="http://www.w3.org/2000/svg">
<path d="M18 9.24264H13.7573C12.6528 9.24264 11.7573 8.34721 11.7573 7.24264V3" stroke="#667085" stroke-width="2" stroke-linecap="round" stroke-linejoin="round"/>
<path d="M12 21H6C4.34315 21 3 19.6569 3 18V6C3 4.34315 4.34315 3 6 3H11.7574C12.553 3 13.3161 3.31607 13.8787 3.87868L17.1213 7.12132C17.6839 7.68393 18 8.44699 18 9.24264V11.5" stroke="black" stroke-width="2" stroke-linecap="round" stroke-linejoin="round"/>
<path fill-rule="evenodd" clip-rule="evenodd" d="M22 18C22 15.7909 20.2091 14 18 14C15.7909 14 14 15.7909 14 18C14 20.2091 15.7909 22 18 22C20.2091 22 22 20.2091 22 18ZM20.0303 17.7803C20.3232 17.4874 20.3232 17.0126 20.0303 16.7197C19.7374 16.4268 19.2626 16.4268 18.9697 16.7197L17.5 18.1893L17.0303 17.7197C16.7374 17.4268 16.2626 17.4268 15.9697 17.7197C15.6768 18.0126 15.6768 18.4874 15.9697 18.7803L16.9697 19.7803C17.2626 20.0732 17.7374 20.0732 18.0303 19.7803L20.0303 17.7803Z" fill="#667085"/>
</svg>
