<svg width="24" height="24" viewBox="0 0 24 24" fill="none" xmlns="http://www.w3.org/2000/svg">
<path d="M11.8787 3.87875L16.1213 8.12139C16.3778 8.37792 16.5831 8.67611 16.7305 9.00007H12C11.4477 9.00007 11 8.55236 11 8.00007V3.26953C11.324 3.41696 11.6222 3.62223 11.8787 3.87875Z" fill="#667085"/>
<path d="M6.5 21H6C4.34315 21 3 19.6569 3 18V6C3 4.34315 4.34315 3 6 3H9.75736C10.1902 3 10.6135 3.09355 11 3.26946C11.324 3.41689 11.6222 3.62216 11.8787 3.87868L16.1213 8.12132C16.3778 8.37784 16.5831 8.67604 16.7305 9C16.9064 9.38655 17 9.80977 17 10.2426V13.5" stroke="black" stroke-width="2" stroke-linecap="round" stroke-linejoin="round"/>
<path d="M11 16.5H12.5423C13.0712 16.5 13.5 16.9288 13.5 17.4577C13.5 17.7942 13.3235 18.1059 13.035 18.279L11.465 19.221C11.1765 19.3941 11 19.7058 11 20.0423C11 20.5712 11.4288 21 11.9577 21H13.5M16 16.5V21M18.5 21V19.5M18.5 19.5V16.5H19.5C20.3284 16.5 21 17.1716 21 18C21 18.8284 20.3284 19.5 19.5 19.5H18.5Z" stroke="#667085" stroke-width="1.5" stroke-linecap="round" stroke-linejoin="round"/>
</svg>
