<svg width="24" height="24" viewBox="0 0 24 24" fill="none" xmlns="http://www.w3.org/2000/svg">
<path d="M13 2.21289V6.99989C13 8.65674 14.3431 9.99989 16 9.99989H19.8498" stroke="#667085" stroke-width="2" stroke-linecap="round" stroke-linejoin="round"/>
<path d="M7 22H17C18.6569 22 20 20.6569 20 19V10.7604C20 10.4974 19.9482 10.2393 19.8498 10C19.765 9.79361 19.6455 9.6012 19.4948 9.43167L13.5967 2.67127C13.4267 2.48002 13.2237 2.32541 13 2.213C12.7243 2.07446 12.4173 2 12.1019 2H7C5.34315 2 4 3.34315 4 5V19C4 20.6569 5.34315 22 7 22Z" stroke="black" stroke-width="2" stroke-linecap="round" stroke-linejoin="round"/>
<path d="M9 3H7V3.5C7 3.77614 7.22386 4 7.5 4H8.5C8.77614 4 9 3.77614 9 3.5V3Z" fill="#667085"/>
<path d="M7.5 5C7.22386 5 7 5.22386 7 5.5V6.5C7 6.77614 7.22386 7 7.5 7H8.5C8.77614 7 9 6.77614 9 6.5V5.5C9 5.22386 8.77614 5 8.5 5H7.5Z" fill="#667085"/>
<path d="M7 8.5C7 8.22386 7.22386 8 7.5 8H8.5C8.77614 8 9 8.22386 9 8.5V9.5C9 9.77614 8.77614 10 8.5 10H7.5C7.22386 10 7 9.77614 7 9.5V8.5Z" fill="#667085"/>
<path fill-rule="evenodd" clip-rule="evenodd" d="M10 15C10 16.1046 9.10457 17 8 17C6.89543 17 6 16.1046 6 15C6 14.436 6.12794 13.749 6.34676 13.1951C6.38835 13.0898 6.43317 12.9807 6.47916 12.8687C6.65775 12.434 6.85387 11.9565 6.94623 11.4962C7.00056 11.2255 7.22386 11 7.5 11H8.5C8.77614 11 8.99944 11.2255 9.05377 11.4962C9.14613 11.9565 9.34223 12.4339 9.52082 12.8687C9.56681 12.9807 9.61165 13.0898 9.65324 13.1951C9.87206 13.749 10 14.436 10 15ZM8 15.75C8.41421 15.75 8.75 15.4142 8.75 15C8.75 14.5858 8.41421 14.25 8 14.25C7.58579 14.25 7.25 14.5858 7.25 15C7.25 15.4142 7.58579 15.75 8 15.75Z" fill="#667085"/>
</svg>
