<svg width="24" height="24" viewBox="0 0 24 24" fill="none" xmlns="http://www.w3.org/2000/svg">
<path d="M14.8787 2.87875L19.1213 7.12139C19.3778 7.37792 19.5831 7.67611 19.7305 8.00007H15C14.4477 8.00007 14 7.55236 14 7.00007V2.26953C14.324 2.41696 14.6222 2.62223 14.8787 2.87875Z" fill="#667085"/>
<path d="M16 11.5C16 11.2004 15.8657 10.9166 15.634 10.7267C15.4023 10.5367 15.0977 10.4607 14.8039 10.5194L9.80388 11.5194C9.33646 11.6129 9 12.0233 9 12.5V16C7.89543 16 7 16.6716 7 17.5C7 18.3284 7.89543 19 9 19C10.1046 19 11 18.3284 11 17.5V13.8198L14 13.2198V15C12.8954 15 12 15.6716 12 16.5C12 17.3284 12.8954 18 14 18C15.1046 18 16 17.3284 16 16.5V11.5Z" fill="#667085"/>
<path d="M7 22H17C18.6569 22 20 20.6569 20 19V9.24264C20 8.80977 19.9064 8.38655 19.7305 8C19.5831 7.67604 19.3778 7.37784 19.1213 7.12132L14.8787 2.87868C14.6222 2.62216 14.324 2.41689 14 2.26946C13.6135 2.09355 13.1902 2 12.7574 2H7C5.34315 2 4 3.34315 4 5V19C4 20.6569 5.34315 22 7 22Z" stroke="black" stroke-width="2" stroke-linecap="round" stroke-linejoin="round"/>
</svg>
