<svg width="24" height="24" viewBox="0 0 24 24" fill="none" xmlns="http://www.w3.org/2000/svg">
<path d="M13 2.21289V6.99989C13 8.65674 14.3431 9.99989 16 9.99989H19.8498" stroke="#667085" stroke-width="2" stroke-linecap="round" stroke-linejoin="round"/>
<path d="M7 22H17C18.6569 22 20 20.6569 20 19V10.7604C20 10.4974 19.9482 10.2393 19.8498 10C19.765 9.79361 19.6455 9.6012 19.4948 9.43167L13.5967 2.67127C13.4267 2.48002 13.2237 2.32541 13 2.213C12.7243 2.07446 12.4173 2 12.1019 2H7C5.34315 2 4 3.34315 4 5V19C4 20.6569 5.34315 22 7 22Z" stroke="black" stroke-width="2" stroke-linecap="round" stroke-linejoin="round"/>
<path d="M9 14C8.44772 14 8 14.4477 8 15V17C8 17.5523 8.44772 18 9 18H12.5C13.0523 18 13.5 17.5523 13.5 17V16.299C13.533 16.3432 13.5744 16.3829 13.624 16.416L15.5336 17.6891C15.733 17.822 16 17.6791 16 17.4394V14.5606C16 14.3209 15.733 14.178 15.5336 14.3109L13.624 15.584C13.5744 15.6171 13.533 15.6568 13.5 15.701V15C13.5 14.4477 13.0523 14 12.5 14H9Z" fill="#667085"/>
</svg>
