<svg width="24" height="24" viewBox="0 0 24 24" fill="none" xmlns="http://www.w3.org/2000/svg">
<path d="M13 2.21289V6.99989C13 8.65674 14.3431 9.99989 16 9.99989H19.8498M15.5 12.9999L14 17.9999L12.1019 12.9999L10 17.9999L8.5 12.9999" stroke="#667085" stroke-width="2" stroke-linecap="round" stroke-linejoin="round"/>
<path d="M7 22H17C18.6569 22 20 20.6569 20 19V10.7604C20 10.4974 19.9482 10.2393 19.8498 10C19.765 9.79361 19.6455 9.6012 19.4948 9.43167L13.5967 2.67127C13.4267 2.48002 13.2237 2.32541 13 2.213C12.7243 2.07446 12.4173 2 12.1019 2H7C5.34315 2 4 3.34315 4 5V19C4 20.6569 5.34315 22 7 22Z" stroke="black" stroke-width="2" stroke-linecap="round" stroke-linejoin="round"/>
</svg>
