<svg width="24" height="24" viewBox="0 0 24 24" fill="none" xmlns="http://www.w3.org/2000/svg">
<path d="M16.8787 2.87875L21.1213 7.12139C21.3778 7.37792 21.5831 7.67611 21.7305 8.00007H17C16.4477 8.00007 16 7.55236 16 7.00007V2.26953C16.324 2.41696 16.6222 2.62223 16.8787 2.87875Z" fill="#667085"/>
<path d="M6 19C6 20.6569 7.34315 22 9 22H19C20.6569 22 22 20.6569 22 19V9.24264C22 8.80977 21.9064 8.38655 21.7305 8C21.5831 7.67604 21.3778 7.37784 21.1213 7.12132L16.8787 2.87868C16.6222 2.62216 16.324 2.41689 16 2.26946C15.6135 2.09355 15.1902 2 14.7574 2H9C7.34315 2 6 3.34315 6 5V12" stroke="black" stroke-width="2" stroke-linecap="round" stroke-linejoin="round"/>
<path d="M2 15.5H13M13 15.5L10.5 13M13 15.5L10.5 18" stroke="#667085" stroke-width="2" stroke-linecap="round" stroke-linejoin="round"/>
</svg>
