<svg width="24" height="24" viewBox="0 0 24 24" fill="none" xmlns="http://www.w3.org/2000/svg">
<path d="M14.8787 3.87875L19.1213 8.12139C19.3778 8.37792 19.5831 8.67611 19.7305 9.00007H15C14.4477 9.00007 14 8.55236 14 8.00007V3.26953C14.324 3.41696 14.6222 3.62223 14.8787 3.87875Z" fill="#667085"/>
<path d="M16.5 21H7C5.34315 21 4 19.6569 4 18V8.5M2 2L4.43813 4.43813M22 22L19.5619 19.5619M4.43813 4.43813C4.96507 3.57566 5.91531 3 7 3H12.7574C13.1902 3 13.6135 3.09355 14 3.26946C14.324 3.41689 14.6222 3.62216 14.8787 3.87868L19.1213 8.12132C19.3778 8.37784 19.5831 8.67604 19.7305 9C19.9064 9.38655 20 9.80977 20 10.2426V18C20 18.5722 19.8398 19.1069 19.5619 19.5619M4.43813 4.43813L19.5619 19.5619" stroke="black" stroke-width="2" stroke-linecap="round"/>
</svg>
