<svg width="24" height="24" viewBox="0 0 24 24" fill="none" xmlns="http://www.w3.org/2000/svg">
<path d="M14.0039 14.8909C14.0785 18.5291 15.2077 19.731 16.7842 20.6231C17.1076 20.8062 17.5 20.5627 17.5 20.191V14C17.5 13.588 17.0163 13.3357 16.6511 13.5265C15.9071 13.9153 15.0678 14.2065 14.3771 14.4C14.1562 14.4619 13.9992 14.6615 14.0039 14.8909Z" fill="#667085"/>
<path d="M18 9.24264H13.7573C12.6528 9.24264 11.7573 8.34721 11.7573 7.24264V3M17.7233 20.8872C19.5526 19.9498 20.914 18.898 20.9961 14.891C21.0008 14.6616 20.8438 14.462 20.6229 14.4001C19.7581 14.1578 18.66 13.7623 17.8081 13.2138C17.6212 13.0935 17.3789 13.0935 17.192 13.2138C16.3401 13.7623 15.242 14.1578 14.3772 14.4001C14.1563 14.462 13.9993 14.6616 14.004 14.891C14.0861 18.898 15.4475 19.9498 17.2768 20.8872C17.4168 20.959 17.5833 20.959 17.7233 20.8872Z" stroke="#667085" stroke-width="2" stroke-linecap="round" stroke-linejoin="round"/>
<path d="M12 21H6C4.34315 21 3 19.6569 3 18V6C3 4.34315 4.34315 3 6 3H11.7574C12.553 3 13.3161 3.31607 13.8787 3.87868L17.1213 7.12132C17.6839 7.68393 18 8.44699 18 9.24264V10" stroke="black" stroke-width="2" stroke-linecap="round" stroke-linejoin="round"/>
</svg>
