<svg width="24" height="24" viewBox="0 0 24 24" fill="none" xmlns="http://www.w3.org/2000/svg">
<path d="M14.8787 2.87875L19.1213 7.12139C19.3778 7.37792 19.5831 7.67611 19.7305 8.00007H15C14.4477 8.00007 14 7.55236 14 7.00007V2.26953C14.324 2.41696 14.6222 2.62223 14.8787 2.87875Z" fill="#667085"/>
<path d="M14.7315 12.4144C14.3949 12.1556 13.9037 12.2081 13.6344 12.5315C13.3652 12.855 13.4197 13.3269 13.7563 13.5857C14.6666 14.2854 14.6666 15.7146 13.7563 16.4144C13.4197 16.6731 13.3652 17.1451 13.6344 17.4685C13.9037 17.792 14.3949 17.8444 14.7315 17.5857C16.4228 16.2854 16.4228 13.7146 14.7315 12.4144Z" fill="#667085"/>
<path d="M9.04065 13.5C8.46592 13.5 8 13.9477 8 14.5V15.5C8 16.0523 8.46592 16.5 9.04065 16.5H9.58997C9.91308 16.5 10.2318 16.5723 10.5208 16.7112L11.8614 17.3553C11.9998 17.4218 12.1626 17.3251 12.1626 17.1764V12.8236C12.1626 12.675 11.9998 12.5783 11.8614 12.6447L10.5208 13.2889C10.2318 13.4277 9.91308 13.5 9.58997 13.5H9.04065Z" fill="#667085"/>
<path d="M7 22H17C18.6569 22 20 20.6569 20 19V9.24264C20 8.80977 19.9064 8.38655 19.7305 8C19.5831 7.67604 19.3778 7.37784 19.1213 7.12132L14.8787 2.87868C14.6222 2.62216 14.324 2.41689 14 2.26946C13.6135 2.09355 13.1902 2 12.7574 2H7C5.34315 2 4 3.34315 4 5V19C4 20.6569 5.34315 22 7 22Z" stroke="black" stroke-width="2" stroke-linecap="round" stroke-linejoin="round"/>
</svg>
