<svg width="24" height="24" viewBox="0 0 24 24" fill="none" xmlns="http://www.w3.org/2000/svg">
<path d="M2 17V7C2 5.34315 3.34315 4 5 4H9.39445C10.3975 4 11.3342 4.5013 11.8906 5.3359L12.1094 5.6641C12.6658 6.4987 13.6025 7 14.6056 7H19C20.6569 7 22 8.34315 22 10V17C22 18.6569 20.6569 20 19 20H5C3.34315 20 2 18.6569 2 17Z" stroke="black" stroke-width="2" stroke-linecap="round" stroke-linejoin="round"/>
<path d="M18.2395 17H5.76041C5.37352 17 5.1277 16.5804 5.31296 16.2362L6.8988 13.2901C7.41128 12.338 8.7056 12.2003 9.4021 13.0237L10.847 14.7319C10.9337 14.8343 11.0924 14.8264 11.1688 14.7159L13.2792 11.6609C13.9026 10.7584 15.2302 10.7849 15.818 11.7116L18.6682 16.2042C18.8863 16.548 18.6427 17 18.2395 17Z" fill="#667085"/>
<path d="M11 9.75C11 10.4404 10.4404 11 9.75 11C9.05964 11 8.5 10.4404 8.5 9.75C8.5 9.05964 9.05964 8.5 9.75 8.5C10.4404 8.5 11 9.05964 11 9.75Z" fill="#667085"/>
</svg>
