<svg width="24" height="24" viewBox="0 0 24 24" fill="none" xmlns="http://www.w3.org/2000/svg">
<circle cx="11.7505" cy="17.25" r="1" fill="#667085"/>
<path d="M2 17V7C2 5.34315 3.34315 4 5 4H9.39445C10.3975 4 11.3342 4.5013 11.8906 5.3359L12.1094 5.6641C12.6658 6.4987 13.6025 7 14.6056 7H19C20.6569 7 22 8.34315 22 10V17C22 18.6569 20.6569 20 19 20H5C3.34315 20 2 18.6569 2 17Z" stroke="black" stroke-width="2" stroke-linecap="round" stroke-linejoin="round"/>
<path d="M10.001 11.5833C10.401 10.5937 11.001 10 12.001 10C13.201 10 14.001 10.9508 14.001 11.9792C14.001 12.8366 13.3057 13.365 12.4949 13.7464C12.1912 13.8892 12 14 11.8902 14.4843L11.8343 14.75" stroke="#667085" stroke-width="2" stroke-linecap="round" stroke-linejoin="round"/>
</svg>
