<svg width="24" height="24" viewBox="0 0 24 24" fill="none" xmlns="http://www.w3.org/2000/svg">
<path d="M2 17V7C2 5.34315 3.34315 4 5 4H9.39445C10.3975 4 11.3342 4.5013 11.8906 5.3359L12.1094 5.6641C12.6658 6.4987 13.6025 7 14.6056 7H19C20.6569 7 22 8.34315 22 10V17C22 18.6569 20.6569 20 19 20H5C3.34315 20 2 18.6569 2 17Z" stroke="black" stroke-width="2" stroke-linecap="round" stroke-linejoin="round"/>
<path fill-rule="evenodd" clip-rule="evenodd" d="M11 10C11 9.72386 11.2239 9.5 11.5 9.5H12.5C12.7761 9.5 13 9.72386 13 10C13 10.4007 13.4845 10.6017 13.7678 10.3184C13.963 10.1231 14.2796 10.1231 14.4749 10.3184L15.182 11.0255C15.3773 11.2208 15.3773 11.5373 15.182 11.7326C14.8988 12.0158 15.0995 12.5 15.5 12.5C15.7761 12.5 16 12.7239 16 13V14C16 14.2761 15.7761 14.5 15.5 14.5C15.0992 14.5 14.8986 14.9846 15.182 15.268C15.3773 15.4633 15.3773 15.7798 15.182 15.9751L14.4749 16.6822C14.2796 16.8775 13.963 16.8775 13.7678 16.6822C13.4845 16.3989 13 16.5994 13 17C13 17.2761 12.7761 17.5 12.5 17.5H11.5C11.2239 17.5 11 17.2761 11 17C11 16.5995 10.5155 16.3991 10.2323 16.6824C10.037 16.8776 9.72041 16.8776 9.52514 16.6824L8.81804 15.9753C8.62277 15.78 8.62277 15.4634 8.81804 15.2681C9.10147 14.9847 8.90083 14.5 8.5 14.5C8.22386 14.5 8 14.2761 8 14V13C8 12.7239 8.22386 12.5 8.5 12.5C8.90056 12.5 9.10127 12.0157 8.81803 11.7325C8.62277 11.5372 8.62277 11.2206 8.81803 11.0254L9.52514 10.3182C9.7204 10.123 10.037 10.123 10.2322 10.3182C10.5156 10.6016 11 10.4007 11 10ZM12 15.5C13.1046 15.5 14 14.6046 14 13.5C14 12.3954 13.1046 11.5 12 11.5C10.8954 11.5 10 12.3954 10 13.5C10 14.6046 10.8954 15.5 12 15.5Z" fill="#667085"/>
</svg>
