<svg width="24" height="24" viewBox="0 0 24 24" fill="none" xmlns="http://www.w3.org/2000/svg">
<path d="M2 17V7C2 5.34315 3.34315 4 5 4H9.39445C10.3975 4 11.3342 4.5013 11.8906 5.3359L12.1094 5.6641C12.6658 6.4987 13.6025 7 14.6056 7H19C20.6569 7 22 8.34315 22 10V17C22 18.6569 20.6569 20 19 20H5C3.34315 20 2 18.6569 2 17Z" stroke="black" stroke-width="2" stroke-linecap="round" stroke-linejoin="round"/>
<path d="M10.1484 11.3639C10.8999 10.7693 11.9001 10.944 12.4999 11.5933C13.0997 10.944 14.087 10.7756 14.8514 11.3639C15.6159 11.9522 15.7088 12.9525 15.1186 13.6557C14.5284 14.3588 12.4999 16 12.4999 16C12.4999 16 10.4714 14.3588 9.88121 13.6557C9.29104 12.9525 9.39685 11.9584 10.1484 11.3639Z" stroke="#667085" stroke-width="2" stroke-linecap="round" stroke-linejoin="round"/>
</svg>
