<svg width="24" height="24" viewBox="0 0 24 24" fill="none" xmlns="http://www.w3.org/2000/svg">
<path d="M17.727 20H18.4797C19.5064 20 20.3795 19.2798 20.5356 18.3041L21.9756 9.30411C22.1695 8.0926 21.1946 7 19.9197 7H15.1373C14.4418 7 13.7923 6.6658 13.4066 6.1094L12.5615 4.8906C12.1757 4.3342 11.5263 4 10.8308 4H7.54008C6.49106 4 5.60621 4.75107 5.47609 5.75193L4.92383 10" stroke="#667085" stroke-width="2" stroke-linecap="round" stroke-linejoin="round"/>
<path d="M18.5184 11.6078L19.7664 17.6078C20.0238 18.8454 19.0393 20 17.7267 20H5.9798H5.32879C4.33727 20 3.48358 19.3271 3.28913 18.3922L2.0411 12.3922C1.78368 11.1546 2.76815 10 4.08076 10H4.92359H16.4787C17.4702 10 18.3239 10.6729 18.5184 11.6078Z" stroke="black" stroke-width="2" stroke-linecap="round" stroke-linejoin="round"/>
</svg>
