<svg width="24" height="24" viewBox="0 0 24 24" fill="none" xmlns="http://www.w3.org/2000/svg">
<path d="M2 17V7C2 5.34315 3.34315 4 5 4H9.39445C10.3975 4 11.3342 4.5013 11.8906 5.3359L12.1094 5.6641C12.6658 6.4987 13.6025 7 14.6056 7H19C20.6569 7 22 8.34315 22 10V17C22 18.6569 20.6569 20 19 20H5C3.34315 20 2 18.6569 2 17Z" stroke="black" stroke-width="2" stroke-linecap="round" stroke-linejoin="round"/>
<path d="M13.2678 14.7678C14.2441 13.7915 14.2441 12.2085 13.2678 11.2322C12.2915 10.2559 10.7085 10.2559 9.73223 11.2322C8.75592 12.2085 8.75592 13.7915 9.73223 14.7678C10.7085 15.7441 12.2915 15.7441 13.2678 14.7678ZM13.2678 14.7678L15 16.5" stroke="#667085" stroke-width="2" stroke-linecap="round" stroke-linejoin="round"/>
</svg>
