<svg width="24" height="24" viewBox="0 0 24 24" fill="none" xmlns="http://www.w3.org/2000/svg">
<path d="M2 17V7C2 5.34315 3.34315 4 5 4H9.39445C10.3975 4 11.3342 4.5013 11.8906 5.3359L12.1094 5.6641C12.6658 6.4987 13.6025 7 14.6056 7H19C20.6569 7 22 8.34315 22 10V17C22 18.6569 20.6569 20 19 20H5C3.34315 20 2 18.6569 2 17Z" stroke="black" stroke-width="2" stroke-linecap="round" stroke-linejoin="round"/>
<path d="M16 10.0588C16 9.74162 15.8657 9.44111 15.634 9.24C15.4023 9.03889 15.0977 8.95836 14.8039 9.02057L9.80388 10.0794C9.33646 10.1784 9 10.6129 9 11.1177V14.8235C7.89543 14.8235 7 15.5346 7 16.4118C7 17.2889 7.89543 18 9 18C10.1046 18 11 17.2889 11 16.4118V12.5151L14 11.8798V13.7647C12.8954 13.7647 12 14.4758 12 15.3529C12 16.2301 12.8954 16.9412 14 16.9412C15.1046 16.9412 16 16.2301 16 15.3529V10.0588Z" fill="#667085"/>
</svg>
