<svg width="24" height="24" viewBox="0 0 24 24" fill="none" xmlns="http://www.w3.org/2000/svg">
<path d="M19 12.5V5C19 3.34315 17.6569 2 16 2H7C5.34315 2 4 3.34315 4 5V19C4 20.6569 5.34315 22 7 22H11" stroke="black" stroke-width="2" stroke-linecap="round" stroke-linejoin="round"/>
<path fill-rule="evenodd" clip-rule="evenodd" d="M21 19C21 16.7909 19.2091 15 17 15C14.7909 15 13 16.7909 13 19C13 21.2091 14.7909 23 17 23C19.2091 23 21 21.2091 21 19ZM19.0303 18.7803C19.3232 18.4874 19.3232 18.0126 19.0303 17.7197C18.7374 17.4268 18.2626 17.4268 17.9697 17.7197L16.5 19.1893L16.0303 18.7197C15.7374 18.4268 15.2626 18.4268 14.9697 18.7197C14.6768 19.0126 14.6768 19.4874 14.9697 19.7803L15.9697 20.7803C16.2626 21.0732 16.7374 21.0732 17.0303 20.7803L19.0303 18.7803Z" fill="#667085"/>
<path d="M7 7H15M7 11H15M7 15H12" stroke="#667085" stroke-width="2" stroke-linecap="round" stroke-linejoin="round"/>
</svg>
