<svg width="24" height="24" viewBox="0 0 24 24" fill="none" xmlns="http://www.w3.org/2000/svg">
<path d="M19 12.5V5C19 3.34315 17.6569 2 16 2H7C5.34315 2 4 3.34315 4 5V19C4 20.6569 5.34315 22 7 22H11" stroke="black" stroke-width="2" stroke-linecap="round" stroke-linejoin="round"/>
<path fill-rule="evenodd" clip-rule="evenodd" d="M21 19C21 16.7909 19.2091 15 17 15C14.7909 15 13 16.7909 13 19C13 21.2091 14.7909 23 17 23C19.2091 23 21 21.2091 21 19ZM16.6017 17.7294C16.4961 17.8178 16.3838 17.9735 16.2768 18.2384C16.1526 18.5456 15.8028 18.6939 15.4956 18.5697C15.1884 18.4455 15.04 18.0958 15.1642 17.7886C15.3132 17.4202 15.5209 17.0692 15.8313 16.8093C16.1549 16.5384 16.5499 16.4002 17.0006 16.4002C18.1253 16.4002 18.8806 17.3032 18.8806 18.2668C18.8806 18.6188 18.7982 18.941 18.6227 19.2238C18.4498 19.5024 18.2093 19.7062 17.9486 19.861C17.9059 19.8863 17.8781 19.9154 17.8634 19.9377C17.8505 19.9574 17.8506 19.9669 17.8506 19.9683L17.8506 20.04C17.8506 20.3714 17.5819 20.64 17.2506 20.64C16.9192 20.64 16.6506 20.3714 16.6506 20.04V19.9684C16.6506 19.4392 16.9809 19.04 17.3359 18.8292C17.4791 18.7442 17.5578 18.6641 17.6031 18.591C17.6458 18.5222 17.6806 18.4252 17.6806 18.2668C17.6806 17.9142 17.4119 17.6002 17.0006 17.6002C16.8112 17.6002 16.6942 17.652 16.6017 17.7294ZM17.9003 21.6002C17.9003 21.9316 17.6317 22.2002 17.3003 22.2002C16.9689 22.2002 16.7003 21.9316 16.7003 21.6002C16.7003 21.2688 16.9689 21.0002 17.3003 21.0002C17.6317 21.0002 17.9003 21.2688 17.9003 21.6002Z" fill="#667085"/>
<path d="M7 7H15M7 11H15M7 15H12" stroke="#667085" stroke-width="2" stroke-linecap="round" stroke-linejoin="round"/>
</svg>
