<svg width="24" height="24" viewBox="0 0 24 24" fill="none" xmlns="http://www.w3.org/2000/svg">
<path d="M19 12.5V5C19 3.34315 17.6569 2 16 2H7C5.34315 2 4 3.34315 4 5V19C4 20.6569 5.34315 22 7 22H11" stroke="black" stroke-width="2" stroke-linecap="round" stroke-linejoin="round"/>
<path fill-rule="evenodd" clip-rule="evenodd" d="M17 15C19.2091 15 21 16.7909 21 19C21 21.2091 19.2091 23 17 23C14.7909 23 13 21.2091 13 19C13 16.7909 14.7909 15 17 15ZM17 21.75C17.4142 21.75 17.75 21.4142 17.75 21V19C17.75 18.5858 17.4142 18.25 17 18.25C16.5858 18.25 16.25 18.5858 16.25 19V21C16.25 21.4142 16.5858 21.75 17 21.75ZM17.75 17C17.75 16.5858 17.4142 16.25 17 16.25C16.5858 16.25 16.25 16.5858 16.25 17C16.25 17.4142 16.5858 17.75 17 17.75C17.4142 17.75 17.75 17.4142 17.75 17Z" fill="#667085"/>
<path d="M7 7H15M7 11H15M7 15H12" stroke="#667085" stroke-width="2" stroke-linecap="round" stroke-linejoin="round"/>
</svg>
