<svg width="24" height="24" viewBox="0 0 24 24" fill="none" xmlns="http://www.w3.org/2000/svg">
<path d="M19 12.5V5C19 3.34315 17.6569 2 16 2H7C5.34315 2 4 3.34315 4 5V19C4 20.6569 5.34315 22 7 22H11" stroke="black" stroke-width="2" stroke-linecap="round" stroke-linejoin="round"/>
<path fill-rule="evenodd" clip-rule="evenodd" d="M17 23C19.2091 23 21 21.2091 21 19C21 16.7909 19.2091 15 17 15C14.7909 15 13 16.7909 13 19C13 21.2091 14.7909 23 17 23ZM17 16.25C17.4142 16.25 17.75 16.5858 17.75 17V19C17.75 19.4142 17.4142 19.75 17 19.75C16.5858 19.75 16.25 19.4142 16.25 19V17C16.25 16.5858 16.5858 16.25 17 16.25ZM17.75 21C17.75 21.4142 17.4142 21.75 17 21.75C16.5858 21.75 16.25 21.4142 16.25 21C16.25 20.5858 16.5858 20.25 17 20.25C17.4142 20.25 17.75 20.5858 17.75 21Z" fill="#667085"/>
<path d="M7 7H15M7 11H15M7 15H12" stroke="#667085" stroke-width="2" stroke-linecap="round" stroke-linejoin="round"/>
</svg>
