<svg width="24" height="24" viewBox="0 0 24 24" fill="none" xmlns="http://www.w3.org/2000/svg">
<path d="M19 12.5V5C19 3.34315 17.6569 2 16 2H7C5.34315 2 4 3.34315 4 5V19C4 20.6569 5.34315 22 7 22H11" stroke="black" stroke-width="2" stroke-linecap="round" stroke-linejoin="round"/>
<path fill-rule="evenodd" clip-rule="evenodd" d="M17 15C19.2091 15 21 16.7909 21 19C21 21.2091 19.2091 23 17 23C14.7909 23 13 21.2091 13 19C13 16.7909 14.7909 15 17 15ZM16.0303 16.9697C15.7374 16.6768 15.2626 16.6768 14.9697 16.9697C14.6768 17.2626 14.6768 17.7374 14.9697 18.0303L15.9393 19L14.9697 19.9697C14.6768 20.2626 14.6768 20.7374 14.9697 21.0303C15.2626 21.3232 15.7374 21.3232 16.0303 21.0303L17 20.0607L17.9697 21.0303C18.2626 21.3232 18.7374 21.3232 19.0303 21.0303C19.3232 20.7374 19.3232 20.2626 19.0303 19.9697L18.0607 19L19.0303 18.0303C19.3232 17.7374 19.3232 17.2626 19.0303 16.9697C18.7374 16.6768 18.2626 16.6768 17.9697 16.9697L17 17.9393L16.0303 16.9697Z" fill="#667085"/>
<path d="M7 7H15M7 11H15M7 15H12" stroke="#667085" stroke-width="2" stroke-linecap="round" stroke-linejoin="round"/>
</svg>
