<svg width="24" height="24" viewBox="0 0 24 24" fill="none" xmlns="http://www.w3.org/2000/svg">
<path d="M13 20.9902V16C13 14.3431 14.3431 13 16 13H20.9902" stroke="#667085" stroke-width="2" stroke-linejoin="round"/>
<path d="M18 3H6C4.34315 3 3 4.34315 3 6V18C3 19.6569 4.34315 21 6 21H12.7574C12.8386 21 12.9196 20.9967 13 20.9902C13.7068 20.9328 14.3735 20.6265 14.8787 20.1213L20.1213 14.8787C20.6265 14.3735 20.9328 13.7068 20.9902 13C20.9967 12.9196 21 12.8386 21 12.7574V6C21 4.34315 19.6569 3 18 3Z" stroke="black" stroke-width="2" stroke-linejoin="round"/>
</svg>
