<svg width="24" height="24" viewBox="0 0 24 24" fill="none" xmlns="http://www.w3.org/2000/svg">
<path d="M9 19H18C19.6569 19 21 17.6569 21 16V10.1098C21 9.90356 20.9788 9.69931 20.9374 9.5C20.8351 9.00716 20.6096 8.54456 20.2778 8.1574L15.898 3.04763C15.5242 2.61154 15.0377 2.29685 14.5 2.1319C14.2178 2.04533 13.9216 2 13.6202 2H9C7.34315 2 6 3.34315 6 5V16C6 17.6569 7.34315 19 9 19Z" stroke="black" stroke-width="2" stroke-linecap="round"/>
<path d="M16 22H9C5.68629 22 3 19.3137 3 16V7" stroke="#667085" stroke-width="2" stroke-linecap="round"/>
</svg>
