<svg width="24" height="24" viewBox="0 0 24 24" fill="none" xmlns="http://www.w3.org/2000/svg">
<path d="M20 5H4C2.89543 5 2 5.89543 2 7V16C2 17.1046 2.89543 18 4 18H8.17157C8.70201 18 9.21071 18.2107 9.58579 18.5858L11.2929 20.2929C11.6834 20.6834 12.3166 20.6834 12.7071 20.2929L14.4142 18.5858C14.7893 18.2107 15.298 18 15.8284 18H20C21.1046 18 22 17.1046 22 16V7C22 5.89543 21.1046 5 20 5Z" stroke="black" stroke-width="2" stroke-linecap="round"/>
<path d="M10 13C11 13.9956 13 13.9956 14 13" stroke="#667085" stroke-width="2" stroke-linecap="round"/>
<path d="M11 10C11 10.5523 10.5523 11 10 11C9.44772 11 9 10.5523 9 10C9 9.44772 9.44772 9 10 9C10.5523 9 11 9.44772 11 10Z" fill="#667085"/>
<path d="M15 10C15 10.5523 14.5523 11 14 11C13.4477 11 13 10.5523 13 10C13 9.44772 13.4477 9 14 9C14.5523 9 15 9.44772 15 10Z" fill="#667085"/>
</svg>
