<svg width="24" height="24" viewBox="0 0 24 24" fill="none" xmlns="http://www.w3.org/2000/svg">
<path d="M20 5H4C2.89543 5 2 5.89543 2 7V16C2 17.1046 2.89543 18 4 18H8.17157C8.70201 18 9.21071 18.2107 9.58579 18.5858L11.2929 20.2929C11.6834 20.6834 12.3166 20.6834 12.7071 20.2929L14.4142 18.5858C14.7893 18.2107 15.298 18 15.8284 18H20C21.1046 18 22 17.1046 22 16V7C22 5.89543 21.1046 5 20 5Z" stroke="black" stroke-width="2" stroke-linejoin="round"/>
<path d="M9.64836 9.77155C10.3999 9.17949 11.4001 9.35341 11.9999 9.99998C12.5997 9.35341 13.587 9.18572 14.3514 9.77155C15.1159 10.3574 15.2088 11.3535 14.6186 12.0537C14.0284 12.754 11.9999 14.3883 11.9999 14.3883C11.9999 14.3883 9.97138 12.754 9.38121 12.0537C8.79104 11.3535 8.89685 10.3636 9.64836 9.77155Z" stroke="#667085" stroke-width="2" stroke-linejoin="round"/>
</svg>
