<svg width="24" height="24" viewBox="0 0 24 24" fill="none" xmlns="http://www.w3.org/2000/svg">
<path d="M20 5H4C2.89543 5 2 5.89543 2 7V16C2 17.1046 2.89543 18 4 18H8.17157C8.70201 18 9.21071 18.2107 9.58579 18.5858L11.2929 20.2929C11.6834 20.6834 12.3166 20.6834 12.7071 20.2929L14.4142 18.5858C14.7893 18.2107 15.298 18 15.8284 18H20C21.1046 18 22 17.1046 22 16V7C22 5.89543 21.1046 5 20 5Z" stroke="black" stroke-width="2" stroke-linecap="round"/>
<circle cx="12" cy="15" r="1" fill="#667085"/>
<path d="M10 9.00006C10.5523 8.04771 11.7755 7.72141 12.7321 8.27125C13.6886 8.82109 14.0164 10.0389 13.4641 10.9912C13.188 11.4674 12.7441 11.787 12.2497 11.9189" stroke="#667085" stroke-width="2" stroke-linecap="round"/>
</svg>
