<svg width="24" height="24" viewBox="0 0 24 24" fill="none" xmlns="http://www.w3.org/2000/svg">
<path d="M21 11V8C21 6.34315 19.6569 5 18 5H6C4.34315 5 3 6.34315 3 8V16C3 17.6569 4.34315 19 6 19H13" stroke="black" stroke-width="2" stroke-linecap="round" stroke-linejoin="round"/>
<path d="M18.6278 14.3703C18.4226 14.1652 18.3201 14.0626 18.3201 13.9351C18.3201 13.8077 18.4226 13.7051 18.6278 13.5L18.7087 13.4191C18.7584 13.3694 18.7832 13.3445 18.8052 13.3245C19.2813 12.8918 20.0083 12.8918 20.4843 13.3245C20.5063 13.3445 20.5312 13.3694 20.5809 13.4191C20.6305 13.4688 20.6555 13.4937 20.6755 13.5157C21.1082 13.9917 21.1082 14.7187 20.6755 15.1948C20.6555 15.2168 20.6306 15.2416 20.5809 15.2913L20.5 15.3722C20.2949 15.5774 20.1923 15.6799 20.0649 15.6799C19.9374 15.6799 19.8348 15.5774 19.6297 15.3722L18.6278 14.3703Z" fill="#667085"/>
<path d="M18.1926 14.8054C17.9875 14.6003 17.8849 14.4977 17.7575 14.4977C17.63 14.4977 17.5275 14.6003 17.3223 14.8054L16.4773 15.6504C16.26 15.87 16.3941 15.7336 16.115 16.157C15.8358 16.5803 15.6462 17.0544 15.2669 18.0026L15.2126 18.1385C15.0276 18.6009 14.9351 18.8321 15.0515 18.9485C15.1679 19.0649 15.3991 18.9724 15.8615 18.7874L15.9974 18.7331C16.9455 18.3538 17.4197 18.1642 17.843 17.885C18.2664 17.6059 18.13 17.74 18.3496 17.5227L19.1946 16.6777C19.3997 16.4725 19.5023 16.37 19.5023 16.2425C19.5023 16.1151 19.3997 16.0125 19.1946 15.8074L18.1926 14.8054Z" fill="#667085"/>
<path d="M6 8L10.2111 10.1056C11.3373 10.6686 12.6627 10.6686 13.7889 10.1056L18 8" stroke="#667085" stroke-width="2" stroke-linecap="round" stroke-linejoin="round"/>
</svg>
