<svg width="24" height="24" viewBox="0 0 24 24" fill="none" xmlns="http://www.w3.org/2000/svg">
<path d="M6 12C5.44772 12 5 12.4477 5 13C5 13.5523 5.44772 14 6 14V12ZM18 14C18.5523 14 19 13.5523 19 13C19 12.4477 18.5523 12 18 12V14ZM20.4188 7.18627L13.4188 12.1863L14.5812 13.8137L21.5812 8.81373L20.4188 7.18627ZM14 12H10V14H14V12ZM10.5812 12.1863L3.58124 7.18627L2.41876 8.81373L9.41876 13.8137L10.5812 12.1863ZM10 12H6V14H10V12ZM14 14H18V12H14V14Z" fill="#667085"/>
<path d="M18 5H6C4.82551 5 3.80865 5.67492 3.31612 6.65808C3.11384 7.06186 3 7.51764 3 8V16C3 17.6569 4.34315 19 6 19H18C19.6569 19 21 17.6569 21 16V8C21 7.51763 20.8862 7.06185 20.6839 6.65807C20.1913 5.67492 19.1745 5 18 5Z" stroke="black" stroke-width="2" stroke-linecap="round" stroke-linejoin="round"/>
</svg>
