<svg width="24" height="24" viewBox="0 0 24 24" fill="none" xmlns="http://www.w3.org/2000/svg">
<path d="M13.9998 12.7857L12.5298 13.7005C12.2056 13.9023 11.7941 13.9023 11.4698 13.7005L9.99984 12.7857M13.9998 12.7857L20.9421 8.46558M13.9998 12.7857L20.5645 19.5635M9.99984 12.7857L3.43514 19.5635M9.99984 12.7857L3.05762 8.46558" stroke="#667085" stroke-width="2" stroke-linecap="round" stroke-linejoin="round"/>
<path d="M21 18.013V9.05191C21 8.98662 20.9979 8.92182 20.9938 8.85758C20.9774 8.60391 20.8271 8.38337 20.6202 8.23569L14.3307 3.74593C12.9374 2.75136 11.0626 2.75136 9.66931 3.74593L3.05778 8.46557C3.01988 8.65516 3 8.85122 3 9.05191V18.013C3 18.5807 3.15909 19.1115 3.43531 19.5635C3.96167 20.4248 4.91337 21 6 21H18C19.0866 21 20.0383 20.4248 20.5647 19.5635C20.8409 19.1115 21 18.5807 21 18.013Z" stroke="black" stroke-width="2" stroke-linecap="round" stroke-linejoin="round"/>
</svg>
