<svg width="24" height="24" viewBox="0 0 24 24" fill="none" xmlns="http://www.w3.org/2000/svg">
<path d="M13.9998 11.75L12.5298 12.6688C12.2056 12.8714 11.7941 12.8714 11.4698 12.6688L9.99984 11.75M13.9998 11.75L20.9421 7.41114M13.9998 11.75L20.5645 17.5573M3.05762 7.41113L9.99984 11.75M9.99984 11.75L3.43514 17.5573" stroke="#667085" stroke-width="2" stroke-linecap="round" stroke-linejoin="round"/>
<path d="M18 5H6C4.5447 5 3.33143 6.03624 3.05778 7.41111C3.01988 7.60153 3 7.79844 3 8V16C3 16.5702 3.15909 17.1033 3.43531 17.5572C3.96167 18.4223 4.91337 19 6 19H18C19.0866 19 20.0383 18.4223 20.5647 17.5572C20.8409 17.1033 21 16.5702 21 16V8C21 7.79844 20.9801 7.60153 20.9422 7.41112C20.6686 6.03624 19.4553 5 18 5Z" stroke="black" stroke-width="2" stroke-linecap="round" stroke-linejoin="round"/>
</svg>
