<svg width="24" height="24" viewBox="0 0 24 24" fill="none" xmlns="http://www.w3.org/2000/svg">
<path d="M21 11V8C21 6.34315 19.6569 5 18 5H6C4.34315 5 3 6.34315 3 8V16C3 17.6569 4.34315 19 6 19H13" stroke="black" stroke-width="2" stroke-linecap="round" stroke-linejoin="round"/>
<path fill-rule="evenodd" clip-rule="evenodd" d="M18.125 12.75C17.1326 12.75 16.3281 13.5545 16.3281 14.5469V14.9062H15.9688C15.5718 14.9062 15.25 15.228 15.25 15.625V17.7812C15.25 18.1782 15.5718 18.5 15.9688 18.5H20.2812C20.6782 18.5 21 18.1782 21 17.7812V15.625C21 15.228 20.6782 14.9062 20.2812 14.9062H19.9219V14.5469C19.9219 13.5545 19.1174 12.75 18.125 12.75ZM18.4844 14.9062V14.5469C18.4844 14.3484 18.3235 14.1875 18.125 14.1875C17.9265 14.1875 17.7656 14.3484 17.7656 14.5469V14.9062H18.4844ZM18.6641 16.7031C18.6641 17.0008 18.4227 17.2422 18.125 17.2422C17.8273 17.2422 17.5859 17.0008 17.5859 16.7031C17.5859 16.4054 17.8273 16.1641 18.125 16.1641C18.4227 16.1641 18.6641 16.4054 18.6641 16.7031Z" fill="#667085"/>
<path d="M6 8L10.2111 10.1056C11.3373 10.6686 12.6627 10.6686 13.7889 10.1056L18 8" stroke="#667085" stroke-width="2" stroke-linecap="round" stroke-linejoin="round"/>
</svg>
