<svg width="24" height="24" viewBox="0 0 24 24" fill="none" xmlns="http://www.w3.org/2000/svg">
<path d="M21 11V8C21 6.34315 19.6569 5 18 5H6C4.34315 5 3 6.34315 3 8V16C3 17.6569 4.34315 19 6 19H13" stroke="black" stroke-width="2" stroke-linecap="round" stroke-linejoin="round"/>
<path fill-rule="evenodd" clip-rule="evenodd" d="M14.9351 16.6372C15.27 16.9605 15.4374 17.1221 15.5963 17.2458C16.8874 18.2514 18.6126 18.2514 19.9037 17.2458C20.0626 17.1221 20.23 16.9605 20.5649 16.6372C20.6714 16.5345 20.7246 16.4831 20.763 16.4357C21.079 16.045 21.079 15.455 20.763 15.0643C20.7246 15.0169 20.6714 14.9655 20.565 14.8628C20.23 14.5395 20.0626 14.3779 19.9037 14.2541C18.6126 13.2486 16.8874 13.2486 15.5963 14.2541C15.4374 14.3779 15.27 14.5395 14.935 14.8628C14.8286 14.9655 14.7754 15.0169 14.737 15.0643C14.421 15.455 14.421 16.045 14.737 16.4357C14.7754 16.4831 14.8286 16.5345 14.9351 16.6372ZM17.75 16.7798C18.2656 16.7798 18.6835 16.3187 18.6835 15.75C18.6835 15.1813 18.2656 14.7202 17.75 14.7202C17.2344 14.7202 16.8165 15.1813 16.8165 15.75C16.8165 16.3187 17.2344 16.7798 17.75 16.7798Z" fill="#667085"/>
<path d="M6 8L10.2111 10.1056C11.3373 10.6686 12.6627 10.6686 13.7889 10.1056L18 8" stroke="#667085" stroke-width="2" stroke-linecap="round" stroke-linejoin="round"/>
</svg>
