<svg width="24" height="24" viewBox="0 0 24 24" fill="none" xmlns="http://www.w3.org/2000/svg">
<path d="M21 11V8C21 6.34315 19.6569 5 18 5H6C4.34315 5 3 6.34315 3 8V16C3 17.6569 4.34315 19 6 19H13" stroke="black" stroke-width="2" stroke-linecap="round" stroke-linejoin="round"/>
<path d="M17.6512 13.2311C17.7794 12.923 18.2158 12.923 18.344 13.2311L18.9363 14.6551C18.99 14.7842 19.111 14.8727 19.2503 14.8848L20.6567 15.0067C20.9788 15.0346 21.1171 15.4297 20.8828 15.6524L19.8143 16.6679C19.7174 16.7601 19.6769 16.8968 19.7079 17.0269L20.0684 18.5382C20.1458 18.8628 19.7927 19.1194 19.5079 18.9454L18.1932 18.1424C18.0731 18.0691 17.9221 18.0691 17.8021 18.1424L16.4873 18.9454C16.2025 19.1194 15.8494 18.8628 15.9268 18.5382L16.2875 17.0264C16.3184 16.8966 16.2781 16.7601 16.1815 16.668L15.1167 15.6519C14.8831 15.429 15.0215 15.0347 15.3432 15.0067L16.745 14.8848C16.8843 14.8727 17.0052 14.7842 17.0589 14.6552L17.6512 13.2311Z" fill="#667085"/>
<path d="M6 8L10.2111 10.1056C11.3373 10.6686 12.6627 10.6686 13.7889 10.1056L18 8" stroke="#667085" stroke-width="2" stroke-linecap="round" stroke-linejoin="round"/>
</svg>
