<svg width="24" height="24" viewBox="0 0 24 24" fill="none" xmlns="http://www.w3.org/2000/svg">
<path d="M19 3H5C3.89543 3 3 3.89147 3 4.99115V20.5012C3 20.9718 3.59518 21.1796 3.89043 20.8122L6.69976 17.3161C6.88953 17.0799 7.17684 16.9424 7.48063 16.9424H19C20.1046 16.9424 21 16.051 21 14.9513V4.99115C21 3.89147 20.1046 3 19 3Z" stroke="black" stroke-width="2" stroke-linecap="round"/>
<circle cx="12" cy="13.5" r="1" fill="#667085"/>
<path d="M10.0361 7.50884C10.5884 6.55649 11.8116 6.2302 12.7682 6.78003C13.7248 7.32987 14.0525 8.54764 13.5002 9.49999C13.2241 9.97617 12.7802 10.2958 12.2858 10.4277" stroke="#667085" stroke-width="2" stroke-linecap="round"/>
</svg>
