<svg width="24" height="24" viewBox="0 0 24 24" fill="none" xmlns="http://www.w3.org/2000/svg">
<path d="M3.89043 20.8121L4.67002 21.4384H4.67002L3.89043 20.8121ZM6.69976 17.3152L7.47935 17.9415L7.47935 17.9415L6.69976 17.3152ZM5 4H19V2H5V4ZM20 4.99164V14.9498H22V4.99164H20ZM4 20.5011V4.99164H2V20.5011H4ZM19 15.9414H7.48063V17.9414H19V15.9414ZM4.67002 21.4384L7.47935 17.9415L5.92017 16.6889L3.11084 20.1859L4.67002 21.4384ZM7.48063 15.9414C6.87468 15.9414 6.30031 16.2157 5.92017 16.6889L7.47935 17.9415C7.47874 17.9422 7.479 17.9414 7.48063 17.9414V15.9414ZM2 20.5011C2 21.9254 3.78926 22.5348 4.67002 21.4384L3.11085 20.1859C3.4011 19.8246 4 20.0182 4 20.5011H2ZM20 14.9498C20 15.4935 19.5562 15.9414 19 15.9414V17.9414C20.6529 17.9414 22 16.606 22 14.9498H20ZM19 4C19.5562 4 20 4.44792 20 4.99164H22C22 3.33545 20.6529 2 19 2V4ZM5 2C3.3471 2 2 3.33545 2 4.99164H4C4 4.44792 4.44376 4 5 4V2Z" fill="black"/>
<path d="M11.9999 8.6118L11.2668 9.2919C11.456 9.49588 11.7217 9.6118 11.9999 9.6118C12.2781 9.6118 12.5438 9.49588 12.733 9.2919L11.9999 8.6118ZM11.9999 13.0001L11.3725 13.7788C11.7387 14.0738 12.2611 14.0738 12.6273 13.7788L11.9999 13.0001ZM12.733 7.9317C11.8314 6.95977 10.2483 6.63765 9.02952 7.59785L10.2672 9.16888C10.5514 8.94497 10.9688 8.97069 11.2668 9.2919L12.733 7.9317ZM9.02952 7.59785C7.852 8.52552 7.64754 10.1603 8.61657 11.31L10.1459 10.0211C9.93455 9.77039 9.94169 9.42533 10.2672 9.16888L9.02952 7.59785ZM15.3832 11.31C16.3424 10.1719 16.1753 8.52122 14.9597 7.58964L13.7432 9.17709C14.0564 9.41718 14.0751 9.7587 13.8539 10.0211L15.3832 11.31ZM14.9597 7.58964C13.7386 6.65384 12.1755 6.9521 11.2668 7.9317L12.733 9.2919C13.0239 8.97836 13.4354 8.94123 13.7432 9.17709L14.9597 7.58964ZM8.61657 11.31C8.97464 11.7349 9.69704 12.373 10.2624 12.8558C10.5587 13.1089 10.8356 13.3391 11.0381 13.5058C11.1395 13.5893 11.2226 13.6571 11.2806 13.7043C11.3095 13.7278 11.3323 13.7463 11.3479 13.7589C11.3557 13.7652 11.3617 13.7701 11.3658 13.7734C11.3679 13.7751 11.3695 13.7764 11.3706 13.7773C11.3712 13.7777 11.3716 13.7781 11.3719 13.7783C11.3721 13.7785 11.3722 13.7786 11.3723 13.7786C11.3724 13.7787 11.3724 13.7787 11.3724 13.7787C11.3725 13.7788 11.3725 13.7788 11.9999 13.0001C12.6273 12.2214 12.6273 12.2214 12.6273 12.2214C12.6273 12.2214 12.6273 12.2214 12.6273 12.2214C12.6273 12.2214 12.6272 12.2213 12.6271 12.2212C12.6269 12.2211 12.6266 12.2209 12.6262 12.2205C12.6254 12.2198 12.6241 12.2188 12.6223 12.2173C12.6187 12.2145 12.6133 12.2101 12.6061 12.2042C12.5917 12.1926 12.5702 12.1752 12.5426 12.1527C12.4873 12.1078 12.4073 12.0424 12.3093 11.9618C12.1131 11.8002 11.8459 11.578 11.5613 11.335C10.9649 10.8256 10.3779 10.2965 10.1459 10.0211L8.61657 11.31ZM11.9999 13.0001C12.6273 13.7788 12.6273 13.7788 12.6274 13.7787C12.6274 13.7787 12.6274 13.7787 12.6275 13.7786C12.6276 13.7786 12.6277 13.7785 12.6279 13.7783C12.6282 13.7781 12.6286 13.7777 12.6292 13.7773C12.6303 13.7764 12.6319 13.7751 12.634 13.7734C12.6381 13.7701 12.6441 13.7652 12.6519 13.7589C12.6675 13.7463 12.6902 13.7278 12.7192 13.7043C12.7772 13.6571 12.8603 13.5893 12.9617 13.5058C13.1642 13.3391 13.4411 13.1089 13.7374 12.8558C14.3028 12.373 15.0252 11.7349 15.3832 11.31L13.8539 10.0211C13.6218 10.2965 13.0349 10.8256 12.4385 11.335C12.1539 11.578 11.8867 11.8002 11.6905 11.9618C11.5925 12.0424 11.5125 12.1078 11.4572 12.1527C11.4296 12.1752 11.4081 12.1926 11.3937 12.2042C11.3865 12.2101 11.3811 12.2145 11.3775 12.2173C11.3757 12.2188 11.3744 12.2198 11.3736 12.2205C11.3732 12.2209 11.3729 12.2211 11.3727 12.2212C11.3726 12.2213 11.3725 12.2214 11.3725 12.2214C11.3725 12.2214 11.3725 12.2214 11.3725 12.2214C11.3725 12.2214 11.3725 12.2214 11.9999 13.0001Z" fill="#667085"/>
</svg>
