<svg width="24" height="24" viewBox="0 0 24 24" fill="none" xmlns="http://www.w3.org/2000/svg">
<path d="M10 15.9424H7.48063C7.17684 15.9424 6.88953 16.0799 6.69976 16.3161L3.89043 19.8122C3.59518 20.1796 3 19.9718 3 19.5012V4.99115C3 3.89147 3.89543 3 5 3H19C20.1046 3 21 3.89147 21 4.99115V10" stroke="black" stroke-width="2" stroke-linecap="round"/>
<path d="M19.5 13.5H14.5C13.6716 13.5 13 14.1657 13 14.9868V17.9604C13 18.7815 13.6716 19.4472 14.5 19.4472H17.3944C17.7893 19.4472 18.1753 19.5631 18.5038 19.7801L20.2227 20.9159C20.5549 21.1355 21 20.8994 21 20.5036V14.9868C21 14.1657 20.3284 13.5 19.5 13.5Z" stroke="#667085" stroke-width="2"/>
</svg>
