<svg width="24" height="24" viewBox="0 0 24 24" fill="none" xmlns="http://www.w3.org/2000/svg">
<path d="M14.1362 2.13623C13.613 2.04666 13.0751 2 12.5263 2C7.29414 2 3.05263 6.24151 3.05263 11.4737C3.05263 12.737 3.29992 13.9426 3.74875 15.0447C3.95403 15.5488 4.00609 16.1093 3.83064 16.6245L2.65533 20.0757C2.38775 20.8614 3.1386 21.6122 3.92432 21.3447L7.37548 20.1694C7.89069 19.9939 8.4512 20.046 8.95527 20.2513C10.0574 20.7001 11.263 20.9474 12.5263 20.9474C17.7585 20.9474 22 16.7059 22 11.4737C22 11.0188 21.9679 10.5715 21.906 10.1337" stroke="black" stroke-width="2" stroke-linecap="round"/>
<path d="M20.9469 5.158C20.9469 6.3207 20.0043 7.26326 18.8416 7.26326C17.6789 7.26326 16.7363 6.3207 16.7363 5.158C16.7363 3.99529 17.6789 3.05273 18.8416 3.05273C20.0043 3.05273 20.9469 3.99529 20.9469 5.158Z" stroke="#667085" stroke-width="2" stroke-linecap="round"/>
</svg>
