<svg width="24" height="24" viewBox="0 0 24 24" fill="none" xmlns="http://www.w3.org/2000/svg">
<path d="M12.5263 20.9474C17.7585 20.9474 22 16.7059 22 11.4737C22 6.24151 17.7585 2 12.5263 2C7.29414 2 3.05263 6.24151 3.05263 11.4737C3.05263 12.737 3.29992 13.9426 3.74875 15.0447C3.95403 15.5488 4.00609 16.1093 3.83064 16.6245L2.65533 20.0757C2.38775 20.8614 3.1386 21.6122 3.92432 21.3447L7.37548 20.1694C7.89069 19.9939 8.4512 20.046 8.95527 20.2513C10.0574 20.7001 11.263 20.9474 12.5263 20.9474Z" stroke="black" stroke-width="2" stroke-linecap="round" stroke-linejoin="round"/>
<path d="M10.5 13.5C11.5 14.8333 13.5 14.8333 14.5 13.5" stroke="#667085" stroke-width="2" stroke-linecap="round" stroke-linejoin="round"/>
<path d="M11.5 9.5C11.5 10.0523 11.0523 10.5 10.5 10.5C9.94772 10.5 9.5 10.0523 9.5 9.5C9.5 8.94772 9.94772 8.5 10.5 8.5C11.0523 8.5 11.5 8.94772 11.5 9.5Z" fill="black"/>
<path d="M15.5 9.5C15.5 10.0523 15.0523 10.5 14.5 10.5C13.9477 10.5 13.5 10.0523 13.5 9.5C13.5 8.94772 13.9477 8.5 14.5 8.5C15.0523 8.5 15.5 8.94772 15.5 9.5Z" fill="black"/>
</svg>
