<svg width="24" height="24" viewBox="0 0 24 24" fill="none" xmlns="http://www.w3.org/2000/svg">
<path d="M12.5263 20.9474C17.7585 20.9474 22 16.7059 22 11.4737C22 6.24151 17.7585 2 12.5263 2C7.29414 2 3.05263 6.24151 3.05263 11.4737C3.05263 12.737 3.29992 13.9426 3.74875 15.0447C3.95403 15.5488 4.00609 16.1093 3.83064 16.6245L2.65533 20.0757C2.38775 20.8614 3.1386 21.6122 3.92432 21.3447L7.37548 20.1694C7.89069 19.9939 8.4512 20.046 8.95527 20.2513C10.0574 20.7001 11.263 20.9474 12.5263 20.9474Z" stroke="black" stroke-width="2" stroke-linejoin="round"/>
<path d="M10.1484 9.70813C10.8999 9.11358 11.9001 9.28824 12.4999 9.93752C13.0997 9.28824 14.087 9.11984 14.8514 9.70813C15.6159 10.2964 15.7088 11.2967 15.1186 11.9999C14.5284 12.7031 12.4999 14.3442 12.4999 14.3442C12.4999 14.3442 10.4714 12.7031 9.88121 11.9999C9.29104 11.2967 9.39685 10.3027 10.1484 9.70813Z" stroke="#667085" stroke-width="2" stroke-linejoin="round"/>
</svg>
