<svg width="24" height="24" viewBox="0 0 24 24" fill="none" xmlns="http://www.w3.org/2000/svg">
<path d="M3 20L6.36685 16.1522M17 4L9.55516 12.5084M6.36685 16.1522C4.44849 13.939 3.19618 11.0575 3.00713 7.6906C2.91814 6.10588 3.67086 4.62058 4.79506 3.49826C5.53346 2.76108 6.75631 2.85444 7.37385 3.69514L9.45987 6.53498C10.071 7.36701 9.98275 8.51977 9.25195 9.24935C8.43422 10.0657 8.43422 11.3893 9.25195 12.2057L9.55516 12.5084M6.36685 16.1522L9.55516 12.5084" stroke="black" stroke-width="2" stroke-linecap="round" stroke-linejoin="round"/>
<path d="M8.42578 18.085C10.6777 19.8036 13.4414 20.8296 16.3478 20.993C17.9185 21.0813 19.3813 20.3229 20.4937 19.2123C21.2431 18.4641 21.1482 17.2251 20.2935 16.5994L17.4728 14.5344C16.6394 13.9242 15.4847 14.0124 14.7539 14.7419C13.9362 15.5583 12.6104 15.5583 11.7927 14.7419L11.5569 14.5066" stroke="#667085" stroke-width="2" stroke-linecap="round" stroke-linejoin="round"/>
</svg>
