<svg width="24" height="24" viewBox="0 0 24 24" fill="none" xmlns="http://www.w3.org/2000/svg">
<path d="M10.3861 16.0627L13.6184 16.0602C14.6588 16.0594 15.5015 16.8404 15.5007 17.8046C15.4999 18.6663 16.1776 19.3987 17.0965 19.529L20.2328 19.9738C21.1612 20.1055 21.9992 19.439 22 18.5683C22.0012 17.2427 21.5348 15.9221 20.4691 15.0395C15.2631 10.7276 8.1119 11.2476 3.50588 15.0619C2.44962 15.9366 2.00118 17.2473 2 18.559C1.99921 19.4427 2.8485 20.1178 3.79102 19.9827L6.90175 19.5369C7.82086 19.4051 8.4999 18.6717 8.50068 17.81C8.50154 16.8458 9.34566 16.0635 10.3861 16.0627Z" stroke="black" stroke-width="2" stroke-linecap="round" stroke-linejoin="round"/>
<path d="M10.5833 8.5C11.3657 7.73356 12.6343 7.73356 13.4167 8.5M7.75 5.72448C10.0972 3.42517 13.9028 3.42517 16.25 5.72448" stroke="#667085" stroke-width="2" stroke-linecap="round" stroke-linejoin="round"/>
</svg>
