<svg width="24" height="24" viewBox="0 0 24 24" fill="none" xmlns="http://www.w3.org/2000/svg">
<path d="M2 16C2 17.1046 2.89543 18 4 18H8.17157C8.70201 18 9.21071 18.2107 9.58579 18.5858L11.2929 20.2929C11.6834 20.6834 12.3166 20.6834 12.7071 20.2929L14.4142 18.5858C14.7893 18.2107 15.298 18 15.8284 18H20C21.1046 18 22 17.1046 22 16V7C22 5.89543 21.1046 5 20 5M19 5H20M15 5H4C2.89543 5 2 5.89543 2 7V12M12 10C11.4002 9.35343 10.4 9.17951 9.64846 9.77157C8.89695 10.3636 8.79114 11.3535 9.38131 12.0538C9.97148 12.754 12 14.3883 12 14.3883C12 14.3883 14.0285 12.754 14.6187 12.0538C15.2089 11.3535 15.116 10.3574 14.3515 9.77157C13.5871 9.18574 12.5998 9.35343 12 10Z" stroke="black" stroke-width="2" stroke-linecap="round" stroke-linejoin="round"/>
</svg>
