<svg width="24" height="24" viewBox="0 0 24 24" fill="none" xmlns="http://www.w3.org/2000/svg">
<path d="M3 16C3 17.6569 4.34315 19 6 19H13M3 8C3 6.34315 4.34315 5 6 5H18C19.6569 5 21 6.34315 21 8V11M6 8L10.2111 10.1056C11.3373 10.6686 12.6627 10.6686 13.7889 10.1056L18 8M17.2992 17.2008L16 18.5M17.2992 17.2008C17.6385 17.5401 18.1072 17.75 18.625 17.75C19.6605 17.75 20.5 16.9105 20.5 15.875C20.5 14.8395 19.6605 14 18.625 14C17.5895 14 16.75 14.8395 16.75 15.875C16.75 16.3928 16.9599 16.8615 17.2992 17.2008ZM3 12V8" stroke="black" stroke-width="2" stroke-linecap="round"/>
</svg>
