<svg width="24" height="24" viewBox="0 0 24 24" fill="none" xmlns="http://www.w3.org/2000/svg">
<path d="M12.5263 20.9474C11.263 20.9474 10.0574 20.7001 8.95527 20.2513C8.4512 20.046 7.89069 19.9939 7.37548 20.1694L3.92432 21.3447C3.1386 21.6122 2.38775 20.8614 2.65533 20.0757L3.83064 16.6245C4.00609 16.1093 3.95403 15.5488 3.74875 15.0447C3.29992 13.9426 3.05263 12.737 3.05263 11.4737C3.05263 6.24151 7.29414 2 12.5263 2C13.0751 2 13.613 2.04666 14.1362 2.13623M21.906 10.1337C21.9679 10.5715 22 11.0188 22 11.4737C22 15.2868 19.7472 18.5738 16.5 20.0762M20.9474 5.15789C20.9474 6.3206 20.0048 7.26316 18.8421 7.26316C17.6794 7.26316 16.7368 6.3206 16.7368 5.15789C16.7368 3.99519 17.6794 3.05263 18.8421 3.05263C20.0048 3.05263 20.9474 3.99519 20.9474 5.15789Z" stroke="black" stroke-width="2" stroke-linecap="round"/>
</svg>
