<svg width="24" height="24" viewBox="0 0 24 24" fill="none" xmlns="http://www.w3.org/2000/svg">
<path d="M5 3C3.89543 3 3 3.89147 3 4.99115V19.5012C3 19.9718 3.59518 20.1796 3.89043 19.8122L6.69976 16.3161C6.88953 16.0799 7.17684 15.9424 7.48063 15.9424H10M21 10V4.99115C21 3.89147 20.1046 3 19 3H9M14.5 19.4472C13.6716 19.4472 13 18.7815 13 17.9604V14.9868C13 14.1657 13.6716 13.5 14.5 13.5H19.5C20.3284 13.5 21 14.1657 21 14.9868V20.5036C21 20.8994 20.5549 21.1355 20.2227 20.9159L18.5038 19.7801C18.3472 19.6766 18.1775 19.5961 18 19.5403" stroke="black" stroke-width="2" stroke-linecap="round" stroke-linejoin="round"/>
</svg>
