<svg width="24" height="24" viewBox="0 0 24 24" fill="none" xmlns="http://www.w3.org/2000/svg">
<path d="M12.5263 20.9474C11.263 20.9474 10.0574 20.7001 8.95527 20.2513C8.4512 20.046 7.89069 19.9939 7.37548 20.1694L3.92432 21.3447C3.1386 21.6122 2.38775 20.8614 2.65533 20.0757L3.83064 16.6245C4.00609 16.1093 3.95403 15.5488 3.74875 15.0447C3.29992 13.9426 3.05263 12.737 3.05263 11.4737C3.05263 6.24151 7.29414 2 12.5263 2C16.2339 2 19.444 4.12977 21 7.23263M22 11.4737C22 15.2868 19.7472 18.5738 16.5 20.0762M12.5 9.93761C11.9002 9.28833 10.9 9.11368 10.1485 9.70823C9.39695 10.3028 9.29115 11.2968 9.88131 12C10.4715 12.7032 12.5 14.3443 12.5 14.3443C12.5 14.3443 14.5285 12.7032 15.1187 12C15.7089 11.2968 15.616 10.2965 14.8515 9.70823C14.0871 9.11993 13.0998 9.28833 12.5 9.93761Z" stroke="black" stroke-width="2" stroke-linecap="round" stroke-linejoin="round"/>
</svg>
