<svg width="24" height="24" viewBox="0 0 24 24" fill="none" xmlns="http://www.w3.org/2000/svg">
<path fill-rule="evenodd" clip-rule="evenodd" d="M12.5261 1C6.74169 1 2.05246 5.68923 2.05246 11.4737C2.05246 12.8686 2.32567 14.2021 2.82243 15.4219C2.9555 15.7486 2.96707 16.0578 2.88385 16.3022L1.70855 19.7533C1.17339 21.3247 2.67508 22.8264 4.24652 22.2913L7.69767 21.116C7.94205 21.0328 8.25118 21.0443 8.57793 21.1774C9.79772 21.6742 11.1313 21.9474 12.5261 21.9474C13.0784 21.9474 13.5261 21.4997 13.5261 20.9474C13.5261 20.3951 13.0784 19.9474 12.5261 19.9474C11.3943 19.9474 10.3166 19.726 9.33227 19.3251C8.65087 19.0476 7.83898 18.9551 7.05293 19.2228L3.60177 20.3981L4.77708 16.9469C5.04477 16.1608 4.95222 15.349 4.67472 14.6676C4.27383 13.6832 4.05246 12.6055 4.05246 11.4737C4.05246 6.7938 7.84626 3 12.5261 3C15.8409 3 18.713 4.90313 20.106 7.68089C20.3536 8.17458 20.9545 8.3741 21.4482 8.12653C21.9418 7.87895 22.1414 7.27805 21.8938 6.78436C20.1748 3.35642 16.6265 1 12.5261 1ZM13.5261 8.31579C13.5261 7.7635 13.0784 7.31579 12.5261 7.31579C11.9739 7.31579 11.5261 7.7635 11.5261 8.31579V11.4737C11.5261 12.026 11.9739 12.4737 12.5261 12.4737C13.0784 12.4737 13.5261 12.026 13.5261 11.4737V8.31579ZM22.9999 11.4737C22.9999 10.9214 22.5522 10.4737 21.9999 10.4737C21.4476 10.4737 20.9999 10.9214 20.9999 11.4737C20.9999 14.8828 18.9867 17.8237 16.08 19.1687C15.5787 19.4006 15.3604 19.9949 15.5923 20.4961C15.8242 20.9974 16.4186 21.2157 16.9198 20.9838C20.5075 19.3238 22.9999 15.6908 22.9999 11.4737ZM12.5 15.5C13.0523 15.5 13.5 15.0523 13.5 14.5C13.5 13.9477 13.0523 13.5 12.5 13.5C11.9477 13.5 11.5 13.9477 11.5 14.5C11.5 15.0523 11.9477 15.5 12.5 15.5Z" fill="black"/>
</svg>
