<svg width="24" height="24" viewBox="0 0 24 24" fill="none" xmlns="http://www.w3.org/2000/svg">
<path fill-rule="evenodd" clip-rule="evenodd" d="M12.5266 1C6.74217 1 2.05295 5.68923 2.05295 11.4737C2.05295 12.8686 2.32616 14.2021 2.82292 15.4219C2.95598 15.7486 2.96756 16.0578 2.88434 16.3022L1.70903 19.7533C1.17388 21.3247 2.67557 22.8264 4.247 22.2913L7.69816 21.116C7.94254 21.0328 8.25167 21.0443 8.57842 21.1774C9.79821 21.6742 11.1318 21.9474 12.5266 21.9474C13.0789 21.9474 13.5266 21.4997 13.5266 20.9474C13.5266 20.3951 13.0789 19.9474 12.5266 19.9474C11.3948 19.9474 10.3171 19.726 9.33276 19.3251C8.65136 19.0476 7.83947 18.9551 7.05342 19.2228L3.60226 20.3981L4.77756 16.9469C5.04526 16.1608 4.9527 15.349 4.6752 14.6676C4.27432 13.6832 4.05295 12.6055 4.05295 11.4737C4.05295 6.7938 7.84674 3 12.5266 3C15.8414 3 18.7136 4.90314 20.1066 7.68089C20.3541 8.17458 20.955 8.3741 21.4487 8.12653C21.9424 7.87895 22.1419 7.27805 21.8944 6.78436C20.1753 3.35641 16.627 1 12.5266 1ZM23.0005 11.4737C23.0005 10.9214 22.5527 10.4737 22.0005 10.4737C21.4482 10.4737 21.0005 10.9214 21.0005 11.4737C21.0005 14.8828 18.9873 17.8237 16.0805 19.1687C15.5793 19.4006 15.361 19.9949 15.5929 20.4961C15.8248 20.9974 16.4192 21.2157 16.9204 20.9838C20.5081 19.3238 23.0005 15.6908 23.0005 11.4737ZM9.50049 11.5C9.50049 12.0523 9.05277 12.5 8.50049 12.5C7.9482 12.5 7.50049 12.0523 7.50049 11.5C7.50049 10.9477 7.9482 10.5 8.50049 10.5C9.05277 10.5 9.50049 10.9477 9.50049 11.5ZM13.5005 11.5C13.5005 12.0523 13.0528 12.5 12.5005 12.5C11.9482 12.5 11.5005 12.0523 11.5005 11.5C11.5005 10.9477 11.9482 10.5 12.5005 10.5C13.0528 10.5 13.5005 10.9477 13.5005 11.5ZM16.5005 12.5C17.0528 12.5 17.5005 12.0523 17.5005 11.5C17.5005 10.9477 17.0528 10.5 16.5005 10.5C15.9482 10.5 15.5005 10.9477 15.5005 11.5C15.5005 12.0523 15.9482 12.5 16.5005 12.5Z" fill="black"/>
</svg>
