<svg width="24" height="24" viewBox="0 0 24 24" fill="none" xmlns="http://www.w3.org/2000/svg">
<path d="M10.0359 7.50885C10.5882 6.5565 11.8114 6.2302 12.7679 6.78004C13.7245 7.32988 14.0523 8.54765 13.5 9.5C13.2239 9.97618 12.78 10.2958 12.2856 10.4277M21 14.9514C21 16.051 20.1046 16.9425 19 16.9425H12M21 9.97129L21 4.99115C21 3.89147 20.1046 3 19 3H5C3.89543 3 3 3.89147 3 4.99115V20.5012C3 20.9718 3.59518 21.1796 3.89043 20.8122L6.69976 17.3161C6.88953 17.0799 7.17684 16.9424 7.48063 16.9424L8.00003 16.9425" stroke="black" stroke-width="2" stroke-linecap="round"/>
<circle cx="12" cy="13.5" r="1" fill="black"/>
</svg>
