<svg width="24" height="24" viewBox="0 0 24 24" fill="none" xmlns="http://www.w3.org/2000/svg">
<path d="M3.00732 7.6906C3.44204 15.4326 9.49856 20.6079 16.3478 20.993C17.9185 21.0813 19.3813 20.3229 20.4937 19.2123C21.2431 18.4642 21.1482 17.2252 20.2935 16.5995L17.4728 14.5344C16.6394 13.9242 15.4847 14.0124 14.7539 14.742C13.9362 15.5583 12.6104 15.5583 11.7927 14.742L9.25215 12.2057C8.43442 11.3893 8.43442 10.0657 9.25215 9.24935C9.98294 8.51977 10.0712 7.36701 9.46007 6.53498L7.37405 3.69514C6.75651 2.85444 5.53366 2.76108 4.79526 3.49826C4.63488 3.65837 4.48205 3.82588 4.33816 4" stroke="black" stroke-width="2" stroke-linecap="round" stroke-linejoin="round"/>
</svg>
