<svg width="24" height="24" viewBox="0 0 24 24" fill="none" xmlns="http://www.w3.org/2000/svg">
<path d="M3.00684 7.6906C3.44155 15.4326 9.49807 20.6079 16.3473 20.993C17.918 21.0813 19.3808 20.3229 20.4932 19.2123C21.2426 18.4642 21.1477 17.2252 20.293 16.5995L17.4723 14.5344C16.6389 13.9242 15.4842 14.0124 14.7534 14.742C13.9357 15.5583 12.6099 15.5583 11.7922 14.742L9.25166 12.2057C8.43393 11.3893 8.43393 10.0657 9.25166 9.24935C9.98245 8.51977 10.0708 7.36701 9.45958 6.53498L7.37356 3.69514C6.75602 2.85444 5.53317 2.76108 4.79477 3.49826M14.9997 7C16.1043 7 16.9997 7.89543 16.9997 9M14.9997 3C18.3134 3 20.9997 5.68629 20.9997 9M4.33766 3.99979C4.48156 3.82566 4.63438 3.65816 4.79476 3.49805" stroke="black" stroke-width="2" stroke-linecap="round" stroke-linejoin="round"/>
</svg>
