<svg width="24" height="24" viewBox="0 0 24 24" fill="none" xmlns="http://www.w3.org/2000/svg">
<path d="M12 22C17.5228 22 22 17.5228 22 12C22 6.47715 17.5228 2 12 2C6.47715 2 2 6.47715 2 12C2 17.5228 6.47715 22 12 22Z" stroke="#667085" stroke-width="2" stroke-linecap="round" stroke-linejoin="round"/>
<path d="M14.9996 17C14.9996 17 13.4996 15 11.9996 15C10.4996 15 8.99961 17 8.99961 17M14.2281 9.52302C14.8692 8.88935 16.2449 8.25136 17.4996 7.9375M9.87891 9.52302C9.23786 8.88935 7.86218 8.25136 6.60742 7.9375" stroke="black" stroke-width="2" stroke-linecap="round" stroke-linejoin="round"/>
<path d="M9.99963 12.5C9.99963 13.3284 9.46238 14 8.79963 14C8.13689 14 7.59963 13.3284 7.59963 12.5C7.59963 11.6716 8.13689 11 8.79963 11C9.46238 11 9.99963 11.6716 9.99963 12.5Z" fill="black"/>
<path d="M16.3996 12.5C16.3996 13.3284 15.8624 14 15.1996 14C14.5369 14 13.9996 13.3284 13.9996 12.5C13.9996 11.6716 14.5369 11 15.1996 11C15.8624 11 16.3996 11.6716 16.3996 12.5Z" fill="black"/>
</svg>
