<svg width="24" height="24" viewBox="0 0 24 24" fill="none" xmlns="http://www.w3.org/2000/svg">
<path d="M12 22C17.5228 22 22 17.5228 22 12C22 6.47715 17.5228 2 12 2C6.47715 2 2 6.47715 2 12C2 17.5228 6.47715 22 12 22Z" stroke="#667085" stroke-width="2" stroke-linecap="round" stroke-linejoin="round"/>
<path d="M15 16C15 16 14 15 12 15C10 15 9 16 9 16" stroke="#121A26" stroke-width="2" stroke-linecap="round" stroke-linejoin="round"/>
<path d="M10 10C10 11.1046 9.32843 12 8.5 12C7.67157 12 7 11.1046 7 10C7 8.89543 7.67157 8 8.5 8C9.32843 8 10 8.89543 10 10Z" fill="#121A26"/>
<path d="M17 10C17 11.1046 16.3284 12 15.5 12C14.6716 12 14 11.1046 14 10C14 8.89543 14.6716 8 15.5 8C16.3284 8 17 8.89543 17 10Z" fill="#121A26"/>
<path d="M6.50195 16.3679C7.33038 16.3679 8.00195 15.6778 8.00195 14.8266C8.00195 13.591 7.03798 12.0252 6.65558 11.4526C6.58013 11.3397 6.42378 11.3397 6.34833 11.4526C5.96593 12.0252 5.00195 13.591 5.00195 14.8266C5.00195 15.6778 5.67353 16.3679 6.50195 16.3679Z" fill="#121A26"/>
</svg>
