<svg width="24" height="24" viewBox="0 0 24 24" fill="none" xmlns="http://www.w3.org/2000/svg">
<path d="M14.2283 6.73755C15.1229 7.62186 17.4483 8.51461 18.8791 8.52304M9.87911 6.73755C8.9845 7.62186 6.65911 8.51461 5.22833 8.52304M13.9998 10.5274C14.5192 10.4389 15.2451 10.4932 15.9998 10.646M9.99982 10.5274C9.48042 10.4389 8.75455 10.4932 7.99982 10.646M5.16602 19.3007V11.7324C5.84994 11.2595 6.95266 10.858 7.99982 10.646M7.99982 10.646V21.1679M18.8336 19.3007V11.7324C18.1497 11.2595 17.047 10.858 15.9998 10.646M15.9998 10.646V21.1679M11.9998 18.5V18.5C12.8282 18.5 13.4998 17.8284 13.4998 17V16.5C13.4998 15.6716 12.8282 15 11.9998 15V15C11.1714 15 10.4998 15.6716 10.4998 16.5V17C10.4998 17.8284 11.1714 18.5 11.9998 18.5Z" stroke="black" stroke-width="2" stroke-linecap="round" stroke-linejoin="round"/>
<path d="M12 2C6.47715 2 2 6.47715 2 12C2 14.8802 3.21763 17.476 5.1662 19.3007C5.99189 20.0739 6.94884 20.7086 8 21.1679C9.22492 21.7031 10.5778 22 12 22C13.4222 22 14.7751 21.7031 16 21.1679C17.0512 20.7086 18.0081 20.0739 18.8338 19.3007C20.7824 17.476 22 14.8802 22 12C22 6.47715 17.5228 2 12 2Z" stroke="#667085" stroke-width="2" stroke-linecap="round" stroke-linejoin="round"/>
</svg>
