<svg width="24" height="24" viewBox="0 0 24 24" fill="none" xmlns="http://www.w3.org/2000/svg">
<path d="M7.00016 9C7.75016 8.5 9.25016 8.5 10.0002 9M14.0002 9C14.7502 8.5 16.2502 8.5 17.0002 9M17.0002 14L21.8001 10M7.00016 14L2.2002 10M17.0002 16H21.1681M7.00016 16H2.83225" stroke="black" stroke-width="2" stroke-linecap="round" stroke-linejoin="round"/>
<path d="M21.8 10C20.8734 5.43552 16.8379 2 12 2C7.16208 2 3.12658 5.43552 2.20004 10C2.06886 10.6462 2 11.3151 2 12C2 13.4222 2.2969 14.7751 2.83209 16C4.3752 19.5318 7.89936 22 12 22C16.1006 22 19.6248 19.5318 21.1679 16C21.7031 14.7751 22 13.4222 22 12C22 11.3151 21.9311 10.6462 21.8 10Z" stroke="#667085" stroke-width="2" stroke-linecap="round" stroke-linejoin="round"/>
</svg>
