<svg width="24" height="24" viewBox="0 0 24 24" fill="none" xmlns="http://www.w3.org/2000/svg">
<path d="M5 14C4 13 4 12 4 11.5C4 9.5 6 8 7.5 8C9.5 8 11 9.5 11 11C11 12.5 9.5 14 8 14C6.5 14 5.5 12.5 5.5 11.5C5.5 10.3349 6.5 9.5 7.5 9.5C8.5 9.5 9.5 10 9.5 11C9.5 11.5 9 12.5 8 12.5C7.5 12.5 7 12 7 11.5C7 11.3 7.2 11 7.5 11M19 8C20 9 20 10 20 10.5C20 12.5 18 14 16.5 14C14.5 14 13 12.5 13 11C13 9.5 14.5 8 16 8C17.5 8 18.5 9.5 18.5 10.5C18.5 11.6651 17.5 12.5 16.5 12.5C15.5 12.5 14.5 12 14.5 11C14.5 10.5 15 9.5 16 9.5C16.5 9.5 17 10 17 10.5C17 10.7 16.8 11 16.5 11" stroke="black" stroke-linecap="round" stroke-linejoin="round"/>
<path d="M12 22C17.5228 22 22 17.5228 22 12C22 6.47715 17.5228 2 12 2C6.47715 2 2 6.47715 2 12C2 17.5228 6.47715 22 12 22Z" stroke="#667085" stroke-width="2" stroke-linecap="round" stroke-linejoin="round"/>
<path d="M16 16L14.8944 16.5528C14.3314 16.8343 13.6686 16.8343 13.1056 16.5528L12.8944 16.4472C12.3314 16.1657 11.6686 16.1657 11.1056 16.4472L10.8944 16.5528C10.3314 16.8343 9.66863 16.8343 9.10557 16.5528L8 16" stroke="#121A26" stroke-width="2" stroke-linecap="round" stroke-linejoin="round"/>
</svg>
