<svg width="24" height="24" viewBox="0 0 24 24" fill="none" xmlns="http://www.w3.org/2000/svg">
<path d="M12 22C17.5228 22 22 17.5228 22 12C22 6.47715 17.5228 2 12 2C6.47715 2 2 6.47715 2 12C2 17.5228 6.47715 22 12 22Z" stroke="#667085" stroke-width="2" stroke-linecap="round" stroke-linejoin="round"/>
<path d="M16.5 16H7.5M10.5 9.49999C9.5 9.49999 8.5 7.99999 7 8.99999M13.5 7.49999C14.5 7.49999 15.5 5.99999 17 6.49999" stroke="#121A26" stroke-width="2" stroke-linecap="round" stroke-linejoin="round"/>
<path d="M10 11.5C10 12.3284 9.32843 13 8.5 13C7.67157 13 7 12.3284 7 11.5C7 10.6716 7.67157 10 8.5 10C9.32843 10 10 10.6716 10 11.5Z" fill="#121A26"/>
<path d="M17 11C17 12.1046 16.3284 13 15.5 13C14.6716 13 14 12.1046 14 11C14 9.89543 14.6716 9 15.5 9C16.3284 9 17 9.89543 17 11Z" fill="#121A26"/>
</svg>
