<svg width="24" height="24" viewBox="0 0 24 24" fill="none" xmlns="http://www.w3.org/2000/svg">
<path d="M12 22C17.5228 22 22 17.5228 22 12C22 6.47715 17.5228 2 12 2C6.47715 2 2 6.47715 2 12C2 17.5228 6.47715 22 12 22Z" stroke="#667085" stroke-width="2" stroke-linecap="round" stroke-linejoin="round"/>
<path d="M12 18C13.3807 18 14.5 16.8807 14.5 15.5C14.5 14.1193 13.3807 13 12 13C10.6193 13 9.5 14.1193 9.5 15.5C9.5 16.8807 10.6193 18 12 18Z" stroke="#121A26" stroke-width="2" stroke-linecap="round" stroke-linejoin="round"/>
<path d="M10 9C10 10.1046 9.32843 11 8.5 11C7.67157 11 7 10.1046 7 9C7 7.89543 7.67157 7 8.5 7C9.32843 7 10 7.89543 10 9Z" fill="#121A26"/>
<path d="M17 9C17 10.1046 16.3284 11 15.5 11C14.6716 11 14 10.1046 14 9C14 7.89543 14.6716 7 15.5 7C16.3284 7 17 7.89543 17 9Z" fill="#121A26"/>
</svg>
