<svg width="24" height="24" viewBox="0 0 24 24" fill="none" xmlns="http://www.w3.org/2000/svg">
<path d="M22 12C22 6.47715 17.5228 2 12 2C6.47715 2 2 6.47715 2 12C2 17.5228 6.47715 22 12 22C13.4222 22 14.7751 21.7031 16 21.1679" stroke="#667085" stroke-width="2" stroke-linecap="round" stroke-linejoin="round"/>
<path d="M14 11C14.75 10.5 16.25 10.5 17 11" stroke="#121A26" stroke-width="2" stroke-linecap="round" stroke-linejoin="round"/>
<path d="M10 10C10 11.1046 9.32843 12 8.5 12C7.67157 12 7 11.1046 7 10C7 8.89543 7.67157 8 8.5 8C9.32843 8 10 8.89543 10 10Z" fill="#121A26"/>
<path d="M11.0984 15.5625C11.1999 15.239 11.5579 15 11.984 15C12.489 15 12.8984 15.3358 12.8984 15.75C12.8984 16.1642 12.489 16.5 11.984 16.5C12.5451 16.5 13 16.8358 13 17.25C13 17.6642 12.5451 18 11.984 18C11.5106 18 11.1128 17.761 11 17.4375" stroke="#121A26" stroke-linecap="round" stroke-linejoin="round"/>
<path d="M18.0252 13.4819C18.8925 13.343 19.6119 13.8693 19.877 14.6231C19.92 14.7453 20.0567 14.8242 20.184 14.8003C20.9672 14.6529 21.7719 15.0122 22.0982 15.8335C22.458 16.7391 22.0247 17.6755 21.1524 18.006C20.4825 18.2598 18.7941 18.5816 18.0464 18.7173C17.8379 18.7552 17.6251 18.6323 17.5536 18.4328C17.2973 17.7174 16.7318 16.0943 16.6167 15.3873C16.4668 14.4666 17.069 13.6351 18.0252 13.4819Z" fill="#121A26"/>
</svg>
