<svg width="24" height="24" viewBox="0 0 24 24" fill="none" xmlns="http://www.w3.org/2000/svg">
<path d="M12 22C17.5228 22 22 17.5228 22 12C22 6.47715 17.5228 2 12 2C6.47715 2 2 6.47715 2 12C2 17.5228 6.47715 22 12 22Z" stroke="#667085" stroke-width="2" stroke-linecap="round" stroke-linejoin="round"/>
<path d="M10 17H14" stroke="#121A26" stroke-width="2" stroke-linecap="round" stroke-linejoin="round"/>
<path fill-rule="evenodd" clip-rule="evenodd" d="M11 11C11 12.6569 9.65685 14 8 14C6.34315 14 5 12.6569 5 11C5 9.34315 6.34315 8 8 8C9.65685 8 11 9.34315 11 11ZM9 9.5C9 10.0523 8.55228 10.5 8 10.5C7.44772 10.5 7 10.0523 7 9.5C7 8.94772 7.44772 8.5 8 8.5C8.55228 8.5 9 8.94772 9 9.5Z" fill="#121A26"/>
<path fill-rule="evenodd" clip-rule="evenodd" d="M19 11C19 12.6569 17.6569 14 16 14C14.3431 14 13 12.6569 13 11C13 9.34315 14.3431 8 16 8C17.6569 8 19 9.34315 19 11ZM17 9.5C17 10.0523 16.5523 10.5 16 10.5C15.4477 10.5 15 10.0523 15 9.5C15 8.94772 15.4477 8.5 16 8.5C16.5523 8.5 17 8.94772 17 9.5Z" fill="#121A26"/>
</svg>
