<svg width="24" height="24" viewBox="0 0 24 24" fill="none" xmlns="http://www.w3.org/2000/svg">
<path d="M12 22C16.9706 22 21 17.5228 21 12C21 11.0512 20.8811 10.1333 20.6589 9.2636C20 10.5 19.5 12 18.5 12C16.5 12 18.5 9.5 18 7.5C17.233 4.43214 15 2.5 12 2C12.5 4 11.5 6 9.5 6C7.5 8 8 13.5 6.5 13.5C5.5 13.5 4.5 10 3.96056 7.5C3.60612 8.28023 3.34097 9.11909 3.18003 10C3.06197 10.6462 3 11.3151 3 12C3 17.5228 7.02944 22 12 22Z" stroke="black" stroke-width="2" stroke-linecap="round" stroke-linejoin="round"/>
<path d="M12 19C14.5 19 17 17 17.5 14.5" stroke="#667085" stroke-width="2" stroke-linecap="round" stroke-linejoin="round"/>
</svg>
