<svg width="24" height="24" viewBox="0 0 24 24" fill="none" xmlns="http://www.w3.org/2000/svg">
<path d="M10.0005 17H14.0005M14.1992 6.5C15.453 6.39762 17.8082 7.20847 18.9096 8.12169M9.90961 6.49997C8.65587 6.39759 6.30068 7.20844 5.19922 8.12166" stroke="#121A26" stroke-width="2" stroke-linecap="round" stroke-linejoin="round"/>
<path d="M12 22C17.5228 22 22 17.5228 22 12C22 6.47715 17.5228 2 12 2C6.47715 2 2 6.47715 2 12C2 17.5228 6.47715 22 12 22Z" stroke="#667085" stroke-width="2" stroke-linecap="round" stroke-linejoin="round"/>
<path fill-rule="evenodd" clip-rule="evenodd" d="M11 12C11 13.6569 9.65685 15 8 15C6.34315 15 5 13.6569 5 12C5 10.3431 6.34315 9 8 9C9.65685 9 11 10.3431 11 12ZM9 12C9 12.5523 8.55228 13 8 13C7.44772 13 7 12.5523 7 12C7 11.4477 7.44772 11 8 11C8.55228 11 9 11.4477 9 12Z" fill="#121A26"/>
<path fill-rule="evenodd" clip-rule="evenodd" d="M19 12C19 13.6569 17.6569 15 16 15C14.3431 15 13 13.6569 13 12C13 10.3431 14.3431 9 16 9C17.6569 9 19 10.3431 19 12ZM17 12C17 12.5523 16.5523 13 16 13C15.4477 13 15 12.5523 15 12C15 11.4477 15.4477 11 16 11C16.5523 11 17 11.4477 17 12Z" fill="#121A26"/>
</svg>
