<svg width="24" height="24" viewBox="0 0 24 24" fill="none" xmlns="http://www.w3.org/2000/svg">
<path d="M12 22C17.5228 22 22 17.5228 22 12C22 6.47715 17.5228 2 12 2C6.47715 2 2 6.47715 2 12C2 17.5228 6.47715 22 12 22Z" stroke="#667085" stroke-width="2" stroke-linecap="round" stroke-linejoin="round"/>
<path d="M16 17C16 17 14.6667 15 12 15C9.33333 15 8 17 8 17" stroke="#121A26" stroke-width="2" stroke-linecap="round" stroke-linejoin="round"/>
<path d="M10 10.5C10 11.3284 9.32843 12 8.5 12C7.67157 12 7 11.3284 7 10.5C7 9.67157 7.67157 9 8.5 9C9.32843 9 10 9.67157 10 10.5Z" fill="#121A26"/>
<path d="M17 10.5C17 11.3284 16.3284 12 15.5 12C14.6716 12 14 11.3284 14 10.5C14 9.67157 14.6716 9 15.5 9C16.3284 9 17 9.67157 17 10.5Z" fill="#121A26"/>
</svg>
