<svg width="24" height="24" viewBox="0 0 24 24" fill="none" xmlns="http://www.w3.org/2000/svg">
<path d="M12 22C17.5228 22 22 17.5228 22 12C22 6.47715 17.5228 2 12 2C6.47715 2 2 6.47715 2 12C2 17.5228 6.47715 22 12 22Z" stroke="#667085" stroke-width="2" stroke-linejoin="round"/>
<path d="M6.3418 14C7.16547 16.3304 9.38795 18 12.0004 18C14.6128 18 16.8353 16.3304 17.659 14C17.659 14 14.0004 14.5 12.0004 14.5C10.0004 14.5 6.3418 14 6.3418 14Z" stroke="#121A26" stroke-width="2" stroke-linejoin="round"/>
<path fill-rule="evenodd" clip-rule="evenodd" d="M5 7.78571C5 7.35178 5.37884 7 5.84615 7H9.60465C10.4985 7 11.3582 7.55036 11.5753 8.32916L12.4247 8.32916C12.6418 7.55036 13.5015 7 14.3954 7H18.1538C18.6212 7 19 7.35178 19 7.78571V9.85714C19 11.0406 17.9668 12 16.6923 12H16.0729C14.5873 12 13.2189 11.1812 12.722 9.89963L12.667 9.75773H11.333L11.278 9.89963C10.7811 11.1812 9.41269 12 7.92713 12H7.30769C6.03319 12 5 11.0406 5 9.85714V7.78571Z" fill="#121A26"/>
</svg>
