<svg width="24" height="24" viewBox="0 0 24 24" fill="none" xmlns="http://www.w3.org/2000/svg">
<path d="M16 2.83209C14.7751 2.29689 13.4222 2 12 2C6.47715 2 2 6.47715 2 12C2 17.5228 6.47715 22 12 22C17.5228 22 22 17.5228 22 12C22 11.3151 21.9311 10.6462 21.8 10" stroke="#667085" stroke-width="2" stroke-linecap="round" stroke-linejoin="round"/>
<path d="M7 10C7.5 7.5 9.5 7.5 10 10M14 10C14.5 7.5 16.5 7.5 17 10" stroke="#121A26" stroke-width="2" stroke-linecap="round" stroke-linejoin="round"/>
<path d="M6.3418 14C7.16547 16.3304 9.38795 18 12.0004 18C14.6128 18 16.8353 16.3304 17.659 14C17.659 14 14.0004 14.5 12.0004 14.5C10.0004 14.5 6.3418 14 6.3418 14Z" stroke="#121A26" stroke-width="2" stroke-linecap="round" stroke-linejoin="round"/>
<path d="M19.5 7.99995C20.3284 7.99995 21 7.32837 21 6.49995C21 5.29746 20.036 3.77366 19.6536 3.21648C19.5782 3.10655 19.4218 3.10655 19.3464 3.21648C18.964 3.77366 18 5.29746 18 6.49995C18 7.32837 18.6716 7.99995 19.5 7.99995Z" fill="#121A26"/>
</svg>
