<svg width="24" height="24" viewBox="0 0 24 24" fill="none" xmlns="http://www.w3.org/2000/svg">
<path d="M12 22C17.5228 22 22 17.5228 22 12C22 6.47715 17.5228 2 12 2C6.47715 2 2 6.47715 2 12C2 17.5228 6.47715 22 12 22Z" stroke="#667085" stroke-width="2" stroke-linecap="round" stroke-linejoin="round"/>
<path d="M8.12537 7.5625C10.6254 8.0625 10.6254 10.0625 8.12537 10.5625M15.8754 10.5625C13.3754 10.0625 13.3754 8.0625 15.8754 7.5625M12.0004 18C9.38795 18 7.16547 16.3304 6.3418 14C6.3418 14 10.0004 14.5 12.0004 14.5C14.0004 14.5 17.659 14 17.659 14C16.8353 16.3304 14.6128 18 12.0004 18Z" stroke="black" stroke-width="2" stroke-linecap="round" stroke-linejoin="round"/>
</svg>
