<svg width="24" height="24" viewBox="0 0 24 24" fill="none" xmlns="http://www.w3.org/2000/svg">
<path d="M6.3418 14C7.16547 16.3304 9.38795 18 12.0004 18C14.6128 18 16.8353 16.3304 17.659 14C17.659 14 14.0004 14.5 12.0004 14.5C10.0004 14.5 6.3418 14 6.3418 14Z" stroke="#121A26" stroke-width="2" stroke-linejoin="round"/>
<path d="M10 8.5C10 9.88071 9.32843 11 8.5 11C7.67157 11 7 9.88071 7 8.5C7 7.11929 7.67157 6 8.5 6C9.32843 6 10 7.11929 10 8.5Z" fill="#121A26"/>
<path d="M17 8.5C17 9.88071 16.3284 11 15.5 11C14.6716 11 14 9.88071 14 8.5C14 7.11929 14.6716 6 15.5 6C16.3284 6 17 7.11929 17 8.5Z" fill="#121A26"/>
<path d="M12 22C17.5228 22 22 17.5228 22 12C22 6.47715 17.5228 2 12 2C6.47715 2 2 6.47715 2 12C2 17.5228 6.47715 22 12 22Z" stroke="#667085" stroke-width="2" stroke-linejoin="round"/>
</svg>
