<svg width="24" height="24" viewBox="0 0 24 24" fill="none" xmlns="http://www.w3.org/2000/svg">
<path d="M12 22C17.5228 22 22 17.5228 22 12C22 6.47715 17.5228 2 12 2C6.47715 2 2 6.47715 2 12C2 17.5228 6.47715 22 12 22Z" stroke="#667085" stroke-width="2" stroke-linecap="round" stroke-linejoin="round"/>
<path d="M7 10C7.5 7.5 9.5 7.5 10 10M14 10C14.5 7.5 16.5 7.5 17 10" stroke="#121A26" stroke-width="2" stroke-linecap="round" stroke-linejoin="round"/>
<path d="M11.0984 14.5625C11.1999 14.239 11.5579 14 11.984 14C12.489 14 12.8984 14.3358 12.8984 14.75C12.8984 15.1642 12.489 15.5 11.984 15.5C12.5451 15.5 13 15.8358 13 16.25C13 16.6642 12.5451 17 11.984 17C11.5106 17 11.1128 16.761 11 16.4375" stroke="#121A26" stroke-linecap="round" stroke-linejoin="round"/>
</svg>
