<svg width="24" height="24" viewBox="0 0 24 24" fill="none" xmlns="http://www.w3.org/2000/svg">
<path d="M12 22C17.5228 22 22 17.5228 22 12C22 6.47715 17.5228 2 12 2C6.47715 2 2 6.47715 2 12C2 17.5228 6.47715 22 12 22Z" stroke="#667085" stroke-width="2" stroke-linecap="round" stroke-linejoin="round"/>
<path d="M14.1992 6.81958C15.453 6.7172 17.8082 7.52805 18.9096 8.44127M9.90961 6.81955C8.65587 6.71717 6.30068 7.52802 5.19922 8.44124M12.0005 17C10.0005 17 9.00049 18 9.00049 18" stroke="#121A26" stroke-width="2" stroke-linecap="round" stroke-linejoin="round"/>
<path d="M10 11C10 12.1046 9.32843 13 8.5 13C7.67157 13 7 12.1046 7 11C7 9.89543 7.67157 9 8.5 9C9.32843 9 10 9.89543 10 11Z" fill="#121A26"/>
<path d="M17 11C17 12.1046 16.3284 13 15.5 13C14.6716 13 14 12.1046 14 11C14 9.89543 14.6716 9 15.5 9C16.3284 9 17 9.89543 17 11Z" fill="#121A26"/>
</svg>
