<svg width="24" height="24" viewBox="0 0 24 24" fill="none" xmlns="http://www.w3.org/2000/svg">
<path d="M11.9844 16.5H16.0004M16.0004 16.5H17.0004C17.5527 16.5 18.0004 16.0523 18.0004 15.5V15.5C18.0004 14.9477 17.5527 14.5 17.0004 14.5V14.5C16.4481 14.5 16.0004 14.9477 16.0004 15.5V16.5Z" stroke="#667085" stroke-linecap="round" stroke-linejoin="round"/>
<path d="M7.5 11.2C7.95 8.95 9.75 8.95 10.2 11.2M13.8 11.2C14.25 8.95 16.05 8.95 16.5 11.2M3.5 10.0345L3 2L10 4.22302" stroke="#121A26" stroke-width="2" stroke-linecap="round" stroke-linejoin="round"/>
<path d="M11.0984 15.5625C11.1999 15.239 11.5579 15 11.984 15C12.489 15 12.8984 15.3358 12.8984 15.75C12.8984 16.1642 12.489 16.5 11.984 16.5C12.5451 16.5 13 16.8358 13 17.25C13 17.6642 12.5451 18 11.984 18C11.5106 18 11.1128 17.761 11 17.4375" stroke="#121A26" stroke-linecap="round" stroke-linejoin="round"/>
<path d="M12 22C16.9706 22 21 17.9706 21 13C21 8.02944 16.9706 4 12 4C11.3126 4 10.6432 4.07706 10 4.22302C9.58421 4.31736 9.17935 4.4405 8.78763 4.59022C6.3194 5.53359 4.37288 7.53234 3.5 10.0345C3.17607 10.9631 3 11.961 3 13C3 17.9706 7.02944 22 12 22Z" stroke="#667085" stroke-width="2" stroke-linecap="round" stroke-linejoin="round"/>
</svg>
