<svg width="24" height="24" viewBox="0 0 24 24" fill="none" xmlns="http://www.w3.org/2000/svg">
<path d="M12 22C17.5228 22 22 17.5228 22 12C22 6.47715 17.5228 2 12 2C6.47715 2 2 6.47715 2 12C2 17.5228 6.47715 22 12 22Z" stroke="#667085" stroke-width="2" stroke-linecap="round" stroke-linejoin="round"/>
<path d="M14.2285 7.73755C15.1231 8.62186 17.4485 9.51461 18.8793 9.52304M9.87929 7.73755C8.98468 8.62186 6.65929 9.51461 5.22852 9.52304" stroke="#121A26" stroke-width="2" stroke-linecap="round" stroke-linejoin="round"/>
<path d="M12.5 18.0443C12.3502 18.0168 12.1835 18 12 18C11.8165 18 11.6498 18.0168 11.5 18.0443" stroke="#121A26" stroke-width="2" stroke-linecap="round" stroke-linejoin="round"/>
<path fill-rule="evenodd" clip-rule="evenodd" d="M8.5 15.5C9.88071 15.5 11 14.3807 11 13C11 11.6193 9.88071 10.5 8.5 10.5C7.11929 10.5 6 11.6193 6 13C6 14.3807 7.11929 15.5 8.5 15.5ZM8.72487 13.2071C9.31066 12.6213 9.46895 11.8299 9.07842 11.4393C8.6879 11.0488 7.89644 11.2071 7.31066 11.7929C6.72487 12.3787 6.56658 13.1701 6.9571 13.5606C7.34763 13.9512 8.13908 13.7929 8.72487 13.2071ZM9.5 14.5C9.22386 14.5 9 14.2762 9 14C9 13.7239 9.22386 13.5 9.5 13.5C9.77614 13.5 10 13.7239 10 14C10 14.2762 9.77614 14.5 9.5 14.5Z" fill="#121A26"/>
<path fill-rule="evenodd" clip-rule="evenodd" d="M15.5 15.5C16.8807 15.5 18 14.3807 18 13C18 11.6193 16.8807 10.5 15.5 10.5C14.1193 10.5 13 11.6193 13 13C13 14.3807 14.1193 15.5 15.5 15.5ZM15.7249 13.2071C16.3107 12.6213 16.4689 11.8299 16.0784 11.4393C15.6879 11.0488 14.8964 11.2071 14.3107 11.7929C13.7249 12.3787 13.5666 13.1701 13.9571 13.5606C14.3476 13.9512 15.1391 13.7929 15.7249 13.2071ZM16.5 14.5C16.2239 14.5 16 14.2762 16 14C16 13.7239 16.2239 13.5 16.5 13.5C16.7761 13.5 17 13.7239 17 14C17 14.2762 16.7761 14.5 16.5 14.5Z" fill="#121A26"/>
</svg>
