<svg width="24" height="24" viewBox="0 0 24 24" fill="none" xmlns="http://www.w3.org/2000/svg">
<path d="M12 22C17.5228 22 22 17.5228 22 12C22 6.47715 17.5228 2 12 2C6.47715 2 2 6.47715 2 12C2 17.5228 6.47715 22 12 22Z" stroke="#667085" stroke-width="2" stroke-linejoin="round"/>
<path d="M6.3418 14C7.16547 16.3304 9.38795 18 12.0004 18C14.6128 18 16.8353 16.3304 17.659 14C17.659 14 14.0004 14.5 12.0004 14.5C10.0004 14.5 6.3418 14 6.3418 14Z" stroke="#121A26" stroke-width="2" stroke-linejoin="round"/>
<path d="M5.06146 8.30696C5.51249 7.55327 6.37809 7.34045 7.12596 7.62197C7.24716 7.66759 7.39555 7.61357 7.45901 7.50068C7.84957 6.806 8.64202 6.42049 9.4809 6.69842C10.4059 7.00488 10.8447 7.93878 10.5372 8.81945C10.3011 9.49571 9.46227 10.996 9.08562 11.656C8.9806 11.84 8.74966 11.9241 8.55094 11.8506C7.83815 11.5871 6.23125 10.977 5.61567 10.6107C4.81402 10.1338 4.56417 9.13795 5.06146 8.30696Z" fill="#121A26"/>
<path d="M14.5158 6.69713C15.3458 6.40969 16.1457 6.80306 16.5376 7.49943C16.6011 7.61228 16.7495 7.66628 16.8707 7.62061C17.6164 7.33949 18.4713 7.55356 18.9353 8.30568C19.4469 9.13505 19.1827 10.1325 18.3811 10.6094C17.7655 10.9757 16.1586 11.5858 15.4458 11.8493C15.2471 11.9228 15.0161 11.8387 14.9111 11.6547C14.5345 10.9947 13.6957 9.49442 13.4595 8.81816C13.152 7.93749 13.6007 7.01405 14.5158 6.69713Z" fill="#121A26"/>
</svg>
