<svg width="24" height="24" viewBox="0 0 24 24" fill="none" xmlns="http://www.w3.org/2000/svg">
<path d="M12 22C17.5228 22 22 17.5228 22 12C22 6.47715 17.5228 2 12 2C6.47715 2 2 6.47715 2 12C2 17.5228 6.47715 22 12 22Z" stroke="#667085" stroke-width="2" stroke-linecap="round" stroke-linejoin="round"/>
<path d="M7.5 15C8.15503 16.1652 9.92246 17 12 17C14.0775 17 15.845 16.1652 16.5 15" stroke="#121A26" stroke-width="2" stroke-linecap="round" stroke-linejoin="round"/>
<path fill-rule="evenodd" clip-rule="evenodd" d="M5 8.78571C5 8.35178 5.37884 8 5.84615 8H9.60465C10.4985 8 11.3582 8.55036 11.5753 9.32916L12.4247 9.32916C12.6418 8.55036 13.5015 8 14.3954 8H18.1538C18.6212 8 19 8.35178 19 8.78571V10.8571C19 12.0406 17.9668 13 16.6923 13H16.0729C14.5873 13 13.2189 12.1812 12.722 10.8996L12.667 10.7577H11.333L11.278 10.8996C10.7811 12.1812 9.41269 13 7.92713 13H7.30769C6.03319 13 5 12.0406 5 10.8571V8.78571Z" fill="#121A26"/>
</svg>
