<svg width="24" height="24" viewBox="0 0 24 24" fill="none" xmlns="http://www.w3.org/2000/svg">
<path d="M12 22C17.5228 22 22 17.5228 22 12C22 6.47715 17.5228 2 12 2C6.47715 2 2 6.47715 2 12C2 17.5228 6.47715 22 12 22Z" stroke="#667085" stroke-width="2" stroke-linejoin="round"/>
<path d="M6.3418 14C7.16547 16.3304 9.38795 18 12.0004 18C14.6128 18 16.8353 16.3304 17.659 14C17.659 14 14.0004 14.5 12.0004 14.5C10.0004 14.5 6.3418 14 6.3418 14Z" stroke="#121A26" stroke-width="2" stroke-linejoin="round"/>
<path d="M16.344 6.23102C16.2158 5.92299 15.7794 5.92299 15.6512 6.23102L15.0589 7.65473C15.0052 7.78375 14.8843 7.87223 14.745 7.88434L13.3432 8.00619C13.0215 8.03415 12.8831 8.42832 13.1167 8.65118L14.1815 9.66699C14.2781 9.7591 14.3184 9.89557 14.2874 10.0254L13.9268 11.5368C13.8494 11.8613 14.2025 12.1177 14.4873 11.9439L15.8021 11.141C15.9221 11.0677 16.0731 11.0677 16.1932 11.141L17.5079 11.9439C17.7927 12.1177 18.1458 11.8613 18.0684 11.5368L17.7079 10.0258C17.6769 9.89579 17.7174 9.75906 17.8143 9.66696L18.8828 8.65168C19.1171 8.42902 18.9788 8.0341 18.6567 8.00619L17.2503 7.88429C17.111 7.87222 16.99 7.78372 16.9363 7.65467L16.344 6.23102Z" fill="#121A26"/>
<path d="M7.65122 6.23102C7.77937 5.92299 8.21585 5.92299 8.344 6.23102L8.93628 7.65467C8.98997 7.78372 9.11098 7.87222 9.25027 7.88429L10.6567 8.00619C10.9788 8.0341 11.1171 8.42902 10.8828 8.65168L9.81434 9.66696C9.71742 9.75906 9.67686 9.89579 9.70788 10.0258L10.0684 11.5368C10.1458 11.8613 9.79271 12.1177 9.50793 11.9439L8.19316 11.141C8.07311 11.0677 7.92212 11.0677 7.80206 11.141L6.48729 11.9439C6.20252 12.1177 5.8494 11.8613 5.92683 11.5368L6.28745 10.0254C6.31842 9.89557 6.27808 9.7591 6.18152 9.66699L5.11669 8.65118C4.88309 8.42832 5.02151 8.03415 5.34318 8.00619L6.74502 7.88434C6.88427 7.87223 7.00524 7.78375 7.05892 7.65473L7.65122 6.23102Z" fill="#121A26"/>
</svg>
