<svg width="24" height="24" viewBox="0 0 24 24" fill="none" xmlns="http://www.w3.org/2000/svg">
<path d="M19.7144 10.0239H16.75C13.5833 10.0239 15.526 6.58937 15.1667 4.81681C14.674 2.38616 12.3415 1.31725 10.7455 2.45665C10.5417 2.60216 10.5204 2.88149 10.6393 3.10029C11.4342 4.56375 11.2063 6.12463 10.9444 6.89965C10.4693 8.30611 9.13841 9.29047 8.10749 10.6128C7.89232 10.8888 7.56579 11.0653 7.21286 11.0653H4.08333C4.08333 11.0653 2.5 12.6274 2.5 16.2724C2.5 17.8259 3.25167 19.1941 3.85796 20.0449C4.28445 20.6435 5.0513 20.8502 5.77071 20.6728L8.83333 19.9174C10.4167 21.4793 13.0556 22 15.9806 22" stroke="black" stroke-width="2" stroke-linecap="round" stroke-linejoin="round"/>
<path d="M19.7498 13.547C20.7218 13.5278 21.4997 12.7449 21.4997 11.7856C21.4997 10.8127 20.7002 10.0239 19.714 10.0239L15.077 10.4176C14.232 10.4893 13.583 11.1871 13.583 12.0239C13.583 12.9269 14.3347 13.6539 15.2498 13.6358L16.2219 13.6166M19.7498 13.547H19.9866C20.8223 13.547 21.4997 14.2153 21.4997 15.0398C21.4997 15.8642 20.8223 16.5326 19.9866 16.5326M19.7498 13.547L16.2219 13.6166M19.9866 16.5326H15.5803M19.9866 16.5326C20.6765 16.5326 21.2358 17.2318 21.2358 17.9125C21.2358 18.6745 20.6096 19.2923 19.8372 19.2923H18.6893M15.5803 16.5326C14.7687 16.5326 14.1108 15.8835 14.1108 15.0827C14.1108 14.2961 14.7465 13.653 15.5436 13.6333L16.2219 13.6166M15.5803 16.5326H15.5094C14.737 16.5326 14.1108 17.1504 14.1108 17.9125C14.1108 18.6745 14.737 19.2923 15.5094 19.2923H15.9803M18.6893 19.2923H15.9803M18.6893 19.2923C19.418 19.2923 20.0088 19.9272 20.0088 20.6462C20.0088 21.3652 19.418 22 18.6893 22H15.9803C15.2516 22 14.6608 21.3652 14.6608 20.6462C14.6608 19.9272 15.2516 19.2923 15.9803 19.2923" stroke="#667085" stroke-width="2" stroke-linecap="round" stroke-linejoin="round"/>
</svg>
