<svg width="24" height="24" viewBox="0 0 24 24" fill="none" xmlns="http://www.w3.org/2000/svg">
<path d="M19.7144 13.9761H16.75C13.5833 13.9761 15.526 17.4106 15.1667 19.1832C14.674 21.6138 12.3415 22.6828 10.7455 21.5434C10.5417 21.3978 10.5204 21.1185 10.6393 20.8997C11.4342 19.4363 11.2063 17.8754 10.9444 17.1004C10.4693 15.6939 9.13841 14.7095 8.10749 13.3872C7.89232 13.1112 7.56579 12.9347 7.21286 12.9347H4.08333C4.08333 12.9347 2.5 11.3726 2.5 7.72759C2.5 6.17405 3.25167 4.80591 3.85796 3.95506C4.28445 3.35654 5.0513 3.14979 5.77071 3.32723L8.83333 4.08263C10.4167 2.52071 13.0556 2 15.9806 2" stroke="black" stroke-width="2" stroke-linecap="round" stroke-linejoin="round"/>
<path d="M19.7498 10.453C20.7218 10.4722 21.4997 11.2551 21.4997 12.2144C21.4997 13.1874 20.7002 13.9761 19.714 13.9761L15.077 13.5824C14.232 13.5107 13.583 12.813 13.583 11.9761C13.583 11.0731 14.3347 10.3462 15.2498 10.3642L16.2219 10.3834M19.7498 10.453H19.9866C20.8223 10.453 21.4997 9.78468 21.4997 8.96023C21.4997 8.13579 20.8223 7.46744 19.9866 7.46744M19.7498 10.453L16.2219 10.3834M19.9866 7.46744H15.5803M19.9866 7.46744C20.6765 7.46744 21.2358 6.76822 21.2358 6.08756C21.2358 5.32548 20.6096 4.70769 19.8372 4.70769H18.6893M15.5803 7.46744C14.7687 7.46744 14.1108 8.11656 14.1108 8.91729C14.1108 9.7039 14.7465 10.347 15.5436 10.3667L16.2219 10.3834M15.5803 7.46744H15.5094C14.737 7.46744 14.1108 6.84965 14.1108 6.08756C14.1108 5.32548 14.737 4.70769 15.5094 4.70769H15.9803M18.6893 4.70769H15.9803M18.6893 4.70769C19.418 4.70769 20.0088 4.07285 20.0088 3.35384C20.0088 2.63484 19.418 2 18.6893 2H15.9803C15.2516 2 14.6608 2.63484 14.6608 3.35384C14.6608 4.07285 15.2516 4.70769 15.9803 4.70769" stroke="#667085" stroke-width="2" stroke-linecap="round" stroke-linejoin="round"/>
</svg>
