<svg width="24" height="24" viewBox="0 0 24 24" fill="none" xmlns="http://www.w3.org/2000/svg">
<path d="M12 2C6.47715 2 2 6.47715 2 12C2 17.5228 6.47715 22 12 22C17.5228 22 22 17.5228 22 12C22 6.47715 17.5228 2 12 2Z" stroke="#667085" stroke-width="2" stroke-linecap="round" stroke-linejoin="round"/>
<path d="M16.5 9C15.845 7.25221 14.0775 6 12 6C9.92245 6 8.15503 7.25221 7.5 9" stroke="#121A26" stroke-width="2" stroke-linecap="round" stroke-linejoin="round"/>
<path d="M14 14.5C14 13.6716 14.6716 13 15.5 13C16.3284 13 17 13.6716 17 14.5C17 15.3284 16.3284 16 15.5 16C14.6716 16 14 15.3284 14 14.5Z" fill="#121A26"/>
<path d="M7 14.5C7 13.6716 7.67157 13 8.5 13C9.32843 13 10 13.6716 10 14.5C10 15.3284 9.32843 16 8.5 16C7.67157 16 7 15.3284 7 14.5Z" fill="#121A26"/>
</svg>
