<svg width="24" height="24" viewBox="0 0 24 24" fill="none" xmlns="http://www.w3.org/2000/svg">
<path d="M12 22C17.5228 22 22 17.5228 22 12C22 6.47715 17.5228 2 12 2C6.47715 2 2 6.47715 2 12C2 17.5228 6.47715 22 12 22Z" stroke="#667085" stroke-width="2" stroke-linecap="round" stroke-linejoin="round"/>
<path d="M14 11C14.75 10.5 16.25 10.5 17 11M10.5 15.8844C10.9622 15.9599 11.4605 16 12 16C12.5395 16 13.0378 15.9599 13.5 15.8844M10.5 15.8844C8.88558 15.6209 7.71033 14.9257 6.75 14M10.5 15.8844V17.5C10.5 18.3284 11.1716 19 12 19C12.8284 19 13.5 18.3284 13.5 17.5V15.8844M13.5 15.8844C15.1144 15.6209 16.2897 14.9257 17.25 14" stroke="#121A26" stroke-width="2" stroke-linecap="round" stroke-linejoin="round"/>
<path d="M10 10C10 11.1046 9.32843 12 8.5 12C7.67157 12 7 11.1046 7 10C7 8.89543 7.67157 8 8.5 8C9.32843 8 10 8.89543 10 10Z" fill="#121A26"/>
</svg>
