<svg width="24" height="24" viewBox="0 0 24 24" fill="none" xmlns="http://www.w3.org/2000/svg">
<g clip-path="url(#clip0_4039_6499)">
<path d="M16.9997 20.6602C21.7826 17.8988 23.4214 11.7829 20.66 6.99996C17.8985 2.21703 11.7826 0.578283 6.99972 3.33971C2.21679 6.10113 0.578039 12.217 3.33946 17C6.10089 21.7829 12.2168 23.4216 16.9997 20.6602Z" stroke="#667085" stroke-width="2" stroke-linecap="round" stroke-linejoin="round"/>
<path d="M13.4998 15.7348C13.6645 15.6515 13.8311 15.5614 13.9998 15.464C14.467 15.1942 14.8784 14.9104 15.241 14.6139C16.5074 13.5784 17.1776 12.3888 17.5464 11.1069M13.4998 15.7348C13.2083 15.8822 12.9229 16.008 12.6429 16.1139C11.8927 16.3978 11.182 16.539 10.4998 16.5713M13.4998 15.7348V17.4999C13.4998 18.3283 12.8282 18.9999 11.9998 18.9999C11.1714 18.9999 10.4998 18.3283 10.4998 17.4999V16.5713M10.4998 16.5713C9.7909 16.6049 9.11282 16.5208 8.45312 16.3569" stroke="black" stroke-width="2" stroke-linecap="round" stroke-linejoin="round"/>
<path d="M13.9998 8.73176C14.9563 8.17957 15.284 6.95659 14.7318 6.00017C14.1796 5.04374 12.9566 4.71605 12.0002 5.26824C11.0437 5.82043 10.716 7.04341 11.2682 7.99983C11.8204 8.95626 13.0434 9.28395 13.9998 8.73176Z" fill="black"/>
<path d="M8.79882 11.7501C9.21297 12.4674 8.96719 13.3847 8.24987 13.7988C7.53256 14.213 6.61532 13.9672 6.20118 13.2499C5.78703 12.5326 6.03281 11.6153 6.75013 11.2012C7.46744 10.787 8.38468 11.0328 8.79882 11.7501Z" fill="black"/>
</g>
<defs>
<clipPath id="clip0_4039_6499">
<rect width="24" height="24" fill="white"/>
</clipPath>
</defs>
</svg>
