<svg width="24" height="24" viewBox="0 0 24 24" fill="none" xmlns="http://www.w3.org/2000/svg">
<path d="M3 7C3 9.20914 4.79086 11 7 11C9.20914 11 11 9.20914 11 7C11 4.79086 9.20914 3 7 3C6.27143 3 5.58835 3.19479 5 3.53513M18 14C19.6569 14 21 12.6569 21 11C21 9.34315 19.6569 8 18 8C16.3431 8 15 9.34315 15 11C15 11.3506 15.0602 11.6872 15.1707 12M11 19C11 20.1046 10.1046 21 9 21C7.89543 21 7 20.1046 7 19C7 17.8954 7.89543 17 9 17C10.1046 17 11 17.8954 11 19Z" stroke="black" stroke-width="2" stroke-linecap="round"/>
</svg>
