<svg width="24" height="24" viewBox="0 0 24 24" fill="none" xmlns="http://www.w3.org/2000/svg">
<path d="M5 16V19M5 16C3.89543 16 3 15.1046 3 14V13C3 11.8954 3.89543 11 5 11V8M5 16C6.10457 16 7 15.1046 7 14V13M12 19V21M12 19C10.8954 19 10 18.1046 10 17V16C10 14.8954 10.8954 14 12 14V11M12 19C13.1046 19 14 18.1046 14 17V16M19 11V15M19 11C17.8954 11 17 10.1046 17 9V8C17 6.89543 17.8954 6 19 6V3M19 11C20.1046 11 21 10.1046 21 9V8" stroke="black" stroke-width="2" stroke-linecap="round" stroke-linejoin="round"/>
</svg>
