<svg width="24" height="24" viewBox="0 0 24 24" fill="none" xmlns="http://www.w3.org/2000/svg">
<path d="M3.07089 13C3.02417 13.3266 3 13.6605 3 14C3 17.866 6.13401 21 10 21C11.5735 21 13.0258 20.4808 14.1949 19.6044C14.6368 19.2731 14.6332 18.6332 14.2426 18.2426L10.2929 14.2929C10.1054 14.1054 10 13.851 10 13.5858V8C10 7.44772 9.54998 6.99248 9.00322 7.07043C7.18241 7.33001 5.5874 8.29027 4.5 9.6694M15.5 10H15C14.4477 10 14 9.55228 14 9V4C14 3.44772 14.4503 2.9925 14.997 3.07046C18.0651 3.50798 20.492 5.93489 20.9295 9.00297C21.0075 9.54972 20.5523 10 20 10H19.5M19.6044 17.1949C20.2923 16.2772 20.7602 15.1851 20.9296 13.9968C21.0075 13.45 20.5523 13 20 13H14.6036C14.3808 13 14.2693 13.2693 14.4268 13.4268L18.2426 17.2426C18.6332 17.6332 19.2731 17.6368 19.6044 17.1949Z" stroke="black" stroke-width="2" stroke-linecap="round" stroke-linejoin="round"/>
</svg>
