<svg width="24" height="24" viewBox="0 0 24 24" fill="none" xmlns="http://www.w3.org/2000/svg">
<path d="M3 14C3 17.866 6.13401 21 10 21C13.5275 21 16.4456 18.3908 16.9295 14.997C17.0075 14.4503 16.5523 14 16 14H11C10.4477 14 10 13.5523 10 13V8C10 7.44772 9.54989 6.99249 9.00314 7.07044C7.04018 7.35031 5.33967 8.44453 4.25469 10M15.5 10H15C14.4477 10 14 9.55228 14 9V4C14 3.44772 14.4503 2.9925 14.997 3.07046C18.0651 3.50798 20.492 5.93489 20.9295 9.00297C21.0075 9.54972 20.5523 10 20 10H19.5" stroke="black" stroke-width="2" stroke-linecap="round" stroke-linejoin="round"/>
</svg>
