<svg width="24" height="24" viewBox="0 0 24 24" fill="none" xmlns="http://www.w3.org/2000/svg">
<path d="M17 2C16.4477 2 16 2.44772 16 3C16 3.55228 16.4477 4 17 4V2ZM4 17C4 16.4477 3.55228 16 3 16C2.44772 16 2 16.4477 2 17H4ZM7 8C6.44772 8 6 8.44772 6 9C6 9.55228 6.44772 10 7 10V8ZM15.5 15V16C15.8513 16 16.1768 15.8157 16.3575 15.5145L15.5 15ZM17.8575 13.0145C18.1416 12.5409 17.9881 11.9267 17.5145 11.6425C17.0409 11.3584 16.4267 11.5119 16.1425 11.9855L17.8575 13.0145ZM12.5 14C11.9477 14 11.5 14.4477 11.5 15C11.5 15.5523 11.9477 16 12.5 16V14ZM14.7111 13.4223L15.6056 12.9751V12.9751L14.7111 13.4223ZM13 4C13.5523 4 14 3.55228 14 3C14 2.44772 13.5523 2 13 2V4ZM2 17C2 17.5523 2.44772 18 3 18C3.55228 18 4 17.5523 4 17H2ZM4 14C4 13.4477 3.55228 13 3 13C2.44772 13 2 13.4477 2 14H4ZM2 10C2 10.5523 2.44772 11 3 11C3.55228 11 4 10.5523 4 10H2ZM20 7V17H22V7H20ZM17 20H7V22H17V20ZM7 20C5.34315 20 4 18.6569 4 17H2C2 19.7614 4.23858 22 7 22V20ZM20 17C20 18.6569 18.6569 20 17 20V22C19.7614 22 22 19.7614 22 17H20ZM17 4C18.6569 4 20 5.34315 20 7H22C22 4.23858 19.7614 2 17 2V4ZM7 10H7.55573V8H7V10ZM16.3575 15.5145L17.8575 13.0145L16.1425 11.9855L14.6425 14.4855L16.3575 15.5145ZM15.5 14H12.5V16H15.5V14ZM16.3944 14.5528L15.6056 12.9751L13.8167 13.8695L14.6056 15.4472L16.3944 14.5528ZM7.55573 10C10.2071 10 12.631 11.498 13.8167 13.8695L15.6056 12.9751C14.081 9.92602 10.9647 8 7.55573 8V10ZM7 2C4.23858 2 2 4.23858 2 7H4C4 5.34315 5.34315 4 7 4V2ZM7 4H13V2H7V4ZM4 17V14H2V17H4ZM4 10V7H2V10H4Z" fill="black"/>
</svg>
