<svg width="24" height="24" viewBox="0 0 24 24" fill="none" xmlns="http://www.w3.org/2000/svg">
<path d="M17 2C16.4477 2 16 2.44772 16 3C16 3.55228 16.4477 4 17 4V2ZM4 17C4 16.4477 3.55228 16 3 16C2.44772 16 2 16.4477 2 17H4ZM7.92848 7.62861C7.72336 7.11583 7.14139 6.86641 6.62861 7.07152C6.11583 7.27664 5.86641 7.85861 6.07152 8.37139L7.92848 7.62861ZM8.64981 12.1245L7.72134 12.4959L8.64981 12.1245ZM9.89452 12.7018L9.57829 11.7531H9.57829L9.89452 12.7018ZM14.1055 11.2982L14.4217 12.2469V12.2469L14.1055 11.2982ZM15.3502 11.8755L16.2787 11.5041V11.5041L15.3502 11.8755ZM16.0715 16.3714C16.2766 16.8842 16.8586 17.1336 17.3714 16.9285C17.8842 16.7234 18.1336 16.1414 17.9285 15.6286L16.0715 16.3714ZM13 4C13.5523 4 14 3.55228 14 3C14 2.44772 13.5523 2 13 2V4ZM2 17C2 17.5523 2.44772 18 3 18C3.55228 18 4 17.5523 4 17H2ZM4 14C4 13.4477 3.55228 13 3 13C2.44772 13 2 13.4477 2 14H4ZM2 10C2 10.5523 2.44772 11 3 11C3.55228 11 4 10.5523 4 10H2ZM20 7V17H22V7H20ZM17 20H7V22H17V20ZM7 20C5.34315 20 4 18.6569 4 17H2C2 19.7614 4.23858 22 7 22V20ZM20 17C20 18.6569 18.6569 20 17 20V22C19.7614 22 22 19.7614 22 17H20ZM17 4C18.6569 4 20 5.34315 20 7H22C22 4.23858 19.7614 2 17 2V4ZM6.07152 8.37139L7.72134 12.4959L9.57829 11.7531L7.92848 7.62861L6.07152 8.37139ZM10.2107 13.6505L14.4217 12.2469L13.7893 10.3495L9.57829 11.7531L10.2107 13.6505ZM14.4217 12.2469L16.0715 16.3714L17.9285 15.6286L16.2787 11.5041L14.4217 12.2469ZM14.4217 12.2469V12.2469L16.2787 11.5041C15.8854 10.5209 14.7939 10.0146 13.7893 10.3495L14.4217 12.2469ZM7.72134 12.4959C8.11462 13.4791 9.20614 13.9854 10.2107 13.6505L9.57829 11.7531V11.7531L7.72134 12.4959ZM7 2C4.23858 2 2 4.23858 2 7H4C4 5.34315 5.34315 4 7 4V2ZM7 4H13V2H7V4ZM4 17V14H2V17H4ZM4 10V7H2V10H4Z" fill="black"/>
</svg>
