<svg width="24" height="24" viewBox="0 0 24 24" fill="none" xmlns="http://www.w3.org/2000/svg">
<path d="M17 2C16.4477 2 16 2.44772 16 3C16 3.55228 16.4477 4 17 4V2ZM4 17C4 16.4477 3.55228 16 3 16C2.44772 16 2 16.4477 2 17H4ZM7 14C6.44772 14 6 14.4477 6 15C6 15.5523 6.44772 16 7 16V14ZM15.5 9L16.3575 8.4855C16.1768 8.1843 15.8513 8 15.5 8V9ZM16.1425 12.0145C16.4267 12.4881 17.0409 12.6416 17.5145 12.3575C17.9881 12.0733 18.1416 11.4591 17.8575 10.9855L16.1425 12.0145ZM12.5 8C11.9477 8 11.5 8.44772 11.5 9C11.5 9.55228 11.9477 10 12.5 10V8ZM14.7111 10.5777L15.6056 11.0249V11.0249L14.7111 10.5777ZM13 4C13.5523 4 14 3.55228 14 3C14 2.44772 13.5523 2 13 2V4ZM2 17C2 17.5523 2.44772 18 3 18C3.55228 18 4 17.5523 4 17H2ZM4 14C4 13.4477 3.55228 13 3 13C2.44772 13 2 13.4477 2 14H4ZM2 10C2 10.5523 2.44772 11 3 11C3.55228 11 4 10.5523 4 10H2ZM20 7V17H22V7H20ZM17 20H7V22H17V20ZM7 20C5.34315 20 4 18.6569 4 17H2C2 19.7614 4.23858 22 7 22V20ZM20 17C20 18.6569 18.6569 20 17 20V22C19.7614 22 22 19.7614 22 17H20ZM17 4C18.6569 4 20 5.34315 20 7H22C22 4.23858 19.7614 2 17 2V4ZM7 16H7.55573V14H7V16ZM14.6425 9.5145L16.1425 12.0145L17.8575 10.9855L16.3575 8.4855L14.6425 9.5145ZM15.5 8H12.5V10H15.5V8ZM14.6056 8.55279L13.8167 10.1305L15.6056 11.0249L16.3944 9.44721L14.6056 8.55279ZM7.55573 16C10.9647 16 14.081 14.074 15.6056 11.0249L13.8167 10.1305C12.631 12.502 10.2071 14 7.55573 14V16ZM7 2C4.23858 2 2 4.23858 2 7H4C4 5.34315 5.34315 4 7 4V2ZM7 4H13V2H7V4ZM4 17V14H2V17H4ZM4 10V7H2V10H4Z" fill="black"/>
</svg>
