<svg width="24" height="24" viewBox="0 0 24 24" fill="none" xmlns="http://www.w3.org/2000/svg">
<path d="M17 2C16.4477 2 16 2.44772 16 3C16 3.55228 16.4477 4 17 4V2ZM6.07152 15.6286C5.86641 16.1414 6.11583 16.7234 6.62861 16.9285C7.14139 17.1336 7.72336 16.8842 7.92848 16.3714L6.07152 15.6286ZM8.64981 11.8755L7.72134 11.5041L8.64981 11.8755ZM9.89452 11.2982L9.57829 12.2469H9.57829L9.89452 11.2982ZM14.1055 12.7018L14.4217 11.7531V11.7531L14.1055 12.7018ZM15.3502 12.1245L16.2787 12.4959V12.4959L15.3502 12.1245ZM17.9285 8.37139C18.1336 7.85861 17.8842 7.27664 17.3714 7.07152C16.8586 6.86641 16.2766 7.11583 16.0715 7.62861L17.9285 8.37139ZM13 4C13.5523 4 14 3.55228 14 3C14 2.44772 13.5523 2 13 2V4ZM4 14C4 13.4477 3.55228 13 3 13C2.44772 13 2 13.4477 2 14H4ZM2 10C2 10.5523 2.44772 11 3 11C3.55228 11 4 10.5523 4 10H2ZM20 7V17H22V7H20ZM17 20H7V22H17V20ZM7 20C5.34315 20 4 18.6569 4 17H2C2 19.7614 4.23858 22 7 22V20ZM20 17C20 18.6569 18.6569 20 17 20V22C19.7614 22 22 19.7614 22 17H20ZM17 4C18.6569 4 20 5.34315 20 7H22C22 4.23858 19.7614 2 17 2V4ZM7.92848 16.3714L9.57829 12.2469L7.72134 11.5041L6.07152 15.6286L7.92848 16.3714ZM9.57829 12.2469L13.7893 13.6505L14.4217 11.7531L10.2107 10.3495L9.57829 12.2469ZM16.2787 12.4959L17.9285 8.37139L16.0715 7.62861L14.4217 11.7531L16.2787 12.4959ZM13.7893 13.6505C14.7939 13.9854 15.8854 13.4791 16.2787 12.4959L14.4217 11.7531V11.7531L13.7893 13.6505ZM9.57829 12.2469V12.2469L10.2107 10.3495C9.20614 10.0146 8.11462 10.5209 7.72134 11.5041L9.57829 12.2469ZM7 2C4.23858 2 2 4.23858 2 7H4C4 5.34315 5.34315 4 7 4V2ZM7 4H13V2H7V4ZM4 17V14H2V17H4ZM4 10V7H2V10H4Z" fill="black"/>
</svg>
