<svg width="24" height="24" viewBox="0 0 24 24" fill="none" xmlns="http://www.w3.org/2000/svg">
<path d="M18 14C19.6569 14 21 12.6569 21 11C21 9.34315 19.6569 8 18 8C16.3431 8 15 9.34315 15 11C15 12.6569 16.3431 14 18 14Z" stroke="black" stroke-width="2"/>
<path d="M7 11C9.20914 11 11 9.20914 11 7C11 4.79086 9.20914 3 7 3C4.79086 3 3 4.79086 3 7C3 9.20914 4.79086 11 7 11Z" stroke="#667085" stroke-width="2"/>
<path d="M9 21C10.1046 21 11 20.1046 11 19C11 17.8954 10.1046 17 9 17C7.89543 17 7 17.8954 7 19C7 20.1046 7.89543 21 9 21Z" stroke="#667085" stroke-width="2"/>
</svg>
