<svg width="24" height="24" viewBox="0 0 24 24" fill="none" xmlns="http://www.w3.org/2000/svg">
<path d="M5 16V19M5 11V8M12 19V21M12 14V11M19 11V15M19 6V3" stroke="black" stroke-width="2" stroke-linecap="round"/>
<path d="M3 13C3 11.8954 3.89543 11 5 11C6.10457 11 7 11.8954 7 13V14C7 15.1046 6.10457 16 5 16C3.89543 16 3 15.1046 3 14V13Z" stroke="#667085" stroke-width="2" stroke-linecap="round"/>
<path d="M10 16C10 14.8954 10.8954 14 12 14C13.1046 14 14 14.8954 14 16V17C14 18.1046 13.1046 19 12 19C10.8954 19 10 18.1046 10 17V16Z" stroke="#667085" stroke-width="2" stroke-linecap="round"/>
<path d="M17 8C17 6.89543 17.8954 6 19 6C20.1046 6 21 6.89543 21 8V9C21 10.1046 20.1046 11 19 11C17.8954 11 17 10.1046 17 9V8Z" stroke="#667085" stroke-width="2" stroke-linecap="round"/>
</svg>
