<svg width="24" height="24" viewBox="0 0 24 24" fill="none" xmlns="http://www.w3.org/2000/svg">
<path d="M19 16V19M19 11V8M12 19V21M12 14V11M5 11V15M5 6V3" stroke="black" stroke-width="2" stroke-linecap="round"/>
<path d="M21 13C21 11.8954 20.1046 11 19 11C17.8954 11 17 11.8954 17 13V14C17 15.1046 17.8954 16 19 16C20.1046 16 21 15.1046 21 14V13Z" stroke="#667085" stroke-width="2" stroke-linecap="round"/>
<path d="M14 16C14 14.8954 13.1046 14 12 14C10.8954 14 10 14.8954 10 16V17C10 18.1046 10.8954 19 12 19C13.1046 19 14 18.1046 14 17V16Z" stroke="#667085" stroke-width="2" stroke-linecap="round"/>
<path d="M7 8C7 6.89543 6.10457 6 5 6C3.89543 6 3 6.89543 3 8V9C3 10.1046 3.89543 11 5 11C6.10457 11 7 10.1046 7 9V8Z" stroke="#667085" stroke-width="2" stroke-linecap="round"/>
</svg>
