<svg width="24" height="24" viewBox="0 0 24 24" fill="none" xmlns="http://www.w3.org/2000/svg">
<path d="M15 7H9M6.5 8.93699L5.5 15.063M17.5 8.93699L18.5 15.063" stroke="black" stroke-width="2"/>
<path d="M7 17C7 16.0681 6.36261 15.285 5.5 15.063C5.34019 15.0219 5.17265 15 5 15C3.89543 15 3 15.8954 3 17C3 18.1046 3.89543 19 5 19C6.10457 19 7 18.1046 7 17Z" stroke="#667085" stroke-width="2"/>
<path d="M21 17C21 15.8954 20.1046 15 19 15C18.8274 15 18.6598 15.0219 18.5 15.063C17.6374 15.285 17 16.0681 17 17C17 18.1046 17.8954 19 19 19C20.1046 19 21 18.1046 21 17Z" stroke="#667085" stroke-width="2"/>
<path d="M19 7C19 5.89543 18.1046 5 17 5C15.8954 5 15 5.89543 15 7C15 8.10457 15.8954 9 17 9C17.1726 9 17.3402 8.97812 17.5 8.93699C18.3626 8.71497 19 7.93192 19 7Z" stroke="#667085" stroke-width="2"/>
<path d="M9 7C9 5.89543 8.10457 5 7 5C5.89543 5 5 5.89543 5 7C5 7.93192 5.63739 8.71497 6.5 8.93699C6.65981 8.97812 6.82735 9 7 9C8.10457 9 9 8.10457 9 7Z" stroke="#667085" stroke-width="2"/>
</svg>
