<svg width="24" height="24" viewBox="0 0 24 24" fill="none" xmlns="http://www.w3.org/2000/svg">
<path d="M18.1053 15.2108L15.8945 10.7893M8.10529 13.2108L5.89453 8.78931M13.5644 10.3926L10.4354 13.6075" stroke="black" stroke-width="2" stroke-linecap="round"/>
<path d="M19 19C17.8954 19 17 18.1046 17 17C17 16.217 17.4499 15.5391 18.1054 15.2108C18.3746 15.0759 18.6784 15 19 15C20.1046 15 21 15.8954 21 17C21 18.1046 20.1046 19 19 19Z" stroke="#667085" stroke-width="2"/>
<path d="M15 7C16.1046 7 17 7.89543 17 9C17 9.78299 16.5501 10.4609 15.8946 10.7892C15.6254 10.9241 15.3216 11 15 11C14.4368 11 13.9279 10.7672 13.5645 10.3926C13.2151 10.0325 13 9.54135 13 9C13 7.89543 13.8954 7 15 7Z" stroke="#667085" stroke-width="2"/>
<path d="M5 9C3.89543 9 3 8.10457 3 7C3 5.89543 3.89543 5 5 5C6.10457 5 7 5.89543 7 7C7 7.78299 6.55006 8.46089 5.89462 8.78925C5.62543 8.9241 5.32158 9 5 9Z" stroke="#667085" stroke-width="2"/>
<path d="M9 17C7.89543 17 7 16.1046 7 15C7 14.217 7.44994 13.5391 8.10538 13.2108C8.37457 13.0759 8.67842 13 9 13C9.56321 13 10.0721 13.2328 10.4355 13.6074C10.7849 13.9675 11 14.4586 11 15C11 16.1046 10.1046 17 9 17Z" stroke="#667085" stroke-width="2"/>
</svg>
