<svg width="24" height="24" viewBox="0 0 24 24" fill="none" xmlns="http://www.w3.org/2000/svg">
<path d="M13.9312 11C13.8942 11.3252 13.875 11.6593 13.875 12C13.875 15.3137 15.6938 18 17.9375 18C20.1812 18 22 15.3137 22 12C22 8.68629 20.1812 6 17.9375 6C17.1069 6 16.3345 6.36815 15.6911 7M2.05617 11C2.01923 11.3252 2 11.6593 2 12C2 15.3137 3.81884 18 6.0625 18C8.30616 18 10.125 15.3137 10.125 12C10.125 8.68629 8.30616 6 6.0625 6C5.2319 6 4.45951 6.36815 3.81608 7" stroke="black" stroke-width="2" stroke-linecap="round"/>
</svg>
