<svg width="24" height="24" viewBox="0 0 24 24" fill="none" xmlns="http://www.w3.org/2000/svg">
<path d="M5.44352 10.858C5.53771 11.4022 6.05522 11.767 6.59942 11.6728C7.14361 11.5787 7.50841 11.0611 7.41422 10.517L5.44352 10.858ZM10.5931 10.6875L9.59679 10.6013L10.5931 10.6875ZM6.42887 15.5L5.42887 15.5C5.42888 16.0523 5.87659 16.5 6.42887 16.5V15.5ZM10.5931 16.5C11.1453 16.5 11.5931 16.0523 11.5931 15.5C11.5931 14.9477 11.1453 14.5 10.5931 14.5V16.5ZM17.0208 2.87868L16.3137 3.58579V3.58579L17.0208 2.87868ZM21.1213 6.97918L21.8284 6.27208L21.1213 6.97918ZM6.97918 21.1213L6.27208 21.8284L6.97918 21.1213ZM2.87868 17.0208L3.58579 16.3137H3.58579L2.87868 17.0208ZM2.87868 6.97918L2.17157 6.27208H2.17157L2.87868 6.97918ZM6.97918 2.87868L6.27208 2.17157V2.17157L6.97918 2.87868ZM4.07538 7.1967C4.4659 6.80617 4.4659 6.17301 4.07538 5.78249C3.68485 5.39196 3.05169 5.39196 2.66117 5.78249L4.07538 7.1967ZM5.78249 2.66117C5.39196 3.05169 5.39196 3.68485 5.78249 4.07538C6.17301 4.4659 6.80617 4.4659 7.1967 4.07538L5.78249 2.66117ZM14 21C13.4477 21 13 21.4477 13 22C13 22.5523 13.4477 23 14 23V21ZM10 23C10.5523 23 11 22.5523 11 22C11 21.4477 10.5523 21 10 21V23ZM7.41422 10.517C7.33278 10.0464 7.64857 9.5 8.51097 9.5V7.5C6.66659 7.5 5.1085 8.92235 5.44352 10.858L7.41422 10.517ZM8.51097 9.5C9.17956 9.5 9.64188 10.0802 9.59679 10.6013L11.5893 10.7737C11.7365 9.07318 10.3409 7.5 8.51097 7.5V9.5ZM9.59679 10.6013C9.57321 10.8739 9.46467 11.0525 9.22447 11.2474C8.92846 11.4876 8.54467 11.6671 7.97726 11.9575C7.46985 12.2172 6.82156 12.5659 6.31424 13.1174C5.76868 13.7106 5.42887 14.4861 5.42887 15.5L7.42887 15.5C7.42887 14.9827 7.58355 14.6918 7.78624 14.4714C8.02717 14.2095 8.38089 13.9976 8.88851 13.7378C9.33612 13.5087 9.98037 13.2097 10.4847 12.8004C11.0448 12.3459 11.5088 11.7043 11.5893 10.7737L9.59679 10.6013ZM6.42887 16.5H10.5931V14.5H6.42887V16.5ZM16.5999 12C16.5999 12.7865 16.3751 13.4556 16.0631 13.9014C15.7488 14.3504 15.4106 14.5 15.1499 14.5V16.5C16.2423 16.5 17.1291 15.8661 17.7015 15.0483C18.2762 14.2274 18.5999 13.1465 18.5999 12H16.5999ZM15.1499 14.5C14.8892 14.5 14.551 14.3504 14.2367 13.9014C13.9247 13.4556 13.6999 12.7865 13.6999 12H11.6999C11.6999 13.1465 12.0236 14.2274 12.5983 15.0483C13.1707 15.8661 14.0575 16.5 15.1499 16.5V14.5ZM13.6999 12C13.6999 11.2135 13.9247 10.5444 14.2367 10.0986C14.551 9.64964 14.8892 9.5 15.1499 9.5V7.5C14.0575 7.5 13.1707 8.13387 12.5983 8.95166C12.0236 9.77262 11.6999 10.8535 11.6999 12H13.6999ZM15.1499 9.5C15.4106 9.5 15.7488 9.64964 16.0631 10.0986C16.3751 10.5444 16.5999 11.2135 16.5999 12H18.5999C18.5999 10.8535 18.2762 9.77262 17.7015 8.95166C17.1291 8.13387 16.2423 7.5 15.1499 7.5V9.5ZM9.1005 3H14.8995V1H9.1005V3ZM16.3137 3.58579L20.4142 7.68629L21.8284 6.27208L17.7279 2.17157L16.3137 3.58579ZM21 9.1005V14.8995H23V9.1005H21ZM20.4142 16.3137L16.3137 20.4142L17.7279 21.8284L21.8284 17.7279L20.4142 16.3137ZM7.68629 20.4142L3.58579 16.3137L2.17157 17.7279L6.27208 21.8284L7.68629 20.4142ZM3 14.8995V9.1005H1V14.8995H3ZM3 9.1005C3 8.57007 3.21071 8.06136 3.58579 7.68629L2.17157 6.27208C1.42143 7.02222 1 8.03964 1 9.1005H3ZM3.58579 16.3137C3.21071 15.9386 3 15.4299 3 14.8995H1C1 15.9604 1.42143 16.9778 2.17157 17.7279L3.58579 16.3137ZM9.1005 21C8.57007 21 8.06136 20.7893 7.68629 20.4142L6.27208 21.8284C7.02222 22.5786 8.03964 23 9.1005 23V21ZM16.3137 20.4142C15.9386 20.7893 15.4299 21 14.8995 21V23C15.9604 23 16.9778 22.5786 17.7279 21.8284L16.3137 20.4142ZM21 14.8995C21 15.4299 20.7893 15.9386 20.4142 16.3137L21.8284 17.7279C22.5786 16.9778 23 15.9604 23 14.8995H21ZM20.4142 7.68629C20.7893 8.06136 21 8.57007 21 9.1005H23C23 8.03964 22.5786 7.02222 21.8284 6.27208L20.4142 7.68629ZM14.8995 3C15.4299 3 15.9386 3.21071 16.3137 3.58579L17.7279 2.17157C16.9778 1.42143 15.9604 1 14.8995 1V3ZM9.1005 1C8.03964 1 7.02222 1.42143 6.27208 2.17157L7.68629 3.58579C8.06136 3.21071 8.57007 3 9.1005 3V1ZM3.58579 7.68629L4.07538 7.1967L2.66117 5.78249L2.17157 6.27208L3.58579 7.68629ZM7.1967 4.07538L7.68629 3.58579L6.27208 2.17157L5.78249 2.66117L7.1967 4.07538ZM14.8995 21H14V23H14.8995V21ZM10 21H9.1005V23H10V21Z" fill="black"/>
</svg>
