<svg width="24" height="24" viewBox="0 0 24 24" fill="none" xmlns="http://www.w3.org/2000/svg">
<path d="M2.83209 8C2.2969 9.22492 2 10.5778 2 12C2 17.5228 6.47715 22 12 22C13.0452 22 14.053 21.8396 15 21.5422M5.5 4.40041C7.24803 2.9039 9.51846 2 12 2C17.5228 2 22 6.47715 22 12C22 14.9867 20.6906 17.6676 18.6146 19.5M17.5999 12C17.5999 13.933 16.5813 15.5 15.3249 15.5C14.0685 15.5 13.0499 13.933 13.0499 12C13.0499 10.067 14.0685 8.5 15.3249 8.5C16.5813 8.5 17.5999 10.067 17.5999 12ZM10.9499 12C10.9499 13.933 9.93135 15.5 8.6749 15.5C7.41845 15.5 6.3999 13.933 6.3999 12C6.3999 10.067 7.41845 8.5 8.6749 8.5C9.93135 8.5 10.9499 10.067 10.9499 12Z" stroke="black" stroke-width="2" stroke-linecap="round" stroke-linejoin="round"/>
</svg>
