<svg width="24" height="24" viewBox="0 0 24 24" fill="none" xmlns="http://www.w3.org/2000/svg">
<path d="M5.75 12C7.61396 12 9.125 10.6569 9.125 9C9.125 7.34315 7.61396 6 5.75 6C3.88604 6 2.375 7.34315 2.375 9C2.375 10.6569 3.88604 12 5.75 12ZM5.75 12C3.67893 12 2 13.3431 2 15C2 16.6569 3.67893 18 5.75 18C6.18829 18 6.60903 17.9398 7 17.8293M5.75 12C7.82107 12 9.5 13.3431 9.5 15M13.3105 11C13.2707 11.3252 13.25 11.6593 13.25 12C13.25 15.3137 15.2088 18 17.625 18C20.0412 18 22 15.3137 22 12C22 8.68629 20.0412 6 17.625 6C16.6401 6 15.7312 6.44633 15 7.19956" stroke="black" stroke-width="2" stroke-linecap="round" stroke-linejoin="round"/>
</svg>
