<svg width="24" height="24" viewBox="0 0 24 24" fill="none" xmlns="http://www.w3.org/2000/svg">
<path d="M2 16.4066C2.74653 17.3704 3.97988 18 5.375 18C5.76501 18 6.14238 17.9508 6.5 17.8588M8.75 6H2.75L2 12.0934C2.74653 11.1296 3.97988 10.5 5.375 10.5C7.65318 10.5 9.5 12.1789 9.5 14.25C9.5 14.5068 9.4716 14.7577 9.41749 15M13.3105 11C13.2707 11.3252 13.25 11.6593 13.25 12C13.25 15.3137 15.2088 18 17.625 18C20.0412 18 22 15.3137 22 12C22 8.68629 20.0412 6 17.625 6C16.6401 6 15.7312 6.44633 15 7.19956" stroke="black" stroke-width="2" stroke-linecap="round" stroke-linejoin="round"/>
</svg>
