<svg width="24" height="24" viewBox="0 0 24 24" fill="none" xmlns="http://www.w3.org/2000/svg">
<path d="M9.25 15.9222C9.84722 16.7253 10.8339 17.25 11.95 17.25C13.7725 17.25 15.25 15.8509 15.25 14.125C15.25 12.3991 13.7725 11 11.95 11C10.8339 11 9.84722 11.5247 9.25 12.3278L9.85 7.25H14.65M2.83209 8C2.2969 9.22492 2 10.5778 2 12C2 17.5228 6.47715 22 12 22C13.0452 22 14.053 21.8396 15 21.5422M5.5 4.40041C7.24803 2.9039 9.51846 2 12 2C17.5228 2 22 6.47715 22 12C22 14.9867 20.6906 17.6676 18.6146 19.5" stroke="black" stroke-width="2" stroke-linecap="round" stroke-linejoin="round"/>
</svg>
