<svg width="24" height="24" viewBox="0 0 24 24" fill="none" xmlns="http://www.w3.org/2000/svg">
<path d="M6.3999 14.7831C6.81796 15.3453 7.50864 15.7126 8.2899 15.7126C9.56568 15.7126 10.5999 14.7332 10.5999 13.5251C10.5999 12.317 9.56568 11.3376 8.2899 11.3376C7.50864 11.3376 6.81796 11.7049 6.3999 12.2671L6.8199 8.7126H10.1799M3.36827 6.48959L2.87868 6.97918C2.31607 7.54179 2 8.30485 2 9.1005V14.8995C2 15.6951 2.31607 16.4582 2.87868 17.0208L6.97918 21.1213C7.54179 21.6839 8.30485 22 9.1005 22H10M6.48959 3.36827L6.97918 2.87868C7.54179 2.31607 8.30486 2 9.1005 2H14.8995C15.6951 2 16.4582 2.31607 17.0208 2.87868L21.1213 6.97918C21.6839 7.54179 22 8.30486 22 9.1005V14.8995C22 15.6951 21.6839 16.4582 21.1213 17.0208L17.0208 21.1213C16.4582 21.6839 15.6951 22 14.8995 22H14M17.5999 12.0376C17.5999 13.9706 16.503 15.5376 15.1499 15.5376C13.7968 15.5376 12.6999 13.9706 12.6999 12.0376C12.6999 10.1046 13.7968 8.5376 15.1499 8.5376C16.503 8.5376 17.5999 10.1046 17.5999 12.0376Z" stroke="black" stroke-width="2" stroke-linecap="round" stroke-linejoin="round"/>
</svg>
