<svg width="24" height="24" viewBox="0 0 24 24" fill="none" xmlns="http://www.w3.org/2000/svg">
<path d="M3.36827 6.48959L2.87868 6.97918C2.31607 7.54179 2 8.30485 2 9.1005V14.8995C2 15.6951 2.31607 16.4582 2.87868 17.0208L6.97918 21.1213C7.54179 21.6839 8.30485 22 9.1005 22H10M6.48959 3.36827L6.97918 2.87868C7.54179 2.31607 8.30486 2 9.1005 2H14.8995C15.6951 2 16.4582 2.31607 17.0208 2.87868L21.1213 6.97918C21.6839 7.54179 22 8.30486 22 9.1005V14.8995C22 15.6951 21.6839 16.4582 21.1213 17.0208L17.0208 21.1213C16.4582 21.6839 15.6951 22 14.8995 22H14M17.5999 12C17.5999 13.933 16.5814 15.5 15.3249 15.5C14.0685 15.5 13.0499 13.933 13.0499 12C13.0499 10.067 14.0685 8.5 15.3249 8.5C16.5814 8.5 17.5999 10.067 17.5999 12ZM10.9499 12C10.9499 13.933 9.93135 15.5 8.6749 15.5C7.41845 15.5 6.3999 13.933 6.3999 12C6.3999 10.067 7.41845 8.5 8.6749 8.5C9.93135 8.5 10.9499 10.067 10.9499 12Z" stroke="black" stroke-width="2" stroke-linecap="round" stroke-linejoin="round"/>
</svg>
