<svg width="24" height="24" viewBox="0 0 24 24" fill="none" xmlns="http://www.w3.org/2000/svg">
<path d="M5.44352 10.858C5.53771 11.4022 6.05522 11.767 6.59942 11.6728C7.14361 11.5787 7.50841 11.0611 7.41422 10.517L5.44352 10.858ZM10.5931 10.6875L9.59679 10.6013L10.5931 10.6875ZM6.42887 15.5L5.42887 15.5C5.42888 16.0523 5.87659 16.5 6.42887 16.5V15.5ZM10.5931 16.5C11.1454 16.5 11.5931 16.0523 11.5931 15.5C11.5931 14.9477 11.1454 14.5 10.5931 14.5V16.5ZM3.74844 8.40037C3.96956 7.89428 3.73855 7.30477 3.23246 7.08365C2.72637 6.86253 2.13685 7.09354 1.91573 7.59963L3.74844 8.40037ZM4.84966 3.64077C4.43012 3.99995 4.38118 4.63122 4.74036 5.05076C5.09953 5.47029 5.7308 5.51923 6.15034 5.16006L4.84966 3.64077ZM15.2997 22.4962C15.8266 22.3308 16.1195 21.7695 15.954 21.2425C15.7886 20.7156 15.2273 20.4227 14.7003 20.5881L15.2997 22.4962ZM17.9528 18.7503C17.5388 19.1157 17.4994 19.7477 17.8648 20.1617C18.2303 20.5758 18.8622 20.6152 19.2763 20.2497L17.9528 18.7503ZM7.41422 10.517C7.33278 10.0464 7.64857 9.5 8.51097 9.5V7.5C6.66659 7.5 5.1085 8.92235 5.44352 10.858L7.41422 10.517ZM8.51097 9.5C9.17956 9.5 9.64188 10.0802 9.59679 10.6013L11.5893 10.7737C11.7365 9.07318 10.3409 7.5 8.51097 7.5V9.5ZM9.59679 10.6013C9.57321 10.8739 9.46467 11.0525 9.22447 11.2474C8.92846 11.4876 8.54467 11.6671 7.97726 11.9575C7.46985 12.2172 6.82156 12.5659 6.31424 13.1174C5.76868 13.7106 5.42887 14.4861 5.42887 15.5L7.42887 15.5C7.42887 14.9827 7.58355 14.6918 7.78624 14.4714C8.02717 14.2095 8.38089 13.9976 8.88851 13.7378C9.33612 13.5087 9.98037 13.2097 10.4847 12.8004C11.0448 12.3459 11.5088 11.7043 11.5893 10.7737L9.59679 10.6013ZM6.42887 16.5H10.5931V14.5H6.42887V16.5ZM16.5999 12C16.5999 12.7865 16.3751 13.4556 16.0631 13.9014C15.7488 14.3504 15.4106 14.5 15.1499 14.5V16.5C16.2423 16.5 17.1291 15.8661 17.7015 15.0483C18.2762 14.2274 18.5999 13.1465 18.5999 12H16.5999ZM15.1499 14.5C14.8892 14.5 14.551 14.3504 14.2367 13.9014C13.9247 13.4556 13.6999 12.7865 13.6999 12H11.6999C11.6999 13.1465 12.0236 14.2274 12.5983 15.0483C13.1707 15.8661 14.0575 16.5 15.1499 16.5V14.5ZM13.6999 12C13.6999 11.2135 13.9247 10.5444 14.2367 10.0986C14.551 9.64964 14.8892 9.5 15.1499 9.5V7.5C14.0575 7.5 13.1707 8.13387 12.5983 8.95166C12.0236 9.77262 11.6999 10.8535 11.6999 12H13.6999ZM15.1499 9.5C15.4106 9.5 15.7488 9.64964 16.0631 10.0986C16.3751 10.5444 16.5999 11.2135 16.5999 12H18.5999C18.5999 10.8535 18.2762 9.77262 17.7015 8.95166C17.1291 8.13387 16.2423 7.5 15.1499 7.5V9.5ZM12 21C7.02944 21 3 16.9706 3 12H1C1 18.0751 5.92487 23 12 23V21ZM12 3C16.9706 3 21 7.02944 21 12H23C23 5.92487 18.0751 1 12 1V3ZM1.91573 7.59963C1.32642 8.94843 1 10.4374 1 12H3C3 10.7182 3.26737 9.50141 3.74844 8.40037L1.91573 7.59963ZM12 1C9.27108 1 6.77201 1.99501 4.84966 3.64077L6.15034 5.16006C7.72404 3.81279 9.76583 3 12 3V1ZM14.7003 20.5881C13.8492 20.8555 12.9424 21 12 21V23C13.148 23 14.2568 22.8238 15.2997 22.4962L14.7003 20.5881ZM21 12C21 14.6879 19.8229 17.0997 17.9528 18.7503L19.2763 20.2497C21.5583 18.2356 23 15.2855 23 12H21Z" fill="black"/>
</svg>
