<svg width="24" height="24" viewBox="0 0 24 24" fill="none" xmlns="http://www.w3.org/2000/svg">
<path d="M6.3999 14.7831C6.81796 15.3453 7.50864 15.7126 8.2899 15.7126C9.56568 15.7126 10.5999 14.7332 10.5999 13.5251C10.5999 12.317 9.56568 11.3376 8.2899 11.3376C7.50864 11.3376 6.81796 11.7049 6.3999 12.2671L6.8199 8.7126H10.1799M2.83209 8C2.2969 9.22492 2 10.5778 2 12C2 17.5228 6.47715 22 12 22C13.0452 22 14.053 21.8396 15 21.5422M5.5 4.40041C7.24803 2.9039 9.51846 2 12 2C17.5228 2 22 6.47715 22 12C22 14.9867 20.6906 17.6676 18.6146 19.5M17.5999 12.0376C17.5999 13.9706 16.503 15.5376 15.1499 15.5376C13.7968 15.5376 12.6999 13.9706 12.6999 12.0376C12.6999 10.1046 13.7968 8.5376 15.1499 8.5376C16.503 8.5376 17.5999 10.1046 17.5999 12.0376Z" stroke="black" stroke-width="2" stroke-linecap="round" stroke-linejoin="round"/>
</svg>
