<svg width="24" height="24" viewBox="0 0 24 24" fill="none" xmlns="http://www.w3.org/2000/svg">
<path d="M9.5 15C9.5 13.3431 7.7942 12 5.68998 12C7.58378 12 9.119 10.6569 9.119 9C9.119 7.34315 7.58378 6 5.68998 6C4.0922 6 2.74966 6.95608 2.369 8.25M2 15.75C2.42295 17.0439 3.91467 18 5.68998 18C6.15028 18 6.59152 17.9357 7 17.818M13.3105 11C13.2707 11.3252 13.25 11.6593 13.25 12C13.25 15.3137 15.2088 18 17.625 18C20.0412 18 22 15.3137 22 12C22 8.68629 20.0412 6 17.625 6C16.6401 6 15.7312 6.44633 15 7.19956" stroke="black" stroke-width="2" stroke-linecap="round" stroke-linejoin="round"/>
</svg>
