<svg width="24" height="24" viewBox="0 0 24 24" fill="none" xmlns="http://www.w3.org/2000/svg">
<path d="M1.0676 9.92743C1.16559 10.471 1.68564 10.8321 2.22917 10.7341C2.77269 10.6361 3.13386 10.1161 3.03587 9.57257L1.0676 9.92743ZM9.4878 9.75L8.49183 9.66023L9.4878 9.75ZM2.05174 18L1.05174 18C1.05174 18.5523 1.49945 19 2.05174 19V18ZM9.48779 19C10.0401 19 10.4878 18.5523 10.4878 18C10.4878 17.4477 10.0401 17 9.48779 17V19ZM8.237 10.5034C7.96275 10.9828 8.12904 11.5937 8.60842 11.868C9.0878 12.1422 9.69874 11.976 9.97299 11.4966L8.237 10.5034ZM6.43635 14.1728C6.93329 13.9318 7.14077 13.3336 6.89978 12.8367C6.65878 12.3397 6.06058 12.1323 5.56365 12.3732L6.43635 14.1728ZM14.3031 11.1214C14.3702 10.5732 13.9801 10.0745 13.4319 10.0074C12.8837 9.94034 12.385 10.3304 12.3179 10.8786L14.3031 11.1214ZM14.2825 6.50302C13.8978 6.8993 13.9072 7.53239 14.3035 7.91708C14.6997 8.30177 15.3328 8.29237 15.7175 7.8961L14.2825 6.50302ZM3.03587 9.57257C2.90942 8.87119 3.12439 8.26027 3.57515 7.80564C4.0368 7.34001 4.79121 7 5.76976 7V5C4.33155 5 3.04102 5.50374 2.15489 6.39749C1.25786 7.30223 0.822203 8.56631 1.0676 9.92743L3.03587 9.57257ZM5.76976 7C7.46287 7 8.60633 8.38995 8.49183 9.66023L10.4838 9.83977C10.7125 7.30149 8.53837 5 5.76976 5V7ZM2.05174 19H9.48779V17H2.05174V19ZM21 12C21 13.4679 20.5648 14.7563 19.9106 15.6535C19.2558 16.5515 18.4355 17 17.625 17V19C19.2307 19 20.598 18.1054 21.5266 16.8318C22.4559 15.5574 23 13.8458 23 12H21ZM17.625 17C16.8145 17 15.9942 16.5515 15.3394 15.6535C14.6852 14.7563 14.25 13.4679 14.25 12H12.25C12.25 13.8458 12.7941 15.5574 13.7234 16.8318C14.652 18.1054 16.0193 19 17.625 19V17ZM17.625 7C18.4355 7 19.2558 7.44853 19.9106 8.34653C20.5648 9.24368 21 10.5321 21 12H23C23 10.1542 22.4559 8.44262 21.5266 7.16819C20.598 5.89461 19.2307 5 17.625 5V7ZM8.49183 9.66023C8.46097 10.0027 8.3683 10.2739 8.237 10.5034L9.97299 11.4966C10.2505 11.0115 10.4277 10.4618 10.4838 9.83977L8.49183 9.66023ZM5.56365 12.3732C4.62598 12.828 3.48797 13.3726 2.6088 14.2149C1.67568 15.1089 1.05172 16.3133 1.05174 18L3.05174 18C3.05173 16.8832 3.4349 16.1932 3.99242 15.659C4.60389 15.0732 5.44002 14.656 6.43635 14.1728L5.56365 12.3732ZM14.25 12C14.25 11.6998 14.2682 11.4062 14.3031 11.1214L12.3179 10.8786C12.2732 11.2442 12.25 11.6188 12.25 12H14.25ZM15.7175 7.8961C16.298 7.29816 16.96 7 17.625 7V5C16.3202 5 15.1644 5.59451 14.2825 6.50302L15.7175 7.8961Z" fill="black"/>
</svg>
