<svg width="24" height="24" viewBox="0 0 24 24" fill="none" xmlns="http://www.w3.org/2000/svg">
<path d="M9 13.875C9 15.6009 10.3431 17 12 17C13.6569 17 15 15.6009 15 13.875C15 12.1491 13.6569 10.75 12 10.75C10.3431 10.75 9 12.1491 9 13.875ZM9 13.875V10.75C9 8.25 10.4208 7 12 7C12.9 7 13.95 7.4375 14.55 8.5625M3.36827 6.48959L2.87868 6.97918C2.31607 7.54179 2 8.30485 2 9.1005V14.8995C2 15.6951 2.31607 16.4582 2.87868 17.0208L6.97918 21.1213C7.54179 21.6839 8.30485 22 9.1005 22H10M6.48959 3.36827L6.97918 2.87868C7.54179 2.31607 8.30486 2 9.1005 2H14.8995C15.6951 2 16.4582 2.31607 17.0208 2.87868L21.1213 6.97918C21.6839 7.54179 22 8.30486 22 9.1005V14.8995C22 15.6951 21.6839 16.4582 21.1213 17.0208L17.0208 21.1213C16.4582 21.6839 15.6951 22 14.8995 22H14" stroke="black" stroke-width="2" stroke-linecap="round" stroke-linejoin="round"/>
</svg>
