<svg width="24" height="24" viewBox="0 0 24 24" fill="none" xmlns="http://www.w3.org/2000/svg">
<path d="M9.19995 15.5V8.87735C9.19995 8.54184 8.82295 8.37382 8.60246 8.61106L7.44995 9.85113M3.36827 6.48959L2.87868 6.97918C2.31607 7.54179 2 8.30485 2 9.1005V14.8995C2 15.6951 2.31607 16.4582 2.87868 17.0208L6.97918 21.1213C7.54179 21.6839 8.30485 22 9.1005 22H10M6.48959 3.36827L6.97918 2.87868C7.54179 2.31607 8.30486 2 9.1005 2H14.8995C15.6951 2 16.4582 2.31607 17.0208 2.87868L21.1213 6.97918C21.6839 7.54179 22 8.30486 22 9.1005V14.8995C22 15.6951 21.6839 16.4582 21.1213 17.0208L17.0208 21.1213C16.4582 21.6839 15.6951 22 14.8995 22H14M16.55 12C16.55 13.933 15.453 15.5 14.1 15.5C12.7469 15.5 11.65 13.933 11.65 12C11.65 10.067 12.7469 8.5 14.1 8.5C15.453 8.5 16.55 10.067 16.55 12Z" stroke="black" stroke-width="2" stroke-linecap="round"/>
</svg>
