<svg width="24" height="24" viewBox="0 0 24 24" fill="none" xmlns="http://www.w3.org/2000/svg">
<path d="M9.19995 15.5V8.87735C9.19995 8.54184 8.82295 8.37382 8.60246 8.61106L7.44995 9.85113M2.83209 8C2.2969 9.22492 2 10.5778 2 12C2 17.5228 6.47715 22 12 22C13.0452 22 14.053 21.8396 15 21.5422M5.5 4.40041C7.24803 2.9039 9.51846 2 12 2C17.5228 2 22 6.47715 22 12C22 14.9867 20.6906 17.6676 18.6146 19.5M16.55 12C16.55 13.933 15.453 15.5 14.1 15.5C12.7469 15.5 11.65 13.933 11.65 12C11.65 10.067 12.7469 8.5 14.1 8.5C15.453 8.5 16.55 10.067 16.55 12Z" stroke="black" stroke-width="2" stroke-linecap="round"/>
</svg>
