<svg width="24" height="24" viewBox="0 0 24 24" fill="none" xmlns="http://www.w3.org/2000/svg">
<path d="M9.2952 8.875C9.59972 7.79673 10.6738 7 11.952 7C13.467 7 14.6952 8.11929 14.6952 9.5C14.6952 10.8807 13.467 12 11.952 12C13.6354 12 15 13.1193 15 14.5C15 15.8807 13.6354 17 11.952 17C10.5317 17 9.33836 16.2033 9 15.125M2.83209 8C2.2969 9.22492 2 10.5778 2 12C2 17.5228 6.47715 22 12 22C13.0452 22 14.053 21.8396 15 21.5422M5.5 4.40041C7.24803 2.9039 9.51846 2 12 2C17.5228 2 22 6.47715 22 12C22 14.9867 20.6906 17.6676 18.6146 19.5" stroke="black" stroke-width="2" stroke-linecap="round" stroke-linejoin="round"/>
</svg>
