<svg width="24" height="24" viewBox="0 0 24 24" fill="none" xmlns="http://www.w3.org/2000/svg">
<path d="M6.3999 13.3125C6.3999 14.5206 7.3401 15.5 8.4999 15.5C9.6597 15.5 10.5999 14.5206 10.5999 13.3125C10.5999 12.1044 9.6597 11.125 8.4999 11.125C7.3401 11.125 6.3999 12.1044 6.3999 13.3125ZM6.3999 13.3125V11.125C6.3999 9.375 7.39446 8.5 8.4999 8.5C9.1299 8.5 9.8649 8.80625 10.2849 9.59375M3.36827 6.48959L2.87868 6.97918C2.31607 7.54179 2 8.30485 2 9.1005V14.8995C2 15.6951 2.31607 16.4582 2.87868 17.0208L6.97918 21.1213C7.54179 21.6839 8.30485 22 9.1005 22H10M6.48959 3.36827L6.97918 2.87868C7.54179 2.31607 8.30486 2 9.1005 2H14.8995C15.6951 2 16.4582 2.31607 17.0208 2.87868L21.1213 6.97918C21.6839 7.54179 22 8.30486 22 9.1005V14.8995C22 15.6951 21.6839 16.4582 21.1213 17.0208L17.0208 21.1213C16.4582 21.6839 15.6951 22 14.8995 22H14M17.5999 12C17.5999 13.933 16.503 15.5 15.1499 15.5C13.7968 15.5 12.6999 13.933 12.6999 12C12.6999 10.067 13.7968 8.5 15.1499 8.5C16.503 8.5 17.5999 10.067 17.5999 12Z" stroke="black" stroke-width="2" stroke-linecap="round" stroke-linejoin="round"/>
</svg>
