<svg width="24" height="24" viewBox="0 0 24 24" fill="none" xmlns="http://www.w3.org/2000/svg">
<path d="M8.4999 12C9.54372 12 10.3899 11.2165 10.3899 10.25C10.3899 9.2835 9.54372 8.5 8.4999 8.5C7.45608 8.5 6.6099 9.2835 6.6099 10.25C6.6099 11.2165 7.45608 12 8.4999 12ZM8.4999 12C7.3401 12 6.3999 12.7835 6.3999 13.75C6.3999 14.7165 7.3401 15.5 8.4999 15.5C9.6597 15.5 10.5999 14.7165 10.5999 13.75C10.5999 12.7835 9.6597 12 8.4999 12ZM2.83209 8C2.2969 9.22492 2 10.5778 2 12C2 17.5228 6.47715 22 12 22C13.0452 22 14.053 21.8396 15 21.5422M5.5 4.40041C7.24803 2.9039 9.51846 2 12 2C17.5228 2 22 6.47715 22 12C22 14.9867 20.6906 17.6676 18.6146 19.5M17.5999 12C17.5999 13.933 16.503 15.5 15.1499 15.5C13.7968 15.5 12.6999 13.933 12.6999 12C12.6999 10.067 13.7968 8.5 15.1499 8.5C16.503 8.5 17.5999 10.067 17.5999 12Z" stroke="black" stroke-width="2" stroke-linecap="round" stroke-linejoin="round"/>
</svg>
