<svg width="24" height="24" viewBox="0 0 24 24" fill="none" xmlns="http://www.w3.org/2000/svg">
<path d="M6.57495 8.5H10.775L7.41495 15.5M2.83209 8C2.2969 9.22492 2 10.5778 2 12C2 17.5228 6.47715 22 12 22C13.0452 22 14.053 21.8396 15 21.5422M5.5 4.40041C7.24803 2.9039 9.51846 2 12 2C17.5228 2 22 6.47715 22 12C22 14.9867 20.6906 17.6676 18.6146 19.5M17.425 12C17.425 13.933 16.328 15.5 14.975 15.5C13.6219 15.5 12.525 13.933 12.525 12C12.525 10.067 13.6219 8.5 14.975 8.5C16.328 8.5 17.425 10.067 17.425 12Z" stroke="black" stroke-width="2" stroke-linecap="round" stroke-linejoin="round"/>
</svg>
