<svg width="24" height="24" viewBox="0 0 24 24" fill="none" xmlns="http://www.w3.org/2000/svg">
<path d="M2 14.25C2 16.3211 3.67893 18 5.75 18C6.00685 18 6.25767 17.9742 6.5 17.925M2 14.25C2 12.1789 3.67893 10.5 5.75 10.5C7.82107 10.5 9.5 12.1789 9.5 14.25C9.5 14.5068 9.47418 14.7577 9.42499 15M2 14.25V10.5C2 7.5 3.77599 6 5.75 6C6.875 6 8.1875 6.525 8.9375 7.875M13.3105 11C13.2707 11.3252 13.25 11.6593 13.25 12C13.25 15.3137 15.2088 18 17.625 18C20.0412 18 22 15.3137 22 12C22 8.68629 20.0412 6 17.625 6C16.6401 6 15.7312 6.44633 15 7.19956" stroke="black" stroke-width="2" stroke-linecap="round" stroke-linejoin="round"/>
</svg>
