<svg width="24" height="24" viewBox="0 0 24 24" fill="none" xmlns="http://www.w3.org/2000/svg">
<path d="M9.5 9.5625C9.5 11.53 7.82107 13.125 5.75 13.125C3.67893 13.125 2 11.53 2 9.5625C2 7.59499 3.67893 6 5.75 6C7.82107 6 9.5 7.59499 9.5 9.5625ZM9.5 9.5625V13.5C9.5 14.0505 9.4402 14.5505 9.33034 15M2.5625 16.125C3.3125 17.475 4.625 18 5.75 18C6.00442 18 6.25554 17.9751 6.5 17.9253M13.3105 11C13.2707 11.3252 13.25 11.6593 13.25 12C13.25 15.3137 15.2088 18 17.625 18C20.0412 18 22 15.3137 22 12C22 8.68629 20.0412 6 17.625 6C16.6401 6 15.7312 6.44633 15 7.19956" stroke="black" stroke-width="2" stroke-linecap="round" stroke-linejoin="round"/>
</svg>
