<svg width="24" height="24" viewBox="0 0 24 24" fill="none" xmlns="http://www.w3.org/2000/svg">
<path d="M9.04139 10.125C8.74391 8.40625 10.0824 7 12.0158 7C13.8005 7 15.1275 8.5381 14.9902 10.125C14.6928 13.5625 9.04136 12.625 9.04139 17H14.9902M2.83209 8C2.2969 9.22492 2 10.5778 2 12C2 17.5228 6.47715 22 12 22C13.0452 22 14.053 21.8396 15 21.5422M5.5 4.40041C7.24803 2.9039 9.51846 2 12 2C17.5228 2 22 6.47715 22 12C22 14.9867 20.6906 17.6676 18.6146 19.5" stroke="black" stroke-width="2" stroke-linecap="round" stroke-linejoin="round"/>
</svg>
