<svg width="24" height="24" viewBox="0 0 24 24" fill="none" xmlns="http://www.w3.org/2000/svg">
<path d="M9 13.875C9 15.6009 10.3431 17 12 17C13.6569 17 15 15.6009 15 13.875C15 12.1491 13.6569 10.75 12 10.75C10.3431 10.75 9 12.1491 9 13.875ZM9 13.875V10.75C9 8.25 10.4208 7 12 7C12.9 7 13.95 7.4375 14.55 8.5625M2.83209 8C2.2969 9.22492 2 10.5778 2 12C2 17.5228 6.47715 22 12 22C13.0452 22 14.053 21.8396 15 21.5422M5.5 4.40041C7.24803 2.9039 9.51846 2 12 2C17.5228 2 22 6.47715 22 12C22 14.9867 20.6906 17.6676 18.6146 19.5" stroke="black" stroke-width="2" stroke-linecap="round" stroke-linejoin="round"/>
</svg>
