<svg width="24" height="24" viewBox="0 0 24 24" fill="none" xmlns="http://www.w3.org/2000/svg">
<path d="M15 9.96875C15 11.6083 13.6569 12.9375 12 12.9375C10.3431 12.9375 9 11.6083 9 9.96875C9 8.32915 10.3431 7 12 7C13.6569 7 15 8.32915 15 9.96875ZM15 9.96875V13.25C15 15.75 13.5792 17 12 17C11.1 17 10.05 16.5625 9.45 15.4375M2.83209 8C2.2969 9.22492 2 10.5778 2 12C2 17.5228 6.47715 22 12 22C13.0452 22 14.053 21.8396 15 21.5422M5.5 4.40041C7.24803 2.9039 9.51846 2 12 2C17.5228 2 22 6.47715 22 12C22 14.9867 20.6906 17.6676 18.6146 19.5" stroke="black" stroke-width="2" stroke-linecap="round" stroke-linejoin="round"/>
</svg>
