<svg width="24" height="24" viewBox="0 0 24 24" fill="none" xmlns="http://www.w3.org/2000/svg">
<path d="M2.78687 8.10504C4.30554 4.51722 7.85878 2 12 2C17.5228 2 22 6.47715 22 12C22 17.5228 17.5228 22 12 22C8.04175 22 4.62067 19.7003 2.99995 16.3641" stroke="black" stroke-width="2" stroke-linecap="round" stroke-linejoin="round"/>
<path d="M17.9999 12L18.707 12.7071C19.0975 12.3166 19.0975 11.6834 18.707 11.2929L17.9999 12ZM14.207 6.79289C13.8165 6.40237 13.1833 6.40237 12.7928 6.79289C12.4022 7.18342 12.4022 7.81658 12.7928 8.20711L14.207 6.79289ZM12.7928 15.7929C12.4022 16.1834 12.4022 16.8166 12.7928 17.2071C13.1833 17.5976 13.8165 17.5976 14.207 17.2071L12.7928 15.7929ZM18.707 11.2929L14.207 6.79289L12.7928 8.20711L17.2928 12.7071L18.707 11.2929ZM17.2928 11.2929L12.7928 15.7929L14.207 17.2071L18.707 12.7071L17.2928 11.2929ZM17.9999 11H5.99987V13H17.9999V11ZM1.86589 7.71523C1.26852 9.1265 1.63284 10.5031 2.49213 11.477C3.32824 12.4247 4.62626 13 5.99987 13V11C5.16435 11 4.42526 10.6451 3.99183 10.1538C3.58157 9.68883 3.44392 9.11796 3.70768 8.49484L1.86589 7.71523Z" fill="#667085"/>
</svg>
