<svg width="24" height="24" viewBox="0 0 24 24" fill="none" xmlns="http://www.w3.org/2000/svg">
<path d="M15.7605 2.73121C12.1496 1.26811 7.85718 2.00068 4.92893 4.92893C1.02369 8.83417 1.02369 15.1658 4.92893 19.0711C8.83417 22.9763 15.1658 22.9763 19.0711 19.0711C21.8699 16.2722 22.6629 12.227 21.4499 8.72194" stroke="black" stroke-width="2" stroke-linecap="round" stroke-linejoin="round"/>
<path d="M7.75732 16.2426H6.75732C6.75732 16.7949 7.20504 17.2426 7.75732 17.2426V16.2426ZM8.75732 9.87867C8.75732 9.32639 8.30961 8.87867 7.75732 8.87867C7.20504 8.87867 6.75732 9.32639 6.75732 9.87867H8.75732ZM14.1213 17.2426C14.6736 17.2426 15.1213 16.7949 15.1213 16.2426C15.1213 15.6903 14.6736 15.2426 14.1213 15.2426V17.2426ZM16.2426 7.75735L15.5355 7.05024L16.2426 7.75735ZM8.75732 16.2426V9.87867H6.75732V16.2426H8.75732ZM7.75732 17.2426H14.1213V15.2426H7.75732V17.2426ZM8.46443 16.9497L16.9497 8.46446L15.5355 7.05024L7.05022 15.5355L8.46443 16.9497ZM15.3849 3.65801C16.012 3.91211 16.3184 4.41311 16.3571 5.032C16.3979 5.68584 16.1263 6.45944 15.5355 7.05024L16.9497 8.46446C17.921 7.49316 18.432 6.1685 18.3532 4.90719C18.2721 3.61094 17.5563 2.37991 16.136 1.80439L15.3849 3.65801Z" fill="#667085"/>
</svg>
