<svg width="24" height="24" viewBox="0 0 24 24" fill="none" xmlns="http://www.w3.org/2000/svg">
<path d="M2.73121 15.7605C1.26811 12.1496 2.00068 7.85718 4.92893 4.92893C8.83417 1.02369 15.1658 1.02369 19.0711 4.92893C22.9763 8.83417 22.9763 15.1658 19.0711 19.0711C16.2722 21.8699 12.227 22.6629 8.72194 21.4499" stroke="black" stroke-width="2" stroke-linecap="round" stroke-linejoin="round"/>
<path d="M16.2429 7.75732H17.2429C17.2429 7.20504 16.7952 6.75732 16.2429 6.75732V7.75732ZM9.87892 6.75732C9.32663 6.75732 8.87892 7.20504 8.87892 7.75732C8.87892 8.30961 9.32663 8.75732 9.87892 8.75732V6.75732ZM15.2429 14.1213C15.2429 14.6736 15.6906 15.1213 16.2429 15.1213C16.7952 15.1213 17.2429 14.6736 17.2429 14.1213H15.2429ZM7.7576 16.2426L7.05049 15.5355L7.7576 16.2426ZM16.2429 6.75732H9.87892V8.75732H16.2429V6.75732ZM15.2429 7.75732V14.1213H17.2429V7.75732H15.2429ZM15.5358 7.05022L7.05049 15.5355L8.4647 16.9497L16.95 8.46443L15.5358 7.05022ZM1.80464 16.136C2.38015 17.5563 3.61118 18.2721 4.90744 18.3532C6.16875 18.432 7.49341 17.921 8.4647 16.9497L7.05049 15.5355C6.45969 16.1263 5.68608 16.3979 5.03224 16.3571C4.41335 16.3184 3.91236 16.012 3.65825 15.3849L1.80464 16.136Z" fill="#667085"/>
</svg>
