<svg width="24" height="24" viewBox="0 0 24 24" fill="none" xmlns="http://www.w3.org/2000/svg">
<path d="M15.7605 21.2688C12.1496 22.7319 7.85718 21.9993 4.92893 19.0711C1.02369 15.1658 1.02369 8.83417 4.92893 4.92893C8.83417 1.02369 15.1658 1.02369 19.0711 4.92893C21.8699 7.7278 22.6629 11.773 21.4499 15.2781" stroke="black" stroke-width="2" stroke-linecap="round" stroke-linejoin="round"/>
<path d="M7.75732 7.75732V6.75732C7.20504 6.75732 6.75732 7.20504 6.75732 7.75732H7.75732ZM6.75732 14.1213C6.75732 14.6736 7.20504 15.1213 7.75732 15.1213C8.30961 15.1213 8.75732 14.6736 8.75732 14.1213H6.75732ZM14.1213 8.75732C14.6736 8.75732 15.1213 8.30961 15.1213 7.75732C15.1213 7.20504 14.6736 6.75732 14.1213 6.75732V8.75732ZM6.75732 7.75732V14.1213H8.75732V7.75732H6.75732ZM7.75732 8.75732H14.1213V6.75732H7.75732V8.75732ZM7.05022 8.46443L15.5355 16.9497L16.9497 15.5355L8.46443 7.05022L7.05022 8.46443ZM16.136 22.1956C17.5563 21.6201 18.2721 20.389 18.3532 19.0928C18.432 17.8315 17.921 16.5068 16.9497 15.5355L15.5355 16.9497C16.1263 17.5405 16.3979 18.3141 16.3571 18.968C16.3184 19.5868 16.012 20.0878 15.3849 20.3419L16.136 22.1956Z" fill="#667085"/>
</svg>
