<svg width="24" height="24" viewBox="0 0 24 24" fill="none" xmlns="http://www.w3.org/2000/svg">
<path d="M8.10504 21.2131C4.51722 19.6944 2 16.1412 2 12C2 6.47715 6.47715 2 12 2C17.5228 2 22 6.47715 22 12C22 15.9582 19.7003 19.3793 16.3641 21" stroke="black" stroke-width="2" stroke-linecap="round" stroke-linejoin="round"/>
<path d="M12 6L12.7071 5.29289C12.3166 4.90237 11.6834 4.90237 11.2929 5.29289L12 6ZM6.79289 9.79289C6.40237 10.1834 6.40237 10.8166 6.79289 11.2071C7.18342 11.5976 7.81658 11.5976 8.20711 11.2071L6.79289 9.79289ZM15.7929 11.2071C16.1834 11.5976 16.8166 11.5976 17.2071 11.2071C17.5976 10.8166 17.5976 10.1834 17.2071 9.79289L15.7929 11.2071ZM11.2929 5.29289L6.79289 9.79289L8.20711 11.2071L12.7071 6.70711L11.2929 5.29289ZM11.2929 6.70711L15.7929 11.2071L17.2071 9.79289L12.7071 5.29289L11.2929 6.70711ZM11 6V18H13V6H11ZM7.71523 22.134C9.1265 22.7314 10.5031 22.367 11.477 21.5077C12.4247 20.6716 13 19.3736 13 18H11C11 18.8355 10.6451 19.5746 10.1538 20.008C9.68883 20.4183 9.11796 20.556 8.49484 20.2922L7.71523 22.134Z" fill="#667085"/>
</svg>
