<svg width="24" height="24" viewBox="0 0 24 24" fill="none" xmlns="http://www.w3.org/2000/svg">
<path d="M8.10504 2.78687C4.51722 4.30554 2 7.85878 2 12C2 17.5228 6.47715 22 12 22C17.5228 22 22 17.5228 22 12C22 8.04175 19.7003 4.62067 16.3641 2.99995" stroke="black" stroke-width="2" stroke-linecap="round" stroke-linejoin="round"/>
<path d="M12 18.0001L11.2929 18.7072C11.6834 19.0977 12.3166 19.0977 12.7071 18.7072L12 18.0001ZM8.20711 12.793C7.81658 12.4025 7.18342 12.4025 6.79289 12.793C6.40237 13.1835 6.40237 13.8167 6.79289 14.2072L8.20711 12.793ZM17.2071 14.2072C17.5976 13.8167 17.5976 13.1835 17.2071 12.793C16.8166 12.4025 16.1834 12.4025 15.7929 12.793L17.2071 14.2072ZM12.7071 17.293L8.20711 12.793L6.79289 14.2072L11.2929 18.7072L12.7071 17.293ZM12.7071 18.7072L17.2071 14.2072L15.7929 12.793L11.2929 17.293L12.7071 18.7072ZM13 18.0001V6.00012H11V18.0001H13ZM8.49484 3.70793C9.11796 3.44417 9.68883 3.58182 10.1538 3.99208C10.6451 4.4255 11 5.1646 11 6.00012H13C13 4.6265 12.4247 3.32848 11.477 2.49237C10.5031 1.63309 9.1265 1.26876 7.71523 1.86613L8.49484 3.70793Z" fill="#667085"/>
</svg>
