<svg width="24" height="24" viewBox="0 0 24 24" fill="none" xmlns="http://www.w3.org/2000/svg">
<path d="M2.73121 8.23952C1.26811 11.8504 2.00068 16.1428 4.92893 19.0711C8.83417 22.9763 15.1658 22.9763 19.0711 19.0711C22.9763 15.1658 22.9763 8.83418 19.0711 4.92893C16.2722 2.13006 12.227 1.33713 8.72194 2.55014" stroke="black" stroke-width="2" stroke-linecap="round" stroke-linejoin="round"/>
<path d="M16.2429 16.2427V17.2427C16.7952 17.2427 17.2429 16.795 17.2429 16.2427H16.2429ZM9.87892 15.2427C9.32663 15.2427 8.87892 15.6904 8.87892 16.2427C8.87892 16.795 9.32663 17.2427 9.87892 17.2427V15.2427ZM17.2429 9.87871C17.2429 9.32643 16.7952 8.87871 16.2429 8.87871C15.6906 8.87871 15.2429 9.32643 15.2429 9.87871H17.2429ZM7.7576 7.75739L7.05049 8.4645L7.7576 7.75739ZM16.2429 15.2427H9.87892V17.2427H16.2429V15.2427ZM17.2429 16.2427V9.87871H15.2429V16.2427H17.2429ZM16.95 15.5356L8.4647 7.05028L7.05049 8.4645L15.5358 16.9498L16.95 15.5356ZM3.65825 8.61509C3.91236 7.98797 4.41335 7.68164 5.03224 7.64294C5.68608 7.60206 6.45969 7.8737 7.05049 8.4645L8.4647 7.05028C7.49341 6.07899 6.16875 5.56798 4.90744 5.64684C3.61118 5.72789 2.38015 6.44369 1.80464 7.86401L3.65825 8.61509Z" fill="#667085"/>
</svg>
