<svg width="24" height="24" viewBox="0 0 24 24" fill="none" xmlns="http://www.w3.org/2000/svg">
<path d="M21.2131 15.895C19.6944 19.4828 16.1412 22 12 22C6.47715 22 2 17.5228 2 12C2 6.47715 6.47715 2 12 2C15.9582 2 19.3793 4.2997 21 7.63587" stroke="black" stroke-width="2" stroke-linecap="round" stroke-linejoin="round"/>
<path d="M6 12L5.29289 11.2929C4.90237 11.6834 4.90237 12.3166 5.29289 12.7071L6 12ZM9.79289 17.2071C10.1834 17.5976 10.8166 17.5976 11.2071 17.2071C11.5976 16.8166 11.5976 16.1834 11.2071 15.7929L9.79289 17.2071ZM11.2071 8.20711C11.5976 7.81658 11.5976 7.18342 11.2071 6.79289C10.8166 6.40237 10.1834 6.40237 9.79289 6.79289L11.2071 8.20711ZM5.29289 12.7071L9.79289 17.2071L11.2071 15.7929L6.70711 11.2929L5.29289 12.7071ZM6.70711 12.7071L11.2071 8.20711L9.79289 6.79289L5.29289 11.2929L6.70711 12.7071ZM6 13H18V11H6V13ZM22.134 16.2848C22.7314 14.8735 22.367 13.4969 21.5077 12.523C20.6716 11.5753 19.3736 11 18 11V13C18.8355 13 19.5746 13.3549 20.008 13.8462C20.4183 14.3112 20.556 14.882 20.2922 15.5052L22.134 16.2848Z" fill="#667085"/>
</svg>
