<svg width="24" height="24" viewBox="0 0 24 24" fill="none" xmlns="http://www.w3.org/2000/svg">
<path fill-rule="evenodd" clip-rule="evenodd" d="M11.9999 10.7671C11.9999 10.7671 12 10.7671 12 10.7671C13.1311 9.95115 14.1496 9.22319 15.3342 8.55756C17.5733 7.29933 19.5255 7.19405 20.976 8.07705C22.3829 8.93345 23 10.5342 23 11.9999C23 13.4656 22.3828 15.0664 20.976 15.9228C19.5254 16.8058 17.5733 16.7005 15.3341 15.4423C14.7724 15.1266 14.248 14.7969 13.7312 14.4505L14.8778 13.6247C15.0854 13.4762 15.2843 13.3353 15.4775 13.2008C15.7498 13.3718 16.0264 13.5371 16.3139 13.6987C18.1921 14.7541 19.3279 14.5846 19.936 14.2144C20.5878 13.8177 21 12.9763 21 11.9999C21 11.0235 20.5878 10.1822 19.9361 9.78541C19.3279 9.41524 18.1921 9.24572 16.3139 10.3011L16.3138 10.3011C15.6285 10.6861 15.0059 11.0925 14.3537 11.5462C14.1438 11.6922 13.9308 11.8432 13.7116 11.9999L11.9999 13.2327C11.5539 13.5544 11.1255 13.8624 10.6976 14.1582C10.587 14.2347 10.4766 14.3103 10.3658 14.3851C9.8175 14.7555 9.26269 15.1068 8.6657 15.4422L8.66565 15.4424C6.42664 16.7005 4.47454 16.8058 3.02404 15.9228C1.61718 15.0664 1.00001 13.4656 1 11.9999C0.999992 10.5342 1.61715 8.93345 3.024 8.07705C4.47454 7.19405 6.42672 7.29933 8.66585 8.55756C9.22753 8.87318 9.75188 9.20282 10.2686 9.54922L9.122 10.375C8.91436 10.5235 8.71549 10.6644 8.52226 10.7989C8.25002 10.628 7.97357 10.4627 7.68608 10.3011C5.80787 9.24572 4.67206 9.41524 4.06395 9.78541C3.41215 10.1822 2.99999 11.0235 3 11.9999C3.00001 12.9763 3.41217 13.8177 4.06398 14.2144C4.67209 14.5846 5.8079 14.7541 7.68608 13.6987C8.5919 13.1897 9.38822 12.6436 10.2882 11.9999C10.2882 11.9999 10.2882 11.9999 10.2881 11.9999L11.9999 10.7671C11.9999 10.7671 11.9999 10.7671 11.9999 10.7671Z" fill="black"/>
</svg>
