<svg width="24" height="24" viewBox="0 0 24 24" fill="none" xmlns="http://www.w3.org/2000/svg">
<path d="M22 8.59722L20.5404 10.0556C19.6555 6.15891 16.1677 3.25 12 3.25C10.1413 3.25 8.41779 3.82858 7.00012 4.81532M2.00012 15.4028L3.45958 13.9444C4.34453 17.8411 7.83227 20.75 12 20.75C13.8588 20.75 15.5824 20.1714 17.0001 19.1845M3.92946 8.59722C4.09333 8.2097 4.28435 7.83642 4.50012 7.47978M20.0706 15.4028C19.9067 15.7902 19.7158 16.1633 19.5001 16.5198M7.00001 10.7648C7.17457 9.5295 8.0474 9.0001 9.09478 9.0001C10.1422 9.0001 10.8404 9.86025 10.8404 10.7648C10.8404 12.1765 8.74565 13.2353 7.00001 15H10.8404M16.3018 14.9999V13.9411M16.3018 13.9411V9L12.8105 13.9411H16.3018ZM16.3018 13.9411H17" stroke="black" stroke-width="2" stroke-linecap="round" stroke-linejoin="round"/>
</svg>
