<svg width="24" height="24" viewBox="0 0 24 24" fill="none" xmlns="http://www.w3.org/2000/svg">
<path d="M12 23C12.5523 23 13 22.5523 13 22C13 21.4477 12.5523 21 12 21V23ZM19.47 5.348C19.9383 5.64071 20.5553 5.49834 20.848 5.03C21.1407 4.56166 20.9983 3.94471 20.53 3.652L19.47 5.348ZM16.53 1.152C16.0617 0.859291 15.4447 1.00166 15.152 1.47C14.8593 1.93834 15.0017 2.55529 15.47 2.848L16.53 1.152ZM3.47 3.652C3.00166 3.94471 2.85929 4.56166 3.152 5.03C3.44471 5.49834 4.06166 5.64071 4.53 5.348L3.47 3.652ZM8.53 2.848C8.99834 2.55529 9.14071 1.93834 8.848 1.47C8.55529 1.00166 7.93834 0.859291 7.47 1.152L8.53 2.848ZM9 14L8.29289 13.2929C7.90237 13.6834 7.90237 14.3166 8.29289 14.7071L9 14ZM15 15C15.5523 15 16 14.5523 16 14C16 13.4477 15.5523 13 15 13V15ZM11.7071 12.7071C12.0976 12.3166 12.0976 11.6834 11.7071 11.2929C11.3166 10.9024 10.6834 10.9024 10.2929 11.2929L11.7071 12.7071ZM10.2929 16.7071C10.6834 17.0976 11.3166 17.0976 11.7071 16.7071C12.0976 16.3166 12.0976 15.6834 11.7071 15.2929L10.2929 16.7071ZM18.0641 10.5007C18.3407 10.9788 18.9524 11.1421 19.4305 10.8656C19.9085 10.5891 20.0719 9.97733 19.7953 9.49927L18.0641 10.5007ZM21 14C21 13.4477 20.5523 13 20 13C19.4477 13 19 13.4477 19 14H21ZM15.3908 20.1256C14.9079 20.3936 14.7336 21.0023 15.0016 21.4852C15.2696 21.9681 15.8783 22.1424 16.3612 21.8744L15.3908 20.1256ZM3 14C3 18.9706 7.02944 23 12 23V21C8.13401 21 5 17.866 5 14H3ZM12 5C7.02944 5 3 9.02944 3 14H5C5 10.134 8.13401 7 12 7V5ZM20.53 3.652L16.53 1.152L15.47 2.848L19.47 5.348L20.53 3.652ZM4.53 5.348L8.53 2.848L7.47 1.152L3.47 3.652L4.53 5.348ZM9 15H15V13H9V15ZM9.70711 14.7071L11.7071 12.7071L10.2929 11.2929L8.29289 13.2929L9.70711 14.7071ZM8.29289 14.7071L10.2929 16.7071L11.7071 15.2929L9.70711 13.2929L8.29289 14.7071ZM12 7C14.5897 7 16.8523 8.40581 18.0641 10.5007L19.7953 9.49927C18.2407 6.81178 15.3325 5 12 5V7ZM19 14C19 16.6342 17.5454 18.93 15.3908 20.1256L16.3612 21.8744C19.1255 20.3405 21 17.3899 21 14H19Z" fill="black"/>
</svg>
