<svg width="24" height="24" viewBox="0 0 24 24" fill="none" xmlns="http://www.w3.org/2000/svg">
<path d="M12 23C12.5523 23 13 22.5523 13 22C13 21.4477 12.5523 21 12 21V23ZM12 7C12.5523 7 13 6.55228 13 6C13 5.44772 12.5523 5 12 5V7ZM3.47 3.652C3.00166 3.94471 2.85929 4.56166 3.152 5.03C3.44471 5.49834 4.06166 5.64071 4.53 5.348L3.47 3.652ZM8.53 2.848C8.99834 2.55529 9.14071 1.93834 8.848 1.47C8.55529 1.00166 7.93834 0.859291 7.47 1.152L8.53 2.848ZM19.47 5.348C19.9383 5.64071 20.5553 5.49834 20.848 5.03C21.1407 4.56166 20.9983 3.94471 20.53 3.652L19.47 5.348ZM16.53 1.152C16.0617 0.859291 15.4447 1.00166 15.152 1.47C14.8593 1.93834 15.0017 2.55529 15.47 2.848L16.53 1.152ZM10.5 11C9.94772 11 9.5 11.4477 9.5 12C9.5 12.5523 9.94772 13 10.5 13V11ZM13.5 12L14.3 12.6C14.5273 12.297 14.5638 11.8916 14.3944 11.5528C14.225 11.214 13.8788 11 13.5 11V12ZM10.5 16L9.7 15.4C9.47274 15.703 9.43618 16.1084 9.60557 16.4472C9.77496 16.786 10.1212 17 10.5 17V16ZM13.5 17C14.0523 17 14.5 16.5523 14.5 16C14.5 15.4477 14.0523 15 13.5 15V17ZM12 5C11.4477 5 11 5.44772 11 6C11 6.55228 11.4477 7 12 7V5ZM18.0641 10.5007C18.3407 10.9788 18.9524 11.1421 19.4305 10.8656C19.9085 10.5891 20.0719 9.97733 19.7953 9.49927L18.0641 10.5007ZM21 14C21 13.4477 20.5523 13 20 13C19.4477 13 19 13.4477 19 14H21ZM15.3908 20.1256C14.9079 20.3936 14.7336 21.0023 15.0016 21.4852C15.2696 21.9681 15.8783 22.1424 16.3612 21.8744L15.3908 20.1256ZM12 21C8.13401 21 5 17.866 5 14H3C3 18.9706 7.02944 23 12 23V21ZM12 5C7.02944 5 3 9.02944 3 14H5C5 10.134 8.13401 7 12 7V5ZM4.53 5.348L8.53 2.848L7.47 1.152L3.47 3.652L4.53 5.348ZM20.53 3.652L16.53 1.152L15.47 2.848L19.47 5.348L20.53 3.652ZM10.5 13H13.5V11H10.5V13ZM12.7 11.4L9.7 15.4L11.3 16.6L14.3 12.6L12.7 11.4ZM10.5 17H13.5V15H10.5V17ZM12 7C14.5897 7 16.8523 8.40581 18.0641 10.5007L19.7953 9.49927C18.2407 6.81178 15.3325 5 12 5V7ZM19 14C19 16.6342 17.5454 18.93 15.3908 20.1256L16.3612 21.8744C19.1255 20.3405 21 17.3899 21 14H19Z" fill="black"/>
</svg>
