<svg width="24" height="24" viewBox="0 0 24 24" fill="none" xmlns="http://www.w3.org/2000/svg">
<path fill-rule="evenodd" clip-rule="evenodd" d="M12 2C6.47715 2 2 6.47715 2 12V19C2 20.6569 3.34315 22 5 22H19C20.6569 22 22 20.6569 22 19V12C22 11.4477 21.5523 11 21 11C20.4477 11 20 11.4477 20 12V19C20 19.5523 19.5523 20 19 20H5C4.44772 20 4 19.5523 4 19V12C4 7.58172 7.58172 4 12 4C15.1396 4 17.8587 5.80844 19.169 8.44503C19.4148 8.93961 20.0149 9.1413 20.5095 8.89551C21.0041 8.64973 21.2058 8.04955 20.96 7.55497C19.3249 4.26468 15.9278 2 12 2ZM8.10048 8.87016C9.01854 7.72809 10.4239 7 12 7C14.7614 7 17 9.23858 17 12C17 14.7614 14.7614 17 12 17C9.23858 17 7 14.7614 7 12C7 11.4477 6.55228 11 6 11C5.44772 11 5 11.4477 5 12C5 15.866 8.13401 19 12 19C15.866 19 19 15.866 19 12C19 8.13401 15.866 5 12 5C9.7924 5 7.82305 6.02309 6.54168 7.61711C6.19566 8.04756 6.26411 8.67701 6.69456 9.02303C7.12501 9.36905 7.75446 9.30061 8.10048 8.87016ZM13 9C13 8.44772 12.5523 8 12 8C11.4477 8 11 8.44772 11 9V11.5858C11 12.1162 11.2107 12.6249 11.5858 13L12.7929 14.2071C13.1834 14.5976 13.8166 14.5976 14.2071 14.2071C14.5976 13.8166 14.5976 13.1834 14.2071 12.7929L13 11.5858V9ZM5.75 19.25C6.30228 19.25 6.75 18.8023 6.75 18.25C6.75 17.6977 6.30228 17.25 5.75 17.25C5.19772 17.25 4.75 17.6977 4.75 18.25C4.75 18.8023 5.19772 19.25 5.75 19.25Z" fill="black"/>
</svg>
