<svg width="24" height="24" viewBox="0 0 24 24" fill="none" xmlns="http://www.w3.org/2000/svg">
<path d="M20.777 10C19.8675 5.99202 16.2832 3 12 3C10.1498 3 8.43 3.55831 6.99988 4.51563M20.777 10L22.277 8.5M20.777 10L18.5 9.5M3.22302 14C4.13248 18.008 7.71683 21 12 21C13.8501 21 15.5698 20.4418 16.9999 19.4845M3.22302 14L1.72314 15.5M3.22302 14L5.50012 14.5M3.70592 8.5C3.92882 7.97242 4.20059 7.47053 4.51556 7M20.2941 15.5C20.0712 16.0276 19.7994 16.5295 19.4845 17M12 8V12.7929C12 12.9255 12.0527 13.0527 12.1464 13.1464L14 15" stroke="black" stroke-width="2" stroke-linecap="round" stroke-linejoin="round"/>
</svg>
