<svg width="24" height="24" viewBox="0 0 24 24" fill="none" xmlns="http://www.w3.org/2000/svg">
<path fill-rule="evenodd" clip-rule="evenodd" d="M7 2C5.34315 2 4 3.34315 4 5V6.0775C4 7.59642 4.69045 9.03298 5.87653 9.98185L8.39922 12L7.3753 12.8191C6.94404 13.1641 6.87412 13.7934 7.21913 14.2247C7.56414 14.656 8.19343 14.7259 8.62469 14.3809L9.64861 13.5617C10.6494 12.7611 10.6494 11.2389 9.64861 10.4383L7.12592 8.42011C6.41427 7.85079 6 6.98885 6 6.0775V5C6 4.44772 6.44772 4 7 4H12C12.5523 4 13 3.55228 13 3C13 2.44772 12.5523 2 12 2H7ZM16 2C15.4477 2 15 2.44772 15 3C15 3.55228 15.4477 4 16 4H17C17.5523 4 18 4.44772 18 5V6.0775C18 6.98885 17.5857 7.85079 16.8741 8.42011L14.3514 10.4383C13.3506 11.2389 13.3506 12.7611 14.3514 13.5617L16.8741 15.5799C17.5857 16.1492 18 17.0111 18 17.9225V19C18 19.5523 17.5523 20 17 20H16.7907C16.6798 19.777 16.5271 19.5743 16.3379 19.4041L12.669 16.102C12.2887 15.7598 11.7113 15.7598 11.331 16.102L7.66207 19.4041C7.47292 19.5743 7.32019 19.777 7.20929 20H7C6.44771 20 6 19.5523 6 19V17.9225C6 17.5533 6.06794 17.1924 6.19609 16.8557C6.39252 16.3395 6.13332 15.7618 5.61714 15.5654C5.10097 15.369 4.52329 15.6282 4.32686 16.1443C4.11328 16.7056 4 17.3074 4 17.9225V19C4 20.6569 5.34315 22 7 22H17C18.6569 22 20 20.6569 20 19V17.9225C20 16.4036 19.3096 14.967 18.1235 14.0182L15.6008 12L18.1235 9.98184C19.3096 9.03298 20 7.59642 20 6.0775V5C20 3.34315 18.6569 2 17 2H16Z" fill="black"/>
</svg>
