<svg width="24" height="24" viewBox="0 0 24 24" fill="none" xmlns="http://www.w3.org/2000/svg">
<path d="M16 2C17.1046 2 18 2.89543 18 4V5.85926C18 7.19668 17.3316 8.4456 16.2188 9.18747L12 12M12 12L16.2188 14.8125C17.3316 15.5544 18 16.8033 18 18.1407V20C18 21.1046 17.1046 22 16 22H8C6.89543 22 6 21.1046 6 20V18.1407C6 16.8033 6.6684 15.5544 7.7812 14.8125L12 12ZM12 12L7.7812 9.18747C6.6684 8.4456 6 7.19668 6 5.85926V4C6 2.89543 6.89543 2 8 2H12" stroke="black" stroke-width="2" stroke-linecap="round"/>
</svg>
