<svg width="24" height="24" viewBox="0 0 24 24" fill="none" xmlns="http://www.w3.org/2000/svg">
<path d="M5 16C5 16.5523 5.44772 17 6 17C6.55228 17 7 16.5523 7 16H5ZM13 14C13 13.4477 12.5523 13 12 13C11.4477 13 11 13.4477 11 14H13ZM12.2929 16.2929L13 15.5858L12.2929 16.2929ZM12.2929 17.7071C12.6834 18.0976 13.3166 18.0976 13.7071 17.7071C14.0976 17.3166 14.0976 16.6834 13.7071 16.2929L12.2929 17.7071ZM10 10.3414L10.3332 11.2843L10 10.3414ZM14 10.3414L13.6668 11.2843L14 10.3414ZM8.09088 19.1179C7.74618 18.6864 7.11693 18.616 6.68543 18.9607C6.25392 19.3054 6.18356 19.9346 6.52826 20.3661L8.09088 19.1179ZM17 16C17 18.7614 14.7614 21 12 21V23C15.866 23 19 19.866 19 16H17ZM13 4C13 4.55228 12.5523 5 12 5V7C13.6569 7 15 5.65685 15 4H13ZM12 5C11.4477 5 11 4.55228 11 4H9C9 5.65685 10.3431 7 12 7V5ZM11 4C11 3.44772 11.4477 3 12 3V1C10.3431 1 9 2.34315 9 4H11ZM12 3C12.5523 3 13 3.44772 13 4H15C15 2.34315 13.6569 1 12 1V3ZM13 9.5H15C15 8.39543 14.1046 7.5 13 7.5V9.5ZM11 9.5V7.5C9.89543 7.5 9 8.39543 9 9.5H11ZM13 15.5858V14H11V15.5858H13ZM11.5858 17L12.2929 17.7071L13.7071 16.2929L13 15.5858L11.5858 17ZM11 15.5858C11 16.1162 11.2107 16.6249 11.5858 17L13 15.5858H11ZM7 16C7 13.8245 8.38991 11.9711 10.3332 11.2843L9.66675 9.39857C6.94932 10.359 5 12.9506 5 16H7ZM10.3332 11.2843C10.8533 11.1005 11.4138 11 12 11V9C11.1836 9 10.3979 9.14016 9.66675 9.39857L10.3332 11.2843ZM12 11C12.5862 11 13.1467 11.1005 13.6668 11.2843L14.3332 9.39857C13.6021 9.14016 12.8164 9 12 9V11ZM13.6668 11.2843C15.6101 11.9711 17 13.8245 17 16H19C19 12.9506 17.0507 10.359 14.3332 9.39857L13.6668 11.2843ZM11 9.5H12V7.5H11V9.5ZM12 9.5H13V7.5H12V9.5ZM13 8.5V6H11V8.5H13ZM11 10.3414V9.5H9V10.3414H11ZM13 9.5V10.3414H15V9.5H13ZM12 21C10.4184 21 9.00871 20.2668 8.09088 19.1179L6.52826 20.3661C7.80929 21.9697 9.78466 23 12 23V21Z" fill="black"/>
</svg>
