<svg width="24" height="24" viewBox="0 0 24 24" fill="none" xmlns="http://www.w3.org/2000/svg">
<path d="M18 12V7C18 6.44772 17.5523 6 17 6H4C3.44772 6 3 5.55228 3 5V4C3 3.44772 3.44772 3 4 3H17.5C19.433 3 21 4.567 21 6.5V12" stroke="#667085" stroke-width="2" stroke-linecap="round" stroke-linejoin="round"/>
<path d="M18 12V17C18 17.5523 17.5523 18 17 18H7C6.44772 18 6 17.5523 6 17V13C6 12.4477 6.44772 12 7 12H14C14.5523 12 15 11.5523 15 11V10C15 9.44772 14.5523 9 14 9H6.5C4.567 9 3 10.567 3 12.5V17.5C3 19.433 4.567 21 6.5 21H17.5C19.433 21 21 19.433 21 17.5V12" stroke="black" stroke-width="2" stroke-linecap="round" stroke-linejoin="round"/>
</svg>
