<svg width="24" height="24" viewBox="0 0 24 24" fill="none" xmlns="http://www.w3.org/2000/svg">
<path d="M5.49912 5C5.49912 5 6.49912 2 10.9991 2C14.9991 2 15.9991 5 15.9991 6C15.9991 8.5 15.2193 11.7904 15.9991 14C16.2898 14.8235 16.9991 15 16.9991 15L13.9991 17L12.9991 16.5C12.9991 16.5 7.99912 18.5 5.99912 15C2.77422 9.35642 12.4991 8 12.4991 8C12.4991 8 13.7541 5.56375 11.4991 5C9.49912 4.5 7.99912 6.5 7.99912 6.5L5.49912 5Z" stroke="black" stroke-width="2" stroke-linecap="round" stroke-linejoin="round"/>
<path d="M4 19C4 19 6 22 11 22C14.5 22 16 21 16 21M19 21.5L20 19L17.5 18.5" stroke="#667085" stroke-width="2" stroke-linecap="round" stroke-linejoin="round"/>
</svg>
