<svg width="24" height="24" viewBox="0 0 24 24" fill="none" xmlns="http://www.w3.org/2000/svg">
<path d="M7.63506 3C11.1956 4.1311 12.9553 4.08186 16.3633 3M21.7991 10C16.0546 12.1157 13.0149 13.0096 8.99918 12.2523M2.19922 10C4.95244 11.1563 7.08652 11.8916 8.99918 12.2523M18.0002 20C13.4542 21.3738 10.6834 21.3593 5.99821 20M8.99918 12.2523C13.6337 13.4627 16.3511 13.2166 21.9498 11" stroke="#667085" stroke-width="2" stroke-linecap="round" stroke-linejoin="round"/>
<path d="M20.0007 6C19.0488 4.73271 17.8029 3.69894 16.3641 3C15.0454 2.35934 13.5646 2 12 2C10.4354 2 8.95464 2.35934 7.63587 3C6.19714 3.69894 4.95116 4.73271 3.99927 6M20.0007 6C16.0451 7.78821 13.218 8.45391 10 7.94667M20.0007 6C20.2404 6.31907 20.4614 6.65294 20.6622 7M3.99927 6C3.12584 7.16282 2.5 8.52224 2.20004 10C2.06886 10.6462 2 11.3151 2 12C2 13.0452 2.16035 14.053 2.4578 15M3.99927 6C6.29554 7.01827 8.20837 7.66426 10 7.94667M21.5422 15C21.8396 14.053 22 13.0452 22 12C22 11.6625 21.9833 11.3289 21.9506 11C21.917 10.6614 21.8665 10.3278 21.8 10C21.5823 8.92773 21.1931 7.91776 20.6622 7M21.5422 15C16.4775 17.0495 13.0991 17.76 9 17.0232M21.5422 15C21.4349 15.3416 21.3098 15.6753 21.1679 16M2.4578 15C3.09128 17.0169 4.34658 18.7585 5.99903 20C7.67051 21.2558 9.74835 22 12 22C14.2516 22 16.3295 21.2558 18.001 20C19.3736 18.9688 20.4721 17.5925 21.1679 16M2.4578 15C4.96817 16.0047 7.06442 16.6753 9 17.0232M10 7.94667C14.1297 8.88437 16.4637 8.68243 20.6622 7M9 17.0232C13.5325 18.3993 16.2696 18.12 21.1679 16" stroke="black" stroke-width="2" stroke-linecap="round" stroke-linejoin="round"/>
</svg>
