<svg width="24" height="24" viewBox="0 0 24 24" fill="none" xmlns="http://www.w3.org/2000/svg">
<path d="M7.9542 6.32115C5.90223 3.88025 4.41396 3.35821 2.89695 4.78468C1.12546 6.45044 2.0599 8.1539 4.97822 10.4903M16.0458 6.32162C18.0978 3.88071 19.586 3.35867 21.1031 4.78515C22.8745 6.45091 21.9401 8.15436 19.0218 10.4908M7.45986 18.5271C7.54958 14.6834 9.18936 13.4151 12 13.3438C14.8106 13.4151 16.4504 14.6836 16.5401 18.5273" stroke="#667085" stroke-width="2" stroke-linecap="round" stroke-linejoin="round"/>
<path d="M12.0006 13.344L12.0006 15.5002M9.00058 10.0002V10.0102M15.0006 10.0002V10.0102M4.92042 15.2454C4.28908 13.499 4.78973 11.7645 4.9788 10.4905C5.30187 8.31367 6.18429 7.00022 7.95479 6.32135C8.98264 5.92723 10.3098 5.74699 12.0006 5.73584C13.6914 5.74699 15.0185 5.9277 16.0464 6.32182C17.8169 7.00069 18.6993 8.31413 19.0224 10.491C19.2114 11.7649 19.7121 13.4995 19.0807 15.2459C18.5297 16.7699 17.9985 17.729 16.5407 18.5275C16.1455 18.744 15.5086 18.9799 14.8353 19.1983C12.9942 19.7954 11.0069 19.7953 9.16589 19.1982C8.4926 18.9798 7.85572 18.7438 7.46044 18.5273C6.00267 17.7287 5.4714 16.7695 4.92042 15.2454Z" stroke="black" stroke-width="2" stroke-linecap="round" stroke-linejoin="round"/>
</svg>
