<svg width="24" height="24" viewBox="0 0 24 24" fill="none" xmlns="http://www.w3.org/2000/svg">
<path d="M15.3333 6.07669C15.3333 6.07669 9.93601 3.82882 6.7619 6.07669C3.5878 8.32456 2.5903 11.2508 2 18.9998H5.33333L4.85714 17.3844L5.7619 12.5382M15.8571 11.7483V16.8459L17.2857 18.9998H13.9524L12 14.6517M12.5238 13.6152L10.619 17.3844L11.0952 18.9998H8.47619L7.52381 15.769M7.52381 15.769L8.95238 12.5382M7.52381 15.769H5.15873" stroke="black" stroke-width="2" stroke-linecap="round" stroke-linejoin="round"/>
<path d="M15.3329 6.07692L18.19 5L17.7138 7.15385L20.0948 8.23077V9.30769L21.9995 10.3846L20.0948 12.5385C17.9861 11.6501 17.6909 11.3524 15.8567 11.7485C15.5557 11.8135 15.2403 11.8972 14.9043 12" stroke="#667085" stroke-width="2" stroke-linecap="round" stroke-linejoin="round"/>
</svg>
