<svg width="24" height="24" viewBox="0 0 24 24" fill="none" xmlns="http://www.w3.org/2000/svg">
<path d="M7.9542 6.32115C5.90223 3.88025 4.41396 3.35821 2.89695 4.78468C1.12546 6.45044 2.0599 8.1539 4.97822 10.4903M16.0458 6.32162C18.0978 3.88071 19.586 3.35867 21.1031 4.78515C22.8745 6.45091 21.9401 8.15436 19.0218 10.4908M8.45898 18.5275C8.54871 14.6838 9.18849 13.4156 11.9991 13.3442C14.8098 13.4156 15.4496 14.6838 15.5393 18.5275" stroke="#667085" stroke-width="2" stroke-linecap="round" stroke-linejoin="round"/>
<path d="M9 10V10.01M15 10V10.01M4.91968 15.2454C4.19286 13.5365 4.78899 11.7645 4.97806 10.4905C5.30113 8.31367 6.18355 7.00022 7.95405 6.32135C8.9819 5.92723 10.3091 5.74699 11.9998 5.73584C13.6906 5.74699 15.0178 5.9277 16.0456 6.32182C17.8161 7.00069 18.6986 8.31413 19.0216 10.491C19.2107 11.7649 19.6838 13.4897 19.08 15.2459C18.4812 16.9875 17.1237 18.0184 15.6183 18.7239C13.3567 19.7836 10.6501 19.7272 8.4597 18.5273V18.5273C7.00193 17.7287 5.65751 16.9802 4.91968 15.2454Z" stroke="black" stroke-width="2" stroke-linecap="round" stroke-linejoin="round"/>
</svg>
