<svg width="24" height="24" viewBox="0 0 24 24" fill="none" xmlns="http://www.w3.org/2000/svg">
<path d="M8.35878 5.08904C6.512 2.89223 5.17257 2.42239 3.80725 3.70621C2.21291 5.2054 3.05391 6.73851 5.6804 8.84127M15.6412 5.08945C17.488 2.89264 18.8274 2.42281 20.1927 3.70663C21.7871 5.20582 20.9461 6.73892 18.3196 8.84169M7.91387 16.0744C7.99462 12.615 9.20551 11.1 12 11.1C14.7945 11.1 16.0054 12.6152 16.0861 16.0745" stroke="#667085" stroke-width="2" stroke-linecap="round" stroke-linejoin="round"/>
<path d="M11.9999 15.5999L11.9999 14.1796M11.9999 15.5999L11.0999 16.4999M11.9999 15.5999L12.8999 16.4999M9.29994 8.39994V8.40894M14.6999 8.39994V8.40894M11.9999 14.1796H11.0999M11.9999 14.1796H12.8999M5.6278 13.1206C5.05959 11.5488 5.51017 9.98778 5.68034 8.84121C5.9711 6.88206 6.76528 5.69996 8.35872 5.08897C9.28379 4.73427 10.4782 4.57205 11.9999 4.56201C13.5216 4.57205 14.7161 4.73468 15.6412 5.08939C17.2346 5.70038 18.0288 6.88248 18.3195 8.84163C18.4897 9.9882 18.9403 11.5493 18.3721 13.121C17.8762 14.4927 16.9499 14.6999 16.0861 16.0745C16.0992 16.6354 15.5451 17.5475 14.8273 18.4368C13.2568 20.3823 10.7431 20.3823 9.17262 18.4368C8.45474 17.5474 7.90071 16.6353 7.91381 16.0743C7.04994 14.6999 6.12367 14.4923 5.6278 13.1206Z" stroke="black" stroke-width="2" stroke-linecap="round" stroke-linejoin="round"/>
</svg>
