<svg width="24" height="24" viewBox="0 0 24 24" fill="none" xmlns="http://www.w3.org/2000/svg">
<path d="M2 16V8C2 6.34315 3.34315 5 5 5H8.17157C8.70201 5 9.21071 5.21071 9.58579 5.58579L12 8L14.4142 5.58579C14.7893 5.21071 15.298 5 15.8284 5H19C20.6569 5 22 6.34315 22 8V16C22 17.6569 20.6569 19 19 19H5C3.34315 19 2 17.6569 2 16Z" stroke="#667085" stroke-width="2" stroke-linecap="round" stroke-linejoin="round"/>
<path d="M5 14.5V9.5C5 8.67157 5.67157 8 6.5 8H12H17.5C18.3284 8 19 8.67157 19 9.5V14.5C19 15.3284 18.3284 16 17.5 16H6.5C5.67157 16 5 15.3284 5 14.5Z" stroke="black" stroke-width="2" stroke-linecap="round" stroke-linejoin="round"/>
</svg>
