<svg width="24" height="24" viewBox="0 0 24 24" fill="none" xmlns="http://www.w3.org/2000/svg">
<path d="M11 10.7431C11 11.2954 11.4477 11.7431 12 11.7431C12.5523 11.7431 13 11.2954 13 10.7431H11ZM13 10.7431V7H11V10.7431H13Z" fill="#667085"/>
<path d="M9.375 19.3342H10.5903M9.375 19.3342H7.625C6.90013 19.3342 6.3125 18.7374 6.3125 18.0013C6.3125 17.2651 6.90013 16.6684 7.625 16.6684M9.375 19.3342C8.65013 19.3342 8.0625 19.9309 8.0625 20.6671C8.0625 21.4032 8.65013 22 9.375 22H11.4653M10.5903 19.3342C11.3152 19.3342 11.9028 18.7374 11.9028 18.0013C11.9028 17.2651 11.3152 16.6684 10.5903 16.6684L10.0501 16.6684M10.5903 19.3342H11.4713C12.1934 19.3375 12.7778 19.933 12.7778 20.6671C12.7778 21.4032 12.1902 22 11.4653 22M7.625 16.6684L10.0501 16.6684M7.625 16.6684H6.3125C5.58763 16.6684 5 16.0716 5 15.3355C5 14.5993 5.58763 14.0026 6.3125 14.0026H8.0625M10.0501 16.6684C10.775 16.6684 11.3626 16.0716 11.3626 15.3355C11.3626 14.5993 10.775 14.0026 10.0501 14.0026M8.0625 14.0026H10.0501M8.0625 14.0026C7.33763 14.0026 6.75 13.4058 6.75 12.6697C6.75 11.9335 7.33763 11.3368 8.0625 11.3368H10.0556M10.0501 14.0026H10.0556C10.7397 14.0026 11.3016 13.4709 11.3626 12.7922M10.0556 11.3368L11.3626 11.3368M10.0556 11.3368C10.7397 11.3368 11.3016 11.8684 11.3626 12.5471M11.4653 22H13.75C16.6495 22 19 19.613 19 16.6684V15.417C19 12.9181 17.291 10.7544 14.8889 10.2123L14.2015 10.0573C12.7445 9.72868 11.3626 10.8553 11.3626 12.3718V12.5471M13.9444 13.1093V14.5636C13.9444 15.2881 13.3665 15.8753 12.6535 15.8753C11.9406 15.8753 11.3626 15.2881 11.3626 14.5636V12.7922M11.3626 12.5471V12.7922" stroke="black" stroke-width="2" stroke-linecap="round" stroke-linejoin="round"/>
<path fill-rule="evenodd" clip-rule="evenodd" d="M11.9866 8C13.9198 8 15.5043 6.433 15.5043 4.5C15.5043 2.567 13.9353 1 12.0022 1C10.069 1 8.5 2.57385 8.5 4.50684C8.5 6.4323 10.061 8 11.9866 8ZM12.375 3C12.375 2.79289 12.2071 2.625 12 2.625C11.7929 2.625 11.625 2.79289 11.625 3V3.01875C11.1971 3.10562 10.875 3.48395 10.875 3.9375C10.875 4.45527 11.2947 4.875 11.8125 4.875H12.1875C12.2911 4.875 12.375 4.95895 12.375 5.0625C12.375 5.16605 12.2911 5.25 12.1875 5.25H12H11.25C11.0429 5.25 10.875 5.41789 10.875 5.625C10.875 5.83211 11.0429 6 11.25 6H11.625C11.625 6.20711 11.7929 6.375 12 6.375C12.2071 6.375 12.375 6.20711 12.375 6V5.98125C12.8029 5.89438 13.125 5.51606 13.125 5.0625C13.125 4.54473 12.7053 4.125 12.1875 4.125H11.8125C11.7089 4.125 11.625 4.04105 11.625 3.9375C11.625 3.83395 11.7089 3.75 11.8125 3.75H12H12.75C12.9571 3.75 13.125 3.58211 13.125 3.375C13.125 3.16789 12.9571 3 12.75 3H12.375Z" fill="#667085"/>
</svg>
