<svg width="24" height="24" viewBox="0 0 24 24" fill="none" xmlns="http://www.w3.org/2000/svg">
<path d="M14.3569 16.856V21L12.7808 20.3314C12.2816 20.1196 11.7178 20.1196 11.2186 20.3314L9.64258 21V16.856M13.7497 8C13.7497 8.9665 12.9662 9.75 11.9997 9.75C11.0332 9.75 10.2497 8.9665 10.2497 8C10.2497 7.0335 11.0332 6.25 11.9997 6.25C12.9662 6.25 13.7497 7.0335 13.7497 8Z" stroke="#667085" stroke-width="2" stroke-linecap="round" stroke-linejoin="round"/>
<path d="M17.0738 3C16.9549 3.25519 16.8889 3.53704 16.8889 3.83333C16.8889 4.98393 17.8838 5.91667 19.1111 5.91667C19.4272 5.91667 19.7278 5.85481 20 5.74332M17.0738 3H18.2222C19.2041 3 20 3.74619 20 4.66667V5.74332M17.0738 3H6.9262M20 5.74332V10.2567M20 10.2567V11.3333C20 12.2538 19.2041 13 18.2222 13H17.0738C16.9549 12.7448 16.8889 12.463 16.8889 12.1667C16.8889 11.0161 17.8838 10.0833 19.1111 10.0833C19.4272 10.0833 19.7278 10.1452 20 10.2567ZM4 10.2567C4.27221 10.1452 4.57284 10.0833 4.88889 10.0833C6.11619 10.0833 7.11111 11.0161 7.11111 12.1667C7.11111 12.463 7.04513 12.7448 6.9262 13H5.77778C4.79594 13 4 12.2538 4 11.3333V10.2567ZM4 10.2567V5.74332M4 5.74332V4.66667C4 3.74619 4.79594 3 5.77778 3H6.9262M4 5.74332C4.27221 5.85481 4.57284 5.91667 4.88889 5.91667C6.11619 5.91667 7.11111 4.98393 7.11111 3.83333C7.11111 3.53704 7.04513 3.25519 6.9262 3M9 15C9 13.3431 10.3431 12 12 12C13.6569 12 15 13.3431 15 15C15 15.7007 14.7598 16.3453 14.3571 16.856C14.2476 16.9948 14.1261 17.1238 13.9942 17.2413C13.4641 17.7132 12.7656 18 12 18C11.2344 18 10.5359 17.7132 10.0058 17.2413C9.87386 17.1238 9.75235 16.9948 9.64286 16.856C9.24024 16.3453 9 15.7007 9 15Z" stroke="black" stroke-width="2" stroke-linecap="round" stroke-linejoin="round"/>
</svg>
