<svg width="24" height="24" viewBox="0 0 24 24" fill="none" xmlns="http://www.w3.org/2000/svg">
<path d="M14.0291 18V19.5C14.0291 20.3284 13.3575 21 12.5291 21H11.4717C10.6432 21 9.97167 20.3284 9.97167 19.5V18M17.0722 8C18.985 6.52023 19.1815 5.47405 17.0721 3C23.1406 4 21.4067 9.5 17.0722 11M6.92769 8C5.01484 6.52023 4.81829 5.47405 6.92766 3C0.85925 4 2.59351 9.5 6.92809 11" stroke="#667085" stroke-width="2" stroke-linecap="round" stroke-linejoin="round"/>
<path d="M14.0291 18L16.4598 14.805C16.8571 14.2828 17.0722 13.6447 17.0722 12.9885L17.0722 11V8H6.92773L6.92813 11V12.9884C6.92813 13.6447 7.1433 14.2828 7.54067 14.805L9.97171 18M9.97171 17.5C11.5 16 12.5 16 14.0291 17.5" stroke="black" stroke-width="2" stroke-linecap="round" stroke-linejoin="round"/>
</svg>
