<svg width="24" height="24" viewBox="0 0 24 24" fill="none" xmlns="http://www.w3.org/2000/svg">
<path d="M3 8.6317C5.73217 8.30174 5.7239 9.55282 5.08998 10.5264C4.45605 11.5 4.17686 13.5682 5.43099 13.8948M13.4937 4.89492C12.0868 4.68633 11.5258 4.31075 10.8703 3M16.9917 4.89492C18.3264 4.68286 18.9155 4.29338 19.6151 3M19.6151 12.3363C20.6482 14.5952 21.3464 16.5321 20.8205 18.215C20.6616 18.7236 20.1451 19 19.6123 19H19.5053C18.8026 19 18.3104 18.2847 18.3992 17.5876C18.5061 16.7491 18.4428 15.8404 18.0458 15.1091" stroke="#667085" stroke-width="2" stroke-linecap="round" stroke-linejoin="round"/>
<path d="M9.02513 17.2107C8.07674 17.5184 7.51963 18.235 6.73298 20.1574C6.52667 20.6615 6.04158 21.0002 5.49684 21.0002V21.0002C4.70394 21.0002 4.09046 20.2991 4.20699 19.5148C4.96311 14.4258 5.76378 13.1332 8.92891 12.5266C10.2924 12.3341 12.6006 11.7463 13.4937 10.6319C14 10.0002 15.5104 8.25046 14 8.63186C12.1548 9.09778 11.6303 8.06125 11 7.00016L13.4937 4.89508C14.8832 3.92247 16.1172 4.38978 16.9917 4.89508C21.5 7.50016 20.8173 13.3215 16.1172 17.0002M9.02513 17.2107C10.1658 16.5142 10.5 16.0002 10.8703 15.0002M9.02513 17.2107C10.583 17.3325 11.6308 17.4333 13 17.0002L13.2697 19.7141C13.3423 20.4441 13.9564 21.0002 14.6899 21.0002V21.0002C15.4782 21.0002 16.1172 20.3612 16.1172 19.5729V14.3687" stroke="black" stroke-width="2" stroke-linecap="round" stroke-linejoin="round"/>
</svg>
