<svg width="24" height="24" viewBox="0 0 24 24" fill="none" xmlns="http://www.w3.org/2000/svg">
<path d="M17.0722 11C21.4067 9.5 23.1406 4 17.0721 3C19.1815 5.47405 18.985 6.52023 17.0722 8M6.92769 8C5.01484 6.52023 4.81829 5.47405 6.92766 3C0.85925 4 2.59351 9.5 6.92809 11M8.75423 17L9.64806 19.9368C9.84029 20.5683 10.4229 21 11.0831 21H12.9176C13.5778 21 14.1604 20.5683 14.3526 19.9367L15.2463 17" stroke="#667085" stroke-width="2" stroke-linecap="round" stroke-linejoin="round"/>
<path d="M6.92773 8H17.0722L17.0722 10.5536C17.0722 10.8496 17.0284 11.1439 16.9423 11.427L15.2463 17C13.2463 15 10.7543 15 8.75428 17L6.92813 11L6.92773 8Z" stroke="black" stroke-width="2" stroke-linecap="round" stroke-linejoin="round"/>
</svg>
