<svg width="24" height="24" viewBox="0 0 24 24" fill="none" xmlns="http://www.w3.org/2000/svg">
<path d="M11.1535 16.9439H9.90059M11.1535 16.9439H12.5584C13.2634 16.9439 13.9394 16.6649 14.4378 16.1684L17.7314 12.8877C18.2504 12.3708 19.0918 12.3708 19.6108 12.8877C20.1297 13.4047 20.1297 14.2428 19.6108 14.7598L15.9439 18.4124C14.2796 20.0701 12.0328 21 9.69145 21H4M11.1535 16.9439C11.8455 16.9439 12.4064 16.3851 12.4064 15.6958C12.4064 15.0065 11.8455 14.4478 11.1535 14.4478H8.49566C7.79075 14.4478 7.11472 14.7267 6.61627 15.2232L6.18776 15.6501C5.57148 16.2639 4.8226 16.6782 4 16.8518" stroke="black" stroke-width="2" stroke-linecap="round" stroke-linejoin="round"/>
<path fill-rule="evenodd" clip-rule="evenodd" d="M8 8.31579C8 9.89474 9.25 12 12 12C14.75 12 16 9.89474 16 8.31579C16 7.0101 14.846 6.21053 13.9695 5.60318C13.6773 5.40071 13.4159 5.2196 13.2384 5.04823H10.7616C10.5841 5.2196 10.3227 5.40071 10.0305 5.60318C9.15396 6.21052 8 7.0101 8 8.31579ZM12.4287 6.70595C12.4287 6.47583 12.2368 6.28928 12.0001 6.28928C11.7634 6.28928 11.5715 6.47583 11.5715 6.70595V6.74729C11.0513 6.83679 10.6484 7.27293 10.6484 7.80889C10.6484 8.41112 11.1571 8.88732 11.7693 8.88732H12.2309C12.3834 8.88732 12.4946 9.00368 12.4946 9.13242C12.4946 9.26115 12.3834 9.37752 12.2309 9.37752H11.077C10.8403 9.37752 10.6484 9.56406 10.6484 9.79418C10.6484 10.0243 10.8403 10.2108 11.077 10.2108H11.5715V10.2354C11.5715 10.4655 11.7634 10.652 12.0001 10.652C12.2368 10.652 12.4287 10.4655 12.4287 10.2354V10.194C12.9488 10.1045 13.3517 9.66837 13.3517 9.13242C13.3517 8.53019 12.843 8.05399 12.2309 8.05399H11.7693C11.6168 8.05399 11.5056 7.93762 11.5056 7.80889C11.5056 7.68015 11.6168 7.56379 11.7693 7.56379H12.9232C13.1599 7.56379 13.3517 7.37724 13.3517 7.14712C13.3517 6.917 13.1599 6.73046 12.9232 6.73046H12.4287V6.70595Z" fill="#667085"/>
<path d="M13.4806 3.7611C13.3482 3.91567 13.2213 4.0638 13.1312 4.2149H10.8688C10.7787 4.0638 10.6518 3.91566 10.5194 3.76109C10.2708 3.47097 10.0028 3.15817 9.92221 2.7605C9.8297 2.30413 10.3177 2 10.7961 2H13.2039C13.6823 2 14.1703 2.30413 14.0778 2.7605C13.9972 3.15817 13.7292 3.47097 13.4806 3.7611Z" fill="#667085"/>
</svg>
