<svg width="24" height="24" viewBox="0 0 24 24" fill="none" xmlns="http://www.w3.org/2000/svg">
<path d="M12 21V18.6103M12 18.6103C12 17.9207 11.7155 17.2594 11.2092 16.7718L9.3 14.9333C8.80294 14.4547 7.99706 14.4547 7.5 14.9333C7.00294 15.412 7.00294 16.188 7.5 16.6667M12 18.6103C12 17.9207 12.2845 17.2594 12.7908 16.7718L14.7 14.9333C15.1971 14.4547 16.0029 14.4547 16.5 14.9333C16.9971 15.412 16.9971 16.188 16.5 16.6667M7.5 16.6667L8.4 17.5333M7.5 16.6667L6.49081 15.6949C5.98446 15.2073 5.7 14.5459 5.7 13.8564V9.3C5.7 8.58203 5.09558 8 4.35 8C3.60442 8 3 8.58203 3 9.3V16.8897C3 17.5793 3.28446 18.2406 3.79081 18.7282L6.15 21M16.5 16.6667L15.6 17.5333M16.5 16.6667L17.5092 15.6949C18.0155 15.2073 18.3 14.5459 18.3 13.8564V9.3C18.3 8.58203 18.9044 8 19.65 8C20.3956 8 21 8.58203 21 9.3V16.8897C21 17.5793 20.7155 18.2406 20.2092 18.7282L17.85 21" stroke="black" stroke-width="2" stroke-linecap="round" stroke-linejoin="round"/>
<path fill-rule="evenodd" clip-rule="evenodd" d="M8 8.31579C8 9.89474 9.25 12 12 12C14.75 12 16 9.89474 16 8.31579C16 7.0101 14.846 6.21053 13.9695 5.60318C13.6773 5.40071 13.4159 5.2196 13.2384 5.04823H10.7616C10.5841 5.2196 10.3227 5.40071 10.0305 5.60318C9.15396 6.21052 8 7.0101 8 8.31579ZM12.4287 6.70595C12.4287 6.47583 12.2368 6.28928 12.0001 6.28928C11.7634 6.28928 11.5715 6.47583 11.5715 6.70595V6.74729C11.0513 6.83679 10.6484 7.27293 10.6484 7.80889C10.6484 8.41112 11.1571 8.88732 11.7693 8.88732H12.2309C12.3834 8.88732 12.4946 9.00368 12.4946 9.13242C12.4946 9.26115 12.3834 9.37752 12.2309 9.37752H11.077C10.8403 9.37752 10.6484 9.56406 10.6484 9.79418C10.6484 10.0243 10.8403 10.2108 11.077 10.2108H11.5715V10.2354C11.5715 10.4655 11.7634 10.652 12.0001 10.652C12.2368 10.652 12.4287 10.4655 12.4287 10.2354V10.194C12.9488 10.1045 13.3517 9.66838 13.3517 9.13242C13.3517 8.53019 12.843 8.05399 12.2309 8.05399H11.7693C11.6168 8.05399 11.5056 7.93762 11.5056 7.80889C11.5056 7.68015 11.6168 7.56379 11.7693 7.56379H12.9232C13.1599 7.56379 13.3517 7.37724 13.3517 7.14712C13.3517 6.917 13.1599 6.73046 12.9232 6.73046H12.4287V6.70595Z" fill="#667085"/>
<path d="M13.4806 3.7611C13.3482 3.91567 13.2213 4.0638 13.1312 4.2149H10.8688C10.7787 4.0638 10.6518 3.91566 10.5194 3.76109C10.2708 3.47097 10.0028 3.15817 9.92221 2.7605C9.8297 2.30413 10.3177 2 10.7961 2H13.2039C13.6823 2 14.1703 2.30413 14.0778 2.7605C13.9972 3.15817 13.7292 3.47097 13.4806 3.7611Z" fill="#667085"/>
</svg>
