<svg width="24" height="24" viewBox="0 0 24 24" fill="none" xmlns="http://www.w3.org/2000/svg">
<path d="M12 8.69812C12.2276 8.69827 12.4552 8.62101 12.6408 8.46635L16.7183 5.06849C17.4033 4.49766 18.432 4.64686 18.9266 5.38877L21.0912 8.6356C21.62 9.42884 21.5154 10.4851 20.8413 11.1592L12.7078 19.2927C12.5123 19.4882 12.2561 19.5858 12 19.5856" stroke="#667085" stroke-width="2" stroke-linecap="round" stroke-linejoin="round"/>
<path d="M12 8.69812C11.7728 8.69797 11.5457 8.62071 11.3605 8.46635L7.28305 5.06849C6.59806 4.49766 5.56931 4.64686 5.0747 5.38877L2.91015 8.6356C2.38132 9.42884 2.48591 10.4851 3.16004 11.1592L11.2936 19.2927C11.4886 19.4878 11.7443 19.5854 12 19.5856" stroke="black" stroke-width="2" stroke-linecap="round" stroke-linejoin="round"/>
</svg>
