<svg width="24" height="24" viewBox="0 0 24 24" fill="none" xmlns="http://www.w3.org/2000/svg">
<path fill-rule="evenodd" clip-rule="evenodd" d="M8 16.3158C8 17.8947 9.25 20 12 20C14.75 20 16 17.8947 16 16.3158C16 15.0101 14.846 14.2105 13.9695 13.6032C13.6773 13.4007 13.4159 13.2196 13.2384 13.0482H10.7616C10.5841 13.2196 10.3227 13.4007 10.0305 13.6032C9.15396 14.2105 8 15.0101 8 16.3158ZM12.4287 14.7059C12.4287 14.4758 12.2368 14.2893 12.0001 14.2893C11.7634 14.2893 11.5715 14.4758 11.5715 14.7059V14.7473C11.0513 14.8368 10.6484 15.2729 10.6484 15.8089C10.6484 16.4111 11.1571 16.8873 11.7693 16.8873H12.2309C12.3834 16.8873 12.4946 17.0037 12.4946 17.1324C12.4946 17.2612 12.3834 17.3775 12.2309 17.3775H11.077C10.8403 17.3775 10.6484 17.5641 10.6484 17.7942C10.6484 18.0243 10.8403 18.2108 11.077 18.2108H11.5715V18.2354C11.5715 18.4655 11.7634 18.652 12.0001 18.652C12.2368 18.652 12.4287 18.4655 12.4287 18.2354V18.194C12.9488 18.1045 13.3517 17.6684 13.3517 17.1324C13.3517 16.5302 12.843 16.054 12.2309 16.054H11.7693C11.6168 16.054 11.5056 15.9376 11.5056 15.8089C11.5056 15.6802 11.6168 15.5638 11.7693 15.5638H12.9232C13.1599 15.5638 13.3517 15.3772 13.3517 15.1471C13.3517 14.917 13.1599 14.7305 12.9232 14.7305H12.4287V14.7059Z" fill="#667085"/>
<path d="M13.4806 11.7611C13.3482 11.9157 13.2213 12.0638 13.1312 12.2149H10.8688C10.7787 12.0638 10.6518 11.9157 10.5194 11.7611C10.2708 11.471 10.0028 11.1582 9.92221 10.7605C9.8297 10.3041 10.3177 10 10.7961 10H13.2039C13.6823 10 14.1703 10.3041 14.0778 10.7605C13.9972 11.1582 13.7292 11.471 13.4806 11.7611Z" fill="#667085"/>
<path d="M4.5 8H19.5M20 19V9.5C20 8.55573 19.5554 7.66656 18.8 7.1L14.4 3.8C12.9778 2.73333 11.0222 2.73333 9.6 3.8L5.2 7.1C4.44458 7.66656 4 8.55573 4 9.5V19C4 20.6569 5.34315 22 7 22H17C18.6569 22 20 20.6569 20 19Z" stroke="black" stroke-width="2" stroke-linecap="round" stroke-linejoin="round"/>
</svg>
