<svg width="24" height="24" viewBox="0 0 24 24" fill="none" xmlns="http://www.w3.org/2000/svg">
<path fill-rule="evenodd" clip-rule="evenodd" d="M8 17.3158C8 18.8947 9.25 21 12 21C14.75 21 16 18.8947 16 17.3158C16 16.0101 14.846 15.2105 13.9695 14.6032C13.6773 14.4007 13.4159 14.2196 13.2384 14.0482H10.7616C10.5841 14.2196 10.3227 14.4007 10.0305 14.6032C9.15396 15.2105 8 16.0101 8 17.3158ZM12.4287 15.7059C12.4287 15.4758 12.2368 15.2893 12.0001 15.2893C11.7634 15.2893 11.5715 15.4758 11.5715 15.7059V15.7473C11.0513 15.8368 10.6484 16.2729 10.6484 16.8089C10.6484 17.4111 11.1571 17.8873 11.7693 17.8873H12.2309C12.3834 17.8873 12.4946 18.0037 12.4946 18.1324C12.4946 18.2612 12.3834 18.3775 12.2309 18.3775H11.077C10.8403 18.3775 10.6484 18.5641 10.6484 18.7942C10.6484 19.0243 10.8403 19.2108 11.077 19.2108H11.5715V19.2354C11.5715 19.4655 11.7634 19.652 12.0001 19.652C12.2368 19.652 12.4287 19.4655 12.4287 19.2354V19.194C12.9488 19.1045 13.3517 18.6684 13.3517 18.1324C13.3517 17.5302 12.843 17.054 12.2309 17.054H11.7693C11.6168 17.054 11.5056 16.9376 11.5056 16.8089C11.5056 16.6802 11.6168 16.5638 11.7693 16.5638H12.9232C13.1599 16.5638 13.3517 16.3772 13.3517 16.1471C13.3517 15.917 13.1599 15.7305 12.9232 15.7305H12.4287V15.7059Z" fill="#667085"/>
<path d="M13.4806 12.7611C13.3482 12.9157 13.2213 13.0638 13.1312 13.2149H10.8688C10.7787 13.0638 10.6518 12.9157 10.5194 12.7611C10.2708 12.471 10.0028 12.1582 9.92221 11.7605C9.8297 11.3041 10.3177 11 10.7961 11H13.2039C13.6823 11 14.1703 11.3041 14.0778 11.7605C13.9972 12.1582 13.7292 12.471 13.4806 12.7611Z" fill="#667085"/>
<path d="M4.5 8.34315H19.5M17 22.0002C18.6569 22.0002 20 20.657 20 19.0002V9.58579C20 8.79014 19.6839 8.02708 19.1213 7.46447L14.8284 3.17157C14.0474 2.39053 13.0237 2 12 2C10.9763 2 9.95262 2.39052 9.17158 3.17157L4.87868 7.46447C4.31607 8.02708 4 8.79014 4 9.58579L4 19.0002C4 20.657 5.34315 22.0002 7 22.0002" stroke="black" stroke-width="2" stroke-linecap="round" stroke-linejoin="round"/>
<path d="M12 5.5H12.01" stroke="#667085" stroke-width="2" stroke-linecap="round" stroke-linejoin="round"/>
</svg>
