<svg width="24" height="24" viewBox="0 0 24 24" fill="none" xmlns="http://www.w3.org/2000/svg">
<path fill-rule="evenodd" clip-rule="evenodd" d="M8 15.3158C8 16.8947 9.25 19 12 19C14.75 19 16 16.8947 16 15.3158C16 14.0101 14.846 13.2105 13.9695 12.6032C13.6773 12.4007 13.4159 12.2196 13.2384 12.0482H10.7616C10.5841 12.2196 10.3227 12.4007 10.0305 12.6032C9.15396 13.2105 8 14.0101 8 15.3158ZM12.4287 13.7059C12.4287 13.4758 12.2368 13.2893 12.0001 13.2893C11.7634 13.2893 11.5715 13.4758 11.5715 13.7059V13.7473C11.0513 13.8368 10.6484 14.2729 10.6484 14.8089C10.6484 15.4111 11.1571 15.8873 11.7693 15.8873H12.2309C12.3834 15.8873 12.4946 16.0037 12.4946 16.1324C12.4946 16.2612 12.3834 16.3775 12.2309 16.3775H11.077C10.8403 16.3775 10.6484 16.5641 10.6484 16.7942C10.6484 17.0243 10.8403 17.2108 11.077 17.2108H11.5715V17.2354C11.5715 17.4655 11.7634 17.652 12.0001 17.652C12.2368 17.652 12.4287 17.4655 12.4287 17.2354V17.194C12.9488 17.1045 13.3517 16.6684 13.3517 16.1324C13.3517 15.5302 12.843 15.054 12.2309 15.054H11.7693C11.6168 15.054 11.5056 14.9376 11.5056 14.8089C11.5056 14.6802 11.6168 14.5638 11.7693 14.5638H12.9232C13.1599 14.5638 13.3517 14.3772 13.3517 14.1471C13.3517 13.917 13.1599 13.7305 12.9232 13.7305H12.4287V13.7059Z" fill="#667085"/>
<path d="M13.4806 10.7611C13.3482 10.9157 13.2213 11.0638 13.1312 11.2149H10.8688C10.7787 11.0638 10.6518 10.9157 10.5194 10.7611C10.2708 10.471 10.0028 10.1582 9.92221 9.7605C9.8297 9.30413 10.3177 9 10.7961 9H13.2039C13.6823 9 14.1703 9.30413 14.0778 9.7605C13.9972 10.1582 13.7292 10.471 13.4806 10.7611Z" fill="#667085"/>
<path d="M4 7.8541V19C4 20.6569 5.34315 22 7 22H17C18.6569 22 20 20.6569 20 19V7.8541C20 6.71779 19.358 5.679 18.3416 5.17082L13.7889 2.89443C12.6627 2.33137 11.3373 2.33137 10.2111 2.89443L5.65836 5.17082C4.64201 5.679 4 6.71779 4 7.8541Z" stroke="black" stroke-width="2" stroke-linecap="round" stroke-linejoin="round"/>
</svg>
