<svg width="24" height="24" viewBox="0 0 24 24" fill="none" xmlns="http://www.w3.org/2000/svg">
<path d="M10 10V11.0681V17.0194V18.5M12 22C6.47715 22 2 17.5228 2 12C2 6.47715 6.47715 2 12 2C17.5228 2 22 6.47715 22 12C22 17.5228 17.5228 22 12 22Z" stroke="#667085" stroke-width="2" stroke-linecap="round" stroke-linejoin="round"/>
<path d="M13 13.5L13.7168 12.8753C13.7168 12.8753 11.9139 11.4174 10 11.0681C9.66706 11.0074 9.33075 10.9801 9 11C7.88397 11.067 6.36527 11.634 5.99924 13C5.48983 14.9012 7.32108 16.3624 10 17.0194C10.127 17.0505 10.256 17.0799 10.3866 17.1074C13.4677 17.7556 17.951 16.4151 18 13.5C18.0929 7.97793 7.99916 6 7.99916 6L8 7" stroke="black" stroke-width="2" stroke-linecap="round" stroke-linejoin="round"/>
</svg>
