<svg width="24" height="24" viewBox="0 0 24 24" fill="none" xmlns="http://www.w3.org/2000/svg">
<path d="M8 17V16C8 13.7909 9.79086 12 12 12C14.2091 12 16 13.7909 16 16V17H8ZM8 17V18C8 20.2091 9.79086 22 12 22C13.4806 22 14.7733 21.1956 15.4649 20" stroke="black" stroke-width="2" stroke-linecap="round" stroke-linejoin="round"/>
<path d="M9.00041 10C5.57225 9.12405 7.16662 5.72917 9.00041 2.00004C5.75804 4.70455 4 7.65198 4 9.50004C4 10.5 4.19194 11.768 6.00136 13C6.72521 11.4907 7.33148 10.7957 9.00041 10Z" stroke="#667085" stroke-width="2" stroke-linecap="round" stroke-linejoin="round"/>
<path d="M14.9996 10C18.4278 9.12401 16.8334 5.72913 14.9996 2C18.242 4.70451 20 7.65194 20 9.5C20 10.5 19.8081 11.7679 17.9986 13C17.2748 11.4906 16.6685 10.7957 14.9996 10Z" stroke="#667085" stroke-width="2" stroke-linecap="round" stroke-linejoin="round"/>
</svg>
