<svg width="24" height="24" viewBox="0 0 24 24" fill="none" xmlns="http://www.w3.org/2000/svg">
<path d="M11 4.12602C10.6804 4.04375 10.3453 4 10 4C7.79086 4 6 5.79086 6 8C6 10.2091 7.79086 12 10 12C11.1947 12 12.2671 11.4762 13 10.6458M10 15C6.68629 15 4 17.6863 4 21C4 21.5523 4.44772 22 5 22H15C15.5523 22 16 21.5523 16 21C16 17.6863 13.3137 15 10 15Z" stroke="black" stroke-width="2" stroke-linecap="round" stroke-linejoin="round"/>
<path fill-rule="evenodd" clip-rule="evenodd" d="M17 10C14.7909 10 13 8.20914 13 6C13 3.79086 14.7909 2 17 2C19.2091 2 21 3.79086 21 6C21 8.20914 19.2091 10 17 10ZM17.5 4C17.5 3.72386 17.2761 3.5 17 3.5C16.7239 3.5 16.5 3.72386 16.5 4V4.13944C15.9404 4.30478 15.5 4.74204 15.5 5.32369C15.5 5.7419 15.6583 6.10145 15.9952 6.32897C16.2939 6.5307 16.6652 6.58008 17 6.58008C17.2652 6.58008 17.3939 6.62525 17.4452 6.6599C17.4633 6.67217 17.4711 6.68235 17.4775 6.6956C17.4854 6.71196 17.5 6.75301 17.5 6.83647C17.5 6.84543 17.4929 6.90098 17.4102 6.96804C17.3314 7.03187 17.195 7.09286 17 7.09286C16.7391 7.09286 16.5791 6.9845 16.5192 6.91052C16.3454 6.69591 16.0306 6.6628 15.816 6.83657C15.6013 7.01034 15.5682 7.32519 15.742 7.5398C15.9215 7.7615 16.1857 7.93398 16.5 8.02394V8.16016C16.5 8.4363 16.7239 8.66016 17 8.66016C17.2761 8.66016 17.5 8.4363 17.5 8.16016V8.02071C18.0596 7.85538 18.5 7.41812 18.5 6.83647C18.5 6.41825 18.3417 6.05871 18.0048 5.83118C17.7061 5.62945 17.3348 5.58008 17 5.58008C16.7348 5.58008 16.6061 5.5349 16.5548 5.50026C16.5367 5.48798 16.5289 5.47781 16.5225 5.46456C16.5146 5.4482 16.5 5.40715 16.5 5.32369C16.5 5.31473 16.5071 5.25918 16.5898 5.19212C16.6686 5.12828 16.805 5.06729 17 5.06729C17.2609 5.06729 17.4209 5.17566 17.4808 5.24964C17.6546 5.46425 17.9694 5.49736 18.184 5.32358C18.3987 5.14981 18.4318 4.83497 18.258 4.62035C18.0785 4.39866 17.8143 4.22618 17.5 4.13621V4Z" fill="#667085"/>
</svg>
