<svg width="24" height="24" viewBox="0 0 24 24" fill="none" xmlns="http://www.w3.org/2000/svg">
<path d="M11 4.12602C10.6804 4.04375 10.3453 4 10 4C7.79086 4 6 5.79086 6 8C6 10.2091 7.79086 12 10 12C11.1947 12 12.2671 11.4762 13 10.6458M10 15C6.68629 15 4 17.6863 4 21C4 21.5523 4.44772 22 5 22H15C15.5523 22 16 21.5523 16 21C16 17.6863 13.3137 15 10 15Z" stroke="black" stroke-width="2" stroke-linecap="round" stroke-linejoin="round"/>
<path fill-rule="evenodd" clip-rule="evenodd" d="M16 2.5C16 2.22386 16.2239 2 16.5 2H17.5C17.7761 2 18 2.22386 18 2.5C18 2.90069 18.4845 3.10173 18.7678 2.8184C18.963 2.62313 19.2796 2.62313 19.4749 2.8184L20.182 3.5255C20.3773 3.72077 20.3773 4.03735 20.182 4.23261C19.8988 4.5158 20.0995 5 20.5 5C20.7761 5 21 5.22386 21 5.5V6.5C21 6.77614 20.7761 7 20.5 7C20.0992 7 19.8986 7.48461 20.182 7.76799C20.3773 7.96326 20.3773 8.27984 20.182 8.4751L19.4749 9.18221C19.2796 9.37747 18.963 9.37747 18.7678 9.18221C18.4845 8.89894 18 9.0994 18 9.5C18 9.77614 17.7761 10 17.5 10H16.5C16.2239 10 16 9.77614 16 9.5C16 9.09946 15.5155 8.89914 15.2323 9.18236C15.037 9.37762 14.7204 9.37762 14.5251 9.18236L13.818 8.47525C13.6228 8.27999 13.6228 7.96341 13.818 7.76814C14.1015 7.48472 13.9008 7 13.5 7C13.2239 7 13 6.77614 13 6.5V5.5C13 5.22386 13.2239 5 13.5 5C13.9006 5 14.1013 4.5157 13.818 4.23246C13.6228 4.0372 13.6228 3.72062 13.818 3.52535L14.5251 2.81825C14.7204 2.62298 15.037 2.62298 15.2322 2.81825C15.5156 3.10157 16 2.90068 16 2.5ZM17 8C18.1046 8 19 7.10457 19 6C19 4.89543 18.1046 4 17 4C15.8954 4 15 4.89543 15 6C15 7.10457 15.8954 8 17 8Z" fill="#667085"/>
</svg>
