<svg width="24" height="24" viewBox="0 0 24 24" fill="none" xmlns="http://www.w3.org/2000/svg">
<path d="M11.1535 16.9439H9.90059M11.1535 16.9439H12.5584C13.2634 16.9439 13.9394 16.6649 14.4378 16.1684L17.7314 12.8877C18.2504 12.3708 19.0918 12.3708 19.6108 12.8877C20.1297 13.4047 20.1297 14.2428 19.6108 14.7598L15.9439 18.4124C14.2796 20.0701 12.0328 21 9.69145 21H4M11.1535 16.9439C11.8455 16.9439 12.4064 16.3851 12.4064 15.6958C12.4064 15.0065 11.8455 14.4478 11.1535 14.4478H8.49566C7.79075 14.4478 7.11472 14.7267 6.61627 15.2232L6.18776 15.6501C5.57148 16.2639 4.8226 16.6782 4 16.8518" stroke="black" stroke-width="2" stroke-linecap="round" stroke-linejoin="round"/>
<path fill-rule="evenodd" clip-rule="evenodd" d="M11 12.5C8.79086 12.5 7 10.7091 7 8.5C7 6.29086 8.79086 4.5 11 4.5C13.2091 4.5 15 6.29086 15 8.5C15 10.7091 13.2091 12.5 11 12.5ZM11.4444 6.29991C11.4444 6.05445 11.2455 5.85547 11 5.85547C10.7545 5.85547 10.5556 6.05445 10.5556 6.29991V6.51565C9.98402 6.67457 9.55556 7.13251 9.55556 7.69991C9.55556 8.10951 9.69975 8.4602 10.0167 8.68657C10.3037 8.8916 10.6659 8.94436 11 8.94436C11.2659 8.94436 11.4037 8.9916 11.4667 9.03657C11.4997 9.0602 11.5556 9.10951 11.5556 9.29991C11.5556 9.39265 11.4213 9.65547 11 9.65547C10.5977 9.65547 10.5111 9.40926 10.5111 9.36658C10.5111 9.12112 10.3121 8.92214 10.0667 8.92214C9.82121 8.92214 9.62222 9.12112 9.62222 9.36658C9.62222 9.86731 9.99578 10.3228 10.5556 10.4833V10.6999C10.5556 10.9454 10.7545 11.1444 11 11.1444C11.2455 11.1444 11.4444 10.9454 11.4444 10.6999V10.4842C12.016 10.3253 12.4444 9.86732 12.4444 9.29991C12.4444 8.89032 12.3003 8.53963 11.9833 8.31325C11.6963 8.10822 11.3341 8.05547 11 8.05547C10.7341 8.05547 10.5963 8.00822 10.5333 7.96325C10.5003 7.93963 10.4444 7.89032 10.4444 7.69991C10.4444 7.60718 10.5787 7.34436 11 7.34436C11.2002 7.34436 11.351 7.41067 11.4454 7.48702C11.5381 7.56209 11.553 7.62347 11.5552 7.63243C11.5552 7.63304 11.5555 7.63356 11.5552 7.63243C11.5552 7.87789 11.7545 8.07769 12 8.07769C12.2455 8.07769 12.4444 7.87871 12.4444 7.63325C12.4444 7.29445 12.2502 6.99495 12.0046 6.79614C11.8492 6.67033 11.6593 6.57161 11.4444 6.51352V6.29991Z" fill="#667085"/>
<path d="M15.896 9.52343C17.1492 8.84796 18.0008 7.52344 18.0008 6C18.0008 3.79086 16.21 2 14.0008 2C12.737 2 11.61 2.58618 10.877 3.5015C10.9181 3.5005 10.9594 3.5 11.0008 3.5C11.8514 3.5 12.6524 3.71239 13.3536 4.08704C13.4187 4.059 13.4865 4.03509 13.5564 4.01565V3.79991C13.5564 3.55445 13.7554 3.35547 14.0008 3.35547C14.2463 3.35547 14.4453 3.55445 14.4453 3.79991V4.01352C14.6601 4.07161 14.8501 4.17033 15.0055 4.29614C15.2511 4.49495 15.4453 4.79445 15.4453 5.13325C15.4453 5.36004 15.2754 5.54716 15.056 5.57431C15.6505 6.39688 16.0008 7.40752 16.0008 8.5C16.0008 8.85075 15.9647 9.19307 15.896 9.52343Z" fill="#667085"/>
</svg>
