<svg width="24" height="24" viewBox="0 0 24 24" fill="none" xmlns="http://www.w3.org/2000/svg">
<path d="M12 10.2001C13.8489 6.90821 16.3925 5.01084 21 3C21 13.3831 18.1412 18.4562 12.9499 20.6407C12.343 20.8961 11.6579 20.894 11.0469 20.6485C6.20449 18.7029 3.39245 14.9308 3.03815 5.99988C2.99436 4.89618 3.89543 4 5 4H13.5258" stroke="black" stroke-width="2" stroke-linecap="round" stroke-linejoin="round"/>
<path d="M10 15C10.6132 13.1029 11.2494 11.5366 12 10.2001M12 10.2001C15.9686 11.3144 17.9392 9.48566 21 3C17.6587 2.99998 15.1673 3.30901 13.5258 4C10.9913 5.06684 10.4827 7.04413 12 10.2001Z" stroke="#667085" stroke-width="2" stroke-linecap="round" stroke-linejoin="round"/>
</svg>
