<svg width="24" height="24" viewBox="0 0 24 24" fill="none" xmlns="http://www.w3.org/2000/svg">
<path fill-rule="evenodd" clip-rule="evenodd" d="M11.9846 9C14.1938 9 16.0046 7.20914 16.0046 5C16.0046 2.79086 14.2116 1 12.0024 1C9.79328 1 8.00025 2.79868 8.00025 5.00782C8.00025 7.20834 9.78413 9 11.9846 9ZM8.49635 12H10.2507C10.3888 12 10.5018 11.8877 10.4904 11.7501C10.3634 10.2102 9.07338 9 7.50069 9H5.74638C5.6083 9 5.49528 9.11234 5.50665 9.24996C5.63388 10.7897 6.92384 12 8.49635 12ZM15.5007 12H13.7463C13.6083 12 13.4953 11.8877 13.5066 11.7501C13.6336 10.2102 14.9237 9 16.4963 9H18.2507C18.3887 9 18.5018 9.11234 18.4904 9.24996C18.3632 10.7897 17.0732 12 15.5007 12ZM12.3753 3.5C12.3753 3.29289 12.2074 3.125 12.0003 3.125C11.7931 3.125 11.6253 3.29289 11.6253 3.5V3.51875C11.1973 3.60562 10.8753 3.98395 10.8753 4.4375C10.8753 4.95527 11.295 5.375 11.8128 5.375H12.1878C12.2913 5.375 12.3753 5.45895 12.3753 5.5625C12.3753 5.66605 12.2913 5.75 12.1878 5.75H12.0003H11.2503C11.0431 5.75 10.8753 5.91789 10.8753 6.125C10.8753 6.33211 11.0431 6.5 11.2503 6.5H11.6253C11.6253 6.70711 11.7931 6.875 12.0003 6.875C12.2074 6.875 12.3753 6.70711 12.3753 6.5V6.48125C12.8032 6.39438 13.1253 6.01606 13.1253 5.5625C13.1253 5.04473 12.7055 4.625 12.1878 4.625H11.8128C11.7092 4.625 11.6253 4.54105 11.6253 4.4375C11.6253 4.33395 11.7092 4.25 11.8128 4.25H12.0003H12.7503C12.9574 4.25 13.1253 4.08211 13.1253 3.875C13.1253 3.66789 12.9574 3.5 12.7503 3.5H12.3753Z" fill="#667085"/>
<path fill-rule="evenodd" clip-rule="evenodd" d="M12.9825 9.90039C12.6582 9.96619 12.3229 10.0007 11.9799 10.0007C11.6383 10.0007 11.3048 9.96619 10.9825 9.9004V14.448H8.49586C7.527 14.448 6.59703 14.8313 5.91075 15.5149L6.59028 16.1971L5.91075 15.5149L5.48224 15.9418C4.99548 16.4266 4.41746 16.7419 3.79372 16.8735C3.25334 16.9876 2.90772 17.5181 3.02175 18.0585C3.13579 18.5988 3.66631 18.9445 4.20669 18.8304C5.22816 18.6149 6.14788 18.1016 6.89369 17.3587L7.3222 16.9319C7.63281 16.6225 8.05492 16.448 8.49586 16.448H11.1537C11.2197 16.448 11.2772 16.4714 11.3222 16.511C11.3761 16.5584 11.4066 16.6235 11.4066 16.696C11.4066 16.8293 11.2971 16.9441 11.1537 16.9441H9.9008C9.34851 16.9441 8.9008 17.3918 8.9008 17.9441C8.9008 18.4963 9.34851 18.9441 9.9008 18.9441H11.1537H12.5587C13.5275 18.9441 14.4575 18.5607 15.1438 17.8771L18.4373 14.5964C18.5661 14.4681 18.7765 14.4681 18.9052 14.5964C19.0319 14.7225 19.0319 14.9254 18.9052 15.0515L15.2384 18.7041C13.7609 20.1758 11.7675 21.0002 9.69165 21.0002H4.0002C3.44792 21.0002 3.0002 21.4479 3.0002 22.0002C3.0002 22.5525 3.44792 23.0002 4.0002 23.0002H9.69165C12.2985 23.0002 14.7988 21.9648 16.6498 20.1211L20.3167 16.4685C21.228 15.5607 21.228 14.0872 20.3167 13.1794C19.4075 12.2738 17.935 12.2738 17.0259 13.1794L13.7323 16.4601C13.6339 16.5581 13.5244 16.6426 13.4066 16.7123L13.4066 16.696C13.4066 16.2056 13.2486 15.7518 12.9825 15.383V9.90039Z" fill="black"/>
</svg>
