<svg width="24" height="24" viewBox="0 0 24 24" fill="none" xmlns="http://www.w3.org/2000/svg">
<path d="M12 18.5V19H10C7.79086 19 6 17.2091 6 15V14.5H8C10.2091 14.5 12 16.2909 12 18.5Z" stroke="#667085" stroke-width="2" stroke-linecap="round" stroke-linejoin="round"/>
<path d="M12 22V11M12 17.5V16C12 14.3431 13.3431 13 15 13H18V13.5C18 15.7091 16.2091 17.5 14 17.5H12Z" stroke="black" stroke-width="2" stroke-linecap="round" stroke-linejoin="round"/>
<path fill-rule="evenodd" clip-rule="evenodd" d="M12 1C14.7614 1 17 3.23858 17 6C17 8.76142 14.7607 11 11.9993 11C9.23789 11 7 8.76142 7 6C7 3.23858 9.23858 1 12 1ZM10 5.0625C10 4.28071 10.5316 3.62309 11.2531 3.43144C11.2877 3.04936 11.6089 2.75 12 2.75C12.3716 2.75 12.6801 3.02029 12.7396 3.375H13.25C13.6642 3.375 14 3.71079 14 4.125C14 4.53921 13.6642 4.875 13.25 4.875H12H11.6875C11.5839 4.875 11.5 4.95895 11.5 5.0625C11.5 5.16605 11.5839 5.25 11.6875 5.25H12.3125C13.2445 5.25 14 6.00552 14 6.9375C14 7.71929 13.4684 8.37691 12.7469 8.56856C12.7123 8.95064 12.3911 9.25 12 9.25C11.6284 9.25 11.3199 8.97971 11.2604 8.625H10.75C10.3358 8.625 10 8.28921 10 7.875C10 7.46079 10.3358 7.125 10.75 7.125H12H12.3125C12.4161 7.125 12.5 7.04105 12.5 6.9375C12.5 6.83395 12.4161 6.75 12.3125 6.75H11.6875C10.7555 6.75 10 5.99448 10 5.0625Z" fill="#667085"/>
</svg>
