<svg width="24" height="24" viewBox="0 0 24 24" fill="none" xmlns="http://www.w3.org/2000/svg">
<path d="M10.8661 15.893C10.6445 15.8506 10.4273 15.7961 10.2152 15.7301M7.78484 14.2699C6.68291 13.1821 6 11.6708 6 10" stroke="black" stroke-width="2" stroke-linecap="round" stroke-linejoin="round"/>
<path d="M10 20H8C4.85462 20 2.27453 17.5797 2.02052 14.4998C1.99783 14.2246 2.22386 14 2.5 14H6C6.62155 14 7.22102 14.0945 7.78484 14.2699C8.71134 14.5582 9.54154 15.065 10.2152 15.7301C10.3771 15.8899 10.53 16.059 10.673 16.2363" stroke="#667085" stroke-width="2" stroke-linecap="round" stroke-linejoin="round"/>
<path d="M13.5 7.9375H12M12 7.9375H11.625C11.0037 7.9375 10.5 8.39921 10.5 8.96875C10.5 9.53829 11.0037 10 11.625 10H12.375C12.9963 10 13.5 10.4617 13.5 11.0312C13.5 11.6008 12.9963 12.0625 12.375 12.0625H12M12 7.9375V7.25M12 12.0625H10.5M12 12.0625V12.75" stroke="#667085" stroke-width="1.5" stroke-linecap="round" stroke-linejoin="round"/>
<path d="M6 10C6 6.68629 8.68629 4 12 4C15.3137 4 18 6.68629 18 10C18 11.0929 17.7078 12.1175 17.1973 13M17.1973 13H16C13.8236 13 11.9179 14.1588 10.8661 15.893C10.7981 16.0051 10.7337 16.1196 10.673 16.2363C10.243 17.0634 10 18.0033 10 19V20H12H16C19.3137 20 22 17.3137 22 14V13.5C22 13.2239 21.7761 13 21.5 13H17.1973Z" stroke="black" stroke-width="2" stroke-linecap="round" stroke-linejoin="round"/>
</svg>
