<svg width="24" height="24" viewBox="0 0 24 24" fill="none" xmlns="http://www.w3.org/2000/svg">
<path d="M7 5.93665C5.6388 9.4269 5.10582 11.7135 5 16.9992M17 18.0637C18.3612 14.5734 18.8942 12.2868 19 7.00117M9.5 5.2207C8 13.0002 12.5 12.0002 17 5.93665M14.5 18.7796C16 11.0002 11.5 12.0002 7 18.0637" stroke="#667085" stroke-width="2" stroke-linecap="round" stroke-linejoin="round"/>
<path d="M7 5.93648C4.01099 7.14681 2 9.40901 2 12C2 13.9582 3.14864 15.7286 5 16.999C5.59829 17.4096 6.26998 17.7679 7 18.0635C8.47087 18.6591 10.1786 19 12 19C12.8632 19 13.701 18.9234 14.5 18.7795C15.3869 18.6197 16.2262 18.3768 17 18.0635C19.989 16.8532 22 14.591 22 12C22 10.0418 20.8514 8.27144 19 7.001C18.4017 6.59043 17.73 6.23208 17 5.93648C15.5291 5.34088 13.8214 5 12 5C11.1368 5 10.299 5.07657 9.5 5.22053C8.61307 5.38033 7.77377 5.62316 7 5.93648Z" stroke="black" stroke-width="2" stroke-linecap="round" stroke-linejoin="round"/>
</svg>
