<svg width="24" height="24" viewBox="0 0 24 24" fill="none" xmlns="http://www.w3.org/2000/svg">
<path d="M20 11V5.83333C20 4.82081 19.1941 4 18.2 4H3.8C2.80589 4 2 4.82081 2 5.83333V13.1667C2 14.1792 2.80589 15 3.8 15H11M16.4 8.125V10.875M5.6 8.125V10.875" stroke="black" stroke-width="2" stroke-linecap="round" stroke-linejoin="round"/>
<path d="M21.9992 14.9998H18.9992M21.9992 14.9998V17.9998M21.9992 14.9998L17.7063 19.2927C17.3158 19.6833 16.6826 19.6833 16.2921 19.2927L14.7063 17.7069C14.3158 17.3164 13.6826 17.3164 13.2921 17.7069L10.9992 19.9998M12.7992 9.49984C12.7992 10.5124 11.9933 11.3332 10.9992 11.3332C10.0051 11.3332 9.19922 10.5124 9.19922 9.49984C9.19922 8.48732 10.0051 7.6665 10.9992 7.6665C11.9933 7.6665 12.7992 8.48732 12.7992 9.49984Z" stroke="#667085" stroke-width="2" stroke-linecap="round" stroke-linejoin="round"/>
</svg>
