<svg width="24" height="24" viewBox="0 0 24 24" fill="none" xmlns="http://www.w3.org/2000/svg">
<path d="M9.25 6.73682H12.75" stroke="#667085" stroke-width="2" stroke-linecap="round" stroke-linejoin="round"/>
<path d="M11 20C6.1875 20 4 16.2105 4 13.3684C4 9.57895 9.25 8.1579 9.25 6.73684C9.25 5.62633 7.64692 4.8051 7.36387 3.3689C7.20197 2.54744 8.05597 2 8.89324 2H13.1068C13.944 2 14.798 2.54744 14.6361 3.3689C14.3531 4.8051 12.75 5.62633 12.75 6.73684C12.75 8.11088 17.6584 9.48492 17.9831 13M12.6154 11.2647H11M11 11.2647H10.5962C9.92704 11.2647 9.38462 11.798 9.38462 12.4559C9.38462 13.1138 9.92704 13.6471 10.5962 13.6471H11.4038C12.073 13.6471 12.6154 14.1804 12.6154 14.8382C12.6154 15.4961 12.073 16.0294 11.4038 16.0294H11M11 11.2647V10.4706M11 16.0294H9.38462M11 16.0294V16.8235" stroke="black" stroke-width="2" stroke-linecap="round" stroke-linejoin="round"/>
<path fill-rule="evenodd" clip-rule="evenodd" d="M17.5 23C15.567 23 14 21.433 14 19.5C14 17.567 15.567 16 17.5 16C19.433 16 21 17.567 21 19.5C21 21.433 19.433 23 17.5 23ZM18.3008 18C18.3008 17.5858 17.965 17.25 17.5508 17.25C17.1366 17.25 16.8008 17.5858 16.8008 18V19.8333C16.8008 20.3396 17.2112 20.75 17.7174 20.75H18.5508C18.965 20.75 19.3008 20.4142 19.3008 20C19.3008 19.5858 18.965 19.25 18.5508 19.25H18.3008V18Z" fill="#667085"/>
</svg>
