<svg width="24" height="24" viewBox="0 0 24 24" fill="none" xmlns="http://www.w3.org/2000/svg">
<path d="M21.799 10L5.99805 20" stroke="black" stroke-width="2" stroke-linecap="round" stroke-linejoin="round"/>
<path d="M15.1312 2.5L14 21.8" stroke="#667085" stroke-width="2" stroke-linecap="round" stroke-linejoin="round"/>
<path d="M2.19922 10H21.7991" stroke="black" stroke-width="2" stroke-linecap="round" stroke-linejoin="round"/>
<path d="M8 14L15.1312 2.5" stroke="#667085" stroke-width="2" stroke-linecap="round" stroke-linejoin="round"/>
<path d="M2.20004 10C3.12658 5.43552 7.16208 2 12 2C13.0936 2 14.1462 2.17555 15.1312 2.5C18.5035 3.61087 21.0829 6.46731 21.8 10C21.9311 10.6462 22 11.3151 22 12C22 16.8379 18.5645 20.8734 14 21.8C13.3538 21.9311 12.6849 22 12 22C9.74835 22 7.67051 21.2558 5.99903 20C3.57069 18.1755 2 15.2712 2 12C2 11.3151 2.06886 10.6462 2.20004 10Z" stroke="black" stroke-width="2" stroke-linecap="round" stroke-linejoin="round"/>
</svg>
