<svg width="24" height="24" viewBox="0 0 24 24" fill="none" xmlns="http://www.w3.org/2000/svg">
<path d="M12 2.99951C18.0003 2.99963 20.1031 4.63083 20 9.09267C19.9338 12.3401 19.3681 13.5642 17.5003 16.047C16.0003 18.0781 17.2717 19.7843 21.0003 18.2323C15.9284 22.2962 11.5435 22.1403 14.5003 16.047C15.9266 13.1075 16.4916 11.5468 16.0003 9.09267C15.7969 8.07715 15.0003 7.0615 12 7.0615" stroke="#667085" stroke-width="2" stroke-linecap="round" stroke-linejoin="round"/>
<path d="M12.0003 2.99951C6 2.99963 3.89715 4.63083 4.00025 9.09267C4.06648 12.3401 4.63213 13.5642 6.5 16.047C8 18.0781 6.72851 19.7843 3 18.2323C8.0718 22.2962 12.4568 22.1403 9.5 16.047C8.07361 13.1075 7.50865 11.5468 8 9.09267C8.20332 8.07715 9 7.0615 12.0003 7.0615" stroke="black" stroke-width="2" stroke-linecap="round" stroke-linejoin="round"/>
</svg>
