<svg width="24" height="24" viewBox="0 0 24 24" fill="none" xmlns="http://www.w3.org/2000/svg">
<path d="M20.8766 10.5063C20.1651 6.24662 16.4617 3 12 3C7.53831 3 3.83491 6.24662 3.12339 10.5063C2.9869 11.3234 3.67157 12 4.5 12H7C7.55229 12 7.98717 11.5453 8.12343 11.0101C8.56394 9.27976 10.1325 8 12 8C13.8675 8 15.4361 9.27976 15.8766 11.0101C16.0128 11.5453 16.4477 12 17 12H19.5C20.3284 12 21.0131 11.3234 20.8766 10.5063Z" stroke="black" stroke-width="2" stroke-linecap="round" stroke-linejoin="round"/>
<path d="M14.1723 15H9.82911C9.29867 15 8.78997 15.2107 8.41489 15.5858L5.99027 18.0104C5.79501 18.2057 5.79433 18.5227 5.99472 18.7127C6.82025 19.4954 7.82715 20.2996 8.88076 20.7675C9.24783 20.9306 9.66773 20.7995 9.92486 20.491L11.2325 18.9219C11.6323 18.4421 12.3691 18.4421 12.7689 18.9219L14.0765 20.491C14.3336 20.7995 14.7535 20.9306 15.1206 20.7675C16.1742 20.2996 17.1811 19.4954 18.0066 18.7127C18.207 18.5227 18.2063 18.2057 18.0111 18.0104L15.5865 15.5858C15.2114 15.2107 14.7027 15 14.1723 15Z" stroke="#667085" stroke-width="2" stroke-linecap="round" stroke-linejoin="round"/>
</svg>
