<svg width="24" height="24" viewBox="0 0 24 24" fill="none" xmlns="http://www.w3.org/2000/svg">
<path d="M3.5 9.03432C6.83785 11.3604 8.64835 11.44 12 9.03432C15.1253 6.47236 17.0341 6.55457 20.5 9.03432M20.4879 14.9998C17.3313 11.8495 15.5282 11.9927 12 14.9998C8.74159 17.3943 6.7455 17.2981 3.51212 14.9998" stroke="#667085" stroke-width="2" stroke-linecap="round" stroke-linejoin="round"/>
<path d="M3.5 9.03451C3.17607 9.96308 3 10.961 3 12C3 13.0519 3.18046 14.0617 3.51212 15C4.74763 18.4956 8.08134 21 12 21C15.9187 21 19.2524 18.4956 20.4879 15C20.8195 14.0617 21 13.0519 21 12C21 10.961 20.8239 9.96308 20.5 9.03451C19.2743 5.52092 15.9315 3 12 3C8.06846 3 4.72571 5.52092 3.5 9.03451Z" stroke="black" stroke-width="2" stroke-linecap="round" stroke-linejoin="round"/>
</svg>
