<svg width="24" height="24" viewBox="0 0 24 24" fill="none" xmlns="http://www.w3.org/2000/svg">
<path d="M3.05469 12.9998C10.3069 12.3453 13.5388 10.6832 17.9998 5.2915M4.49976 16.9765C12.5486 15.6579 18.0401 15.6346 20.8753 10.4998" stroke="#667085" stroke-width="2" stroke-linecap="round" stroke-linejoin="round"/>
<path d="M3.5 9.03451C3.17607 9.96308 3 10.961 3 12C3 12.338 3.01863 12.6717 3.05493 13C3.13159 13.6935 3.28703 14.3632 3.51212 15C3.76063 15.7031 4.09403 16.3661 4.5 16.9767C6.11238 19.4017 8.86954 21 12 21C15.9187 21 19.2524 18.4956 20.4879 15C20.8195 14.0617 21 13.0519 21 12C21 11.4889 20.9574 10.9878 20.8756 10.5C20.791 9.99607 20.6646 9.50634 20.5 9.03451C19.9929 7.58094 19.1235 6.29726 18 5.29168C16.4077 3.86656 14.3051 3 12 3C8.06846 3 4.72571 5.52092 3.5 9.03451Z" stroke="black" stroke-width="2" stroke-linecap="round" stroke-linejoin="round"/>
</svg>
