<svg width="24" height="24" viewBox="0 0 24 24" fill="none" xmlns="http://www.w3.org/2000/svg">
<path d="M20 11.0001C20 14.0001 15.2867 14.9719 11 15.0001L12 12.0001C15.6798 11.8194 17.473 11.1761 18.7539 9.03906" stroke="#667085" stroke-width="2" stroke-linecap="round" stroke-linejoin="round"/>
<path d="M4 13.0001C4 10.0001 8.7133 9.02832 13 9.00006L12 12.0001C8.29795 12.1818 6.50536 12.8319 5.22289 15.0001M18.7539 9.03898C16.5404 6.25438 13.2099 5.32684 6 5L7 2C15 2 20 4.5 20 7V11C19.6158 10.2608 19.2084 9.61073 18.7539 9.03898ZM18.7539 9.03898C18.7617 9.02604 18.7694 9.01305 18.7771 9" stroke="black" stroke-width="2" stroke-linecap="round" stroke-linejoin="round"/>
<path d="M4 17V13C6.25543 17.3394 9.30967 18.6061 18 19L17 22C9 22 4 19.5 4 17Z" stroke="#667085" stroke-width="2" stroke-linecap="round" stroke-linejoin="round"/>
</svg>
