<svg width="24" height="24" viewBox="0 0 24 24" fill="none" xmlns="http://www.w3.org/2000/svg">
<path d="M7.84804 13.0588C8.63872 10.8882 9.99948 9.5 9.99948 9.5C9.99948 9.5 12.5339 8.94781 13.2718 10.2353C14.4604 12.3091 9.39641 13.9303 7.84804 13.0588ZM7.84804 13.0588C6.97181 15.4643 6.48736 18 8.33917 18C9.71502 18 11.1576 15.8824 11.1576 15.8824C11.1576 15.8824 17.4995 13.7647 17.4995 10.2353C17.4995 6.70588 13.4137 6 11.8625 6C5.99973 6 4.78723 11.336 7.84804 13.0588Z" stroke="black" stroke-width="2" stroke-linecap="round" stroke-linejoin="round"/>
<path d="M2 12C2 17.5228 6.47715 22 12 22C17.5228 22 22 17.5228 22 12C22 6.47715 17.5228 2 12 2C6.47715 2 2 6.47715 2 12Z" stroke="#667085" stroke-width="2" stroke-linecap="round" stroke-linejoin="round"/>
</svg>
