<svg width="24" height="24" viewBox="0 0 24 24" fill="none" xmlns="http://www.w3.org/2000/svg">
<path d="M2 15L3.5 10.5M3.5 10.5L5.07692 6H6.91886C7.9427 6 8.66565 7.00305 8.34189 7.97434L7.95585 9.13246C7.68362 9.94914 6.91934 10.5 6.05848 10.5H3.5ZM21.4872 7.1962C21 6 19.5942 6.05553 18.4103 7.1962C15.5 10 14.5 15 18.4103 15C20.3599 14.7373 21 13 20.7179 10.7848M19.5 11L20.7179 10.7848M22 10.5L20.7179 10.7848" stroke="black" stroke-width="2" stroke-linecap="round" stroke-linejoin="round"/>
<path d="M18.9998 18.0001C13.5639 18.0001 11.6783 16.6553 10.7947 12.5001M10.7947 12.5001C10.2414 10.6857 10.0639 9.37459 11.8204 8.9906C14.0639 8.5001 14.0391 11.8229 10.7947 12.5001ZM10.7947 12.5001C5.06394 13.6963 7.56394 18.5001 10.7947 16.1678L12.846 14.3735" stroke="#667085" stroke-width="2" stroke-linecap="round" stroke-linejoin="round"/>
</svg>
