<svg width="24" height="24" viewBox="0 0 24 24" fill="none" xmlns="http://www.w3.org/2000/svg">
<path d="M16.4436 9.03715V8.05566C16.4436 7.77952 16.2197 7.55566 15.9436 7.55566H11.9991M7.55469 9.03715V8.05566C7.55469 7.77952 7.77855 7.55566 8.05469 7.55566H11.9991M11.9991 7.55566V16.4446M11.9991 16.4446H10.5177M11.9991 16.4446H13.4806M16.4436 12.6174L15.9497 12.1236M16.4436 12.6174L15.9497 13.1112M16.4436 12.6174H9.53M8.04851 12.6174L7.55469 12.1236M8.04851 12.6174L7.55469 13.1112M8.04851 12.6174H9.53M9.53 12.6174L9.03617 12.1236M9.53 12.6174L9.03617 13.1112" stroke="black" stroke-width="2" stroke-linecap="round" stroke-linejoin="round"/>
<path d="M2 12C2 17.5228 6.47715 22 12 22C17.5228 22 22 17.5228 22 12C22 6.47715 17.5228 2 12 2C6.47715 2 2 6.47715 2 12Z" stroke="#667085" stroke-width="2" stroke-linecap="round" stroke-linejoin="round"/>
</svg>
