<svg width="24" height="24" viewBox="0 0 24 24" fill="none" xmlns="http://www.w3.org/2000/svg">
<path d="M5.99969 20.0003C6.00001 16.3527 5.85726 14.0369 6.99969 12.5659M17.9997 20.0003C17.9994 16.3527 18.1421 14.0369 16.9997 12.5659" stroke="#667085" stroke-width="2" stroke-linecap="round" stroke-linejoin="round"/>
<path d="M7 11.4344C5.85757 9.96346 6.00031 7.64764 6 4C3.99264 5.06737 3.13973 5.8322 2 7.6056C3.14018 9.9181 4.93037 11.5714 7 12.5656C12.1911 15.0591 19.1402 13.4058 22 7.6056C20.8603 5.8322 20.0073 5.06737 18 4C17.9997 7.64764 18.1424 9.96346 17 11.4344" stroke="black" stroke-width="2" stroke-linecap="round" stroke-linejoin="round"/>
<path d="M6 20.0002C3.99264 18.9329 3.13973 18.168 2 16.3946C6 8.28185 18 8.28191 22 16.3946C20.8603 18.168 20.0073 18.9329 18 20.0002" stroke="#667085" stroke-width="2" stroke-linecap="round" stroke-linejoin="round"/>
</svg>
