<svg width="24" height="24" viewBox="0 0 24 24" fill="none" xmlns="http://www.w3.org/2000/svg">
<path d="M5 6.34276L9 20.488L15 3.51221M19 6.34276L15 20.488L9 3.51221" stroke="#667085" stroke-width="2" stroke-linecap="round" stroke-linejoin="round"/>
<path d="M3 12C3 9.8567 3.7492 7.88839 5 6.34267C6.03608 5.06229 7.41632 4.07187 9 3.51212C9.93834 3.18046 10.9481 3 12 3C13.0519 3 14.0617 3.18046 15 3.51212C15.3434 3.63348 15.6772 3.7751 16 3.93552C17.166 4.51499 18.1886 5.3399 19 6.34267C20.2508 7.88839 21 9.8567 21 12C21 15.9187 18.4956 19.2524 15 20.4879C14.0617 20.8195 13.0519 21 12 21C10.9481 21 9.93834 20.8195 9 20.4879C5.50442 19.2524 3 15.9187 3 12Z" stroke="black" stroke-width="2" stroke-linecap="round" stroke-linejoin="round"/>
</svg>
