<svg width="24" height="24" viewBox="0 0 24 24" fill="none" xmlns="http://www.w3.org/2000/svg">
<path fill-rule="evenodd" clip-rule="evenodd" d="M12 1C5.92487 1 1 5.92487 1 12C1 18.0751 5.92487 23 12 23C16.5123 23 20.3878 20.2833 22.0843 16.4004C22.3054 15.8943 22.0744 15.3048 21.5683 15.0837C21.0622 14.8625 20.4727 15.0935 20.2516 15.5996C18.8618 18.7804 15.689 21 12 21C7.02944 21 3 16.9706 3 12C3 7.02944 7.02944 3 12 3C12.5523 3 13 2.55228 13 2C13 1.44772 12.5523 1 12 1ZM16.4004 1.91574C15.8943 1.69462 15.3048 1.92563 15.0836 2.43172C14.8625 2.93781 15.0935 3.52733 15.5996 3.74845C18.7803 5.13816 21 8.31099 21 12C21 12.5523 21.4477 13 22 13C22.5523 13 23 12.5523 23 12C23 7.48775 20.2833 3.61225 16.4004 1.91574ZM8.75 12C8.75 12.6904 8.19036 13.25 7.5 13.25C6.80964 13.25 6.25 12.6904 6.25 12C6.25 11.3096 6.80964 10.75 7.5 10.75C8.19036 10.75 8.75 11.3096 8.75 12ZM13.25 12C13.25 12.6904 12.6904 13.25 12 13.25C11.3096 13.25 10.75 12.6904 10.75 12C10.75 11.3096 11.3096 10.75 12 10.75C12.6904 10.75 13.25 11.3096 13.25 12ZM16.5 13.25C17.1904 13.25 17.75 12.6904 17.75 12C17.75 11.3096 17.1904 10.75 16.5 10.75C15.8096 10.75 15.25 11.3096 15.25 12C15.25 12.6904 15.8096 13.25 16.5 13.25Z" fill="black"/>
</svg>
