<svg width="24" height="24" viewBox="0 0 24 24" fill="none" xmlns="http://www.w3.org/2000/svg">
<path fill-rule="evenodd" clip-rule="evenodd" d="M6 2C3.79086 2 2 3.79086 2 6V12C2 12.5523 2.44772 13 3 13C3.55228 13 4 12.5523 4 12V6C4 4.89543 4.89543 4 6 4H13C13.5523 4 14 3.55228 14 3C14 2.44772 13.5523 2 13 2H6ZM17 2C16.4477 2 16 2.44772 16 3C16 3.55228 16.4477 4 17 4H18C19.1046 4 20 4.89543 20 6V18C20 19.1046 19.1046 20 18 20H6C4.89543 20 4 19.1046 4 18V16C4 15.4477 3.55228 15 3 15C2.44772 15 2 15.4477 2 16V18C2 20.2091 3.79086 22 6 22H18C20.2091 22 22 20.2091 22 18V6C22 3.79086 20.2091 2 18 2H17ZM8.75 12C8.75 12.6904 8.19036 13.25 7.5 13.25C6.80964 13.25 6.25 12.6904 6.25 12C6.25 11.3096 6.80964 10.75 7.5 10.75C8.19036 10.75 8.75 11.3096 8.75 12ZM13.25 12C13.25 12.6904 12.6904 13.25 12 13.25C11.3096 13.25 10.75 12.6904 10.75 12C10.75 11.3096 11.3096 10.75 12 10.75C12.6904 10.75 13.25 11.3096 13.25 12ZM16.5 13.25C17.1904 13.25 17.75 12.6904 17.75 12C17.75 11.3096 17.1904 10.75 16.5 10.75C15.8096 10.75 15.25 11.3096 15.25 12C15.25 12.6904 15.8096 13.25 16.5 13.25Z" fill="black"/>
</svg>
