<svg width="24" height="24" viewBox="0 0 24 24" fill="none" xmlns="http://www.w3.org/2000/svg">
<path fill-rule="evenodd" clip-rule="evenodd" d="M12 1C5.92487 1 1 5.92487 1 12C1 18.0751 5.92487 23 12 23C16.5123 23 20.3878 20.2833 22.0843 16.4004C22.3054 15.8943 22.0744 15.3048 21.5683 15.0837C21.0622 14.8625 20.4727 15.0935 20.2516 15.5996C18.8618 18.7804 15.689 21 12 21C7.02944 21 3 16.9706 3 12C3 7.02944 7.02944 3 12 3C12.5523 3 13 2.55228 13 2C13 1.44772 12.5523 1 12 1ZM16.4004 1.91574C15.8943 1.69462 15.3048 1.92563 15.0836 2.43172C14.8625 2.93781 15.0935 3.52733 15.5996 3.74845C18.7803 5.13816 21 8.31099 21 12C21 12.5523 21.4477 13 22 13C22.5523 13 23 12.5523 23 12C23 7.48775 20.2833 3.61225 16.4004 1.91574ZM7.46568 11.6321C8.75095 10.0079 10.4028 9.25 12 9.25C13.5972 9.25 15.249 10.0079 16.5343 11.6321C16.7049 11.8476 16.7049 12.1524 16.5343 12.3679C15.249 13.9921 13.5972 14.75 12 14.75C10.4028 14.75 8.75095 13.9921 7.46568 12.3679C7.29511 12.1524 7.29511 11.8476 7.46568 11.6321ZM18.1027 10.391C16.4742 8.33312 14.2644 7.25 12 7.25C9.73556 7.25 7.5258 8.33312 5.89734 10.391C5.15122 11.3338 5.15122 12.6662 5.89734 13.609C7.5258 15.6669 9.73556 16.75 12 16.75C14.2644 16.75 16.4742 15.6669 18.1027 13.609C18.8488 12.6662 18.8488 11.3338 18.1027 10.391ZM14 12C14 13.1046 13.1046 14 12 14C10.8954 14 10 13.1046 10 12C10 11.887 10.0094 11.7763 10.0274 11.6684C10.0425 11.5775 10.169 11.564 10.2275 11.6351C10.4109 11.8579 10.6889 12 11 12C11.5523 12 12 11.5523 12 11C12 10.6889 11.8579 10.4109 11.6351 10.2275C11.564 10.169 11.5775 10.0425 11.6684 10.0274C11.7763 10.0094 11.887 10 12 10C13.1046 10 14 10.8954 14 12Z" fill="black"/>
</svg>
