<svg width="24" height="24" viewBox="0 0 24 24" fill="none" xmlns="http://www.w3.org/2000/svg">
<path fill-rule="evenodd" clip-rule="evenodd" d="M6 2C3.79086 2 2 3.79086 2 6V12C2 12.5523 2.44772 13 3 13C3.55228 13 4 12.5523 4 12V6C4 4.89543 4.89543 4 6 4H13C13.5523 4 14 3.55228 14 3C14 2.44772 13.5523 2 13 2H6ZM17 2C16.4477 2 16 2.44772 16 3C16 3.55228 16.4477 4 17 4H18C19.1046 4 20 4.89543 20 6V18C20 19.1046 19.1046 20 18 20H6C4.89543 20 4 19.1046 4 18V16C4 15.4477 3.55228 15 3 15C2.44772 15 2 15.4477 2 16V18C2 20.2091 3.79086 22 6 22H18C20.2091 22 22 20.2091 22 18V6C22 3.79086 20.2091 2 18 2H17ZM7.46568 11.6321C8.75095 10.0079 10.4028 9.25 12 9.25C13.5972 9.25 15.2491 10.0079 16.5343 11.6321C16.7049 11.8476 16.7049 12.1524 16.5343 12.3679C16.2711 12.7005 15.9928 12.9963 15.7035 13.2563C15.2928 13.6255 15.2591 14.2578 15.6283 14.6685C15.9975 15.0792 16.6298 15.1129 17.0405 14.7437C17.4163 14.4059 17.7716 14.0273 18.1027 13.609C18.8488 12.6662 18.8488 11.3338 18.1027 10.391C16.4742 8.33312 14.2644 7.25 12 7.25C9.73556 7.25 7.5258 8.33312 5.89734 10.391C5.15122 11.3338 5.15122 12.6662 5.89734 13.609C7.81063 16.0268 10.5235 17.0927 13.164 16.6538C13.7088 16.5632 14.077 16.0481 13.9865 15.5033C13.8959 14.9585 13.3808 14.5903 12.836 14.6808C10.9799 14.9894 8.97038 14.2694 7.46568 12.3679C7.29511 12.1524 7.29511 11.8476 7.46568 11.6321ZM14 12C14 13.1046 13.1046 14 12 14C10.8954 14 10 13.1046 10 12C10 11.887 10.0094 11.7763 10.0274 11.6684C10.0425 11.5775 10.169 11.564 10.2275 11.6351C10.4109 11.8579 10.6889 12 11 12C11.5523 12 12 11.5523 12 11C12 10.6889 11.8579 10.4109 11.6351 10.2275C11.564 10.169 11.5775 10.0425 11.6684 10.0274C11.7763 10.0094 11.887 10 12 10C13.1046 10 14 10.8954 14 12Z" fill="black"/>
</svg>
