<svg width="24" height="24" viewBox="0 0 24 24" fill="none" xmlns="http://www.w3.org/2000/svg">
<path fill-rule="evenodd" clip-rule="evenodd" d="M9.42413 7.58963C10.9476 6.87675 12.5579 6.81253 14.0895 7.38488C15.6317 7.96121 17.1569 9.20882 18.4197 11.2222C18.7174 11.697 18.7174 12.3032 18.4193 12.7784C16.5922 15.6913 14.2258 17 12.0003 17C9.77479 17 7.40845 15.6913 5.58135 12.7784C5.28299 12.3028 5.28288 11.6975 5.58041 11.2231C5.94908 10.6351 6.34069 10.1119 6.74868 9.65154C7.115 9.23822 7.07691 8.60621 6.6636 8.23988C6.25029 7.87356 5.61827 7.91165 5.25195 8.32496C4.76639 8.8728 4.30945 9.48524 3.88598 10.1606C3.1802 11.2861 3.18191 12.717 3.88707 13.8412C5.98253 17.1819 8.92101 19 12.0003 19C15.0796 19 18.0181 17.1819 20.1136 13.8412C20.819 12.7166 20.8196 11.2846 20.114 10.1595C18.6665 7.8516 16.8215 6.27074 14.7896 5.51142C12.747 4.74811 10.5792 4.84105 8.57649 5.77814C8.07626 6.01221 7.8605 6.60748 8.09457 7.10771C8.32863 7.60794 8.9239 7.8237 9.42413 7.58963ZM11.9156 10.0018C11.9437 10.0006 11.9719 10 12.0003 10C13.1049 10 14.0003 10.8954 14.0003 12C14.0003 12.5523 14.448 13 15.0003 13C15.5526 13 16.0003 12.5523 16.0003 12C16.0003 9.79087 14.2095 8.00001 12.0003 8.00001C9.79117 8.00001 8.00031 9.79087 8.00031 12C8.00031 14.2091 9.79117 16 12.0003 16C12.5526 16 13.0003 15.5523 13.0003 15C13.0003 14.4477 12.5526 14 12.0003 14C10.8957 14 10.0003 13.1046 10.0003 12C10.0003 11.9716 10.0009 11.9434 10.0021 11.9153C10.158 11.9702 10.3257 12 10.5003 12C11.3287 12 12.0003 11.3284 12.0003 10.5C12.0003 10.3253 11.9705 10.1577 11.9156 10.0018Z" fill="black"/>
</svg>
