<svg width="24" height="24" viewBox="0 0 24 24" fill="none" xmlns="http://www.w3.org/2000/svg">
<path d="M18 3C19.6569 3 21 4.34315 21 6V18C21 19.6569 19.6569 21 18 21H6C4.34315 21 3 19.6569 3 18M3 16V18M3 12V6C3 4.34315 4.34315 3 6 3H13M18 3H17M11.9969 9.479C11.0972 8.40759 9.59688 8.11939 8.46961 9.10048C7.34234 10.0816 7.18364 11.7219 8.06889 12.8822C8.69341 13.7008 10.3917 15.2898 11.3379 16.1547C11.7125 16.4971 12.2814 16.4971 12.6559 16.1547C13.6021 15.2898 15.3004 13.7008 15.9249 12.8822C16.8102 11.7219 16.6709 10.0712 15.5242 9.10048C14.3776 8.12971 12.8966 8.40759 11.9969 9.479Z" stroke="black" stroke-width="2" stroke-linecap="round" stroke-linejoin="round"/>
</svg>
