<svg width="24" height="24" viewBox="0 0 24 24" fill="none" xmlns="http://www.w3.org/2000/svg">
<path fill-rule="evenodd" clip-rule="evenodd" d="M11.27 4.27902C11.6662 3.90699 12.3332 3.90699 12.7295 4.27902L12.7295 4.27903L14.3153 5.76791C14.7179 6.14593 15.3508 6.12598 15.7288 5.72334C16.1068 5.3207 16.0869 4.68785 15.6842 4.30983L14.0984 2.82096L14.0984 2.82095C12.9326 1.72635 11.0669 1.72635 9.90103 2.82096L4.19392 8.1793L4.19387 8.17936L4.19381 8.17941L2.31547 9.94323C1.91286 10.3213 1.89296 10.9541 2.27102 11.3567C2.46772 11.5662 2.7334 11.6721 2.99973 11.6722L2.99976 13C2.99977 13.5523 3.44749 14 3.99978 14C4.55206 14 4.99977 13.5523 4.99976 13L4.99972 10.9V10.9C4.99973 10.4397 5.19404 9.98402 5.5625 9.63772L5.56288 9.63737L5.56294 9.63732L5.56299 9.63726L11.27 4.27902ZM18.8381 7.27098C18.4355 6.89294 17.8026 6.91288 17.4246 7.3155C17.0466 7.71813 17.0665 8.35098 17.4691 8.72901L18.4365 9.63735L18.4366 9.63737L18.4374 9.63816C18.8057 9.98432 18.9997 10.4396 18.9997 10.9V18.1833C18.9997 19.1282 18.1646 20 16.9997 20H14.9997H8.9997H6.99972C5.83483 20 4.99974 19.1282 4.99972 18.1834V18.1833L4.99976 17C4.99978 16.4477 4.55208 16 3.99979 16C3.44751 16 2.99978 16.4477 2.99976 17L2.99972 18.1833V18.1833C2.99972 20.3497 4.85092 22 6.99972 22H8.9997H14.9997H16.9997C19.1485 22 20.9997 20.3497 20.9997 18.1833V11.6722C21.2662 11.6722 21.532 11.5663 21.7288 11.3567C22.1068 10.9541 22.0868 10.3212 21.6842 9.94318L19.8055 8.17932L19.8055 8.17931L18.8381 7.27098ZM10.9997 14C10.4474 14 9.9997 14.4477 9.9997 15V17C9.9997 17.5523 10.4474 18 10.9997 18H12.9997C13.552 18 13.9997 17.5523 13.9997 17V15C13.9997 14.4477 13.552 14 12.9997 14H10.9997Z" fill="black"/>
</svg>
