<svg width="24" height="24" viewBox="0 0 24 24" fill="none" xmlns="http://www.w3.org/2000/svg">
<path d="M4.8784 8.90834L10.5855 3.54999C11.3666 2.81667 12.6329 2.81667 13.4139 3.54999L14.9995 5.03887M4.8784 8.90834C4.31599 9.43653 3.99972 10.1531 3.99972 10.9L3.99951 13M4.8784 8.90834L3 10.6722M19.121 8.90834C19.6836 9.43656 19.9997 10.153 19.9997 10.9V18.1833C19.9997 19.7389 18.6566 21 16.9997 21H14.9997H8.99969H6.99972C5.34286 21 3.99972 19.7389 3.99972 18.1833L3.99951 17M19.121 8.90834L20.9997 10.6722M19.121 8.90834L18.1534 8M14.9998 13.5C14.9998 15.1569 13.6566 16.5 11.9998 16.5C10.3429 16.5 8.99976 15.1569 8.99976 13.5C8.99976 11.8431 10.3429 10.5 11.9998 10.5C13.6566 10.5 14.9998 11.8431 14.9998 13.5Z" stroke="black" stroke-width="2" stroke-linecap="round"/>
</svg>
