<svg width="24" height="24" viewBox="0 0 24 24" fill="none" xmlns="http://www.w3.org/2000/svg">
<g clip-path="url(#clip0_2033_47606)">
<path fill-rule="evenodd" clip-rule="evenodd" d="M1 12C1 5.92487 5.92487 1 12 1C12.5523 1 13 1.44772 13 2C13 2.55228 12.5523 3 12 3C7.02944 3 3 7.02944 3 12C3 16.9706 7.02944 21 12 21C15.689 21 18.8618 18.7804 20.2516 15.5996C20.4727 15.0935 21.0622 14.8625 21.5683 15.0837C22.0744 15.3048 22.3054 15.8943 22.0843 16.4004C20.3878 20.2833 16.5123 23 12 23C5.92487 23 1 18.0751 1 12ZM15.0836 2.43172C15.3048 1.92563 15.8943 1.69462 16.4004 1.91574C20.2833 3.61225 23 7.48775 23 12C23 12.5523 22.5523 13 22 13C21.4477 13 21 12.5523 21 12C21 8.31099 18.7803 5.13816 15.5996 3.74845C15.0935 3.52733 14.8625 2.93781 15.0836 2.43172ZM12 10C12.5523 10 13 10.4477 13 11V17C13 17.5523 12.5523 18 12 18C11.4477 18 11 17.5523 11 17V11C11 10.4477 11.4477 10 12 10ZM13 7C13 7.55228 12.5523 8 12 8C11.4477 8 11 7.55228 11 7C11 6.44772 11.4477 6 12 6C12.5523 6 13 6.44772 13 7ZM40.9993 10.3636V18H42.4858V10.3636H40.9993ZM41.0838 8.92685C41.2694 9.09919 41.4915 9.18537 41.75 9.18537C42.0085 9.18537 42.2289 9.09919 42.4112 8.92685C42.5968 8.75118 42.6896 8.54238 42.6896 8.30043C42.6896 8.05516 42.5968 7.84635 42.4112 7.67401C42.2289 7.49834 42.0085 7.41051 41.75 7.41051C41.4915 7.41051 41.2694 7.49834 41.0838 7.67401C40.9015 7.84635 40.8104 8.05516 40.8104 8.30043C40.8104 8.54238 40.9015 8.75118 41.0838 8.92685ZM45.9721 18V13.4659C45.9721 13.0616 46.0484 12.7169 46.2008 12.4318C46.3566 12.1435 46.5671 11.9247 46.8322 11.7756C47.1007 11.6264 47.4073 11.5518 47.752 11.5518C48.2557 11.5518 48.6518 11.7093 48.9402 12.0241C49.2285 12.3357 49.3727 12.7682 49.3727 13.3217V18H50.8592V13.1428C50.8592 12.513 50.7515 11.9844 50.536 11.5568C50.3206 11.1293 50.0173 10.8078 49.6262 10.5923C49.2351 10.3736 48.7794 10.2642 48.2591 10.2642C47.6857 10.2642 47.21 10.3868 46.8322 10.6321C46.4577 10.8774 46.1826 11.2022 46.0069 11.6065H45.9125V10.3636H44.4856V18H45.9721ZM56.487 11.5568V10.3636H54.8414V9.67756C54.8414 9.33949 54.9177 9.08097 55.0701 8.90199C55.2259 8.72301 55.4844 8.63352 55.8457 8.63352C56.0015 8.63352 56.1341 8.64844 56.2434 8.67827C56.3528 8.70478 56.4423 8.72798 56.5119 8.74787L56.8599 7.54474C56.7572 7.50497 56.5997 7.46188 56.3876 7.41548C56.1755 7.36577 55.9203 7.34091 55.622 7.34091C55.2176 7.34091 54.8431 7.42045 54.4984 7.57955C54.1537 7.73532 53.877 7.9723 53.6681 8.29048C53.4593 8.60535 53.3549 9.00142 53.3549 9.47869V10.3636H52.1717V11.5568H53.3549V18H54.8414V11.5568H56.487ZM59.0623 17.6619C59.5959 17.9901 60.2207 18.1541 60.9366 18.1541C61.6525 18.1541 62.2773 17.9901 62.8109 17.6619C63.3445 17.3338 63.7588 16.8748 64.0538 16.2848C64.3488 15.6948 64.4963 15.0054 64.4963 14.2166C64.4963 13.4245 64.3488 12.7318 64.0538 12.1385C63.7588 11.5452 63.3445 11.0845 62.8109 10.7564C62.2773 10.4283 61.6525 10.2642 60.9366 10.2642C60.2207 10.2642 59.5959 10.4283 59.0623 10.7564C58.5287 11.0845 58.1144 11.5452 57.8194 12.1385C57.5244 12.7318 57.377 13.4245 57.377 14.2166C57.377 15.0054 57.5244 15.6948 57.8194 16.2848C58.1144 16.8748 58.5287 17.3338 59.0623 17.6619ZM62.095 16.5384C61.7901 16.7836 61.4056 16.9062 60.9416 16.9062C60.4743 16.9062 60.0865 16.7836 59.7782 16.5384C59.4733 16.2931 59.2463 15.9666 59.0971 15.5589C58.9513 15.1513 58.8784 14.7022 58.8784 14.2116C58.8784 13.7244 58.9513 13.277 59.0971 12.8693C59.2463 12.4583 59.4733 12.1286 59.7782 11.88C60.0865 11.6314 60.4743 11.5071 60.9416 11.5071C61.4056 11.5071 61.7901 11.6314 62.095 11.88C62.3999 12.1286 62.6253 12.4583 62.7711 12.8693C62.9203 13.277 62.9949 13.7244 62.9949 14.2116C62.9949 14.7022 62.9203 15.1513 62.7711 15.5589C62.6253 15.9666 62.3999 16.2931 62.095 16.5384ZM70.6548 14.3409V13.0533H66.1406V14.3409H70.6548ZM73.9435 17.652C74.4772 17.9867 75.1135 18.1541 75.8526 18.1541C76.4558 18.1541 76.9812 18.0431 77.4286 17.821C77.8794 17.599 78.239 17.294 78.5075 16.9062C78.7759 16.5185 78.9367 16.0777 78.9897 15.5838H77.543C77.48 15.8589 77.369 16.0942 77.2099 16.2898C77.0541 16.4853 76.8602 16.6361 76.6282 16.7422C76.3995 16.8449 76.1443 16.8963 75.8626 16.8963C75.4416 16.8963 75.0754 16.7853 74.7638 16.5632C74.4556 16.3411 74.217 16.0279 74.0479 15.6236C73.8789 15.2192 73.7944 14.7386 73.7944 14.1818C73.7944 13.6383 73.8806 13.1676 74.0529 12.7699C74.2253 12.3688 74.4656 12.0606 74.7738 11.8452C75.0853 11.6264 75.4483 11.517 75.8626 11.517C76.3365 11.517 76.7144 11.6463 76.9961 11.9048C77.2811 12.1634 77.4634 12.4716 77.543 12.8295H78.9897C78.9367 12.3158 78.7693 11.8667 78.4876 11.4822C78.2092 11.0978 77.8429 10.7995 77.3888 10.5874C76.9348 10.3719 76.4177 10.2642 75.8377 10.2642C75.1185 10.2642 74.4937 10.4316 73.9634 10.7663C73.4331 11.1011 73.0221 11.5668 72.7305 12.1634C72.4388 12.7566 72.293 13.4411 72.293 14.2166C72.293 14.9822 72.4355 15.6617 72.7205 16.255C73.0056 16.8482 73.4132 17.3139 73.9435 17.652ZM82.0659 10.3636H80.5794V18H82.0659V10.3636ZM80.6639 8.92685C80.8495 9.09919 81.0716 9.18537 81.3301 9.18537C81.5886 9.18537 81.809 9.09919 81.9913 8.92685C82.1769 8.75118 82.2697 8.54238 82.2697 8.30043C82.2697 8.05516 82.1769 7.84635 81.9913 7.67401C81.809 7.49834 81.5886 7.41051 81.3301 7.41051C81.0716 7.41051 80.8495 7.49834 80.6639 7.67401C80.4816 7.84635 80.3904 8.05516 80.3904 8.30043C80.3904 8.54238 80.4816 8.75118 80.6639 8.92685ZM85.5025 10.3636H84.0657V18H85.5522V13.3366C85.5522 13.0052 85.6317 12.7102 85.7908 12.4517C85.9499 12.1899 86.1654 11.986 86.4371 11.8402C86.7122 11.6911 87.0255 11.6165 87.3768 11.6165C87.5292 11.6165 87.6817 11.6281 87.8342 11.6513C87.9866 11.6712 88.0927 11.6894 88.1523 11.706V10.2841C88.0794 10.2741 87.9783 10.2659 87.8491 10.2592C87.7231 10.2526 87.6138 10.2493 87.521 10.2493C87.0735 10.2493 86.6725 10.3686 86.3178 10.6072C85.9665 10.8426 85.7212 11.1657 85.582 11.5767H85.5025V10.3636ZM90.4728 17.652C91.0065 17.9867 91.6428 18.1541 92.3819 18.1541C92.9851 18.1541 93.5105 18.0431 93.9579 17.821C94.4087 17.599 94.7683 17.294 95.0368 16.9062C95.3052 16.5185 95.466 16.0777 95.519 15.5838H94.0723C94.0093 15.8589 93.8983 16.0942 93.7392 16.2898C93.5834 16.4853 93.3895 16.6361 93.1575 16.7422C92.9288 16.8449 92.6736 16.8963 92.3919 16.8963C91.9709 16.8963 91.6047 16.7853 91.2931 16.5632C90.9849 16.3411 90.7463 16.0279 90.5772 15.6236C90.4082 15.2192 90.3237 14.7386 90.3237 14.1818C90.3237 13.6383 90.4099 13.1676 90.5822 12.7699C90.7546 12.3688 90.9949 12.0606 91.3031 11.8452C91.6146 11.6264 91.9776 11.517 92.3919 11.517C92.8658 11.517 93.2437 11.6463 93.5254 11.9048C93.8104 12.1634 93.9927 12.4716 94.0723 12.8295H95.519C95.466 12.3158 95.2986 11.8667 95.0169 11.4822C94.7385 11.0978 94.3722 10.7995 93.9181 10.5874C93.4641 10.3719 92.947 10.2642 92.367 10.2642C91.6478 10.2642 91.023 10.4316 90.4927 10.7663C89.9624 11.1011 89.5514 11.5668 89.2598 12.1634C88.9681 12.7566 88.8223 13.4411 88.8223 14.2166C88.8223 14.9822 88.9648 15.6617 89.2498 16.255C89.5349 16.8482 89.9425 17.3139 90.4728 17.652ZM98.5952 18V7.81818H97.1087V18H98.5952ZM101.942 17.6719C102.486 17.9934 103.134 18.1541 103.886 18.1541C104.443 18.1541 104.939 18.0696 105.373 17.9006C105.81 17.7282 106.173 17.4879 106.461 17.1797C106.753 16.8681 106.955 16.5052 107.068 16.0909L105.661 15.8374C105.572 16.076 105.442 16.2765 105.273 16.4389C105.104 16.6013 104.904 16.724 104.672 16.8068C104.44 16.8864 104.183 16.9261 103.901 16.9261C103.467 16.9261 103.087 16.8333 102.763 16.6477C102.438 16.4588 102.184 16.1854 102.002 15.8274C101.835 15.4941 101.746 15.0947 101.735 14.6293H107.162V14.1023C107.162 13.4096 107.07 12.8213 106.884 12.3374C106.698 11.8501 106.445 11.4541 106.123 11.1491C105.802 10.8442 105.439 10.6205 105.035 10.478C104.63 10.3355 104.213 10.2642 103.782 10.2642C103.073 10.2642 102.453 10.4316 101.922 10.7663C101.395 11.1011 100.984 11.5668 100.689 12.1634C100.398 12.7599 100.252 13.4493 100.252 14.2315C100.252 15.0237 100.398 15.7147 100.689 16.3047C100.984 16.8913 101.402 17.3471 101.942 17.6719ZM101.737 13.5156C101.755 13.1874 101.837 12.8808 101.982 12.5959C102.151 12.2678 102.39 12.0026 102.698 11.8004C103.01 11.5949 103.374 11.4922 103.792 11.4922C104.176 11.4922 104.511 11.58 104.796 11.7557C105.084 11.9313 105.308 12.1716 105.467 12.4766C105.626 12.7782 105.706 13.1245 105.706 13.5156H101.737Z" fill="black"/>
</g>
<defs>
<clipPath id="clip0_2033_47606">
<rect width="24" height="24" fill="white"/>
</clipPath>
</defs>
</svg>
