<svg width="24" height="24" viewBox="0 0 24 24" fill="none" xmlns="http://www.w3.org/2000/svg">
<path fill-rule="evenodd" clip-rule="evenodd" d="M6 2C3.79086 2 2 3.79086 2 6V12C2 12.5523 2.44772 13 3 13C3.55228 13 4 12.5523 4 12V6C4 4.89543 4.89543 4 6 4H13C13.5523 4 14 3.55228 14 3C14 2.44772 13.5523 2 13 2H6ZM17 2C16.4477 2 16 2.44772 16 3C16 3.55228 16.4477 4 17 4H18C19.1046 4 20 4.89543 20 6V18C20 19.1046 19.1046 20 18 20H6C4.89543 20 4 19.1046 4 18V16C4 15.4477 3.55228 15 3 15C2.44772 15 2 15.4477 2 16V18C2 20.2091 3.79086 22 6 22H18C20.2091 22 22 20.2091 22 18V6C22 3.79086 20.2091 2 18 2H17ZM13 10C13 9.44772 12.5523 9 12 9C11.4477 9 11 9.44772 11 10V17C11 17.5523 11.4477 18 12 18C12.5523 18 13 17.5523 13 17V10ZM12 8C12.5523 8 13 7.55228 13 7C13 6.44772 12.5523 6 12 6C11.4477 6 11 6.44772 11 7C11 7.55228 11.4477 8 12 8Z" fill="black"/>
</svg>
