<svg width="24" height="24" viewBox="0 0 24 24" fill="none" xmlns="http://www.w3.org/2000/svg">
<path d="M6 12L5.24378 12.7507C3.5854 14.4091 3.5854 17.0978 5.24378 18.7562C6.90216 20.4146 9.59093 20.4146 11.2493 18.7562L12 18M12 6L12.7507 5.24378C13.123 4.8715 13.5472 4.58279 14 4.37765M18 12L18.7562 11.2493C20.4146 9.59093 20.4146 6.90216 18.7562 5.24378C18.5227 5.01023 18.2687 4.80957 18 4.6418M5 5L3 3M19 19L21 21M10 4V2M4 9H2M14 22V20M22 14H20" stroke="black" stroke-width="2" stroke-linecap="round"/>
</svg>
