<svg width="24" height="24" viewBox="0 0 24 24" fill="none" xmlns="http://www.w3.org/2000/svg">
<path fill-rule="evenodd" clip-rule="evenodd" d="M6 2C3.79086 2 2 3.79086 2 6V12C2 12.5523 2.44772 13 3 13C3.55228 13 4 12.5523 4 12V6C4 4.89543 4.89543 4 6 4H13C13.5523 4 14 3.55228 14 3C14 2.44772 13.5523 2 13 2H6ZM17 2C16.4477 2 16 2.44772 16 3C16 3.55228 16.4477 4 17 4H18C19.1046 4 20 4.89543 20 6V18C20 19.1046 19.1046 20 18 20H6C4.89543 20 4 19.1046 4 18V16C4 15.4477 3.55228 15 3 15C2.44772 15 2 15.4477 2 16V18C2 20.2091 3.79086 22 6 22H18C20.2091 22 22 20.2091 22 18V6C22 3.79086 20.2091 2 18 2H17ZM11 10C11 9.44772 11.4477 9 12 9C12.5523 9 13 9.44772 13 10V12H11V10ZM9 12V10C9 8.34315 10.3431 7 12 7C13.6569 7 15 8.34315 15 10V12C15.5523 12 16 12.4477 16 13V16C16 16.5523 15.5523 17 15 17H9C8.44772 17 8 16.5523 8 16V13C8 12.4477 8.44772 12 9 12ZM13 14.5C13 15.0523 12.5523 15.5 12 15.5C11.4477 15.5 11 15.0523 11 14.5C11 13.9477 11.4477 13.5 12 13.5C12.5523 13.5 13 13.9477 13 14.5Z" fill="black"/>
</svg>
