<svg width="24" height="24" viewBox="0 0 24 24" fill="none" xmlns="http://www.w3.org/2000/svg">
<path fill-rule="evenodd" clip-rule="evenodd" d="M12 1C5.92487 1 1 5.92487 1 12C1 18.0751 5.92487 23 12 23C16.5123 23 20.3878 20.2833 22.0843 16.4004C22.3054 15.8943 22.0744 15.3048 21.5683 15.0837C21.0622 14.8625 20.4727 15.0935 20.2516 15.5996C18.8618 18.7804 15.689 21 12 21C7.02944 21 3 16.9706 3 12C3 7.02944 7.02944 3 12 3C12.5523 3 13 2.55228 13 2C13 1.44772 12.5523 1 12 1ZM16.4004 1.91574C15.8943 1.69462 15.3048 1.92563 15.0836 2.43172C14.8625 2.93781 15.0935 3.52733 15.5996 3.74845C18.7803 5.13816 21 8.31099 21 12C21 12.5523 21.4477 13 22 13C22.5523 13 23 12.5523 23 12C23 7.48775 20.2833 3.61225 16.4004 1.91574ZM11 10C11 9.44772 11.4477 9 12 9C12.5523 9 13 9.44772 13 10V12H11V10ZM9 12V10C9 8.34315 10.3431 7 12 7C13.6569 7 15 8.34315 15 10V12C15.5523 12 16 12.4477 16 13V16C16 16.5523 15.5523 17 15 17H9C8.44772 17 8 16.5523 8 16V13C8 12.4477 8.44772 12 9 12ZM13 14.5C13 15.0523 12.5523 15.5 12 15.5C11.4477 15.5 11 15.0523 11 14.5C11 13.9477 11.4477 13.5 12 13.5C12.5523 13.5 13 13.9477 13 14.5Z" fill="black"/>
</svg>
