<svg width="24" height="24" viewBox="0 0 24 24" fill="none" xmlns="http://www.w3.org/2000/svg">
<path fill-rule="evenodd" clip-rule="evenodd" d="M9 8C9 6.34315 10.3431 5 12 5C13.6569 5 15 6.34315 15 8V11H9V8ZM17 8V11C18.6569 11 20 12.3431 20 14C20 14.5523 19.5523 15 19 15C18.4477 15 18 14.5523 18 14C18 13.4477 17.5523 13 17 13H16H8H7C6.44772 13 6 13.4477 6 14V18C6 18.5523 6.44772 19 7 19H8C8.55228 19 9 19.4477 9 20C9 20.5523 8.55228 21 8 21H7C5.34315 21 4 19.6569 4 18V14C4 12.3431 5.34315 11 7 11V8C7 5.23858 9.23858 3 12 3C14.7614 3 17 5.23858 17 8ZM20 18C20 17.4477 19.5523 17 19 17C18.4477 17 18 17.4477 18 18C18 18.5523 17.5523 19 17 19H12C11.4477 19 11 19.4477 11 20C11 20.5523 11.4477 21 12 21H17C18.6569 21 20 19.6569 20 18ZM12 17.25C12.6904 17.25 13.25 16.6904 13.25 16C13.25 15.3096 12.6904 14.75 12 14.75C11.3096 14.75 10.75 15.3096 10.75 16C10.75 16.6904 11.3096 17.25 12 17.25Z" fill="black"/>
</svg>
