<svg width="24" height="24" viewBox="0 0 24 24" fill="none" xmlns="http://www.w3.org/2000/svg">
<path fill-rule="evenodd" clip-rule="evenodd" d="M8.92739 8.54142C9.29251 7.63812 9.71301 7.00915 10.1923 6.60785C10.6497 6.2248 11.2181 6 12.0003 6C12.2739 6 12.5291 6.03168 12.7653 6.08878C13.3022 6.21852 13.8425 5.88851 13.9723 5.35169C14.102 4.81486 13.772 4.27449 13.2352 4.14475C12.8424 4.04981 12.4293 4 12.0003 4C10.7824 4 9.75081 4.36895 8.90827 5.07444C8.08752 5.76169 7.50802 6.71605 7.07314 7.79191C6.86617 8.30395 7.11347 8.88682 7.62551 9.09379C8.13755 9.30076 8.72042 9.05346 8.92739 8.54142ZM16.8538 7.75948C16.7209 7.22341 16.1787 6.89652 15.6426 7.02936C15.1065 7.16219 14.7796 7.70445 14.9125 8.24052C14.9703 8.47381 15.0003 8.71482 15.0003 8.95833C15.0003 10.0229 14.1602 10.8363 12.5624 11.5879C11.7059 11.9908 11.0106 12.7635 10.8003 13.7626L10.6884 14.294C10.5746 14.8344 10.9205 15.3648 11.4609 15.4785C12.0014 15.5923 12.5317 15.2464 12.6455 14.706L12.7574 14.1746C12.8236 13.86 13.0554 13.5662 13.4137 13.3977C15.0592 12.6237 17.0003 11.3237 17.0003 8.95833C17.0003 8.55056 16.95 8.14806 16.8538 7.75948ZM11.5002 19.75C12.1906 19.75 12.7502 19.1904 12.7502 18.5C12.7502 17.8096 12.1906 17.25 11.5002 17.25C10.8099 17.25 10.2502 17.8096 10.2502 18.5C10.2502 19.1904 10.8099 19.75 11.5002 19.75Z" fill="black"/>
</svg>
