<svg width="24" height="24" viewBox="0 0 24 24" fill="none" xmlns="http://www.w3.org/2000/svg">
<path d="M12 2C6.47715 2 2 6.47715 2 12C2 17.5228 6.47715 22 12 22C16.1006 22 19.6248 19.5318 21.1679 16M22 12C22 7.89937 19.5318 4.37521 16 2.83209M11.4187 7.38516C11.6323 6.87161 12.3597 6.87161 12.5733 7.38516L13.5605 9.75868C13.65 9.97383 13.8516 10.1214 14.0838 10.1415L16.4279 10.3447C16.9647 10.3913 17.1952 11.0497 16.8046 11.4209L15.0239 13.1136C14.8624 13.2671 14.7948 13.4951 14.8465 13.7119L15.4473 16.2309C15.5764 16.772 14.9878 17.1996 14.5132 16.9096L12.3219 15.5711C12.1218 15.4489 11.8702 15.4489 11.6701 15.5711L9.47882 16.9096C9.00419 17.1996 8.41567 16.772 8.54472 16.2309L9.14575 13.7111C9.19736 13.4947 9.13013 13.2672 8.96921 13.1136L7.19449 11.4201C6.80515 11.0485 7.03584 10.3914 7.57197 10.3447L9.90837 10.1416C10.1405 10.1214 10.3421 9.97388 10.4315 9.75878L11.4187 7.38516Z" stroke="black" stroke-width="2" stroke-linecap="round"/>
</svg>
