<svg width="24" height="24" viewBox="0 0 24 24" fill="none" xmlns="http://www.w3.org/2000/svg">
<path d="M11.0699 4.61606C11.4117 3.79465 12.5756 3.79465 12.9173 4.61606L14.4968 8.41245C14.6399 8.75658 14.9626 8.99258 15.334 9.02477L19.0846 9.34983C19.9435 9.42427 20.3123 10.4774 19.6874 11.0712L16.8382 13.7786C16.5798 14.0242 16.4716 14.3888 16.5544 14.7355L17.5157 18.7647C17.7222 19.63 16.7806 20.314 16.0211 19.8503L12.5151 17.7094C12.1949 17.5139 11.7923 17.5139 11.4722 17.7094L7.96612 19.8503C7.20671 20.314 6.26507 19.63 6.47154 18.7647L7.4332 14.7343C7.51578 14.3882 7.40822 14.0243 7.15073 13.7786L4.31118 11.0698C3.68824 10.4755 4.05735 9.42441 4.91516 9.34984L8.6534 9.0249" stroke="black" stroke-width="2" stroke-linecap="round"/>
</svg>
