<svg width="24" height="24" viewBox="0 0 24 24" fill="none" xmlns="http://www.w3.org/2000/svg">
<path d="M4.58557 18.7103C6.41531 20.7308 9.05941 22 11.9999 22C12.7532 22 13.487 21.9167 14.1926 21.7589M4.58557 18.7103L8.94083 11.2442M4.58557 18.7103C3.62911 17.6542 2.89518 16.3927 2.45774 15M21.5421 15C21.8396 14.053 21.9999 13.0452 21.9999 12C21.9999 9.41769 21.0211 7.06398 19.4143 5.28966M21.5421 15C20.4822 18.3746 17.6816 20.9783 14.1926 21.7589M21.5421 15H12.8884M14.1926 21.7589L9.81583 14.2558M19.4143 5.28966C17.5846 3.26919 14.9405 2 11.9999 2C11.2467 2 10.5129 2.08328 9.80728 2.24114M19.4143 5.28966L15.0591 12.7558M9.80728 2.24114C6.31827 3.02165 3.51765 5.62539 2.45774 9M9.80728 2.24114L11.7083 5.5M2.45774 9H11.1115M2.45774 9C2.25634 9.64124 2.11779 10.3103 2.04932 11M12.8884 15H11.1115C10.578 15 10.0846 14.7166 9.81583 14.2558M12.8884 15C13.4219 15 13.9152 14.7166 14.1841 14.2558L15.0591 12.7558M11.1115 9H12.8884C13.4219 9 13.9152 9.28337 14.1841 9.74419L15.0591 11.2442C15.3315 11.7112 15.3315 12.2888 15.0591 12.7558M11.1115 9C10.578 9 10.0846 9.28337 9.81583 9.74419L8.94083 11.2442M9.81583 14.2558L8.94083 12.7558C8.66839 12.2888 8.66839 11.7112 8.94083 11.2442" stroke="black" stroke-width="2" stroke-linecap="round"/>
</svg>
