<svg width="24" height="24" viewBox="0 0 24 24" fill="none" xmlns="http://www.w3.org/2000/svg">
<path d="M15.967 12C15.9877 12.1646 15.9983 12.3323 15.9983 12.5026C15.9983 14.7103 14.2082 16.5 12 16.5C9.79178 16.5 8.00167 14.7103 8.00167 12.5026C8.00167 10.2948 9.79178 8.50511 12 8.50511C12.6993 8.50511 13.3567 8.6846 13.9285 9M2.50953 16.5L2.56506 17.2216C2.68524 18.7836 3.98802 19.9898 5.55497 19.9898L18.445 20C20.012 20 21.3148 18.7938 21.4349 17.2319L21.9917 9.99616C22.1157 8.38445 20.841 7.00831 19.2242 7.00831H18.8041C17.8603 7.00831 17.0223 6.40448 16.7238 5.50927C16.4254 4.61406 15.5874 4.01023 14.6436 4.01023L9.35643 4C8.41258 4 7.57463 4.60383 7.27616 5.49904C6.97769 6.39425 6.13974 6.99808 5.19589 6.99808H4.7758C3.15897 6.99808 1.88433 8.37423 2.00834 9.98594L2.20197 12.5026" stroke="black" stroke-width="2" stroke-linecap="round" stroke-linejoin="round"/>
</svg>
