<svg width="24" height="24" viewBox="0 0 24 24" fill="none" xmlns="http://www.w3.org/2000/svg">
<path d="M7.05 19.5177C7.3388 19.7082 7.63923 19.8826 7.95 20.0394C9.16733 20.6539 10.5433 21 12 21C13.1856 21 14.3176 20.7708 15.3542 20.3542M7.05 19.5177V19.2C7.05 17.4 8.85 16.05 10.65 16.05M7.05 19.5177C6.4001 19.0889 5.80908 18.5781 5.29168 18M18.364 18.364C19.9926 16.7353 21 14.4853 21 12C21 10.961 20.8239 9.96308 20.5 9.03451M18.364 18.364L12.7843 12.7843M18.364 18.364L22 22M5.63604 5.63604C7.26472 4.00736 9.51472 3 12 3C14.4153 3 16.6084 3.95145 18.225 5.5M5.63604 5.63604L2 2M5.63604 5.63604L9.41568 9.41568M3.64581 8.64581C3.22924 9.68239 3 10.8144 3 12C3 12.8675 3.12273 13.7063 3.35177 14.5M12.7843 12.7843C13.893 12.4483 14.7 11.4184 14.7 10.2C14.7 8.70883 13.4912 7.5 12 7.5C10.7816 7.5 9.75171 8.30702 9.41568 9.41568M12.7843 12.7843L9.41568 9.41568" stroke="black" stroke-width="2" stroke-linecap="round" stroke-linejoin="round"/>
</svg>
