<svg width="24" height="24" viewBox="0 0 24 24" fill="none" xmlns="http://www.w3.org/2000/svg">
<path d="M6.5 20.353C6.82089 20.5647 7.1547 20.7584 7.5 20.9327C8.85259 21.6154 10.3814 22 12 22C12.3375 22 12.6711 21.9833 13 21.9506M6.5 20.353V20C6.5 18 8.5 16.5 10.5 16.5H13M6.5 20.353C5.71604 19.8357 5.00919 19.2111 4.40041 18.5M15.5 18.5L17 20L20 17M21.8 14C21.9311 13.3538 22 12.6849 22 12C22 10.5778 21.7031 9.22492 21.1679 8M18.6146 4.5C16.8517 2.94409 14.5361 2 12 2C6.47715 2 2 6.47715 2 12C2 13.0452 2.16035 14.053 2.4578 15M15 10C15 11.6569 13.6569 13 12 13C10.3431 13 9 11.6569 9 10C9 8.34315 10.3431 7 12 7C13.6569 7 15 8.34315 15 10Z" stroke="black" stroke-width="2" stroke-linecap="round" stroke-linejoin="round"/>
</svg>
