<svg width="24" height="24" viewBox="0 0 24 24" fill="none" xmlns="http://www.w3.org/2000/svg">
<path d="M12 22C16.6068 22 20.486 18.8849 21.6462 14.6462M5.44652 19.5535C3.3351 17.72 2 15.0159 2 12C2 6.47715 6.47715 2 12 2C14.2516 2 16.3295 2.74418 18.001 4M5.44652 19.5535L9 16M5.44652 19.5535C6.20593 20.2129 7.06575 20.7597 8 21.1679M21.6462 14.6462C21.8768 13.8033 22 12.916 22 12C22 10.1786 21.513 8.47087 20.6622 7M21.6462 14.6462L19.5355 12.5355C17.5829 10.5829 14.4171 10.5829 12.4645 12.5355L9 16M9 16L7.41421 14.4142C6.63317 13.6332 5.36684 13.6332 4.58579 14.4142L3 16M10.5 8.5C10.5 9.60457 9.60457 10.5 8.5 10.5C7.39543 10.5 6.5 9.60457 6.5 8.5C6.5 7.39543 7.39543 6.5 8.5 6.5C9.60457 6.5 10.5 7.39543 10.5 8.5Z" stroke="black" stroke-width="2" stroke-linecap="round"/>
</svg>
