<svg width="24" height="24" viewBox="0 0 24 24" fill="none" xmlns="http://www.w3.org/2000/svg">
<path d="M15.5 18H21.5M21.5 18L19 20.5M21.5 18L19 15.5M2 12C2 6.47715 6.47715 2 12 2M22 12C22 12.3375 21.9833 12.6711 21.9506 13M12 16.5H10.5C8.5 16.5 6.5 18 6.5 20V20.353C6.82089 20.5647 7.1547 20.7584 7.5 20.9327C8.85259 21.6154 10.3814 22 12 22C13.0452 22 14.053 21.8396 15 21.5422M21.1679 8C21.7031 9.22492 22 10.5778 22 12M12 2C14.5361 2 16.8517 2.94409 18.6146 4.5M6.5 20.353C5.71604 19.8357 5.00919 19.2111 4.40041 18.5M2.4578 15C2.16035 14.053 2 13.0452 2 12M15 10C15 11.6569 13.6569 13 12 13C10.3431 13 9 11.6569 9 10C9 8.34315 10.3431 7 12 7C13.6569 7 15 8.34315 15 10Z" stroke="black" stroke-width="2" stroke-linecap="round" stroke-linejoin="round"/>
</svg>
