<svg width="24" height="24" viewBox="0 0 24 24" fill="none" xmlns="http://www.w3.org/2000/svg">
<path d="M20 17.778V11.7604C20 11.4974 19.9482 11.2393 19.8498 11M20 17.778V19C20 20.6569 18.6569 22 17 22H7C6.96353 22 6.9272 21.9993 6.89105 21.9981M20 17.778L18.6983 16.4762C16.9626 14.7406 14.1485 14.7406 12.4129 16.4762L9.33333 19.5558M6.89105 21.9981C5.45778 21.9469 4.28063 20.8903 4.04355 19.5122M6.89105 21.9981L9.33333 19.5558M4.04355 19.5122C4.01492 19.3458 4 19.1746 4 19V15M4.04355 19.5122L5.40959 18.1462C6.10385 17.4519 7.22948 17.4519 7.92375 18.1462L9.33333 19.5558M19.8498 11C19.765 10.7936 19.6455 10.6012 19.4948 10.4317L12.5967 2.67127C12.4267 2.48002 12.2237 2.32541 12 2.213C11.7243 2.07446 11.4173 2 11.1019 2H7C5.34315 2 4 3.34315 4 5V11M19.8498 11H15C13.3431 11 12 9.65685 12 8V7.5M10.5 12.5C10.5 13.4818 9.70406 14.2778 8.72222 14.2778C7.74038 14.2778 6.94444 13.4818 6.94444 12.5C6.94444 11.5182 7.74038 10.7222 8.72222 10.7222C9.70406 10.7222 10.5 11.5182 10.5 12.5Z" stroke="black" stroke-width="2" stroke-linecap="round" stroke-linejoin="round"/>
</svg>
