<svg width="24" height="24" viewBox="0 0 24 24" fill="none" xmlns="http://www.w3.org/2000/svg">
<path d="M4.58559 18.7104L8.94085 11.2443M21.5422 15.0001H12.8884M14.1926 21.7589L9.81585 14.2559M19.4143 5.28973L15.0591 12.7559M9.8073 2.24121L14.1841 9.74427M2.45776 9.00008H11.1115M12.8884 15.0001H11.1115C10.578 15.0001 10.0847 14.7167 9.81585 14.2559M12.8884 15.0001C13.4219 15.0001 13.9153 14.7167 14.1841 14.2559L15.0591 12.7559M11.1115 9.00008H12.8884C13.4219 9.00008 13.9153 9.28344 14.1841 9.74427M11.1115 9.00008C10.578 9.00008 10.0847 9.28344 9.81585 9.74427L8.94085 11.2443M9.81585 14.2559L8.94085 12.7559C8.66841 12.2888 8.66841 11.7113 8.94085 11.2443M15.0591 12.7559C15.3315 12.2888 15.3315 11.7113 15.0591 11.2443L14.1841 9.74427" stroke="#667085" stroke-width="2"/>
<path d="M4.58563 18.7103C6.41537 20.7308 9.05947 22 12 22C12.7532 22 13.487 21.9167 14.1927 21.7589C17.6817 20.9783 20.4823 18.3746 21.5422 15C21.8396 14.053 22 13.0452 22 12C22 9.41769 21.0212 7.06398 19.4144 5.28966C17.5846 3.26919 14.9405 2 12 2C11.2468 2 10.513 2.08328 9.80734 2.24114C6.31833 3.02165 3.51771 5.62539 2.4578 9C2.16035 9.94704 2 10.9548 2 12C2 14.5823 2.9788 16.936 4.58563 18.7103Z" stroke="black" stroke-width="2"/>
</svg>
