<svg width="24" height="24" viewBox="0 0 24 24" fill="none" xmlns="http://www.w3.org/2000/svg">
<path d="M17.5798 10.21C20.1271 10.9034 22 13.2329 22 15.9998C22 19.3135 19.3137 21.9998 16 21.9998C14.4633 21.9998 13.0615 21.4221 12 20.472" stroke="#667085" stroke-width="2"/>
<path d="M6.42018 10.21C3.87293 10.9034 2 13.2329 2 15.9998C2 19.3135 4.68629 21.9998 8 21.9998C9.53671 21.9998 10.9385 21.4221 12 20.472C13.2275 19.3734 14 17.7768 14 15.9998C14 15.2193 13.5798 13.7896 13.5798 13.7896" stroke="black" stroke-width="2"/>
<path d="M10.4202 13.7898C10.9235 13.9269 11.4532 14 12 14C12.5468 14 13.0765 13.9269 13.5798 13.7898C15.4085 13.292 16.8897 11.951 17.5798 10.2102C17.851 9.52618 18 8.7805 18 8C18 4.68629 15.3137 2 12 2C8.68629 2 6 4.68629 6 8C6 8.7805 6.14903 9.52618 6.42018 10.2102C7.11029 11.951 8.59146 13.292 10.4202 13.7898Z" stroke="#667085" stroke-width="2"/>
</svg>
