<svg width="24" height="24" viewBox="0 0 24 24" fill="none" xmlns="http://www.w3.org/2000/svg">
<path d="M7.05005 19.5177V19.2C7.05005 17.4 8.85005 16.05 10.65 16.05M12.7844 12.7843C13.893 12.4483 14.7 11.4184 14.7 10.2C14.7 8.70883 13.4912 7.5 12 7.5C10.7817 7.5 9.75176 8.30702 9.41573 9.41568" stroke="#667085" stroke-width="2" stroke-linecap="round" stroke-linejoin="round"/>
<path d="M18.364 18.364C19.9926 16.7353 21 14.4853 21 12C21 7.02944 16.9706 3 12 3C9.51472 3 7.26472 4.00736 5.63604 5.63604M18.364 18.364L12.7843 12.7843L9.41568 9.41568L5.63604 5.63604M18.364 18.364L22 22M15.3542 20.3542C14.3176 20.7708 13.1856 21 12 21C10.5433 21 9.16733 20.6539 7.95 20.0394C7.63923 19.8826 7.3388 19.7082 7.05 19.5177C4.61 17.9078 3 15.1419 3 12C3 10.8144 3.22924 9.68239 3.64581 8.64581M5.63604 5.63604L2 2" stroke="black" stroke-width="2" stroke-linecap="round" stroke-linejoin="round"/>
</svg>
