<svg width="24" height="24" viewBox="0 0 24 24" fill="none" xmlns="http://www.w3.org/2000/svg">
<path d="M3.98999 16.5386L5.38714 15.1462C6.08376 14.4519 7.2132 14.4519 7.90982 15.1462L9.32419 16.5558M20.5587 15.3078L18.7209 13.4762C16.9793 11.7406 14.1557 11.7406 12.4142 13.4762L9.32419 16.5558M5.77706 20.0909L9.32419 16.5558M10.662 9.88911C10.662 10.8709 9.8634 11.6669 8.87824 11.6669C7.89307 11.6669 7.09443 10.8709 7.09443 9.88911C7.09443 8.90727 7.89307 8.11133 8.87824 8.11133C9.8634 8.11133 10.662 8.90727 10.662 9.88911Z" stroke="#667085" stroke-width="2" stroke-linecap="round" stroke-linejoin="round"/>
<path d="M3.99009 16.5386L2.50944 13.2184C2.16352 12.4427 2.16352 11.5573 2.50944 10.7816L5.18515 4.78159C5.66829 3.6982 6.7463 3 7.93588 3H16.0641C17.2537 3 18.3317 3.6982 18.8148 4.78158L21.4906 10.7816C21.8365 11.5573 21.8365 12.4427 21.4906 13.2184L20.5588 15.3078L18.8148 19.2184C18.3317 20.3018 17.2537 21 16.0641 21H7.93588C7.10795 21 6.33406 20.6618 5.77716 20.0909C5.53389 19.8415 5.33203 19.5478 5.18515 19.2184L3.99009 16.5386Z" stroke="black" stroke-width="2" stroke-linecap="round" stroke-linejoin="round"/>
</svg>
