<svg width="24" height="24" viewBox="0 0 24 24" fill="none" xmlns="http://www.w3.org/2000/svg">
<path d="M12.7746 12.7747C13.8696 12.4429 14.6666 11.4257 14.6666 10.2223C14.6666 8.74957 13.4727 7.55566 12 7.55566C10.7966 7.55566 9.77944 8.35272 9.44756 9.4477M11 16.0001H10.6666C8.88886 16.0001 7.11108 17.3334 7.11108 19.1112V20.0001" stroke="#667085" stroke-width="2" stroke-linecap="round"/>
<path d="M4 9V17.3333C4 18.8061 5.19391 20 6.66667 20H7.11111H15M19.219 19.219C19.7015 18.7364 20 18.0697 20 17.3333V6.66667C20 5.19391 18.8061 4 17.3333 4H6.66667C5.93029 4 5.26362 4.29848 4.78105 4.78105M19.219 19.219L12.7746 12.7746L9.44759 9.44759L4.78105 4.78105M19.219 19.219L21 21M4.78105 4.78105L3 3" stroke="black" stroke-width="2" stroke-linecap="round"/>
</svg>
