<svg width="24" height="24" viewBox="0 0 24 24" fill="none" xmlns="http://www.w3.org/2000/svg">
<path d="M12.4446 12.4448C14.1827 10.7407 16.9731 10.7511 18.6983 12.4762L20 13.778M5.27834 19.6108L9.33333 15.5558L7.92375 14.1462C7.22948 13.4519 6.10385 13.4519 5.40959 14.1462L4 15.5558M10.146 10.1462C10.4677 9.82447 10.6667 9.38003 10.6667 8.88911C10.6667 7.90727 9.87073 7.11133 8.88889 7.11133C8.39797 7.11133 7.95352 7.31031 7.63181 7.63203" stroke="#667085" stroke-width="2" stroke-linecap="round" stroke-linejoin="round"/>
<path d="M15 20H6.66667C6.15808 20 5.68274 19.8576 5.27834 19.6105C5.09722 19.4999 4.93033 19.3682 4.78105 19.219C4.29848 18.7364 4 18.0697 4 17.3333V15.5556V9M19.219 19.219C19.7015 18.7364 20 18.0697 20 17.3333V13.7778V6.66667C20 5.19391 18.8061 4 17.3333 4H6.66667C5.93029 4 5.26362 4.29848 4.78105 4.78105M19.219 19.219L12.4446 12.4446L10.146 10.146L7.63181 7.63181L4.78105 4.78105M19.219 19.219L21 21M4.78105 4.78105L3 3" stroke="black" stroke-width="2" stroke-linecap="round" stroke-linejoin="round"/>
</svg>
