<svg width="24" height="24" viewBox="0 0 24 24" fill="none" xmlns="http://www.w3.org/2000/svg">
<path d="M19.9999 17.7779L18.6982 16.4762C16.9625 14.7405 14.1484 14.7405 12.4128 16.4762L9.33324 19.5557M6.89095 21.998L9.33324 19.5557M4.04346 19.5122L5.40949 18.1461C6.10376 17.4519 7.22938 17.4519 7.92365 18.1461L9.33324 19.5557M10.4999 12.4999C10.4999 13.4818 9.70396 14.2777 8.72212 14.2777C7.74029 14.2777 6.94435 13.4818 6.94435 12.4999C6.94435 11.5181 7.74029 10.7222 8.72212 10.7222C9.70396 10.7222 10.4999 11.5181 10.4999 12.4999Z" stroke="#667085" stroke-width="2" stroke-linecap="round" stroke-linejoin="round"/>
<path d="M12 2.213C11.7243 2.07446 11.4173 2 11.1019 2H7C5.34315 2 4 3.34315 4 5V19C4 19.1746 4.01492 19.3458 4.04355 19.5122C4.28063 20.8903 5.45778 21.9469 6.89105 21.9981C6.9272 21.9993 6.96353 22 7 22H17C18.6569 22 20 20.6569 20 19V17.778V11.7604C20 11.4974 19.9482 11.2393 19.8498 11M12 2.213C12.2237 2.32541 12.4267 2.48002 12.5967 2.67127L19.4948 10.4317C19.6455 10.6012 19.765 10.7936 19.8498 11M12 2.213V8C12 9.65685 13.3431 11 15 11H19.8498" stroke="black" stroke-width="2" stroke-linecap="round" stroke-linejoin="round"/>
</svg>
