<svg width="24" height="24" viewBox="0 0 24 24" fill="none" xmlns="http://www.w3.org/2000/svg">
<path d="M7.99999 2V3V4M16 2V3V4M9.33333 19.5558L12.4129 16.4762C14.1485 14.7406 16.9626 14.7406 18.6982 16.4762L21 18.778M9.33333 19.5558L7.92374 18.1462C7.22948 17.4519 6.10385 17.4519 5.40958 18.1462L3.28271 20.2731M9.33333 19.5558L6.8891 22M10.6667 12.8891C10.6667 13.8709 9.87072 14.6669 8.88888 14.6669C7.90704 14.6669 7.11111 13.8709 7.11111 12.8891C7.11111 11.9073 7.90704 11.1113 8.88888 11.1113C9.87072 11.1113 10.6667 11.9073 10.6667 12.8891Z" stroke="#667085" stroke-width="2" stroke-linecap="round"/>
<path d="M3 8V19C3 19.4551 3.10135 19.8866 3.28272 20.2731C3.76159 21.2934 4.79828 22 6 22H6.88911H18C19.6569 22 21 20.6569 21 19V18.778V8M3 8V6C3 4.34315 4.34315 3 6 3H8H16H18C19.6569 3 21 4.34315 21 6V8M3 8H21" stroke="black" stroke-width="2" stroke-linecap="round"/>
</svg>
