<svg width="24" height="24" viewBox="0 0 24 24" fill="none" xmlns="http://www.w3.org/2000/svg">
<path d="M4.19849 20.6349L10.8871 13.9463C12.5143 12.3191 15.1525 12.3191 16.7797 13.9463L18 15.1667M7.00004 6C7.00004 4.34315 8.34319 3 10 3H18C19.6569 3 21 4.34315 21 6V14C21 15.6569 19.6569 17 18 17M9.25004 10.5833C9.25004 11.5038 8.50385 12.25 7.58338 12.25C6.6629 12.25 5.91671 11.5038 5.91671 10.5833C5.91671 9.66286 6.6629 8.91667 7.58338 8.91667C8.50385 8.91667 9.25004 9.66286 9.25004 10.5833Z" stroke="#667085" stroke-width="2" stroke-linejoin="round"/>
<path d="M5.5 21H15.5C16.8807 21 18 19.8807 18 18.5V17V15.1667V8.5C18 7.11929 16.8807 6 15.5 6H7H5.5C4.11929 6 3 7.11929 3 8.5V18.5C3 19.1904 3.27982 19.8154 3.73223 20.2678C3.87218 20.4077 4.02864 20.5311 4.19844 20.6349C4.57757 20.8665 5.0232 21 5.5 21Z" stroke="black" stroke-width="2" stroke-linejoin="round"/>
</svg>
