<svg width="24" height="24" viewBox="0 0 24 24" fill="none" xmlns="http://www.w3.org/2000/svg">
<path d="M6.99992 6C6.99992 4.34315 8.34306 3 9.99992 3H17.9999C19.6568 3 20.9999 4.34315 20.9999 6V14C20.9999 15.6569 19.6568 17 17.9999 17M6.78769 16.8333H14.2122C14.5648 16.8333 14.7827 16.4307 14.6012 16.1142L12.8893 13.1278C12.5856 12.598 11.8871 12.508 11.4697 12.9449L10.0318 14.4499C9.75566 14.739 9.33377 14.8106 8.98445 14.6278L8.47112 14.3592C8.06183 14.145 7.56421 14.2833 7.31038 14.6818L6.41021 16.0951C6.20921 16.4106 6.42534 16.8333 6.78769 16.8333Z" stroke="#667085" stroke-width="2" stroke-linejoin="round"/>
<path d="M5.5 21H15.5C16.8807 21 18 19.8807 18 18.5V17V8.5C18 7.11929 16.8807 6 15.5 6H7H5.5C4.11929 6 3 7.11929 3 8.5V18.5C3 19.1904 3.27982 19.8154 3.73223 20.2678C3.87218 20.4077 4.02864 20.5311 4.19844 20.6349C4.57757 20.8665 5.0232 21 5.5 21Z" stroke="black" stroke-width="2" stroke-linejoin="round"/>
<path d="M8.5 11.5C9.05228 11.5 9.5 11.0523 9.5 10.5C9.5 9.94772 9.05228 9.5 8.5 9.5C7.94772 9.5 7.5 9.94772 7.5 10.5C7.5 11.0523 7.94772 11.5 8.5 11.5Z" fill="#667085"/>
</svg>
