<svg width="24" height="24" viewBox="0 0 24 24" fill="none" xmlns="http://www.w3.org/2000/svg">
<path d="M6.10177 18.7979L9.2999 15.5998M20.6814 14.3813L18.7819 12.4818C17.0352 10.7351 14.2098 10.7245 12.4501 12.45M10.1227 10.1226C10.4484 9.79686 10.6499 9.34686 10.6499 8.8498C10.6499 7.85569 9.84401 7.0498 8.8499 7.0498C8.35285 7.0498 7.90285 7.25128 7.57711 7.57701M9.2999 15.5998L9.9499 14.9498M9.2999 15.5998L7.87269 14.1726C7.16975 13.4697 6.03005 13.4697 5.32711 14.1726L3.8999 15.5998" stroke="#667085" stroke-width="2" stroke-linecap="round"/>
<path d="M18.364 18.364C19.4524 17.2756 20.2633 15.9097 20.6815 14.3815C20.8891 13.623 21 12.8244 21 12C21 7.02944 16.9706 3 12 3C9.51472 3 7.26472 4.00736 5.63604 5.63604M18.364 18.364L12.4502 12.4502L10.1228 10.1228L7.57721 7.57721L5.63604 5.63604M18.364 18.364L22 22M15.3542 20.3542C14.3176 20.7708 13.1856 21 12 21C9.74376 21 7.68144 20.1698 6.10187 18.7981C4.20159 17.148 3 14.7143 3 12C3 10.8144 3.22924 9.68239 3.64581 8.64581M5.63604 5.63604L2 2" stroke="black" stroke-width="2" stroke-linecap="round"/>
</svg>
