<svg width="24" height="24" viewBox="0 0 24 24" fill="none" xmlns="http://www.w3.org/2000/svg">
<path d="M19.9999 17.7779L18.6982 16.4762C16.9625 14.7405 14.1484 14.7405 12.4128 16.4762L9.33324 19.5557M6.89095 21.998L9.33324 19.5557M4.04346 19.5122L5.40949 18.1461C6.10376 17.4519 7.22938 17.4519 7.92365 18.1461L9.33324 19.5557M10.4999 12.4999C10.4999 13.4818 9.70396 14.2777 8.72212 14.2777C7.74029 14.2777 6.94435 13.4818 6.94435 12.4999C6.94435 11.5181 7.74029 10.7222 8.72212 10.7222C9.70396 10.7222 10.4999 11.5181 10.4999 12.4999Z" stroke="#667085" stroke-width="2" stroke-linecap="round" stroke-linejoin="round"/>
<path fill-rule="evenodd" clip-rule="evenodd" d="M7 1C4.79086 1 3 2.79086 3 5V19C3 19.0392 3.00057 19.0783 3.00169 19.1173C3.00308 19.1651 3.00531 19.2128 3.00837 19.2603C3.14271 21.3484 4.87831 23 7 23H17C19.2091 23 21 21.2091 21 19V17.7779V9.24264C21 8.66548 20.8752 8.10113 20.6407 7.5858C20.4442 7.15387 20.1704 6.75623 19.8284 6.41421L15.5858 2.17157C15.2438 1.82956 14.8461 1.55583 14.4142 1.35928C13.8989 1.12476 13.3345 1 12.7574 1H7ZM5.00146 19.0775L5.00086 19.0595C5.00029 19.0397 5 19.0199 5 19V5C5 3.89543 5.89543 3 7 3H12.7574C13.0459 3 13.328 3.06235 13.5858 3.17965C13.733 3.24662 13.8721 3.33149 14 3.43287V7.00007C14 7.55236 14.4477 8.00007 15 8.00007H18.5672C18.6685 8.1279 18.7534 8.26705 18.8204 8.4142L19.6357 8.04318L18.8204 8.4142C18.9377 8.67196 19 8.95406 19 9.24264V17.7779V19C19 20.1046 18.1046 21 17 21H7C6.97638 21 6.95199 20.9995 6.92672 20.9986C6.89268 20.9974 6.85886 20.9954 6.82527 20.9925C6.68393 20.9802 6.54679 20.9533 6.41539 20.9132C6.09924 20.8167 5.81633 20.644 5.58807 20.4165C5.25769 20.0872 5.04182 19.6432 5.00545 19.1494C5.00371 19.1256 5.00237 19.1016 5.00146 19.0775Z" fill="black"/>
</svg>
