<svg width="24" height="24" viewBox="0 0 24 24" fill="none" xmlns="http://www.w3.org/2000/svg">
<path d="M4.43823 20.5619L12.4646 12.5355C14.4172 10.5829 17.583 10.5829 19.5356 12.5355L21.0001 14M10.5001 8.5C10.5001 9.60457 9.60467 10.5 8.5001 10.5C7.39553 10.5 6.5001 9.60457 6.5001 8.5C6.5001 7.39543 7.39553 6.5 8.5001 6.5C9.60467 6.5 10.5001 7.39543 10.5001 8.5Z" stroke="#667085" stroke-width="2" stroke-linejoin="round"/>
<path d="M18 3H6C4.34315 3 3 4.34315 3 6V18C3 18.8284 3.33579 19.5784 3.87868 20.1213C4.04662 20.2893 4.23437 20.4374 4.43813 20.5619C4.89308 20.8398 5.42784 21 6 21H18C19.6569 21 21 19.6569 21 18V14V6C21 4.34315 19.6569 3 18 3Z" stroke="black" stroke-width="2" stroke-linejoin="round"/>
</svg>
