<svg width="24" height="24" viewBox="0 0 24 24" fill="none" xmlns="http://www.w3.org/2000/svg">
<path d="M4.89095 19.9981L8.33324 16.5558M8.33324 16.5558L11.4128 13.4762C13.1484 11.7406 15.9625 11.7406 17.6982 13.4762L21.9186 17.6967M8.33324 16.5558L6.92365 15.1462C6.22938 14.4519 5.10376 14.4519 4.40949 15.1462L2.04346 17.5122M9.66657 9.88911C9.66657 10.8709 8.87063 11.6669 7.88879 11.6669C6.90695 11.6669 6.11101 10.8709 6.11101 9.88911C6.11101 8.90727 6.90695 8.11133 7.88879 8.11133C8.87063 8.11133 9.66657 8.90727 9.66657 9.88911Z" stroke="#667085" stroke-width="2" stroke-linecap="round" stroke-linejoin="round"/>
<path d="M2 17V7C2 5.34315 3.34315 4 5 4H9.39445C10.3975 4 11.3342 4.5013 11.8906 5.3359L12.1094 5.6641C12.6658 6.4987 13.6025 7 14.6055 7H19C20.6569 7 22 8.34315 22 10V17C22 17.2398 21.9719 17.4731 21.9187 17.6967C21.6046 19.0176 20.417 20 19 20H5C4.96353 20 4.92721 19.9993 4.89105 19.9981C3.45778 19.9469 2.28063 18.8903 2.04355 17.5122C2.01492 17.3458 2 17.1746 2 17Z" stroke="black" stroke-width="2" stroke-linecap="round" stroke-linejoin="round"/>
</svg>
