<svg width="24" height="24" viewBox="0 0 24 24" fill="none" xmlns="http://www.w3.org/2000/svg">
<path d="M10.0001 16.8332L12.8872 13.9461C14.5144 12.3189 17.1526 12.3189 18.7798 13.9461L20.0001 15.1665L20.8448 16.0112M10.0001 16.8332L8.67865 15.5117C8.02778 14.8608 6.9725 14.8608 6.32163 15.5117L5.00014 16.8332L3.11914 18.7142M10.0001 16.8332L6.33331 20.5M11.2501 10.5832C11.2501 11.5036 10.5039 12.2498 9.58347 12.2498C8.663 12.2498 7.91681 11.5036 7.91681 10.5832C7.91681 9.6627 8.663 8.9165 9.58347 8.9165C10.5039 8.9165 11.2501 9.6627 11.2501 10.5832Z" stroke="#667085" stroke-width="2"/>
<path d="M22 11.4737C22 6.24151 17.7585 2 12.5263 2C7.29414 2 3.05263 6.24151 3.05263 11.4737C3.05263 12.737 3.29992 13.9426 3.74875 15.0447C3.95403 15.5488 4.00609 16.1093 3.83064 16.6245L3.119 18.7142L2.65533 20.0757C2.38775 20.8614 3.1386 21.6122 3.92432 21.3447L7.37548 20.1694C7.89069 19.9939 8.4512 20.046 8.95527 20.2513C10.0574 20.7001 11.263 20.9474 12.5263 20.9474C16.1146 20.9474 19.2369 18.9525 20.8447 16.0112C21.5813 14.6637 22 13.1176 22 11.4737Z" stroke="black" stroke-width="2"/>
</svg>
