<svg width="24" height="24" viewBox="0 0 24 24" fill="none" xmlns="http://www.w3.org/2000/svg">
<path d="M16 17C16 17 14.5 15.5 12 15.5C9.5 15.5 8 17 8 17M6.99023 11.8883C7.81566 12.2504 9.29287 11.9899 9.94465 11.3673M14.0553 11.3673C14.7071 11.9899 16.1843 12.2504 17.0098 11.8882M14.2285 8.52304C15.1231 7.63873 17.4485 6.74598 18.8793 6.73755M9.87929 8.52304C8.98468 7.63873 6.65929 6.74598 5.22852 6.73755M2.20004 10C2.06886 10.6462 2 11.3151 2 12C2 17.5228 6.47715 22 12 22C13.4222 22 14.7751 21.7031 16 21.1679M3.99927 6C5.82368 3.57111 8.72836 2 12 2C17.5228 2 22 6.47715 22 12C22 14.5361 21.0559 16.8517 19.5 18.6146" stroke="black" stroke-width="2" stroke-linecap="round" stroke-linejoin="round"/>
</svg>
