<svg width="24" height="24" viewBox="0 0 24 24" fill="none" xmlns="http://www.w3.org/2000/svg">
<path d="M16 16L14.8944 16.5528C14.3314 16.8343 13.6686 16.8343 13.1056 16.5528L12.8944 16.4472C12.3314 16.1657 11.6686 16.1657 11.1056 16.4472L10.8944 16.5528C10.3314 16.8343 9.66863 16.8343 9.10557 16.5528L8 16M7.125 9.5625C10.625 10.0625 10.625 12.0625 7.125 12.5625M16.875 12.5625C13.375 12.0625 13.375 10.0625 16.875 9.5625M2.20004 10C2.06886 10.6462 2 11.3151 2 12C2 17.5228 6.47715 22 12 22C13.4222 22 14.7751 21.7031 16 21.1679M3.99927 6C5.82368 3.57111 8.72836 2 12 2C17.5228 2 22 6.47715 22 12C22 14.5361 21.0559 16.8517 19.5 18.6146" stroke="black" stroke-width="2" stroke-linecap="round" stroke-linejoin="round"/>
</svg>
