<svg width="24" height="24" viewBox="0 0 24 24" fill="none" xmlns="http://www.w3.org/2000/svg">
<path fill-rule="evenodd" clip-rule="evenodd" d="M12 3C9.05617 3 6.4425 4.41232 4.79883 6.60058C4.46714 7.04217 3.84028 7.13126 3.39869 6.79957C2.9571 6.46788 2.86801 5.84101 3.1997 5.39942C5.20486 2.7299 8.40055 1 12 1C18.0751 1 23 5.92487 23 12C23 14.789 21.9607 17.3378 20.2497 19.2763C19.8843 19.6904 19.2523 19.7298 18.8383 19.3643C18.4242 18.9988 18.3848 18.3669 18.7503 17.9528C20.1511 16.3657 21 14.2832 21 12C21 7.02944 16.9706 3 12 3ZM2.39897 9.01999C2.94021 9.12985 3.28992 9.65769 3.18005 10.1989C3.06209 10.78 3 11.3823 3 12C3 16.9706 7.02944 21 12 21C13.2818 21 14.4986 20.7326 15.5996 20.2516C16.1057 20.0304 16.6952 20.2615 16.9164 20.7675C17.1375 21.2736 16.9065 21.8631 16.4004 22.0843C15.0516 22.6736 13.5626 23 12 23C5.92487 23 1 18.0751 1 12C1 11.2479 1.07563 10.5124 1.22002 9.80107C1.32989 9.25982 1.85772 8.91012 2.39897 9.01999ZM9.30279 14.6056C9.92507 14.2944 10.8272 14 12 14C13.1728 14 14.0749 14.2944 14.6972 14.6056C15.0067 14.7603 15.245 14.9182 15.4125 15.0437C15.4963 15.1066 15.5627 15.1616 15.6116 15.2045C15.6361 15.2259 15.6563 15.2443 15.6722 15.2592L15.6929 15.2789L15.7008 15.2866L15.7041 15.2899L15.7057 15.2915L15.7064 15.2922C15.7068 15.2925 15.7071 15.2929 15 16L15.7071 15.2929C16.0976 15.6834 16.0976 16.3166 15.7071 16.7071C15.3199 17.0943 14.6943 17.0976 14.303 16.7171L14.2946 16.7096C14.2811 16.6978 14.2537 16.6747 14.2125 16.6438C14.13 16.5818 13.9933 16.4897 13.8028 16.3944C13.4251 16.2056 12.8272 16 12 16C11.1728 16 10.5749 16.2056 10.1972 16.3944C10.0067 16.4897 9.87004 16.5818 9.7875 16.6438C9.7463 16.6747 9.7189 16.6978 9.70538 16.7096L9.69699 16.7171C9.30573 17.0976 8.68006 17.0943 8.29289 16.7071C7.90237 16.3166 7.90237 15.6834 8.29289 15.2929L9 16C8.29289 15.2929 8.29324 15.2925 8.2936 15.2922L8.29432 15.2915L8.29585 15.2899L8.29922 15.2866L8.30713 15.2789L8.32778 15.2592C8.34368 15.2443 8.36387 15.2259 8.38837 15.2045C8.43735 15.1616 8.5037 15.1066 8.5875 15.0437C8.75496 14.9182 8.99328 14.7603 9.30279 14.6056ZM10 10C10 11.1046 9.32843 12 8.5 12C7.67157 12 7 11.1046 7 10C7 8.89543 7.67157 8 8.5 8C9.32843 8 10 8.89543 10 10ZM17 10C17 11.1046 16.3284 12 15.5 12C14.6716 12 14 11.1046 14 10C14 8.89543 14.6716 8 15.5 8C16.3284 8 17 8.89543 17 10ZM8.00217 14.8266C8.00217 15.6779 7.3306 16.3679 6.50217 16.3679C5.67375 16.3679 5.00217 15.6779 5.00217 14.8266C5.00217 13.591 5.96615 12.0252 6.34855 11.4527C6.424 11.3397 6.58035 11.3397 6.6558 11.4527C7.0382 12.0252 8.00217 13.591 8.00217 14.8266Z" fill="black"/>
</svg>
