<svg width="24" height="24" viewBox="0 0 24 24" fill="none" xmlns="http://www.w3.org/2000/svg">
<path fill-rule="evenodd" clip-rule="evenodd" d="M4.79883 6.60058C6.4425 4.41232 9.05617 3 12 3C16.9706 3 21 7.02944 21 12C21 14.2832 20.1511 16.3657 18.7503 17.9528C18.3848 18.3669 18.4242 18.9988 18.8383 19.3643C19.2523 19.7298 19.8843 19.6904 20.2497 19.2763C21.9607 17.3378 23 14.789 23 12C23 5.92487 18.0751 1 12 1C8.40055 1 5.20486 2.7299 3.1997 5.39942C2.86801 5.84101 2.9571 6.46788 3.39869 6.79957C3.84028 7.13126 4.46714 7.04217 4.79883 6.60058ZM3.18005 10.1989C3.28992 9.65769 2.94021 9.12985 2.39897 9.01999C1.85772 8.91012 1.32989 9.25982 1.22002 9.80107C1.07563 10.5124 1 11.2479 1 12C1 18.0751 5.92487 23 12 23C13.5626 23 15.0516 22.6736 16.4004 22.0843C16.9065 21.8631 17.1375 21.2736 16.9164 20.7675C16.6952 20.2615 16.1057 20.0304 15.5996 20.2516C14.4986 20.7326 13.2818 21 12 21C7.02944 21 3 16.9706 3 12C3 11.3823 3.06209 10.78 3.18005 10.1989ZM9 14.5C9 13.9477 8.55228 13.5 8 13.5C7.44772 13.5 7 13.9477 7 14.5V15C6.44772 15 6 15.4477 6 16C6 16.5523 6.44772 17 7 17H8H9V17.5C9 18.0523 9.44772 18.5 10 18.5C10.5523 18.5 11 18.0523 11 17.5V17H12H13V17.5C13 18.0523 13.4477 18.5 14 18.5C14.5523 18.5 15 18.0523 15 17.5V17H16C16.5523 17 17 16.5523 17 16V14.5C17 13.9477 16.5523 13.5 16 13.5C15.4477 13.5 15 13.9477 15 14.5V15H14H13V14.5C13 13.9477 12.5523 13.5 12 13.5C11.4477 13.5 11 13.9477 11 14.5V15H10H9V14.5ZM8.5 12C9.32843 12 10 11.3284 10 10.5C10 9.67157 9.32843 9 8.5 9C7.67157 9 7 9.67157 7 10.5C7 11.3284 7.67157 12 8.5 12ZM15.5 12C16.3284 12 17 11.3284 17 10.5C17 9.67157 16.3284 9 15.5 9C14.6716 9 14 9.67157 14 10.5C14 11.3284 14.6716 12 15.5 12Z" fill="black"/>
</svg>
