<svg width="24" height="24" viewBox="0 0 24 24" fill="none" xmlns="http://www.w3.org/2000/svg">
<path d="M18 7.5C18.5 9.5 16.5 12 18.5 12C19.5 12 20 10.5 20.6589 9.2636C20.8811 10.1333 21 11.0512 21 12C21 17.5228 16.9706 22 12 22C10.9481 22 9.93834 21.7995 9 21.431M12 19C14.5 19 17 17 17.5 14.5M5 18.2859C3.7492 16.5685 3 14.3814 3 12C3 11.3151 3.06197 10.6462 3.18003 10C3.34097 9.11909 3.60612 8.28023 3.96056 7.5C4.5 10 5.5 13.5 6.5 13.5C8 13.5 7.5 8 9.5 6C11.5 6 12.5 4 12 2C13.1187 2.18646 14.1308 2.57208 15 3.14148" stroke="black" stroke-width="2" stroke-linecap="round" stroke-linejoin="round"/>
</svg>
