<svg width="24" height="24" viewBox="0 0 24 24" fill="none" xmlns="http://www.w3.org/2000/svg">
<path d="M8.125 7.5625C10.625 8.0625 10.625 10.0625 8.125 10.5625M15.875 10.5625C13.375 10.0625 13.375 8.0625 15.875 7.5625M2.20004 10C2.06886 10.6462 2 11.3151 2 12C2 17.5228 6.47715 22 12 22C13.4222 22 14.7751 21.7031 16 21.1679M3.99927 6C5.82368 3.57111 8.72836 2 12 2C17.5228 2 22 6.47715 22 12C22 14.5361 21.0559 16.8517 19.5 18.6146M12 18C9.38758 18 7.1651 16.3304 6.34143 14C6.34143 14 10 14.5 12 14.5C14 14.5 17.6586 14 17.6586 14C16.8349 16.3304 14.6125 18 12 18Z" stroke="black" stroke-width="2" stroke-linecap="round" stroke-linejoin="round"/>
</svg>
