<svg width="24" height="24" viewBox="0 0 24 24" fill="none" xmlns="http://www.w3.org/2000/svg">
<path d="M4.58664 17.069C4.47895 16.3664 4.44087 15.6591 4.44086 15C4.44085 14.0977 3.56334 10.9839 3.0466 9.22852C2.8506 8.5627 3.29192 7.87776 4.01359 7.73404C4.67311 7.6027 5.32748 7.97609 5.5049 8.58501L6.79124 13L5.90355 5.12819C5.83317 4.50411 6.31456 3.94402 6.98088 3.87472C7.6451 3.80564 8.24483 4.25017 8.32525 4.87118L9.24839 12L8.78438 3.31424C8.74619 2.59927 9.35519 2 10.12 2C10.8297 2 11.4158 2.51899 11.4552 3.1823L11.9191 11L12.1469 4.60564C12.1688 3.98914 12.7091 3.5 13.3681 3.5C14.0429 3.5 14.59 4.01207 14.59 4.64375V12.6894C14.59 13.3576 15.4733 13.7106 16.028 13.2902C16.4431 12.9756 16.885 12.6759 17.2609 12.5C18.3292 12 21 12 21 14C17.2609 15 15.6584 19 14.59 20C13.1373 21.3599 11.9192 22 9.7825 22C8.34372 22 7.28086 21.6005 6.5 20.9594" stroke="black" stroke-width="2" stroke-linecap="round" stroke-linejoin="round"/>
</svg>
