<svg width="24" height="24" viewBox="0 0 24 24" fill="none" xmlns="http://www.w3.org/2000/svg">
<path fill-rule="evenodd" clip-rule="evenodd" d="M4.79883 6.60058C6.4425 4.41232 9.05617 3 12 3C16.9706 3 21 7.02944 21 12C21 14.2832 20.1511 16.3657 18.7503 17.9528C18.3848 18.3669 18.4242 18.9988 18.8383 19.3643C19.2523 19.7298 19.8843 19.6904 20.2497 19.2763C21.9607 17.3378 23 14.789 23 12C23 5.92487 18.0751 1 12 1C8.40055 1 5.20486 2.7299 3.1997 5.39942C2.86801 5.84101 2.9571 6.46788 3.39869 6.79957C3.84028 7.13126 4.46714 7.04217 4.79883 6.60058ZM3.18005 10.1989C3.28992 9.65769 2.94021 9.12985 2.39897 9.01999C1.85772 8.91012 1.32989 9.25982 1.22002 9.80107C1.07563 10.5124 1 11.2479 1 12C1 18.0751 5.92487 23 12 23C13.5626 23 15.0516 22.6736 16.4004 22.0843C16.9065 21.8631 17.1375 21.2736 16.9164 20.7675C16.6952 20.2615 16.1057 20.0304 15.5996 20.2516C14.4986 20.7326 13.2818 21 12 21C7.02944 21 3 16.9706 3 12C3 11.3823 3.06209 10.78 3.18005 10.1989ZM8.4364 14.6491C8.24258 14.1319 7.66622 13.8698 7.14906 14.0636C6.6319 14.2574 6.36978 14.8338 6.5636 15.3509C7.37059 17.5042 9.52186 19 12 19C14.4781 19 16.6294 17.5042 17.4364 15.3509C17.6302 14.8338 17.3681 14.2574 16.8509 14.0636C16.3338 13.8698 15.7574 14.1319 15.5636 14.6491C15.0605 15.9914 13.6769 17 12 17C10.3231 17 8.93947 15.9914 8.4364 14.6491ZM8.5 11C9.32843 11 10 10.3284 10 9.5C10 8.67157 9.32843 8 8.5 8C7.67157 8 7 8.67157 7 9.5C7 10.3284 7.67157 11 8.5 11ZM15.5 11C16.3284 11 17 10.3284 17 9.5C17 8.67157 16.3284 8 15.5 8C14.6716 8 14 8.67157 14 9.5C14 10.3284 14.6716 11 15.5 11Z" fill="black"/>
</svg>
