<svg width="24" height="24" viewBox="0 0 24 24" fill="none" xmlns="http://www.w3.org/2000/svg">
<path fill-rule="evenodd" clip-rule="evenodd" d="M4.79883 6.60058C6.4425 4.41232 9.05617 3 12 3C16.9706 3 21 7.02944 21 12C21 14.2832 20.1511 16.3657 18.7503 17.9528C18.3848 18.3669 18.4242 18.9988 18.8383 19.3643C19.2523 19.7298 19.8843 19.6904 20.2497 19.2763C21.9607 17.3378 23 14.789 23 12C23 5.92487 18.0751 1 12 1C8.40055 1 5.20486 2.7299 3.1997 5.39942C2.86801 5.84101 2.9571 6.46788 3.39869 6.79957C3.84028 7.13126 4.46714 7.04217 4.79883 6.60058ZM3.18005 10.1989C3.28992 9.65769 2.94021 9.12985 2.39897 9.01999C1.85772 8.91012 1.32989 9.25982 1.22002 9.80107C1.07563 10.5124 1 11.2479 1 12C1 18.0751 5.92487 23 12 23C13.5626 23 15.0516 22.6736 16.4004 22.0843C16.9065 21.8631 17.1375 21.2736 16.9164 20.7675C16.6952 20.2615 16.1057 20.0304 15.5996 20.2516C14.4986 20.7326 13.2818 21 12 21C7.02944 21 3 16.9706 3 12C3 11.3823 3.06209 10.78 3.18005 10.1989ZM12 14C10.8272 14 9.92507 14.2944 9.30279 14.6056C8.99328 14.7603 8.75496 14.9182 8.5875 15.0437C8.5037 15.1066 8.43735 15.1616 8.38837 15.2045C8.36387 15.2259 8.34368 15.2443 8.32778 15.2592L8.30713 15.2789L8.29922 15.2866L8.29585 15.2899L8.29432 15.2915L8.2936 15.2922C8.29324 15.2925 8.29289 15.2929 9 16L8.29289 15.2929C7.90237 15.6834 7.90237 16.3166 8.29289 16.7071C8.68006 17.0943 9.30573 17.0976 9.69699 16.7171L9.70538 16.7096C9.7189 16.6978 9.7463 16.6747 9.7875 16.6438C9.87004 16.5818 10.0067 16.4897 10.1972 16.3944C10.5749 16.2056 11.1728 16 12 16C12.8272 16 13.4251 16.2056 13.8028 16.3944C13.9933 16.4897 14.13 16.5818 14.2125 16.6438C14.2537 16.6747 14.2811 16.6978 14.2946 16.7096L14.303 16.7171C14.6943 17.0976 15.3199 17.0943 15.7071 16.7071C16.0976 16.3166 16.0976 15.6834 15.7071 15.2929L15 16C15.7071 15.2929 15.7068 15.2925 15.7064 15.2922L15.7057 15.2915L15.7041 15.2899L15.7008 15.2866L15.6929 15.2789L15.6722 15.2592C15.6563 15.2443 15.6361 15.2259 15.6116 15.2045C15.5627 15.1616 15.4963 15.1066 15.4125 15.0437C15.245 14.9182 15.0067 14.7603 14.6972 14.6056C14.0749 14.2944 13.1728 14 12 14ZM8.5 12C9.32843 12 10 11.3284 10 10.5C10 9.67157 9.32843 9 8.5 9C7.67157 9 7 9.67157 7 10.5C7 11.3284 7.67157 12 8.5 12ZM15.5 12C16.3284 12 17 11.3284 17 10.5C17 9.67157 16.3284 9 15.5 9C14.6716 9 14 9.67157 14 10.5C14 11.3284 14.6716 12 15.5 12Z" fill="black"/>
</svg>
