<svg width="24" height="24" viewBox="0 0 24 24" fill="none" xmlns="http://www.w3.org/2000/svg">
<path fill-rule="evenodd" clip-rule="evenodd" d="M13.25 1C13.25 0.585786 13.5858 0.25 14 0.25H16C16.2766 0.25 16.5307 0.402238 16.6613 0.646107C16.7918 0.889975 16.7775 1.18588 16.624 1.41603L15.4014 3.25H16C16.4142 3.25 16.75 3.58579 16.75 4C16.75 4.41421 16.4142 4.75 16 4.75H14C13.7234 4.75 13.4693 4.59776 13.3387 4.35389C13.2082 4.11003 13.2225 3.81412 13.376 3.58397L14.5986 1.75H14C13.5858 1.75 13.25 1.41421 13.25 1ZM17.25 4C17.25 3.58579 17.5858 3.25 18 3.25H21C21.2841 3.25 21.5438 3.4105 21.6708 3.66459C21.7979 3.91868 21.7704 4.22274 21.6 4.45L19.5 7.25H21C21.4142 7.25 21.75 7.58579 21.75 8C21.75 8.41421 21.4142 8.75 21 8.75H18C17.7159 8.75 17.4562 8.5895 17.3292 8.33541C17.2021 8.08132 17.2296 7.77726 17.4 7.55L19.5 4.75H18C17.5858 4.75 17.25 4.41421 17.25 4ZM4.79883 6.60058C6.4425 4.41232 9.05617 3 12 3C12.5523 3 13 2.55228 13 2C13 1.44772 12.5523 1 12 1C8.40055 1 5.20486 2.7299 3.1997 5.39942C2.86801 5.84101 2.9571 6.46788 3.39869 6.79957C3.84028 7.13126 4.46714 7.04217 4.79883 6.60058ZM3.18005 10.1989C3.28992 9.65769 2.94021 9.12985 2.39897 9.01999C1.85772 8.91012 1.32989 9.25982 1.22002 9.80107C1.07563 10.5124 1 11.2478 1 11.9999C1 18.0751 5.92487 22.9999 12 22.9999C13.5626 22.9999 15.0515 22.6736 16.4004 22.0843C16.9065 21.8631 17.1375 21.2736 16.9164 20.7675C16.6952 20.2615 16.1057 20.0304 15.5996 20.2516C14.4986 20.7326 13.2819 20.9999 12 20.9999C7.02944 20.9999 3 16.9705 3 11.9999C3 11.3822 3.06209 10.7801 3.18005 10.1989ZM7.66436 9.75259C7.25158 9.38567 6.61951 9.42285 6.25259 9.83564C5.88567 10.2484 5.92285 10.8805 6.33564 11.2474C6.9441 11.7883 7.76968 12 8.5 12C9.23032 12 10.0559 11.7883 10.6644 11.2474C11.0771 10.8805 11.1143 10.2484 10.7474 9.83564C10.3805 9.42285 9.74842 9.38567 9.33564 9.75259C9.1941 9.8784 8.89468 10 8.5 10C8.10532 10 7.8059 9.8784 7.66436 9.75259ZM14.6644 9.75259C14.2516 9.38567 13.6195 9.42285 13.2526 9.83564C12.8857 10.2484 12.9229 10.8805 13.3356 11.2474C13.9441 11.7883 14.7697 12 15.5 12C16.2303 12 17.0559 11.7883 17.6644 11.2474C18.0771 10.8805 18.1143 10.2484 17.7474 9.83564C17.3805 9.42285 16.7484 9.38567 16.3356 9.75259C16.1941 9.8784 15.8947 10 15.5 10C15.1053 10 14.8059 9.8784 14.6644 9.75259ZM22.9457 10.9011C22.8912 10.3516 22.4014 9.95027 21.8518 10.0048C21.3022 10.0594 20.901 10.5492 20.9555 11.0987C20.9849 11.3949 21 11.6955 21 11.9999C21 14.2831 20.1511 16.3657 18.7503 17.9528C18.3848 18.3669 18.4242 18.9988 18.8383 19.3643C19.2523 19.7298 19.8843 19.6904 20.2497 19.2763C21.9607 17.3378 23 14.789 23 11.9999C23 11.6294 22.9816 11.2628 22.9457 10.9011ZM14 16C14 17.1046 13.1046 18 12 18C10.8954 18 10 17.1046 10 16C10 14.8954 10.8954 14 12 14C13.1046 14 14 14.8954 14 16ZM11 4.5C10.7239 4.5 10.5 4.72386 10.5 5C10.5 5.27614 10.7239 5.5 11 5.5H11.0657L10.584 6.22265C10.4817 6.37608 10.4722 6.57335 10.5592 6.73593C10.6462 6.89851 10.8156 7 11 7H12C12.2761 7 12.5 6.77614 12.5 6.5C12.5 6.22386 12.2761 6 12 6H11.9343L12.416 5.27735C12.5183 5.12392 12.5278 4.92665 12.4408 4.76407C12.3538 4.60149 12.1844 4.5 12 4.5H11Z" fill="black"/>
</svg>
