<svg width="24" height="24" viewBox="0 0 24 24" fill="none" xmlns="http://www.w3.org/2000/svg">
<path d="M22 12C22 6.47715 17.5228 2 12 2M12 22C6.47715 22 2 17.5228 2 12M7 10C7.75 9.5 9.25 9.5 10 10M14 10C14.75 9.5 16.25 9.5 17 10M8.34143 14C8.87398 15.1652 10.3109 16 12 16C13.6891 16 15.1261 15.1652 15.6586 14M2 12C2 11.3151 2.06886 10.6462 2.20004 10M3.99927 6C5.82368 3.57111 8.72836 2 12 2M16 21.1679C14.7751 21.7031 13.4222 22 12 22M22 12C22 14.5361 21.0559 16.8517 19.5 18.6146" stroke="black" stroke-width="2" stroke-linecap="round" stroke-linejoin="round"/>
</svg>
