<svg width="24" height="24" viewBox="0 0 24 24" fill="none" xmlns="http://www.w3.org/2000/svg">
<path d="M7 10C7.5 7.5 9.5 7.5 10 10M14 10C14.5 7.5 16.5 7.5 17 10M7.75 14C8.36864 15.7862 10.0379 17.0659 12 17.0659C13.9621 17.0659 15.6314 15.7862 16.25 14M2.20004 10C2.06886 10.6462 2 11.3151 2 12C2 17.5228 6.47715 22 12 22C13.4222 22 14.7751 21.7031 16 21.1679M3.99927 6C5.82368 3.57111 8.72836 2 12 2C17.5228 2 22 6.47715 22 12C22 14.5361 21.0559 16.8517 19.5 18.6146" stroke="black" stroke-width="2" stroke-linecap="round" stroke-linejoin="round"/>
</svg>
