<svg width="24" height="24" viewBox="0 0 24 24" fill="none" xmlns="http://www.w3.org/2000/svg">
<path d="M19.7144 10.0239H16.75C13.5834 10.0239 15.526 6.58937 15.1667 4.81681C14.674 2.38616 12.3416 1.31725 10.7455 2.45665C10.5417 2.60216 10.5205 2.88149 10.6393 3.10029C11.4342 4.56375 11.2063 6.12463 10.9445 6.89965C10.4693 8.30611 9.13843 9.29047 8.10751 10.6128C7.89234 10.8888 7.56581 11.0653 7.21289 11.0653H4.08336C4.08336 11.0653 3.47193 11.6686 3.00898 13M19.7144 10.0239C20.7006 10.0239 21.5 10.8126 21.5 11.7856C21.5 12.7449 20.7222 13.5278 19.7501 13.547M19.7144 10.0239L15.0774 10.4176C14.2323 10.4893 13.5834 11.187 13.5834 12.0239C13.5834 12.9269 14.335 13.6538 15.2502 13.6358L16.2222 13.6166M19.7501 13.547H19.987C20.8226 13.547 21.5 14.2153 21.5 15.0398C21.5 15.8642 20.8226 16.5326 19.987 16.5326M19.7501 13.547L16.2222 13.6166M19.987 16.5326H15.5807M19.987 16.5326C20.6769 16.5326 21.2361 17.2318 21.2361 17.9124C21.2361 18.6745 20.61 19.2923 19.8375 19.2923H18.6896M15.5807 16.5326C14.7691 16.5326 14.1111 15.8834 14.1111 15.0827C14.1111 14.2961 14.7469 13.653 15.5439 13.6333L16.2222 13.6166M15.5807 16.5326H15.5097C14.7373 16.5326 14.1111 17.1503 14.1111 17.9124C14.1111 18.6745 14.7373 19.2923 15.5097 19.2923H15.9807M18.6896 19.2923H15.9807M18.6896 19.2923C19.4184 19.2923 20.0092 19.9272 20.0092 20.6462C20.0092 21.3652 19.4184 22 18.6896 22H15.9807M15.9807 19.2923C15.2519 19.2923 14.6611 19.9272 14.6611 20.6462C14.6611 21.3652 15.2519 22 15.9807 22M15.9807 22C13.0556 22 10.4167 21.4793 8.83336 19.9174L5.77074 20.6728C5.05132 20.8502 4.28447 20.6435 3.85799 20.0449C3.34836 19.3297 2.73602 18.2491 2.55371 17" stroke="black" stroke-width="2" stroke-linecap="round" stroke-linejoin="round"/>
</svg>
