<svg width="24" height="24" viewBox="0 0 24 24" fill="none" xmlns="http://www.w3.org/2000/svg">
<path fill-rule="evenodd" clip-rule="evenodd" d="M15.5996 20.2516C14.4986 20.7326 13.2818 21 12 21C7.02944 21 3 16.9706 3 12C3 11.3823 3.06209 10.78 3.18005 10.1989C3.28992 9.65769 2.94022 9.12985 2.39897 9.01999C1.85772 8.91012 1.32989 9.25982 1.22002 9.80107C1.07563 10.5124 1 11.2479 1 12C1 18.0751 5.92487 23 12 23C13.5626 23 15.0516 22.6736 16.4004 22.0843C16.9065 21.8631 17.1375 21.2736 16.9164 20.7675C16.6952 20.2615 16.1057 20.0304 15.5996 20.2516ZM18.7503 17.9528C18.3848 18.3669 18.4242 18.9988 18.8383 19.3643C19.2523 19.7298 19.8843 19.6904 20.2497 19.2763C21.9607 17.3378 23 14.789 23 12C23 5.92487 18.0751 1 12 1C8.40055 1 5.20486 2.72989 3.1997 5.39942C2.86801 5.84101 2.9571 6.46788 3.39869 6.79957C3.84028 7.13126 4.46714 7.04217 4.79883 6.60058C6.4425 4.41232 9.05617 3 12 3C16.9706 3 21 7.02944 21 12C21 14.2832 20.1511 16.3657 18.7503 17.9528ZM15.5636 9.35094C15.7574 9.8681 16.3338 10.1302 16.8509 9.9364C17.3681 9.74258 17.6302 9.16622 17.4364 8.64906C16.6294 6.49581 14.4781 5 12 5C9.52186 5 7.37059 6.49581 6.5636 8.64906C6.36978 9.16622 6.6319 9.74258 7.14906 9.9364C7.66622 10.1302 8.24258 9.8681 8.4364 9.35094C8.93947 8.00861 10.3231 7 12 7C13.6769 7 15.0605 8.00861 15.5636 9.35094ZM15.5 13C14.6716 13 14 13.6716 14 14.5C14 15.3284 14.6716 16 15.5 16C16.3284 16 17 15.3284 17 14.5C17 13.6716 16.3284 13 15.5 13ZM8.5 13C7.67157 13 7 13.6716 7 14.5C7 15.3284 7.67157 16 8.5 16C9.32843 16 10 15.3284 10 14.5C10 13.6716 9.32843 13 8.5 13Z" fill="black"/>
</svg>
