<svg width="24" height="24" viewBox="0 0 24 24" fill="none" xmlns="http://www.w3.org/2000/svg">
<path d="M17.0004 20.6602C12.2175 23.4216 6.1016 21.7829 3.34018 17C2.96711 16.3538 2.67435 15.6833 2.45881 15M13.5005 15.7349C13.6651 15.6516 13.8318 15.5614 14.0004 15.4641C14.4677 15.1943 14.8791 14.9105 15.2417 14.614C16.508 13.5785 17.1783 12.3889 17.5471 11.107M13.5005 15.7349C13.2089 15.8823 12.9235 16.0081 12.6436 16.114C11.8933 16.3979 11.1826 16.5391 10.5005 16.5714M13.5005 15.7349V17.4999C13.5005 18.3284 12.8289 18.9999 12.0005 18.9999C11.172 18.9999 10.5005 18.3284 10.5005 17.4999V16.5714M10.5005 16.5714C9.79158 16.605 9.11349 16.5209 8.4538 16.357M2.0498 11C2.36286 7.91064 4.10587 5.01088 7.00043 3.33971C11.7834 0.578283 17.8993 2.21703 20.6607 6.99996C22.7172 10.562 22.3333 14.8633 20.0277 17.9677" stroke="black" stroke-width="2" stroke-linecap="round" stroke-linejoin="round"/>
<path d="M13.9998 8.73176C14.9563 8.17957 15.284 6.95659 14.7318 6.00017C14.1796 5.04374 12.9566 4.71605 12.0002 5.26824C11.0437 5.82043 10.716 7.04341 11.2682 7.99983C11.8204 8.95626 13.0434 9.28395 13.9998 8.73176Z" fill="black"/>
<path d="M8.79882 11.7501C9.21297 12.4674 8.96719 13.3847 8.24987 13.7988C7.53256 14.213 6.61532 13.9672 6.20118 13.2499C5.78703 12.5326 6.03281 11.6153 6.75013 11.2012C7.46744 10.787 8.38468 11.0328 8.79882 11.7501Z" fill="black"/>
</svg>
